%
M48
M72
T01C0.03307
T02C0.03937
T03C0.12598
%
T01
X27426Y70520
X34052Y60920
X44381Y55500
X56044Y55500
X66373Y60920
X72999Y70520
X74405Y82099
X70269Y93005
X61538Y100740
X50213Y103531
X38887Y100740
X30157Y93005
X26020Y82099
T02
X20213Y15500
X20213Y25500
X30213Y25500
X30213Y15500
X40213Y15500
X40213Y25500
X50213Y25500
X50213Y15500
X60213Y15500
X60213Y25500
X70213Y25500
X70213Y15500
X80213Y15500
X80213Y25500
T03
X12811Y41760
X12811Y116563
X87614Y116563
X87614Y41760
M30
