%
M48
M72
T01C0.01200
T02C0.03307
T03C0.03937
T04C0.12598
%
T01
X109268Y34465
X121079Y40370
X130921Y46276
X197850Y34465
X209661Y40370
X215567Y46276
X292339Y34465
X321866Y40370
X327772Y46276
X394701Y34465
X428165Y40370
X477378Y34465
X526591Y40370
X546276Y34465
X528559Y28559
X552181Y46276
X483283Y46276
X465567Y52181
X453756Y58087
X447850Y67929
X418323Y77772
X400606Y77772
X412417Y89583
X432102Y89583
X459661Y89583
X483283Y83677
X524622Y77772
X532496Y77772
X538402Y83677
X493126Y95488
X502969Y101394
X520685Y99425
X522654Y121079
X499031Y126984
X457693Y132890
X439976Y138795
X422260Y138795
X410449Y146669
X386827Y142732
X410449Y126984
X416354Y121079
X404543Y121079
X392732Y121079
X298244Y95488
X308087Y89583
X308087Y77772
X288402Y77772
X195882Y89583
X186039Y83677
X176197Y83677
X191945Y77772
X95488Y77772
X95488Y93520
X75803Y95488
X73835Y111236
X144701Y126984
X150606Y132890
X166354Y132890
X199819Y126984
X172260Y121079
X254937Y134858
X260843Y121079
X130921Y142732
X132890Y162417
X193913Y168323
X341551Y160449
X436039Y172260
X439976Y178165
X443913Y184071
X388795Y189976
X376984Y184071
X516748Y189976
X516748Y178165
X520685Y172260
X558087Y164386
X571866Y178165
X569898Y148638
X605331Y138795
X552181Y132890
X558087Y121079
X632890Y99425
X644701Y93520
X652575Y83677
X640764Y77772
X625016Y77772
X719504Y73835
X756906Y77772
X747063Y83677
X756906Y93520
X739189Y95488
X833677Y103362
X741157Y121079
X782496Y126984
X782496Y132890
X845488Y138795
X851394Y138795
X871079Y126984
X699819Y138795
X682102Y148638
X752969Y164386
X670291Y121079
X857299Y65961
X774622Y48244
X768717Y40370
X819898Y46276
X662417Y46276
X656512Y40370
X634858Y40370
T02
X79740Y108047
X68415Y105256
X91065Y105256
X99796Y97521
X59684Y97521
X55548Y86615
X103932Y86615
X102526Y75035
X56954Y75035
X63580Y65436
X73908Y60015
X85572Y60015
X95900Y65436
X169159Y75035
X175785Y65436
X186113Y60015
X197777Y60015
X208105Y65436
X214731Y75035
X216137Y86615
X167753Y86615
X171889Y97521
X180620Y105256
X191945Y108047
X203270Y105256
X212001Y97521
X279957Y86615
X328342Y86615
X324206Y97521
X315475Y105256
X304150Y108047
X292824Y105256
X284094Y97521
X392162Y86615
X440546Y86615
X436410Y97521
X427680Y105256
X416354Y108047
X405029Y105256
X396298Y97521
X393568Y75035
X400194Y65436
X410522Y60015
X422186Y60015
X432515Y65436
X439141Y75035
X504367Y86615
X552751Y86615
X548615Y97521
X539884Y105256
X528559Y108047
X517234Y105256
X508503Y97521
X505773Y75035
X512399Y65436
X522727Y60015
X534391Y60015
X544719Y65436
X551345Y75035
X616572Y86615
X664956Y86615
X660820Y97521
X652089Y105256
X640764Y108047
X629439Y105256
X620708Y97521
X728776Y86615
X732913Y97521
X741643Y105256
X752969Y108047
X764294Y105256
X773024Y97521
X777161Y86615
X775755Y75035
X730182Y75035
X736808Y65436
X747137Y60015
X758800Y60015
X769129Y65436
X842387Y75035
X849013Y65436
X859341Y60015
X871005Y60015
X881333Y65436
X887959Y75035
X889365Y86615
X840981Y86615
X845117Y97521
X853848Y105256
X865173Y108047
X876498Y105256
X885229Y97521
X663550Y75035
X656924Y65436
X646596Y60015
X634932Y60015
X624604Y65436
X617978Y75035
X326936Y75035
X320310Y65436
X309981Y60015
X298318Y60015
X287989Y65436
X281363Y75035
T03
X380764Y154543
X390764Y154543
X400764Y154543
X428441Y149543
X438441Y149543
X448441Y149543
X458441Y149543
X468441Y149543
X478441Y149543
X488441Y149543
X498441Y149543
X508441Y149543
X518441Y149543
X518441Y159543
X508441Y159543
X498441Y159543
X488441Y159543
X478441Y159543
X468441Y159543
X458441Y159543
X448441Y159543
X438441Y159543
X428441Y159543
T04
X12811Y12811
X12811Y186039
X934071Y186039
X934071Y12811
M30
