G75*
%MOIN*%
%OFA0B0*%
%FSLAX25Y25*%
%IPPOS*%
%LPD*%
%AMOC8*
5,1,8,0,0,1.08239X$1,22.5*
%
%ADD10C,0.00000*%
%ADD11C,0.12998*%
%ADD12C,0.09061*%
%ADD13R,0.10636X0.14180*%
%ADD14C,0.04731*%
%ADD15C,0.07093*%
%ADD16C,0.06337*%
%ADD17C,0.05518*%
D10*
X0060586Y0028959D02*
X0060586Y0186439D01*
X0093066Y0186439D01*
X0093066Y0183487D01*
X0093068Y0183401D01*
X0093073Y0183315D01*
X0093083Y0183230D01*
X0093096Y0183145D01*
X0093113Y0183061D01*
X0093133Y0182977D01*
X0093157Y0182895D01*
X0093185Y0182814D01*
X0093216Y0182733D01*
X0093250Y0182655D01*
X0093288Y0182578D01*
X0093330Y0182503D01*
X0093374Y0182429D01*
X0093422Y0182358D01*
X0093473Y0182288D01*
X0093527Y0182221D01*
X0093583Y0182157D01*
X0093643Y0182095D01*
X0093705Y0182035D01*
X0093769Y0181979D01*
X0093836Y0181925D01*
X0093906Y0181874D01*
X0093977Y0181826D01*
X0094051Y0181782D01*
X0094126Y0181740D01*
X0094203Y0181702D01*
X0094281Y0181668D01*
X0094362Y0181637D01*
X0094443Y0181609D01*
X0094525Y0181585D01*
X0094609Y0181565D01*
X0094693Y0181548D01*
X0094778Y0181535D01*
X0094863Y0181525D01*
X0094949Y0181520D01*
X0095035Y0181518D01*
X0124562Y0181518D01*
X0124648Y0181520D01*
X0124734Y0181525D01*
X0124819Y0181535D01*
X0124904Y0181548D01*
X0124988Y0181565D01*
X0125072Y0181585D01*
X0125154Y0181609D01*
X0125235Y0181637D01*
X0125316Y0181668D01*
X0125394Y0181702D01*
X0125471Y0181740D01*
X0125547Y0181782D01*
X0125620Y0181826D01*
X0125691Y0181874D01*
X0125761Y0181925D01*
X0125828Y0181979D01*
X0125892Y0182035D01*
X0125954Y0182095D01*
X0126014Y0182157D01*
X0126070Y0182221D01*
X0126124Y0182288D01*
X0126175Y0182358D01*
X0126223Y0182429D01*
X0126267Y0182503D01*
X0126309Y0182578D01*
X0126347Y0182655D01*
X0126381Y0182733D01*
X0126412Y0182814D01*
X0126440Y0182895D01*
X0126464Y0182977D01*
X0126484Y0183061D01*
X0126501Y0183145D01*
X0126514Y0183230D01*
X0126524Y0183315D01*
X0126529Y0183401D01*
X0126531Y0183487D01*
X0126531Y0186439D01*
X0222003Y0186439D01*
X0222003Y0162817D01*
X0222005Y0162693D01*
X0222011Y0162570D01*
X0222020Y0162446D01*
X0222034Y0162324D01*
X0222051Y0162201D01*
X0222073Y0162079D01*
X0222098Y0161958D01*
X0222127Y0161838D01*
X0222159Y0161719D01*
X0222196Y0161600D01*
X0222236Y0161483D01*
X0222279Y0161368D01*
X0222327Y0161253D01*
X0222378Y0161141D01*
X0222432Y0161030D01*
X0222490Y0160920D01*
X0222551Y0160813D01*
X0222616Y0160707D01*
X0222684Y0160604D01*
X0222755Y0160503D01*
X0222829Y0160404D01*
X0222906Y0160307D01*
X0222987Y0160213D01*
X0223070Y0160122D01*
X0223156Y0160033D01*
X0223245Y0159947D01*
X0223336Y0159864D01*
X0223430Y0159783D01*
X0223527Y0159706D01*
X0223626Y0159632D01*
X0223727Y0159561D01*
X0223830Y0159493D01*
X0223936Y0159428D01*
X0224043Y0159367D01*
X0224153Y0159309D01*
X0224264Y0159255D01*
X0224376Y0159204D01*
X0224491Y0159156D01*
X0224606Y0159113D01*
X0224723Y0159073D01*
X0224842Y0159036D01*
X0224961Y0159004D01*
X0225081Y0158975D01*
X0225202Y0158950D01*
X0225324Y0158928D01*
X0225447Y0158911D01*
X0225569Y0158897D01*
X0225693Y0158888D01*
X0225816Y0158882D01*
X0225940Y0158880D01*
X0407043Y0158880D01*
X0407167Y0158882D01*
X0407290Y0158888D01*
X0407414Y0158897D01*
X0407536Y0158911D01*
X0407659Y0158928D01*
X0407781Y0158950D01*
X0407902Y0158975D01*
X0408022Y0159004D01*
X0408141Y0159036D01*
X0408260Y0159073D01*
X0408377Y0159113D01*
X0408492Y0159156D01*
X0408607Y0159204D01*
X0408719Y0159255D01*
X0408830Y0159309D01*
X0408940Y0159367D01*
X0409047Y0159428D01*
X0409153Y0159493D01*
X0409256Y0159561D01*
X0409357Y0159632D01*
X0409456Y0159706D01*
X0409553Y0159783D01*
X0409647Y0159864D01*
X0409738Y0159947D01*
X0409827Y0160033D01*
X0409913Y0160122D01*
X0409996Y0160213D01*
X0410077Y0160307D01*
X0410154Y0160404D01*
X0410228Y0160503D01*
X0410299Y0160604D01*
X0410367Y0160707D01*
X0410432Y0160813D01*
X0410493Y0160920D01*
X0410551Y0161030D01*
X0410605Y0161141D01*
X0410656Y0161253D01*
X0410704Y0161368D01*
X0410747Y0161483D01*
X0410787Y0161600D01*
X0410824Y0161719D01*
X0410856Y0161838D01*
X0410885Y0161958D01*
X0410910Y0162079D01*
X0410932Y0162201D01*
X0410949Y0162324D01*
X0410963Y0162446D01*
X0410972Y0162570D01*
X0410978Y0162693D01*
X0410980Y0162817D01*
X0410980Y0186439D01*
X0847987Y0186439D01*
X0847987Y0028959D01*
X0060586Y0028959D01*
X0066098Y0040770D02*
X0066100Y0040928D01*
X0066106Y0041086D01*
X0066116Y0041244D01*
X0066130Y0041402D01*
X0066148Y0041559D01*
X0066169Y0041716D01*
X0066195Y0041872D01*
X0066225Y0042028D01*
X0066258Y0042183D01*
X0066296Y0042336D01*
X0066337Y0042489D01*
X0066382Y0042641D01*
X0066431Y0042792D01*
X0066484Y0042941D01*
X0066540Y0043089D01*
X0066600Y0043235D01*
X0066664Y0043380D01*
X0066732Y0043523D01*
X0066803Y0043665D01*
X0066877Y0043805D01*
X0066955Y0043942D01*
X0067037Y0044078D01*
X0067121Y0044212D01*
X0067210Y0044343D01*
X0067301Y0044472D01*
X0067396Y0044599D01*
X0067493Y0044724D01*
X0067594Y0044846D01*
X0067698Y0044965D01*
X0067805Y0045082D01*
X0067915Y0045196D01*
X0068028Y0045307D01*
X0068143Y0045416D01*
X0068261Y0045521D01*
X0068382Y0045623D01*
X0068505Y0045723D01*
X0068631Y0045819D01*
X0068759Y0045912D01*
X0068889Y0046002D01*
X0069022Y0046088D01*
X0069157Y0046172D01*
X0069293Y0046251D01*
X0069432Y0046328D01*
X0069573Y0046400D01*
X0069715Y0046470D01*
X0069859Y0046535D01*
X0070005Y0046597D01*
X0070152Y0046655D01*
X0070301Y0046710D01*
X0070451Y0046761D01*
X0070602Y0046808D01*
X0070754Y0046851D01*
X0070907Y0046890D01*
X0071062Y0046926D01*
X0071217Y0046957D01*
X0071373Y0046985D01*
X0071529Y0047009D01*
X0071686Y0047029D01*
X0071844Y0047045D01*
X0072001Y0047057D01*
X0072160Y0047065D01*
X0072318Y0047069D01*
X0072476Y0047069D01*
X0072634Y0047065D01*
X0072793Y0047057D01*
X0072950Y0047045D01*
X0073108Y0047029D01*
X0073265Y0047009D01*
X0073421Y0046985D01*
X0073577Y0046957D01*
X0073732Y0046926D01*
X0073887Y0046890D01*
X0074040Y0046851D01*
X0074192Y0046808D01*
X0074343Y0046761D01*
X0074493Y0046710D01*
X0074642Y0046655D01*
X0074789Y0046597D01*
X0074935Y0046535D01*
X0075079Y0046470D01*
X0075221Y0046400D01*
X0075362Y0046328D01*
X0075501Y0046251D01*
X0075637Y0046172D01*
X0075772Y0046088D01*
X0075905Y0046002D01*
X0076035Y0045912D01*
X0076163Y0045819D01*
X0076289Y0045723D01*
X0076412Y0045623D01*
X0076533Y0045521D01*
X0076651Y0045416D01*
X0076766Y0045307D01*
X0076879Y0045196D01*
X0076989Y0045082D01*
X0077096Y0044965D01*
X0077200Y0044846D01*
X0077301Y0044724D01*
X0077398Y0044599D01*
X0077493Y0044472D01*
X0077584Y0044343D01*
X0077673Y0044212D01*
X0077757Y0044078D01*
X0077839Y0043942D01*
X0077917Y0043805D01*
X0077991Y0043665D01*
X0078062Y0043523D01*
X0078130Y0043380D01*
X0078194Y0043235D01*
X0078254Y0043089D01*
X0078310Y0042941D01*
X0078363Y0042792D01*
X0078412Y0042641D01*
X0078457Y0042489D01*
X0078498Y0042336D01*
X0078536Y0042183D01*
X0078569Y0042028D01*
X0078599Y0041872D01*
X0078625Y0041716D01*
X0078646Y0041559D01*
X0078664Y0041402D01*
X0078678Y0041244D01*
X0078688Y0041086D01*
X0078694Y0040928D01*
X0078696Y0040770D01*
X0078694Y0040612D01*
X0078688Y0040454D01*
X0078678Y0040296D01*
X0078664Y0040138D01*
X0078646Y0039981D01*
X0078625Y0039824D01*
X0078599Y0039668D01*
X0078569Y0039512D01*
X0078536Y0039357D01*
X0078498Y0039204D01*
X0078457Y0039051D01*
X0078412Y0038899D01*
X0078363Y0038748D01*
X0078310Y0038599D01*
X0078254Y0038451D01*
X0078194Y0038305D01*
X0078130Y0038160D01*
X0078062Y0038017D01*
X0077991Y0037875D01*
X0077917Y0037735D01*
X0077839Y0037598D01*
X0077757Y0037462D01*
X0077673Y0037328D01*
X0077584Y0037197D01*
X0077493Y0037068D01*
X0077398Y0036941D01*
X0077301Y0036816D01*
X0077200Y0036694D01*
X0077096Y0036575D01*
X0076989Y0036458D01*
X0076879Y0036344D01*
X0076766Y0036233D01*
X0076651Y0036124D01*
X0076533Y0036019D01*
X0076412Y0035917D01*
X0076289Y0035817D01*
X0076163Y0035721D01*
X0076035Y0035628D01*
X0075905Y0035538D01*
X0075772Y0035452D01*
X0075637Y0035368D01*
X0075501Y0035289D01*
X0075362Y0035212D01*
X0075221Y0035140D01*
X0075079Y0035070D01*
X0074935Y0035005D01*
X0074789Y0034943D01*
X0074642Y0034885D01*
X0074493Y0034830D01*
X0074343Y0034779D01*
X0074192Y0034732D01*
X0074040Y0034689D01*
X0073887Y0034650D01*
X0073732Y0034614D01*
X0073577Y0034583D01*
X0073421Y0034555D01*
X0073265Y0034531D01*
X0073108Y0034511D01*
X0072950Y0034495D01*
X0072793Y0034483D01*
X0072634Y0034475D01*
X0072476Y0034471D01*
X0072318Y0034471D01*
X0072160Y0034475D01*
X0072001Y0034483D01*
X0071844Y0034495D01*
X0071686Y0034511D01*
X0071529Y0034531D01*
X0071373Y0034555D01*
X0071217Y0034583D01*
X0071062Y0034614D01*
X0070907Y0034650D01*
X0070754Y0034689D01*
X0070602Y0034732D01*
X0070451Y0034779D01*
X0070301Y0034830D01*
X0070152Y0034885D01*
X0070005Y0034943D01*
X0069859Y0035005D01*
X0069715Y0035070D01*
X0069573Y0035140D01*
X0069432Y0035212D01*
X0069293Y0035289D01*
X0069157Y0035368D01*
X0069022Y0035452D01*
X0068889Y0035538D01*
X0068759Y0035628D01*
X0068631Y0035721D01*
X0068505Y0035817D01*
X0068382Y0035917D01*
X0068261Y0036019D01*
X0068143Y0036124D01*
X0068028Y0036233D01*
X0067915Y0036344D01*
X0067805Y0036458D01*
X0067698Y0036575D01*
X0067594Y0036694D01*
X0067493Y0036816D01*
X0067396Y0036941D01*
X0067301Y0037068D01*
X0067210Y0037197D01*
X0067121Y0037328D01*
X0067037Y0037462D01*
X0066955Y0037598D01*
X0066877Y0037735D01*
X0066803Y0037875D01*
X0066732Y0038017D01*
X0066664Y0038160D01*
X0066600Y0038305D01*
X0066540Y0038451D01*
X0066484Y0038599D01*
X0066431Y0038748D01*
X0066382Y0038899D01*
X0066337Y0039051D01*
X0066296Y0039204D01*
X0066258Y0039357D01*
X0066225Y0039512D01*
X0066195Y0039668D01*
X0066169Y0039824D01*
X0066148Y0039981D01*
X0066130Y0040138D01*
X0066116Y0040296D01*
X0066106Y0040454D01*
X0066100Y0040612D01*
X0066098Y0040770D01*
X0114326Y0065376D02*
X0117082Y0065376D01*
X0117082Y0065377D02*
X0117174Y0065379D01*
X0117266Y0065385D01*
X0117357Y0065395D01*
X0117448Y0065408D01*
X0117538Y0065426D01*
X0117628Y0065447D01*
X0117716Y0065472D01*
X0117803Y0065501D01*
X0117889Y0065533D01*
X0117974Y0065569D01*
X0118057Y0065609D01*
X0118138Y0065652D01*
X0118217Y0065698D01*
X0118294Y0065748D01*
X0118369Y0065801D01*
X0118442Y0065858D01*
X0118512Y0065917D01*
X0118580Y0065979D01*
X0118645Y0066044D01*
X0118707Y0066112D01*
X0118766Y0066182D01*
X0118823Y0066255D01*
X0118876Y0066330D01*
X0118926Y0066407D01*
X0118972Y0066486D01*
X0119015Y0066567D01*
X0119055Y0066650D01*
X0119091Y0066735D01*
X0119123Y0066821D01*
X0119152Y0066908D01*
X0119177Y0066996D01*
X0119198Y0067086D01*
X0119216Y0067176D01*
X0119229Y0067267D01*
X0119239Y0067358D01*
X0119245Y0067450D01*
X0119247Y0067542D01*
X0119245Y0067634D01*
X0119239Y0067726D01*
X0119229Y0067817D01*
X0119216Y0067908D01*
X0119198Y0067998D01*
X0119177Y0068088D01*
X0119152Y0068176D01*
X0119123Y0068263D01*
X0119091Y0068349D01*
X0119055Y0068434D01*
X0119015Y0068517D01*
X0118972Y0068598D01*
X0118926Y0068677D01*
X0118876Y0068754D01*
X0118823Y0068829D01*
X0118766Y0068902D01*
X0118707Y0068972D01*
X0118645Y0069040D01*
X0118580Y0069105D01*
X0118512Y0069167D01*
X0118442Y0069226D01*
X0118369Y0069283D01*
X0118294Y0069336D01*
X0118217Y0069386D01*
X0118138Y0069432D01*
X0118057Y0069475D01*
X0117974Y0069515D01*
X0117889Y0069551D01*
X0117803Y0069583D01*
X0117716Y0069612D01*
X0117628Y0069637D01*
X0117538Y0069658D01*
X0117448Y0069676D01*
X0117357Y0069689D01*
X0117266Y0069699D01*
X0117174Y0069705D01*
X0117082Y0069707D01*
X0114326Y0069707D01*
X0114326Y0069708D02*
X0114234Y0069702D01*
X0114143Y0069692D01*
X0114052Y0069678D01*
X0113962Y0069660D01*
X0113873Y0069639D01*
X0113784Y0069613D01*
X0113697Y0069584D01*
X0113611Y0069552D01*
X0113527Y0069516D01*
X0113444Y0069476D01*
X0113363Y0069433D01*
X0113284Y0069386D01*
X0113207Y0069336D01*
X0113132Y0069283D01*
X0113059Y0069226D01*
X0112989Y0069167D01*
X0112922Y0069105D01*
X0112857Y0069040D01*
X0112795Y0068972D01*
X0112735Y0068902D01*
X0112679Y0068829D01*
X0112626Y0068754D01*
X0112577Y0068677D01*
X0112530Y0068598D01*
X0112487Y0068516D01*
X0112448Y0068433D01*
X0112412Y0068349D01*
X0112379Y0068263D01*
X0112351Y0068176D01*
X0112326Y0068087D01*
X0112304Y0067998D01*
X0112287Y0067908D01*
X0112273Y0067817D01*
X0112264Y0067726D01*
X0112258Y0067634D01*
X0112256Y0067542D01*
X0112258Y0067450D01*
X0112264Y0067358D01*
X0112273Y0067267D01*
X0112287Y0067176D01*
X0112304Y0067086D01*
X0112326Y0066997D01*
X0112351Y0066908D01*
X0112379Y0066821D01*
X0112412Y0066735D01*
X0112448Y0066651D01*
X0112487Y0066568D01*
X0112530Y0066486D01*
X0112577Y0066407D01*
X0112626Y0066330D01*
X0112679Y0066255D01*
X0112735Y0066182D01*
X0112795Y0066112D01*
X0112857Y0066044D01*
X0112922Y0065979D01*
X0112989Y0065917D01*
X0113059Y0065858D01*
X0113132Y0065801D01*
X0113207Y0065748D01*
X0113284Y0065698D01*
X0113363Y0065651D01*
X0113444Y0065608D01*
X0113527Y0065568D01*
X0113611Y0065532D01*
X0113697Y0065500D01*
X0113784Y0065471D01*
X0113873Y0065445D01*
X0113962Y0065424D01*
X0114052Y0065406D01*
X0114143Y0065392D01*
X0114234Y0065382D01*
X0114326Y0065376D01*
X0112358Y0080534D02*
X0112360Y0080649D01*
X0112366Y0080765D01*
X0112376Y0080880D01*
X0112390Y0080995D01*
X0112408Y0081109D01*
X0112430Y0081222D01*
X0112455Y0081335D01*
X0112485Y0081446D01*
X0112518Y0081557D01*
X0112555Y0081666D01*
X0112596Y0081774D01*
X0112641Y0081881D01*
X0112689Y0081986D01*
X0112741Y0082089D01*
X0112797Y0082190D01*
X0112856Y0082290D01*
X0112918Y0082387D01*
X0112984Y0082482D01*
X0113052Y0082575D01*
X0113124Y0082665D01*
X0113199Y0082753D01*
X0113278Y0082838D01*
X0113359Y0082920D01*
X0113442Y0083000D01*
X0113529Y0083076D01*
X0113618Y0083150D01*
X0113709Y0083220D01*
X0113803Y0083288D01*
X0113899Y0083352D01*
X0113998Y0083412D01*
X0114098Y0083469D01*
X0114200Y0083523D01*
X0114304Y0083573D01*
X0114410Y0083620D01*
X0114517Y0083663D01*
X0114626Y0083702D01*
X0114736Y0083737D01*
X0114847Y0083768D01*
X0114959Y0083796D01*
X0115072Y0083820D01*
X0115186Y0083840D01*
X0115301Y0083856D01*
X0115416Y0083868D01*
X0115531Y0083876D01*
X0115646Y0083880D01*
X0115762Y0083880D01*
X0115877Y0083876D01*
X0115992Y0083868D01*
X0116107Y0083856D01*
X0116222Y0083840D01*
X0116336Y0083820D01*
X0116449Y0083796D01*
X0116561Y0083768D01*
X0116672Y0083737D01*
X0116782Y0083702D01*
X0116891Y0083663D01*
X0116998Y0083620D01*
X0117104Y0083573D01*
X0117208Y0083523D01*
X0117310Y0083469D01*
X0117410Y0083412D01*
X0117509Y0083352D01*
X0117605Y0083288D01*
X0117699Y0083220D01*
X0117790Y0083150D01*
X0117879Y0083076D01*
X0117966Y0083000D01*
X0118049Y0082920D01*
X0118130Y0082838D01*
X0118209Y0082753D01*
X0118284Y0082665D01*
X0118356Y0082575D01*
X0118424Y0082482D01*
X0118490Y0082387D01*
X0118552Y0082290D01*
X0118611Y0082190D01*
X0118667Y0082089D01*
X0118719Y0081986D01*
X0118767Y0081881D01*
X0118812Y0081774D01*
X0118853Y0081666D01*
X0118890Y0081557D01*
X0118923Y0081446D01*
X0118953Y0081335D01*
X0118978Y0081222D01*
X0119000Y0081109D01*
X0119018Y0080995D01*
X0119032Y0080880D01*
X0119042Y0080765D01*
X0119048Y0080649D01*
X0119050Y0080534D01*
X0119048Y0080419D01*
X0119042Y0080303D01*
X0119032Y0080188D01*
X0119018Y0080073D01*
X0119000Y0079959D01*
X0118978Y0079846D01*
X0118953Y0079733D01*
X0118923Y0079622D01*
X0118890Y0079511D01*
X0118853Y0079402D01*
X0118812Y0079294D01*
X0118767Y0079187D01*
X0118719Y0079082D01*
X0118667Y0078979D01*
X0118611Y0078878D01*
X0118552Y0078778D01*
X0118490Y0078681D01*
X0118424Y0078586D01*
X0118356Y0078493D01*
X0118284Y0078403D01*
X0118209Y0078315D01*
X0118130Y0078230D01*
X0118049Y0078148D01*
X0117966Y0078068D01*
X0117879Y0077992D01*
X0117790Y0077918D01*
X0117699Y0077848D01*
X0117605Y0077780D01*
X0117509Y0077716D01*
X0117410Y0077656D01*
X0117310Y0077599D01*
X0117208Y0077545D01*
X0117104Y0077495D01*
X0116998Y0077448D01*
X0116891Y0077405D01*
X0116782Y0077366D01*
X0116672Y0077331D01*
X0116561Y0077300D01*
X0116449Y0077272D01*
X0116336Y0077248D01*
X0116222Y0077228D01*
X0116107Y0077212D01*
X0115992Y0077200D01*
X0115877Y0077192D01*
X0115762Y0077188D01*
X0115646Y0077188D01*
X0115531Y0077192D01*
X0115416Y0077200D01*
X0115301Y0077212D01*
X0115186Y0077228D01*
X0115072Y0077248D01*
X0114959Y0077272D01*
X0114847Y0077300D01*
X0114736Y0077331D01*
X0114626Y0077366D01*
X0114517Y0077405D01*
X0114410Y0077448D01*
X0114304Y0077495D01*
X0114200Y0077545D01*
X0114098Y0077599D01*
X0113998Y0077656D01*
X0113899Y0077716D01*
X0113803Y0077780D01*
X0113709Y0077848D01*
X0113618Y0077918D01*
X0113529Y0077992D01*
X0113442Y0078068D01*
X0113359Y0078148D01*
X0113278Y0078230D01*
X0113199Y0078315D01*
X0113124Y0078403D01*
X0113052Y0078493D01*
X0112984Y0078586D01*
X0112918Y0078681D01*
X0112856Y0078778D01*
X0112797Y0078878D01*
X0112741Y0078979D01*
X0112689Y0079082D01*
X0112641Y0079187D01*
X0112596Y0079294D01*
X0112555Y0079402D01*
X0112518Y0079511D01*
X0112485Y0079622D01*
X0112455Y0079733D01*
X0112430Y0079846D01*
X0112408Y0079959D01*
X0112390Y0080073D01*
X0112376Y0080188D01*
X0112366Y0080303D01*
X0112360Y0080419D01*
X0112358Y0080534D01*
X0189130Y0080534D02*
X0189132Y0080627D01*
X0189138Y0080719D01*
X0189148Y0080811D01*
X0189162Y0080902D01*
X0189179Y0080993D01*
X0189201Y0081083D01*
X0189226Y0081172D01*
X0189255Y0081260D01*
X0189288Y0081346D01*
X0189325Y0081431D01*
X0189365Y0081515D01*
X0189409Y0081596D01*
X0189456Y0081676D01*
X0189506Y0081754D01*
X0189560Y0081829D01*
X0189617Y0081902D01*
X0189677Y0081972D01*
X0189740Y0082040D01*
X0189806Y0082105D01*
X0189874Y0082167D01*
X0189945Y0082227D01*
X0190019Y0082283D01*
X0190095Y0082336D01*
X0190173Y0082385D01*
X0190253Y0082432D01*
X0190335Y0082474D01*
X0190419Y0082514D01*
X0190504Y0082549D01*
X0190591Y0082581D01*
X0190679Y0082610D01*
X0190768Y0082634D01*
X0190858Y0082655D01*
X0190949Y0082671D01*
X0191041Y0082684D01*
X0191133Y0082693D01*
X0191226Y0082698D01*
X0191318Y0082699D01*
X0191411Y0082696D01*
X0191503Y0082689D01*
X0191595Y0082678D01*
X0191686Y0082663D01*
X0191777Y0082645D01*
X0191867Y0082622D01*
X0191955Y0082596D01*
X0192043Y0082566D01*
X0192129Y0082532D01*
X0192213Y0082495D01*
X0192296Y0082453D01*
X0192377Y0082409D01*
X0192457Y0082361D01*
X0192534Y0082310D01*
X0192608Y0082255D01*
X0192681Y0082197D01*
X0192751Y0082137D01*
X0192818Y0082073D01*
X0192882Y0082007D01*
X0192944Y0081937D01*
X0193002Y0081866D01*
X0193057Y0081792D01*
X0193109Y0081715D01*
X0193158Y0081636D01*
X0193204Y0081556D01*
X0193246Y0081473D01*
X0193284Y0081389D01*
X0193319Y0081303D01*
X0193350Y0081216D01*
X0193377Y0081128D01*
X0193400Y0081038D01*
X0193420Y0080948D01*
X0193436Y0080857D01*
X0193448Y0080765D01*
X0193456Y0080673D01*
X0193460Y0080580D01*
X0193460Y0080488D01*
X0193456Y0080395D01*
X0193448Y0080303D01*
X0193436Y0080211D01*
X0193420Y0080120D01*
X0193400Y0080030D01*
X0193377Y0079940D01*
X0193350Y0079852D01*
X0193319Y0079765D01*
X0193284Y0079679D01*
X0193246Y0079595D01*
X0193204Y0079512D01*
X0193158Y0079432D01*
X0193109Y0079353D01*
X0193057Y0079276D01*
X0193002Y0079202D01*
X0192944Y0079131D01*
X0192882Y0079061D01*
X0192818Y0078995D01*
X0192751Y0078931D01*
X0192681Y0078871D01*
X0192608Y0078813D01*
X0192534Y0078758D01*
X0192457Y0078707D01*
X0192378Y0078659D01*
X0192296Y0078615D01*
X0192213Y0078573D01*
X0192129Y0078536D01*
X0192043Y0078502D01*
X0191955Y0078472D01*
X0191867Y0078446D01*
X0191777Y0078423D01*
X0191686Y0078405D01*
X0191595Y0078390D01*
X0191503Y0078379D01*
X0191411Y0078372D01*
X0191318Y0078369D01*
X0191226Y0078370D01*
X0191133Y0078375D01*
X0191041Y0078384D01*
X0190949Y0078397D01*
X0190858Y0078413D01*
X0190768Y0078434D01*
X0190679Y0078458D01*
X0190591Y0078487D01*
X0190504Y0078519D01*
X0190419Y0078554D01*
X0190335Y0078594D01*
X0190253Y0078636D01*
X0190173Y0078683D01*
X0190095Y0078732D01*
X0190019Y0078785D01*
X0189945Y0078841D01*
X0189874Y0078901D01*
X0189806Y0078963D01*
X0189740Y0079028D01*
X0189677Y0079096D01*
X0189617Y0079166D01*
X0189560Y0079239D01*
X0189506Y0079314D01*
X0189456Y0079392D01*
X0189409Y0079472D01*
X0189365Y0079553D01*
X0189325Y0079637D01*
X0189288Y0079722D01*
X0189255Y0079808D01*
X0189226Y0079896D01*
X0189201Y0079985D01*
X0189179Y0080075D01*
X0189162Y0080166D01*
X0189148Y0080257D01*
X0189138Y0080349D01*
X0189132Y0080441D01*
X0189130Y0080534D01*
X0187949Y0067542D02*
X0187951Y0067657D01*
X0187957Y0067773D01*
X0187967Y0067888D01*
X0187981Y0068003D01*
X0187999Y0068117D01*
X0188021Y0068230D01*
X0188046Y0068343D01*
X0188076Y0068454D01*
X0188109Y0068565D01*
X0188146Y0068674D01*
X0188187Y0068782D01*
X0188232Y0068889D01*
X0188280Y0068994D01*
X0188332Y0069097D01*
X0188388Y0069198D01*
X0188447Y0069298D01*
X0188509Y0069395D01*
X0188575Y0069490D01*
X0188643Y0069583D01*
X0188715Y0069673D01*
X0188790Y0069761D01*
X0188869Y0069846D01*
X0188950Y0069928D01*
X0189033Y0070008D01*
X0189120Y0070084D01*
X0189209Y0070158D01*
X0189300Y0070228D01*
X0189394Y0070296D01*
X0189490Y0070360D01*
X0189589Y0070420D01*
X0189689Y0070477D01*
X0189791Y0070531D01*
X0189895Y0070581D01*
X0190001Y0070628D01*
X0190108Y0070671D01*
X0190217Y0070710D01*
X0190327Y0070745D01*
X0190438Y0070776D01*
X0190550Y0070804D01*
X0190663Y0070828D01*
X0190777Y0070848D01*
X0190892Y0070864D01*
X0191007Y0070876D01*
X0191122Y0070884D01*
X0191237Y0070888D01*
X0191353Y0070888D01*
X0191468Y0070884D01*
X0191583Y0070876D01*
X0191698Y0070864D01*
X0191813Y0070848D01*
X0191927Y0070828D01*
X0192040Y0070804D01*
X0192152Y0070776D01*
X0192263Y0070745D01*
X0192373Y0070710D01*
X0192482Y0070671D01*
X0192589Y0070628D01*
X0192695Y0070581D01*
X0192799Y0070531D01*
X0192901Y0070477D01*
X0193001Y0070420D01*
X0193100Y0070360D01*
X0193196Y0070296D01*
X0193290Y0070228D01*
X0193381Y0070158D01*
X0193470Y0070084D01*
X0193557Y0070008D01*
X0193640Y0069928D01*
X0193721Y0069846D01*
X0193800Y0069761D01*
X0193875Y0069673D01*
X0193947Y0069583D01*
X0194015Y0069490D01*
X0194081Y0069395D01*
X0194143Y0069298D01*
X0194202Y0069198D01*
X0194258Y0069097D01*
X0194310Y0068994D01*
X0194358Y0068889D01*
X0194403Y0068782D01*
X0194444Y0068674D01*
X0194481Y0068565D01*
X0194514Y0068454D01*
X0194544Y0068343D01*
X0194569Y0068230D01*
X0194591Y0068117D01*
X0194609Y0068003D01*
X0194623Y0067888D01*
X0194633Y0067773D01*
X0194639Y0067657D01*
X0194641Y0067542D01*
X0194639Y0067427D01*
X0194633Y0067311D01*
X0194623Y0067196D01*
X0194609Y0067081D01*
X0194591Y0066967D01*
X0194569Y0066854D01*
X0194544Y0066741D01*
X0194514Y0066630D01*
X0194481Y0066519D01*
X0194444Y0066410D01*
X0194403Y0066302D01*
X0194358Y0066195D01*
X0194310Y0066090D01*
X0194258Y0065987D01*
X0194202Y0065886D01*
X0194143Y0065786D01*
X0194081Y0065689D01*
X0194015Y0065594D01*
X0193947Y0065501D01*
X0193875Y0065411D01*
X0193800Y0065323D01*
X0193721Y0065238D01*
X0193640Y0065156D01*
X0193557Y0065076D01*
X0193470Y0065000D01*
X0193381Y0064926D01*
X0193290Y0064856D01*
X0193196Y0064788D01*
X0193100Y0064724D01*
X0193001Y0064664D01*
X0192901Y0064607D01*
X0192799Y0064553D01*
X0192695Y0064503D01*
X0192589Y0064456D01*
X0192482Y0064413D01*
X0192373Y0064374D01*
X0192263Y0064339D01*
X0192152Y0064308D01*
X0192040Y0064280D01*
X0191927Y0064256D01*
X0191813Y0064236D01*
X0191698Y0064220D01*
X0191583Y0064208D01*
X0191468Y0064200D01*
X0191353Y0064196D01*
X0191237Y0064196D01*
X0191122Y0064200D01*
X0191007Y0064208D01*
X0190892Y0064220D01*
X0190777Y0064236D01*
X0190663Y0064256D01*
X0190550Y0064280D01*
X0190438Y0064308D01*
X0190327Y0064339D01*
X0190217Y0064374D01*
X0190108Y0064413D01*
X0190001Y0064456D01*
X0189895Y0064503D01*
X0189791Y0064553D01*
X0189689Y0064607D01*
X0189589Y0064664D01*
X0189490Y0064724D01*
X0189394Y0064788D01*
X0189300Y0064856D01*
X0189209Y0064926D01*
X0189120Y0065000D01*
X0189033Y0065076D01*
X0188950Y0065156D01*
X0188869Y0065238D01*
X0188790Y0065323D01*
X0188715Y0065411D01*
X0188643Y0065501D01*
X0188575Y0065594D01*
X0188509Y0065689D01*
X0188447Y0065786D01*
X0188388Y0065886D01*
X0188332Y0065987D01*
X0188280Y0066090D01*
X0188232Y0066195D01*
X0188187Y0066302D01*
X0188146Y0066410D01*
X0188109Y0066519D01*
X0188076Y0066630D01*
X0188046Y0066741D01*
X0188021Y0066854D01*
X0187999Y0066967D01*
X0187981Y0067081D01*
X0187967Y0067196D01*
X0187957Y0067311D01*
X0187951Y0067427D01*
X0187949Y0067542D01*
X0066098Y0174628D02*
X0066100Y0174786D01*
X0066106Y0174944D01*
X0066116Y0175102D01*
X0066130Y0175260D01*
X0066148Y0175417D01*
X0066169Y0175574D01*
X0066195Y0175730D01*
X0066225Y0175886D01*
X0066258Y0176041D01*
X0066296Y0176194D01*
X0066337Y0176347D01*
X0066382Y0176499D01*
X0066431Y0176650D01*
X0066484Y0176799D01*
X0066540Y0176947D01*
X0066600Y0177093D01*
X0066664Y0177238D01*
X0066732Y0177381D01*
X0066803Y0177523D01*
X0066877Y0177663D01*
X0066955Y0177800D01*
X0067037Y0177936D01*
X0067121Y0178070D01*
X0067210Y0178201D01*
X0067301Y0178330D01*
X0067396Y0178457D01*
X0067493Y0178582D01*
X0067594Y0178704D01*
X0067698Y0178823D01*
X0067805Y0178940D01*
X0067915Y0179054D01*
X0068028Y0179165D01*
X0068143Y0179274D01*
X0068261Y0179379D01*
X0068382Y0179481D01*
X0068505Y0179581D01*
X0068631Y0179677D01*
X0068759Y0179770D01*
X0068889Y0179860D01*
X0069022Y0179946D01*
X0069157Y0180030D01*
X0069293Y0180109D01*
X0069432Y0180186D01*
X0069573Y0180258D01*
X0069715Y0180328D01*
X0069859Y0180393D01*
X0070005Y0180455D01*
X0070152Y0180513D01*
X0070301Y0180568D01*
X0070451Y0180619D01*
X0070602Y0180666D01*
X0070754Y0180709D01*
X0070907Y0180748D01*
X0071062Y0180784D01*
X0071217Y0180815D01*
X0071373Y0180843D01*
X0071529Y0180867D01*
X0071686Y0180887D01*
X0071844Y0180903D01*
X0072001Y0180915D01*
X0072160Y0180923D01*
X0072318Y0180927D01*
X0072476Y0180927D01*
X0072634Y0180923D01*
X0072793Y0180915D01*
X0072950Y0180903D01*
X0073108Y0180887D01*
X0073265Y0180867D01*
X0073421Y0180843D01*
X0073577Y0180815D01*
X0073732Y0180784D01*
X0073887Y0180748D01*
X0074040Y0180709D01*
X0074192Y0180666D01*
X0074343Y0180619D01*
X0074493Y0180568D01*
X0074642Y0180513D01*
X0074789Y0180455D01*
X0074935Y0180393D01*
X0075079Y0180328D01*
X0075221Y0180258D01*
X0075362Y0180186D01*
X0075501Y0180109D01*
X0075637Y0180030D01*
X0075772Y0179946D01*
X0075905Y0179860D01*
X0076035Y0179770D01*
X0076163Y0179677D01*
X0076289Y0179581D01*
X0076412Y0179481D01*
X0076533Y0179379D01*
X0076651Y0179274D01*
X0076766Y0179165D01*
X0076879Y0179054D01*
X0076989Y0178940D01*
X0077096Y0178823D01*
X0077200Y0178704D01*
X0077301Y0178582D01*
X0077398Y0178457D01*
X0077493Y0178330D01*
X0077584Y0178201D01*
X0077673Y0178070D01*
X0077757Y0177936D01*
X0077839Y0177800D01*
X0077917Y0177663D01*
X0077991Y0177523D01*
X0078062Y0177381D01*
X0078130Y0177238D01*
X0078194Y0177093D01*
X0078254Y0176947D01*
X0078310Y0176799D01*
X0078363Y0176650D01*
X0078412Y0176499D01*
X0078457Y0176347D01*
X0078498Y0176194D01*
X0078536Y0176041D01*
X0078569Y0175886D01*
X0078599Y0175730D01*
X0078625Y0175574D01*
X0078646Y0175417D01*
X0078664Y0175260D01*
X0078678Y0175102D01*
X0078688Y0174944D01*
X0078694Y0174786D01*
X0078696Y0174628D01*
X0078694Y0174470D01*
X0078688Y0174312D01*
X0078678Y0174154D01*
X0078664Y0173996D01*
X0078646Y0173839D01*
X0078625Y0173682D01*
X0078599Y0173526D01*
X0078569Y0173370D01*
X0078536Y0173215D01*
X0078498Y0173062D01*
X0078457Y0172909D01*
X0078412Y0172757D01*
X0078363Y0172606D01*
X0078310Y0172457D01*
X0078254Y0172309D01*
X0078194Y0172163D01*
X0078130Y0172018D01*
X0078062Y0171875D01*
X0077991Y0171733D01*
X0077917Y0171593D01*
X0077839Y0171456D01*
X0077757Y0171320D01*
X0077673Y0171186D01*
X0077584Y0171055D01*
X0077493Y0170926D01*
X0077398Y0170799D01*
X0077301Y0170674D01*
X0077200Y0170552D01*
X0077096Y0170433D01*
X0076989Y0170316D01*
X0076879Y0170202D01*
X0076766Y0170091D01*
X0076651Y0169982D01*
X0076533Y0169877D01*
X0076412Y0169775D01*
X0076289Y0169675D01*
X0076163Y0169579D01*
X0076035Y0169486D01*
X0075905Y0169396D01*
X0075772Y0169310D01*
X0075637Y0169226D01*
X0075501Y0169147D01*
X0075362Y0169070D01*
X0075221Y0168998D01*
X0075079Y0168928D01*
X0074935Y0168863D01*
X0074789Y0168801D01*
X0074642Y0168743D01*
X0074493Y0168688D01*
X0074343Y0168637D01*
X0074192Y0168590D01*
X0074040Y0168547D01*
X0073887Y0168508D01*
X0073732Y0168472D01*
X0073577Y0168441D01*
X0073421Y0168413D01*
X0073265Y0168389D01*
X0073108Y0168369D01*
X0072950Y0168353D01*
X0072793Y0168341D01*
X0072634Y0168333D01*
X0072476Y0168329D01*
X0072318Y0168329D01*
X0072160Y0168333D01*
X0072001Y0168341D01*
X0071844Y0168353D01*
X0071686Y0168369D01*
X0071529Y0168389D01*
X0071373Y0168413D01*
X0071217Y0168441D01*
X0071062Y0168472D01*
X0070907Y0168508D01*
X0070754Y0168547D01*
X0070602Y0168590D01*
X0070451Y0168637D01*
X0070301Y0168688D01*
X0070152Y0168743D01*
X0070005Y0168801D01*
X0069859Y0168863D01*
X0069715Y0168928D01*
X0069573Y0168998D01*
X0069432Y0169070D01*
X0069293Y0169147D01*
X0069157Y0169226D01*
X0069022Y0169310D01*
X0068889Y0169396D01*
X0068759Y0169486D01*
X0068631Y0169579D01*
X0068505Y0169675D01*
X0068382Y0169775D01*
X0068261Y0169877D01*
X0068143Y0169982D01*
X0068028Y0170091D01*
X0067915Y0170202D01*
X0067805Y0170316D01*
X0067698Y0170433D01*
X0067594Y0170552D01*
X0067493Y0170674D01*
X0067396Y0170799D01*
X0067301Y0170926D01*
X0067210Y0171055D01*
X0067121Y0171186D01*
X0067037Y0171320D01*
X0066955Y0171456D01*
X0066877Y0171593D01*
X0066803Y0171733D01*
X0066732Y0171875D01*
X0066664Y0172018D01*
X0066600Y0172163D01*
X0066540Y0172309D01*
X0066484Y0172457D01*
X0066431Y0172606D01*
X0066382Y0172757D01*
X0066337Y0172909D01*
X0066296Y0173062D01*
X0066258Y0173215D01*
X0066225Y0173370D01*
X0066195Y0173526D01*
X0066169Y0173682D01*
X0066148Y0173839D01*
X0066130Y0173996D01*
X0066116Y0174154D01*
X0066106Y0174312D01*
X0066100Y0174470D01*
X0066098Y0174628D01*
X0532436Y0054550D02*
X0532438Y0054651D01*
X0532444Y0054752D01*
X0532454Y0054853D01*
X0532468Y0054953D01*
X0532486Y0055052D01*
X0532508Y0055151D01*
X0532533Y0055249D01*
X0532563Y0055346D01*
X0532596Y0055441D01*
X0532633Y0055535D01*
X0532674Y0055628D01*
X0532718Y0055719D01*
X0532766Y0055808D01*
X0532818Y0055895D01*
X0532873Y0055980D01*
X0532931Y0056062D01*
X0532992Y0056143D01*
X0533057Y0056221D01*
X0533124Y0056296D01*
X0533194Y0056368D01*
X0533268Y0056438D01*
X0533344Y0056505D01*
X0533422Y0056569D01*
X0533503Y0056629D01*
X0533586Y0056686D01*
X0533672Y0056740D01*
X0533760Y0056791D01*
X0533849Y0056838D01*
X0533940Y0056882D01*
X0534033Y0056921D01*
X0534128Y0056958D01*
X0534223Y0056990D01*
X0534320Y0057019D01*
X0534419Y0057043D01*
X0534517Y0057064D01*
X0534617Y0057081D01*
X0534717Y0057094D01*
X0534818Y0057103D01*
X0534919Y0057108D01*
X0535020Y0057109D01*
X0535121Y0057106D01*
X0535222Y0057099D01*
X0535323Y0057088D01*
X0535423Y0057073D01*
X0535522Y0057054D01*
X0535621Y0057031D01*
X0535718Y0057005D01*
X0535815Y0056974D01*
X0535910Y0056940D01*
X0536003Y0056902D01*
X0536096Y0056860D01*
X0536186Y0056815D01*
X0536275Y0056766D01*
X0536361Y0056714D01*
X0536445Y0056658D01*
X0536528Y0056599D01*
X0536607Y0056537D01*
X0536685Y0056472D01*
X0536759Y0056404D01*
X0536831Y0056332D01*
X0536900Y0056259D01*
X0536966Y0056182D01*
X0537029Y0056103D01*
X0537089Y0056021D01*
X0537145Y0055937D01*
X0537198Y0055851D01*
X0537248Y0055763D01*
X0537294Y0055673D01*
X0537337Y0055582D01*
X0537376Y0055488D01*
X0537411Y0055393D01*
X0537442Y0055297D01*
X0537470Y0055200D01*
X0537494Y0055102D01*
X0537514Y0055003D01*
X0537530Y0054903D01*
X0537542Y0054802D01*
X0537550Y0054702D01*
X0537554Y0054601D01*
X0537554Y0054499D01*
X0537550Y0054398D01*
X0537542Y0054298D01*
X0537530Y0054197D01*
X0537514Y0054097D01*
X0537494Y0053998D01*
X0537470Y0053900D01*
X0537442Y0053803D01*
X0537411Y0053707D01*
X0537376Y0053612D01*
X0537337Y0053518D01*
X0537294Y0053427D01*
X0537248Y0053337D01*
X0537198Y0053249D01*
X0537145Y0053163D01*
X0537089Y0053079D01*
X0537029Y0052997D01*
X0536966Y0052918D01*
X0536900Y0052841D01*
X0536831Y0052768D01*
X0536759Y0052696D01*
X0536685Y0052628D01*
X0536607Y0052563D01*
X0536528Y0052501D01*
X0536445Y0052442D01*
X0536361Y0052386D01*
X0536274Y0052334D01*
X0536186Y0052285D01*
X0536096Y0052240D01*
X0536003Y0052198D01*
X0535910Y0052160D01*
X0535815Y0052126D01*
X0535718Y0052095D01*
X0535621Y0052069D01*
X0535522Y0052046D01*
X0535423Y0052027D01*
X0535323Y0052012D01*
X0535222Y0052001D01*
X0535121Y0051994D01*
X0535020Y0051991D01*
X0534919Y0051992D01*
X0534818Y0051997D01*
X0534717Y0052006D01*
X0534617Y0052019D01*
X0534517Y0052036D01*
X0534419Y0052057D01*
X0534320Y0052081D01*
X0534223Y0052110D01*
X0534128Y0052142D01*
X0534033Y0052179D01*
X0533940Y0052218D01*
X0533849Y0052262D01*
X0533760Y0052309D01*
X0533672Y0052360D01*
X0533586Y0052414D01*
X0533503Y0052471D01*
X0533422Y0052531D01*
X0533344Y0052595D01*
X0533268Y0052662D01*
X0533194Y0052732D01*
X0533124Y0052804D01*
X0533057Y0052879D01*
X0532992Y0052957D01*
X0532931Y0053038D01*
X0532873Y0053120D01*
X0532818Y0053205D01*
X0532766Y0053292D01*
X0532718Y0053381D01*
X0532674Y0053472D01*
X0532633Y0053565D01*
X0532596Y0053659D01*
X0532563Y0053754D01*
X0532533Y0053851D01*
X0532508Y0053949D01*
X0532486Y0054048D01*
X0532468Y0054147D01*
X0532454Y0054247D01*
X0532444Y0054348D01*
X0532438Y0054449D01*
X0532436Y0054550D01*
X0559995Y0054550D02*
X0559997Y0054651D01*
X0560003Y0054752D01*
X0560013Y0054853D01*
X0560027Y0054953D01*
X0560045Y0055052D01*
X0560067Y0055151D01*
X0560092Y0055249D01*
X0560122Y0055346D01*
X0560155Y0055441D01*
X0560192Y0055535D01*
X0560233Y0055628D01*
X0560277Y0055719D01*
X0560325Y0055808D01*
X0560377Y0055895D01*
X0560432Y0055980D01*
X0560490Y0056062D01*
X0560551Y0056143D01*
X0560616Y0056221D01*
X0560683Y0056296D01*
X0560753Y0056368D01*
X0560827Y0056438D01*
X0560903Y0056505D01*
X0560981Y0056569D01*
X0561062Y0056629D01*
X0561145Y0056686D01*
X0561231Y0056740D01*
X0561319Y0056791D01*
X0561408Y0056838D01*
X0561499Y0056882D01*
X0561592Y0056921D01*
X0561687Y0056958D01*
X0561782Y0056990D01*
X0561879Y0057019D01*
X0561978Y0057043D01*
X0562076Y0057064D01*
X0562176Y0057081D01*
X0562276Y0057094D01*
X0562377Y0057103D01*
X0562478Y0057108D01*
X0562579Y0057109D01*
X0562680Y0057106D01*
X0562781Y0057099D01*
X0562882Y0057088D01*
X0562982Y0057073D01*
X0563081Y0057054D01*
X0563180Y0057031D01*
X0563277Y0057005D01*
X0563374Y0056974D01*
X0563469Y0056940D01*
X0563562Y0056902D01*
X0563655Y0056860D01*
X0563745Y0056815D01*
X0563834Y0056766D01*
X0563920Y0056714D01*
X0564004Y0056658D01*
X0564087Y0056599D01*
X0564166Y0056537D01*
X0564244Y0056472D01*
X0564318Y0056404D01*
X0564390Y0056332D01*
X0564459Y0056259D01*
X0564525Y0056182D01*
X0564588Y0056103D01*
X0564648Y0056021D01*
X0564704Y0055937D01*
X0564757Y0055851D01*
X0564807Y0055763D01*
X0564853Y0055673D01*
X0564896Y0055582D01*
X0564935Y0055488D01*
X0564970Y0055393D01*
X0565001Y0055297D01*
X0565029Y0055200D01*
X0565053Y0055102D01*
X0565073Y0055003D01*
X0565089Y0054903D01*
X0565101Y0054802D01*
X0565109Y0054702D01*
X0565113Y0054601D01*
X0565113Y0054499D01*
X0565109Y0054398D01*
X0565101Y0054298D01*
X0565089Y0054197D01*
X0565073Y0054097D01*
X0565053Y0053998D01*
X0565029Y0053900D01*
X0565001Y0053803D01*
X0564970Y0053707D01*
X0564935Y0053612D01*
X0564896Y0053518D01*
X0564853Y0053427D01*
X0564807Y0053337D01*
X0564757Y0053249D01*
X0564704Y0053163D01*
X0564648Y0053079D01*
X0564588Y0052997D01*
X0564525Y0052918D01*
X0564459Y0052841D01*
X0564390Y0052768D01*
X0564318Y0052696D01*
X0564244Y0052628D01*
X0564166Y0052563D01*
X0564087Y0052501D01*
X0564004Y0052442D01*
X0563920Y0052386D01*
X0563833Y0052334D01*
X0563745Y0052285D01*
X0563655Y0052240D01*
X0563562Y0052198D01*
X0563469Y0052160D01*
X0563374Y0052126D01*
X0563277Y0052095D01*
X0563180Y0052069D01*
X0563081Y0052046D01*
X0562982Y0052027D01*
X0562882Y0052012D01*
X0562781Y0052001D01*
X0562680Y0051994D01*
X0562579Y0051991D01*
X0562478Y0051992D01*
X0562377Y0051997D01*
X0562276Y0052006D01*
X0562176Y0052019D01*
X0562076Y0052036D01*
X0561978Y0052057D01*
X0561879Y0052081D01*
X0561782Y0052110D01*
X0561687Y0052142D01*
X0561592Y0052179D01*
X0561499Y0052218D01*
X0561408Y0052262D01*
X0561319Y0052309D01*
X0561231Y0052360D01*
X0561145Y0052414D01*
X0561062Y0052471D01*
X0560981Y0052531D01*
X0560903Y0052595D01*
X0560827Y0052662D01*
X0560753Y0052732D01*
X0560683Y0052804D01*
X0560616Y0052879D01*
X0560551Y0052957D01*
X0560490Y0053038D01*
X0560432Y0053120D01*
X0560377Y0053205D01*
X0560325Y0053292D01*
X0560277Y0053381D01*
X0560233Y0053472D01*
X0560192Y0053565D01*
X0560155Y0053659D01*
X0560122Y0053754D01*
X0560092Y0053851D01*
X0560067Y0053949D01*
X0560045Y0054048D01*
X0560027Y0054147D01*
X0560013Y0054247D01*
X0560003Y0054348D01*
X0559997Y0054449D01*
X0559995Y0054550D01*
X0575743Y0054550D02*
X0575745Y0054651D01*
X0575751Y0054752D01*
X0575761Y0054853D01*
X0575775Y0054953D01*
X0575793Y0055052D01*
X0575815Y0055151D01*
X0575840Y0055249D01*
X0575870Y0055346D01*
X0575903Y0055441D01*
X0575940Y0055535D01*
X0575981Y0055628D01*
X0576025Y0055719D01*
X0576073Y0055808D01*
X0576125Y0055895D01*
X0576180Y0055980D01*
X0576238Y0056062D01*
X0576299Y0056143D01*
X0576364Y0056221D01*
X0576431Y0056296D01*
X0576501Y0056368D01*
X0576575Y0056438D01*
X0576651Y0056505D01*
X0576729Y0056569D01*
X0576810Y0056629D01*
X0576893Y0056686D01*
X0576979Y0056740D01*
X0577067Y0056791D01*
X0577156Y0056838D01*
X0577247Y0056882D01*
X0577340Y0056921D01*
X0577435Y0056958D01*
X0577530Y0056990D01*
X0577627Y0057019D01*
X0577726Y0057043D01*
X0577824Y0057064D01*
X0577924Y0057081D01*
X0578024Y0057094D01*
X0578125Y0057103D01*
X0578226Y0057108D01*
X0578327Y0057109D01*
X0578428Y0057106D01*
X0578529Y0057099D01*
X0578630Y0057088D01*
X0578730Y0057073D01*
X0578829Y0057054D01*
X0578928Y0057031D01*
X0579025Y0057005D01*
X0579122Y0056974D01*
X0579217Y0056940D01*
X0579310Y0056902D01*
X0579403Y0056860D01*
X0579493Y0056815D01*
X0579582Y0056766D01*
X0579668Y0056714D01*
X0579752Y0056658D01*
X0579835Y0056599D01*
X0579914Y0056537D01*
X0579992Y0056472D01*
X0580066Y0056404D01*
X0580138Y0056332D01*
X0580207Y0056259D01*
X0580273Y0056182D01*
X0580336Y0056103D01*
X0580396Y0056021D01*
X0580452Y0055937D01*
X0580505Y0055851D01*
X0580555Y0055763D01*
X0580601Y0055673D01*
X0580644Y0055582D01*
X0580683Y0055488D01*
X0580718Y0055393D01*
X0580749Y0055297D01*
X0580777Y0055200D01*
X0580801Y0055102D01*
X0580821Y0055003D01*
X0580837Y0054903D01*
X0580849Y0054802D01*
X0580857Y0054702D01*
X0580861Y0054601D01*
X0580861Y0054499D01*
X0580857Y0054398D01*
X0580849Y0054298D01*
X0580837Y0054197D01*
X0580821Y0054097D01*
X0580801Y0053998D01*
X0580777Y0053900D01*
X0580749Y0053803D01*
X0580718Y0053707D01*
X0580683Y0053612D01*
X0580644Y0053518D01*
X0580601Y0053427D01*
X0580555Y0053337D01*
X0580505Y0053249D01*
X0580452Y0053163D01*
X0580396Y0053079D01*
X0580336Y0052997D01*
X0580273Y0052918D01*
X0580207Y0052841D01*
X0580138Y0052768D01*
X0580066Y0052696D01*
X0579992Y0052628D01*
X0579914Y0052563D01*
X0579835Y0052501D01*
X0579752Y0052442D01*
X0579668Y0052386D01*
X0579581Y0052334D01*
X0579493Y0052285D01*
X0579403Y0052240D01*
X0579310Y0052198D01*
X0579217Y0052160D01*
X0579122Y0052126D01*
X0579025Y0052095D01*
X0578928Y0052069D01*
X0578829Y0052046D01*
X0578730Y0052027D01*
X0578630Y0052012D01*
X0578529Y0052001D01*
X0578428Y0051994D01*
X0578327Y0051991D01*
X0578226Y0051992D01*
X0578125Y0051997D01*
X0578024Y0052006D01*
X0577924Y0052019D01*
X0577824Y0052036D01*
X0577726Y0052057D01*
X0577627Y0052081D01*
X0577530Y0052110D01*
X0577435Y0052142D01*
X0577340Y0052179D01*
X0577247Y0052218D01*
X0577156Y0052262D01*
X0577067Y0052309D01*
X0576979Y0052360D01*
X0576893Y0052414D01*
X0576810Y0052471D01*
X0576729Y0052531D01*
X0576651Y0052595D01*
X0576575Y0052662D01*
X0576501Y0052732D01*
X0576431Y0052804D01*
X0576364Y0052879D01*
X0576299Y0052957D01*
X0576238Y0053038D01*
X0576180Y0053120D01*
X0576125Y0053205D01*
X0576073Y0053292D01*
X0576025Y0053381D01*
X0575981Y0053472D01*
X0575940Y0053565D01*
X0575903Y0053659D01*
X0575870Y0053754D01*
X0575840Y0053851D01*
X0575815Y0053949D01*
X0575793Y0054048D01*
X0575775Y0054147D01*
X0575761Y0054247D01*
X0575751Y0054348D01*
X0575745Y0054449D01*
X0575743Y0054550D01*
X0603302Y0054550D02*
X0603304Y0054651D01*
X0603310Y0054752D01*
X0603320Y0054853D01*
X0603334Y0054953D01*
X0603352Y0055052D01*
X0603374Y0055151D01*
X0603399Y0055249D01*
X0603429Y0055346D01*
X0603462Y0055441D01*
X0603499Y0055535D01*
X0603540Y0055628D01*
X0603584Y0055719D01*
X0603632Y0055808D01*
X0603684Y0055895D01*
X0603739Y0055980D01*
X0603797Y0056062D01*
X0603858Y0056143D01*
X0603923Y0056221D01*
X0603990Y0056296D01*
X0604060Y0056368D01*
X0604134Y0056438D01*
X0604210Y0056505D01*
X0604288Y0056569D01*
X0604369Y0056629D01*
X0604452Y0056686D01*
X0604538Y0056740D01*
X0604626Y0056791D01*
X0604715Y0056838D01*
X0604806Y0056882D01*
X0604899Y0056921D01*
X0604994Y0056958D01*
X0605089Y0056990D01*
X0605186Y0057019D01*
X0605285Y0057043D01*
X0605383Y0057064D01*
X0605483Y0057081D01*
X0605583Y0057094D01*
X0605684Y0057103D01*
X0605785Y0057108D01*
X0605886Y0057109D01*
X0605987Y0057106D01*
X0606088Y0057099D01*
X0606189Y0057088D01*
X0606289Y0057073D01*
X0606388Y0057054D01*
X0606487Y0057031D01*
X0606584Y0057005D01*
X0606681Y0056974D01*
X0606776Y0056940D01*
X0606869Y0056902D01*
X0606962Y0056860D01*
X0607052Y0056815D01*
X0607141Y0056766D01*
X0607227Y0056714D01*
X0607311Y0056658D01*
X0607394Y0056599D01*
X0607473Y0056537D01*
X0607551Y0056472D01*
X0607625Y0056404D01*
X0607697Y0056332D01*
X0607766Y0056259D01*
X0607832Y0056182D01*
X0607895Y0056103D01*
X0607955Y0056021D01*
X0608011Y0055937D01*
X0608064Y0055851D01*
X0608114Y0055763D01*
X0608160Y0055673D01*
X0608203Y0055582D01*
X0608242Y0055488D01*
X0608277Y0055393D01*
X0608308Y0055297D01*
X0608336Y0055200D01*
X0608360Y0055102D01*
X0608380Y0055003D01*
X0608396Y0054903D01*
X0608408Y0054802D01*
X0608416Y0054702D01*
X0608420Y0054601D01*
X0608420Y0054499D01*
X0608416Y0054398D01*
X0608408Y0054298D01*
X0608396Y0054197D01*
X0608380Y0054097D01*
X0608360Y0053998D01*
X0608336Y0053900D01*
X0608308Y0053803D01*
X0608277Y0053707D01*
X0608242Y0053612D01*
X0608203Y0053518D01*
X0608160Y0053427D01*
X0608114Y0053337D01*
X0608064Y0053249D01*
X0608011Y0053163D01*
X0607955Y0053079D01*
X0607895Y0052997D01*
X0607832Y0052918D01*
X0607766Y0052841D01*
X0607697Y0052768D01*
X0607625Y0052696D01*
X0607551Y0052628D01*
X0607473Y0052563D01*
X0607394Y0052501D01*
X0607311Y0052442D01*
X0607227Y0052386D01*
X0607140Y0052334D01*
X0607052Y0052285D01*
X0606962Y0052240D01*
X0606869Y0052198D01*
X0606776Y0052160D01*
X0606681Y0052126D01*
X0606584Y0052095D01*
X0606487Y0052069D01*
X0606388Y0052046D01*
X0606289Y0052027D01*
X0606189Y0052012D01*
X0606088Y0052001D01*
X0605987Y0051994D01*
X0605886Y0051991D01*
X0605785Y0051992D01*
X0605684Y0051997D01*
X0605583Y0052006D01*
X0605483Y0052019D01*
X0605383Y0052036D01*
X0605285Y0052057D01*
X0605186Y0052081D01*
X0605089Y0052110D01*
X0604994Y0052142D01*
X0604899Y0052179D01*
X0604806Y0052218D01*
X0604715Y0052262D01*
X0604626Y0052309D01*
X0604538Y0052360D01*
X0604452Y0052414D01*
X0604369Y0052471D01*
X0604288Y0052531D01*
X0604210Y0052595D01*
X0604134Y0052662D01*
X0604060Y0052732D01*
X0603990Y0052804D01*
X0603923Y0052879D01*
X0603858Y0052957D01*
X0603797Y0053038D01*
X0603739Y0053120D01*
X0603684Y0053205D01*
X0603632Y0053292D01*
X0603584Y0053381D01*
X0603540Y0053472D01*
X0603499Y0053565D01*
X0603462Y0053659D01*
X0603429Y0053754D01*
X0603399Y0053851D01*
X0603374Y0053949D01*
X0603352Y0054048D01*
X0603334Y0054147D01*
X0603320Y0054247D01*
X0603310Y0054348D01*
X0603304Y0054449D01*
X0603302Y0054550D01*
X0619051Y0054550D02*
X0619053Y0054651D01*
X0619059Y0054752D01*
X0619069Y0054853D01*
X0619083Y0054953D01*
X0619101Y0055052D01*
X0619123Y0055151D01*
X0619148Y0055249D01*
X0619178Y0055346D01*
X0619211Y0055441D01*
X0619248Y0055535D01*
X0619289Y0055628D01*
X0619333Y0055719D01*
X0619381Y0055808D01*
X0619433Y0055895D01*
X0619488Y0055980D01*
X0619546Y0056062D01*
X0619607Y0056143D01*
X0619672Y0056221D01*
X0619739Y0056296D01*
X0619809Y0056368D01*
X0619883Y0056438D01*
X0619959Y0056505D01*
X0620037Y0056569D01*
X0620118Y0056629D01*
X0620201Y0056686D01*
X0620287Y0056740D01*
X0620375Y0056791D01*
X0620464Y0056838D01*
X0620555Y0056882D01*
X0620648Y0056921D01*
X0620743Y0056958D01*
X0620838Y0056990D01*
X0620935Y0057019D01*
X0621034Y0057043D01*
X0621132Y0057064D01*
X0621232Y0057081D01*
X0621332Y0057094D01*
X0621433Y0057103D01*
X0621534Y0057108D01*
X0621635Y0057109D01*
X0621736Y0057106D01*
X0621837Y0057099D01*
X0621938Y0057088D01*
X0622038Y0057073D01*
X0622137Y0057054D01*
X0622236Y0057031D01*
X0622333Y0057005D01*
X0622430Y0056974D01*
X0622525Y0056940D01*
X0622618Y0056902D01*
X0622711Y0056860D01*
X0622801Y0056815D01*
X0622890Y0056766D01*
X0622976Y0056714D01*
X0623060Y0056658D01*
X0623143Y0056599D01*
X0623222Y0056537D01*
X0623300Y0056472D01*
X0623374Y0056404D01*
X0623446Y0056332D01*
X0623515Y0056259D01*
X0623581Y0056182D01*
X0623644Y0056103D01*
X0623704Y0056021D01*
X0623760Y0055937D01*
X0623813Y0055851D01*
X0623863Y0055763D01*
X0623909Y0055673D01*
X0623952Y0055582D01*
X0623991Y0055488D01*
X0624026Y0055393D01*
X0624057Y0055297D01*
X0624085Y0055200D01*
X0624109Y0055102D01*
X0624129Y0055003D01*
X0624145Y0054903D01*
X0624157Y0054802D01*
X0624165Y0054702D01*
X0624169Y0054601D01*
X0624169Y0054499D01*
X0624165Y0054398D01*
X0624157Y0054298D01*
X0624145Y0054197D01*
X0624129Y0054097D01*
X0624109Y0053998D01*
X0624085Y0053900D01*
X0624057Y0053803D01*
X0624026Y0053707D01*
X0623991Y0053612D01*
X0623952Y0053518D01*
X0623909Y0053427D01*
X0623863Y0053337D01*
X0623813Y0053249D01*
X0623760Y0053163D01*
X0623704Y0053079D01*
X0623644Y0052997D01*
X0623581Y0052918D01*
X0623515Y0052841D01*
X0623446Y0052768D01*
X0623374Y0052696D01*
X0623300Y0052628D01*
X0623222Y0052563D01*
X0623143Y0052501D01*
X0623060Y0052442D01*
X0622976Y0052386D01*
X0622889Y0052334D01*
X0622801Y0052285D01*
X0622711Y0052240D01*
X0622618Y0052198D01*
X0622525Y0052160D01*
X0622430Y0052126D01*
X0622333Y0052095D01*
X0622236Y0052069D01*
X0622137Y0052046D01*
X0622038Y0052027D01*
X0621938Y0052012D01*
X0621837Y0052001D01*
X0621736Y0051994D01*
X0621635Y0051991D01*
X0621534Y0051992D01*
X0621433Y0051997D01*
X0621332Y0052006D01*
X0621232Y0052019D01*
X0621132Y0052036D01*
X0621034Y0052057D01*
X0620935Y0052081D01*
X0620838Y0052110D01*
X0620743Y0052142D01*
X0620648Y0052179D01*
X0620555Y0052218D01*
X0620464Y0052262D01*
X0620375Y0052309D01*
X0620287Y0052360D01*
X0620201Y0052414D01*
X0620118Y0052471D01*
X0620037Y0052531D01*
X0619959Y0052595D01*
X0619883Y0052662D01*
X0619809Y0052732D01*
X0619739Y0052804D01*
X0619672Y0052879D01*
X0619607Y0052957D01*
X0619546Y0053038D01*
X0619488Y0053120D01*
X0619433Y0053205D01*
X0619381Y0053292D01*
X0619333Y0053381D01*
X0619289Y0053472D01*
X0619248Y0053565D01*
X0619211Y0053659D01*
X0619178Y0053754D01*
X0619148Y0053851D01*
X0619123Y0053949D01*
X0619101Y0054048D01*
X0619083Y0054147D01*
X0619069Y0054247D01*
X0619059Y0054348D01*
X0619053Y0054449D01*
X0619051Y0054550D01*
X0646610Y0054550D02*
X0646612Y0054651D01*
X0646618Y0054752D01*
X0646628Y0054853D01*
X0646642Y0054953D01*
X0646660Y0055052D01*
X0646682Y0055151D01*
X0646707Y0055249D01*
X0646737Y0055346D01*
X0646770Y0055441D01*
X0646807Y0055535D01*
X0646848Y0055628D01*
X0646892Y0055719D01*
X0646940Y0055808D01*
X0646992Y0055895D01*
X0647047Y0055980D01*
X0647105Y0056062D01*
X0647166Y0056143D01*
X0647231Y0056221D01*
X0647298Y0056296D01*
X0647368Y0056368D01*
X0647442Y0056438D01*
X0647518Y0056505D01*
X0647596Y0056569D01*
X0647677Y0056629D01*
X0647760Y0056686D01*
X0647846Y0056740D01*
X0647934Y0056791D01*
X0648023Y0056838D01*
X0648114Y0056882D01*
X0648207Y0056921D01*
X0648302Y0056958D01*
X0648397Y0056990D01*
X0648494Y0057019D01*
X0648593Y0057043D01*
X0648691Y0057064D01*
X0648791Y0057081D01*
X0648891Y0057094D01*
X0648992Y0057103D01*
X0649093Y0057108D01*
X0649194Y0057109D01*
X0649295Y0057106D01*
X0649396Y0057099D01*
X0649497Y0057088D01*
X0649597Y0057073D01*
X0649696Y0057054D01*
X0649795Y0057031D01*
X0649892Y0057005D01*
X0649989Y0056974D01*
X0650084Y0056940D01*
X0650177Y0056902D01*
X0650270Y0056860D01*
X0650360Y0056815D01*
X0650449Y0056766D01*
X0650535Y0056714D01*
X0650619Y0056658D01*
X0650702Y0056599D01*
X0650781Y0056537D01*
X0650859Y0056472D01*
X0650933Y0056404D01*
X0651005Y0056332D01*
X0651074Y0056259D01*
X0651140Y0056182D01*
X0651203Y0056103D01*
X0651263Y0056021D01*
X0651319Y0055937D01*
X0651372Y0055851D01*
X0651422Y0055763D01*
X0651468Y0055673D01*
X0651511Y0055582D01*
X0651550Y0055488D01*
X0651585Y0055393D01*
X0651616Y0055297D01*
X0651644Y0055200D01*
X0651668Y0055102D01*
X0651688Y0055003D01*
X0651704Y0054903D01*
X0651716Y0054802D01*
X0651724Y0054702D01*
X0651728Y0054601D01*
X0651728Y0054499D01*
X0651724Y0054398D01*
X0651716Y0054298D01*
X0651704Y0054197D01*
X0651688Y0054097D01*
X0651668Y0053998D01*
X0651644Y0053900D01*
X0651616Y0053803D01*
X0651585Y0053707D01*
X0651550Y0053612D01*
X0651511Y0053518D01*
X0651468Y0053427D01*
X0651422Y0053337D01*
X0651372Y0053249D01*
X0651319Y0053163D01*
X0651263Y0053079D01*
X0651203Y0052997D01*
X0651140Y0052918D01*
X0651074Y0052841D01*
X0651005Y0052768D01*
X0650933Y0052696D01*
X0650859Y0052628D01*
X0650781Y0052563D01*
X0650702Y0052501D01*
X0650619Y0052442D01*
X0650535Y0052386D01*
X0650448Y0052334D01*
X0650360Y0052285D01*
X0650270Y0052240D01*
X0650177Y0052198D01*
X0650084Y0052160D01*
X0649989Y0052126D01*
X0649892Y0052095D01*
X0649795Y0052069D01*
X0649696Y0052046D01*
X0649597Y0052027D01*
X0649497Y0052012D01*
X0649396Y0052001D01*
X0649295Y0051994D01*
X0649194Y0051991D01*
X0649093Y0051992D01*
X0648992Y0051997D01*
X0648891Y0052006D01*
X0648791Y0052019D01*
X0648691Y0052036D01*
X0648593Y0052057D01*
X0648494Y0052081D01*
X0648397Y0052110D01*
X0648302Y0052142D01*
X0648207Y0052179D01*
X0648114Y0052218D01*
X0648023Y0052262D01*
X0647934Y0052309D01*
X0647846Y0052360D01*
X0647760Y0052414D01*
X0647677Y0052471D01*
X0647596Y0052531D01*
X0647518Y0052595D01*
X0647442Y0052662D01*
X0647368Y0052732D01*
X0647298Y0052804D01*
X0647231Y0052879D01*
X0647166Y0052957D01*
X0647105Y0053038D01*
X0647047Y0053120D01*
X0646992Y0053205D01*
X0646940Y0053292D01*
X0646892Y0053381D01*
X0646848Y0053472D01*
X0646807Y0053565D01*
X0646770Y0053659D01*
X0646737Y0053754D01*
X0646707Y0053851D01*
X0646682Y0053949D01*
X0646660Y0054048D01*
X0646642Y0054147D01*
X0646628Y0054247D01*
X0646618Y0054348D01*
X0646612Y0054449D01*
X0646610Y0054550D01*
X0829877Y0040770D02*
X0829879Y0040928D01*
X0829885Y0041086D01*
X0829895Y0041244D01*
X0829909Y0041402D01*
X0829927Y0041559D01*
X0829948Y0041716D01*
X0829974Y0041872D01*
X0830004Y0042028D01*
X0830037Y0042183D01*
X0830075Y0042336D01*
X0830116Y0042489D01*
X0830161Y0042641D01*
X0830210Y0042792D01*
X0830263Y0042941D01*
X0830319Y0043089D01*
X0830379Y0043235D01*
X0830443Y0043380D01*
X0830511Y0043523D01*
X0830582Y0043665D01*
X0830656Y0043805D01*
X0830734Y0043942D01*
X0830816Y0044078D01*
X0830900Y0044212D01*
X0830989Y0044343D01*
X0831080Y0044472D01*
X0831175Y0044599D01*
X0831272Y0044724D01*
X0831373Y0044846D01*
X0831477Y0044965D01*
X0831584Y0045082D01*
X0831694Y0045196D01*
X0831807Y0045307D01*
X0831922Y0045416D01*
X0832040Y0045521D01*
X0832161Y0045623D01*
X0832284Y0045723D01*
X0832410Y0045819D01*
X0832538Y0045912D01*
X0832668Y0046002D01*
X0832801Y0046088D01*
X0832936Y0046172D01*
X0833072Y0046251D01*
X0833211Y0046328D01*
X0833352Y0046400D01*
X0833494Y0046470D01*
X0833638Y0046535D01*
X0833784Y0046597D01*
X0833931Y0046655D01*
X0834080Y0046710D01*
X0834230Y0046761D01*
X0834381Y0046808D01*
X0834533Y0046851D01*
X0834686Y0046890D01*
X0834841Y0046926D01*
X0834996Y0046957D01*
X0835152Y0046985D01*
X0835308Y0047009D01*
X0835465Y0047029D01*
X0835623Y0047045D01*
X0835780Y0047057D01*
X0835939Y0047065D01*
X0836097Y0047069D01*
X0836255Y0047069D01*
X0836413Y0047065D01*
X0836572Y0047057D01*
X0836729Y0047045D01*
X0836887Y0047029D01*
X0837044Y0047009D01*
X0837200Y0046985D01*
X0837356Y0046957D01*
X0837511Y0046926D01*
X0837666Y0046890D01*
X0837819Y0046851D01*
X0837971Y0046808D01*
X0838122Y0046761D01*
X0838272Y0046710D01*
X0838421Y0046655D01*
X0838568Y0046597D01*
X0838714Y0046535D01*
X0838858Y0046470D01*
X0839000Y0046400D01*
X0839141Y0046328D01*
X0839280Y0046251D01*
X0839416Y0046172D01*
X0839551Y0046088D01*
X0839684Y0046002D01*
X0839814Y0045912D01*
X0839942Y0045819D01*
X0840068Y0045723D01*
X0840191Y0045623D01*
X0840312Y0045521D01*
X0840430Y0045416D01*
X0840545Y0045307D01*
X0840658Y0045196D01*
X0840768Y0045082D01*
X0840875Y0044965D01*
X0840979Y0044846D01*
X0841080Y0044724D01*
X0841177Y0044599D01*
X0841272Y0044472D01*
X0841363Y0044343D01*
X0841452Y0044212D01*
X0841536Y0044078D01*
X0841618Y0043942D01*
X0841696Y0043805D01*
X0841770Y0043665D01*
X0841841Y0043523D01*
X0841909Y0043380D01*
X0841973Y0043235D01*
X0842033Y0043089D01*
X0842089Y0042941D01*
X0842142Y0042792D01*
X0842191Y0042641D01*
X0842236Y0042489D01*
X0842277Y0042336D01*
X0842315Y0042183D01*
X0842348Y0042028D01*
X0842378Y0041872D01*
X0842404Y0041716D01*
X0842425Y0041559D01*
X0842443Y0041402D01*
X0842457Y0041244D01*
X0842467Y0041086D01*
X0842473Y0040928D01*
X0842475Y0040770D01*
X0842473Y0040612D01*
X0842467Y0040454D01*
X0842457Y0040296D01*
X0842443Y0040138D01*
X0842425Y0039981D01*
X0842404Y0039824D01*
X0842378Y0039668D01*
X0842348Y0039512D01*
X0842315Y0039357D01*
X0842277Y0039204D01*
X0842236Y0039051D01*
X0842191Y0038899D01*
X0842142Y0038748D01*
X0842089Y0038599D01*
X0842033Y0038451D01*
X0841973Y0038305D01*
X0841909Y0038160D01*
X0841841Y0038017D01*
X0841770Y0037875D01*
X0841696Y0037735D01*
X0841618Y0037598D01*
X0841536Y0037462D01*
X0841452Y0037328D01*
X0841363Y0037197D01*
X0841272Y0037068D01*
X0841177Y0036941D01*
X0841080Y0036816D01*
X0840979Y0036694D01*
X0840875Y0036575D01*
X0840768Y0036458D01*
X0840658Y0036344D01*
X0840545Y0036233D01*
X0840430Y0036124D01*
X0840312Y0036019D01*
X0840191Y0035917D01*
X0840068Y0035817D01*
X0839942Y0035721D01*
X0839814Y0035628D01*
X0839684Y0035538D01*
X0839551Y0035452D01*
X0839416Y0035368D01*
X0839280Y0035289D01*
X0839141Y0035212D01*
X0839000Y0035140D01*
X0838858Y0035070D01*
X0838714Y0035005D01*
X0838568Y0034943D01*
X0838421Y0034885D01*
X0838272Y0034830D01*
X0838122Y0034779D01*
X0837971Y0034732D01*
X0837819Y0034689D01*
X0837666Y0034650D01*
X0837511Y0034614D01*
X0837356Y0034583D01*
X0837200Y0034555D01*
X0837044Y0034531D01*
X0836887Y0034511D01*
X0836729Y0034495D01*
X0836572Y0034483D01*
X0836413Y0034475D01*
X0836255Y0034471D01*
X0836097Y0034471D01*
X0835939Y0034475D01*
X0835780Y0034483D01*
X0835623Y0034495D01*
X0835465Y0034511D01*
X0835308Y0034531D01*
X0835152Y0034555D01*
X0834996Y0034583D01*
X0834841Y0034614D01*
X0834686Y0034650D01*
X0834533Y0034689D01*
X0834381Y0034732D01*
X0834230Y0034779D01*
X0834080Y0034830D01*
X0833931Y0034885D01*
X0833784Y0034943D01*
X0833638Y0035005D01*
X0833494Y0035070D01*
X0833352Y0035140D01*
X0833211Y0035212D01*
X0833072Y0035289D01*
X0832936Y0035368D01*
X0832801Y0035452D01*
X0832668Y0035538D01*
X0832538Y0035628D01*
X0832410Y0035721D01*
X0832284Y0035817D01*
X0832161Y0035917D01*
X0832040Y0036019D01*
X0831922Y0036124D01*
X0831807Y0036233D01*
X0831694Y0036344D01*
X0831584Y0036458D01*
X0831477Y0036575D01*
X0831373Y0036694D01*
X0831272Y0036816D01*
X0831175Y0036941D01*
X0831080Y0037068D01*
X0830989Y0037197D01*
X0830900Y0037328D01*
X0830816Y0037462D01*
X0830734Y0037598D01*
X0830656Y0037735D01*
X0830582Y0037875D01*
X0830511Y0038017D01*
X0830443Y0038160D01*
X0830379Y0038305D01*
X0830319Y0038451D01*
X0830263Y0038599D01*
X0830210Y0038748D01*
X0830161Y0038899D01*
X0830116Y0039051D01*
X0830075Y0039204D01*
X0830037Y0039357D01*
X0830004Y0039512D01*
X0829974Y0039668D01*
X0829948Y0039824D01*
X0829927Y0039981D01*
X0829909Y0040138D01*
X0829895Y0040296D01*
X0829885Y0040454D01*
X0829879Y0040612D01*
X0829877Y0040770D01*
X0699956Y0172660D02*
X0699958Y0172791D01*
X0699964Y0172923D01*
X0699974Y0173054D01*
X0699988Y0173185D01*
X0700006Y0173315D01*
X0700028Y0173444D01*
X0700053Y0173573D01*
X0700083Y0173701D01*
X0700117Y0173828D01*
X0700154Y0173955D01*
X0700195Y0174079D01*
X0700240Y0174203D01*
X0700289Y0174325D01*
X0700341Y0174446D01*
X0700397Y0174564D01*
X0700457Y0174682D01*
X0700520Y0174797D01*
X0700587Y0174910D01*
X0700657Y0175022D01*
X0700730Y0175131D01*
X0700806Y0175237D01*
X0700886Y0175342D01*
X0700969Y0175444D01*
X0701055Y0175543D01*
X0701144Y0175640D01*
X0701236Y0175734D01*
X0701331Y0175825D01*
X0701428Y0175914D01*
X0701528Y0175999D01*
X0701631Y0176081D01*
X0701736Y0176160D01*
X0701843Y0176236D01*
X0701953Y0176308D01*
X0702065Y0176377D01*
X0702179Y0176443D01*
X0702294Y0176505D01*
X0702412Y0176564D01*
X0702531Y0176619D01*
X0702652Y0176671D01*
X0702775Y0176718D01*
X0702899Y0176762D01*
X0703024Y0176803D01*
X0703150Y0176839D01*
X0703278Y0176872D01*
X0703406Y0176900D01*
X0703535Y0176925D01*
X0703665Y0176946D01*
X0703795Y0176963D01*
X0703926Y0176976D01*
X0704057Y0176985D01*
X0704188Y0176990D01*
X0704320Y0176991D01*
X0704451Y0176988D01*
X0704583Y0176981D01*
X0704714Y0176970D01*
X0704844Y0176955D01*
X0704974Y0176936D01*
X0705104Y0176913D01*
X0705232Y0176887D01*
X0705360Y0176856D01*
X0705487Y0176821D01*
X0705613Y0176783D01*
X0705737Y0176741D01*
X0705861Y0176695D01*
X0705982Y0176645D01*
X0706102Y0176592D01*
X0706221Y0176535D01*
X0706338Y0176475D01*
X0706452Y0176411D01*
X0706565Y0176343D01*
X0706676Y0176272D01*
X0706785Y0176198D01*
X0706891Y0176121D01*
X0706995Y0176040D01*
X0707096Y0175957D01*
X0707195Y0175870D01*
X0707291Y0175780D01*
X0707384Y0175687D01*
X0707475Y0175592D01*
X0707562Y0175494D01*
X0707647Y0175393D01*
X0707728Y0175290D01*
X0707806Y0175184D01*
X0707881Y0175076D01*
X0707953Y0174966D01*
X0708021Y0174854D01*
X0708086Y0174740D01*
X0708147Y0174623D01*
X0708205Y0174505D01*
X0708259Y0174385D01*
X0708310Y0174264D01*
X0708357Y0174141D01*
X0708400Y0174017D01*
X0708439Y0173892D01*
X0708475Y0173765D01*
X0708506Y0173637D01*
X0708534Y0173509D01*
X0708558Y0173380D01*
X0708578Y0173250D01*
X0708594Y0173119D01*
X0708606Y0172988D01*
X0708614Y0172857D01*
X0708618Y0172726D01*
X0708618Y0172594D01*
X0708614Y0172463D01*
X0708606Y0172332D01*
X0708594Y0172201D01*
X0708578Y0172070D01*
X0708558Y0171940D01*
X0708534Y0171811D01*
X0708506Y0171683D01*
X0708475Y0171555D01*
X0708439Y0171428D01*
X0708400Y0171303D01*
X0708357Y0171179D01*
X0708310Y0171056D01*
X0708259Y0170935D01*
X0708205Y0170815D01*
X0708147Y0170697D01*
X0708086Y0170580D01*
X0708021Y0170466D01*
X0707953Y0170354D01*
X0707881Y0170244D01*
X0707806Y0170136D01*
X0707728Y0170030D01*
X0707647Y0169927D01*
X0707562Y0169826D01*
X0707475Y0169728D01*
X0707384Y0169633D01*
X0707291Y0169540D01*
X0707195Y0169450D01*
X0707096Y0169363D01*
X0706995Y0169280D01*
X0706891Y0169199D01*
X0706785Y0169122D01*
X0706676Y0169048D01*
X0706565Y0168977D01*
X0706453Y0168909D01*
X0706338Y0168845D01*
X0706221Y0168785D01*
X0706102Y0168728D01*
X0705982Y0168675D01*
X0705861Y0168625D01*
X0705737Y0168579D01*
X0705613Y0168537D01*
X0705487Y0168499D01*
X0705360Y0168464D01*
X0705232Y0168433D01*
X0705104Y0168407D01*
X0704974Y0168384D01*
X0704844Y0168365D01*
X0704714Y0168350D01*
X0704583Y0168339D01*
X0704451Y0168332D01*
X0704320Y0168329D01*
X0704188Y0168330D01*
X0704057Y0168335D01*
X0703926Y0168344D01*
X0703795Y0168357D01*
X0703665Y0168374D01*
X0703535Y0168395D01*
X0703406Y0168420D01*
X0703278Y0168448D01*
X0703150Y0168481D01*
X0703024Y0168517D01*
X0702899Y0168558D01*
X0702775Y0168602D01*
X0702652Y0168649D01*
X0702531Y0168701D01*
X0702412Y0168756D01*
X0702294Y0168815D01*
X0702179Y0168877D01*
X0702065Y0168943D01*
X0701953Y0169012D01*
X0701843Y0169084D01*
X0701736Y0169160D01*
X0701631Y0169239D01*
X0701528Y0169321D01*
X0701428Y0169406D01*
X0701331Y0169495D01*
X0701236Y0169586D01*
X0701144Y0169680D01*
X0701055Y0169777D01*
X0700969Y0169876D01*
X0700886Y0169978D01*
X0700806Y0170083D01*
X0700730Y0170189D01*
X0700657Y0170298D01*
X0700587Y0170410D01*
X0700520Y0170523D01*
X0700457Y0170638D01*
X0700397Y0170756D01*
X0700341Y0170874D01*
X0700289Y0170995D01*
X0700240Y0171117D01*
X0700195Y0171241D01*
X0700154Y0171365D01*
X0700117Y0171492D01*
X0700083Y0171619D01*
X0700053Y0171747D01*
X0700028Y0171876D01*
X0700006Y0172005D01*
X0699988Y0172135D01*
X0699974Y0172266D01*
X0699964Y0172397D01*
X0699958Y0172529D01*
X0699956Y0172660D01*
X0680271Y0172660D02*
X0680273Y0172791D01*
X0680279Y0172923D01*
X0680289Y0173054D01*
X0680303Y0173185D01*
X0680321Y0173315D01*
X0680343Y0173444D01*
X0680368Y0173573D01*
X0680398Y0173701D01*
X0680432Y0173828D01*
X0680469Y0173955D01*
X0680510Y0174079D01*
X0680555Y0174203D01*
X0680604Y0174325D01*
X0680656Y0174446D01*
X0680712Y0174564D01*
X0680772Y0174682D01*
X0680835Y0174797D01*
X0680902Y0174910D01*
X0680972Y0175022D01*
X0681045Y0175131D01*
X0681121Y0175237D01*
X0681201Y0175342D01*
X0681284Y0175444D01*
X0681370Y0175543D01*
X0681459Y0175640D01*
X0681551Y0175734D01*
X0681646Y0175825D01*
X0681743Y0175914D01*
X0681843Y0175999D01*
X0681946Y0176081D01*
X0682051Y0176160D01*
X0682158Y0176236D01*
X0682268Y0176308D01*
X0682380Y0176377D01*
X0682494Y0176443D01*
X0682609Y0176505D01*
X0682727Y0176564D01*
X0682846Y0176619D01*
X0682967Y0176671D01*
X0683090Y0176718D01*
X0683214Y0176762D01*
X0683339Y0176803D01*
X0683465Y0176839D01*
X0683593Y0176872D01*
X0683721Y0176900D01*
X0683850Y0176925D01*
X0683980Y0176946D01*
X0684110Y0176963D01*
X0684241Y0176976D01*
X0684372Y0176985D01*
X0684503Y0176990D01*
X0684635Y0176991D01*
X0684766Y0176988D01*
X0684898Y0176981D01*
X0685029Y0176970D01*
X0685159Y0176955D01*
X0685289Y0176936D01*
X0685419Y0176913D01*
X0685547Y0176887D01*
X0685675Y0176856D01*
X0685802Y0176821D01*
X0685928Y0176783D01*
X0686052Y0176741D01*
X0686176Y0176695D01*
X0686297Y0176645D01*
X0686417Y0176592D01*
X0686536Y0176535D01*
X0686653Y0176475D01*
X0686767Y0176411D01*
X0686880Y0176343D01*
X0686991Y0176272D01*
X0687100Y0176198D01*
X0687206Y0176121D01*
X0687310Y0176040D01*
X0687411Y0175957D01*
X0687510Y0175870D01*
X0687606Y0175780D01*
X0687699Y0175687D01*
X0687790Y0175592D01*
X0687877Y0175494D01*
X0687962Y0175393D01*
X0688043Y0175290D01*
X0688121Y0175184D01*
X0688196Y0175076D01*
X0688268Y0174966D01*
X0688336Y0174854D01*
X0688401Y0174740D01*
X0688462Y0174623D01*
X0688520Y0174505D01*
X0688574Y0174385D01*
X0688625Y0174264D01*
X0688672Y0174141D01*
X0688715Y0174017D01*
X0688754Y0173892D01*
X0688790Y0173765D01*
X0688821Y0173637D01*
X0688849Y0173509D01*
X0688873Y0173380D01*
X0688893Y0173250D01*
X0688909Y0173119D01*
X0688921Y0172988D01*
X0688929Y0172857D01*
X0688933Y0172726D01*
X0688933Y0172594D01*
X0688929Y0172463D01*
X0688921Y0172332D01*
X0688909Y0172201D01*
X0688893Y0172070D01*
X0688873Y0171940D01*
X0688849Y0171811D01*
X0688821Y0171683D01*
X0688790Y0171555D01*
X0688754Y0171428D01*
X0688715Y0171303D01*
X0688672Y0171179D01*
X0688625Y0171056D01*
X0688574Y0170935D01*
X0688520Y0170815D01*
X0688462Y0170697D01*
X0688401Y0170580D01*
X0688336Y0170466D01*
X0688268Y0170354D01*
X0688196Y0170244D01*
X0688121Y0170136D01*
X0688043Y0170030D01*
X0687962Y0169927D01*
X0687877Y0169826D01*
X0687790Y0169728D01*
X0687699Y0169633D01*
X0687606Y0169540D01*
X0687510Y0169450D01*
X0687411Y0169363D01*
X0687310Y0169280D01*
X0687206Y0169199D01*
X0687100Y0169122D01*
X0686991Y0169048D01*
X0686880Y0168977D01*
X0686768Y0168909D01*
X0686653Y0168845D01*
X0686536Y0168785D01*
X0686417Y0168728D01*
X0686297Y0168675D01*
X0686176Y0168625D01*
X0686052Y0168579D01*
X0685928Y0168537D01*
X0685802Y0168499D01*
X0685675Y0168464D01*
X0685547Y0168433D01*
X0685419Y0168407D01*
X0685289Y0168384D01*
X0685159Y0168365D01*
X0685029Y0168350D01*
X0684898Y0168339D01*
X0684766Y0168332D01*
X0684635Y0168329D01*
X0684503Y0168330D01*
X0684372Y0168335D01*
X0684241Y0168344D01*
X0684110Y0168357D01*
X0683980Y0168374D01*
X0683850Y0168395D01*
X0683721Y0168420D01*
X0683593Y0168448D01*
X0683465Y0168481D01*
X0683339Y0168517D01*
X0683214Y0168558D01*
X0683090Y0168602D01*
X0682967Y0168649D01*
X0682846Y0168701D01*
X0682727Y0168756D01*
X0682609Y0168815D01*
X0682494Y0168877D01*
X0682380Y0168943D01*
X0682268Y0169012D01*
X0682158Y0169084D01*
X0682051Y0169160D01*
X0681946Y0169239D01*
X0681843Y0169321D01*
X0681743Y0169406D01*
X0681646Y0169495D01*
X0681551Y0169586D01*
X0681459Y0169680D01*
X0681370Y0169777D01*
X0681284Y0169876D01*
X0681201Y0169978D01*
X0681121Y0170083D01*
X0681045Y0170189D01*
X0680972Y0170298D01*
X0680902Y0170410D01*
X0680835Y0170523D01*
X0680772Y0170638D01*
X0680712Y0170756D01*
X0680656Y0170874D01*
X0680604Y0170995D01*
X0680555Y0171117D01*
X0680510Y0171241D01*
X0680469Y0171365D01*
X0680432Y0171492D01*
X0680398Y0171619D01*
X0680368Y0171747D01*
X0680343Y0171876D01*
X0680321Y0172005D01*
X0680303Y0172135D01*
X0680289Y0172266D01*
X0680279Y0172397D01*
X0680273Y0172529D01*
X0680271Y0172660D01*
X0829877Y0174628D02*
X0829879Y0174786D01*
X0829885Y0174944D01*
X0829895Y0175102D01*
X0829909Y0175260D01*
X0829927Y0175417D01*
X0829948Y0175574D01*
X0829974Y0175730D01*
X0830004Y0175886D01*
X0830037Y0176041D01*
X0830075Y0176194D01*
X0830116Y0176347D01*
X0830161Y0176499D01*
X0830210Y0176650D01*
X0830263Y0176799D01*
X0830319Y0176947D01*
X0830379Y0177093D01*
X0830443Y0177238D01*
X0830511Y0177381D01*
X0830582Y0177523D01*
X0830656Y0177663D01*
X0830734Y0177800D01*
X0830816Y0177936D01*
X0830900Y0178070D01*
X0830989Y0178201D01*
X0831080Y0178330D01*
X0831175Y0178457D01*
X0831272Y0178582D01*
X0831373Y0178704D01*
X0831477Y0178823D01*
X0831584Y0178940D01*
X0831694Y0179054D01*
X0831807Y0179165D01*
X0831922Y0179274D01*
X0832040Y0179379D01*
X0832161Y0179481D01*
X0832284Y0179581D01*
X0832410Y0179677D01*
X0832538Y0179770D01*
X0832668Y0179860D01*
X0832801Y0179946D01*
X0832936Y0180030D01*
X0833072Y0180109D01*
X0833211Y0180186D01*
X0833352Y0180258D01*
X0833494Y0180328D01*
X0833638Y0180393D01*
X0833784Y0180455D01*
X0833931Y0180513D01*
X0834080Y0180568D01*
X0834230Y0180619D01*
X0834381Y0180666D01*
X0834533Y0180709D01*
X0834686Y0180748D01*
X0834841Y0180784D01*
X0834996Y0180815D01*
X0835152Y0180843D01*
X0835308Y0180867D01*
X0835465Y0180887D01*
X0835623Y0180903D01*
X0835780Y0180915D01*
X0835939Y0180923D01*
X0836097Y0180927D01*
X0836255Y0180927D01*
X0836413Y0180923D01*
X0836572Y0180915D01*
X0836729Y0180903D01*
X0836887Y0180887D01*
X0837044Y0180867D01*
X0837200Y0180843D01*
X0837356Y0180815D01*
X0837511Y0180784D01*
X0837666Y0180748D01*
X0837819Y0180709D01*
X0837971Y0180666D01*
X0838122Y0180619D01*
X0838272Y0180568D01*
X0838421Y0180513D01*
X0838568Y0180455D01*
X0838714Y0180393D01*
X0838858Y0180328D01*
X0839000Y0180258D01*
X0839141Y0180186D01*
X0839280Y0180109D01*
X0839416Y0180030D01*
X0839551Y0179946D01*
X0839684Y0179860D01*
X0839814Y0179770D01*
X0839942Y0179677D01*
X0840068Y0179581D01*
X0840191Y0179481D01*
X0840312Y0179379D01*
X0840430Y0179274D01*
X0840545Y0179165D01*
X0840658Y0179054D01*
X0840768Y0178940D01*
X0840875Y0178823D01*
X0840979Y0178704D01*
X0841080Y0178582D01*
X0841177Y0178457D01*
X0841272Y0178330D01*
X0841363Y0178201D01*
X0841452Y0178070D01*
X0841536Y0177936D01*
X0841618Y0177800D01*
X0841696Y0177663D01*
X0841770Y0177523D01*
X0841841Y0177381D01*
X0841909Y0177238D01*
X0841973Y0177093D01*
X0842033Y0176947D01*
X0842089Y0176799D01*
X0842142Y0176650D01*
X0842191Y0176499D01*
X0842236Y0176347D01*
X0842277Y0176194D01*
X0842315Y0176041D01*
X0842348Y0175886D01*
X0842378Y0175730D01*
X0842404Y0175574D01*
X0842425Y0175417D01*
X0842443Y0175260D01*
X0842457Y0175102D01*
X0842467Y0174944D01*
X0842473Y0174786D01*
X0842475Y0174628D01*
X0842473Y0174470D01*
X0842467Y0174312D01*
X0842457Y0174154D01*
X0842443Y0173996D01*
X0842425Y0173839D01*
X0842404Y0173682D01*
X0842378Y0173526D01*
X0842348Y0173370D01*
X0842315Y0173215D01*
X0842277Y0173062D01*
X0842236Y0172909D01*
X0842191Y0172757D01*
X0842142Y0172606D01*
X0842089Y0172457D01*
X0842033Y0172309D01*
X0841973Y0172163D01*
X0841909Y0172018D01*
X0841841Y0171875D01*
X0841770Y0171733D01*
X0841696Y0171593D01*
X0841618Y0171456D01*
X0841536Y0171320D01*
X0841452Y0171186D01*
X0841363Y0171055D01*
X0841272Y0170926D01*
X0841177Y0170799D01*
X0841080Y0170674D01*
X0840979Y0170552D01*
X0840875Y0170433D01*
X0840768Y0170316D01*
X0840658Y0170202D01*
X0840545Y0170091D01*
X0840430Y0169982D01*
X0840312Y0169877D01*
X0840191Y0169775D01*
X0840068Y0169675D01*
X0839942Y0169579D01*
X0839814Y0169486D01*
X0839684Y0169396D01*
X0839551Y0169310D01*
X0839416Y0169226D01*
X0839280Y0169147D01*
X0839141Y0169070D01*
X0839000Y0168998D01*
X0838858Y0168928D01*
X0838714Y0168863D01*
X0838568Y0168801D01*
X0838421Y0168743D01*
X0838272Y0168688D01*
X0838122Y0168637D01*
X0837971Y0168590D01*
X0837819Y0168547D01*
X0837666Y0168508D01*
X0837511Y0168472D01*
X0837356Y0168441D01*
X0837200Y0168413D01*
X0837044Y0168389D01*
X0836887Y0168369D01*
X0836729Y0168353D01*
X0836572Y0168341D01*
X0836413Y0168333D01*
X0836255Y0168329D01*
X0836097Y0168329D01*
X0835939Y0168333D01*
X0835780Y0168341D01*
X0835623Y0168353D01*
X0835465Y0168369D01*
X0835308Y0168389D01*
X0835152Y0168413D01*
X0834996Y0168441D01*
X0834841Y0168472D01*
X0834686Y0168508D01*
X0834533Y0168547D01*
X0834381Y0168590D01*
X0834230Y0168637D01*
X0834080Y0168688D01*
X0833931Y0168743D01*
X0833784Y0168801D01*
X0833638Y0168863D01*
X0833494Y0168928D01*
X0833352Y0168998D01*
X0833211Y0169070D01*
X0833072Y0169147D01*
X0832936Y0169226D01*
X0832801Y0169310D01*
X0832668Y0169396D01*
X0832538Y0169486D01*
X0832410Y0169579D01*
X0832284Y0169675D01*
X0832161Y0169775D01*
X0832040Y0169877D01*
X0831922Y0169982D01*
X0831807Y0170091D01*
X0831694Y0170202D01*
X0831584Y0170316D01*
X0831477Y0170433D01*
X0831373Y0170552D01*
X0831272Y0170674D01*
X0831175Y0170799D01*
X0831080Y0170926D01*
X0830989Y0171055D01*
X0830900Y0171186D01*
X0830816Y0171320D01*
X0830734Y0171456D01*
X0830656Y0171593D01*
X0830582Y0171733D01*
X0830511Y0171875D01*
X0830443Y0172018D01*
X0830379Y0172163D01*
X0830319Y0172309D01*
X0830263Y0172457D01*
X0830210Y0172606D01*
X0830161Y0172757D01*
X0830116Y0172909D01*
X0830075Y0173062D01*
X0830037Y0173215D01*
X0830004Y0173370D01*
X0829974Y0173526D01*
X0829948Y0173682D01*
X0829927Y0173839D01*
X0829909Y0173996D01*
X0829895Y0174154D01*
X0829885Y0174312D01*
X0829879Y0174470D01*
X0829877Y0174628D01*
D11*
X0836176Y0174628D03*
X0836176Y0040770D03*
X0072397Y0040770D03*
X0072397Y0174628D03*
D12*
X0684602Y0172660D03*
X0704287Y0172660D03*
D13*
X0248343Y0120241D03*
X0132595Y0120241D03*
D14*
X0191295Y0080534D03*
D15*
X0191295Y0067542D03*
X0115704Y0080534D03*
D16*
X0539917Y0044707D03*
X0557633Y0044707D03*
X0583224Y0044707D03*
X0600940Y0044707D03*
X0626531Y0044707D03*
X0644247Y0044707D03*
D17*
X0649169Y0054550D03*
X0621610Y0054550D03*
X0605861Y0054550D03*
X0578302Y0054550D03*
X0562554Y0054550D03*
X0534995Y0054550D03*
M02*
