%
M48
M72
T01C0.01378
T02C0.03307
T03C0.12598
%
T01
X383677Y79740
X378953Y106512
X371079Y106512
X410449Y111236
X418323Y111236
X426197Y111236
X434071Y111236
X441945Y115961
X383677Y122260
X402575Y134858
X396276Y144307
X457693Y142732
X449819Y130134
X597850Y41945
T02
X615247Y48204
X626911Y48204
X637239Y53625
X604919Y53625
X598293Y63224
X553314Y63224
X546688Y53625
X536359Y48204
X524696Y48204
X514367Y53625
X507741Y63224
X462763Y63224
X456137Y53625
X445808Y48204
X434144Y48204
X423816Y53625
X417190Y63224
X372211Y63224
X365585Y53625
X355257Y48204
X343593Y48204
X333265Y53625
X326639Y63224
X281660Y63224
X275034Y53625
X264706Y48204
X253042Y48204
X242714Y53625
X236088Y63224
X191109Y63224
X184483Y53625
X174155Y48204
X162491Y48204
X152163Y53625
X145537Y63224
X100558Y63224
X93932Y53625
X83604Y48204
X71940Y48204
X61611Y53625
X54985Y63224
X53580Y74804
X101964Y74804
X144131Y74804
X192515Y74804
X234682Y74804
X283066Y74804
X325233Y74804
X373617Y74804
X415784Y74804
X464169Y74804
X506335Y74804
X554720Y74804
X596887Y74804
X645271Y74804
X687438Y74804
X735822Y74804
X731686Y85710
X722955Y93444
X711630Y96236
X700305Y93444
X691574Y85710
X641135Y85710
X632404Y93444
X621079Y96236
X609754Y93444
X601023Y85710
X550583Y85710
X541853Y93444
X530528Y96236
X519202Y93444
X510472Y85710
X460032Y85710
X451302Y93444
X439976Y96236
X428651Y93444
X419920Y85710
X369481Y85710
X360750Y93444
X349425Y96236
X338100Y93444
X329369Y85710
X278930Y85710
X270199Y93444
X258874Y96236
X247549Y93444
X238818Y85710
X188379Y85710
X179648Y93444
X168323Y96236
X156998Y93444
X148267Y85710
X97828Y85710
X89097Y93444
X77772Y96236
X66446Y93444
X57716Y85710
X643865Y63224
X688844Y63224
X695470Y53625
X705798Y48204
X717462Y48204
X727790Y53625
X734416Y63224
T03
X12811Y12811
X12811Y146669
X776591Y146669
X776591Y12811
M30
