G75*
%MOIN*%
%OFA0B0*%
%FSLAX25Y25*%
%IPPOS*%
%LPD*%
%AMOC8*
5,1,8,0,0,1.08239X$1,22.5*
%
%ADD10C,0.00000*%
D10*
X0001000Y0010264D02*
X0001000Y0128374D01*
X0099425Y0128374D01*
X0099425Y0010264D01*
X0001000Y0010264D01*
X0006512Y0041760D02*
X0006514Y0041918D01*
X0006520Y0042076D01*
X0006530Y0042234D01*
X0006544Y0042392D01*
X0006562Y0042549D01*
X0006583Y0042706D01*
X0006609Y0042862D01*
X0006639Y0043018D01*
X0006672Y0043173D01*
X0006710Y0043326D01*
X0006751Y0043479D01*
X0006796Y0043631D01*
X0006845Y0043782D01*
X0006898Y0043931D01*
X0006954Y0044079D01*
X0007014Y0044225D01*
X0007078Y0044370D01*
X0007146Y0044513D01*
X0007217Y0044655D01*
X0007291Y0044795D01*
X0007369Y0044932D01*
X0007451Y0045068D01*
X0007535Y0045202D01*
X0007624Y0045333D01*
X0007715Y0045462D01*
X0007810Y0045589D01*
X0007907Y0045714D01*
X0008008Y0045836D01*
X0008112Y0045955D01*
X0008219Y0046072D01*
X0008329Y0046186D01*
X0008442Y0046297D01*
X0008557Y0046406D01*
X0008675Y0046511D01*
X0008796Y0046613D01*
X0008919Y0046713D01*
X0009045Y0046809D01*
X0009173Y0046902D01*
X0009303Y0046992D01*
X0009436Y0047078D01*
X0009571Y0047162D01*
X0009707Y0047241D01*
X0009846Y0047318D01*
X0009987Y0047390D01*
X0010129Y0047460D01*
X0010273Y0047525D01*
X0010419Y0047587D01*
X0010566Y0047645D01*
X0010715Y0047700D01*
X0010865Y0047751D01*
X0011016Y0047798D01*
X0011168Y0047841D01*
X0011321Y0047880D01*
X0011476Y0047916D01*
X0011631Y0047947D01*
X0011787Y0047975D01*
X0011943Y0047999D01*
X0012100Y0048019D01*
X0012258Y0048035D01*
X0012415Y0048047D01*
X0012574Y0048055D01*
X0012732Y0048059D01*
X0012890Y0048059D01*
X0013048Y0048055D01*
X0013207Y0048047D01*
X0013364Y0048035D01*
X0013522Y0048019D01*
X0013679Y0047999D01*
X0013835Y0047975D01*
X0013991Y0047947D01*
X0014146Y0047916D01*
X0014301Y0047880D01*
X0014454Y0047841D01*
X0014606Y0047798D01*
X0014757Y0047751D01*
X0014907Y0047700D01*
X0015056Y0047645D01*
X0015203Y0047587D01*
X0015349Y0047525D01*
X0015493Y0047460D01*
X0015635Y0047390D01*
X0015776Y0047318D01*
X0015915Y0047241D01*
X0016051Y0047162D01*
X0016186Y0047078D01*
X0016319Y0046992D01*
X0016449Y0046902D01*
X0016577Y0046809D01*
X0016703Y0046713D01*
X0016826Y0046613D01*
X0016947Y0046511D01*
X0017065Y0046406D01*
X0017180Y0046297D01*
X0017293Y0046186D01*
X0017403Y0046072D01*
X0017510Y0045955D01*
X0017614Y0045836D01*
X0017715Y0045714D01*
X0017812Y0045589D01*
X0017907Y0045462D01*
X0017998Y0045333D01*
X0018087Y0045202D01*
X0018171Y0045068D01*
X0018253Y0044932D01*
X0018331Y0044795D01*
X0018405Y0044655D01*
X0018476Y0044513D01*
X0018544Y0044370D01*
X0018608Y0044225D01*
X0018668Y0044079D01*
X0018724Y0043931D01*
X0018777Y0043782D01*
X0018826Y0043631D01*
X0018871Y0043479D01*
X0018912Y0043326D01*
X0018950Y0043173D01*
X0018983Y0043018D01*
X0019013Y0042862D01*
X0019039Y0042706D01*
X0019060Y0042549D01*
X0019078Y0042392D01*
X0019092Y0042234D01*
X0019102Y0042076D01*
X0019108Y0041918D01*
X0019110Y0041760D01*
X0019108Y0041602D01*
X0019102Y0041444D01*
X0019092Y0041286D01*
X0019078Y0041128D01*
X0019060Y0040971D01*
X0019039Y0040814D01*
X0019013Y0040658D01*
X0018983Y0040502D01*
X0018950Y0040347D01*
X0018912Y0040194D01*
X0018871Y0040041D01*
X0018826Y0039889D01*
X0018777Y0039738D01*
X0018724Y0039589D01*
X0018668Y0039441D01*
X0018608Y0039295D01*
X0018544Y0039150D01*
X0018476Y0039007D01*
X0018405Y0038865D01*
X0018331Y0038725D01*
X0018253Y0038588D01*
X0018171Y0038452D01*
X0018087Y0038318D01*
X0017998Y0038187D01*
X0017907Y0038058D01*
X0017812Y0037931D01*
X0017715Y0037806D01*
X0017614Y0037684D01*
X0017510Y0037565D01*
X0017403Y0037448D01*
X0017293Y0037334D01*
X0017180Y0037223D01*
X0017065Y0037114D01*
X0016947Y0037009D01*
X0016826Y0036907D01*
X0016703Y0036807D01*
X0016577Y0036711D01*
X0016449Y0036618D01*
X0016319Y0036528D01*
X0016186Y0036442D01*
X0016051Y0036358D01*
X0015915Y0036279D01*
X0015776Y0036202D01*
X0015635Y0036130D01*
X0015493Y0036060D01*
X0015349Y0035995D01*
X0015203Y0035933D01*
X0015056Y0035875D01*
X0014907Y0035820D01*
X0014757Y0035769D01*
X0014606Y0035722D01*
X0014454Y0035679D01*
X0014301Y0035640D01*
X0014146Y0035604D01*
X0013991Y0035573D01*
X0013835Y0035545D01*
X0013679Y0035521D01*
X0013522Y0035501D01*
X0013364Y0035485D01*
X0013207Y0035473D01*
X0013048Y0035465D01*
X0012890Y0035461D01*
X0012732Y0035461D01*
X0012574Y0035465D01*
X0012415Y0035473D01*
X0012258Y0035485D01*
X0012100Y0035501D01*
X0011943Y0035521D01*
X0011787Y0035545D01*
X0011631Y0035573D01*
X0011476Y0035604D01*
X0011321Y0035640D01*
X0011168Y0035679D01*
X0011016Y0035722D01*
X0010865Y0035769D01*
X0010715Y0035820D01*
X0010566Y0035875D01*
X0010419Y0035933D01*
X0010273Y0035995D01*
X0010129Y0036060D01*
X0009987Y0036130D01*
X0009846Y0036202D01*
X0009707Y0036279D01*
X0009571Y0036358D01*
X0009436Y0036442D01*
X0009303Y0036528D01*
X0009173Y0036618D01*
X0009045Y0036711D01*
X0008919Y0036807D01*
X0008796Y0036907D01*
X0008675Y0037009D01*
X0008557Y0037114D01*
X0008442Y0037223D01*
X0008329Y0037334D01*
X0008219Y0037448D01*
X0008112Y0037565D01*
X0008008Y0037684D01*
X0007907Y0037806D01*
X0007810Y0037931D01*
X0007715Y0038058D01*
X0007624Y0038187D01*
X0007535Y0038318D01*
X0007451Y0038452D01*
X0007369Y0038588D01*
X0007291Y0038725D01*
X0007217Y0038865D01*
X0007146Y0039007D01*
X0007078Y0039150D01*
X0007014Y0039295D01*
X0006954Y0039441D01*
X0006898Y0039589D01*
X0006845Y0039738D01*
X0006796Y0039889D01*
X0006751Y0040041D01*
X0006710Y0040194D01*
X0006672Y0040347D01*
X0006639Y0040502D01*
X0006609Y0040658D01*
X0006583Y0040814D01*
X0006562Y0040971D01*
X0006544Y0041128D01*
X0006530Y0041286D01*
X0006520Y0041444D01*
X0006514Y0041602D01*
X0006512Y0041760D01*
X0006512Y0116563D02*
X0006514Y0116721D01*
X0006520Y0116879D01*
X0006530Y0117037D01*
X0006544Y0117195D01*
X0006562Y0117352D01*
X0006583Y0117509D01*
X0006609Y0117665D01*
X0006639Y0117821D01*
X0006672Y0117976D01*
X0006710Y0118129D01*
X0006751Y0118282D01*
X0006796Y0118434D01*
X0006845Y0118585D01*
X0006898Y0118734D01*
X0006954Y0118882D01*
X0007014Y0119028D01*
X0007078Y0119173D01*
X0007146Y0119316D01*
X0007217Y0119458D01*
X0007291Y0119598D01*
X0007369Y0119735D01*
X0007451Y0119871D01*
X0007535Y0120005D01*
X0007624Y0120136D01*
X0007715Y0120265D01*
X0007810Y0120392D01*
X0007907Y0120517D01*
X0008008Y0120639D01*
X0008112Y0120758D01*
X0008219Y0120875D01*
X0008329Y0120989D01*
X0008442Y0121100D01*
X0008557Y0121209D01*
X0008675Y0121314D01*
X0008796Y0121416D01*
X0008919Y0121516D01*
X0009045Y0121612D01*
X0009173Y0121705D01*
X0009303Y0121795D01*
X0009436Y0121881D01*
X0009571Y0121965D01*
X0009707Y0122044D01*
X0009846Y0122121D01*
X0009987Y0122193D01*
X0010129Y0122263D01*
X0010273Y0122328D01*
X0010419Y0122390D01*
X0010566Y0122448D01*
X0010715Y0122503D01*
X0010865Y0122554D01*
X0011016Y0122601D01*
X0011168Y0122644D01*
X0011321Y0122683D01*
X0011476Y0122719D01*
X0011631Y0122750D01*
X0011787Y0122778D01*
X0011943Y0122802D01*
X0012100Y0122822D01*
X0012258Y0122838D01*
X0012415Y0122850D01*
X0012574Y0122858D01*
X0012732Y0122862D01*
X0012890Y0122862D01*
X0013048Y0122858D01*
X0013207Y0122850D01*
X0013364Y0122838D01*
X0013522Y0122822D01*
X0013679Y0122802D01*
X0013835Y0122778D01*
X0013991Y0122750D01*
X0014146Y0122719D01*
X0014301Y0122683D01*
X0014454Y0122644D01*
X0014606Y0122601D01*
X0014757Y0122554D01*
X0014907Y0122503D01*
X0015056Y0122448D01*
X0015203Y0122390D01*
X0015349Y0122328D01*
X0015493Y0122263D01*
X0015635Y0122193D01*
X0015776Y0122121D01*
X0015915Y0122044D01*
X0016051Y0121965D01*
X0016186Y0121881D01*
X0016319Y0121795D01*
X0016449Y0121705D01*
X0016577Y0121612D01*
X0016703Y0121516D01*
X0016826Y0121416D01*
X0016947Y0121314D01*
X0017065Y0121209D01*
X0017180Y0121100D01*
X0017293Y0120989D01*
X0017403Y0120875D01*
X0017510Y0120758D01*
X0017614Y0120639D01*
X0017715Y0120517D01*
X0017812Y0120392D01*
X0017907Y0120265D01*
X0017998Y0120136D01*
X0018087Y0120005D01*
X0018171Y0119871D01*
X0018253Y0119735D01*
X0018331Y0119598D01*
X0018405Y0119458D01*
X0018476Y0119316D01*
X0018544Y0119173D01*
X0018608Y0119028D01*
X0018668Y0118882D01*
X0018724Y0118734D01*
X0018777Y0118585D01*
X0018826Y0118434D01*
X0018871Y0118282D01*
X0018912Y0118129D01*
X0018950Y0117976D01*
X0018983Y0117821D01*
X0019013Y0117665D01*
X0019039Y0117509D01*
X0019060Y0117352D01*
X0019078Y0117195D01*
X0019092Y0117037D01*
X0019102Y0116879D01*
X0019108Y0116721D01*
X0019110Y0116563D01*
X0019108Y0116405D01*
X0019102Y0116247D01*
X0019092Y0116089D01*
X0019078Y0115931D01*
X0019060Y0115774D01*
X0019039Y0115617D01*
X0019013Y0115461D01*
X0018983Y0115305D01*
X0018950Y0115150D01*
X0018912Y0114997D01*
X0018871Y0114844D01*
X0018826Y0114692D01*
X0018777Y0114541D01*
X0018724Y0114392D01*
X0018668Y0114244D01*
X0018608Y0114098D01*
X0018544Y0113953D01*
X0018476Y0113810D01*
X0018405Y0113668D01*
X0018331Y0113528D01*
X0018253Y0113391D01*
X0018171Y0113255D01*
X0018087Y0113121D01*
X0017998Y0112990D01*
X0017907Y0112861D01*
X0017812Y0112734D01*
X0017715Y0112609D01*
X0017614Y0112487D01*
X0017510Y0112368D01*
X0017403Y0112251D01*
X0017293Y0112137D01*
X0017180Y0112026D01*
X0017065Y0111917D01*
X0016947Y0111812D01*
X0016826Y0111710D01*
X0016703Y0111610D01*
X0016577Y0111514D01*
X0016449Y0111421D01*
X0016319Y0111331D01*
X0016186Y0111245D01*
X0016051Y0111161D01*
X0015915Y0111082D01*
X0015776Y0111005D01*
X0015635Y0110933D01*
X0015493Y0110863D01*
X0015349Y0110798D01*
X0015203Y0110736D01*
X0015056Y0110678D01*
X0014907Y0110623D01*
X0014757Y0110572D01*
X0014606Y0110525D01*
X0014454Y0110482D01*
X0014301Y0110443D01*
X0014146Y0110407D01*
X0013991Y0110376D01*
X0013835Y0110348D01*
X0013679Y0110324D01*
X0013522Y0110304D01*
X0013364Y0110288D01*
X0013207Y0110276D01*
X0013048Y0110268D01*
X0012890Y0110264D01*
X0012732Y0110264D01*
X0012574Y0110268D01*
X0012415Y0110276D01*
X0012258Y0110288D01*
X0012100Y0110304D01*
X0011943Y0110324D01*
X0011787Y0110348D01*
X0011631Y0110376D01*
X0011476Y0110407D01*
X0011321Y0110443D01*
X0011168Y0110482D01*
X0011016Y0110525D01*
X0010865Y0110572D01*
X0010715Y0110623D01*
X0010566Y0110678D01*
X0010419Y0110736D01*
X0010273Y0110798D01*
X0010129Y0110863D01*
X0009987Y0110933D01*
X0009846Y0111005D01*
X0009707Y0111082D01*
X0009571Y0111161D01*
X0009436Y0111245D01*
X0009303Y0111331D01*
X0009173Y0111421D01*
X0009045Y0111514D01*
X0008919Y0111610D01*
X0008796Y0111710D01*
X0008675Y0111812D01*
X0008557Y0111917D01*
X0008442Y0112026D01*
X0008329Y0112137D01*
X0008219Y0112251D01*
X0008112Y0112368D01*
X0008008Y0112487D01*
X0007907Y0112609D01*
X0007810Y0112734D01*
X0007715Y0112861D01*
X0007624Y0112990D01*
X0007535Y0113121D01*
X0007451Y0113255D01*
X0007369Y0113391D01*
X0007291Y0113528D01*
X0007217Y0113668D01*
X0007146Y0113810D01*
X0007078Y0113953D01*
X0007014Y0114098D01*
X0006954Y0114244D01*
X0006898Y0114392D01*
X0006845Y0114541D01*
X0006796Y0114692D01*
X0006751Y0114844D01*
X0006710Y0114997D01*
X0006672Y0115150D01*
X0006639Y0115305D01*
X0006609Y0115461D01*
X0006583Y0115617D01*
X0006562Y0115774D01*
X0006544Y0115931D01*
X0006530Y0116089D01*
X0006520Y0116247D01*
X0006514Y0116405D01*
X0006512Y0116563D01*
X0081315Y0116563D02*
X0081317Y0116721D01*
X0081323Y0116879D01*
X0081333Y0117037D01*
X0081347Y0117195D01*
X0081365Y0117352D01*
X0081386Y0117509D01*
X0081412Y0117665D01*
X0081442Y0117821D01*
X0081475Y0117976D01*
X0081513Y0118129D01*
X0081554Y0118282D01*
X0081599Y0118434D01*
X0081648Y0118585D01*
X0081701Y0118734D01*
X0081757Y0118882D01*
X0081817Y0119028D01*
X0081881Y0119173D01*
X0081949Y0119316D01*
X0082020Y0119458D01*
X0082094Y0119598D01*
X0082172Y0119735D01*
X0082254Y0119871D01*
X0082338Y0120005D01*
X0082427Y0120136D01*
X0082518Y0120265D01*
X0082613Y0120392D01*
X0082710Y0120517D01*
X0082811Y0120639D01*
X0082915Y0120758D01*
X0083022Y0120875D01*
X0083132Y0120989D01*
X0083245Y0121100D01*
X0083360Y0121209D01*
X0083478Y0121314D01*
X0083599Y0121416D01*
X0083722Y0121516D01*
X0083848Y0121612D01*
X0083976Y0121705D01*
X0084106Y0121795D01*
X0084239Y0121881D01*
X0084374Y0121965D01*
X0084510Y0122044D01*
X0084649Y0122121D01*
X0084790Y0122193D01*
X0084932Y0122263D01*
X0085076Y0122328D01*
X0085222Y0122390D01*
X0085369Y0122448D01*
X0085518Y0122503D01*
X0085668Y0122554D01*
X0085819Y0122601D01*
X0085971Y0122644D01*
X0086124Y0122683D01*
X0086279Y0122719D01*
X0086434Y0122750D01*
X0086590Y0122778D01*
X0086746Y0122802D01*
X0086903Y0122822D01*
X0087061Y0122838D01*
X0087218Y0122850D01*
X0087377Y0122858D01*
X0087535Y0122862D01*
X0087693Y0122862D01*
X0087851Y0122858D01*
X0088010Y0122850D01*
X0088167Y0122838D01*
X0088325Y0122822D01*
X0088482Y0122802D01*
X0088638Y0122778D01*
X0088794Y0122750D01*
X0088949Y0122719D01*
X0089104Y0122683D01*
X0089257Y0122644D01*
X0089409Y0122601D01*
X0089560Y0122554D01*
X0089710Y0122503D01*
X0089859Y0122448D01*
X0090006Y0122390D01*
X0090152Y0122328D01*
X0090296Y0122263D01*
X0090438Y0122193D01*
X0090579Y0122121D01*
X0090718Y0122044D01*
X0090854Y0121965D01*
X0090989Y0121881D01*
X0091122Y0121795D01*
X0091252Y0121705D01*
X0091380Y0121612D01*
X0091506Y0121516D01*
X0091629Y0121416D01*
X0091750Y0121314D01*
X0091868Y0121209D01*
X0091983Y0121100D01*
X0092096Y0120989D01*
X0092206Y0120875D01*
X0092313Y0120758D01*
X0092417Y0120639D01*
X0092518Y0120517D01*
X0092615Y0120392D01*
X0092710Y0120265D01*
X0092801Y0120136D01*
X0092890Y0120005D01*
X0092974Y0119871D01*
X0093056Y0119735D01*
X0093134Y0119598D01*
X0093208Y0119458D01*
X0093279Y0119316D01*
X0093347Y0119173D01*
X0093411Y0119028D01*
X0093471Y0118882D01*
X0093527Y0118734D01*
X0093580Y0118585D01*
X0093629Y0118434D01*
X0093674Y0118282D01*
X0093715Y0118129D01*
X0093753Y0117976D01*
X0093786Y0117821D01*
X0093816Y0117665D01*
X0093842Y0117509D01*
X0093863Y0117352D01*
X0093881Y0117195D01*
X0093895Y0117037D01*
X0093905Y0116879D01*
X0093911Y0116721D01*
X0093913Y0116563D01*
X0093911Y0116405D01*
X0093905Y0116247D01*
X0093895Y0116089D01*
X0093881Y0115931D01*
X0093863Y0115774D01*
X0093842Y0115617D01*
X0093816Y0115461D01*
X0093786Y0115305D01*
X0093753Y0115150D01*
X0093715Y0114997D01*
X0093674Y0114844D01*
X0093629Y0114692D01*
X0093580Y0114541D01*
X0093527Y0114392D01*
X0093471Y0114244D01*
X0093411Y0114098D01*
X0093347Y0113953D01*
X0093279Y0113810D01*
X0093208Y0113668D01*
X0093134Y0113528D01*
X0093056Y0113391D01*
X0092974Y0113255D01*
X0092890Y0113121D01*
X0092801Y0112990D01*
X0092710Y0112861D01*
X0092615Y0112734D01*
X0092518Y0112609D01*
X0092417Y0112487D01*
X0092313Y0112368D01*
X0092206Y0112251D01*
X0092096Y0112137D01*
X0091983Y0112026D01*
X0091868Y0111917D01*
X0091750Y0111812D01*
X0091629Y0111710D01*
X0091506Y0111610D01*
X0091380Y0111514D01*
X0091252Y0111421D01*
X0091122Y0111331D01*
X0090989Y0111245D01*
X0090854Y0111161D01*
X0090718Y0111082D01*
X0090579Y0111005D01*
X0090438Y0110933D01*
X0090296Y0110863D01*
X0090152Y0110798D01*
X0090006Y0110736D01*
X0089859Y0110678D01*
X0089710Y0110623D01*
X0089560Y0110572D01*
X0089409Y0110525D01*
X0089257Y0110482D01*
X0089104Y0110443D01*
X0088949Y0110407D01*
X0088794Y0110376D01*
X0088638Y0110348D01*
X0088482Y0110324D01*
X0088325Y0110304D01*
X0088167Y0110288D01*
X0088010Y0110276D01*
X0087851Y0110268D01*
X0087693Y0110264D01*
X0087535Y0110264D01*
X0087377Y0110268D01*
X0087218Y0110276D01*
X0087061Y0110288D01*
X0086903Y0110304D01*
X0086746Y0110324D01*
X0086590Y0110348D01*
X0086434Y0110376D01*
X0086279Y0110407D01*
X0086124Y0110443D01*
X0085971Y0110482D01*
X0085819Y0110525D01*
X0085668Y0110572D01*
X0085518Y0110623D01*
X0085369Y0110678D01*
X0085222Y0110736D01*
X0085076Y0110798D01*
X0084932Y0110863D01*
X0084790Y0110933D01*
X0084649Y0111005D01*
X0084510Y0111082D01*
X0084374Y0111161D01*
X0084239Y0111245D01*
X0084106Y0111331D01*
X0083976Y0111421D01*
X0083848Y0111514D01*
X0083722Y0111610D01*
X0083599Y0111710D01*
X0083478Y0111812D01*
X0083360Y0111917D01*
X0083245Y0112026D01*
X0083132Y0112137D01*
X0083022Y0112251D01*
X0082915Y0112368D01*
X0082811Y0112487D01*
X0082710Y0112609D01*
X0082613Y0112734D01*
X0082518Y0112861D01*
X0082427Y0112990D01*
X0082338Y0113121D01*
X0082254Y0113255D01*
X0082172Y0113391D01*
X0082094Y0113528D01*
X0082020Y0113668D01*
X0081949Y0113810D01*
X0081881Y0113953D01*
X0081817Y0114098D01*
X0081757Y0114244D01*
X0081701Y0114392D01*
X0081648Y0114541D01*
X0081599Y0114692D01*
X0081554Y0114844D01*
X0081513Y0114997D01*
X0081475Y0115150D01*
X0081442Y0115305D01*
X0081412Y0115461D01*
X0081386Y0115617D01*
X0081365Y0115774D01*
X0081347Y0115931D01*
X0081333Y0116089D01*
X0081323Y0116247D01*
X0081317Y0116405D01*
X0081315Y0116563D01*
X0081315Y0041760D02*
X0081317Y0041918D01*
X0081323Y0042076D01*
X0081333Y0042234D01*
X0081347Y0042392D01*
X0081365Y0042549D01*
X0081386Y0042706D01*
X0081412Y0042862D01*
X0081442Y0043018D01*
X0081475Y0043173D01*
X0081513Y0043326D01*
X0081554Y0043479D01*
X0081599Y0043631D01*
X0081648Y0043782D01*
X0081701Y0043931D01*
X0081757Y0044079D01*
X0081817Y0044225D01*
X0081881Y0044370D01*
X0081949Y0044513D01*
X0082020Y0044655D01*
X0082094Y0044795D01*
X0082172Y0044932D01*
X0082254Y0045068D01*
X0082338Y0045202D01*
X0082427Y0045333D01*
X0082518Y0045462D01*
X0082613Y0045589D01*
X0082710Y0045714D01*
X0082811Y0045836D01*
X0082915Y0045955D01*
X0083022Y0046072D01*
X0083132Y0046186D01*
X0083245Y0046297D01*
X0083360Y0046406D01*
X0083478Y0046511D01*
X0083599Y0046613D01*
X0083722Y0046713D01*
X0083848Y0046809D01*
X0083976Y0046902D01*
X0084106Y0046992D01*
X0084239Y0047078D01*
X0084374Y0047162D01*
X0084510Y0047241D01*
X0084649Y0047318D01*
X0084790Y0047390D01*
X0084932Y0047460D01*
X0085076Y0047525D01*
X0085222Y0047587D01*
X0085369Y0047645D01*
X0085518Y0047700D01*
X0085668Y0047751D01*
X0085819Y0047798D01*
X0085971Y0047841D01*
X0086124Y0047880D01*
X0086279Y0047916D01*
X0086434Y0047947D01*
X0086590Y0047975D01*
X0086746Y0047999D01*
X0086903Y0048019D01*
X0087061Y0048035D01*
X0087218Y0048047D01*
X0087377Y0048055D01*
X0087535Y0048059D01*
X0087693Y0048059D01*
X0087851Y0048055D01*
X0088010Y0048047D01*
X0088167Y0048035D01*
X0088325Y0048019D01*
X0088482Y0047999D01*
X0088638Y0047975D01*
X0088794Y0047947D01*
X0088949Y0047916D01*
X0089104Y0047880D01*
X0089257Y0047841D01*
X0089409Y0047798D01*
X0089560Y0047751D01*
X0089710Y0047700D01*
X0089859Y0047645D01*
X0090006Y0047587D01*
X0090152Y0047525D01*
X0090296Y0047460D01*
X0090438Y0047390D01*
X0090579Y0047318D01*
X0090718Y0047241D01*
X0090854Y0047162D01*
X0090989Y0047078D01*
X0091122Y0046992D01*
X0091252Y0046902D01*
X0091380Y0046809D01*
X0091506Y0046713D01*
X0091629Y0046613D01*
X0091750Y0046511D01*
X0091868Y0046406D01*
X0091983Y0046297D01*
X0092096Y0046186D01*
X0092206Y0046072D01*
X0092313Y0045955D01*
X0092417Y0045836D01*
X0092518Y0045714D01*
X0092615Y0045589D01*
X0092710Y0045462D01*
X0092801Y0045333D01*
X0092890Y0045202D01*
X0092974Y0045068D01*
X0093056Y0044932D01*
X0093134Y0044795D01*
X0093208Y0044655D01*
X0093279Y0044513D01*
X0093347Y0044370D01*
X0093411Y0044225D01*
X0093471Y0044079D01*
X0093527Y0043931D01*
X0093580Y0043782D01*
X0093629Y0043631D01*
X0093674Y0043479D01*
X0093715Y0043326D01*
X0093753Y0043173D01*
X0093786Y0043018D01*
X0093816Y0042862D01*
X0093842Y0042706D01*
X0093863Y0042549D01*
X0093881Y0042392D01*
X0093895Y0042234D01*
X0093905Y0042076D01*
X0093911Y0041918D01*
X0093913Y0041760D01*
X0093911Y0041602D01*
X0093905Y0041444D01*
X0093895Y0041286D01*
X0093881Y0041128D01*
X0093863Y0040971D01*
X0093842Y0040814D01*
X0093816Y0040658D01*
X0093786Y0040502D01*
X0093753Y0040347D01*
X0093715Y0040194D01*
X0093674Y0040041D01*
X0093629Y0039889D01*
X0093580Y0039738D01*
X0093527Y0039589D01*
X0093471Y0039441D01*
X0093411Y0039295D01*
X0093347Y0039150D01*
X0093279Y0039007D01*
X0093208Y0038865D01*
X0093134Y0038725D01*
X0093056Y0038588D01*
X0092974Y0038452D01*
X0092890Y0038318D01*
X0092801Y0038187D01*
X0092710Y0038058D01*
X0092615Y0037931D01*
X0092518Y0037806D01*
X0092417Y0037684D01*
X0092313Y0037565D01*
X0092206Y0037448D01*
X0092096Y0037334D01*
X0091983Y0037223D01*
X0091868Y0037114D01*
X0091750Y0037009D01*
X0091629Y0036907D01*
X0091506Y0036807D01*
X0091380Y0036711D01*
X0091252Y0036618D01*
X0091122Y0036528D01*
X0090989Y0036442D01*
X0090854Y0036358D01*
X0090718Y0036279D01*
X0090579Y0036202D01*
X0090438Y0036130D01*
X0090296Y0036060D01*
X0090152Y0035995D01*
X0090006Y0035933D01*
X0089859Y0035875D01*
X0089710Y0035820D01*
X0089560Y0035769D01*
X0089409Y0035722D01*
X0089257Y0035679D01*
X0089104Y0035640D01*
X0088949Y0035604D01*
X0088794Y0035573D01*
X0088638Y0035545D01*
X0088482Y0035521D01*
X0088325Y0035501D01*
X0088167Y0035485D01*
X0088010Y0035473D01*
X0087851Y0035465D01*
X0087693Y0035461D01*
X0087535Y0035461D01*
X0087377Y0035465D01*
X0087218Y0035473D01*
X0087061Y0035485D01*
X0086903Y0035501D01*
X0086746Y0035521D01*
X0086590Y0035545D01*
X0086434Y0035573D01*
X0086279Y0035604D01*
X0086124Y0035640D01*
X0085971Y0035679D01*
X0085819Y0035722D01*
X0085668Y0035769D01*
X0085518Y0035820D01*
X0085369Y0035875D01*
X0085222Y0035933D01*
X0085076Y0035995D01*
X0084932Y0036060D01*
X0084790Y0036130D01*
X0084649Y0036202D01*
X0084510Y0036279D01*
X0084374Y0036358D01*
X0084239Y0036442D01*
X0084106Y0036528D01*
X0083976Y0036618D01*
X0083848Y0036711D01*
X0083722Y0036807D01*
X0083599Y0036907D01*
X0083478Y0037009D01*
X0083360Y0037114D01*
X0083245Y0037223D01*
X0083132Y0037334D01*
X0083022Y0037448D01*
X0082915Y0037565D01*
X0082811Y0037684D01*
X0082710Y0037806D01*
X0082613Y0037931D01*
X0082518Y0038058D01*
X0082427Y0038187D01*
X0082338Y0038318D01*
X0082254Y0038452D01*
X0082172Y0038588D01*
X0082094Y0038725D01*
X0082020Y0038865D01*
X0081949Y0039007D01*
X0081881Y0039150D01*
X0081817Y0039295D01*
X0081757Y0039441D01*
X0081701Y0039589D01*
X0081648Y0039738D01*
X0081599Y0039889D01*
X0081554Y0040041D01*
X0081513Y0040194D01*
X0081475Y0040347D01*
X0081442Y0040502D01*
X0081412Y0040658D01*
X0081386Y0040814D01*
X0081365Y0040971D01*
X0081347Y0041128D01*
X0081333Y0041286D01*
X0081323Y0041444D01*
X0081317Y0041602D01*
X0081315Y0041760D01*
M02*
