%
M48
M72
T01C0.03307
T02C0.03937
T03C0.12598
%
T01
X26551Y73330
X31972Y63001
X41571Y56375
X53150Y54969
X64056Y59106
X71791Y67836
X74582Y79161
X71791Y90487
X64056Y99217
X53150Y103354
X41571Y101948
X31972Y95322
X26551Y84993
T02
X20213Y15500
X20213Y25500
X30213Y25500
X30213Y15500
X40213Y15500
X40213Y25500
X50213Y25500
X50213Y15500
X60213Y15500
X60213Y25500
X70213Y25500
X70213Y15500
X80213Y15500
X80213Y25500
T03
X12811Y41760
X12811Y116563
X87614Y116563
X87614Y41760
M30
