G75*
%MOIN*%
%OFA0B0*%
%FSLAX25Y25*%
%IPPOS*%
%LPD*%
%AMOC8*
5,1,8,0,0,1.08239X$1,22.5*
%
%ADD10C,0.00000*%
%ADD11R,0.10236X0.13780*%
%ADD12C,0.05937*%
%ADD13C,0.02578*%
%ADD14C,0.01200*%
%ADD15C,0.00800*%
%ADD16C,0.02000*%
%ADD17C,0.04000*%
%ADD18C,0.03937*%
%ADD19C,0.01000*%
%ADD20C,0.02400*%
%ADD21C,0.01600*%
D10*
X0060586Y0028959D02*
X0060586Y0186439D01*
X0093066Y0186439D01*
X0093066Y0183487D01*
X0093068Y0183401D01*
X0093073Y0183315D01*
X0093083Y0183230D01*
X0093096Y0183145D01*
X0093113Y0183061D01*
X0093133Y0182977D01*
X0093157Y0182895D01*
X0093185Y0182814D01*
X0093216Y0182733D01*
X0093250Y0182655D01*
X0093288Y0182578D01*
X0093330Y0182503D01*
X0093374Y0182429D01*
X0093422Y0182358D01*
X0093473Y0182288D01*
X0093527Y0182221D01*
X0093583Y0182157D01*
X0093643Y0182095D01*
X0093705Y0182035D01*
X0093769Y0181979D01*
X0093836Y0181925D01*
X0093906Y0181874D01*
X0093977Y0181826D01*
X0094051Y0181782D01*
X0094126Y0181740D01*
X0094203Y0181702D01*
X0094281Y0181668D01*
X0094362Y0181637D01*
X0094443Y0181609D01*
X0094525Y0181585D01*
X0094609Y0181565D01*
X0094693Y0181548D01*
X0094778Y0181535D01*
X0094863Y0181525D01*
X0094949Y0181520D01*
X0095035Y0181518D01*
X0124562Y0181518D01*
X0124648Y0181520D01*
X0124734Y0181525D01*
X0124819Y0181535D01*
X0124904Y0181548D01*
X0124988Y0181565D01*
X0125072Y0181585D01*
X0125154Y0181609D01*
X0125235Y0181637D01*
X0125316Y0181668D01*
X0125394Y0181702D01*
X0125471Y0181740D01*
X0125547Y0181782D01*
X0125620Y0181826D01*
X0125691Y0181874D01*
X0125761Y0181925D01*
X0125828Y0181979D01*
X0125892Y0182035D01*
X0125954Y0182095D01*
X0126014Y0182157D01*
X0126070Y0182221D01*
X0126124Y0182288D01*
X0126175Y0182358D01*
X0126223Y0182429D01*
X0126267Y0182503D01*
X0126309Y0182578D01*
X0126347Y0182655D01*
X0126381Y0182733D01*
X0126412Y0182814D01*
X0126440Y0182895D01*
X0126464Y0182977D01*
X0126484Y0183061D01*
X0126501Y0183145D01*
X0126514Y0183230D01*
X0126524Y0183315D01*
X0126529Y0183401D01*
X0126531Y0183487D01*
X0126531Y0186439D01*
X0222003Y0186439D01*
X0222003Y0162817D01*
X0222005Y0162693D01*
X0222011Y0162570D01*
X0222020Y0162446D01*
X0222034Y0162324D01*
X0222051Y0162201D01*
X0222073Y0162079D01*
X0222098Y0161958D01*
X0222127Y0161838D01*
X0222159Y0161719D01*
X0222196Y0161600D01*
X0222236Y0161483D01*
X0222279Y0161368D01*
X0222327Y0161253D01*
X0222378Y0161141D01*
X0222432Y0161030D01*
X0222490Y0160920D01*
X0222551Y0160813D01*
X0222616Y0160707D01*
X0222684Y0160604D01*
X0222755Y0160503D01*
X0222829Y0160404D01*
X0222906Y0160307D01*
X0222987Y0160213D01*
X0223070Y0160122D01*
X0223156Y0160033D01*
X0223245Y0159947D01*
X0223336Y0159864D01*
X0223430Y0159783D01*
X0223527Y0159706D01*
X0223626Y0159632D01*
X0223727Y0159561D01*
X0223830Y0159493D01*
X0223936Y0159428D01*
X0224043Y0159367D01*
X0224153Y0159309D01*
X0224264Y0159255D01*
X0224376Y0159204D01*
X0224491Y0159156D01*
X0224606Y0159113D01*
X0224723Y0159073D01*
X0224842Y0159036D01*
X0224961Y0159004D01*
X0225081Y0158975D01*
X0225202Y0158950D01*
X0225324Y0158928D01*
X0225447Y0158911D01*
X0225569Y0158897D01*
X0225693Y0158888D01*
X0225816Y0158882D01*
X0225940Y0158880D01*
X0407043Y0158880D01*
X0407167Y0158882D01*
X0407290Y0158888D01*
X0407414Y0158897D01*
X0407536Y0158911D01*
X0407659Y0158928D01*
X0407781Y0158950D01*
X0407902Y0158975D01*
X0408022Y0159004D01*
X0408141Y0159036D01*
X0408260Y0159073D01*
X0408377Y0159113D01*
X0408492Y0159156D01*
X0408607Y0159204D01*
X0408719Y0159255D01*
X0408830Y0159309D01*
X0408940Y0159367D01*
X0409047Y0159428D01*
X0409153Y0159493D01*
X0409256Y0159561D01*
X0409357Y0159632D01*
X0409456Y0159706D01*
X0409553Y0159783D01*
X0409647Y0159864D01*
X0409738Y0159947D01*
X0409827Y0160033D01*
X0409913Y0160122D01*
X0409996Y0160213D01*
X0410077Y0160307D01*
X0410154Y0160404D01*
X0410228Y0160503D01*
X0410299Y0160604D01*
X0410367Y0160707D01*
X0410432Y0160813D01*
X0410493Y0160920D01*
X0410551Y0161030D01*
X0410605Y0161141D01*
X0410656Y0161253D01*
X0410704Y0161368D01*
X0410747Y0161483D01*
X0410787Y0161600D01*
X0410824Y0161719D01*
X0410856Y0161838D01*
X0410885Y0161958D01*
X0410910Y0162079D01*
X0410932Y0162201D01*
X0410949Y0162324D01*
X0410963Y0162446D01*
X0410972Y0162570D01*
X0410978Y0162693D01*
X0410980Y0162817D01*
X0410980Y0186439D01*
X0847987Y0186439D01*
X0847987Y0028959D01*
X0060586Y0028959D01*
X0066098Y0040770D02*
X0066100Y0040928D01*
X0066106Y0041086D01*
X0066116Y0041244D01*
X0066130Y0041402D01*
X0066148Y0041559D01*
X0066169Y0041716D01*
X0066195Y0041872D01*
X0066225Y0042028D01*
X0066258Y0042183D01*
X0066296Y0042336D01*
X0066337Y0042489D01*
X0066382Y0042641D01*
X0066431Y0042792D01*
X0066484Y0042941D01*
X0066540Y0043089D01*
X0066600Y0043235D01*
X0066664Y0043380D01*
X0066732Y0043523D01*
X0066803Y0043665D01*
X0066877Y0043805D01*
X0066955Y0043942D01*
X0067037Y0044078D01*
X0067121Y0044212D01*
X0067210Y0044343D01*
X0067301Y0044472D01*
X0067396Y0044599D01*
X0067493Y0044724D01*
X0067594Y0044846D01*
X0067698Y0044965D01*
X0067805Y0045082D01*
X0067915Y0045196D01*
X0068028Y0045307D01*
X0068143Y0045416D01*
X0068261Y0045521D01*
X0068382Y0045623D01*
X0068505Y0045723D01*
X0068631Y0045819D01*
X0068759Y0045912D01*
X0068889Y0046002D01*
X0069022Y0046088D01*
X0069157Y0046172D01*
X0069293Y0046251D01*
X0069432Y0046328D01*
X0069573Y0046400D01*
X0069715Y0046470D01*
X0069859Y0046535D01*
X0070005Y0046597D01*
X0070152Y0046655D01*
X0070301Y0046710D01*
X0070451Y0046761D01*
X0070602Y0046808D01*
X0070754Y0046851D01*
X0070907Y0046890D01*
X0071062Y0046926D01*
X0071217Y0046957D01*
X0071373Y0046985D01*
X0071529Y0047009D01*
X0071686Y0047029D01*
X0071844Y0047045D01*
X0072001Y0047057D01*
X0072160Y0047065D01*
X0072318Y0047069D01*
X0072476Y0047069D01*
X0072634Y0047065D01*
X0072793Y0047057D01*
X0072950Y0047045D01*
X0073108Y0047029D01*
X0073265Y0047009D01*
X0073421Y0046985D01*
X0073577Y0046957D01*
X0073732Y0046926D01*
X0073887Y0046890D01*
X0074040Y0046851D01*
X0074192Y0046808D01*
X0074343Y0046761D01*
X0074493Y0046710D01*
X0074642Y0046655D01*
X0074789Y0046597D01*
X0074935Y0046535D01*
X0075079Y0046470D01*
X0075221Y0046400D01*
X0075362Y0046328D01*
X0075501Y0046251D01*
X0075637Y0046172D01*
X0075772Y0046088D01*
X0075905Y0046002D01*
X0076035Y0045912D01*
X0076163Y0045819D01*
X0076289Y0045723D01*
X0076412Y0045623D01*
X0076533Y0045521D01*
X0076651Y0045416D01*
X0076766Y0045307D01*
X0076879Y0045196D01*
X0076989Y0045082D01*
X0077096Y0044965D01*
X0077200Y0044846D01*
X0077301Y0044724D01*
X0077398Y0044599D01*
X0077493Y0044472D01*
X0077584Y0044343D01*
X0077673Y0044212D01*
X0077757Y0044078D01*
X0077839Y0043942D01*
X0077917Y0043805D01*
X0077991Y0043665D01*
X0078062Y0043523D01*
X0078130Y0043380D01*
X0078194Y0043235D01*
X0078254Y0043089D01*
X0078310Y0042941D01*
X0078363Y0042792D01*
X0078412Y0042641D01*
X0078457Y0042489D01*
X0078498Y0042336D01*
X0078536Y0042183D01*
X0078569Y0042028D01*
X0078599Y0041872D01*
X0078625Y0041716D01*
X0078646Y0041559D01*
X0078664Y0041402D01*
X0078678Y0041244D01*
X0078688Y0041086D01*
X0078694Y0040928D01*
X0078696Y0040770D01*
X0078694Y0040612D01*
X0078688Y0040454D01*
X0078678Y0040296D01*
X0078664Y0040138D01*
X0078646Y0039981D01*
X0078625Y0039824D01*
X0078599Y0039668D01*
X0078569Y0039512D01*
X0078536Y0039357D01*
X0078498Y0039204D01*
X0078457Y0039051D01*
X0078412Y0038899D01*
X0078363Y0038748D01*
X0078310Y0038599D01*
X0078254Y0038451D01*
X0078194Y0038305D01*
X0078130Y0038160D01*
X0078062Y0038017D01*
X0077991Y0037875D01*
X0077917Y0037735D01*
X0077839Y0037598D01*
X0077757Y0037462D01*
X0077673Y0037328D01*
X0077584Y0037197D01*
X0077493Y0037068D01*
X0077398Y0036941D01*
X0077301Y0036816D01*
X0077200Y0036694D01*
X0077096Y0036575D01*
X0076989Y0036458D01*
X0076879Y0036344D01*
X0076766Y0036233D01*
X0076651Y0036124D01*
X0076533Y0036019D01*
X0076412Y0035917D01*
X0076289Y0035817D01*
X0076163Y0035721D01*
X0076035Y0035628D01*
X0075905Y0035538D01*
X0075772Y0035452D01*
X0075637Y0035368D01*
X0075501Y0035289D01*
X0075362Y0035212D01*
X0075221Y0035140D01*
X0075079Y0035070D01*
X0074935Y0035005D01*
X0074789Y0034943D01*
X0074642Y0034885D01*
X0074493Y0034830D01*
X0074343Y0034779D01*
X0074192Y0034732D01*
X0074040Y0034689D01*
X0073887Y0034650D01*
X0073732Y0034614D01*
X0073577Y0034583D01*
X0073421Y0034555D01*
X0073265Y0034531D01*
X0073108Y0034511D01*
X0072950Y0034495D01*
X0072793Y0034483D01*
X0072634Y0034475D01*
X0072476Y0034471D01*
X0072318Y0034471D01*
X0072160Y0034475D01*
X0072001Y0034483D01*
X0071844Y0034495D01*
X0071686Y0034511D01*
X0071529Y0034531D01*
X0071373Y0034555D01*
X0071217Y0034583D01*
X0071062Y0034614D01*
X0070907Y0034650D01*
X0070754Y0034689D01*
X0070602Y0034732D01*
X0070451Y0034779D01*
X0070301Y0034830D01*
X0070152Y0034885D01*
X0070005Y0034943D01*
X0069859Y0035005D01*
X0069715Y0035070D01*
X0069573Y0035140D01*
X0069432Y0035212D01*
X0069293Y0035289D01*
X0069157Y0035368D01*
X0069022Y0035452D01*
X0068889Y0035538D01*
X0068759Y0035628D01*
X0068631Y0035721D01*
X0068505Y0035817D01*
X0068382Y0035917D01*
X0068261Y0036019D01*
X0068143Y0036124D01*
X0068028Y0036233D01*
X0067915Y0036344D01*
X0067805Y0036458D01*
X0067698Y0036575D01*
X0067594Y0036694D01*
X0067493Y0036816D01*
X0067396Y0036941D01*
X0067301Y0037068D01*
X0067210Y0037197D01*
X0067121Y0037328D01*
X0067037Y0037462D01*
X0066955Y0037598D01*
X0066877Y0037735D01*
X0066803Y0037875D01*
X0066732Y0038017D01*
X0066664Y0038160D01*
X0066600Y0038305D01*
X0066540Y0038451D01*
X0066484Y0038599D01*
X0066431Y0038748D01*
X0066382Y0038899D01*
X0066337Y0039051D01*
X0066296Y0039204D01*
X0066258Y0039357D01*
X0066225Y0039512D01*
X0066195Y0039668D01*
X0066169Y0039824D01*
X0066148Y0039981D01*
X0066130Y0040138D01*
X0066116Y0040296D01*
X0066106Y0040454D01*
X0066100Y0040612D01*
X0066098Y0040770D01*
X0115901Y0067935D02*
X0115903Y0068050D01*
X0115909Y0068166D01*
X0115919Y0068281D01*
X0115933Y0068396D01*
X0115951Y0068510D01*
X0115973Y0068623D01*
X0115998Y0068736D01*
X0116028Y0068847D01*
X0116061Y0068958D01*
X0116098Y0069067D01*
X0116139Y0069175D01*
X0116184Y0069282D01*
X0116232Y0069387D01*
X0116284Y0069490D01*
X0116340Y0069591D01*
X0116399Y0069691D01*
X0116461Y0069788D01*
X0116527Y0069883D01*
X0116595Y0069976D01*
X0116667Y0070066D01*
X0116742Y0070154D01*
X0116821Y0070239D01*
X0116902Y0070321D01*
X0116985Y0070401D01*
X0117072Y0070477D01*
X0117161Y0070551D01*
X0117252Y0070621D01*
X0117346Y0070689D01*
X0117442Y0070753D01*
X0117541Y0070813D01*
X0117641Y0070870D01*
X0117743Y0070924D01*
X0117847Y0070974D01*
X0117953Y0071021D01*
X0118060Y0071064D01*
X0118169Y0071103D01*
X0118279Y0071138D01*
X0118390Y0071169D01*
X0118502Y0071197D01*
X0118615Y0071221D01*
X0118729Y0071241D01*
X0118844Y0071257D01*
X0118959Y0071269D01*
X0119074Y0071277D01*
X0119189Y0071281D01*
X0119305Y0071281D01*
X0119420Y0071277D01*
X0119535Y0071269D01*
X0119650Y0071257D01*
X0119765Y0071241D01*
X0119879Y0071221D01*
X0119992Y0071197D01*
X0120104Y0071169D01*
X0120215Y0071138D01*
X0120325Y0071103D01*
X0120434Y0071064D01*
X0120541Y0071021D01*
X0120647Y0070974D01*
X0120751Y0070924D01*
X0120853Y0070870D01*
X0120953Y0070813D01*
X0121052Y0070753D01*
X0121148Y0070689D01*
X0121242Y0070621D01*
X0121333Y0070551D01*
X0121422Y0070477D01*
X0121509Y0070401D01*
X0121592Y0070321D01*
X0121673Y0070239D01*
X0121752Y0070154D01*
X0121827Y0070066D01*
X0121899Y0069976D01*
X0121967Y0069883D01*
X0122033Y0069788D01*
X0122095Y0069691D01*
X0122154Y0069591D01*
X0122210Y0069490D01*
X0122262Y0069387D01*
X0122310Y0069282D01*
X0122355Y0069175D01*
X0122396Y0069067D01*
X0122433Y0068958D01*
X0122466Y0068847D01*
X0122496Y0068736D01*
X0122521Y0068623D01*
X0122543Y0068510D01*
X0122561Y0068396D01*
X0122575Y0068281D01*
X0122585Y0068166D01*
X0122591Y0068050D01*
X0122593Y0067935D01*
X0122591Y0067820D01*
X0122585Y0067704D01*
X0122575Y0067589D01*
X0122561Y0067474D01*
X0122543Y0067360D01*
X0122521Y0067247D01*
X0122496Y0067134D01*
X0122466Y0067023D01*
X0122433Y0066912D01*
X0122396Y0066803D01*
X0122355Y0066695D01*
X0122310Y0066588D01*
X0122262Y0066483D01*
X0122210Y0066380D01*
X0122154Y0066279D01*
X0122095Y0066179D01*
X0122033Y0066082D01*
X0121967Y0065987D01*
X0121899Y0065894D01*
X0121827Y0065804D01*
X0121752Y0065716D01*
X0121673Y0065631D01*
X0121592Y0065549D01*
X0121509Y0065469D01*
X0121422Y0065393D01*
X0121333Y0065319D01*
X0121242Y0065249D01*
X0121148Y0065181D01*
X0121052Y0065117D01*
X0120953Y0065057D01*
X0120853Y0065000D01*
X0120751Y0064946D01*
X0120647Y0064896D01*
X0120541Y0064849D01*
X0120434Y0064806D01*
X0120325Y0064767D01*
X0120215Y0064732D01*
X0120104Y0064701D01*
X0119992Y0064673D01*
X0119879Y0064649D01*
X0119765Y0064629D01*
X0119650Y0064613D01*
X0119535Y0064601D01*
X0119420Y0064593D01*
X0119305Y0064589D01*
X0119189Y0064589D01*
X0119074Y0064593D01*
X0118959Y0064601D01*
X0118844Y0064613D01*
X0118729Y0064629D01*
X0118615Y0064649D01*
X0118502Y0064673D01*
X0118390Y0064701D01*
X0118279Y0064732D01*
X0118169Y0064767D01*
X0118060Y0064806D01*
X0117953Y0064849D01*
X0117847Y0064896D01*
X0117743Y0064946D01*
X0117641Y0065000D01*
X0117541Y0065057D01*
X0117442Y0065117D01*
X0117346Y0065181D01*
X0117252Y0065249D01*
X0117161Y0065319D01*
X0117072Y0065393D01*
X0116985Y0065469D01*
X0116902Y0065549D01*
X0116821Y0065631D01*
X0116742Y0065716D01*
X0116667Y0065804D01*
X0116595Y0065894D01*
X0116527Y0065987D01*
X0116461Y0066082D01*
X0116399Y0066179D01*
X0116340Y0066279D01*
X0116284Y0066380D01*
X0116232Y0066483D01*
X0116184Y0066588D01*
X0116139Y0066695D01*
X0116098Y0066803D01*
X0116061Y0066912D01*
X0116028Y0067023D01*
X0115998Y0067134D01*
X0115973Y0067247D01*
X0115951Y0067360D01*
X0115933Y0067474D01*
X0115919Y0067589D01*
X0115909Y0067704D01*
X0115903Y0067820D01*
X0115901Y0067935D01*
X0117082Y0080928D02*
X0117084Y0081021D01*
X0117090Y0081113D01*
X0117100Y0081205D01*
X0117114Y0081296D01*
X0117131Y0081387D01*
X0117153Y0081477D01*
X0117178Y0081566D01*
X0117207Y0081654D01*
X0117240Y0081740D01*
X0117277Y0081825D01*
X0117317Y0081909D01*
X0117361Y0081990D01*
X0117408Y0082070D01*
X0117458Y0082148D01*
X0117512Y0082223D01*
X0117569Y0082296D01*
X0117629Y0082366D01*
X0117692Y0082434D01*
X0117758Y0082499D01*
X0117826Y0082561D01*
X0117897Y0082621D01*
X0117971Y0082677D01*
X0118047Y0082730D01*
X0118125Y0082779D01*
X0118205Y0082826D01*
X0118287Y0082868D01*
X0118371Y0082908D01*
X0118456Y0082943D01*
X0118543Y0082975D01*
X0118631Y0083004D01*
X0118720Y0083028D01*
X0118810Y0083049D01*
X0118901Y0083065D01*
X0118993Y0083078D01*
X0119085Y0083087D01*
X0119178Y0083092D01*
X0119270Y0083093D01*
X0119363Y0083090D01*
X0119455Y0083083D01*
X0119547Y0083072D01*
X0119638Y0083057D01*
X0119729Y0083039D01*
X0119819Y0083016D01*
X0119907Y0082990D01*
X0119995Y0082960D01*
X0120081Y0082926D01*
X0120165Y0082889D01*
X0120248Y0082847D01*
X0120329Y0082803D01*
X0120409Y0082755D01*
X0120486Y0082704D01*
X0120560Y0082649D01*
X0120633Y0082591D01*
X0120703Y0082531D01*
X0120770Y0082467D01*
X0120834Y0082401D01*
X0120896Y0082331D01*
X0120954Y0082260D01*
X0121009Y0082186D01*
X0121061Y0082109D01*
X0121110Y0082030D01*
X0121156Y0081950D01*
X0121198Y0081867D01*
X0121236Y0081783D01*
X0121271Y0081697D01*
X0121302Y0081610D01*
X0121329Y0081522D01*
X0121352Y0081432D01*
X0121372Y0081342D01*
X0121388Y0081251D01*
X0121400Y0081159D01*
X0121408Y0081067D01*
X0121412Y0080974D01*
X0121412Y0080882D01*
X0121408Y0080789D01*
X0121400Y0080697D01*
X0121388Y0080605D01*
X0121372Y0080514D01*
X0121352Y0080424D01*
X0121329Y0080334D01*
X0121302Y0080246D01*
X0121271Y0080159D01*
X0121236Y0080073D01*
X0121198Y0079989D01*
X0121156Y0079906D01*
X0121110Y0079826D01*
X0121061Y0079747D01*
X0121009Y0079670D01*
X0120954Y0079596D01*
X0120896Y0079525D01*
X0120834Y0079455D01*
X0120770Y0079389D01*
X0120703Y0079325D01*
X0120633Y0079265D01*
X0120560Y0079207D01*
X0120486Y0079152D01*
X0120409Y0079101D01*
X0120330Y0079053D01*
X0120248Y0079009D01*
X0120165Y0078967D01*
X0120081Y0078930D01*
X0119995Y0078896D01*
X0119907Y0078866D01*
X0119819Y0078840D01*
X0119729Y0078817D01*
X0119638Y0078799D01*
X0119547Y0078784D01*
X0119455Y0078773D01*
X0119363Y0078766D01*
X0119270Y0078763D01*
X0119178Y0078764D01*
X0119085Y0078769D01*
X0118993Y0078778D01*
X0118901Y0078791D01*
X0118810Y0078807D01*
X0118720Y0078828D01*
X0118631Y0078852D01*
X0118543Y0078881D01*
X0118456Y0078913D01*
X0118371Y0078948D01*
X0118287Y0078988D01*
X0118205Y0079030D01*
X0118125Y0079077D01*
X0118047Y0079126D01*
X0117971Y0079179D01*
X0117897Y0079235D01*
X0117826Y0079295D01*
X0117758Y0079357D01*
X0117692Y0079422D01*
X0117629Y0079490D01*
X0117569Y0079560D01*
X0117512Y0079633D01*
X0117458Y0079708D01*
X0117408Y0079786D01*
X0117361Y0079866D01*
X0117317Y0079947D01*
X0117277Y0080031D01*
X0117240Y0080116D01*
X0117207Y0080202D01*
X0117178Y0080290D01*
X0117153Y0080379D01*
X0117131Y0080469D01*
X0117114Y0080560D01*
X0117100Y0080651D01*
X0117090Y0080743D01*
X0117084Y0080835D01*
X0117082Y0080928D01*
X0193460Y0070101D02*
X0196216Y0070101D01*
X0196308Y0070095D01*
X0196399Y0070085D01*
X0196490Y0070071D01*
X0196580Y0070053D01*
X0196669Y0070032D01*
X0196758Y0070006D01*
X0196845Y0069977D01*
X0196931Y0069945D01*
X0197015Y0069909D01*
X0197098Y0069869D01*
X0197179Y0069826D01*
X0197258Y0069779D01*
X0197335Y0069729D01*
X0197410Y0069676D01*
X0197483Y0069619D01*
X0197553Y0069560D01*
X0197620Y0069498D01*
X0197685Y0069433D01*
X0197747Y0069365D01*
X0197807Y0069295D01*
X0197863Y0069222D01*
X0197916Y0069147D01*
X0197965Y0069070D01*
X0198012Y0068991D01*
X0198055Y0068909D01*
X0198094Y0068826D01*
X0198130Y0068742D01*
X0198163Y0068656D01*
X0198191Y0068569D01*
X0198216Y0068480D01*
X0198238Y0068391D01*
X0198255Y0068301D01*
X0198269Y0068210D01*
X0198278Y0068119D01*
X0198284Y0068027D01*
X0198286Y0067935D01*
X0198284Y0067843D01*
X0198278Y0067751D01*
X0198269Y0067660D01*
X0198255Y0067569D01*
X0198238Y0067479D01*
X0198216Y0067390D01*
X0198191Y0067301D01*
X0198163Y0067214D01*
X0198130Y0067128D01*
X0198094Y0067044D01*
X0198055Y0066961D01*
X0198012Y0066879D01*
X0197965Y0066800D01*
X0197916Y0066723D01*
X0197863Y0066648D01*
X0197807Y0066575D01*
X0197747Y0066505D01*
X0197685Y0066437D01*
X0197620Y0066372D01*
X0197553Y0066310D01*
X0197483Y0066251D01*
X0197410Y0066194D01*
X0197335Y0066141D01*
X0197258Y0066091D01*
X0197179Y0066044D01*
X0197098Y0066001D01*
X0197015Y0065961D01*
X0196931Y0065925D01*
X0196845Y0065893D01*
X0196758Y0065864D01*
X0196669Y0065838D01*
X0196580Y0065817D01*
X0196490Y0065799D01*
X0196399Y0065785D01*
X0196308Y0065775D01*
X0196216Y0065769D01*
X0196216Y0065770D02*
X0193460Y0065770D01*
X0193368Y0065772D01*
X0193276Y0065778D01*
X0193185Y0065788D01*
X0193094Y0065801D01*
X0193004Y0065819D01*
X0192914Y0065840D01*
X0192826Y0065865D01*
X0192739Y0065894D01*
X0192653Y0065926D01*
X0192568Y0065962D01*
X0192485Y0066002D01*
X0192404Y0066045D01*
X0192325Y0066091D01*
X0192248Y0066141D01*
X0192173Y0066194D01*
X0192100Y0066251D01*
X0192030Y0066310D01*
X0191962Y0066372D01*
X0191897Y0066437D01*
X0191835Y0066505D01*
X0191776Y0066575D01*
X0191719Y0066648D01*
X0191666Y0066723D01*
X0191616Y0066800D01*
X0191570Y0066879D01*
X0191527Y0066960D01*
X0191487Y0067043D01*
X0191451Y0067128D01*
X0191419Y0067214D01*
X0191390Y0067301D01*
X0191365Y0067389D01*
X0191344Y0067479D01*
X0191326Y0067569D01*
X0191313Y0067660D01*
X0191303Y0067751D01*
X0191297Y0067843D01*
X0191295Y0067935D01*
X0191297Y0068027D01*
X0191303Y0068119D01*
X0191313Y0068210D01*
X0191326Y0068301D01*
X0191344Y0068391D01*
X0191365Y0068481D01*
X0191390Y0068569D01*
X0191419Y0068656D01*
X0191451Y0068742D01*
X0191487Y0068827D01*
X0191527Y0068910D01*
X0191570Y0068991D01*
X0191616Y0069070D01*
X0191666Y0069147D01*
X0191719Y0069222D01*
X0191776Y0069295D01*
X0191835Y0069365D01*
X0191897Y0069433D01*
X0191962Y0069498D01*
X0192030Y0069560D01*
X0192100Y0069619D01*
X0192173Y0069676D01*
X0192248Y0069729D01*
X0192325Y0069779D01*
X0192404Y0069825D01*
X0192485Y0069868D01*
X0192568Y0069908D01*
X0192653Y0069944D01*
X0192739Y0069976D01*
X0192826Y0070005D01*
X0192914Y0070030D01*
X0193004Y0070051D01*
X0193094Y0070069D01*
X0193185Y0070082D01*
X0193276Y0070092D01*
X0193368Y0070098D01*
X0193460Y0070100D01*
X0191492Y0080928D02*
X0191494Y0081043D01*
X0191500Y0081159D01*
X0191510Y0081274D01*
X0191524Y0081389D01*
X0191542Y0081503D01*
X0191564Y0081616D01*
X0191589Y0081729D01*
X0191619Y0081840D01*
X0191652Y0081951D01*
X0191689Y0082060D01*
X0191730Y0082168D01*
X0191775Y0082275D01*
X0191823Y0082380D01*
X0191875Y0082483D01*
X0191931Y0082584D01*
X0191990Y0082684D01*
X0192052Y0082781D01*
X0192118Y0082876D01*
X0192186Y0082969D01*
X0192258Y0083059D01*
X0192333Y0083147D01*
X0192412Y0083232D01*
X0192493Y0083314D01*
X0192576Y0083394D01*
X0192663Y0083470D01*
X0192752Y0083544D01*
X0192843Y0083614D01*
X0192937Y0083682D01*
X0193033Y0083746D01*
X0193132Y0083806D01*
X0193232Y0083863D01*
X0193334Y0083917D01*
X0193438Y0083967D01*
X0193544Y0084014D01*
X0193651Y0084057D01*
X0193760Y0084096D01*
X0193870Y0084131D01*
X0193981Y0084162D01*
X0194093Y0084190D01*
X0194206Y0084214D01*
X0194320Y0084234D01*
X0194435Y0084250D01*
X0194550Y0084262D01*
X0194665Y0084270D01*
X0194780Y0084274D01*
X0194896Y0084274D01*
X0195011Y0084270D01*
X0195126Y0084262D01*
X0195241Y0084250D01*
X0195356Y0084234D01*
X0195470Y0084214D01*
X0195583Y0084190D01*
X0195695Y0084162D01*
X0195806Y0084131D01*
X0195916Y0084096D01*
X0196025Y0084057D01*
X0196132Y0084014D01*
X0196238Y0083967D01*
X0196342Y0083917D01*
X0196444Y0083863D01*
X0196544Y0083806D01*
X0196643Y0083746D01*
X0196739Y0083682D01*
X0196833Y0083614D01*
X0196924Y0083544D01*
X0197013Y0083470D01*
X0197100Y0083394D01*
X0197183Y0083314D01*
X0197264Y0083232D01*
X0197343Y0083147D01*
X0197418Y0083059D01*
X0197490Y0082969D01*
X0197558Y0082876D01*
X0197624Y0082781D01*
X0197686Y0082684D01*
X0197745Y0082584D01*
X0197801Y0082483D01*
X0197853Y0082380D01*
X0197901Y0082275D01*
X0197946Y0082168D01*
X0197987Y0082060D01*
X0198024Y0081951D01*
X0198057Y0081840D01*
X0198087Y0081729D01*
X0198112Y0081616D01*
X0198134Y0081503D01*
X0198152Y0081389D01*
X0198166Y0081274D01*
X0198176Y0081159D01*
X0198182Y0081043D01*
X0198184Y0080928D01*
X0198182Y0080813D01*
X0198176Y0080697D01*
X0198166Y0080582D01*
X0198152Y0080467D01*
X0198134Y0080353D01*
X0198112Y0080240D01*
X0198087Y0080127D01*
X0198057Y0080016D01*
X0198024Y0079905D01*
X0197987Y0079796D01*
X0197946Y0079688D01*
X0197901Y0079581D01*
X0197853Y0079476D01*
X0197801Y0079373D01*
X0197745Y0079272D01*
X0197686Y0079172D01*
X0197624Y0079075D01*
X0197558Y0078980D01*
X0197490Y0078887D01*
X0197418Y0078797D01*
X0197343Y0078709D01*
X0197264Y0078624D01*
X0197183Y0078542D01*
X0197100Y0078462D01*
X0197013Y0078386D01*
X0196924Y0078312D01*
X0196833Y0078242D01*
X0196739Y0078174D01*
X0196643Y0078110D01*
X0196544Y0078050D01*
X0196444Y0077993D01*
X0196342Y0077939D01*
X0196238Y0077889D01*
X0196132Y0077842D01*
X0196025Y0077799D01*
X0195916Y0077760D01*
X0195806Y0077725D01*
X0195695Y0077694D01*
X0195583Y0077666D01*
X0195470Y0077642D01*
X0195356Y0077622D01*
X0195241Y0077606D01*
X0195126Y0077594D01*
X0195011Y0077586D01*
X0194896Y0077582D01*
X0194780Y0077582D01*
X0194665Y0077586D01*
X0194550Y0077594D01*
X0194435Y0077606D01*
X0194320Y0077622D01*
X0194206Y0077642D01*
X0194093Y0077666D01*
X0193981Y0077694D01*
X0193870Y0077725D01*
X0193760Y0077760D01*
X0193651Y0077799D01*
X0193544Y0077842D01*
X0193438Y0077889D01*
X0193334Y0077939D01*
X0193232Y0077993D01*
X0193132Y0078050D01*
X0193033Y0078110D01*
X0192937Y0078174D01*
X0192843Y0078242D01*
X0192752Y0078312D01*
X0192663Y0078386D01*
X0192576Y0078462D01*
X0192493Y0078542D01*
X0192412Y0078624D01*
X0192333Y0078709D01*
X0192258Y0078797D01*
X0192186Y0078887D01*
X0192118Y0078980D01*
X0192052Y0079075D01*
X0191990Y0079172D01*
X0191931Y0079272D01*
X0191875Y0079373D01*
X0191823Y0079476D01*
X0191775Y0079581D01*
X0191730Y0079688D01*
X0191689Y0079796D01*
X0191652Y0079905D01*
X0191619Y0080016D01*
X0191589Y0080127D01*
X0191564Y0080240D01*
X0191542Y0080353D01*
X0191524Y0080467D01*
X0191510Y0080582D01*
X0191500Y0080697D01*
X0191494Y0080813D01*
X0191492Y0080928D01*
X0066098Y0174628D02*
X0066100Y0174786D01*
X0066106Y0174944D01*
X0066116Y0175102D01*
X0066130Y0175260D01*
X0066148Y0175417D01*
X0066169Y0175574D01*
X0066195Y0175730D01*
X0066225Y0175886D01*
X0066258Y0176041D01*
X0066296Y0176194D01*
X0066337Y0176347D01*
X0066382Y0176499D01*
X0066431Y0176650D01*
X0066484Y0176799D01*
X0066540Y0176947D01*
X0066600Y0177093D01*
X0066664Y0177238D01*
X0066732Y0177381D01*
X0066803Y0177523D01*
X0066877Y0177663D01*
X0066955Y0177800D01*
X0067037Y0177936D01*
X0067121Y0178070D01*
X0067210Y0178201D01*
X0067301Y0178330D01*
X0067396Y0178457D01*
X0067493Y0178582D01*
X0067594Y0178704D01*
X0067698Y0178823D01*
X0067805Y0178940D01*
X0067915Y0179054D01*
X0068028Y0179165D01*
X0068143Y0179274D01*
X0068261Y0179379D01*
X0068382Y0179481D01*
X0068505Y0179581D01*
X0068631Y0179677D01*
X0068759Y0179770D01*
X0068889Y0179860D01*
X0069022Y0179946D01*
X0069157Y0180030D01*
X0069293Y0180109D01*
X0069432Y0180186D01*
X0069573Y0180258D01*
X0069715Y0180328D01*
X0069859Y0180393D01*
X0070005Y0180455D01*
X0070152Y0180513D01*
X0070301Y0180568D01*
X0070451Y0180619D01*
X0070602Y0180666D01*
X0070754Y0180709D01*
X0070907Y0180748D01*
X0071062Y0180784D01*
X0071217Y0180815D01*
X0071373Y0180843D01*
X0071529Y0180867D01*
X0071686Y0180887D01*
X0071844Y0180903D01*
X0072001Y0180915D01*
X0072160Y0180923D01*
X0072318Y0180927D01*
X0072476Y0180927D01*
X0072634Y0180923D01*
X0072793Y0180915D01*
X0072950Y0180903D01*
X0073108Y0180887D01*
X0073265Y0180867D01*
X0073421Y0180843D01*
X0073577Y0180815D01*
X0073732Y0180784D01*
X0073887Y0180748D01*
X0074040Y0180709D01*
X0074192Y0180666D01*
X0074343Y0180619D01*
X0074493Y0180568D01*
X0074642Y0180513D01*
X0074789Y0180455D01*
X0074935Y0180393D01*
X0075079Y0180328D01*
X0075221Y0180258D01*
X0075362Y0180186D01*
X0075501Y0180109D01*
X0075637Y0180030D01*
X0075772Y0179946D01*
X0075905Y0179860D01*
X0076035Y0179770D01*
X0076163Y0179677D01*
X0076289Y0179581D01*
X0076412Y0179481D01*
X0076533Y0179379D01*
X0076651Y0179274D01*
X0076766Y0179165D01*
X0076879Y0179054D01*
X0076989Y0178940D01*
X0077096Y0178823D01*
X0077200Y0178704D01*
X0077301Y0178582D01*
X0077398Y0178457D01*
X0077493Y0178330D01*
X0077584Y0178201D01*
X0077673Y0178070D01*
X0077757Y0177936D01*
X0077839Y0177800D01*
X0077917Y0177663D01*
X0077991Y0177523D01*
X0078062Y0177381D01*
X0078130Y0177238D01*
X0078194Y0177093D01*
X0078254Y0176947D01*
X0078310Y0176799D01*
X0078363Y0176650D01*
X0078412Y0176499D01*
X0078457Y0176347D01*
X0078498Y0176194D01*
X0078536Y0176041D01*
X0078569Y0175886D01*
X0078599Y0175730D01*
X0078625Y0175574D01*
X0078646Y0175417D01*
X0078664Y0175260D01*
X0078678Y0175102D01*
X0078688Y0174944D01*
X0078694Y0174786D01*
X0078696Y0174628D01*
X0078694Y0174470D01*
X0078688Y0174312D01*
X0078678Y0174154D01*
X0078664Y0173996D01*
X0078646Y0173839D01*
X0078625Y0173682D01*
X0078599Y0173526D01*
X0078569Y0173370D01*
X0078536Y0173215D01*
X0078498Y0173062D01*
X0078457Y0172909D01*
X0078412Y0172757D01*
X0078363Y0172606D01*
X0078310Y0172457D01*
X0078254Y0172309D01*
X0078194Y0172163D01*
X0078130Y0172018D01*
X0078062Y0171875D01*
X0077991Y0171733D01*
X0077917Y0171593D01*
X0077839Y0171456D01*
X0077757Y0171320D01*
X0077673Y0171186D01*
X0077584Y0171055D01*
X0077493Y0170926D01*
X0077398Y0170799D01*
X0077301Y0170674D01*
X0077200Y0170552D01*
X0077096Y0170433D01*
X0076989Y0170316D01*
X0076879Y0170202D01*
X0076766Y0170091D01*
X0076651Y0169982D01*
X0076533Y0169877D01*
X0076412Y0169775D01*
X0076289Y0169675D01*
X0076163Y0169579D01*
X0076035Y0169486D01*
X0075905Y0169396D01*
X0075772Y0169310D01*
X0075637Y0169226D01*
X0075501Y0169147D01*
X0075362Y0169070D01*
X0075221Y0168998D01*
X0075079Y0168928D01*
X0074935Y0168863D01*
X0074789Y0168801D01*
X0074642Y0168743D01*
X0074493Y0168688D01*
X0074343Y0168637D01*
X0074192Y0168590D01*
X0074040Y0168547D01*
X0073887Y0168508D01*
X0073732Y0168472D01*
X0073577Y0168441D01*
X0073421Y0168413D01*
X0073265Y0168389D01*
X0073108Y0168369D01*
X0072950Y0168353D01*
X0072793Y0168341D01*
X0072634Y0168333D01*
X0072476Y0168329D01*
X0072318Y0168329D01*
X0072160Y0168333D01*
X0072001Y0168341D01*
X0071844Y0168353D01*
X0071686Y0168369D01*
X0071529Y0168389D01*
X0071373Y0168413D01*
X0071217Y0168441D01*
X0071062Y0168472D01*
X0070907Y0168508D01*
X0070754Y0168547D01*
X0070602Y0168590D01*
X0070451Y0168637D01*
X0070301Y0168688D01*
X0070152Y0168743D01*
X0070005Y0168801D01*
X0069859Y0168863D01*
X0069715Y0168928D01*
X0069573Y0168998D01*
X0069432Y0169070D01*
X0069293Y0169147D01*
X0069157Y0169226D01*
X0069022Y0169310D01*
X0068889Y0169396D01*
X0068759Y0169486D01*
X0068631Y0169579D01*
X0068505Y0169675D01*
X0068382Y0169775D01*
X0068261Y0169877D01*
X0068143Y0169982D01*
X0068028Y0170091D01*
X0067915Y0170202D01*
X0067805Y0170316D01*
X0067698Y0170433D01*
X0067594Y0170552D01*
X0067493Y0170674D01*
X0067396Y0170799D01*
X0067301Y0170926D01*
X0067210Y0171055D01*
X0067121Y0171186D01*
X0067037Y0171320D01*
X0066955Y0171456D01*
X0066877Y0171593D01*
X0066803Y0171733D01*
X0066732Y0171875D01*
X0066664Y0172018D01*
X0066600Y0172163D01*
X0066540Y0172309D01*
X0066484Y0172457D01*
X0066431Y0172606D01*
X0066382Y0172757D01*
X0066337Y0172909D01*
X0066296Y0173062D01*
X0066258Y0173215D01*
X0066225Y0173370D01*
X0066195Y0173526D01*
X0066169Y0173682D01*
X0066148Y0173839D01*
X0066130Y0173996D01*
X0066116Y0174154D01*
X0066106Y0174312D01*
X0066100Y0174470D01*
X0066098Y0174628D01*
X0532436Y0054550D02*
X0532438Y0054651D01*
X0532444Y0054752D01*
X0532454Y0054853D01*
X0532468Y0054953D01*
X0532486Y0055052D01*
X0532508Y0055151D01*
X0532533Y0055249D01*
X0532563Y0055346D01*
X0532596Y0055441D01*
X0532633Y0055535D01*
X0532674Y0055628D01*
X0532718Y0055719D01*
X0532766Y0055808D01*
X0532818Y0055895D01*
X0532873Y0055980D01*
X0532931Y0056062D01*
X0532992Y0056143D01*
X0533057Y0056221D01*
X0533124Y0056296D01*
X0533194Y0056368D01*
X0533268Y0056438D01*
X0533344Y0056505D01*
X0533422Y0056569D01*
X0533503Y0056629D01*
X0533586Y0056686D01*
X0533672Y0056740D01*
X0533760Y0056791D01*
X0533849Y0056838D01*
X0533940Y0056882D01*
X0534033Y0056921D01*
X0534128Y0056958D01*
X0534223Y0056990D01*
X0534320Y0057019D01*
X0534419Y0057043D01*
X0534517Y0057064D01*
X0534617Y0057081D01*
X0534717Y0057094D01*
X0534818Y0057103D01*
X0534919Y0057108D01*
X0535020Y0057109D01*
X0535121Y0057106D01*
X0535222Y0057099D01*
X0535323Y0057088D01*
X0535423Y0057073D01*
X0535522Y0057054D01*
X0535621Y0057031D01*
X0535718Y0057005D01*
X0535815Y0056974D01*
X0535910Y0056940D01*
X0536003Y0056902D01*
X0536096Y0056860D01*
X0536186Y0056815D01*
X0536275Y0056766D01*
X0536361Y0056714D01*
X0536445Y0056658D01*
X0536528Y0056599D01*
X0536607Y0056537D01*
X0536685Y0056472D01*
X0536759Y0056404D01*
X0536831Y0056332D01*
X0536900Y0056259D01*
X0536966Y0056182D01*
X0537029Y0056103D01*
X0537089Y0056021D01*
X0537145Y0055937D01*
X0537198Y0055851D01*
X0537248Y0055763D01*
X0537294Y0055673D01*
X0537337Y0055582D01*
X0537376Y0055488D01*
X0537411Y0055393D01*
X0537442Y0055297D01*
X0537470Y0055200D01*
X0537494Y0055102D01*
X0537514Y0055003D01*
X0537530Y0054903D01*
X0537542Y0054802D01*
X0537550Y0054702D01*
X0537554Y0054601D01*
X0537554Y0054499D01*
X0537550Y0054398D01*
X0537542Y0054298D01*
X0537530Y0054197D01*
X0537514Y0054097D01*
X0537494Y0053998D01*
X0537470Y0053900D01*
X0537442Y0053803D01*
X0537411Y0053707D01*
X0537376Y0053612D01*
X0537337Y0053518D01*
X0537294Y0053427D01*
X0537248Y0053337D01*
X0537198Y0053249D01*
X0537145Y0053163D01*
X0537089Y0053079D01*
X0537029Y0052997D01*
X0536966Y0052918D01*
X0536900Y0052841D01*
X0536831Y0052768D01*
X0536759Y0052696D01*
X0536685Y0052628D01*
X0536607Y0052563D01*
X0536528Y0052501D01*
X0536445Y0052442D01*
X0536361Y0052386D01*
X0536274Y0052334D01*
X0536186Y0052285D01*
X0536096Y0052240D01*
X0536003Y0052198D01*
X0535910Y0052160D01*
X0535815Y0052126D01*
X0535718Y0052095D01*
X0535621Y0052069D01*
X0535522Y0052046D01*
X0535423Y0052027D01*
X0535323Y0052012D01*
X0535222Y0052001D01*
X0535121Y0051994D01*
X0535020Y0051991D01*
X0534919Y0051992D01*
X0534818Y0051997D01*
X0534717Y0052006D01*
X0534617Y0052019D01*
X0534517Y0052036D01*
X0534419Y0052057D01*
X0534320Y0052081D01*
X0534223Y0052110D01*
X0534128Y0052142D01*
X0534033Y0052179D01*
X0533940Y0052218D01*
X0533849Y0052262D01*
X0533760Y0052309D01*
X0533672Y0052360D01*
X0533586Y0052414D01*
X0533503Y0052471D01*
X0533422Y0052531D01*
X0533344Y0052595D01*
X0533268Y0052662D01*
X0533194Y0052732D01*
X0533124Y0052804D01*
X0533057Y0052879D01*
X0532992Y0052957D01*
X0532931Y0053038D01*
X0532873Y0053120D01*
X0532818Y0053205D01*
X0532766Y0053292D01*
X0532718Y0053381D01*
X0532674Y0053472D01*
X0532633Y0053565D01*
X0532596Y0053659D01*
X0532563Y0053754D01*
X0532533Y0053851D01*
X0532508Y0053949D01*
X0532486Y0054048D01*
X0532468Y0054147D01*
X0532454Y0054247D01*
X0532444Y0054348D01*
X0532438Y0054449D01*
X0532436Y0054550D01*
X0559995Y0054550D02*
X0559997Y0054651D01*
X0560003Y0054752D01*
X0560013Y0054853D01*
X0560027Y0054953D01*
X0560045Y0055052D01*
X0560067Y0055151D01*
X0560092Y0055249D01*
X0560122Y0055346D01*
X0560155Y0055441D01*
X0560192Y0055535D01*
X0560233Y0055628D01*
X0560277Y0055719D01*
X0560325Y0055808D01*
X0560377Y0055895D01*
X0560432Y0055980D01*
X0560490Y0056062D01*
X0560551Y0056143D01*
X0560616Y0056221D01*
X0560683Y0056296D01*
X0560753Y0056368D01*
X0560827Y0056438D01*
X0560903Y0056505D01*
X0560981Y0056569D01*
X0561062Y0056629D01*
X0561145Y0056686D01*
X0561231Y0056740D01*
X0561319Y0056791D01*
X0561408Y0056838D01*
X0561499Y0056882D01*
X0561592Y0056921D01*
X0561687Y0056958D01*
X0561782Y0056990D01*
X0561879Y0057019D01*
X0561978Y0057043D01*
X0562076Y0057064D01*
X0562176Y0057081D01*
X0562276Y0057094D01*
X0562377Y0057103D01*
X0562478Y0057108D01*
X0562579Y0057109D01*
X0562680Y0057106D01*
X0562781Y0057099D01*
X0562882Y0057088D01*
X0562982Y0057073D01*
X0563081Y0057054D01*
X0563180Y0057031D01*
X0563277Y0057005D01*
X0563374Y0056974D01*
X0563469Y0056940D01*
X0563562Y0056902D01*
X0563655Y0056860D01*
X0563745Y0056815D01*
X0563834Y0056766D01*
X0563920Y0056714D01*
X0564004Y0056658D01*
X0564087Y0056599D01*
X0564166Y0056537D01*
X0564244Y0056472D01*
X0564318Y0056404D01*
X0564390Y0056332D01*
X0564459Y0056259D01*
X0564525Y0056182D01*
X0564588Y0056103D01*
X0564648Y0056021D01*
X0564704Y0055937D01*
X0564757Y0055851D01*
X0564807Y0055763D01*
X0564853Y0055673D01*
X0564896Y0055582D01*
X0564935Y0055488D01*
X0564970Y0055393D01*
X0565001Y0055297D01*
X0565029Y0055200D01*
X0565053Y0055102D01*
X0565073Y0055003D01*
X0565089Y0054903D01*
X0565101Y0054802D01*
X0565109Y0054702D01*
X0565113Y0054601D01*
X0565113Y0054499D01*
X0565109Y0054398D01*
X0565101Y0054298D01*
X0565089Y0054197D01*
X0565073Y0054097D01*
X0565053Y0053998D01*
X0565029Y0053900D01*
X0565001Y0053803D01*
X0564970Y0053707D01*
X0564935Y0053612D01*
X0564896Y0053518D01*
X0564853Y0053427D01*
X0564807Y0053337D01*
X0564757Y0053249D01*
X0564704Y0053163D01*
X0564648Y0053079D01*
X0564588Y0052997D01*
X0564525Y0052918D01*
X0564459Y0052841D01*
X0564390Y0052768D01*
X0564318Y0052696D01*
X0564244Y0052628D01*
X0564166Y0052563D01*
X0564087Y0052501D01*
X0564004Y0052442D01*
X0563920Y0052386D01*
X0563833Y0052334D01*
X0563745Y0052285D01*
X0563655Y0052240D01*
X0563562Y0052198D01*
X0563469Y0052160D01*
X0563374Y0052126D01*
X0563277Y0052095D01*
X0563180Y0052069D01*
X0563081Y0052046D01*
X0562982Y0052027D01*
X0562882Y0052012D01*
X0562781Y0052001D01*
X0562680Y0051994D01*
X0562579Y0051991D01*
X0562478Y0051992D01*
X0562377Y0051997D01*
X0562276Y0052006D01*
X0562176Y0052019D01*
X0562076Y0052036D01*
X0561978Y0052057D01*
X0561879Y0052081D01*
X0561782Y0052110D01*
X0561687Y0052142D01*
X0561592Y0052179D01*
X0561499Y0052218D01*
X0561408Y0052262D01*
X0561319Y0052309D01*
X0561231Y0052360D01*
X0561145Y0052414D01*
X0561062Y0052471D01*
X0560981Y0052531D01*
X0560903Y0052595D01*
X0560827Y0052662D01*
X0560753Y0052732D01*
X0560683Y0052804D01*
X0560616Y0052879D01*
X0560551Y0052957D01*
X0560490Y0053038D01*
X0560432Y0053120D01*
X0560377Y0053205D01*
X0560325Y0053292D01*
X0560277Y0053381D01*
X0560233Y0053472D01*
X0560192Y0053565D01*
X0560155Y0053659D01*
X0560122Y0053754D01*
X0560092Y0053851D01*
X0560067Y0053949D01*
X0560045Y0054048D01*
X0560027Y0054147D01*
X0560013Y0054247D01*
X0560003Y0054348D01*
X0559997Y0054449D01*
X0559995Y0054550D01*
X0575743Y0054550D02*
X0575745Y0054651D01*
X0575751Y0054752D01*
X0575761Y0054853D01*
X0575775Y0054953D01*
X0575793Y0055052D01*
X0575815Y0055151D01*
X0575840Y0055249D01*
X0575870Y0055346D01*
X0575903Y0055441D01*
X0575940Y0055535D01*
X0575981Y0055628D01*
X0576025Y0055719D01*
X0576073Y0055808D01*
X0576125Y0055895D01*
X0576180Y0055980D01*
X0576238Y0056062D01*
X0576299Y0056143D01*
X0576364Y0056221D01*
X0576431Y0056296D01*
X0576501Y0056368D01*
X0576575Y0056438D01*
X0576651Y0056505D01*
X0576729Y0056569D01*
X0576810Y0056629D01*
X0576893Y0056686D01*
X0576979Y0056740D01*
X0577067Y0056791D01*
X0577156Y0056838D01*
X0577247Y0056882D01*
X0577340Y0056921D01*
X0577435Y0056958D01*
X0577530Y0056990D01*
X0577627Y0057019D01*
X0577726Y0057043D01*
X0577824Y0057064D01*
X0577924Y0057081D01*
X0578024Y0057094D01*
X0578125Y0057103D01*
X0578226Y0057108D01*
X0578327Y0057109D01*
X0578428Y0057106D01*
X0578529Y0057099D01*
X0578630Y0057088D01*
X0578730Y0057073D01*
X0578829Y0057054D01*
X0578928Y0057031D01*
X0579025Y0057005D01*
X0579122Y0056974D01*
X0579217Y0056940D01*
X0579310Y0056902D01*
X0579403Y0056860D01*
X0579493Y0056815D01*
X0579582Y0056766D01*
X0579668Y0056714D01*
X0579752Y0056658D01*
X0579835Y0056599D01*
X0579914Y0056537D01*
X0579992Y0056472D01*
X0580066Y0056404D01*
X0580138Y0056332D01*
X0580207Y0056259D01*
X0580273Y0056182D01*
X0580336Y0056103D01*
X0580396Y0056021D01*
X0580452Y0055937D01*
X0580505Y0055851D01*
X0580555Y0055763D01*
X0580601Y0055673D01*
X0580644Y0055582D01*
X0580683Y0055488D01*
X0580718Y0055393D01*
X0580749Y0055297D01*
X0580777Y0055200D01*
X0580801Y0055102D01*
X0580821Y0055003D01*
X0580837Y0054903D01*
X0580849Y0054802D01*
X0580857Y0054702D01*
X0580861Y0054601D01*
X0580861Y0054499D01*
X0580857Y0054398D01*
X0580849Y0054298D01*
X0580837Y0054197D01*
X0580821Y0054097D01*
X0580801Y0053998D01*
X0580777Y0053900D01*
X0580749Y0053803D01*
X0580718Y0053707D01*
X0580683Y0053612D01*
X0580644Y0053518D01*
X0580601Y0053427D01*
X0580555Y0053337D01*
X0580505Y0053249D01*
X0580452Y0053163D01*
X0580396Y0053079D01*
X0580336Y0052997D01*
X0580273Y0052918D01*
X0580207Y0052841D01*
X0580138Y0052768D01*
X0580066Y0052696D01*
X0579992Y0052628D01*
X0579914Y0052563D01*
X0579835Y0052501D01*
X0579752Y0052442D01*
X0579668Y0052386D01*
X0579581Y0052334D01*
X0579493Y0052285D01*
X0579403Y0052240D01*
X0579310Y0052198D01*
X0579217Y0052160D01*
X0579122Y0052126D01*
X0579025Y0052095D01*
X0578928Y0052069D01*
X0578829Y0052046D01*
X0578730Y0052027D01*
X0578630Y0052012D01*
X0578529Y0052001D01*
X0578428Y0051994D01*
X0578327Y0051991D01*
X0578226Y0051992D01*
X0578125Y0051997D01*
X0578024Y0052006D01*
X0577924Y0052019D01*
X0577824Y0052036D01*
X0577726Y0052057D01*
X0577627Y0052081D01*
X0577530Y0052110D01*
X0577435Y0052142D01*
X0577340Y0052179D01*
X0577247Y0052218D01*
X0577156Y0052262D01*
X0577067Y0052309D01*
X0576979Y0052360D01*
X0576893Y0052414D01*
X0576810Y0052471D01*
X0576729Y0052531D01*
X0576651Y0052595D01*
X0576575Y0052662D01*
X0576501Y0052732D01*
X0576431Y0052804D01*
X0576364Y0052879D01*
X0576299Y0052957D01*
X0576238Y0053038D01*
X0576180Y0053120D01*
X0576125Y0053205D01*
X0576073Y0053292D01*
X0576025Y0053381D01*
X0575981Y0053472D01*
X0575940Y0053565D01*
X0575903Y0053659D01*
X0575870Y0053754D01*
X0575840Y0053851D01*
X0575815Y0053949D01*
X0575793Y0054048D01*
X0575775Y0054147D01*
X0575761Y0054247D01*
X0575751Y0054348D01*
X0575745Y0054449D01*
X0575743Y0054550D01*
X0603302Y0054550D02*
X0603304Y0054651D01*
X0603310Y0054752D01*
X0603320Y0054853D01*
X0603334Y0054953D01*
X0603352Y0055052D01*
X0603374Y0055151D01*
X0603399Y0055249D01*
X0603429Y0055346D01*
X0603462Y0055441D01*
X0603499Y0055535D01*
X0603540Y0055628D01*
X0603584Y0055719D01*
X0603632Y0055808D01*
X0603684Y0055895D01*
X0603739Y0055980D01*
X0603797Y0056062D01*
X0603858Y0056143D01*
X0603923Y0056221D01*
X0603990Y0056296D01*
X0604060Y0056368D01*
X0604134Y0056438D01*
X0604210Y0056505D01*
X0604288Y0056569D01*
X0604369Y0056629D01*
X0604452Y0056686D01*
X0604538Y0056740D01*
X0604626Y0056791D01*
X0604715Y0056838D01*
X0604806Y0056882D01*
X0604899Y0056921D01*
X0604994Y0056958D01*
X0605089Y0056990D01*
X0605186Y0057019D01*
X0605285Y0057043D01*
X0605383Y0057064D01*
X0605483Y0057081D01*
X0605583Y0057094D01*
X0605684Y0057103D01*
X0605785Y0057108D01*
X0605886Y0057109D01*
X0605987Y0057106D01*
X0606088Y0057099D01*
X0606189Y0057088D01*
X0606289Y0057073D01*
X0606388Y0057054D01*
X0606487Y0057031D01*
X0606584Y0057005D01*
X0606681Y0056974D01*
X0606776Y0056940D01*
X0606869Y0056902D01*
X0606962Y0056860D01*
X0607052Y0056815D01*
X0607141Y0056766D01*
X0607227Y0056714D01*
X0607311Y0056658D01*
X0607394Y0056599D01*
X0607473Y0056537D01*
X0607551Y0056472D01*
X0607625Y0056404D01*
X0607697Y0056332D01*
X0607766Y0056259D01*
X0607832Y0056182D01*
X0607895Y0056103D01*
X0607955Y0056021D01*
X0608011Y0055937D01*
X0608064Y0055851D01*
X0608114Y0055763D01*
X0608160Y0055673D01*
X0608203Y0055582D01*
X0608242Y0055488D01*
X0608277Y0055393D01*
X0608308Y0055297D01*
X0608336Y0055200D01*
X0608360Y0055102D01*
X0608380Y0055003D01*
X0608396Y0054903D01*
X0608408Y0054802D01*
X0608416Y0054702D01*
X0608420Y0054601D01*
X0608420Y0054499D01*
X0608416Y0054398D01*
X0608408Y0054298D01*
X0608396Y0054197D01*
X0608380Y0054097D01*
X0608360Y0053998D01*
X0608336Y0053900D01*
X0608308Y0053803D01*
X0608277Y0053707D01*
X0608242Y0053612D01*
X0608203Y0053518D01*
X0608160Y0053427D01*
X0608114Y0053337D01*
X0608064Y0053249D01*
X0608011Y0053163D01*
X0607955Y0053079D01*
X0607895Y0052997D01*
X0607832Y0052918D01*
X0607766Y0052841D01*
X0607697Y0052768D01*
X0607625Y0052696D01*
X0607551Y0052628D01*
X0607473Y0052563D01*
X0607394Y0052501D01*
X0607311Y0052442D01*
X0607227Y0052386D01*
X0607140Y0052334D01*
X0607052Y0052285D01*
X0606962Y0052240D01*
X0606869Y0052198D01*
X0606776Y0052160D01*
X0606681Y0052126D01*
X0606584Y0052095D01*
X0606487Y0052069D01*
X0606388Y0052046D01*
X0606289Y0052027D01*
X0606189Y0052012D01*
X0606088Y0052001D01*
X0605987Y0051994D01*
X0605886Y0051991D01*
X0605785Y0051992D01*
X0605684Y0051997D01*
X0605583Y0052006D01*
X0605483Y0052019D01*
X0605383Y0052036D01*
X0605285Y0052057D01*
X0605186Y0052081D01*
X0605089Y0052110D01*
X0604994Y0052142D01*
X0604899Y0052179D01*
X0604806Y0052218D01*
X0604715Y0052262D01*
X0604626Y0052309D01*
X0604538Y0052360D01*
X0604452Y0052414D01*
X0604369Y0052471D01*
X0604288Y0052531D01*
X0604210Y0052595D01*
X0604134Y0052662D01*
X0604060Y0052732D01*
X0603990Y0052804D01*
X0603923Y0052879D01*
X0603858Y0052957D01*
X0603797Y0053038D01*
X0603739Y0053120D01*
X0603684Y0053205D01*
X0603632Y0053292D01*
X0603584Y0053381D01*
X0603540Y0053472D01*
X0603499Y0053565D01*
X0603462Y0053659D01*
X0603429Y0053754D01*
X0603399Y0053851D01*
X0603374Y0053949D01*
X0603352Y0054048D01*
X0603334Y0054147D01*
X0603320Y0054247D01*
X0603310Y0054348D01*
X0603304Y0054449D01*
X0603302Y0054550D01*
X0619051Y0054550D02*
X0619053Y0054651D01*
X0619059Y0054752D01*
X0619069Y0054853D01*
X0619083Y0054953D01*
X0619101Y0055052D01*
X0619123Y0055151D01*
X0619148Y0055249D01*
X0619178Y0055346D01*
X0619211Y0055441D01*
X0619248Y0055535D01*
X0619289Y0055628D01*
X0619333Y0055719D01*
X0619381Y0055808D01*
X0619433Y0055895D01*
X0619488Y0055980D01*
X0619546Y0056062D01*
X0619607Y0056143D01*
X0619672Y0056221D01*
X0619739Y0056296D01*
X0619809Y0056368D01*
X0619883Y0056438D01*
X0619959Y0056505D01*
X0620037Y0056569D01*
X0620118Y0056629D01*
X0620201Y0056686D01*
X0620287Y0056740D01*
X0620375Y0056791D01*
X0620464Y0056838D01*
X0620555Y0056882D01*
X0620648Y0056921D01*
X0620743Y0056958D01*
X0620838Y0056990D01*
X0620935Y0057019D01*
X0621034Y0057043D01*
X0621132Y0057064D01*
X0621232Y0057081D01*
X0621332Y0057094D01*
X0621433Y0057103D01*
X0621534Y0057108D01*
X0621635Y0057109D01*
X0621736Y0057106D01*
X0621837Y0057099D01*
X0621938Y0057088D01*
X0622038Y0057073D01*
X0622137Y0057054D01*
X0622236Y0057031D01*
X0622333Y0057005D01*
X0622430Y0056974D01*
X0622525Y0056940D01*
X0622618Y0056902D01*
X0622711Y0056860D01*
X0622801Y0056815D01*
X0622890Y0056766D01*
X0622976Y0056714D01*
X0623060Y0056658D01*
X0623143Y0056599D01*
X0623222Y0056537D01*
X0623300Y0056472D01*
X0623374Y0056404D01*
X0623446Y0056332D01*
X0623515Y0056259D01*
X0623581Y0056182D01*
X0623644Y0056103D01*
X0623704Y0056021D01*
X0623760Y0055937D01*
X0623813Y0055851D01*
X0623863Y0055763D01*
X0623909Y0055673D01*
X0623952Y0055582D01*
X0623991Y0055488D01*
X0624026Y0055393D01*
X0624057Y0055297D01*
X0624085Y0055200D01*
X0624109Y0055102D01*
X0624129Y0055003D01*
X0624145Y0054903D01*
X0624157Y0054802D01*
X0624165Y0054702D01*
X0624169Y0054601D01*
X0624169Y0054499D01*
X0624165Y0054398D01*
X0624157Y0054298D01*
X0624145Y0054197D01*
X0624129Y0054097D01*
X0624109Y0053998D01*
X0624085Y0053900D01*
X0624057Y0053803D01*
X0624026Y0053707D01*
X0623991Y0053612D01*
X0623952Y0053518D01*
X0623909Y0053427D01*
X0623863Y0053337D01*
X0623813Y0053249D01*
X0623760Y0053163D01*
X0623704Y0053079D01*
X0623644Y0052997D01*
X0623581Y0052918D01*
X0623515Y0052841D01*
X0623446Y0052768D01*
X0623374Y0052696D01*
X0623300Y0052628D01*
X0623222Y0052563D01*
X0623143Y0052501D01*
X0623060Y0052442D01*
X0622976Y0052386D01*
X0622889Y0052334D01*
X0622801Y0052285D01*
X0622711Y0052240D01*
X0622618Y0052198D01*
X0622525Y0052160D01*
X0622430Y0052126D01*
X0622333Y0052095D01*
X0622236Y0052069D01*
X0622137Y0052046D01*
X0622038Y0052027D01*
X0621938Y0052012D01*
X0621837Y0052001D01*
X0621736Y0051994D01*
X0621635Y0051991D01*
X0621534Y0051992D01*
X0621433Y0051997D01*
X0621332Y0052006D01*
X0621232Y0052019D01*
X0621132Y0052036D01*
X0621034Y0052057D01*
X0620935Y0052081D01*
X0620838Y0052110D01*
X0620743Y0052142D01*
X0620648Y0052179D01*
X0620555Y0052218D01*
X0620464Y0052262D01*
X0620375Y0052309D01*
X0620287Y0052360D01*
X0620201Y0052414D01*
X0620118Y0052471D01*
X0620037Y0052531D01*
X0619959Y0052595D01*
X0619883Y0052662D01*
X0619809Y0052732D01*
X0619739Y0052804D01*
X0619672Y0052879D01*
X0619607Y0052957D01*
X0619546Y0053038D01*
X0619488Y0053120D01*
X0619433Y0053205D01*
X0619381Y0053292D01*
X0619333Y0053381D01*
X0619289Y0053472D01*
X0619248Y0053565D01*
X0619211Y0053659D01*
X0619178Y0053754D01*
X0619148Y0053851D01*
X0619123Y0053949D01*
X0619101Y0054048D01*
X0619083Y0054147D01*
X0619069Y0054247D01*
X0619059Y0054348D01*
X0619053Y0054449D01*
X0619051Y0054550D01*
X0646610Y0054550D02*
X0646612Y0054651D01*
X0646618Y0054752D01*
X0646628Y0054853D01*
X0646642Y0054953D01*
X0646660Y0055052D01*
X0646682Y0055151D01*
X0646707Y0055249D01*
X0646737Y0055346D01*
X0646770Y0055441D01*
X0646807Y0055535D01*
X0646848Y0055628D01*
X0646892Y0055719D01*
X0646940Y0055808D01*
X0646992Y0055895D01*
X0647047Y0055980D01*
X0647105Y0056062D01*
X0647166Y0056143D01*
X0647231Y0056221D01*
X0647298Y0056296D01*
X0647368Y0056368D01*
X0647442Y0056438D01*
X0647518Y0056505D01*
X0647596Y0056569D01*
X0647677Y0056629D01*
X0647760Y0056686D01*
X0647846Y0056740D01*
X0647934Y0056791D01*
X0648023Y0056838D01*
X0648114Y0056882D01*
X0648207Y0056921D01*
X0648302Y0056958D01*
X0648397Y0056990D01*
X0648494Y0057019D01*
X0648593Y0057043D01*
X0648691Y0057064D01*
X0648791Y0057081D01*
X0648891Y0057094D01*
X0648992Y0057103D01*
X0649093Y0057108D01*
X0649194Y0057109D01*
X0649295Y0057106D01*
X0649396Y0057099D01*
X0649497Y0057088D01*
X0649597Y0057073D01*
X0649696Y0057054D01*
X0649795Y0057031D01*
X0649892Y0057005D01*
X0649989Y0056974D01*
X0650084Y0056940D01*
X0650177Y0056902D01*
X0650270Y0056860D01*
X0650360Y0056815D01*
X0650449Y0056766D01*
X0650535Y0056714D01*
X0650619Y0056658D01*
X0650702Y0056599D01*
X0650781Y0056537D01*
X0650859Y0056472D01*
X0650933Y0056404D01*
X0651005Y0056332D01*
X0651074Y0056259D01*
X0651140Y0056182D01*
X0651203Y0056103D01*
X0651263Y0056021D01*
X0651319Y0055937D01*
X0651372Y0055851D01*
X0651422Y0055763D01*
X0651468Y0055673D01*
X0651511Y0055582D01*
X0651550Y0055488D01*
X0651585Y0055393D01*
X0651616Y0055297D01*
X0651644Y0055200D01*
X0651668Y0055102D01*
X0651688Y0055003D01*
X0651704Y0054903D01*
X0651716Y0054802D01*
X0651724Y0054702D01*
X0651728Y0054601D01*
X0651728Y0054499D01*
X0651724Y0054398D01*
X0651716Y0054298D01*
X0651704Y0054197D01*
X0651688Y0054097D01*
X0651668Y0053998D01*
X0651644Y0053900D01*
X0651616Y0053803D01*
X0651585Y0053707D01*
X0651550Y0053612D01*
X0651511Y0053518D01*
X0651468Y0053427D01*
X0651422Y0053337D01*
X0651372Y0053249D01*
X0651319Y0053163D01*
X0651263Y0053079D01*
X0651203Y0052997D01*
X0651140Y0052918D01*
X0651074Y0052841D01*
X0651005Y0052768D01*
X0650933Y0052696D01*
X0650859Y0052628D01*
X0650781Y0052563D01*
X0650702Y0052501D01*
X0650619Y0052442D01*
X0650535Y0052386D01*
X0650448Y0052334D01*
X0650360Y0052285D01*
X0650270Y0052240D01*
X0650177Y0052198D01*
X0650084Y0052160D01*
X0649989Y0052126D01*
X0649892Y0052095D01*
X0649795Y0052069D01*
X0649696Y0052046D01*
X0649597Y0052027D01*
X0649497Y0052012D01*
X0649396Y0052001D01*
X0649295Y0051994D01*
X0649194Y0051991D01*
X0649093Y0051992D01*
X0648992Y0051997D01*
X0648891Y0052006D01*
X0648791Y0052019D01*
X0648691Y0052036D01*
X0648593Y0052057D01*
X0648494Y0052081D01*
X0648397Y0052110D01*
X0648302Y0052142D01*
X0648207Y0052179D01*
X0648114Y0052218D01*
X0648023Y0052262D01*
X0647934Y0052309D01*
X0647846Y0052360D01*
X0647760Y0052414D01*
X0647677Y0052471D01*
X0647596Y0052531D01*
X0647518Y0052595D01*
X0647442Y0052662D01*
X0647368Y0052732D01*
X0647298Y0052804D01*
X0647231Y0052879D01*
X0647166Y0052957D01*
X0647105Y0053038D01*
X0647047Y0053120D01*
X0646992Y0053205D01*
X0646940Y0053292D01*
X0646892Y0053381D01*
X0646848Y0053472D01*
X0646807Y0053565D01*
X0646770Y0053659D01*
X0646737Y0053754D01*
X0646707Y0053851D01*
X0646682Y0053949D01*
X0646660Y0054048D01*
X0646642Y0054147D01*
X0646628Y0054247D01*
X0646618Y0054348D01*
X0646612Y0054449D01*
X0646610Y0054550D01*
X0829877Y0040770D02*
X0829879Y0040928D01*
X0829885Y0041086D01*
X0829895Y0041244D01*
X0829909Y0041402D01*
X0829927Y0041559D01*
X0829948Y0041716D01*
X0829974Y0041872D01*
X0830004Y0042028D01*
X0830037Y0042183D01*
X0830075Y0042336D01*
X0830116Y0042489D01*
X0830161Y0042641D01*
X0830210Y0042792D01*
X0830263Y0042941D01*
X0830319Y0043089D01*
X0830379Y0043235D01*
X0830443Y0043380D01*
X0830511Y0043523D01*
X0830582Y0043665D01*
X0830656Y0043805D01*
X0830734Y0043942D01*
X0830816Y0044078D01*
X0830900Y0044212D01*
X0830989Y0044343D01*
X0831080Y0044472D01*
X0831175Y0044599D01*
X0831272Y0044724D01*
X0831373Y0044846D01*
X0831477Y0044965D01*
X0831584Y0045082D01*
X0831694Y0045196D01*
X0831807Y0045307D01*
X0831922Y0045416D01*
X0832040Y0045521D01*
X0832161Y0045623D01*
X0832284Y0045723D01*
X0832410Y0045819D01*
X0832538Y0045912D01*
X0832668Y0046002D01*
X0832801Y0046088D01*
X0832936Y0046172D01*
X0833072Y0046251D01*
X0833211Y0046328D01*
X0833352Y0046400D01*
X0833494Y0046470D01*
X0833638Y0046535D01*
X0833784Y0046597D01*
X0833931Y0046655D01*
X0834080Y0046710D01*
X0834230Y0046761D01*
X0834381Y0046808D01*
X0834533Y0046851D01*
X0834686Y0046890D01*
X0834841Y0046926D01*
X0834996Y0046957D01*
X0835152Y0046985D01*
X0835308Y0047009D01*
X0835465Y0047029D01*
X0835623Y0047045D01*
X0835780Y0047057D01*
X0835939Y0047065D01*
X0836097Y0047069D01*
X0836255Y0047069D01*
X0836413Y0047065D01*
X0836572Y0047057D01*
X0836729Y0047045D01*
X0836887Y0047029D01*
X0837044Y0047009D01*
X0837200Y0046985D01*
X0837356Y0046957D01*
X0837511Y0046926D01*
X0837666Y0046890D01*
X0837819Y0046851D01*
X0837971Y0046808D01*
X0838122Y0046761D01*
X0838272Y0046710D01*
X0838421Y0046655D01*
X0838568Y0046597D01*
X0838714Y0046535D01*
X0838858Y0046470D01*
X0839000Y0046400D01*
X0839141Y0046328D01*
X0839280Y0046251D01*
X0839416Y0046172D01*
X0839551Y0046088D01*
X0839684Y0046002D01*
X0839814Y0045912D01*
X0839942Y0045819D01*
X0840068Y0045723D01*
X0840191Y0045623D01*
X0840312Y0045521D01*
X0840430Y0045416D01*
X0840545Y0045307D01*
X0840658Y0045196D01*
X0840768Y0045082D01*
X0840875Y0044965D01*
X0840979Y0044846D01*
X0841080Y0044724D01*
X0841177Y0044599D01*
X0841272Y0044472D01*
X0841363Y0044343D01*
X0841452Y0044212D01*
X0841536Y0044078D01*
X0841618Y0043942D01*
X0841696Y0043805D01*
X0841770Y0043665D01*
X0841841Y0043523D01*
X0841909Y0043380D01*
X0841973Y0043235D01*
X0842033Y0043089D01*
X0842089Y0042941D01*
X0842142Y0042792D01*
X0842191Y0042641D01*
X0842236Y0042489D01*
X0842277Y0042336D01*
X0842315Y0042183D01*
X0842348Y0042028D01*
X0842378Y0041872D01*
X0842404Y0041716D01*
X0842425Y0041559D01*
X0842443Y0041402D01*
X0842457Y0041244D01*
X0842467Y0041086D01*
X0842473Y0040928D01*
X0842475Y0040770D01*
X0842473Y0040612D01*
X0842467Y0040454D01*
X0842457Y0040296D01*
X0842443Y0040138D01*
X0842425Y0039981D01*
X0842404Y0039824D01*
X0842378Y0039668D01*
X0842348Y0039512D01*
X0842315Y0039357D01*
X0842277Y0039204D01*
X0842236Y0039051D01*
X0842191Y0038899D01*
X0842142Y0038748D01*
X0842089Y0038599D01*
X0842033Y0038451D01*
X0841973Y0038305D01*
X0841909Y0038160D01*
X0841841Y0038017D01*
X0841770Y0037875D01*
X0841696Y0037735D01*
X0841618Y0037598D01*
X0841536Y0037462D01*
X0841452Y0037328D01*
X0841363Y0037197D01*
X0841272Y0037068D01*
X0841177Y0036941D01*
X0841080Y0036816D01*
X0840979Y0036694D01*
X0840875Y0036575D01*
X0840768Y0036458D01*
X0840658Y0036344D01*
X0840545Y0036233D01*
X0840430Y0036124D01*
X0840312Y0036019D01*
X0840191Y0035917D01*
X0840068Y0035817D01*
X0839942Y0035721D01*
X0839814Y0035628D01*
X0839684Y0035538D01*
X0839551Y0035452D01*
X0839416Y0035368D01*
X0839280Y0035289D01*
X0839141Y0035212D01*
X0839000Y0035140D01*
X0838858Y0035070D01*
X0838714Y0035005D01*
X0838568Y0034943D01*
X0838421Y0034885D01*
X0838272Y0034830D01*
X0838122Y0034779D01*
X0837971Y0034732D01*
X0837819Y0034689D01*
X0837666Y0034650D01*
X0837511Y0034614D01*
X0837356Y0034583D01*
X0837200Y0034555D01*
X0837044Y0034531D01*
X0836887Y0034511D01*
X0836729Y0034495D01*
X0836572Y0034483D01*
X0836413Y0034475D01*
X0836255Y0034471D01*
X0836097Y0034471D01*
X0835939Y0034475D01*
X0835780Y0034483D01*
X0835623Y0034495D01*
X0835465Y0034511D01*
X0835308Y0034531D01*
X0835152Y0034555D01*
X0834996Y0034583D01*
X0834841Y0034614D01*
X0834686Y0034650D01*
X0834533Y0034689D01*
X0834381Y0034732D01*
X0834230Y0034779D01*
X0834080Y0034830D01*
X0833931Y0034885D01*
X0833784Y0034943D01*
X0833638Y0035005D01*
X0833494Y0035070D01*
X0833352Y0035140D01*
X0833211Y0035212D01*
X0833072Y0035289D01*
X0832936Y0035368D01*
X0832801Y0035452D01*
X0832668Y0035538D01*
X0832538Y0035628D01*
X0832410Y0035721D01*
X0832284Y0035817D01*
X0832161Y0035917D01*
X0832040Y0036019D01*
X0831922Y0036124D01*
X0831807Y0036233D01*
X0831694Y0036344D01*
X0831584Y0036458D01*
X0831477Y0036575D01*
X0831373Y0036694D01*
X0831272Y0036816D01*
X0831175Y0036941D01*
X0831080Y0037068D01*
X0830989Y0037197D01*
X0830900Y0037328D01*
X0830816Y0037462D01*
X0830734Y0037598D01*
X0830656Y0037735D01*
X0830582Y0037875D01*
X0830511Y0038017D01*
X0830443Y0038160D01*
X0830379Y0038305D01*
X0830319Y0038451D01*
X0830263Y0038599D01*
X0830210Y0038748D01*
X0830161Y0038899D01*
X0830116Y0039051D01*
X0830075Y0039204D01*
X0830037Y0039357D01*
X0830004Y0039512D01*
X0829974Y0039668D01*
X0829948Y0039824D01*
X0829927Y0039981D01*
X0829909Y0040138D01*
X0829895Y0040296D01*
X0829885Y0040454D01*
X0829879Y0040612D01*
X0829877Y0040770D01*
X0699956Y0172660D02*
X0699958Y0172791D01*
X0699964Y0172923D01*
X0699974Y0173054D01*
X0699988Y0173185D01*
X0700006Y0173315D01*
X0700028Y0173444D01*
X0700053Y0173573D01*
X0700083Y0173701D01*
X0700117Y0173828D01*
X0700154Y0173955D01*
X0700195Y0174079D01*
X0700240Y0174203D01*
X0700289Y0174325D01*
X0700341Y0174446D01*
X0700397Y0174564D01*
X0700457Y0174682D01*
X0700520Y0174797D01*
X0700587Y0174910D01*
X0700657Y0175022D01*
X0700730Y0175131D01*
X0700806Y0175237D01*
X0700886Y0175342D01*
X0700969Y0175444D01*
X0701055Y0175543D01*
X0701144Y0175640D01*
X0701236Y0175734D01*
X0701331Y0175825D01*
X0701428Y0175914D01*
X0701528Y0175999D01*
X0701631Y0176081D01*
X0701736Y0176160D01*
X0701843Y0176236D01*
X0701953Y0176308D01*
X0702065Y0176377D01*
X0702179Y0176443D01*
X0702294Y0176505D01*
X0702412Y0176564D01*
X0702531Y0176619D01*
X0702652Y0176671D01*
X0702775Y0176718D01*
X0702899Y0176762D01*
X0703024Y0176803D01*
X0703150Y0176839D01*
X0703278Y0176872D01*
X0703406Y0176900D01*
X0703535Y0176925D01*
X0703665Y0176946D01*
X0703795Y0176963D01*
X0703926Y0176976D01*
X0704057Y0176985D01*
X0704188Y0176990D01*
X0704320Y0176991D01*
X0704451Y0176988D01*
X0704583Y0176981D01*
X0704714Y0176970D01*
X0704844Y0176955D01*
X0704974Y0176936D01*
X0705104Y0176913D01*
X0705232Y0176887D01*
X0705360Y0176856D01*
X0705487Y0176821D01*
X0705613Y0176783D01*
X0705737Y0176741D01*
X0705861Y0176695D01*
X0705982Y0176645D01*
X0706102Y0176592D01*
X0706221Y0176535D01*
X0706338Y0176475D01*
X0706452Y0176411D01*
X0706565Y0176343D01*
X0706676Y0176272D01*
X0706785Y0176198D01*
X0706891Y0176121D01*
X0706995Y0176040D01*
X0707096Y0175957D01*
X0707195Y0175870D01*
X0707291Y0175780D01*
X0707384Y0175687D01*
X0707475Y0175592D01*
X0707562Y0175494D01*
X0707647Y0175393D01*
X0707728Y0175290D01*
X0707806Y0175184D01*
X0707881Y0175076D01*
X0707953Y0174966D01*
X0708021Y0174854D01*
X0708086Y0174740D01*
X0708147Y0174623D01*
X0708205Y0174505D01*
X0708259Y0174385D01*
X0708310Y0174264D01*
X0708357Y0174141D01*
X0708400Y0174017D01*
X0708439Y0173892D01*
X0708475Y0173765D01*
X0708506Y0173637D01*
X0708534Y0173509D01*
X0708558Y0173380D01*
X0708578Y0173250D01*
X0708594Y0173119D01*
X0708606Y0172988D01*
X0708614Y0172857D01*
X0708618Y0172726D01*
X0708618Y0172594D01*
X0708614Y0172463D01*
X0708606Y0172332D01*
X0708594Y0172201D01*
X0708578Y0172070D01*
X0708558Y0171940D01*
X0708534Y0171811D01*
X0708506Y0171683D01*
X0708475Y0171555D01*
X0708439Y0171428D01*
X0708400Y0171303D01*
X0708357Y0171179D01*
X0708310Y0171056D01*
X0708259Y0170935D01*
X0708205Y0170815D01*
X0708147Y0170697D01*
X0708086Y0170580D01*
X0708021Y0170466D01*
X0707953Y0170354D01*
X0707881Y0170244D01*
X0707806Y0170136D01*
X0707728Y0170030D01*
X0707647Y0169927D01*
X0707562Y0169826D01*
X0707475Y0169728D01*
X0707384Y0169633D01*
X0707291Y0169540D01*
X0707195Y0169450D01*
X0707096Y0169363D01*
X0706995Y0169280D01*
X0706891Y0169199D01*
X0706785Y0169122D01*
X0706676Y0169048D01*
X0706565Y0168977D01*
X0706453Y0168909D01*
X0706338Y0168845D01*
X0706221Y0168785D01*
X0706102Y0168728D01*
X0705982Y0168675D01*
X0705861Y0168625D01*
X0705737Y0168579D01*
X0705613Y0168537D01*
X0705487Y0168499D01*
X0705360Y0168464D01*
X0705232Y0168433D01*
X0705104Y0168407D01*
X0704974Y0168384D01*
X0704844Y0168365D01*
X0704714Y0168350D01*
X0704583Y0168339D01*
X0704451Y0168332D01*
X0704320Y0168329D01*
X0704188Y0168330D01*
X0704057Y0168335D01*
X0703926Y0168344D01*
X0703795Y0168357D01*
X0703665Y0168374D01*
X0703535Y0168395D01*
X0703406Y0168420D01*
X0703278Y0168448D01*
X0703150Y0168481D01*
X0703024Y0168517D01*
X0702899Y0168558D01*
X0702775Y0168602D01*
X0702652Y0168649D01*
X0702531Y0168701D01*
X0702412Y0168756D01*
X0702294Y0168815D01*
X0702179Y0168877D01*
X0702065Y0168943D01*
X0701953Y0169012D01*
X0701843Y0169084D01*
X0701736Y0169160D01*
X0701631Y0169239D01*
X0701528Y0169321D01*
X0701428Y0169406D01*
X0701331Y0169495D01*
X0701236Y0169586D01*
X0701144Y0169680D01*
X0701055Y0169777D01*
X0700969Y0169876D01*
X0700886Y0169978D01*
X0700806Y0170083D01*
X0700730Y0170189D01*
X0700657Y0170298D01*
X0700587Y0170410D01*
X0700520Y0170523D01*
X0700457Y0170638D01*
X0700397Y0170756D01*
X0700341Y0170874D01*
X0700289Y0170995D01*
X0700240Y0171117D01*
X0700195Y0171241D01*
X0700154Y0171365D01*
X0700117Y0171492D01*
X0700083Y0171619D01*
X0700053Y0171747D01*
X0700028Y0171876D01*
X0700006Y0172005D01*
X0699988Y0172135D01*
X0699974Y0172266D01*
X0699964Y0172397D01*
X0699958Y0172529D01*
X0699956Y0172660D01*
X0680271Y0172660D02*
X0680273Y0172791D01*
X0680279Y0172923D01*
X0680289Y0173054D01*
X0680303Y0173185D01*
X0680321Y0173315D01*
X0680343Y0173444D01*
X0680368Y0173573D01*
X0680398Y0173701D01*
X0680432Y0173828D01*
X0680469Y0173955D01*
X0680510Y0174079D01*
X0680555Y0174203D01*
X0680604Y0174325D01*
X0680656Y0174446D01*
X0680712Y0174564D01*
X0680772Y0174682D01*
X0680835Y0174797D01*
X0680902Y0174910D01*
X0680972Y0175022D01*
X0681045Y0175131D01*
X0681121Y0175237D01*
X0681201Y0175342D01*
X0681284Y0175444D01*
X0681370Y0175543D01*
X0681459Y0175640D01*
X0681551Y0175734D01*
X0681646Y0175825D01*
X0681743Y0175914D01*
X0681843Y0175999D01*
X0681946Y0176081D01*
X0682051Y0176160D01*
X0682158Y0176236D01*
X0682268Y0176308D01*
X0682380Y0176377D01*
X0682494Y0176443D01*
X0682609Y0176505D01*
X0682727Y0176564D01*
X0682846Y0176619D01*
X0682967Y0176671D01*
X0683090Y0176718D01*
X0683214Y0176762D01*
X0683339Y0176803D01*
X0683465Y0176839D01*
X0683593Y0176872D01*
X0683721Y0176900D01*
X0683850Y0176925D01*
X0683980Y0176946D01*
X0684110Y0176963D01*
X0684241Y0176976D01*
X0684372Y0176985D01*
X0684503Y0176990D01*
X0684635Y0176991D01*
X0684766Y0176988D01*
X0684898Y0176981D01*
X0685029Y0176970D01*
X0685159Y0176955D01*
X0685289Y0176936D01*
X0685419Y0176913D01*
X0685547Y0176887D01*
X0685675Y0176856D01*
X0685802Y0176821D01*
X0685928Y0176783D01*
X0686052Y0176741D01*
X0686176Y0176695D01*
X0686297Y0176645D01*
X0686417Y0176592D01*
X0686536Y0176535D01*
X0686653Y0176475D01*
X0686767Y0176411D01*
X0686880Y0176343D01*
X0686991Y0176272D01*
X0687100Y0176198D01*
X0687206Y0176121D01*
X0687310Y0176040D01*
X0687411Y0175957D01*
X0687510Y0175870D01*
X0687606Y0175780D01*
X0687699Y0175687D01*
X0687790Y0175592D01*
X0687877Y0175494D01*
X0687962Y0175393D01*
X0688043Y0175290D01*
X0688121Y0175184D01*
X0688196Y0175076D01*
X0688268Y0174966D01*
X0688336Y0174854D01*
X0688401Y0174740D01*
X0688462Y0174623D01*
X0688520Y0174505D01*
X0688574Y0174385D01*
X0688625Y0174264D01*
X0688672Y0174141D01*
X0688715Y0174017D01*
X0688754Y0173892D01*
X0688790Y0173765D01*
X0688821Y0173637D01*
X0688849Y0173509D01*
X0688873Y0173380D01*
X0688893Y0173250D01*
X0688909Y0173119D01*
X0688921Y0172988D01*
X0688929Y0172857D01*
X0688933Y0172726D01*
X0688933Y0172594D01*
X0688929Y0172463D01*
X0688921Y0172332D01*
X0688909Y0172201D01*
X0688893Y0172070D01*
X0688873Y0171940D01*
X0688849Y0171811D01*
X0688821Y0171683D01*
X0688790Y0171555D01*
X0688754Y0171428D01*
X0688715Y0171303D01*
X0688672Y0171179D01*
X0688625Y0171056D01*
X0688574Y0170935D01*
X0688520Y0170815D01*
X0688462Y0170697D01*
X0688401Y0170580D01*
X0688336Y0170466D01*
X0688268Y0170354D01*
X0688196Y0170244D01*
X0688121Y0170136D01*
X0688043Y0170030D01*
X0687962Y0169927D01*
X0687877Y0169826D01*
X0687790Y0169728D01*
X0687699Y0169633D01*
X0687606Y0169540D01*
X0687510Y0169450D01*
X0687411Y0169363D01*
X0687310Y0169280D01*
X0687206Y0169199D01*
X0687100Y0169122D01*
X0686991Y0169048D01*
X0686880Y0168977D01*
X0686768Y0168909D01*
X0686653Y0168845D01*
X0686536Y0168785D01*
X0686417Y0168728D01*
X0686297Y0168675D01*
X0686176Y0168625D01*
X0686052Y0168579D01*
X0685928Y0168537D01*
X0685802Y0168499D01*
X0685675Y0168464D01*
X0685547Y0168433D01*
X0685419Y0168407D01*
X0685289Y0168384D01*
X0685159Y0168365D01*
X0685029Y0168350D01*
X0684898Y0168339D01*
X0684766Y0168332D01*
X0684635Y0168329D01*
X0684503Y0168330D01*
X0684372Y0168335D01*
X0684241Y0168344D01*
X0684110Y0168357D01*
X0683980Y0168374D01*
X0683850Y0168395D01*
X0683721Y0168420D01*
X0683593Y0168448D01*
X0683465Y0168481D01*
X0683339Y0168517D01*
X0683214Y0168558D01*
X0683090Y0168602D01*
X0682967Y0168649D01*
X0682846Y0168701D01*
X0682727Y0168756D01*
X0682609Y0168815D01*
X0682494Y0168877D01*
X0682380Y0168943D01*
X0682268Y0169012D01*
X0682158Y0169084D01*
X0682051Y0169160D01*
X0681946Y0169239D01*
X0681843Y0169321D01*
X0681743Y0169406D01*
X0681646Y0169495D01*
X0681551Y0169586D01*
X0681459Y0169680D01*
X0681370Y0169777D01*
X0681284Y0169876D01*
X0681201Y0169978D01*
X0681121Y0170083D01*
X0681045Y0170189D01*
X0680972Y0170298D01*
X0680902Y0170410D01*
X0680835Y0170523D01*
X0680772Y0170638D01*
X0680712Y0170756D01*
X0680656Y0170874D01*
X0680604Y0170995D01*
X0680555Y0171117D01*
X0680510Y0171241D01*
X0680469Y0171365D01*
X0680432Y0171492D01*
X0680398Y0171619D01*
X0680368Y0171747D01*
X0680343Y0171876D01*
X0680321Y0172005D01*
X0680303Y0172135D01*
X0680289Y0172266D01*
X0680279Y0172397D01*
X0680273Y0172529D01*
X0680271Y0172660D01*
X0829877Y0174628D02*
X0829879Y0174786D01*
X0829885Y0174944D01*
X0829895Y0175102D01*
X0829909Y0175260D01*
X0829927Y0175417D01*
X0829948Y0175574D01*
X0829974Y0175730D01*
X0830004Y0175886D01*
X0830037Y0176041D01*
X0830075Y0176194D01*
X0830116Y0176347D01*
X0830161Y0176499D01*
X0830210Y0176650D01*
X0830263Y0176799D01*
X0830319Y0176947D01*
X0830379Y0177093D01*
X0830443Y0177238D01*
X0830511Y0177381D01*
X0830582Y0177523D01*
X0830656Y0177663D01*
X0830734Y0177800D01*
X0830816Y0177936D01*
X0830900Y0178070D01*
X0830989Y0178201D01*
X0831080Y0178330D01*
X0831175Y0178457D01*
X0831272Y0178582D01*
X0831373Y0178704D01*
X0831477Y0178823D01*
X0831584Y0178940D01*
X0831694Y0179054D01*
X0831807Y0179165D01*
X0831922Y0179274D01*
X0832040Y0179379D01*
X0832161Y0179481D01*
X0832284Y0179581D01*
X0832410Y0179677D01*
X0832538Y0179770D01*
X0832668Y0179860D01*
X0832801Y0179946D01*
X0832936Y0180030D01*
X0833072Y0180109D01*
X0833211Y0180186D01*
X0833352Y0180258D01*
X0833494Y0180328D01*
X0833638Y0180393D01*
X0833784Y0180455D01*
X0833931Y0180513D01*
X0834080Y0180568D01*
X0834230Y0180619D01*
X0834381Y0180666D01*
X0834533Y0180709D01*
X0834686Y0180748D01*
X0834841Y0180784D01*
X0834996Y0180815D01*
X0835152Y0180843D01*
X0835308Y0180867D01*
X0835465Y0180887D01*
X0835623Y0180903D01*
X0835780Y0180915D01*
X0835939Y0180923D01*
X0836097Y0180927D01*
X0836255Y0180927D01*
X0836413Y0180923D01*
X0836572Y0180915D01*
X0836729Y0180903D01*
X0836887Y0180887D01*
X0837044Y0180867D01*
X0837200Y0180843D01*
X0837356Y0180815D01*
X0837511Y0180784D01*
X0837666Y0180748D01*
X0837819Y0180709D01*
X0837971Y0180666D01*
X0838122Y0180619D01*
X0838272Y0180568D01*
X0838421Y0180513D01*
X0838568Y0180455D01*
X0838714Y0180393D01*
X0838858Y0180328D01*
X0839000Y0180258D01*
X0839141Y0180186D01*
X0839280Y0180109D01*
X0839416Y0180030D01*
X0839551Y0179946D01*
X0839684Y0179860D01*
X0839814Y0179770D01*
X0839942Y0179677D01*
X0840068Y0179581D01*
X0840191Y0179481D01*
X0840312Y0179379D01*
X0840430Y0179274D01*
X0840545Y0179165D01*
X0840658Y0179054D01*
X0840768Y0178940D01*
X0840875Y0178823D01*
X0840979Y0178704D01*
X0841080Y0178582D01*
X0841177Y0178457D01*
X0841272Y0178330D01*
X0841363Y0178201D01*
X0841452Y0178070D01*
X0841536Y0177936D01*
X0841618Y0177800D01*
X0841696Y0177663D01*
X0841770Y0177523D01*
X0841841Y0177381D01*
X0841909Y0177238D01*
X0841973Y0177093D01*
X0842033Y0176947D01*
X0842089Y0176799D01*
X0842142Y0176650D01*
X0842191Y0176499D01*
X0842236Y0176347D01*
X0842277Y0176194D01*
X0842315Y0176041D01*
X0842348Y0175886D01*
X0842378Y0175730D01*
X0842404Y0175574D01*
X0842425Y0175417D01*
X0842443Y0175260D01*
X0842457Y0175102D01*
X0842467Y0174944D01*
X0842473Y0174786D01*
X0842475Y0174628D01*
X0842473Y0174470D01*
X0842467Y0174312D01*
X0842457Y0174154D01*
X0842443Y0173996D01*
X0842425Y0173839D01*
X0842404Y0173682D01*
X0842378Y0173526D01*
X0842348Y0173370D01*
X0842315Y0173215D01*
X0842277Y0173062D01*
X0842236Y0172909D01*
X0842191Y0172757D01*
X0842142Y0172606D01*
X0842089Y0172457D01*
X0842033Y0172309D01*
X0841973Y0172163D01*
X0841909Y0172018D01*
X0841841Y0171875D01*
X0841770Y0171733D01*
X0841696Y0171593D01*
X0841618Y0171456D01*
X0841536Y0171320D01*
X0841452Y0171186D01*
X0841363Y0171055D01*
X0841272Y0170926D01*
X0841177Y0170799D01*
X0841080Y0170674D01*
X0840979Y0170552D01*
X0840875Y0170433D01*
X0840768Y0170316D01*
X0840658Y0170202D01*
X0840545Y0170091D01*
X0840430Y0169982D01*
X0840312Y0169877D01*
X0840191Y0169775D01*
X0840068Y0169675D01*
X0839942Y0169579D01*
X0839814Y0169486D01*
X0839684Y0169396D01*
X0839551Y0169310D01*
X0839416Y0169226D01*
X0839280Y0169147D01*
X0839141Y0169070D01*
X0839000Y0168998D01*
X0838858Y0168928D01*
X0838714Y0168863D01*
X0838568Y0168801D01*
X0838421Y0168743D01*
X0838272Y0168688D01*
X0838122Y0168637D01*
X0837971Y0168590D01*
X0837819Y0168547D01*
X0837666Y0168508D01*
X0837511Y0168472D01*
X0837356Y0168441D01*
X0837200Y0168413D01*
X0837044Y0168389D01*
X0836887Y0168369D01*
X0836729Y0168353D01*
X0836572Y0168341D01*
X0836413Y0168333D01*
X0836255Y0168329D01*
X0836097Y0168329D01*
X0835939Y0168333D01*
X0835780Y0168341D01*
X0835623Y0168353D01*
X0835465Y0168369D01*
X0835308Y0168389D01*
X0835152Y0168413D01*
X0834996Y0168441D01*
X0834841Y0168472D01*
X0834686Y0168508D01*
X0834533Y0168547D01*
X0834381Y0168590D01*
X0834230Y0168637D01*
X0834080Y0168688D01*
X0833931Y0168743D01*
X0833784Y0168801D01*
X0833638Y0168863D01*
X0833494Y0168928D01*
X0833352Y0168998D01*
X0833211Y0169070D01*
X0833072Y0169147D01*
X0832936Y0169226D01*
X0832801Y0169310D01*
X0832668Y0169396D01*
X0832538Y0169486D01*
X0832410Y0169579D01*
X0832284Y0169675D01*
X0832161Y0169775D01*
X0832040Y0169877D01*
X0831922Y0169982D01*
X0831807Y0170091D01*
X0831694Y0170202D01*
X0831584Y0170316D01*
X0831477Y0170433D01*
X0831373Y0170552D01*
X0831272Y0170674D01*
X0831175Y0170799D01*
X0831080Y0170926D01*
X0830989Y0171055D01*
X0830900Y0171186D01*
X0830816Y0171320D01*
X0830734Y0171456D01*
X0830656Y0171593D01*
X0830582Y0171733D01*
X0830511Y0171875D01*
X0830443Y0172018D01*
X0830379Y0172163D01*
X0830319Y0172309D01*
X0830263Y0172457D01*
X0830210Y0172606D01*
X0830161Y0172757D01*
X0830116Y0172909D01*
X0830075Y0173062D01*
X0830037Y0173215D01*
X0830004Y0173370D01*
X0829974Y0173526D01*
X0829948Y0173682D01*
X0829927Y0173839D01*
X0829909Y0173996D01*
X0829895Y0174154D01*
X0829885Y0174312D01*
X0829879Y0174470D01*
X0829877Y0174628D01*
D11*
X0248343Y0120241D03*
X0132595Y0120241D03*
D12*
X0539917Y0044707D03*
X0557633Y0044707D03*
X0583224Y0044707D03*
X0600940Y0044707D03*
X0626531Y0044707D03*
X0644247Y0044707D03*
D13*
X0635389Y0054550D03*
X0651137Y0064392D03*
X0668854Y0068329D03*
X0662948Y0072266D03*
X0670822Y0076203D03*
X0652318Y0077384D03*
X0633421Y0077384D03*
X0615310Y0077384D03*
X0597987Y0077778D03*
X0579877Y0077778D03*
X0562948Y0078172D03*
X0544444Y0077778D03*
X0528302Y0078959D03*
X0501531Y0091951D03*
X0490901Y0091164D03*
X0475153Y0091951D03*
X0462161Y0095888D03*
X0464129Y0100219D03*
X0464129Y0108093D03*
X0466885Y0114983D03*
X0462161Y0123447D03*
X0466098Y0127384D03*
X0481846Y0133290D03*
X0501531Y0133290D03*
X0446413Y0135258D03*
X0434602Y0135258D03*
X0422791Y0135258D03*
X0395232Y0140180D03*
X0401806Y0150809D03*
X0370035Y0140180D03*
X0363736Y0139195D03*
X0367673Y0129746D03*
X0359011Y0126597D03*
X0359011Y0120691D03*
X0359405Y0115573D03*
X0358617Y0110455D03*
X0344050Y0107699D03*
X0340113Y0107699D03*
X0328696Y0103762D03*
X0312948Y0103762D03*
X0318460Y0098250D03*
X0322791Y0093920D03*
X0341688Y0096676D03*
X0351924Y0084077D03*
X0359798Y0084077D03*
X0355861Y0080140D03*
X0351924Y0076203D03*
X0355861Y0072266D03*
X0359798Y0076203D03*
X0391295Y0068329D03*
X0407043Y0072266D03*
X0403893Y0078959D03*
X0403106Y0084077D03*
X0403106Y0089195D03*
X0403106Y0093920D03*
X0403106Y0099038D03*
X0403106Y0104156D03*
X0422791Y0101006D03*
X0423184Y0095494D03*
X0418854Y0091951D03*
X0430665Y0091951D03*
X0458224Y0084077D03*
X0462161Y0084077D03*
X0483263Y0063959D03*
X0496019Y0052581D03*
X0483421Y0049431D03*
X0458617Y0042345D03*
X0457436Y0047857D03*
X0425547Y0048250D03*
X0422791Y0054550D03*
X0410980Y0054550D03*
X0399169Y0054550D03*
X0387358Y0054550D03*
X0432653Y0063959D03*
X0530665Y0041951D03*
X0548775Y0054550D03*
X0569247Y0059274D03*
X0592082Y0054550D03*
X0610586Y0062817D03*
X0670822Y0089983D03*
X0674759Y0103762D03*
X0678696Y0115573D03*
X0668854Y0115967D03*
X0668854Y0127384D03*
X0668854Y0135258D03*
X0686570Y0143132D03*
X0694444Y0143132D03*
X0702318Y0143132D03*
X0702318Y0151006D03*
X0694444Y0151006D03*
X0686570Y0151006D03*
X0686570Y0158880D03*
X0694444Y0158880D03*
X0702318Y0158880D03*
X0729877Y0139195D03*
X0741688Y0131321D03*
X0741688Y0127384D03*
X0745625Y0127384D03*
X0745625Y0131321D03*
X0769247Y0131321D03*
X0769247Y0135258D03*
X0769247Y0139195D03*
X0773184Y0139195D03*
X0773184Y0135258D03*
X0773184Y0131321D03*
X0777121Y0135258D03*
X0777121Y0139195D03*
X0788932Y0143132D03*
X0788932Y0151006D03*
X0781058Y0151006D03*
X0777121Y0151006D03*
X0773184Y0151006D03*
X0769247Y0151006D03*
X0765310Y0151006D03*
X0761373Y0151006D03*
X0763736Y0145101D03*
X0796806Y0151006D03*
X0788145Y0127384D03*
X0828302Y0103762D03*
X0706255Y0125416D03*
X0706255Y0135258D03*
X0635389Y0143132D03*
X0611767Y0170691D03*
X0761373Y0178565D03*
X0358106Y0155731D03*
X0344050Y0151006D03*
X0332239Y0154943D03*
X0320428Y0154943D03*
X0304680Y0154943D03*
X0300743Y0147069D03*
X0292869Y0147069D03*
X0288932Y0151006D03*
X0273972Y0143132D03*
X0292869Y0139195D03*
X0308617Y0143132D03*
X0320428Y0143132D03*
X0328302Y0143132D03*
X0336964Y0143920D03*
X0339720Y0137227D03*
X0337358Y0131321D03*
X0333027Y0128172D03*
X0333421Y0123054D03*
X0344050Y0123054D03*
X0344050Y0119510D03*
X0332239Y0117542D03*
X0300743Y0119510D03*
X0300743Y0115573D03*
X0292869Y0115573D03*
X0292869Y0119510D03*
X0276255Y0120613D03*
X0267673Y0122266D03*
X0256649Y0118723D03*
X0258224Y0129746D03*
X0243263Y0133683D03*
X0228066Y0139156D03*
X0233814Y0151006D03*
X0241688Y0151006D03*
X0222003Y0154943D03*
X0214129Y0158880D03*
X0186570Y0158880D03*
X0178696Y0158880D03*
X0169956Y0159628D03*
X0133814Y0162817D03*
X0119641Y0158880D03*
X0112554Y0159668D03*
X0122791Y0151794D03*
X0131452Y0139195D03*
X0115704Y0131321D03*
X0111767Y0127384D03*
X0107830Y0123447D03*
X0119641Y0115573D03*
X0123578Y0115573D03*
X0141688Y0119510D03*
X0151137Y0119510D03*
X0157436Y0121085D03*
X0151137Y0127384D03*
X0143263Y0127384D03*
X0147200Y0112424D03*
X0182239Y0096676D03*
X0174759Y0088014D03*
X0166885Y0088014D03*
X0154680Y0082502D03*
X0166885Y0080140D03*
X0174759Y0080140D03*
X0186570Y0080140D03*
X0186570Y0084077D03*
X0208421Y0091754D03*
X0229484Y0098250D03*
X0239326Y0101006D03*
X0237751Y0104943D03*
X0253499Y0103762D03*
X0261373Y0103762D03*
X0288932Y0098250D03*
X0288932Y0094313D03*
X0286570Y0090770D03*
X0272200Y0088408D03*
X0256255Y0082502D03*
X0247594Y0071872D03*
X0243657Y0071872D03*
X0238539Y0071872D03*
X0235783Y0066361D03*
X0236176Y0062424D03*
X0212161Y0072266D03*
X0212161Y0076203D03*
X0212161Y0080140D03*
X0230665Y0089589D03*
X0212358Y0104746D03*
X0210192Y0115573D03*
X0202318Y0115573D03*
X0194444Y0115573D03*
X0202318Y0123447D03*
X0210192Y0123447D03*
X0218066Y0123447D03*
X0218066Y0115573D03*
X0229877Y0115573D03*
X0293263Y0103762D03*
X0320428Y0079313D03*
X0316610Y0076746D03*
X0316491Y0072266D03*
X0304680Y0072266D03*
X0292869Y0072266D03*
X0287948Y0070455D03*
X0292869Y0060455D03*
X0304680Y0060455D03*
X0316491Y0060455D03*
X0328302Y0060455D03*
X0328302Y0048644D03*
X0316491Y0048644D03*
X0304680Y0048644D03*
X0292869Y0048644D03*
X0232633Y0049431D03*
X0198381Y0036833D03*
X0186570Y0036833D03*
X0174759Y0036833D03*
X0162948Y0036833D03*
X0151137Y0036833D03*
X0139326Y0036833D03*
X0127515Y0036833D03*
X0115704Y0036833D03*
X0103893Y0036833D03*
X0092082Y0036833D03*
X0088145Y0044707D03*
X0080271Y0052581D03*
X0068460Y0052581D03*
X0064523Y0060455D03*
X0150743Y0070691D03*
X0160980Y0070691D03*
X0166885Y0072266D03*
X0174759Y0072266D03*
X0174759Y0064392D03*
X0174759Y0056518D03*
X0205074Y0064786D03*
X0209011Y0034077D03*
X0072397Y0103762D03*
X0064523Y0107699D03*
X0084208Y0111636D03*
X0064523Y0115573D03*
X0064523Y0123447D03*
X0072397Y0123447D03*
X0080271Y0131321D03*
X0084208Y0131321D03*
X0088145Y0131321D03*
X0076334Y0135258D03*
X0084208Y0151006D03*
X0092082Y0151006D03*
X0089720Y0162817D03*
X0084208Y0166754D03*
X0080271Y0166754D03*
X0084208Y0182502D03*
X0131452Y0170691D03*
X0151137Y0182502D03*
X0166885Y0182502D03*
X0103893Y0112424D03*
D14*
X0112554Y0159668D02*
X0169917Y0159668D01*
X0169956Y0159628D01*
X0112554Y0159668D02*
X0109405Y0162817D01*
X0089720Y0162817D01*
X0253499Y0103762D02*
X0293263Y0103762D01*
X0611767Y0170691D02*
X0627515Y0170691D01*
X0635389Y0162817D01*
X0635389Y0143132D01*
X0729877Y0147069D02*
X0729877Y0139195D01*
X0729877Y0147069D02*
X0761373Y0178565D01*
X0763736Y0145101D02*
X0781058Y0145101D01*
X0788145Y0138014D01*
X0788145Y0127384D01*
X0666885Y0068329D02*
X0662948Y0072266D01*
X0666885Y0068329D02*
X0668854Y0068329D01*
D15*
X0681833Y0068086D02*
X0646379Y0068086D01*
X0647177Y0068885D02*
X0681833Y0068885D01*
X0681833Y0069683D02*
X0647976Y0069683D01*
X0648774Y0070482D02*
X0681833Y0070482D01*
X0681833Y0071280D02*
X0649573Y0071280D01*
X0650371Y0072079D02*
X0681833Y0072079D01*
X0681833Y0072877D02*
X0651170Y0072877D01*
X0651968Y0073676D02*
X0681833Y0073676D01*
X0681833Y0074474D02*
X0653821Y0074474D01*
X0654167Y0074617D02*
X0655085Y0075535D01*
X0655582Y0076735D01*
X0655582Y0078033D01*
X0655085Y0079233D01*
X0654167Y0080151D01*
X0652967Y0080648D01*
X0651669Y0080648D01*
X0650469Y0080151D01*
X0649551Y0079233D01*
X0649054Y0078033D01*
X0649054Y0077479D01*
X0640311Y0068735D01*
X0628130Y0068735D01*
X0633515Y0074120D01*
X0634070Y0074120D01*
X0635269Y0074617D01*
X0636187Y0075535D01*
X0636684Y0076735D01*
X0636684Y0078033D01*
X0636187Y0079233D01*
X0635269Y0080151D01*
X0634070Y0080648D01*
X0632771Y0080648D01*
X0631572Y0080151D01*
X0630654Y0079233D01*
X0630157Y0078033D01*
X0630157Y0077479D01*
X0622988Y0070310D01*
X0611595Y0070310D01*
X0615405Y0074120D01*
X0615960Y0074120D01*
X0617159Y0074617D01*
X0618077Y0075535D01*
X0618574Y0076735D01*
X0618574Y0078033D01*
X0618077Y0079233D01*
X0617159Y0080151D01*
X0615960Y0080648D01*
X0614661Y0080648D01*
X0613462Y0080151D01*
X0612543Y0079233D01*
X0612047Y0078033D01*
X0612047Y0077479D01*
X0606453Y0071885D01*
X0595453Y0071885D01*
X0598082Y0074514D01*
X0598637Y0074514D01*
X0599836Y0075011D01*
X0600754Y0075929D01*
X0601251Y0077129D01*
X0601251Y0078427D01*
X0600754Y0079627D01*
X0599836Y0080545D01*
X0598637Y0081042D01*
X0597338Y0081042D01*
X0596139Y0080545D01*
X0595221Y0079627D01*
X0594724Y0078427D01*
X0594724Y0077873D01*
X0590311Y0073460D01*
X0578918Y0073460D01*
X0579972Y0074514D01*
X0580526Y0074514D01*
X0581726Y0075011D01*
X0582644Y0075929D01*
X0583141Y0077129D01*
X0583141Y0078427D01*
X0582644Y0079627D01*
X0581726Y0080545D01*
X0580526Y0081042D01*
X0579228Y0081042D01*
X0578028Y0080545D01*
X0577110Y0079627D01*
X0576613Y0078427D01*
X0576613Y0077873D01*
X0573775Y0075035D01*
X0563903Y0075035D01*
X0564797Y0075405D01*
X0565715Y0076323D01*
X0566212Y0077522D01*
X0566212Y0078821D01*
X0565715Y0080020D01*
X0564797Y0080939D01*
X0563597Y0081435D01*
X0562299Y0081435D01*
X0561099Y0080939D01*
X0560181Y0080020D01*
X0559684Y0078821D01*
X0559684Y0078266D01*
X0558421Y0077003D01*
X0547656Y0077003D01*
X0547708Y0077129D01*
X0547708Y0078427D01*
X0547211Y0079627D01*
X0546293Y0080545D01*
X0545093Y0081042D01*
X0543795Y0081042D01*
X0542595Y0080545D01*
X0541677Y0079627D01*
X0541243Y0078578D01*
X0531566Y0078578D01*
X0531566Y0079608D01*
X0531069Y0080808D01*
X0530151Y0081726D01*
X0528952Y0082223D01*
X0527653Y0082223D01*
X0526454Y0081726D01*
X0525536Y0080808D01*
X0525264Y0080153D01*
X0430467Y0080153D01*
X0423406Y0087214D01*
X0489522Y0087214D01*
X0490221Y0087913D01*
X0490252Y0087900D01*
X0491550Y0087900D01*
X0492750Y0088397D01*
X0493668Y0089315D01*
X0494165Y0090515D01*
X0494165Y0091813D01*
X0493709Y0092913D01*
X0496362Y0092913D01*
X0498475Y0090800D01*
X0498764Y0090102D01*
X0499682Y0089184D01*
X0500882Y0088687D01*
X0502180Y0088687D01*
X0503380Y0089184D01*
X0504298Y0090102D01*
X0504795Y0091302D01*
X0504795Y0092600D01*
X0504298Y0093800D01*
X0503380Y0094718D01*
X0502682Y0095007D01*
X0500116Y0097573D01*
X0499279Y0098410D01*
X0498185Y0098863D01*
X0463508Y0098863D01*
X0462810Y0099152D01*
X0461511Y0099152D01*
X0460814Y0098863D01*
X0429702Y0098863D01*
X0429702Y0120102D01*
X0429250Y0121195D01*
X0408580Y0141865D01*
X0407743Y0142701D01*
X0406650Y0143154D01*
X0396578Y0143154D01*
X0395881Y0143443D01*
X0394582Y0143443D01*
X0393885Y0143154D01*
X0371382Y0143154D01*
X0370684Y0143443D01*
X0369386Y0143443D01*
X0368186Y0142946D01*
X0367268Y0142028D01*
X0366979Y0141331D01*
X0363881Y0138233D01*
X0353157Y0138233D01*
X0338698Y0152691D01*
X0337862Y0153528D01*
X0336768Y0153981D01*
X0290279Y0153981D01*
X0289582Y0154270D01*
X0288283Y0154270D01*
X0287084Y0153773D01*
X0286165Y0152855D01*
X0285669Y0151655D01*
X0285669Y0150357D01*
X0286165Y0149158D01*
X0287084Y0148239D01*
X0288283Y0147743D01*
X0289582Y0147743D01*
X0290279Y0148031D01*
X0334944Y0148031D01*
X0335945Y0147030D01*
X0335115Y0146687D01*
X0334197Y0145768D01*
X0333700Y0144569D01*
X0333700Y0144014D01*
X0325744Y0136058D01*
X0270256Y0136058D01*
X0274066Y0139869D01*
X0274621Y0139869D01*
X0275820Y0140365D01*
X0276739Y0141284D01*
X0277235Y0142483D01*
X0277235Y0143781D01*
X0276739Y0144981D01*
X0275820Y0145899D01*
X0274621Y0146396D01*
X0273323Y0146396D01*
X0272123Y0145899D01*
X0271205Y0144981D01*
X0270708Y0143781D01*
X0270708Y0143227D01*
X0265901Y0138420D01*
X0231294Y0138420D01*
X0231330Y0138507D01*
X0231330Y0139805D01*
X0230833Y0141005D01*
X0230441Y0141397D01*
X0230441Y0149864D01*
X0229050Y0151255D01*
X0229050Y0151255D01*
X0225267Y0155038D01*
X0225267Y0155593D01*
X0224770Y0156792D01*
X0224581Y0156982D01*
X0224764Y0156906D01*
X0408219Y0156906D01*
X0410391Y0157806D01*
X0410391Y0157806D01*
X0412054Y0159469D01*
X0412954Y0161641D01*
X0412954Y0184465D01*
X0725140Y0184465D01*
X0725140Y0146738D01*
X0725609Y0146269D01*
X0726272Y0146269D01*
X0727302Y0147300D01*
X0727302Y0141236D01*
X0727110Y0141044D01*
X0726613Y0139844D01*
X0726613Y0138546D01*
X0727110Y0137346D01*
X0728028Y0136428D01*
X0729228Y0135931D01*
X0730526Y0135931D01*
X0731726Y0136428D01*
X0732644Y0137346D01*
X0733141Y0138546D01*
X0733141Y0139844D01*
X0732644Y0141044D01*
X0732452Y0141236D01*
X0732452Y0146003D01*
X0740593Y0154143D01*
X0806873Y0154143D01*
X0806873Y0132121D01*
X0790720Y0132121D01*
X0790720Y0138526D01*
X0790328Y0139473D01*
X0782517Y0147284D01*
X0781570Y0147676D01*
X0765776Y0147676D01*
X0765584Y0147868D01*
X0764385Y0148365D01*
X0763086Y0148365D01*
X0761887Y0147868D01*
X0760969Y0146950D01*
X0760472Y0145750D01*
X0760472Y0144452D01*
X0760969Y0143252D01*
X0761887Y0142334D01*
X0763086Y0141837D01*
X0764385Y0141837D01*
X0765584Y0142334D01*
X0765776Y0142526D01*
X0779992Y0142526D01*
X0785570Y0136948D01*
X0785570Y0132121D01*
X0776790Y0132121D01*
X0776321Y0131653D01*
X0776321Y0112436D01*
X0761042Y0112436D01*
X0760573Y0111968D01*
X0760573Y0108499D01*
X0670491Y0108499D01*
X0670022Y0108031D01*
X0670022Y0099494D01*
X0670491Y0099025D01*
X0681833Y0099025D01*
X0681833Y0030934D01*
X0278215Y0030934D01*
X0278215Y0068619D01*
X0277821Y0069013D01*
X0277821Y0069406D01*
X0277411Y0069817D01*
X0238642Y0069817D01*
X0238232Y0069406D01*
X0238232Y0030934D01*
X0062561Y0030934D01*
X0062561Y0184465D01*
X0091091Y0184465D01*
X0091091Y0182430D01*
X0092148Y0180600D01*
X0092148Y0180600D01*
X0093978Y0179543D01*
X0125619Y0179543D01*
X0127449Y0180600D01*
X0128506Y0182430D01*
X0128506Y0184465D01*
X0139505Y0184465D01*
X0135193Y0180153D01*
X0133802Y0178762D01*
X0133802Y0166163D01*
X0133720Y0166081D01*
X0133165Y0166081D01*
X0131965Y0165584D01*
X0131047Y0164666D01*
X0130550Y0163467D01*
X0130550Y0162168D01*
X0131047Y0160969D01*
X0131965Y0160050D01*
X0133165Y0159554D01*
X0134463Y0159554D01*
X0135663Y0160050D01*
X0136581Y0160969D01*
X0137078Y0162168D01*
X0137078Y0162723D01*
X0138551Y0164196D01*
X0138551Y0176794D01*
X0141885Y0180128D01*
X0148896Y0180128D01*
X0149288Y0179735D01*
X0150488Y0179239D01*
X0151786Y0179239D01*
X0152986Y0179735D01*
X0153904Y0180654D01*
X0154401Y0181853D01*
X0154401Y0183152D01*
X0153904Y0184351D01*
X0153791Y0184465D01*
X0164232Y0184465D01*
X0164118Y0184351D01*
X0163621Y0183152D01*
X0163621Y0181853D01*
X0164118Y0180654D01*
X0165036Y0179735D01*
X0166236Y0179239D01*
X0167534Y0179239D01*
X0168734Y0179735D01*
X0169126Y0180128D01*
X0189523Y0180128D01*
X0192069Y0177582D01*
X0192069Y0161834D01*
X0196006Y0157897D01*
X0197397Y0156506D01*
X0211888Y0156506D01*
X0212280Y0156113D01*
X0213480Y0155617D01*
X0214778Y0155617D01*
X0215011Y0155713D01*
X0215011Y0148173D01*
X0210802Y0143964D01*
X0210354Y0143964D01*
X0209188Y0143480D01*
X0208294Y0142587D01*
X0207811Y0141420D01*
X0207811Y0140157D01*
X0208294Y0138991D01*
X0209188Y0138098D01*
X0210354Y0137614D01*
X0211617Y0137614D01*
X0212784Y0138098D01*
X0213677Y0138991D01*
X0214161Y0140157D01*
X0214161Y0140605D01*
X0218370Y0144814D01*
X0219761Y0146205D01*
X0219761Y0152570D01*
X0220154Y0152176D01*
X0221354Y0151680D01*
X0221909Y0151680D01*
X0225691Y0147897D01*
X0225691Y0141397D01*
X0225299Y0141005D01*
X0224802Y0139805D01*
X0224802Y0138507D01*
X0225299Y0137307D01*
X0225752Y0136854D01*
X0225662Y0136764D01*
X0182002Y0136764D01*
X0180611Y0135373D01*
X0174986Y0129747D01*
X0169986Y0134747D01*
X0170189Y0134831D01*
X0171082Y0135724D01*
X0171565Y0136891D01*
X0171565Y0138154D01*
X0171082Y0139321D01*
X0170677Y0139726D01*
X0170677Y0152970D01*
X0170994Y0153287D01*
X0171477Y0154454D01*
X0171477Y0155717D01*
X0170994Y0156883D01*
X0170101Y0157777D01*
X0168934Y0158260D01*
X0167671Y0158260D01*
X0166504Y0157777D01*
X0165611Y0156883D01*
X0165128Y0155717D01*
X0165128Y0154454D01*
X0165611Y0153287D01*
X0165928Y0152970D01*
X0165928Y0139550D01*
X0165699Y0139321D01*
X0165216Y0138154D01*
X0165216Y0136891D01*
X0165321Y0136638D01*
X0133510Y0136638D01*
X0134219Y0137346D01*
X0134716Y0138546D01*
X0134716Y0139844D01*
X0134219Y0141044D01*
X0133301Y0141962D01*
X0132101Y0142459D01*
X0130803Y0142459D01*
X0129603Y0141962D01*
X0128685Y0141044D01*
X0128353Y0140242D01*
X0103798Y0115687D01*
X0103244Y0115687D01*
X0102044Y0115191D01*
X0101126Y0114272D01*
X0100629Y0113073D01*
X0100629Y0111774D01*
X0100882Y0111164D01*
X0096543Y0111164D01*
X0097606Y0112227D01*
X0097606Y0123251D01*
X0122885Y0148530D01*
X0123440Y0148530D01*
X0124639Y0149027D01*
X0125558Y0149945D01*
X0125825Y0150591D01*
X0131011Y0145405D01*
X0131011Y0144957D01*
X0131494Y0143791D01*
X0132388Y0142898D01*
X0133554Y0142414D01*
X0134817Y0142414D01*
X0135984Y0142898D01*
X0136877Y0143791D01*
X0137361Y0144957D01*
X0137361Y0146220D01*
X0136877Y0147387D01*
X0135984Y0148280D01*
X0134817Y0148764D01*
X0134370Y0148764D01*
X0126961Y0156173D01*
X0125570Y0157564D01*
X0108588Y0157564D01*
X0108380Y0157773D01*
X0108380Y0158220D01*
X0107896Y0159387D01*
X0107003Y0160280D01*
X0105836Y0160764D01*
X0104573Y0160764D01*
X0103406Y0160280D01*
X0102513Y0159387D01*
X0102030Y0158220D01*
X0102030Y0156957D01*
X0102513Y0155791D01*
X0103406Y0154898D01*
X0104573Y0154414D01*
X0105021Y0154414D01*
X0105230Y0154205D01*
X0106621Y0152814D01*
X0119681Y0152814D01*
X0119527Y0152443D01*
X0119527Y0151888D01*
X0094248Y0126609D01*
X0092857Y0125218D01*
X0092857Y0114195D01*
X0092673Y0114011D01*
X0086449Y0114011D01*
X0086057Y0114403D01*
X0084857Y0114900D01*
X0083559Y0114900D01*
X0082359Y0114403D01*
X0081441Y0113485D01*
X0080944Y0112285D01*
X0080944Y0111746D01*
X0080417Y0111964D01*
X0079154Y0111964D01*
X0077988Y0111480D01*
X0077094Y0110587D01*
X0076611Y0109420D01*
X0076611Y0108157D01*
X0077094Y0106991D01*
X0077988Y0106098D01*
X0079154Y0105614D01*
X0080417Y0105614D01*
X0081584Y0106098D01*
X0081901Y0106414D01*
X0088611Y0106414D01*
X0088611Y0105757D01*
X0089094Y0104591D01*
X0089988Y0103698D01*
X0091154Y0103214D01*
X0092417Y0103214D01*
X0093584Y0103698D01*
X0093901Y0104014D01*
X0102302Y0104014D01*
X0103302Y0105014D01*
X0105574Y0105014D01*
X0105411Y0104620D01*
X0105411Y0103357D01*
X0105894Y0102191D01*
X0106211Y0101874D01*
X0106211Y0094573D01*
X0079602Y0067964D01*
X0079154Y0067964D01*
X0077988Y0067480D01*
X0077094Y0066587D01*
X0076611Y0065420D01*
X0076611Y0064157D01*
X0077094Y0062991D01*
X0077988Y0062098D01*
X0079154Y0061614D01*
X0080417Y0061614D01*
X0081584Y0062098D01*
X0082477Y0062991D01*
X0082961Y0064157D01*
X0082961Y0064605D01*
X0109570Y0091214D01*
X0110211Y0091856D01*
X0110211Y0084173D01*
X0096402Y0070364D01*
X0095954Y0070364D01*
X0094788Y0069880D01*
X0093894Y0068987D01*
X0093411Y0067820D01*
X0093411Y0066557D01*
X0093894Y0065391D01*
X0094788Y0064498D01*
X0095954Y0064014D01*
X0097217Y0064014D01*
X0098384Y0064498D01*
X0099277Y0065391D01*
X0099761Y0066557D01*
X0099761Y0067005D01*
X0113570Y0080814D01*
X0114961Y0082205D01*
X0114961Y0101874D01*
X0115277Y0102191D01*
X0115761Y0103357D01*
X0115761Y0104620D01*
X0115598Y0105014D01*
X0209094Y0105014D01*
X0209094Y0104759D01*
X0203894Y0104759D01*
X0202502Y0103368D01*
X0186475Y0087341D01*
X0185921Y0087341D01*
X0184721Y0086844D01*
X0183803Y0085926D01*
X0183306Y0084726D01*
X0183306Y0083428D01*
X0183803Y0082228D01*
X0183923Y0082109D01*
X0183803Y0081989D01*
X0183306Y0080789D01*
X0183306Y0079491D01*
X0183803Y0078291D01*
X0184721Y0077373D01*
X0185921Y0076876D01*
X0187219Y0076876D01*
X0188419Y0077373D01*
X0189337Y0078291D01*
X0189754Y0079297D01*
X0190327Y0077913D01*
X0191824Y0076416D01*
X0193779Y0075606D01*
X0195896Y0075606D01*
X0197852Y0076416D01*
X0199349Y0077913D01*
X0200159Y0079869D01*
X0200159Y0081986D01*
X0199349Y0083942D01*
X0197852Y0085439D01*
X0195996Y0086208D01*
X0208341Y0098553D01*
X0232161Y0098553D01*
X0236636Y0094078D01*
X0236636Y0094078D01*
X0237569Y0093145D01*
X0230862Y0093145D01*
X0230570Y0092853D01*
X0230015Y0092853D01*
X0228816Y0092356D01*
X0227898Y0091438D01*
X0227401Y0090238D01*
X0227401Y0088940D01*
X0227898Y0087740D01*
X0228816Y0086822D01*
X0230015Y0086325D01*
X0231314Y0086325D01*
X0232513Y0086822D01*
X0233432Y0087740D01*
X0233703Y0088395D01*
X0268829Y0088395D01*
X0265311Y0084877D01*
X0258496Y0084877D01*
X0258104Y0085269D01*
X0256904Y0085766D01*
X0255606Y0085766D01*
X0254406Y0085269D01*
X0253488Y0084351D01*
X0252991Y0083152D01*
X0252991Y0081853D01*
X0253488Y0080654D01*
X0254406Y0079735D01*
X0255606Y0079239D01*
X0256904Y0079239D01*
X0258104Y0079735D01*
X0258496Y0080128D01*
X0267278Y0080128D01*
X0272295Y0085144D01*
X0272849Y0085144D01*
X0274049Y0085641D01*
X0274967Y0086559D01*
X0275464Y0087759D01*
X0275464Y0088395D01*
X0276531Y0088395D01*
X0285573Y0079353D01*
X0285573Y0072696D01*
X0285181Y0072304D01*
X0284684Y0071104D01*
X0284684Y0069806D01*
X0285181Y0068606D01*
X0286099Y0067688D01*
X0287299Y0067191D01*
X0288597Y0067191D01*
X0289797Y0067688D01*
X0290715Y0068606D01*
X0291212Y0069806D01*
X0291212Y0071104D01*
X0290715Y0072304D01*
X0290323Y0072696D01*
X0290323Y0077005D01*
X0292957Y0074372D01*
X0314369Y0074372D01*
X0314761Y0073980D01*
X0315960Y0073483D01*
X0317259Y0073483D01*
X0318458Y0073980D01*
X0319376Y0074898D01*
X0319854Y0076050D01*
X0321078Y0076050D01*
X0322277Y0076546D01*
X0323195Y0077465D01*
X0323569Y0078366D01*
X0362936Y0038999D01*
X0364327Y0037608D01*
X0484404Y0037608D01*
X0485795Y0038999D01*
X0496114Y0049317D01*
X0496668Y0049317D01*
X0497868Y0049814D01*
X0498786Y0050732D01*
X0499283Y0051932D01*
X0499283Y0053230D01*
X0498786Y0054430D01*
X0497868Y0055348D01*
X0496668Y0055845D01*
X0495370Y0055845D01*
X0494170Y0055348D01*
X0493252Y0054430D01*
X0492755Y0053230D01*
X0492755Y0052676D01*
X0482437Y0042357D01*
X0461881Y0042357D01*
X0461881Y0042994D01*
X0461384Y0044194D01*
X0460466Y0045112D01*
X0459647Y0045451D01*
X0460203Y0046008D01*
X0460700Y0047207D01*
X0460700Y0047762D01*
X0467869Y0054931D01*
X0485561Y0054931D01*
X0483326Y0052695D01*
X0482771Y0052695D01*
X0481572Y0052198D01*
X0480654Y0051280D01*
X0480157Y0050081D01*
X0480157Y0048782D01*
X0480654Y0047583D01*
X0481572Y0046665D01*
X0482771Y0046168D01*
X0484070Y0046168D01*
X0485269Y0046665D01*
X0486187Y0047583D01*
X0486684Y0048782D01*
X0486684Y0049337D01*
X0498184Y0060836D01*
X0564327Y0060836D01*
X0565984Y0059179D01*
X0565984Y0058625D01*
X0566480Y0057425D01*
X0567399Y0056507D01*
X0568598Y0056010D01*
X0569897Y0056010D01*
X0571096Y0056507D01*
X0572014Y0057425D01*
X0572511Y0058625D01*
X0572511Y0059923D01*
X0572014Y0061123D01*
X0571096Y0062041D01*
X0570203Y0062411D01*
X0607322Y0062411D01*
X0607322Y0062168D01*
X0607819Y0060969D01*
X0608737Y0060050D01*
X0609937Y0059554D01*
X0611235Y0059554D01*
X0612435Y0060050D01*
X0613353Y0060969D01*
X0613850Y0062168D01*
X0613850Y0063467D01*
X0613635Y0063986D01*
X0642278Y0063986D01*
X0643669Y0065377D01*
X0652413Y0074120D01*
X0652967Y0074120D01*
X0654167Y0074617D01*
X0654822Y0075273D02*
X0681833Y0075273D01*
X0681833Y0076071D02*
X0655307Y0076071D01*
X0655582Y0076870D02*
X0681833Y0076870D01*
X0681833Y0077668D02*
X0655582Y0077668D01*
X0655402Y0078467D02*
X0681833Y0078467D01*
X0681833Y0079265D02*
X0655053Y0079265D01*
X0654254Y0080064D02*
X0681833Y0080064D01*
X0681833Y0080862D02*
X0599070Y0080862D01*
X0600317Y0080064D02*
X0613374Y0080064D01*
X0612576Y0079265D02*
X0600904Y0079265D01*
X0601235Y0078467D02*
X0612226Y0078467D01*
X0612047Y0077668D02*
X0601251Y0077668D01*
X0601144Y0076870D02*
X0611437Y0076870D01*
X0610639Y0076071D02*
X0600813Y0076071D01*
X0600098Y0075273D02*
X0609840Y0075273D01*
X0609042Y0074474D02*
X0598042Y0074474D01*
X0597244Y0073676D02*
X0608243Y0073676D01*
X0607445Y0072877D02*
X0596445Y0072877D01*
X0595647Y0072079D02*
X0606646Y0072079D01*
X0607436Y0069510D02*
X0413342Y0069510D01*
X0403893Y0078959D01*
X0403106Y0084077D02*
X0416098Y0071085D01*
X0591295Y0071085D01*
X0597987Y0077778D01*
X0595658Y0080064D02*
X0582207Y0080064D01*
X0582794Y0079265D02*
X0595071Y0079265D01*
X0594740Y0078467D02*
X0583125Y0078467D01*
X0583141Y0077668D02*
X0594519Y0077668D01*
X0593721Y0076870D02*
X0583034Y0076870D01*
X0582703Y0076071D02*
X0592922Y0076071D01*
X0592124Y0075273D02*
X0581988Y0075273D01*
X0579932Y0074474D02*
X0591325Y0074474D01*
X0590527Y0073676D02*
X0579133Y0073676D01*
X0579877Y0077778D02*
X0574759Y0072660D01*
X0419641Y0072660D01*
X0403499Y0088802D01*
X0403106Y0089195D01*
X0403106Y0093920D02*
X0422397Y0074628D01*
X0559405Y0074628D01*
X0562948Y0078172D01*
X0565942Y0076870D02*
X0575611Y0076870D01*
X0576409Y0077668D02*
X0566212Y0077668D01*
X0566212Y0078467D02*
X0576630Y0078467D01*
X0576961Y0079265D02*
X0566028Y0079265D01*
X0565672Y0080064D02*
X0577547Y0080064D01*
X0578795Y0080862D02*
X0564873Y0080862D01*
X0561023Y0080862D02*
X0545527Y0080862D01*
X0546774Y0080064D02*
X0560225Y0080064D01*
X0559868Y0079265D02*
X0547361Y0079265D01*
X0547692Y0078467D02*
X0559684Y0078467D01*
X0559086Y0077668D02*
X0547708Y0077668D01*
X0544444Y0077778D02*
X0542869Y0076203D01*
X0426728Y0076203D01*
X0403893Y0099038D01*
X0403106Y0099038D01*
X0406255Y0105731D02*
X0413736Y0098250D01*
X0417191Y0098250D01*
X0423491Y0091951D01*
X0430665Y0091951D01*
X0475153Y0091951D01*
X0488539Y0089589D02*
X0490113Y0091164D01*
X0490901Y0091164D01*
X0488539Y0089589D02*
X0422397Y0089589D01*
X0420180Y0091806D01*
X0418999Y0091806D01*
X0418854Y0091951D01*
X0424168Y0086452D02*
X0681833Y0086452D01*
X0681833Y0087250D02*
X0489559Y0087250D01*
X0491910Y0088049D02*
X0681833Y0088049D01*
X0681833Y0088847D02*
X0502566Y0088847D01*
X0503841Y0089646D02*
X0681833Y0089646D01*
X0681833Y0090444D02*
X0504439Y0090444D01*
X0504770Y0091243D02*
X0681833Y0091243D01*
X0681833Y0092041D02*
X0504795Y0092041D01*
X0504695Y0092840D02*
X0681833Y0092840D01*
X0681833Y0093638D02*
X0504365Y0093638D01*
X0503661Y0094437D02*
X0681833Y0094437D01*
X0681833Y0095235D02*
X0502453Y0095235D01*
X0501655Y0096034D02*
X0681833Y0096034D01*
X0681833Y0096833D02*
X0500856Y0096833D01*
X0500116Y0097573D02*
X0500116Y0097573D01*
X0500058Y0097631D02*
X0681833Y0097631D01*
X0681833Y0098430D02*
X0499232Y0098430D01*
X0496435Y0092840D02*
X0493739Y0092840D01*
X0494070Y0092041D02*
X0497233Y0092041D01*
X0498032Y0091243D02*
X0494165Y0091243D01*
X0494136Y0090444D02*
X0498622Y0090444D01*
X0499220Y0089646D02*
X0493805Y0089646D01*
X0493200Y0088847D02*
X0500495Y0088847D01*
X0525590Y0080862D02*
X0429758Y0080862D01*
X0428959Y0081661D02*
X0526389Y0081661D01*
X0528302Y0078959D02*
X0527121Y0077778D01*
X0429484Y0077778D01*
X0403106Y0104156D01*
X0406255Y0105731D02*
X0406255Y0112424D01*
X0403106Y0115573D01*
X0359405Y0115573D01*
X0356378Y0116795D02*
X0342095Y0116795D01*
X0342095Y0115997D02*
X0356141Y0115997D01*
X0356141Y0116222D02*
X0356141Y0114924D01*
X0356638Y0113724D01*
X0357031Y0113331D01*
X0356769Y0113222D01*
X0355850Y0112304D01*
X0355354Y0111104D01*
X0355354Y0109806D01*
X0355850Y0108606D01*
X0356769Y0107688D01*
X0357968Y0107191D01*
X0358523Y0107191D01*
X0361361Y0104353D01*
X0361361Y0067345D01*
X0362752Y0065954D01*
X0370626Y0058080D01*
X0464301Y0058080D01*
X0457342Y0051120D01*
X0456787Y0051120D01*
X0455588Y0050624D01*
X0454669Y0049705D01*
X0454173Y0048506D01*
X0454173Y0047207D01*
X0454669Y0046008D01*
X0455588Y0045090D01*
X0456407Y0044750D01*
X0456377Y0044720D01*
X0368262Y0044720D01*
X0367107Y0045876D01*
X0369050Y0045876D01*
X0423306Y0045876D01*
X0423698Y0045483D01*
X0424897Y0044987D01*
X0426196Y0044987D01*
X0427395Y0045483D01*
X0428313Y0046402D01*
X0428810Y0047601D01*
X0428810Y0048900D01*
X0428313Y0050099D01*
X0427395Y0051017D01*
X0426196Y0051514D01*
X0424897Y0051514D01*
X0423698Y0051017D01*
X0423306Y0050625D01*
X0369050Y0050625D01*
X0326054Y0093621D01*
X0326054Y0094569D01*
X0325558Y0095768D01*
X0324639Y0096687D01*
X0323440Y0097183D01*
X0322141Y0097183D01*
X0321428Y0096888D01*
X0321724Y0097601D01*
X0321724Y0098631D01*
X0336374Y0098631D01*
X0338424Y0096581D01*
X0338424Y0096026D01*
X0338921Y0094827D01*
X0339839Y0093909D01*
X0341039Y0093412D01*
X0342337Y0093412D01*
X0343537Y0093909D01*
X0344455Y0094827D01*
X0344952Y0096026D01*
X0344952Y0097325D01*
X0344455Y0098524D01*
X0343537Y0099442D01*
X0342337Y0099939D01*
X0341783Y0099939D01*
X0338341Y0103381D01*
X0241567Y0103381D01*
X0241175Y0103773D01*
X0240854Y0103906D01*
X0241015Y0104294D01*
X0241015Y0105014D01*
X0332913Y0105014D01*
X0334304Y0106405D01*
X0342095Y0114196D01*
X0342095Y0120394D01*
X0342202Y0120287D01*
X0343401Y0119790D01*
X0344700Y0119790D01*
X0345899Y0120287D01*
X0346291Y0120679D01*
X0355747Y0120679D01*
X0355747Y0120042D01*
X0356244Y0118843D01*
X0357151Y0117935D01*
X0356638Y0117422D01*
X0356141Y0116222D01*
X0356141Y0115198D02*
X0342095Y0115198D01*
X0342095Y0114400D02*
X0356358Y0114400D01*
X0356761Y0113601D02*
X0341500Y0113601D01*
X0340701Y0112803D02*
X0356349Y0112803D01*
X0355726Y0112004D02*
X0339903Y0112004D01*
X0339104Y0111206D02*
X0355396Y0111206D01*
X0355354Y0110407D02*
X0338306Y0110407D01*
X0337507Y0109609D02*
X0355435Y0109609D01*
X0355766Y0108810D02*
X0336709Y0108810D01*
X0335910Y0108012D02*
X0356445Y0108012D01*
X0357915Y0107213D02*
X0335112Y0107213D01*
X0334313Y0106415D02*
X0359299Y0106415D01*
X0360098Y0105616D02*
X0333515Y0105616D01*
X0331929Y0107389D02*
X0273184Y0107389D01*
X0271610Y0107389D01*
X0102318Y0107389D01*
X0101318Y0106389D01*
X0091786Y0106389D01*
X0089666Y0104019D02*
X0062561Y0104019D01*
X0062561Y0103221D02*
X0091139Y0103221D01*
X0092433Y0103221D02*
X0105468Y0103221D01*
X0105411Y0104019D02*
X0102307Y0104019D01*
X0103105Y0104818D02*
X0105493Y0104818D01*
X0105799Y0102422D02*
X0062561Y0102422D01*
X0062561Y0101624D02*
X0106211Y0101624D01*
X0106211Y0100825D02*
X0062561Y0100825D01*
X0062561Y0100027D02*
X0106211Y0100027D01*
X0106211Y0099228D02*
X0062561Y0099228D01*
X0062561Y0098430D02*
X0106211Y0098430D01*
X0106211Y0097631D02*
X0062561Y0097631D01*
X0062561Y0096833D02*
X0106211Y0096833D01*
X0106211Y0096034D02*
X0062561Y0096034D01*
X0062561Y0095235D02*
X0106211Y0095235D01*
X0106075Y0094437D02*
X0062561Y0094437D01*
X0062561Y0093638D02*
X0105277Y0093638D01*
X0104478Y0092840D02*
X0062561Y0092840D01*
X0062561Y0092041D02*
X0103680Y0092041D01*
X0102881Y0091243D02*
X0062561Y0091243D01*
X0062561Y0090444D02*
X0102083Y0090444D01*
X0101284Y0089646D02*
X0062561Y0089646D01*
X0062561Y0088847D02*
X0100486Y0088847D01*
X0099687Y0088049D02*
X0062561Y0088049D01*
X0062561Y0087250D02*
X0098889Y0087250D01*
X0098090Y0086452D02*
X0062561Y0086452D01*
X0062561Y0085653D02*
X0097292Y0085653D01*
X0096493Y0084855D02*
X0062561Y0084855D01*
X0062561Y0084056D02*
X0095695Y0084056D01*
X0094896Y0083258D02*
X0062561Y0083258D01*
X0062561Y0082459D02*
X0094098Y0082459D01*
X0093299Y0081661D02*
X0062561Y0081661D01*
X0062561Y0080862D02*
X0092501Y0080862D01*
X0091702Y0080064D02*
X0062561Y0080064D01*
X0062561Y0079265D02*
X0090904Y0079265D01*
X0090105Y0078467D02*
X0062561Y0078467D01*
X0062561Y0077668D02*
X0089307Y0077668D01*
X0088508Y0076870D02*
X0062561Y0076870D01*
X0062561Y0076071D02*
X0087710Y0076071D01*
X0086911Y0075273D02*
X0062561Y0075273D01*
X0062561Y0074474D02*
X0086113Y0074474D01*
X0085314Y0073676D02*
X0062561Y0073676D01*
X0062561Y0072877D02*
X0084516Y0072877D01*
X0083717Y0072079D02*
X0062561Y0072079D01*
X0062561Y0071280D02*
X0082919Y0071280D01*
X0082120Y0070482D02*
X0062561Y0070482D01*
X0062561Y0069683D02*
X0081322Y0069683D01*
X0080523Y0068885D02*
X0062561Y0068885D01*
X0062561Y0068086D02*
X0079725Y0068086D01*
X0077795Y0067288D02*
X0062561Y0067288D01*
X0062561Y0066489D02*
X0077054Y0066489D01*
X0076723Y0065691D02*
X0062561Y0065691D01*
X0062561Y0064892D02*
X0076611Y0064892D01*
X0076638Y0064094D02*
X0062561Y0064094D01*
X0062561Y0063295D02*
X0076968Y0063295D01*
X0077588Y0062497D02*
X0062561Y0062497D01*
X0062561Y0061698D02*
X0078952Y0061698D01*
X0080620Y0061698D02*
X0202299Y0061698D01*
X0202299Y0060900D02*
X0062561Y0060900D01*
X0062561Y0060101D02*
X0202299Y0060101D01*
X0202299Y0059302D02*
X0062561Y0059302D01*
X0062561Y0058504D02*
X0202299Y0058504D01*
X0202299Y0057705D02*
X0062561Y0057705D01*
X0062561Y0056907D02*
X0202299Y0056907D01*
X0202299Y0056108D02*
X0062561Y0056108D01*
X0062561Y0055310D02*
X0202299Y0055310D01*
X0202299Y0055179D02*
X0202722Y0054159D01*
X0209802Y0047079D01*
X0210821Y0046657D01*
X0230803Y0046657D01*
X0231984Y0046168D01*
X0233282Y0046168D01*
X0234482Y0046665D01*
X0235400Y0047583D01*
X0235897Y0048782D01*
X0235897Y0050081D01*
X0235400Y0051280D01*
X0234482Y0052198D01*
X0233282Y0052695D01*
X0231984Y0052695D01*
X0230803Y0052206D01*
X0212523Y0052206D01*
X0207849Y0056880D01*
X0207849Y0062956D01*
X0208338Y0064137D01*
X0208338Y0065435D01*
X0207841Y0066635D01*
X0206923Y0067553D01*
X0205723Y0068050D01*
X0204425Y0068050D01*
X0203225Y0067553D01*
X0202307Y0066635D01*
X0201810Y0065435D01*
X0201810Y0064137D01*
X0202299Y0062956D01*
X0202299Y0055179D01*
X0202576Y0054511D02*
X0062561Y0054511D01*
X0062561Y0053713D02*
X0203168Y0053713D01*
X0203966Y0052914D02*
X0062561Y0052914D01*
X0062561Y0052116D02*
X0204765Y0052116D01*
X0205563Y0051317D02*
X0062561Y0051317D01*
X0062561Y0050519D02*
X0206362Y0050519D01*
X0207160Y0049720D02*
X0062561Y0049720D01*
X0062561Y0048922D02*
X0070456Y0048922D01*
X0070751Y0049044D02*
X0067710Y0047784D01*
X0065383Y0045457D01*
X0064123Y0042416D01*
X0064123Y0039124D01*
X0065383Y0036083D01*
X0067710Y0033756D01*
X0070751Y0032496D01*
X0074043Y0032496D01*
X0077084Y0033756D01*
X0079411Y0036083D01*
X0080671Y0039124D01*
X0080671Y0042416D01*
X0079411Y0045457D01*
X0077084Y0047784D01*
X0074043Y0049044D01*
X0070751Y0049044D01*
X0068528Y0048123D02*
X0062561Y0048123D01*
X0062561Y0047325D02*
X0067250Y0047325D01*
X0066452Y0046526D02*
X0062561Y0046526D01*
X0062561Y0045728D02*
X0065653Y0045728D01*
X0065164Y0044929D02*
X0062561Y0044929D01*
X0062561Y0044131D02*
X0064833Y0044131D01*
X0064502Y0043332D02*
X0062561Y0043332D01*
X0062561Y0042534D02*
X0064172Y0042534D01*
X0064123Y0041735D02*
X0062561Y0041735D01*
X0062561Y0040937D02*
X0064123Y0040937D01*
X0064123Y0040138D02*
X0062561Y0040138D01*
X0062561Y0039340D02*
X0064123Y0039340D01*
X0064364Y0038541D02*
X0062561Y0038541D01*
X0062561Y0037743D02*
X0064695Y0037743D01*
X0065026Y0036944D02*
X0062561Y0036944D01*
X0062561Y0036146D02*
X0065357Y0036146D01*
X0066119Y0035347D02*
X0062561Y0035347D01*
X0062561Y0034549D02*
X0066917Y0034549D01*
X0067724Y0033750D02*
X0062561Y0033750D01*
X0062561Y0032952D02*
X0069651Y0032952D01*
X0075143Y0032952D02*
X0238232Y0032952D01*
X0238232Y0033750D02*
X0077070Y0033750D01*
X0077877Y0034549D02*
X0238232Y0034549D01*
X0238232Y0035347D02*
X0078675Y0035347D01*
X0079437Y0036146D02*
X0238232Y0036146D01*
X0238232Y0036944D02*
X0079768Y0036944D01*
X0080099Y0037743D02*
X0238232Y0037743D01*
X0238232Y0038541D02*
X0080429Y0038541D01*
X0080671Y0039340D02*
X0238232Y0039340D01*
X0238232Y0040138D02*
X0080671Y0040138D01*
X0080671Y0040937D02*
X0238232Y0040937D01*
X0238232Y0041735D02*
X0080671Y0041735D01*
X0080622Y0042534D02*
X0238232Y0042534D01*
X0238232Y0043332D02*
X0080291Y0043332D01*
X0079961Y0044131D02*
X0238232Y0044131D01*
X0238232Y0044929D02*
X0079630Y0044929D01*
X0079140Y0045728D02*
X0238232Y0045728D01*
X0238232Y0046526D02*
X0234148Y0046526D01*
X0235142Y0047325D02*
X0238232Y0047325D01*
X0238232Y0048123D02*
X0235624Y0048123D01*
X0235897Y0048922D02*
X0238232Y0048922D01*
X0238232Y0049720D02*
X0235897Y0049720D01*
X0235715Y0050519D02*
X0238232Y0050519D01*
X0238232Y0051317D02*
X0235363Y0051317D01*
X0234564Y0052116D02*
X0238232Y0052116D01*
X0238232Y0052914D02*
X0211815Y0052914D01*
X0211016Y0053713D02*
X0238232Y0053713D01*
X0238232Y0054511D02*
X0210218Y0054511D01*
X0209419Y0055310D02*
X0238232Y0055310D01*
X0238232Y0056108D02*
X0208620Y0056108D01*
X0207849Y0056907D02*
X0238232Y0056907D01*
X0238232Y0057705D02*
X0207849Y0057705D01*
X0207849Y0058504D02*
X0238232Y0058504D01*
X0238232Y0059302D02*
X0207849Y0059302D01*
X0207849Y0060101D02*
X0238232Y0060101D01*
X0238232Y0060900D02*
X0207849Y0060900D01*
X0207849Y0061698D02*
X0238232Y0061698D01*
X0238232Y0062497D02*
X0207849Y0062497D01*
X0207989Y0063295D02*
X0238232Y0063295D01*
X0238232Y0064094D02*
X0208320Y0064094D01*
X0208338Y0064892D02*
X0238232Y0064892D01*
X0238232Y0065691D02*
X0208232Y0065691D01*
X0207901Y0066489D02*
X0238232Y0066489D01*
X0238232Y0067288D02*
X0207188Y0067288D01*
X0202960Y0067288D02*
X0200260Y0067288D01*
X0200260Y0066859D02*
X0200260Y0069012D01*
X0199212Y0070892D01*
X0199212Y0070892D01*
X0197381Y0072025D01*
X0197071Y0072039D01*
X0197034Y0072076D01*
X0196261Y0072076D01*
X0195488Y0072111D01*
X0195450Y0072076D01*
X0192351Y0072076D01*
X0190429Y0070966D01*
X0189320Y0069045D01*
X0189320Y0066826D01*
X0190429Y0064905D01*
X0190429Y0064905D01*
X0192351Y0063795D01*
X0192642Y0063795D01*
X0195450Y0063795D01*
X0195488Y0063760D01*
X0196261Y0063795D01*
X0197034Y0063795D01*
X0197071Y0063832D01*
X0197381Y0063846D01*
X0199212Y0064978D01*
X0199212Y0064978D01*
X0199212Y0064978D01*
X0200260Y0066859D01*
X0200054Y0066489D02*
X0202247Y0066489D01*
X0201916Y0065691D02*
X0199609Y0065691D01*
X0199072Y0064892D02*
X0201810Y0064892D01*
X0201828Y0064094D02*
X0197781Y0064094D01*
X0197381Y0063846D02*
X0197381Y0063846D01*
X0202159Y0063295D02*
X0121950Y0063295D01*
X0122262Y0063424D02*
X0123758Y0064921D01*
X0124569Y0066877D01*
X0124569Y0068994D01*
X0123758Y0070950D01*
X0122262Y0072447D01*
X0120306Y0073257D01*
X0118189Y0073257D01*
X0116233Y0072447D01*
X0114736Y0070950D01*
X0113926Y0068994D01*
X0113926Y0066877D01*
X0114736Y0064921D01*
X0116233Y0063424D01*
X0118189Y0062614D01*
X0120306Y0062614D01*
X0122262Y0063424D01*
X0122931Y0064094D02*
X0191834Y0064094D01*
X0190451Y0064892D02*
X0123729Y0064892D01*
X0124077Y0065691D02*
X0189975Y0065691D01*
X0189514Y0066489D02*
X0124408Y0066489D01*
X0124569Y0067288D02*
X0189320Y0067288D01*
X0189320Y0066826D02*
X0189320Y0066826D01*
X0189320Y0068086D02*
X0162990Y0068086D01*
X0162828Y0067924D02*
X0163746Y0068843D01*
X0164243Y0070042D01*
X0164243Y0071341D01*
X0163746Y0072540D01*
X0162828Y0073458D01*
X0161629Y0073955D01*
X0160330Y0073955D01*
X0159131Y0073458D01*
X0158739Y0073066D01*
X0152984Y0073066D01*
X0152592Y0073458D01*
X0151393Y0073955D01*
X0150094Y0073955D01*
X0148895Y0073458D01*
X0147976Y0072540D01*
X0147480Y0071341D01*
X0147480Y0070042D01*
X0147976Y0068843D01*
X0148895Y0067924D01*
X0150094Y0067428D01*
X0151393Y0067428D01*
X0152592Y0067924D01*
X0152984Y0068317D01*
X0158739Y0068317D01*
X0159131Y0067924D01*
X0160330Y0067428D01*
X0161629Y0067428D01*
X0162828Y0067924D01*
X0163764Y0068885D02*
X0189320Y0068885D01*
X0189688Y0069683D02*
X0164095Y0069683D01*
X0164243Y0070482D02*
X0190149Y0070482D01*
X0190429Y0070966D02*
X0190429Y0070966D01*
X0190429Y0070966D01*
X0190973Y0071280D02*
X0164243Y0071280D01*
X0163938Y0072079D02*
X0195453Y0072079D01*
X0196192Y0072079D02*
X0285088Y0072079D01*
X0284757Y0071280D02*
X0198585Y0071280D01*
X0199212Y0070892D02*
X0199212Y0070892D01*
X0199441Y0070482D02*
X0284684Y0070482D01*
X0284735Y0069683D02*
X0277545Y0069683D01*
X0277949Y0068885D02*
X0285066Y0068885D01*
X0285701Y0068086D02*
X0278215Y0068086D01*
X0278215Y0067288D02*
X0287066Y0067288D01*
X0288830Y0067288D02*
X0334647Y0067288D01*
X0333848Y0068086D02*
X0290195Y0068086D01*
X0290830Y0068885D02*
X0333050Y0068885D01*
X0332251Y0069683D02*
X0291161Y0069683D01*
X0291212Y0070482D02*
X0331453Y0070482D01*
X0330654Y0071280D02*
X0291139Y0071280D01*
X0290808Y0072079D02*
X0329856Y0072079D01*
X0329057Y0072877D02*
X0290323Y0072877D01*
X0290323Y0073676D02*
X0315494Y0073676D01*
X0317725Y0073676D02*
X0328259Y0073676D01*
X0327460Y0074474D02*
X0318953Y0074474D01*
X0319532Y0075273D02*
X0326662Y0075273D01*
X0325863Y0076071D02*
X0321130Y0076071D01*
X0322600Y0076870D02*
X0325065Y0076870D01*
X0324266Y0077668D02*
X0323280Y0077668D01*
X0320428Y0079313D02*
X0293696Y0079313D01*
X0277121Y0095888D01*
X0277121Y0095888D01*
X0275783Y0097227D01*
X0239602Y0097227D01*
X0234444Y0102384D01*
X0204877Y0102384D01*
X0186570Y0084077D01*
X0183306Y0084056D02*
X0157569Y0084056D01*
X0157447Y0084351D02*
X0156529Y0085269D01*
X0156268Y0085378D01*
X0156268Y0086243D01*
X0164325Y0094301D01*
X0179999Y0094301D01*
X0180391Y0093909D01*
X0181590Y0093412D01*
X0182889Y0093412D01*
X0184088Y0093909D01*
X0185006Y0094827D01*
X0185503Y0096026D01*
X0185503Y0097325D01*
X0185006Y0098524D01*
X0184088Y0099442D01*
X0182889Y0099939D01*
X0181590Y0099939D01*
X0180391Y0099442D01*
X0179999Y0099050D01*
X0162358Y0099050D01*
X0160967Y0097659D01*
X0151518Y0088210D01*
X0151518Y0083397D01*
X0151417Y0083152D01*
X0151417Y0081853D01*
X0151913Y0080654D01*
X0152832Y0079735D01*
X0154031Y0079239D01*
X0155330Y0079239D01*
X0156529Y0079735D01*
X0157447Y0080654D01*
X0157944Y0081853D01*
X0157944Y0083152D01*
X0157447Y0084351D01*
X0156944Y0084855D02*
X0183360Y0084855D01*
X0183690Y0085653D02*
X0156268Y0085653D01*
X0156477Y0086452D02*
X0184329Y0086452D01*
X0185702Y0087250D02*
X0157275Y0087250D01*
X0158074Y0088049D02*
X0187183Y0088049D01*
X0187982Y0088847D02*
X0158872Y0088847D01*
X0159671Y0089646D02*
X0188780Y0089646D01*
X0189579Y0090444D02*
X0160469Y0090444D01*
X0161268Y0091243D02*
X0190377Y0091243D01*
X0191176Y0092041D02*
X0162066Y0092041D01*
X0162865Y0092840D02*
X0191974Y0092840D01*
X0192773Y0093638D02*
X0183436Y0093638D01*
X0184617Y0094437D02*
X0193571Y0094437D01*
X0194370Y0095235D02*
X0185176Y0095235D01*
X0185503Y0096034D02*
X0195169Y0096034D01*
X0195967Y0096833D02*
X0185503Y0096833D01*
X0185376Y0097631D02*
X0196766Y0097631D01*
X0197564Y0098430D02*
X0185046Y0098430D01*
X0184303Y0099228D02*
X0198363Y0099228D01*
X0199161Y0100027D02*
X0114961Y0100027D01*
X0114961Y0100825D02*
X0199960Y0100825D01*
X0200758Y0101624D02*
X0114961Y0101624D01*
X0115373Y0102422D02*
X0201557Y0102422D01*
X0202355Y0103221D02*
X0115704Y0103221D01*
X0115761Y0104019D02*
X0203154Y0104019D01*
X0207358Y0100928D02*
X0186570Y0080140D01*
X0183306Y0080064D02*
X0156857Y0080064D01*
X0157534Y0080862D02*
X0183337Y0080862D01*
X0183667Y0081661D02*
X0157864Y0081661D01*
X0157944Y0082459D02*
X0183708Y0082459D01*
X0183377Y0083258D02*
X0157900Y0083258D01*
X0154680Y0082502D02*
X0153893Y0083290D01*
X0153893Y0087227D01*
X0163342Y0096676D01*
X0182239Y0096676D01*
X0181043Y0093638D02*
X0163663Y0093638D01*
X0160140Y0096833D02*
X0114961Y0096833D01*
X0114961Y0097631D02*
X0160939Y0097631D01*
X0161737Y0098430D02*
X0114961Y0098430D01*
X0114961Y0099228D02*
X0180176Y0099228D01*
X0159342Y0096034D02*
X0114961Y0096034D01*
X0114961Y0095235D02*
X0158543Y0095235D01*
X0157745Y0094437D02*
X0114961Y0094437D01*
X0114961Y0093638D02*
X0156946Y0093638D01*
X0156148Y0092840D02*
X0114961Y0092840D01*
X0114961Y0092041D02*
X0155349Y0092041D01*
X0154551Y0091243D02*
X0114961Y0091243D01*
X0114961Y0090444D02*
X0153752Y0090444D01*
X0152954Y0089646D02*
X0114961Y0089646D01*
X0114961Y0088847D02*
X0152155Y0088847D01*
X0151518Y0088049D02*
X0114961Y0088049D01*
X0114961Y0087250D02*
X0151518Y0087250D01*
X0151518Y0086452D02*
X0114961Y0086452D01*
X0114961Y0085653D02*
X0151518Y0085653D01*
X0151518Y0084855D02*
X0120585Y0084855D01*
X0120071Y0085068D02*
X0118424Y0085068D01*
X0116902Y0084437D01*
X0115737Y0083273D01*
X0115107Y0081751D01*
X0115107Y0080104D01*
X0115737Y0078582D01*
X0116902Y0077418D01*
X0118424Y0076787D01*
X0120071Y0076787D01*
X0121593Y0077418D01*
X0122757Y0078582D01*
X0123387Y0080104D01*
X0123387Y0081751D01*
X0122757Y0083273D01*
X0121593Y0084437D01*
X0120071Y0085068D01*
X0121974Y0084056D02*
X0151518Y0084056D01*
X0151461Y0083258D02*
X0122763Y0083258D01*
X0123094Y0082459D02*
X0151417Y0082459D01*
X0151496Y0081661D02*
X0123387Y0081661D01*
X0123387Y0080862D02*
X0151827Y0080862D01*
X0152503Y0080064D02*
X0123371Y0080064D01*
X0123040Y0079265D02*
X0153967Y0079265D01*
X0155394Y0079265D02*
X0183400Y0079265D01*
X0183731Y0078467D02*
X0122642Y0078467D01*
X0121843Y0077668D02*
X0184426Y0077668D01*
X0188714Y0077668D02*
X0190572Y0077668D01*
X0190097Y0078467D02*
X0189410Y0078467D01*
X0189740Y0079265D02*
X0189767Y0079265D01*
X0191370Y0076870D02*
X0120270Y0076870D01*
X0118225Y0076870D02*
X0109625Y0076870D01*
X0110424Y0077668D02*
X0116652Y0077668D01*
X0115853Y0078467D02*
X0111222Y0078467D01*
X0112021Y0079265D02*
X0115455Y0079265D01*
X0115124Y0080064D02*
X0112819Y0080064D01*
X0113618Y0080862D02*
X0115107Y0080862D01*
X0115107Y0081661D02*
X0114416Y0081661D01*
X0114961Y0082459D02*
X0115401Y0082459D01*
X0115731Y0083258D02*
X0114961Y0083258D01*
X0114961Y0084056D02*
X0116521Y0084056D01*
X0117910Y0084855D02*
X0114961Y0084855D01*
X0112586Y0083189D02*
X0112586Y0103989D01*
X0115679Y0104818D02*
X0209094Y0104818D01*
X0212358Y0104746D02*
X0237554Y0104746D01*
X0237751Y0104943D01*
X0241015Y0104818D02*
X0360896Y0104818D01*
X0361361Y0104019D02*
X0240901Y0104019D01*
X0239720Y0101006D02*
X0239326Y0101006D01*
X0239720Y0101006D02*
X0337358Y0101006D01*
X0341688Y0096676D01*
X0340492Y0093638D02*
X0326054Y0093638D01*
X0326054Y0094437D02*
X0339311Y0094437D01*
X0338752Y0095235D02*
X0325778Y0095235D01*
X0325292Y0096034D02*
X0338424Y0096034D01*
X0338173Y0096833D02*
X0324287Y0096833D01*
X0321724Y0097631D02*
X0337374Y0097631D01*
X0336576Y0098430D02*
X0321724Y0098430D01*
X0318460Y0098250D02*
X0289720Y0098250D01*
X0288932Y0098250D01*
X0288932Y0094313D02*
X0315310Y0094313D01*
X0367279Y0042345D01*
X0458617Y0042345D01*
X0461881Y0042534D02*
X0482613Y0042534D01*
X0483412Y0043332D02*
X0461741Y0043332D01*
X0461410Y0044131D02*
X0484210Y0044131D01*
X0485009Y0044929D02*
X0460649Y0044929D01*
X0459923Y0045728D02*
X0485807Y0045728D01*
X0486606Y0046526D02*
X0484935Y0046526D01*
X0485930Y0047325D02*
X0487404Y0047325D01*
X0488203Y0048123D02*
X0486411Y0048123D01*
X0486684Y0048922D02*
X0489001Y0048922D01*
X0489800Y0049720D02*
X0487068Y0049720D01*
X0487866Y0050519D02*
X0490598Y0050519D01*
X0491397Y0051317D02*
X0488665Y0051317D01*
X0489463Y0052116D02*
X0492195Y0052116D01*
X0492755Y0052914D02*
X0490262Y0052914D01*
X0491060Y0053713D02*
X0492955Y0053713D01*
X0493334Y0054511D02*
X0491859Y0054511D01*
X0492657Y0055310D02*
X0494132Y0055310D01*
X0493456Y0056108D02*
X0530734Y0056108D01*
X0530461Y0055451D02*
X0531152Y0057118D01*
X0532427Y0058393D01*
X0534094Y0059083D01*
X0535897Y0059083D01*
X0537564Y0058393D01*
X0538839Y0057118D01*
X0539529Y0055451D01*
X0539529Y0053648D01*
X0538839Y0051981D01*
X0537564Y0050706D01*
X0535897Y0050016D01*
X0534094Y0050016D01*
X0532427Y0050706D01*
X0531152Y0051981D01*
X0530461Y0053648D01*
X0530461Y0055451D01*
X0530461Y0055310D02*
X0497906Y0055310D01*
X0498704Y0054511D02*
X0530461Y0054511D01*
X0530461Y0053713D02*
X0499083Y0053713D01*
X0499283Y0052914D02*
X0530765Y0052914D01*
X0531096Y0052116D02*
X0499283Y0052116D01*
X0499028Y0051317D02*
X0531816Y0051317D01*
X0532879Y0050519D02*
X0498572Y0050519D01*
X0497641Y0049720D02*
X0681833Y0049720D01*
X0681833Y0048922D02*
X0645412Y0048922D01*
X0645270Y0048968D02*
X0644647Y0049067D01*
X0644647Y0045107D01*
X0643847Y0045107D01*
X0643847Y0044307D01*
X0639888Y0044307D01*
X0639986Y0043684D01*
X0640199Y0043030D01*
X0640511Y0042417D01*
X0640915Y0041861D01*
X0641401Y0041375D01*
X0641958Y0040971D01*
X0642570Y0040659D01*
X0643224Y0040446D01*
X0643847Y0040347D01*
X0643847Y0044307D01*
X0644647Y0044307D01*
X0644647Y0040347D01*
X0645270Y0040446D01*
X0645924Y0040659D01*
X0646537Y0040971D01*
X0647093Y0041375D01*
X0647579Y0041861D01*
X0647984Y0042417D01*
X0648296Y0043030D01*
X0648508Y0043684D01*
X0648607Y0044307D01*
X0644647Y0044307D01*
X0644647Y0045107D01*
X0648607Y0045107D01*
X0648508Y0045730D01*
X0648296Y0046384D01*
X0647984Y0046997D01*
X0647579Y0047553D01*
X0647093Y0048039D01*
X0646537Y0048443D01*
X0645924Y0048756D01*
X0645270Y0048968D01*
X0644647Y0048922D02*
X0643847Y0048922D01*
X0643847Y0049067D02*
X0643224Y0048968D01*
X0642570Y0048756D01*
X0641958Y0048443D01*
X0641401Y0048039D01*
X0640915Y0047553D01*
X0640511Y0046997D01*
X0640199Y0046384D01*
X0639986Y0045730D01*
X0639888Y0045107D01*
X0643847Y0045107D01*
X0643847Y0049067D01*
X0643082Y0048922D02*
X0629273Y0048922D01*
X0629331Y0048898D02*
X0627514Y0049650D01*
X0625547Y0049650D01*
X0623731Y0048898D01*
X0622340Y0047507D01*
X0621587Y0045690D01*
X0621587Y0043724D01*
X0622340Y0041907D01*
X0623731Y0040516D01*
X0625547Y0039764D01*
X0627514Y0039764D01*
X0629331Y0040516D01*
X0630722Y0041907D01*
X0631474Y0043724D01*
X0631474Y0045690D01*
X0630722Y0047507D01*
X0629331Y0048898D01*
X0630105Y0048123D02*
X0641517Y0048123D01*
X0640749Y0047325D02*
X0630797Y0047325D01*
X0631128Y0046526D02*
X0640271Y0046526D01*
X0639986Y0045728D02*
X0631459Y0045728D01*
X0631474Y0044929D02*
X0643847Y0044929D01*
X0643847Y0044131D02*
X0644647Y0044131D01*
X0644647Y0044929D02*
X0681833Y0044929D01*
X0681833Y0044131D02*
X0648579Y0044131D01*
X0648394Y0043332D02*
X0681833Y0043332D01*
X0681833Y0042534D02*
X0648043Y0042534D01*
X0647453Y0041735D02*
X0681833Y0041735D01*
X0681833Y0040937D02*
X0646470Y0040937D01*
X0644647Y0040937D02*
X0643847Y0040937D01*
X0643847Y0041735D02*
X0644647Y0041735D01*
X0644647Y0042534D02*
X0643847Y0042534D01*
X0643847Y0043332D02*
X0644647Y0043332D01*
X0644647Y0045728D02*
X0643847Y0045728D01*
X0643847Y0046526D02*
X0644647Y0046526D01*
X0644647Y0047325D02*
X0643847Y0047325D01*
X0643847Y0048123D02*
X0644647Y0048123D01*
X0646977Y0048123D02*
X0681833Y0048123D01*
X0681833Y0047325D02*
X0647745Y0047325D01*
X0648223Y0046526D02*
X0681833Y0046526D01*
X0681833Y0045728D02*
X0648509Y0045728D01*
X0642025Y0040937D02*
X0629751Y0040937D01*
X0630550Y0041735D02*
X0641041Y0041735D01*
X0640452Y0042534D02*
X0630981Y0042534D01*
X0631312Y0043332D02*
X0640101Y0043332D01*
X0639916Y0044131D02*
X0631474Y0044131D01*
X0623310Y0040937D02*
X0603163Y0040937D01*
X0603230Y0040971D02*
X0603786Y0041375D01*
X0604272Y0041861D01*
X0604677Y0042417D01*
X0604989Y0043030D01*
X0605201Y0043684D01*
X0605300Y0044307D01*
X0601340Y0044307D01*
X0601340Y0040347D01*
X0601963Y0040446D01*
X0602617Y0040659D01*
X0603230Y0040971D01*
X0604146Y0041735D02*
X0622512Y0041735D01*
X0622080Y0042534D02*
X0604736Y0042534D01*
X0605087Y0043332D02*
X0621750Y0043332D01*
X0621587Y0044131D02*
X0605272Y0044131D01*
X0605300Y0045107D02*
X0605201Y0045730D01*
X0604989Y0046384D01*
X0604677Y0046997D01*
X0604272Y0047553D01*
X0603786Y0048039D01*
X0603230Y0048443D01*
X0602617Y0048756D01*
X0601963Y0048968D01*
X0601340Y0049067D01*
X0601340Y0045107D01*
X0600540Y0045107D01*
X0600540Y0044307D01*
X0596581Y0044307D01*
X0596679Y0043684D01*
X0596892Y0043030D01*
X0597204Y0042417D01*
X0597608Y0041861D01*
X0598094Y0041375D01*
X0598651Y0040971D01*
X0599263Y0040659D01*
X0599917Y0040446D01*
X0600540Y0040347D01*
X0600540Y0044307D01*
X0601340Y0044307D01*
X0601340Y0045107D01*
X0605300Y0045107D01*
X0605202Y0045728D02*
X0621603Y0045728D01*
X0621587Y0044929D02*
X0601340Y0044929D01*
X0601340Y0044131D02*
X0600540Y0044131D01*
X0600540Y0044929D02*
X0588167Y0044929D01*
X0588167Y0045690D02*
X0587414Y0047507D01*
X0586024Y0048898D01*
X0584207Y0049650D01*
X0582240Y0049650D01*
X0580424Y0048898D01*
X0579033Y0047507D01*
X0578280Y0045690D01*
X0578280Y0043724D01*
X0579033Y0041907D01*
X0580424Y0040516D01*
X0582240Y0039764D01*
X0584207Y0039764D01*
X0586024Y0040516D01*
X0587414Y0041907D01*
X0588167Y0043724D01*
X0588167Y0045690D01*
X0588151Y0045728D02*
X0596679Y0045728D01*
X0596679Y0045730D02*
X0596581Y0045107D01*
X0600540Y0045107D01*
X0600540Y0049067D01*
X0599917Y0048968D01*
X0599263Y0048756D01*
X0598651Y0048443D01*
X0598094Y0048039D01*
X0597608Y0047553D01*
X0597204Y0046997D01*
X0596892Y0046384D01*
X0596679Y0045730D01*
X0596964Y0046526D02*
X0587821Y0046526D01*
X0587490Y0047325D02*
X0597442Y0047325D01*
X0598210Y0048123D02*
X0586798Y0048123D01*
X0585966Y0048922D02*
X0599775Y0048922D01*
X0600540Y0048922D02*
X0601340Y0048922D01*
X0602105Y0048922D02*
X0623789Y0048922D01*
X0622956Y0048123D02*
X0603670Y0048123D01*
X0604438Y0047325D02*
X0622264Y0047325D01*
X0621934Y0046526D02*
X0604916Y0046526D01*
X0604960Y0050016D02*
X0606763Y0050016D01*
X0608430Y0050706D01*
X0609705Y0051981D01*
X0610395Y0053648D01*
X0610395Y0055451D01*
X0609705Y0057118D01*
X0608430Y0058393D01*
X0606763Y0059083D01*
X0604960Y0059083D01*
X0603293Y0058393D01*
X0602018Y0057118D01*
X0601328Y0055451D01*
X0601328Y0053648D01*
X0602018Y0051981D01*
X0603293Y0050706D01*
X0604960Y0050016D01*
X0603745Y0050519D02*
X0580419Y0050519D01*
X0580871Y0050706D02*
X0582146Y0051981D01*
X0582836Y0053648D01*
X0582836Y0055451D01*
X0582146Y0057118D01*
X0580871Y0058393D01*
X0579204Y0059083D01*
X0577401Y0059083D01*
X0575734Y0058393D01*
X0574459Y0057118D01*
X0573769Y0055451D01*
X0573769Y0053648D01*
X0574459Y0051981D01*
X0575734Y0050706D01*
X0577401Y0050016D01*
X0579204Y0050016D01*
X0580871Y0050706D01*
X0581482Y0051317D02*
X0602682Y0051317D01*
X0601962Y0052116D02*
X0582202Y0052116D01*
X0582533Y0052914D02*
X0601631Y0052914D01*
X0601328Y0053713D02*
X0582836Y0053713D01*
X0582836Y0054511D02*
X0601328Y0054511D01*
X0601328Y0055310D02*
X0582836Y0055310D01*
X0582564Y0056108D02*
X0601600Y0056108D01*
X0601931Y0056907D02*
X0582233Y0056907D01*
X0581558Y0057705D02*
X0602605Y0057705D01*
X0603561Y0058504D02*
X0580603Y0058504D01*
X0576002Y0058504D02*
X0572461Y0058504D01*
X0572511Y0059302D02*
X0681833Y0059302D01*
X0681833Y0058504D02*
X0651469Y0058504D01*
X0651737Y0058393D02*
X0650070Y0059083D01*
X0648267Y0059083D01*
X0646600Y0058393D01*
X0645325Y0057118D01*
X0644635Y0055451D01*
X0644635Y0053648D01*
X0645325Y0051981D01*
X0646600Y0050706D01*
X0648267Y0050016D01*
X0650070Y0050016D01*
X0651737Y0050706D01*
X0653012Y0051981D01*
X0653702Y0053648D01*
X0653702Y0055451D01*
X0653012Y0057118D01*
X0651737Y0058393D01*
X0652425Y0057705D02*
X0681833Y0057705D01*
X0681833Y0056907D02*
X0653100Y0056907D01*
X0653430Y0056108D02*
X0681833Y0056108D01*
X0681833Y0055310D02*
X0653702Y0055310D01*
X0653702Y0054511D02*
X0681833Y0054511D01*
X0681833Y0053713D02*
X0653702Y0053713D01*
X0653399Y0052914D02*
X0681833Y0052914D01*
X0681833Y0052116D02*
X0653068Y0052116D01*
X0652348Y0051317D02*
X0681833Y0051317D01*
X0681833Y0050519D02*
X0651285Y0050519D01*
X0647052Y0050519D02*
X0623726Y0050519D01*
X0624178Y0050706D02*
X0625453Y0051981D01*
X0626143Y0053648D01*
X0626143Y0055451D01*
X0625453Y0057118D01*
X0624178Y0058393D01*
X0622511Y0059083D01*
X0620708Y0059083D01*
X0619041Y0058393D01*
X0617766Y0057118D01*
X0617076Y0055451D01*
X0617076Y0053648D01*
X0617766Y0051981D01*
X0619041Y0050706D01*
X0620708Y0050016D01*
X0622511Y0050016D01*
X0624178Y0050706D01*
X0624789Y0051317D02*
X0645989Y0051317D01*
X0645269Y0052116D02*
X0625509Y0052116D01*
X0625840Y0052914D02*
X0644938Y0052914D01*
X0644635Y0053713D02*
X0626143Y0053713D01*
X0626143Y0054511D02*
X0644635Y0054511D01*
X0644635Y0055310D02*
X0626143Y0055310D01*
X0625871Y0056108D02*
X0644907Y0056108D01*
X0645238Y0056907D02*
X0625540Y0056907D01*
X0624866Y0057705D02*
X0645913Y0057705D01*
X0646868Y0058504D02*
X0623910Y0058504D01*
X0619309Y0058504D02*
X0608162Y0058504D01*
X0609117Y0057705D02*
X0618354Y0057705D01*
X0617679Y0056907D02*
X0609792Y0056907D01*
X0610123Y0056108D02*
X0617348Y0056108D01*
X0617076Y0055310D02*
X0610395Y0055310D01*
X0610395Y0054511D02*
X0617076Y0054511D01*
X0617076Y0053713D02*
X0610395Y0053713D01*
X0610092Y0052914D02*
X0617379Y0052914D01*
X0617710Y0052116D02*
X0609761Y0052116D01*
X0609041Y0051317D02*
X0618430Y0051317D01*
X0619493Y0050519D02*
X0607978Y0050519D01*
X0601340Y0048123D02*
X0600540Y0048123D01*
X0600540Y0047325D02*
X0601340Y0047325D01*
X0601340Y0046526D02*
X0600540Y0046526D01*
X0600540Y0045728D02*
X0601340Y0045728D01*
X0601340Y0043332D02*
X0600540Y0043332D01*
X0600540Y0042534D02*
X0601340Y0042534D01*
X0601340Y0041735D02*
X0600540Y0041735D01*
X0600540Y0040937D02*
X0601340Y0040937D01*
X0598718Y0040937D02*
X0586444Y0040937D01*
X0587243Y0041735D02*
X0597734Y0041735D01*
X0597145Y0042534D02*
X0587674Y0042534D01*
X0588005Y0043332D02*
X0596794Y0043332D01*
X0596609Y0044131D02*
X0588167Y0044131D01*
X0580003Y0040937D02*
X0559856Y0040937D01*
X0559923Y0040971D02*
X0560479Y0041375D01*
X0560965Y0041861D01*
X0561369Y0042417D01*
X0561682Y0043030D01*
X0561894Y0043684D01*
X0561993Y0044307D01*
X0558033Y0044307D01*
X0558033Y0040347D01*
X0558656Y0040446D01*
X0559310Y0040659D01*
X0559923Y0040971D01*
X0560839Y0041735D02*
X0579205Y0041735D01*
X0578773Y0042534D02*
X0561429Y0042534D01*
X0561780Y0043332D02*
X0578443Y0043332D01*
X0578280Y0044131D02*
X0561965Y0044131D01*
X0561993Y0045107D02*
X0561894Y0045730D01*
X0561682Y0046384D01*
X0561369Y0046997D01*
X0560965Y0047553D01*
X0560479Y0048039D01*
X0559923Y0048443D01*
X0559310Y0048756D01*
X0558656Y0048968D01*
X0558033Y0049067D01*
X0558033Y0045107D01*
X0557233Y0045107D01*
X0557233Y0044307D01*
X0553274Y0044307D01*
X0553372Y0043684D01*
X0553585Y0043030D01*
X0553897Y0042417D01*
X0554301Y0041861D01*
X0554787Y0041375D01*
X0555344Y0040971D01*
X0555956Y0040659D01*
X0556610Y0040446D01*
X0557233Y0040347D01*
X0557233Y0044307D01*
X0558033Y0044307D01*
X0558033Y0045107D01*
X0561993Y0045107D01*
X0561894Y0045728D02*
X0578296Y0045728D01*
X0578280Y0044929D02*
X0558033Y0044929D01*
X0558033Y0044131D02*
X0557233Y0044131D01*
X0557233Y0044929D02*
X0544860Y0044929D01*
X0544860Y0045690D02*
X0544107Y0047507D01*
X0542717Y0048898D01*
X0540900Y0049650D01*
X0538933Y0049650D01*
X0537116Y0048898D01*
X0535726Y0047507D01*
X0534973Y0045690D01*
X0534973Y0043724D01*
X0535726Y0041907D01*
X0537116Y0040516D01*
X0538933Y0039764D01*
X0540900Y0039764D01*
X0542717Y0040516D01*
X0544107Y0041907D01*
X0544860Y0043724D01*
X0544860Y0045690D01*
X0544844Y0045728D02*
X0553372Y0045728D01*
X0553372Y0045730D02*
X0553274Y0045107D01*
X0557233Y0045107D01*
X0557233Y0049067D01*
X0556610Y0048968D01*
X0555956Y0048756D01*
X0555344Y0048443D01*
X0554787Y0048039D01*
X0554301Y0047553D01*
X0553897Y0046997D01*
X0553585Y0046384D01*
X0553372Y0045730D01*
X0553657Y0046526D02*
X0544514Y0046526D01*
X0544183Y0047325D02*
X0554135Y0047325D01*
X0554903Y0048123D02*
X0543491Y0048123D01*
X0542659Y0048922D02*
X0556468Y0048922D01*
X0557233Y0048922D02*
X0558033Y0048922D01*
X0558798Y0048922D02*
X0580482Y0048922D01*
X0579649Y0048123D02*
X0560363Y0048123D01*
X0561131Y0047325D02*
X0578957Y0047325D01*
X0578627Y0046526D02*
X0561609Y0046526D01*
X0561653Y0050016D02*
X0563456Y0050016D01*
X0565123Y0050706D01*
X0566398Y0051981D01*
X0567088Y0053648D01*
X0567088Y0055451D01*
X0566398Y0057118D01*
X0565123Y0058393D01*
X0563456Y0059083D01*
X0561653Y0059083D01*
X0559986Y0058393D01*
X0558711Y0057118D01*
X0558021Y0055451D01*
X0558021Y0053648D01*
X0558711Y0051981D01*
X0559986Y0050706D01*
X0561653Y0050016D01*
X0560438Y0050519D02*
X0537112Y0050519D01*
X0538175Y0051317D02*
X0559375Y0051317D01*
X0558655Y0052116D02*
X0538895Y0052116D01*
X0539225Y0052914D02*
X0558324Y0052914D01*
X0558021Y0053713D02*
X0539529Y0053713D01*
X0539529Y0054511D02*
X0558021Y0054511D01*
X0558021Y0055310D02*
X0539529Y0055310D01*
X0539257Y0056108D02*
X0558293Y0056108D01*
X0558623Y0056907D02*
X0538926Y0056907D01*
X0538251Y0057705D02*
X0559298Y0057705D01*
X0560254Y0058504D02*
X0537296Y0058504D01*
X0532695Y0058504D02*
X0495852Y0058504D01*
X0496650Y0059302D02*
X0565860Y0059302D01*
X0566034Y0058504D02*
X0564855Y0058504D01*
X0565810Y0057705D02*
X0566364Y0057705D01*
X0566485Y0056907D02*
X0566999Y0056907D01*
X0566816Y0056108D02*
X0568361Y0056108D01*
X0567088Y0055310D02*
X0573769Y0055310D01*
X0573769Y0054511D02*
X0567088Y0054511D01*
X0567088Y0053713D02*
X0573769Y0053713D01*
X0574072Y0052914D02*
X0566784Y0052914D01*
X0566454Y0052116D02*
X0574403Y0052116D01*
X0575123Y0051317D02*
X0565734Y0051317D01*
X0564671Y0050519D02*
X0576186Y0050519D01*
X0574041Y0056108D02*
X0570134Y0056108D01*
X0571496Y0056907D02*
X0574371Y0056907D01*
X0575046Y0057705D02*
X0572130Y0057705D01*
X0572437Y0060101D02*
X0608687Y0060101D01*
X0607888Y0060900D02*
X0572107Y0060900D01*
X0571439Y0061698D02*
X0607517Y0061698D01*
X0610586Y0062817D02*
X0608617Y0064786D01*
X0492082Y0064786D01*
X0484602Y0057306D01*
X0466885Y0057306D01*
X0457436Y0047857D01*
X0454455Y0046526D02*
X0428365Y0046526D01*
X0428696Y0047325D02*
X0454173Y0047325D01*
X0454173Y0048123D02*
X0428810Y0048123D01*
X0428801Y0048922D02*
X0454345Y0048922D01*
X0454684Y0049720D02*
X0428470Y0049720D01*
X0427894Y0050519D02*
X0455483Y0050519D01*
X0457539Y0051317D02*
X0426671Y0051317D01*
X0424422Y0051317D02*
X0368358Y0051317D01*
X0367559Y0052116D02*
X0458337Y0052116D01*
X0459136Y0052914D02*
X0366761Y0052914D01*
X0365962Y0053713D02*
X0459934Y0053713D01*
X0460733Y0054511D02*
X0365164Y0054511D01*
X0364365Y0055310D02*
X0461531Y0055310D01*
X0462330Y0056108D02*
X0363567Y0056108D01*
X0362768Y0056907D02*
X0463128Y0056907D01*
X0463927Y0057705D02*
X0361970Y0057705D01*
X0361171Y0058504D02*
X0370202Y0058504D01*
X0369404Y0059302D02*
X0360373Y0059302D01*
X0359574Y0060101D02*
X0368605Y0060101D01*
X0367807Y0060900D02*
X0358776Y0060900D01*
X0357977Y0061698D02*
X0367008Y0061698D01*
X0366210Y0062497D02*
X0357179Y0062497D01*
X0356380Y0063295D02*
X0365411Y0063295D01*
X0364613Y0064094D02*
X0355582Y0064094D01*
X0354783Y0064892D02*
X0363814Y0064892D01*
X0363016Y0065691D02*
X0353984Y0065691D01*
X0353186Y0066489D02*
X0362217Y0066489D01*
X0361419Y0067288D02*
X0352387Y0067288D01*
X0351589Y0068086D02*
X0361361Y0068086D01*
X0361361Y0068885D02*
X0350790Y0068885D01*
X0349992Y0069683D02*
X0361361Y0069683D01*
X0361361Y0070482D02*
X0349193Y0070482D01*
X0348395Y0071280D02*
X0361361Y0071280D01*
X0361361Y0072079D02*
X0347596Y0072079D01*
X0346798Y0072877D02*
X0361361Y0072877D01*
X0361361Y0073676D02*
X0345999Y0073676D01*
X0345201Y0074474D02*
X0361361Y0074474D01*
X0361361Y0075273D02*
X0344402Y0075273D01*
X0343604Y0076071D02*
X0361361Y0076071D01*
X0361361Y0076870D02*
X0342805Y0076870D01*
X0342007Y0077668D02*
X0361361Y0077668D01*
X0361361Y0078467D02*
X0341208Y0078467D01*
X0340410Y0079265D02*
X0361361Y0079265D01*
X0361361Y0080064D02*
X0339611Y0080064D01*
X0338813Y0080862D02*
X0361361Y0080862D01*
X0361361Y0081661D02*
X0338014Y0081661D01*
X0337216Y0082459D02*
X0361361Y0082459D01*
X0361361Y0083258D02*
X0336417Y0083258D01*
X0335619Y0084056D02*
X0361361Y0084056D01*
X0361361Y0084855D02*
X0334820Y0084855D01*
X0334022Y0085653D02*
X0361361Y0085653D01*
X0361361Y0086452D02*
X0333223Y0086452D01*
X0332425Y0087250D02*
X0361361Y0087250D01*
X0361361Y0088049D02*
X0331626Y0088049D01*
X0330828Y0088847D02*
X0361361Y0088847D01*
X0361361Y0089646D02*
X0330029Y0089646D01*
X0329231Y0090444D02*
X0361361Y0090444D01*
X0361361Y0091243D02*
X0328432Y0091243D01*
X0327634Y0092041D02*
X0361361Y0092041D01*
X0361361Y0092840D02*
X0326835Y0092840D01*
X0322791Y0093526D02*
X0368066Y0048250D01*
X0425547Y0048250D01*
X0427640Y0045728D02*
X0454950Y0045728D01*
X0455975Y0044929D02*
X0368053Y0044929D01*
X0367254Y0045728D02*
X0423453Y0045728D01*
X0426728Y0060455D02*
X0429149Y0060455D01*
X0432653Y0063959D01*
X0426728Y0060455D02*
X0371610Y0060455D01*
X0363736Y0068329D01*
X0363736Y0105337D01*
X0358617Y0110455D01*
X0356810Y0117594D02*
X0342095Y0117594D01*
X0342095Y0118392D02*
X0356694Y0118392D01*
X0356100Y0119191D02*
X0342095Y0119191D01*
X0342095Y0119989D02*
X0342919Y0119989D01*
X0345181Y0119989D02*
X0355769Y0119989D01*
X0359011Y0120691D02*
X0405861Y0120691D01*
X0410586Y0115967D01*
X0410586Y0111636D01*
X0410586Y0104550D01*
X0414129Y0101006D01*
X0422791Y0101006D01*
X0429702Y0100825D02*
X0670022Y0100825D01*
X0670022Y0100027D02*
X0429702Y0100027D01*
X0429702Y0099228D02*
X0670288Y0099228D01*
X0670022Y0101624D02*
X0429702Y0101624D01*
X0429702Y0102422D02*
X0670022Y0102422D01*
X0670022Y0103221D02*
X0429702Y0103221D01*
X0429702Y0104019D02*
X0670022Y0104019D01*
X0670022Y0104818D02*
X0429702Y0104818D01*
X0429702Y0105616D02*
X0670022Y0105616D01*
X0670022Y0106415D02*
X0429702Y0106415D01*
X0429702Y0107213D02*
X0670022Y0107213D01*
X0670022Y0108012D02*
X0429702Y0108012D01*
X0429702Y0108810D02*
X0760573Y0108810D01*
X0760573Y0109609D02*
X0429702Y0109609D01*
X0429702Y0110407D02*
X0760573Y0110407D01*
X0760573Y0111206D02*
X0429702Y0111206D01*
X0429702Y0112004D02*
X0760610Y0112004D01*
X0776321Y0112803D02*
X0429702Y0112803D01*
X0429702Y0113601D02*
X0776321Y0113601D01*
X0776321Y0114400D02*
X0429702Y0114400D01*
X0429702Y0115198D02*
X0776321Y0115198D01*
X0776321Y0115997D02*
X0429702Y0115997D01*
X0429702Y0116795D02*
X0776321Y0116795D01*
X0776321Y0117594D02*
X0429702Y0117594D01*
X0429702Y0118392D02*
X0776321Y0118392D01*
X0776321Y0119191D02*
X0429702Y0119191D01*
X0429702Y0119989D02*
X0776321Y0119989D01*
X0776321Y0120788D02*
X0429418Y0120788D01*
X0428859Y0121586D02*
X0776321Y0121586D01*
X0776321Y0122385D02*
X0428060Y0122385D01*
X0427261Y0123183D02*
X0776321Y0123183D01*
X0776321Y0123982D02*
X0426463Y0123982D01*
X0425664Y0124780D02*
X0776321Y0124780D01*
X0776321Y0125579D02*
X0424866Y0125579D01*
X0424067Y0126377D02*
X0776321Y0126377D01*
X0776321Y0127176D02*
X0423269Y0127176D01*
X0422470Y0127974D02*
X0776321Y0127974D01*
X0776321Y0128773D02*
X0421672Y0128773D01*
X0420873Y0129571D02*
X0776321Y0129571D01*
X0776321Y0130370D02*
X0420075Y0130370D01*
X0419276Y0131169D02*
X0776321Y0131169D01*
X0776636Y0131967D02*
X0418478Y0131967D01*
X0417679Y0132766D02*
X0785570Y0132766D01*
X0785570Y0133564D02*
X0416881Y0133564D01*
X0416082Y0134363D02*
X0785570Y0134363D01*
X0785570Y0135161D02*
X0415284Y0135161D01*
X0414485Y0135960D02*
X0729160Y0135960D01*
X0730594Y0135960D02*
X0785570Y0135960D01*
X0785570Y0136758D02*
X0732056Y0136758D01*
X0732731Y0137557D02*
X0784961Y0137557D01*
X0784163Y0138355D02*
X0733062Y0138355D01*
X0733141Y0139154D02*
X0783364Y0139154D01*
X0782566Y0139952D02*
X0733096Y0139952D01*
X0732766Y0140751D02*
X0781767Y0140751D01*
X0780969Y0141549D02*
X0732452Y0141549D01*
X0732452Y0142348D02*
X0761873Y0142348D01*
X0761074Y0143146D02*
X0732452Y0143146D01*
X0732452Y0143945D02*
X0760682Y0143945D01*
X0760472Y0144743D02*
X0732452Y0144743D01*
X0732452Y0145542D02*
X0760472Y0145542D01*
X0760716Y0146340D02*
X0732789Y0146340D01*
X0733588Y0147139D02*
X0761158Y0147139D01*
X0762055Y0147937D02*
X0734387Y0147937D01*
X0735185Y0148736D02*
X0806873Y0148736D01*
X0806873Y0149534D02*
X0735984Y0149534D01*
X0736782Y0150333D02*
X0806873Y0150333D01*
X0806873Y0151131D02*
X0737581Y0151131D01*
X0738379Y0151930D02*
X0806873Y0151930D01*
X0806873Y0152728D02*
X0739178Y0152728D01*
X0739976Y0153527D02*
X0806873Y0153527D01*
X0806873Y0147937D02*
X0765416Y0147937D01*
X0765598Y0142348D02*
X0780170Y0142348D01*
X0784259Y0145542D02*
X0806873Y0145542D01*
X0806873Y0146340D02*
X0783460Y0146340D01*
X0782662Y0147139D02*
X0806873Y0147139D01*
X0806873Y0144743D02*
X0785057Y0144743D01*
X0785856Y0143945D02*
X0806873Y0143945D01*
X0806873Y0143146D02*
X0786654Y0143146D01*
X0787453Y0142348D02*
X0806873Y0142348D01*
X0806873Y0141549D02*
X0788251Y0141549D01*
X0789050Y0140751D02*
X0806873Y0140751D01*
X0806873Y0139952D02*
X0789848Y0139952D01*
X0790460Y0139154D02*
X0806873Y0139154D01*
X0806873Y0138355D02*
X0790720Y0138355D01*
X0790720Y0137557D02*
X0806873Y0137557D01*
X0806873Y0136758D02*
X0790720Y0136758D01*
X0790720Y0135960D02*
X0806873Y0135960D01*
X0806873Y0135161D02*
X0790720Y0135161D01*
X0790720Y0134363D02*
X0806873Y0134363D01*
X0806873Y0133564D02*
X0790720Y0133564D01*
X0790720Y0132766D02*
X0806873Y0132766D01*
X0727699Y0136758D02*
X0413687Y0136758D01*
X0412888Y0137557D02*
X0727023Y0137557D01*
X0726693Y0138355D02*
X0412090Y0138355D01*
X0411291Y0139154D02*
X0726613Y0139154D01*
X0726658Y0139952D02*
X0636240Y0139952D01*
X0636038Y0139869D02*
X0637238Y0140365D01*
X0638156Y0141284D01*
X0638653Y0142483D01*
X0638653Y0143781D01*
X0638156Y0144981D01*
X0637964Y0145173D01*
X0637964Y0163329D01*
X0637572Y0164276D01*
X0636848Y0165000D01*
X0628974Y0172874D01*
X0628027Y0173266D01*
X0613808Y0173266D01*
X0613616Y0173458D01*
X0612416Y0173955D01*
X0611118Y0173955D01*
X0609918Y0173458D01*
X0609000Y0172540D01*
X0608503Y0171341D01*
X0608503Y0170042D01*
X0609000Y0168843D01*
X0609918Y0167924D01*
X0611118Y0167428D01*
X0612416Y0167428D01*
X0613616Y0167924D01*
X0613808Y0168117D01*
X0626449Y0168117D01*
X0632814Y0161751D01*
X0632814Y0145173D01*
X0632622Y0144981D01*
X0632125Y0143781D01*
X0632125Y0142483D01*
X0632622Y0141284D01*
X0633540Y0140365D01*
X0634740Y0139869D01*
X0636038Y0139869D01*
X0634538Y0139952D02*
X0410493Y0139952D01*
X0409694Y0140751D02*
X0633155Y0140751D01*
X0632512Y0141549D02*
X0408896Y0141549D01*
X0408097Y0142348D02*
X0632181Y0142348D01*
X0632125Y0143146D02*
X0406670Y0143146D01*
X0409701Y0157519D02*
X0632814Y0157519D01*
X0632814Y0156721D02*
X0224800Y0156721D01*
X0225130Y0155922D02*
X0632814Y0155922D01*
X0632814Y0155124D02*
X0225267Y0155124D01*
X0225980Y0154325D02*
X0632814Y0154325D01*
X0632814Y0153527D02*
X0337863Y0153527D01*
X0338661Y0152728D02*
X0632814Y0152728D01*
X0632814Y0151930D02*
X0339460Y0151930D01*
X0340258Y0151131D02*
X0632814Y0151131D01*
X0632814Y0150333D02*
X0341057Y0150333D01*
X0341855Y0149534D02*
X0632814Y0149534D01*
X0632814Y0148736D02*
X0342654Y0148736D01*
X0343453Y0147937D02*
X0632814Y0147937D01*
X0632814Y0147139D02*
X0344251Y0147139D01*
X0345050Y0146340D02*
X0632814Y0146340D01*
X0632814Y0145542D02*
X0345848Y0145542D01*
X0346647Y0144743D02*
X0632524Y0144743D01*
X0632193Y0143945D02*
X0347445Y0143945D01*
X0348244Y0143146D02*
X0368668Y0143146D01*
X0367587Y0142348D02*
X0349042Y0142348D01*
X0349841Y0141549D02*
X0367069Y0141549D01*
X0366399Y0140751D02*
X0350639Y0140751D01*
X0351438Y0139952D02*
X0365600Y0139952D01*
X0364802Y0139154D02*
X0352236Y0139154D01*
X0353035Y0138355D02*
X0364003Y0138355D01*
X0363736Y0139195D02*
X0355861Y0139195D01*
X0344050Y0151006D01*
X0335837Y0147139D02*
X0230441Y0147139D01*
X0230441Y0147937D02*
X0287813Y0147937D01*
X0286587Y0148736D02*
X0230441Y0148736D01*
X0230441Y0149534D02*
X0286009Y0149534D01*
X0285679Y0150333D02*
X0229972Y0150333D01*
X0229174Y0151131D02*
X0285669Y0151131D01*
X0285782Y0151930D02*
X0228375Y0151930D01*
X0227577Y0152728D02*
X0286113Y0152728D01*
X0286837Y0153527D02*
X0226778Y0153527D01*
X0223255Y0150333D02*
X0219761Y0150333D01*
X0219761Y0151131D02*
X0222457Y0151131D01*
X0220750Y0151930D02*
X0219761Y0151930D01*
X0219761Y0149534D02*
X0224054Y0149534D01*
X0224852Y0148736D02*
X0219761Y0148736D01*
X0219761Y0147937D02*
X0225651Y0147937D01*
X0225691Y0147139D02*
X0219761Y0147139D01*
X0219761Y0146340D02*
X0225691Y0146340D01*
X0225691Y0145542D02*
X0219097Y0145542D01*
X0218299Y0144743D02*
X0225691Y0144743D01*
X0225691Y0143945D02*
X0217500Y0143945D01*
X0216702Y0143146D02*
X0225691Y0143146D01*
X0225691Y0142348D02*
X0215903Y0142348D01*
X0215105Y0141549D02*
X0225691Y0141549D01*
X0225194Y0140751D02*
X0214306Y0140751D01*
X0214076Y0139952D02*
X0224863Y0139952D01*
X0224802Y0139154D02*
X0213745Y0139154D01*
X0213042Y0138355D02*
X0224865Y0138355D01*
X0225196Y0137557D02*
X0171565Y0137557D01*
X0171510Y0136758D02*
X0181997Y0136758D01*
X0181198Y0135960D02*
X0171179Y0135960D01*
X0170519Y0135161D02*
X0180400Y0135161D01*
X0179601Y0134363D02*
X0170371Y0134363D01*
X0171169Y0133564D02*
X0178802Y0133564D01*
X0178004Y0132766D02*
X0171968Y0132766D01*
X0172766Y0131967D02*
X0177205Y0131967D01*
X0176407Y0131169D02*
X0173565Y0131169D01*
X0174363Y0130370D02*
X0175608Y0130370D01*
X0174986Y0126389D02*
X0167112Y0134263D01*
X0129285Y0134263D01*
X0108586Y0113564D01*
X0108586Y0111989D01*
X0112586Y0111989D02*
X0112586Y0114351D01*
X0130343Y0132109D01*
X0155861Y0132109D01*
X0166885Y0121085D01*
X0188932Y0121085D01*
X0189424Y0121627D01*
X0197386Y0129589D01*
X0200561Y0129571D02*
X0254960Y0129571D01*
X0254960Y0129097D02*
X0255435Y0127950D01*
X0254279Y0129105D01*
X0242407Y0129105D01*
X0241250Y0127949D01*
X0241250Y0114011D01*
X0234798Y0114011D01*
X0233141Y0115668D01*
X0233141Y0116222D01*
X0232644Y0117422D01*
X0231726Y0118340D01*
X0230526Y0118837D01*
X0229228Y0118837D01*
X0228028Y0118340D01*
X0227110Y0117422D01*
X0226613Y0116222D01*
X0226613Y0114924D01*
X0227110Y0113724D01*
X0228028Y0112806D01*
X0229228Y0112309D01*
X0229783Y0112309D01*
X0230928Y0111164D01*
X0151722Y0111164D01*
X0158587Y0118029D01*
X0159285Y0118318D01*
X0160203Y0119236D01*
X0160700Y0120436D01*
X0160700Y0121734D01*
X0160203Y0122934D01*
X0159285Y0123852D01*
X0158085Y0124349D01*
X0156787Y0124349D01*
X0155588Y0123852D01*
X0154669Y0122934D01*
X0154380Y0122236D01*
X0147832Y0115687D01*
X0146551Y0115687D01*
X0145351Y0115191D01*
X0144433Y0114272D01*
X0143936Y0113073D01*
X0143936Y0111774D01*
X0144189Y0111164D01*
X0115680Y0111164D01*
X0115761Y0111357D01*
X0115761Y0112620D01*
X0115308Y0113714D01*
X0126077Y0124484D01*
X0126077Y0120641D01*
X0132195Y0120641D01*
X0132195Y0119841D01*
X0126077Y0119841D01*
X0126077Y0113167D01*
X0126173Y0112811D01*
X0126357Y0112492D01*
X0126618Y0112231D01*
X0126937Y0112047D01*
X0127293Y0111951D01*
X0132195Y0111951D01*
X0132195Y0119841D01*
X0132995Y0119841D01*
X0132995Y0111951D01*
X0137898Y0111951D01*
X0138254Y0112047D01*
X0138573Y0112231D01*
X0138834Y0112492D01*
X0139018Y0112811D01*
X0139113Y0113167D01*
X0139113Y0119841D01*
X0132995Y0119841D01*
X0132995Y0120641D01*
X0132195Y0120641D01*
X0132195Y0128531D01*
X0130124Y0128531D01*
X0131327Y0129734D01*
X0154878Y0129734D01*
X0164510Y0120101D01*
X0165901Y0118710D01*
X0188016Y0118710D01*
X0188066Y0118665D01*
X0188990Y0118710D01*
X0189916Y0118710D01*
X0189964Y0118758D01*
X0190031Y0118761D01*
X0190652Y0119447D01*
X0191307Y0120101D01*
X0191307Y0120152D01*
X0197570Y0126414D01*
X0198017Y0126414D01*
X0199184Y0126898D01*
X0200077Y0127791D01*
X0200561Y0128957D01*
X0200561Y0130220D01*
X0200077Y0131387D01*
X0199451Y0132014D01*
X0227629Y0132014D01*
X0229286Y0133671D01*
X0239999Y0133671D01*
X0239999Y0133034D01*
X0240496Y0131835D01*
X0241414Y0130917D01*
X0242614Y0130420D01*
X0243912Y0130420D01*
X0245112Y0130917D01*
X0245504Y0131309D01*
X0255338Y0131309D01*
X0254960Y0130396D01*
X0254960Y0129097D01*
X0255094Y0128773D02*
X0254612Y0128773D01*
X0255411Y0127974D02*
X0255425Y0127974D01*
X0254960Y0130370D02*
X0200499Y0130370D01*
X0200168Y0131169D02*
X0241162Y0131169D01*
X0240441Y0131967D02*
X0199498Y0131967D01*
X0200484Y0128773D02*
X0242075Y0128773D01*
X0241276Y0127974D02*
X0200154Y0127974D01*
X0199463Y0127176D02*
X0241250Y0127176D01*
X0241250Y0126377D02*
X0197533Y0126377D01*
X0196734Y0125579D02*
X0241250Y0125579D01*
X0241250Y0124780D02*
X0195936Y0124780D01*
X0195137Y0123982D02*
X0241250Y0123982D01*
X0241250Y0123183D02*
X0194339Y0123183D01*
X0193540Y0122385D02*
X0241250Y0122385D01*
X0241250Y0121586D02*
X0192742Y0121586D01*
X0191943Y0120788D02*
X0241250Y0120788D01*
X0241250Y0119989D02*
X0191195Y0119989D01*
X0190420Y0119191D02*
X0241250Y0119191D01*
X0241250Y0118392D02*
X0231600Y0118392D01*
X0232472Y0117594D02*
X0241250Y0117594D01*
X0241250Y0116795D02*
X0232904Y0116795D01*
X0233141Y0115997D02*
X0241250Y0115997D01*
X0241250Y0115198D02*
X0233611Y0115198D01*
X0234409Y0114400D02*
X0241250Y0114400D01*
X0233814Y0111636D02*
X0265310Y0111636D01*
X0274287Y0120613D01*
X0276255Y0120613D01*
X0275015Y0117594D02*
X0274626Y0117594D01*
X0274740Y0117708D02*
X0275606Y0117349D01*
X0276904Y0117349D01*
X0278104Y0117846D01*
X0279022Y0118764D01*
X0279519Y0119963D01*
X0279519Y0120679D01*
X0331180Y0120679D01*
X0331572Y0120287D01*
X0332771Y0119790D01*
X0334070Y0119790D01*
X0334983Y0120168D01*
X0334983Y0117738D01*
X0328409Y0111164D01*
X0268196Y0111164D01*
X0274740Y0117708D01*
X0273828Y0116795D02*
X0334040Y0116795D01*
X0333242Y0115997D02*
X0273029Y0115997D01*
X0272231Y0115198D02*
X0332443Y0115198D01*
X0331645Y0114400D02*
X0271432Y0114400D01*
X0270634Y0113601D02*
X0330846Y0113601D01*
X0330048Y0112803D02*
X0269835Y0112803D01*
X0269037Y0112004D02*
X0329249Y0112004D01*
X0328450Y0111206D02*
X0268238Y0111206D01*
X0277496Y0117594D02*
X0334839Y0117594D01*
X0334983Y0118392D02*
X0278651Y0118392D01*
X0279199Y0119191D02*
X0334983Y0119191D01*
X0334983Y0119989D02*
X0334552Y0119989D01*
X0332289Y0119989D02*
X0279519Y0119989D01*
X0268460Y0123054D02*
X0333421Y0123054D01*
X0344050Y0123054D02*
X0360980Y0123054D01*
X0367673Y0129746D01*
X0359011Y0126597D02*
X0353106Y0132502D01*
X0348381Y0132502D01*
X0336964Y0143920D01*
X0326728Y0133683D01*
X0243263Y0133683D01*
X0239999Y0133564D02*
X0229179Y0133564D01*
X0228381Y0132766D02*
X0240111Y0132766D01*
X0245364Y0131169D02*
X0255280Y0131169D01*
X0258224Y0129746D02*
X0259798Y0128172D01*
X0333027Y0128172D01*
X0337358Y0131321D02*
X0337358Y0116754D01*
X0329392Y0108789D01*
X0079786Y0108789D01*
X0076611Y0108810D02*
X0062561Y0108810D01*
X0062561Y0108012D02*
X0076671Y0108012D01*
X0077002Y0107213D02*
X0062561Y0107213D01*
X0062561Y0106415D02*
X0077670Y0106415D01*
X0079150Y0105616D02*
X0062561Y0105616D01*
X0062561Y0104818D02*
X0089000Y0104818D01*
X0088670Y0105616D02*
X0080422Y0105616D01*
X0076689Y0109609D02*
X0062561Y0109609D01*
X0062561Y0110407D02*
X0077020Y0110407D01*
X0077713Y0111206D02*
X0062561Y0111206D01*
X0062561Y0112004D02*
X0080944Y0112004D01*
X0081158Y0112803D02*
X0062561Y0112803D01*
X0062561Y0113601D02*
X0081557Y0113601D01*
X0082356Y0114400D02*
X0062561Y0114400D01*
X0062561Y0115198D02*
X0092857Y0115198D01*
X0092857Y0114400D02*
X0086060Y0114400D01*
X0084208Y0111636D02*
X0093657Y0111636D01*
X0095232Y0113211D01*
X0095232Y0124235D01*
X0122791Y0151794D01*
X0125147Y0149534D02*
X0126882Y0149534D01*
X0127681Y0148736D02*
X0123937Y0148736D01*
X0122293Y0147937D02*
X0128479Y0147937D01*
X0129278Y0147139D02*
X0121494Y0147139D01*
X0120696Y0146340D02*
X0130076Y0146340D01*
X0130875Y0145542D02*
X0119897Y0145542D01*
X0119099Y0144743D02*
X0131100Y0144743D01*
X0131431Y0143945D02*
X0118300Y0143945D01*
X0117502Y0143146D02*
X0132139Y0143146D01*
X0132370Y0142348D02*
X0165928Y0142348D01*
X0165928Y0143146D02*
X0136233Y0143146D01*
X0136941Y0143945D02*
X0165928Y0143945D01*
X0165928Y0144743D02*
X0137272Y0144743D01*
X0137361Y0145542D02*
X0165928Y0145542D01*
X0165928Y0146340D02*
X0137311Y0146340D01*
X0136980Y0147139D02*
X0165928Y0147139D01*
X0165928Y0147937D02*
X0136327Y0147937D01*
X0134885Y0148736D02*
X0165928Y0148736D01*
X0165928Y0149534D02*
X0133599Y0149534D01*
X0132801Y0150333D02*
X0165928Y0150333D01*
X0165928Y0151131D02*
X0132002Y0151131D01*
X0131204Y0151930D02*
X0165928Y0151930D01*
X0165928Y0152728D02*
X0130405Y0152728D01*
X0129607Y0153527D02*
X0165511Y0153527D01*
X0165181Y0154325D02*
X0128808Y0154325D01*
X0128009Y0155124D02*
X0165128Y0155124D01*
X0165213Y0155922D02*
X0127211Y0155922D01*
X0126412Y0156721D02*
X0165544Y0156721D01*
X0166247Y0157519D02*
X0125614Y0157519D01*
X0124586Y0155189D02*
X0107605Y0155189D01*
X0105205Y0157589D01*
X0102030Y0157519D02*
X0091761Y0157519D01*
X0091761Y0156957D02*
X0091277Y0155791D01*
X0090384Y0154898D01*
X0089217Y0154414D01*
X0087954Y0154414D01*
X0086788Y0154898D01*
X0086471Y0155214D01*
X0084301Y0155214D01*
X0083984Y0154898D01*
X0082817Y0154414D01*
X0081554Y0154414D01*
X0080388Y0154898D01*
X0079494Y0155791D01*
X0079011Y0156957D01*
X0079011Y0158220D01*
X0079494Y0159387D01*
X0080388Y0160280D01*
X0081554Y0160764D01*
X0082817Y0160764D01*
X0083984Y0160280D01*
X0084301Y0159964D01*
X0086471Y0159964D01*
X0086788Y0160280D01*
X0087954Y0160764D01*
X0089217Y0160764D01*
X0090384Y0160280D01*
X0091277Y0159387D01*
X0091761Y0158220D01*
X0091761Y0156957D01*
X0091663Y0156721D02*
X0102128Y0156721D01*
X0102459Y0155922D02*
X0091332Y0155922D01*
X0090611Y0155124D02*
X0103180Y0155124D01*
X0105110Y0154325D02*
X0062561Y0154325D01*
X0062561Y0153527D02*
X0105908Y0153527D01*
X0117173Y0149534D02*
X0062561Y0149534D01*
X0062561Y0148736D02*
X0116374Y0148736D01*
X0115576Y0147937D02*
X0062561Y0147937D01*
X0062561Y0147139D02*
X0114777Y0147139D01*
X0113979Y0146340D02*
X0062561Y0146340D01*
X0062561Y0145542D02*
X0113180Y0145542D01*
X0112382Y0144743D02*
X0062561Y0144743D01*
X0062561Y0143945D02*
X0111583Y0143945D01*
X0110785Y0143146D02*
X0062561Y0143146D01*
X0062561Y0142348D02*
X0109986Y0142348D01*
X0109188Y0141549D02*
X0062561Y0141549D01*
X0062561Y0140751D02*
X0108389Y0140751D01*
X0107591Y0139952D02*
X0062561Y0139952D01*
X0062561Y0139154D02*
X0106792Y0139154D01*
X0105994Y0138355D02*
X0062561Y0138355D01*
X0062561Y0137557D02*
X0105195Y0137557D01*
X0104397Y0136758D02*
X0062561Y0136758D01*
X0062561Y0135960D02*
X0103598Y0135960D01*
X0102800Y0135161D02*
X0062561Y0135161D01*
X0062561Y0134363D02*
X0102001Y0134363D01*
X0101202Y0133564D02*
X0062561Y0133564D01*
X0062561Y0132766D02*
X0100404Y0132766D01*
X0099605Y0131967D02*
X0062561Y0131967D01*
X0062561Y0131169D02*
X0098807Y0131169D01*
X0098008Y0130370D02*
X0062561Y0130370D01*
X0062561Y0129571D02*
X0097210Y0129571D01*
X0096411Y0128773D02*
X0062561Y0128773D01*
X0062561Y0127974D02*
X0095613Y0127974D01*
X0094814Y0127176D02*
X0062561Y0127176D01*
X0062561Y0126377D02*
X0094016Y0126377D01*
X0093217Y0125579D02*
X0062561Y0125579D01*
X0062561Y0124780D02*
X0092857Y0124780D01*
X0092857Y0123982D02*
X0062561Y0123982D01*
X0062561Y0123183D02*
X0092857Y0123183D01*
X0092857Y0122385D02*
X0062561Y0122385D01*
X0062561Y0121586D02*
X0092857Y0121586D01*
X0092857Y0120788D02*
X0062561Y0120788D01*
X0062561Y0119989D02*
X0092857Y0119989D01*
X0092857Y0119191D02*
X0062561Y0119191D01*
X0062561Y0118392D02*
X0092857Y0118392D01*
X0092857Y0117594D02*
X0062561Y0117594D01*
X0062561Y0116795D02*
X0092857Y0116795D01*
X0092857Y0115997D02*
X0062561Y0115997D01*
X0096585Y0111206D02*
X0100865Y0111206D01*
X0100629Y0112004D02*
X0097383Y0112004D01*
X0097606Y0112803D02*
X0100629Y0112803D01*
X0100848Y0113601D02*
X0097606Y0113601D01*
X0097606Y0114400D02*
X0101253Y0114400D01*
X0102063Y0115198D02*
X0097606Y0115198D01*
X0097606Y0115997D02*
X0104108Y0115997D01*
X0104906Y0116795D02*
X0097606Y0116795D01*
X0097606Y0117594D02*
X0105705Y0117594D01*
X0106503Y0118392D02*
X0097606Y0118392D01*
X0097606Y0119191D02*
X0107302Y0119191D01*
X0108100Y0119989D02*
X0097606Y0119989D01*
X0097606Y0120788D02*
X0108899Y0120788D01*
X0109697Y0121586D02*
X0097606Y0121586D01*
X0097606Y0122385D02*
X0110496Y0122385D01*
X0111294Y0123183D02*
X0097606Y0123183D01*
X0098337Y0123982D02*
X0112093Y0123982D01*
X0112891Y0124780D02*
X0099136Y0124780D01*
X0099934Y0125579D02*
X0113690Y0125579D01*
X0114488Y0126377D02*
X0100733Y0126377D01*
X0101531Y0127176D02*
X0115287Y0127176D01*
X0116085Y0127974D02*
X0102330Y0127974D01*
X0103128Y0128773D02*
X0116884Y0128773D01*
X0117682Y0129571D02*
X0103927Y0129571D01*
X0104725Y0130370D02*
X0118481Y0130370D01*
X0119279Y0131169D02*
X0105524Y0131169D01*
X0106322Y0131967D02*
X0120078Y0131967D01*
X0120876Y0132766D02*
X0107121Y0132766D01*
X0107919Y0133564D02*
X0121675Y0133564D01*
X0122473Y0134363D02*
X0108718Y0134363D01*
X0109516Y0135161D02*
X0123272Y0135161D01*
X0124070Y0135960D02*
X0110315Y0135960D01*
X0111113Y0136758D02*
X0124869Y0136758D01*
X0125667Y0137557D02*
X0111912Y0137557D01*
X0112711Y0138355D02*
X0126466Y0138355D01*
X0127265Y0139154D02*
X0113509Y0139154D01*
X0114308Y0139952D02*
X0128063Y0139952D01*
X0128564Y0140751D02*
X0115106Y0140751D01*
X0115905Y0141549D02*
X0129190Y0141549D01*
X0130534Y0142348D02*
X0116703Y0142348D01*
X0130665Y0139195D02*
X0103893Y0112424D01*
X0115354Y0113601D02*
X0126077Y0113601D01*
X0126077Y0114400D02*
X0115993Y0114400D01*
X0116791Y0115198D02*
X0126077Y0115198D01*
X0126077Y0115997D02*
X0117590Y0115997D01*
X0118388Y0116795D02*
X0126077Y0116795D01*
X0126077Y0117594D02*
X0119187Y0117594D01*
X0119986Y0118392D02*
X0126077Y0118392D01*
X0126077Y0119191D02*
X0120784Y0119191D01*
X0121583Y0119989D02*
X0132195Y0119989D01*
X0132595Y0120241D02*
X0140958Y0120241D01*
X0141688Y0119510D01*
X0139113Y0119191D02*
X0151335Y0119191D01*
X0152134Y0119989D02*
X0132995Y0119989D01*
X0132995Y0120641D02*
X0139113Y0120641D01*
X0139113Y0127315D01*
X0139018Y0127671D01*
X0138834Y0127990D01*
X0138573Y0128251D01*
X0138254Y0128435D01*
X0137898Y0128531D01*
X0132995Y0128531D01*
X0132995Y0120641D01*
X0132995Y0120788D02*
X0132195Y0120788D01*
X0132195Y0121586D02*
X0132995Y0121586D01*
X0132995Y0122385D02*
X0132195Y0122385D01*
X0132195Y0123183D02*
X0132995Y0123183D01*
X0132995Y0123982D02*
X0132195Y0123982D01*
X0132195Y0124780D02*
X0132995Y0124780D01*
X0132995Y0125579D02*
X0132195Y0125579D01*
X0132195Y0126377D02*
X0132995Y0126377D01*
X0132995Y0127176D02*
X0132195Y0127176D01*
X0132195Y0127974D02*
X0132995Y0127974D01*
X0131165Y0129571D02*
X0155040Y0129571D01*
X0155839Y0128773D02*
X0130366Y0128773D01*
X0138843Y0127974D02*
X0156637Y0127974D01*
X0157436Y0127176D02*
X0139113Y0127176D01*
X0139113Y0126377D02*
X0158234Y0126377D01*
X0159033Y0125579D02*
X0139113Y0125579D01*
X0139113Y0124780D02*
X0159831Y0124780D01*
X0160630Y0123982D02*
X0158971Y0123982D01*
X0159954Y0123183D02*
X0161428Y0123183D01*
X0162227Y0122385D02*
X0160431Y0122385D01*
X0160700Y0121586D02*
X0163025Y0121586D01*
X0163824Y0120788D02*
X0160700Y0120788D01*
X0160515Y0119989D02*
X0164622Y0119989D01*
X0165421Y0119191D02*
X0160158Y0119191D01*
X0159359Y0118392D02*
X0228154Y0118392D01*
X0227282Y0117594D02*
X0158152Y0117594D01*
X0157354Y0116795D02*
X0226851Y0116795D01*
X0226613Y0115997D02*
X0156555Y0115997D01*
X0155757Y0115198D02*
X0226613Y0115198D01*
X0226831Y0114400D02*
X0154958Y0114400D01*
X0154160Y0113601D02*
X0227234Y0113601D01*
X0228037Y0112803D02*
X0153361Y0112803D01*
X0152562Y0112004D02*
X0230088Y0112004D01*
X0230886Y0111206D02*
X0151764Y0111206D01*
X0144172Y0111206D02*
X0115698Y0111206D01*
X0115761Y0112004D02*
X0127095Y0112004D01*
X0126177Y0112803D02*
X0115685Y0112803D01*
X0122381Y0120788D02*
X0126077Y0120788D01*
X0126077Y0121586D02*
X0123180Y0121586D01*
X0123978Y0122385D02*
X0126077Y0122385D01*
X0126077Y0123183D02*
X0124777Y0123183D01*
X0125575Y0123982D02*
X0126077Y0123982D01*
X0132195Y0119191D02*
X0132995Y0119191D01*
X0132995Y0118392D02*
X0132195Y0118392D01*
X0132195Y0117594D02*
X0132995Y0117594D01*
X0132995Y0116795D02*
X0132195Y0116795D01*
X0132195Y0115997D02*
X0132995Y0115997D01*
X0132995Y0115198D02*
X0132195Y0115198D01*
X0132195Y0114400D02*
X0132995Y0114400D01*
X0132995Y0113601D02*
X0132195Y0113601D01*
X0132195Y0112803D02*
X0132995Y0112803D01*
X0132995Y0112004D02*
X0132195Y0112004D01*
X0138096Y0112004D02*
X0143936Y0112004D01*
X0143936Y0112803D02*
X0139013Y0112803D01*
X0139113Y0113601D02*
X0144155Y0113601D01*
X0144561Y0114400D02*
X0139113Y0114400D01*
X0139113Y0115198D02*
X0145370Y0115198D01*
X0148141Y0115997D02*
X0139113Y0115997D01*
X0139113Y0116795D02*
X0148940Y0116795D01*
X0149738Y0117594D02*
X0139113Y0117594D01*
X0139113Y0118392D02*
X0150537Y0118392D01*
X0152932Y0120788D02*
X0139113Y0120788D01*
X0139113Y0121586D02*
X0153731Y0121586D01*
X0154442Y0122385D02*
X0139113Y0122385D01*
X0139113Y0123183D02*
X0154919Y0123183D01*
X0155901Y0123982D02*
X0139113Y0123982D01*
X0174986Y0126389D02*
X0182986Y0134389D01*
X0226646Y0134389D01*
X0228302Y0136046D01*
X0266885Y0136046D01*
X0273972Y0143132D01*
X0277235Y0143146D02*
X0332832Y0143146D01*
X0332033Y0142348D02*
X0277179Y0142348D01*
X0276849Y0141549D02*
X0331235Y0141549D01*
X0330436Y0140751D02*
X0276206Y0140751D01*
X0274823Y0139952D02*
X0329638Y0139952D01*
X0328839Y0139154D02*
X0273352Y0139154D01*
X0272553Y0138355D02*
X0328041Y0138355D01*
X0327242Y0137557D02*
X0271755Y0137557D01*
X0270956Y0136758D02*
X0326444Y0136758D01*
X0333630Y0143945D02*
X0277168Y0143945D01*
X0276837Y0144743D02*
X0333772Y0144743D01*
X0334103Y0145542D02*
X0276178Y0145542D01*
X0274756Y0146340D02*
X0334769Y0146340D01*
X0335038Y0147937D02*
X0290052Y0147937D01*
X0273188Y0146340D02*
X0230441Y0146340D01*
X0230441Y0145542D02*
X0271765Y0145542D01*
X0271106Y0144743D02*
X0230441Y0144743D01*
X0230441Y0143945D02*
X0270776Y0143945D01*
X0270627Y0143146D02*
X0230441Y0143146D01*
X0230441Y0142348D02*
X0269829Y0142348D01*
X0269030Y0141549D02*
X0230441Y0141549D01*
X0230938Y0140751D02*
X0268232Y0140751D01*
X0267433Y0139952D02*
X0231269Y0139952D01*
X0231330Y0139154D02*
X0266635Y0139154D01*
X0228066Y0139156D02*
X0228066Y0148880D01*
X0222003Y0154943D01*
X0215011Y0155124D02*
X0171477Y0155124D01*
X0171424Y0154325D02*
X0215011Y0154325D01*
X0215011Y0153527D02*
X0171093Y0153527D01*
X0170677Y0152728D02*
X0215011Y0152728D01*
X0215011Y0151930D02*
X0170677Y0151930D01*
X0170677Y0151131D02*
X0215011Y0151131D01*
X0215011Y0150333D02*
X0170677Y0150333D01*
X0170677Y0149534D02*
X0215011Y0149534D01*
X0215011Y0148736D02*
X0170677Y0148736D01*
X0170677Y0147937D02*
X0214776Y0147937D01*
X0213977Y0147139D02*
X0170677Y0147139D01*
X0170677Y0146340D02*
X0213179Y0146340D01*
X0212380Y0145542D02*
X0170677Y0145542D01*
X0170677Y0144743D02*
X0211582Y0144743D01*
X0210308Y0143945D02*
X0170677Y0143945D01*
X0170677Y0143146D02*
X0208853Y0143146D01*
X0208195Y0142348D02*
X0170677Y0142348D01*
X0170677Y0141549D02*
X0207864Y0141549D01*
X0207811Y0140751D02*
X0170677Y0140751D01*
X0170677Y0139952D02*
X0207896Y0139952D01*
X0208227Y0139154D02*
X0171152Y0139154D01*
X0171482Y0138355D02*
X0208930Y0138355D01*
X0210986Y0140789D02*
X0217386Y0147189D01*
X0217386Y0173589D01*
X0194444Y0178565D02*
X0194444Y0162817D01*
X0198381Y0158880D01*
X0214129Y0158880D01*
X0212742Y0155922D02*
X0171392Y0155922D01*
X0171061Y0156721D02*
X0197182Y0156721D01*
X0196384Y0157519D02*
X0170358Y0157519D01*
X0168302Y0155085D02*
X0168302Y0137611D01*
X0168391Y0137523D01*
X0165216Y0137557D02*
X0134306Y0137557D01*
X0134637Y0138355D02*
X0165299Y0138355D01*
X0165630Y0139154D02*
X0134716Y0139154D01*
X0134671Y0139952D02*
X0165928Y0139952D01*
X0165928Y0140751D02*
X0134340Y0140751D01*
X0133714Y0141549D02*
X0165928Y0141549D01*
X0165271Y0136758D02*
X0133631Y0136758D01*
X0131452Y0139195D02*
X0130665Y0139195D01*
X0134186Y0145589D02*
X0124586Y0155189D01*
X0119645Y0152728D02*
X0062561Y0152728D01*
X0062561Y0151930D02*
X0119527Y0151930D01*
X0118770Y0151131D02*
X0062561Y0151131D01*
X0062561Y0150333D02*
X0117971Y0150333D01*
X0125718Y0150333D02*
X0126084Y0150333D01*
X0132293Y0159915D02*
X0107369Y0159915D01*
X0108009Y0159116D02*
X0194787Y0159116D01*
X0195585Y0158318D02*
X0108339Y0158318D01*
X0105958Y0160713D02*
X0131302Y0160713D01*
X0130822Y0161512D02*
X0062561Y0161512D01*
X0062561Y0162310D02*
X0130550Y0162310D01*
X0130550Y0163109D02*
X0062561Y0163109D01*
X0062561Y0163907D02*
X0130733Y0163907D01*
X0131087Y0164706D02*
X0062561Y0164706D01*
X0062561Y0165504D02*
X0131886Y0165504D01*
X0133802Y0166303D02*
X0062561Y0166303D01*
X0062561Y0167102D02*
X0068947Y0167102D01*
X0067710Y0167614D02*
X0070751Y0166354D01*
X0074043Y0166354D01*
X0077084Y0167614D01*
X0079411Y0169941D01*
X0080671Y0172983D01*
X0080671Y0176274D01*
X0079411Y0179315D01*
X0077084Y0181643D01*
X0074043Y0182902D01*
X0070751Y0182902D01*
X0067710Y0181643D01*
X0065383Y0179315D01*
X0064123Y0176274D01*
X0064123Y0172983D01*
X0065383Y0169941D01*
X0067710Y0167614D01*
X0067424Y0167900D02*
X0062561Y0167900D01*
X0062561Y0168699D02*
X0066626Y0168699D01*
X0065827Y0169497D02*
X0062561Y0169497D01*
X0062561Y0170296D02*
X0065236Y0170296D01*
X0064905Y0171094D02*
X0062561Y0171094D01*
X0062561Y0171893D02*
X0064574Y0171893D01*
X0064244Y0172691D02*
X0062561Y0172691D01*
X0062561Y0173490D02*
X0064123Y0173490D01*
X0064123Y0174288D02*
X0062561Y0174288D01*
X0062561Y0175087D02*
X0064123Y0175087D01*
X0064123Y0175885D02*
X0062561Y0175885D01*
X0062561Y0176684D02*
X0064293Y0176684D01*
X0064623Y0177482D02*
X0062561Y0177482D01*
X0062561Y0178281D02*
X0064954Y0178281D01*
X0065285Y0179079D02*
X0062561Y0179079D01*
X0062561Y0179878D02*
X0065945Y0179878D01*
X0066744Y0180676D02*
X0062561Y0180676D01*
X0062561Y0181475D02*
X0067542Y0181475D01*
X0069232Y0182273D02*
X0062561Y0182273D01*
X0062561Y0183072D02*
X0091091Y0183072D01*
X0091091Y0183870D02*
X0062561Y0183870D01*
X0075562Y0182273D02*
X0091182Y0182273D01*
X0091643Y0181475D02*
X0077252Y0181475D01*
X0078050Y0180676D02*
X0092104Y0180676D01*
X0092148Y0180600D02*
X0092148Y0180600D01*
X0093399Y0179878D02*
X0078849Y0179878D01*
X0079509Y0179079D02*
X0134119Y0179079D01*
X0133802Y0178281D02*
X0079840Y0178281D01*
X0080171Y0177482D02*
X0133802Y0177482D01*
X0133802Y0176684D02*
X0080501Y0176684D01*
X0080671Y0175885D02*
X0133802Y0175885D01*
X0133802Y0175087D02*
X0080671Y0175087D01*
X0080671Y0174288D02*
X0133802Y0174288D01*
X0133802Y0173490D02*
X0080671Y0173490D01*
X0080550Y0172691D02*
X0133802Y0172691D01*
X0133802Y0171893D02*
X0080219Y0171893D01*
X0079889Y0171094D02*
X0133802Y0171094D01*
X0133802Y0170296D02*
X0079558Y0170296D01*
X0078967Y0169497D02*
X0133802Y0169497D01*
X0133802Y0168699D02*
X0078168Y0168699D01*
X0077370Y0167900D02*
X0133802Y0167900D01*
X0133802Y0167102D02*
X0075847Y0167102D01*
X0080022Y0159915D02*
X0062561Y0159915D01*
X0062561Y0160713D02*
X0081433Y0160713D01*
X0082939Y0160713D02*
X0087833Y0160713D01*
X0089339Y0160713D02*
X0104452Y0160713D01*
X0103041Y0159915D02*
X0090750Y0159915D01*
X0091390Y0159116D02*
X0102401Y0159116D01*
X0102070Y0158318D02*
X0091720Y0158318D01*
X0088586Y0157589D02*
X0082186Y0157589D01*
X0079011Y0157519D02*
X0062561Y0157519D01*
X0062561Y0156721D02*
X0079109Y0156721D01*
X0079440Y0155922D02*
X0062561Y0155922D01*
X0062561Y0155124D02*
X0080161Y0155124D01*
X0079051Y0158318D02*
X0062561Y0158318D01*
X0062561Y0159116D02*
X0079382Y0159116D01*
X0084211Y0155124D02*
X0086561Y0155124D01*
X0133814Y0162817D02*
X0136176Y0165180D01*
X0136176Y0177778D01*
X0140901Y0182502D01*
X0151137Y0182502D01*
X0154103Y0183870D02*
X0163919Y0183870D01*
X0163621Y0183072D02*
X0154401Y0183072D01*
X0154401Y0182273D02*
X0163621Y0182273D01*
X0163778Y0181475D02*
X0154244Y0181475D01*
X0153913Y0180676D02*
X0164109Y0180676D01*
X0164894Y0179878D02*
X0153128Y0179878D01*
X0149146Y0179878D02*
X0141635Y0179878D01*
X0140836Y0179079D02*
X0190572Y0179079D01*
X0191370Y0178281D02*
X0140038Y0178281D01*
X0139239Y0177482D02*
X0192069Y0177482D01*
X0192069Y0176684D02*
X0138551Y0176684D01*
X0138551Y0175885D02*
X0192069Y0175885D01*
X0192069Y0175087D02*
X0138551Y0175087D01*
X0138551Y0174288D02*
X0192069Y0174288D01*
X0192069Y0173490D02*
X0138551Y0173490D01*
X0138551Y0172691D02*
X0192069Y0172691D01*
X0192069Y0171893D02*
X0138551Y0171893D01*
X0138551Y0171094D02*
X0192069Y0171094D01*
X0192069Y0170296D02*
X0138551Y0170296D01*
X0138551Y0169497D02*
X0192069Y0169497D01*
X0192069Y0168699D02*
X0138551Y0168699D01*
X0138551Y0167900D02*
X0192069Y0167900D01*
X0192069Y0167102D02*
X0138551Y0167102D01*
X0138551Y0166303D02*
X0192069Y0166303D01*
X0192069Y0165504D02*
X0138551Y0165504D01*
X0138551Y0164706D02*
X0192069Y0164706D01*
X0192069Y0163907D02*
X0138263Y0163907D01*
X0137464Y0163109D02*
X0192069Y0163109D01*
X0192069Y0162310D02*
X0137078Y0162310D01*
X0136806Y0161512D02*
X0192391Y0161512D01*
X0193190Y0160713D02*
X0136326Y0160713D01*
X0135336Y0159915D02*
X0193988Y0159915D01*
X0194444Y0178565D02*
X0190507Y0182502D01*
X0166885Y0182502D01*
X0168876Y0179878D02*
X0189773Y0179878D01*
X0138910Y0183870D02*
X0128506Y0183870D01*
X0128506Y0183072D02*
X0138112Y0183072D01*
X0137313Y0182273D02*
X0128415Y0182273D01*
X0127954Y0181475D02*
X0136515Y0181475D01*
X0135716Y0180676D02*
X0127493Y0180676D01*
X0127449Y0180600D02*
X0127449Y0180600D01*
X0127449Y0180600D01*
X0126198Y0179878D02*
X0134918Y0179878D01*
X0267673Y0122266D02*
X0268460Y0123054D01*
X0256649Y0118723D02*
X0255131Y0120241D01*
X0248343Y0120241D01*
X0233814Y0111636D02*
X0229877Y0115573D01*
X0233145Y0100928D02*
X0207358Y0100928D01*
X0208218Y0098430D02*
X0232284Y0098430D01*
X0233083Y0097631D02*
X0207419Y0097631D01*
X0206621Y0096833D02*
X0233882Y0096833D01*
X0234680Y0096034D02*
X0205822Y0096034D01*
X0205024Y0095235D02*
X0235479Y0095235D01*
X0236277Y0094437D02*
X0204225Y0094437D01*
X0203427Y0093638D02*
X0237076Y0093638D01*
X0239011Y0095061D02*
X0233145Y0100928D01*
X0229484Y0098250D02*
X0214917Y0098250D01*
X0208421Y0091754D01*
X0202628Y0092840D02*
X0229985Y0092840D01*
X0228501Y0092041D02*
X0201830Y0092041D01*
X0201031Y0091243D02*
X0227817Y0091243D01*
X0227486Y0090444D02*
X0200233Y0090444D01*
X0199434Y0089646D02*
X0227401Y0089646D01*
X0227439Y0088847D02*
X0198636Y0088847D01*
X0197837Y0088049D02*
X0227770Y0088049D01*
X0228388Y0087250D02*
X0197039Y0087250D01*
X0196240Y0086452D02*
X0229710Y0086452D01*
X0231620Y0086452D02*
X0266886Y0086452D01*
X0267684Y0087250D02*
X0232942Y0087250D01*
X0233559Y0088049D02*
X0268483Y0088049D01*
X0266087Y0085653D02*
X0257177Y0085653D01*
X0255334Y0085653D02*
X0197334Y0085653D01*
X0198436Y0084855D02*
X0253992Y0084855D01*
X0253366Y0084056D02*
X0199234Y0084056D01*
X0199632Y0083258D02*
X0253035Y0083258D01*
X0252991Y0082459D02*
X0199963Y0082459D01*
X0200159Y0081661D02*
X0253071Y0081661D01*
X0253402Y0080862D02*
X0200159Y0080862D01*
X0200159Y0080064D02*
X0254078Y0080064D01*
X0255542Y0079265D02*
X0199909Y0079265D01*
X0199578Y0078467D02*
X0285573Y0078467D01*
X0285573Y0079265D02*
X0256969Y0079265D01*
X0258432Y0080064D02*
X0284863Y0080064D01*
X0284064Y0080862D02*
X0268013Y0080862D01*
X0268811Y0081661D02*
X0283266Y0081661D01*
X0282467Y0082459D02*
X0269610Y0082459D01*
X0270409Y0083258D02*
X0281669Y0083258D01*
X0280870Y0084056D02*
X0271207Y0084056D01*
X0272006Y0084855D02*
X0280072Y0084855D01*
X0279273Y0085653D02*
X0274061Y0085653D01*
X0274860Y0086452D02*
X0278475Y0086452D01*
X0277676Y0087250D02*
X0275253Y0087250D01*
X0275464Y0088049D02*
X0276878Y0088049D01*
X0277515Y0090770D02*
X0231846Y0090770D01*
X0230665Y0089589D01*
X0239011Y0095061D02*
X0275625Y0095061D01*
X0293940Y0076746D01*
X0316610Y0076746D01*
X0335445Y0066489D02*
X0278215Y0066489D01*
X0278215Y0065691D02*
X0336244Y0065691D01*
X0337042Y0064892D02*
X0278215Y0064892D01*
X0278215Y0064094D02*
X0337841Y0064094D01*
X0338639Y0063295D02*
X0278215Y0063295D01*
X0278215Y0062497D02*
X0339438Y0062497D01*
X0340236Y0061698D02*
X0278215Y0061698D01*
X0278215Y0060900D02*
X0341035Y0060900D01*
X0341834Y0060101D02*
X0278215Y0060101D01*
X0278215Y0059302D02*
X0342632Y0059302D01*
X0343431Y0058504D02*
X0278215Y0058504D01*
X0278215Y0057705D02*
X0344229Y0057705D01*
X0345028Y0056907D02*
X0278215Y0056907D01*
X0278215Y0056108D02*
X0345826Y0056108D01*
X0346625Y0055310D02*
X0278215Y0055310D01*
X0278215Y0054511D02*
X0347423Y0054511D01*
X0348222Y0053713D02*
X0278215Y0053713D01*
X0278215Y0052914D02*
X0349020Y0052914D01*
X0349819Y0052116D02*
X0278215Y0052116D01*
X0278215Y0051317D02*
X0350617Y0051317D01*
X0351416Y0050519D02*
X0278215Y0050519D01*
X0278215Y0049720D02*
X0352214Y0049720D01*
X0353013Y0048922D02*
X0278215Y0048922D01*
X0278215Y0048123D02*
X0353811Y0048123D01*
X0354610Y0047325D02*
X0278215Y0047325D01*
X0278215Y0046526D02*
X0355408Y0046526D01*
X0356207Y0045728D02*
X0278215Y0045728D01*
X0278215Y0044929D02*
X0357005Y0044929D01*
X0357804Y0044131D02*
X0278215Y0044131D01*
X0278215Y0043332D02*
X0358602Y0043332D01*
X0359401Y0042534D02*
X0278215Y0042534D01*
X0278215Y0041735D02*
X0360199Y0041735D01*
X0360998Y0040937D02*
X0278215Y0040937D01*
X0278215Y0040138D02*
X0361796Y0040138D01*
X0362595Y0039340D02*
X0278215Y0039340D01*
X0278215Y0038541D02*
X0363393Y0038541D01*
X0362936Y0038999D02*
X0362936Y0038999D01*
X0364192Y0037743D02*
X0278215Y0037743D01*
X0278215Y0036944D02*
X0681833Y0036944D01*
X0681833Y0036146D02*
X0278215Y0036146D01*
X0278215Y0035347D02*
X0681833Y0035347D01*
X0681833Y0034549D02*
X0278215Y0034549D01*
X0278215Y0033750D02*
X0681833Y0033750D01*
X0681833Y0032952D02*
X0278215Y0032952D01*
X0278215Y0032153D02*
X0681833Y0032153D01*
X0681833Y0031355D02*
X0278215Y0031355D01*
X0238232Y0031355D02*
X0062561Y0031355D01*
X0062561Y0032153D02*
X0238232Y0032153D01*
X0231118Y0046526D02*
X0078342Y0046526D01*
X0077543Y0047325D02*
X0209556Y0047325D01*
X0208757Y0048123D02*
X0076266Y0048123D01*
X0074338Y0048922D02*
X0207959Y0048922D01*
X0202299Y0062497D02*
X0081983Y0062497D01*
X0082603Y0063295D02*
X0116545Y0063295D01*
X0115564Y0064094D02*
X0097409Y0064094D01*
X0098779Y0064892D02*
X0114765Y0064892D01*
X0114417Y0065691D02*
X0099402Y0065691D01*
X0099732Y0066489D02*
X0114087Y0066489D01*
X0113926Y0067288D02*
X0100043Y0067288D01*
X0100842Y0068086D02*
X0113926Y0068086D01*
X0113926Y0068885D02*
X0101640Y0068885D01*
X0102439Y0069683D02*
X0114212Y0069683D01*
X0114542Y0070482D02*
X0103237Y0070482D01*
X0104036Y0071280D02*
X0115067Y0071280D01*
X0115865Y0072079D02*
X0104834Y0072079D01*
X0105633Y0072877D02*
X0117273Y0072877D01*
X0121222Y0072877D02*
X0148314Y0072877D01*
X0147785Y0072079D02*
X0122629Y0072079D01*
X0123428Y0071280D02*
X0147480Y0071280D01*
X0147480Y0070482D02*
X0123952Y0070482D01*
X0124283Y0069683D02*
X0147628Y0069683D01*
X0147959Y0068885D02*
X0124569Y0068885D01*
X0124569Y0068086D02*
X0148733Y0068086D01*
X0150743Y0070691D02*
X0160980Y0070691D01*
X0162303Y0073676D02*
X0285573Y0073676D01*
X0285573Y0074474D02*
X0107230Y0074474D01*
X0108028Y0075273D02*
X0285573Y0075273D01*
X0285573Y0076071D02*
X0197019Y0076071D01*
X0198305Y0076870D02*
X0285573Y0076870D01*
X0285573Y0077668D02*
X0199104Y0077668D01*
X0192657Y0076071D02*
X0108827Y0076071D01*
X0106431Y0073676D02*
X0149420Y0073676D01*
X0152067Y0073676D02*
X0159656Y0073676D01*
X0163409Y0072877D02*
X0285573Y0072877D01*
X0287948Y0070455D02*
X0287948Y0080337D01*
X0277515Y0090770D01*
X0272200Y0088408D02*
X0266295Y0082502D01*
X0256255Y0082502D01*
X0238509Y0069683D02*
X0199886Y0069683D01*
X0200260Y0068885D02*
X0238232Y0068885D01*
X0238232Y0068086D02*
X0200260Y0068086D01*
X0197381Y0072025D02*
X0197381Y0072025D01*
X0158969Y0068086D02*
X0152754Y0068086D01*
X0112586Y0083189D02*
X0096586Y0067189D01*
X0094393Y0064892D02*
X0083247Y0064892D01*
X0082934Y0064094D02*
X0095763Y0064094D01*
X0093770Y0065691D02*
X0084046Y0065691D01*
X0084844Y0066489D02*
X0093439Y0066489D01*
X0093411Y0067288D02*
X0085643Y0067288D01*
X0086442Y0068086D02*
X0093521Y0068086D01*
X0093852Y0068885D02*
X0087240Y0068885D01*
X0088039Y0069683D02*
X0094590Y0069683D01*
X0096520Y0070482D02*
X0088837Y0070482D01*
X0089636Y0071280D02*
X0097319Y0071280D01*
X0098117Y0072079D02*
X0090434Y0072079D01*
X0091233Y0072877D02*
X0098916Y0072877D01*
X0099714Y0073676D02*
X0092031Y0073676D01*
X0092830Y0074474D02*
X0100513Y0074474D01*
X0101311Y0075273D02*
X0093628Y0075273D01*
X0094427Y0076071D02*
X0102110Y0076071D01*
X0102908Y0076870D02*
X0095225Y0076870D01*
X0096024Y0077668D02*
X0103707Y0077668D01*
X0104505Y0078467D02*
X0096822Y0078467D01*
X0097621Y0079265D02*
X0105304Y0079265D01*
X0106102Y0080064D02*
X0098419Y0080064D01*
X0099218Y0080862D02*
X0106901Y0080862D01*
X0107699Y0081661D02*
X0100016Y0081661D01*
X0100815Y0082459D02*
X0108498Y0082459D01*
X0109296Y0083258D02*
X0101613Y0083258D01*
X0102412Y0084056D02*
X0110095Y0084056D01*
X0110211Y0084855D02*
X0103210Y0084855D01*
X0104009Y0085653D02*
X0110211Y0085653D01*
X0110211Y0086452D02*
X0104807Y0086452D01*
X0105606Y0087250D02*
X0110211Y0087250D01*
X0110211Y0088049D02*
X0106404Y0088049D01*
X0107203Y0088847D02*
X0110211Y0088847D01*
X0110211Y0089646D02*
X0108001Y0089646D01*
X0108800Y0090444D02*
X0110211Y0090444D01*
X0110211Y0091243D02*
X0109598Y0091243D01*
X0108586Y0093589D02*
X0108586Y0103989D01*
X0108586Y0093589D02*
X0079786Y0064789D01*
X0286570Y0090770D02*
X0314523Y0090770D01*
X0365310Y0039983D01*
X0483421Y0039983D01*
X0496019Y0052581D01*
X0495718Y0048922D02*
X0537174Y0048922D01*
X0536342Y0048123D02*
X0494920Y0048123D01*
X0494121Y0047325D02*
X0535650Y0047325D01*
X0535320Y0046526D02*
X0493323Y0046526D01*
X0492524Y0045728D02*
X0534989Y0045728D01*
X0534973Y0044929D02*
X0491726Y0044929D01*
X0490927Y0044131D02*
X0534973Y0044131D01*
X0535135Y0043332D02*
X0490129Y0043332D01*
X0489330Y0042534D02*
X0535466Y0042534D01*
X0535898Y0041735D02*
X0488532Y0041735D01*
X0487733Y0040937D02*
X0536696Y0040937D01*
X0538029Y0040138D02*
X0486935Y0040138D01*
X0486136Y0039340D02*
X0681833Y0039340D01*
X0681833Y0040138D02*
X0628418Y0040138D01*
X0624644Y0040138D02*
X0585111Y0040138D01*
X0581336Y0040138D02*
X0541804Y0040138D01*
X0543137Y0040937D02*
X0555410Y0040937D01*
X0554427Y0041735D02*
X0543936Y0041735D01*
X0544367Y0042534D02*
X0553838Y0042534D01*
X0553487Y0043332D02*
X0544698Y0043332D01*
X0544860Y0044131D02*
X0553301Y0044131D01*
X0557233Y0043332D02*
X0558033Y0043332D01*
X0558033Y0042534D02*
X0557233Y0042534D01*
X0557233Y0041735D02*
X0558033Y0041735D01*
X0558033Y0040937D02*
X0557233Y0040937D01*
X0557233Y0045728D02*
X0558033Y0045728D01*
X0558033Y0046526D02*
X0557233Y0046526D01*
X0557233Y0047325D02*
X0558033Y0047325D01*
X0558033Y0048123D02*
X0557233Y0048123D01*
X0531739Y0057705D02*
X0495053Y0057705D01*
X0494254Y0056907D02*
X0531064Y0056907D01*
X0497449Y0060101D02*
X0565062Y0060101D01*
X0565310Y0063211D02*
X0569247Y0059274D01*
X0565310Y0063211D02*
X0497200Y0063211D01*
X0483421Y0049431D01*
X0480430Y0048123D02*
X0461061Y0048123D01*
X0460700Y0047325D02*
X0480912Y0047325D01*
X0481906Y0046526D02*
X0460418Y0046526D01*
X0461860Y0048922D02*
X0480157Y0048922D01*
X0480157Y0049720D02*
X0462658Y0049720D01*
X0463457Y0050519D02*
X0480338Y0050519D01*
X0480691Y0051317D02*
X0464255Y0051317D01*
X0465054Y0052116D02*
X0481489Y0052116D01*
X0483545Y0052914D02*
X0465852Y0052914D01*
X0466651Y0053713D02*
X0484343Y0053713D01*
X0485142Y0054511D02*
X0467449Y0054511D01*
X0479759Y0060455D02*
X0426728Y0060455D01*
X0411373Y0066361D02*
X0641295Y0066361D01*
X0652318Y0077384D01*
X0649234Y0078467D02*
X0636505Y0078467D01*
X0636684Y0077668D02*
X0649054Y0077668D01*
X0648445Y0076870D02*
X0636684Y0076870D01*
X0636409Y0076071D02*
X0647647Y0076071D01*
X0646848Y0075273D02*
X0635925Y0075273D01*
X0634924Y0074474D02*
X0646050Y0074474D01*
X0645251Y0073676D02*
X0633070Y0073676D01*
X0632272Y0072877D02*
X0644453Y0072877D01*
X0643654Y0072079D02*
X0631473Y0072079D01*
X0630675Y0071280D02*
X0642856Y0071280D01*
X0642057Y0070482D02*
X0629876Y0070482D01*
X0629078Y0069683D02*
X0641259Y0069683D01*
X0640460Y0068885D02*
X0628279Y0068885D01*
X0623972Y0067935D02*
X0633421Y0077384D01*
X0630336Y0078467D02*
X0618395Y0078467D01*
X0618574Y0077668D02*
X0630157Y0077668D01*
X0629548Y0076870D02*
X0618574Y0076870D01*
X0618299Y0076071D02*
X0628749Y0076071D01*
X0627951Y0075273D02*
X0617814Y0075273D01*
X0616813Y0074474D02*
X0627152Y0074474D01*
X0626354Y0073676D02*
X0614960Y0073676D01*
X0614162Y0072877D02*
X0625555Y0072877D01*
X0624756Y0072079D02*
X0613363Y0072079D01*
X0612565Y0071280D02*
X0623958Y0071280D01*
X0623159Y0070482D02*
X0611766Y0070482D01*
X0607436Y0069510D02*
X0615310Y0077384D01*
X0617246Y0080064D02*
X0631484Y0080064D01*
X0630686Y0079265D02*
X0618045Y0079265D01*
X0635357Y0080064D02*
X0650382Y0080064D01*
X0649584Y0079265D02*
X0636155Y0079265D01*
X0645580Y0067288D02*
X0681833Y0067288D01*
X0681833Y0066489D02*
X0644781Y0066489D01*
X0643983Y0065691D02*
X0681833Y0065691D01*
X0681833Y0064892D02*
X0643184Y0064892D01*
X0642386Y0064094D02*
X0681833Y0064094D01*
X0681833Y0063295D02*
X0613850Y0063295D01*
X0613850Y0062497D02*
X0681833Y0062497D01*
X0681833Y0061698D02*
X0613655Y0061698D01*
X0613284Y0060900D02*
X0681833Y0060900D01*
X0681833Y0060101D02*
X0612485Y0060101D01*
X0623972Y0067935D02*
X0411373Y0067935D01*
X0407043Y0072266D01*
X0411373Y0066361D02*
X0393263Y0066361D01*
X0391295Y0068329D01*
X0427362Y0083258D02*
X0681833Y0083258D01*
X0681833Y0084056D02*
X0426564Y0084056D01*
X0425765Y0084855D02*
X0681833Y0084855D01*
X0681833Y0085653D02*
X0424967Y0085653D01*
X0428161Y0082459D02*
X0681833Y0082459D01*
X0681833Y0081661D02*
X0530216Y0081661D01*
X0531015Y0080862D02*
X0543362Y0080862D01*
X0542114Y0080064D02*
X0531378Y0080064D01*
X0531566Y0079265D02*
X0541528Y0079265D01*
X0564478Y0075273D02*
X0574014Y0075273D01*
X0574812Y0076071D02*
X0565463Y0076071D01*
X0580960Y0080862D02*
X0596905Y0080862D01*
X0483263Y0063959D02*
X0479759Y0060455D01*
X0485795Y0038999D02*
X0485795Y0038999D01*
X0485338Y0038541D02*
X0681833Y0038541D01*
X0681833Y0037743D02*
X0484539Y0037743D01*
X0361361Y0093638D02*
X0342885Y0093638D01*
X0344065Y0094437D02*
X0361361Y0094437D01*
X0361361Y0095235D02*
X0344624Y0095235D01*
X0344952Y0096034D02*
X0361361Y0096034D01*
X0361361Y0096833D02*
X0344952Y0096833D01*
X0344825Y0097631D02*
X0361361Y0097631D01*
X0361361Y0098430D02*
X0344494Y0098430D01*
X0343751Y0099228D02*
X0361361Y0099228D01*
X0361361Y0100027D02*
X0341696Y0100027D01*
X0340897Y0100825D02*
X0361361Y0100825D01*
X0361361Y0101624D02*
X0340099Y0101624D01*
X0339300Y0102422D02*
X0361361Y0102422D01*
X0361361Y0103221D02*
X0338502Y0103221D01*
X0331929Y0107389D02*
X0339720Y0115180D01*
X0339720Y0137227D01*
X0410904Y0158318D02*
X0632814Y0158318D01*
X0632814Y0159116D02*
X0411702Y0159116D01*
X0412054Y0159469D02*
X0412054Y0159469D01*
X0412239Y0159915D02*
X0632814Y0159915D01*
X0632814Y0160713D02*
X0412570Y0160713D01*
X0412901Y0161512D02*
X0632814Y0161512D01*
X0632255Y0162310D02*
X0412954Y0162310D01*
X0412954Y0163109D02*
X0631456Y0163109D01*
X0630658Y0163907D02*
X0412954Y0163907D01*
X0412954Y0164706D02*
X0629859Y0164706D01*
X0629061Y0165504D02*
X0412954Y0165504D01*
X0412954Y0166303D02*
X0628262Y0166303D01*
X0627464Y0167102D02*
X0412954Y0167102D01*
X0412954Y0167900D02*
X0609977Y0167900D01*
X0609144Y0168699D02*
X0412954Y0168699D01*
X0412954Y0169497D02*
X0608729Y0169497D01*
X0608503Y0170296D02*
X0412954Y0170296D01*
X0412954Y0171094D02*
X0608503Y0171094D01*
X0608732Y0171893D02*
X0412954Y0171893D01*
X0412954Y0172691D02*
X0609151Y0172691D01*
X0609994Y0173490D02*
X0412954Y0173490D01*
X0412954Y0174288D02*
X0678451Y0174288D01*
X0678296Y0173914D02*
X0678296Y0171406D01*
X0679256Y0169088D01*
X0681030Y0167314D01*
X0683347Y0166354D01*
X0685856Y0166354D01*
X0688173Y0167314D01*
X0689947Y0169088D01*
X0690907Y0171406D01*
X0690907Y0173914D01*
X0689947Y0176232D01*
X0688173Y0178005D01*
X0685856Y0178965D01*
X0683347Y0178965D01*
X0681030Y0178005D01*
X0679256Y0176232D01*
X0678296Y0173914D01*
X0678296Y0173490D02*
X0613540Y0173490D01*
X0613557Y0167900D02*
X0626665Y0167900D01*
X0629955Y0171893D02*
X0678296Y0171893D01*
X0678296Y0172691D02*
X0629157Y0172691D01*
X0630754Y0171094D02*
X0678425Y0171094D01*
X0678756Y0170296D02*
X0631552Y0170296D01*
X0632351Y0169497D02*
X0679087Y0169497D01*
X0679646Y0168699D02*
X0633149Y0168699D01*
X0633948Y0167900D02*
X0680444Y0167900D01*
X0681544Y0167102D02*
X0634746Y0167102D01*
X0635545Y0166303D02*
X0725140Y0166303D01*
X0725140Y0167102D02*
X0707345Y0167102D01*
X0707858Y0167314D02*
X0709632Y0169088D01*
X0710592Y0171406D01*
X0710592Y0173914D01*
X0709632Y0176232D01*
X0707858Y0178005D01*
X0705541Y0178965D01*
X0703032Y0178965D01*
X0700715Y0178005D01*
X0698941Y0176232D01*
X0697981Y0173914D01*
X0697981Y0171406D01*
X0698941Y0169088D01*
X0700715Y0167314D01*
X0703032Y0166354D01*
X0705541Y0166354D01*
X0707858Y0167314D01*
X0708444Y0167900D02*
X0725140Y0167900D01*
X0725140Y0168699D02*
X0709243Y0168699D01*
X0709802Y0169497D02*
X0725140Y0169497D01*
X0725140Y0170296D02*
X0710132Y0170296D01*
X0710463Y0171094D02*
X0725140Y0171094D01*
X0725140Y0171893D02*
X0710592Y0171893D01*
X0710592Y0172691D02*
X0725140Y0172691D01*
X0725140Y0173490D02*
X0710592Y0173490D01*
X0710437Y0174288D02*
X0725140Y0174288D01*
X0725140Y0175087D02*
X0710107Y0175087D01*
X0709776Y0175885D02*
X0725140Y0175885D01*
X0725140Y0176684D02*
X0709180Y0176684D01*
X0708382Y0177482D02*
X0725140Y0177482D01*
X0725140Y0178281D02*
X0707194Y0178281D01*
X0701380Y0178281D02*
X0687509Y0178281D01*
X0688697Y0177482D02*
X0700192Y0177482D01*
X0699393Y0176684D02*
X0689495Y0176684D01*
X0690091Y0175885D02*
X0698798Y0175885D01*
X0698467Y0175087D02*
X0690421Y0175087D01*
X0690752Y0174288D02*
X0698136Y0174288D01*
X0697981Y0173490D02*
X0690907Y0173490D01*
X0690907Y0172691D02*
X0697981Y0172691D01*
X0697981Y0171893D02*
X0690907Y0171893D01*
X0690778Y0171094D02*
X0698110Y0171094D01*
X0698441Y0170296D02*
X0690447Y0170296D01*
X0690117Y0169497D02*
X0698772Y0169497D01*
X0699331Y0168699D02*
X0689558Y0168699D01*
X0688759Y0167900D02*
X0700129Y0167900D01*
X0701229Y0167102D02*
X0687660Y0167102D01*
X0678782Y0175087D02*
X0412954Y0175087D01*
X0412954Y0175885D02*
X0679113Y0175885D01*
X0679708Y0176684D02*
X0412954Y0176684D01*
X0412954Y0177482D02*
X0680507Y0177482D01*
X0681694Y0178281D02*
X0412954Y0178281D01*
X0412954Y0179079D02*
X0725140Y0179079D01*
X0725140Y0179878D02*
X0412954Y0179878D01*
X0412954Y0180676D02*
X0725140Y0180676D01*
X0725140Y0181475D02*
X0412954Y0181475D01*
X0412954Y0182273D02*
X0725140Y0182273D01*
X0725140Y0183072D02*
X0412954Y0183072D01*
X0412954Y0183870D02*
X0725140Y0183870D01*
X0725140Y0165504D02*
X0636343Y0165504D01*
X0637142Y0164706D02*
X0725140Y0164706D01*
X0725140Y0163907D02*
X0637724Y0163907D01*
X0637964Y0163109D02*
X0725140Y0163109D01*
X0725140Y0162310D02*
X0637964Y0162310D01*
X0637964Y0161512D02*
X0725140Y0161512D01*
X0725140Y0160713D02*
X0637964Y0160713D01*
X0637964Y0159915D02*
X0725140Y0159915D01*
X0725140Y0159116D02*
X0637964Y0159116D01*
X0637964Y0158318D02*
X0725140Y0158318D01*
X0725140Y0157519D02*
X0637964Y0157519D01*
X0637964Y0156721D02*
X0725140Y0156721D01*
X0725140Y0155922D02*
X0637964Y0155922D01*
X0637964Y0155124D02*
X0725140Y0155124D01*
X0725140Y0154325D02*
X0637964Y0154325D01*
X0637964Y0153527D02*
X0725140Y0153527D01*
X0725140Y0152728D02*
X0637964Y0152728D01*
X0637964Y0151930D02*
X0725140Y0151930D01*
X0725140Y0151131D02*
X0637964Y0151131D01*
X0637964Y0150333D02*
X0725140Y0150333D01*
X0725140Y0149534D02*
X0637964Y0149534D01*
X0637964Y0148736D02*
X0725140Y0148736D01*
X0725140Y0147937D02*
X0637964Y0147937D01*
X0637964Y0147139D02*
X0725140Y0147139D01*
X0725538Y0146340D02*
X0637964Y0146340D01*
X0637964Y0145542D02*
X0727302Y0145542D01*
X0727302Y0146340D02*
X0726343Y0146340D01*
X0727141Y0147139D02*
X0727302Y0147139D01*
X0727302Y0144743D02*
X0638254Y0144743D01*
X0638585Y0143945D02*
X0727302Y0143945D01*
X0727302Y0143146D02*
X0638653Y0143146D01*
X0638597Y0142348D02*
X0727302Y0142348D01*
X0727302Y0141549D02*
X0638266Y0141549D01*
X0637623Y0140751D02*
X0726989Y0140751D01*
X0322791Y0093920D02*
X0322791Y0093526D01*
X0292854Y0074474D02*
X0290323Y0074474D01*
X0290323Y0075273D02*
X0292055Y0075273D01*
X0291257Y0076071D02*
X0290323Y0076071D01*
X0290323Y0076870D02*
X0290458Y0076870D01*
D16*
X0208421Y0091754D02*
X0200743Y0084077D01*
X0200743Y0042345D01*
X0209011Y0034077D01*
X0423184Y0095494D02*
X0423578Y0095888D01*
X0426728Y0095888D01*
X0426728Y0119510D01*
X0406058Y0140180D01*
X0395232Y0140180D01*
X0370035Y0140180D01*
X0365113Y0135258D01*
X0351924Y0135258D01*
X0336176Y0151006D01*
X0288932Y0151006D01*
X0358106Y0155731D02*
X0396885Y0155731D01*
X0401806Y0150809D01*
X0462161Y0123447D02*
X0462161Y0119707D01*
X0466885Y0114983D01*
X0462161Y0095888D02*
X0426728Y0095888D01*
X0462161Y0095888D02*
X0497594Y0095888D01*
X0501531Y0091951D01*
X0557633Y0044707D02*
X0557633Y0037817D01*
X0556649Y0036833D01*
X0599956Y0036833D02*
X0600940Y0037817D01*
X0600940Y0044707D01*
X0643263Y0036833D02*
X0644247Y0037817D01*
X0644247Y0044707D01*
X0674759Y0103762D02*
X0828302Y0103762D01*
X0157436Y0121085D02*
X0148775Y0112424D01*
X0147200Y0112424D01*
D17*
X0668854Y0135258D02*
X0668854Y0068329D01*
D18*
X0668854Y0058487D01*
X0647200Y0036833D01*
X0643263Y0036833D01*
X0599956Y0036833D01*
X0556649Y0036833D01*
X0540901Y0036833D01*
X0531058Y0036833D01*
X0315704Y0036833D01*
X0277909Y0074628D01*
X0241295Y0074628D01*
X0238539Y0071872D01*
D19*
X0530665Y0041951D02*
X0530665Y0037227D01*
X0531058Y0036833D01*
D20*
X0210986Y0140789D03*
X0197386Y0129589D03*
X0174986Y0126389D03*
X0168391Y0137523D03*
X0134186Y0145589D03*
X0105205Y0157589D03*
X0088586Y0157589D03*
X0082186Y0157589D03*
X0168302Y0155085D03*
X0217386Y0173589D03*
X0112586Y0111989D03*
X0108586Y0111989D03*
X0091786Y0106389D03*
X0079786Y0108789D03*
X0108586Y0103989D03*
X0112586Y0103989D03*
X0096586Y0067189D03*
X0079786Y0064789D03*
D21*
X0205074Y0064786D02*
X0205074Y0055731D01*
X0211373Y0049431D01*
X0232633Y0049431D01*
M02*
