%
M48
M72
T01C0.01200
T02C0.01378
T03C0.03937
T04C0.04331
T05C0.05118
T06C0.06693
T07C0.08661
T08C0.12598
%
T01
X79786Y64789
X96586Y67189
X108586Y103989
X112586Y103989
X112586Y111989
X108586Y111989
X91786Y106389
X79786Y108789
X168391Y137523
X197386Y129589
X174986Y126389
X210986Y140789
X168302Y155085
X134186Y145589
X105205Y157589
X88586Y157589
X82186Y157589
X217386Y173589
T02
X92082Y36833
X103893Y36833
X115704Y36833
X127515Y36833
X139326Y36833
X151137Y36833
X162948Y36833
X174759Y36833
X186570Y36833
X198381Y36833
X209011Y34077
X232633Y49431
X236176Y62424
X235783Y66361
X238539Y71872
X243657Y71872
X247594Y71872
X256255Y82502
X272200Y88408
X286570Y90770
X288932Y94313
X288932Y98250
X293263Y103762
X312948Y103762
X328696Y103762
X318460Y98250
X322791Y93920
X341688Y96676
X340113Y107699
X344050Y107699
X358617Y110455
X359405Y115573
X359011Y120691
X359011Y126597
X367673Y129746
X363736Y139195
X370035Y140180
X395232Y140180
X401806Y150809
X422791Y135258
X434602Y135258
X446413Y135258
X466098Y127384
X462161Y123447
X466885Y114983
X464129Y108093
X464129Y100219
X462161Y95888
X475153Y91951
X462161Y84077
X458224Y84077
X430665Y91951
X423184Y95494
X418854Y91951
X403106Y93920
X403106Y99038
X403106Y104156
X422791Y101006
X403106Y89195
X403106Y84077
X403893Y78959
X407043Y72266
X391295Y68329
X359798Y76203
X355861Y72266
X351924Y76203
X355861Y80140
X351924Y84077
X359798Y84077
X320428Y79313
X316610Y76746
X316491Y72266
X304680Y72266
X292869Y72266
X287948Y70455
X292869Y60455
X304680Y60455
X316491Y60455
X328302Y60455
X328302Y48644
X316491Y48644
X304680Y48644
X292869Y48644
X212161Y72266
X212161Y76203
X212161Y80140
X230665Y89589
X208421Y91754
X229484Y98250
X239326Y101006
X237751Y104943
X253499Y103762
X261373Y103762
X229877Y115573
X218066Y115573
X210192Y115573
X202318Y115573
X194444Y115573
X202318Y123447
X210192Y123447
X218066Y123447
X243263Y133683
X258224Y129746
X267673Y122266
X276255Y120613
X292869Y119510
X292869Y115573
X300743Y115573
X300743Y119510
X332239Y117542
X344050Y119510
X344050Y123054
X333421Y123054
X333027Y128172
X337358Y131321
X339720Y137227
X336964Y143920
X328302Y143132
X320428Y143132
X308617Y143132
X300743Y147069
X292869Y147069
X288932Y151006
X304680Y154943
X320428Y154943
X332239Y154943
X344050Y151006
X358106Y155731
X292869Y139195
X273972Y143132
X241688Y151006
X233814Y151006
X222003Y154943
X214129Y158880
X186570Y158880
X178696Y158880
X169956Y159628
X133814Y162817
X119641Y158880
X112554Y159668
X122791Y151794
X131452Y139195
X115704Y131321
X111767Y127384
X107830Y123447
X119641Y115573
X123578Y115573
X141688Y119510
X151137Y119510
X157436Y121085
X151137Y127384
X143263Y127384
X147200Y112424
X182239Y96676
X174759Y88014
X166885Y88014
X154680Y82502
X166885Y80140
X174759Y80140
X186570Y80140
X186570Y84077
X174759Y72266
X166885Y72266
X160980Y70691
X150743Y70691
X174759Y64392
X174759Y56518
X205074Y64786
X212358Y104746
X256649Y118723
X228066Y139156
X131452Y170691
X151137Y182502
X166885Y182502
X89720Y162817
X84208Y166754
X80271Y166754
X84208Y151006
X92082Y151006
X76334Y135258
X80271Y131321
X84208Y131321
X88145Y131321
X72397Y123447
X64523Y123447
X64523Y115573
X84208Y111636
X64523Y107699
X72397Y103762
X103893Y112424
X64523Y60455
X68460Y52581
X80271Y52581
X88145Y44707
X387358Y54550
X399169Y54550
X410980Y54550
X422791Y54550
X425547Y48250
X457436Y47857
X458617Y42345
X483421Y49431
X496019Y52581
X483263Y63959
X432653Y63959
X490901Y91164
X501531Y91951
X528302Y78959
X544444Y77778
X562948Y78172
X579877Y77778
X597987Y77778
X615310Y77384
X633421Y77384
X652318Y77384
X662948Y72266
X668854Y68329
X670822Y76203
X651137Y64392
X635389Y54550
X610586Y62817
X592082Y54550
X569247Y59274
X548775Y54550
X530665Y41951
X670822Y89983
X674759Y103762
X678696Y115573
X668854Y115967
X668854Y127384
X668854Y135258
X686570Y143132
X694444Y143132
X702318Y143132
X702318Y151006
X694444Y151006
X686570Y151006
X686570Y158880
X694444Y158880
X702318Y158880
X729877Y139195
X741688Y131321
X741688Y127384
X745625Y127384
X745625Y131321
X769247Y131321
X769247Y135258
X769247Y139195
X773184Y139195
X773184Y135258
X773184Y131321
X777121Y135258
X777121Y139195
X788932Y143132
X788932Y151006
X781058Y151006
X777121Y151006
X773184Y151006
X769247Y151006
X765310Y151006
X761373Y151006
X763736Y145101
X796806Y151006
X788145Y127384
X828302Y103762
X706255Y125416
X706255Y135258
X635389Y143132
X611767Y170691
X501531Y133290
X481846Y133290
X761373Y178565
X84208Y182502
T03
X539917Y44707
X557633Y44707
X583224Y44707
X600940Y44707
X626531Y44707
X644247Y44707
T04
X119247Y80928
T05
X534995Y54550
X562554Y54550
X578302Y54550
X605861Y54550
X621610Y54550
X649169Y54550
T06
X194838Y80928
X119247Y67935
T07
X684602Y172660
X704287Y172660
T08
X836176Y174628
X836176Y40770
X72397Y40770
X72397Y174628
M30
