G75*
%MOIN*%
%OFA0B0*%
%FSLAX25Y25*%
%IPPOS*%
%LPD*%
%AMOC8*
5,1,8,0,0,1.08239X$1,22.5*
%
%ADD10C,0.00000*%
%ADD11R,0.10236X0.13780*%
D10*
X0060586Y0028959D02*
X0060586Y0186439D01*
X0093066Y0186439D01*
X0093066Y0183487D01*
X0093068Y0183401D01*
X0093073Y0183315D01*
X0093083Y0183230D01*
X0093096Y0183145D01*
X0093113Y0183061D01*
X0093133Y0182977D01*
X0093157Y0182895D01*
X0093185Y0182814D01*
X0093216Y0182733D01*
X0093250Y0182655D01*
X0093288Y0182578D01*
X0093330Y0182503D01*
X0093374Y0182429D01*
X0093422Y0182358D01*
X0093473Y0182288D01*
X0093527Y0182221D01*
X0093583Y0182157D01*
X0093643Y0182095D01*
X0093705Y0182035D01*
X0093769Y0181979D01*
X0093836Y0181925D01*
X0093906Y0181874D01*
X0093977Y0181826D01*
X0094051Y0181782D01*
X0094126Y0181740D01*
X0094203Y0181702D01*
X0094281Y0181668D01*
X0094362Y0181637D01*
X0094443Y0181609D01*
X0094525Y0181585D01*
X0094609Y0181565D01*
X0094693Y0181548D01*
X0094778Y0181535D01*
X0094863Y0181525D01*
X0094949Y0181520D01*
X0095035Y0181518D01*
X0124562Y0181518D01*
X0124648Y0181520D01*
X0124734Y0181525D01*
X0124819Y0181535D01*
X0124904Y0181548D01*
X0124988Y0181565D01*
X0125072Y0181585D01*
X0125154Y0181609D01*
X0125235Y0181637D01*
X0125316Y0181668D01*
X0125394Y0181702D01*
X0125471Y0181740D01*
X0125547Y0181782D01*
X0125620Y0181826D01*
X0125691Y0181874D01*
X0125761Y0181925D01*
X0125828Y0181979D01*
X0125892Y0182035D01*
X0125954Y0182095D01*
X0126014Y0182157D01*
X0126070Y0182221D01*
X0126124Y0182288D01*
X0126175Y0182358D01*
X0126223Y0182429D01*
X0126267Y0182503D01*
X0126309Y0182578D01*
X0126347Y0182655D01*
X0126381Y0182733D01*
X0126412Y0182814D01*
X0126440Y0182895D01*
X0126464Y0182977D01*
X0126484Y0183061D01*
X0126501Y0183145D01*
X0126514Y0183230D01*
X0126524Y0183315D01*
X0126529Y0183401D01*
X0126531Y0183487D01*
X0126531Y0186439D01*
X0222003Y0186439D01*
X0222003Y0162817D01*
X0222005Y0162693D01*
X0222011Y0162570D01*
X0222020Y0162446D01*
X0222034Y0162324D01*
X0222051Y0162201D01*
X0222073Y0162079D01*
X0222098Y0161958D01*
X0222127Y0161838D01*
X0222159Y0161719D01*
X0222196Y0161600D01*
X0222236Y0161483D01*
X0222279Y0161368D01*
X0222327Y0161253D01*
X0222378Y0161141D01*
X0222432Y0161030D01*
X0222490Y0160920D01*
X0222551Y0160813D01*
X0222616Y0160707D01*
X0222684Y0160604D01*
X0222755Y0160503D01*
X0222829Y0160404D01*
X0222906Y0160307D01*
X0222987Y0160213D01*
X0223070Y0160122D01*
X0223156Y0160033D01*
X0223245Y0159947D01*
X0223336Y0159864D01*
X0223430Y0159783D01*
X0223527Y0159706D01*
X0223626Y0159632D01*
X0223727Y0159561D01*
X0223830Y0159493D01*
X0223936Y0159428D01*
X0224043Y0159367D01*
X0224153Y0159309D01*
X0224264Y0159255D01*
X0224376Y0159204D01*
X0224491Y0159156D01*
X0224606Y0159113D01*
X0224723Y0159073D01*
X0224842Y0159036D01*
X0224961Y0159004D01*
X0225081Y0158975D01*
X0225202Y0158950D01*
X0225324Y0158928D01*
X0225447Y0158911D01*
X0225569Y0158897D01*
X0225693Y0158888D01*
X0225816Y0158882D01*
X0225940Y0158880D01*
X0407043Y0158880D01*
X0407167Y0158882D01*
X0407290Y0158888D01*
X0407414Y0158897D01*
X0407536Y0158911D01*
X0407659Y0158928D01*
X0407781Y0158950D01*
X0407902Y0158975D01*
X0408022Y0159004D01*
X0408141Y0159036D01*
X0408260Y0159073D01*
X0408377Y0159113D01*
X0408492Y0159156D01*
X0408607Y0159204D01*
X0408719Y0159255D01*
X0408830Y0159309D01*
X0408940Y0159367D01*
X0409047Y0159428D01*
X0409153Y0159493D01*
X0409256Y0159561D01*
X0409357Y0159632D01*
X0409456Y0159706D01*
X0409553Y0159783D01*
X0409647Y0159864D01*
X0409738Y0159947D01*
X0409827Y0160033D01*
X0409913Y0160122D01*
X0409996Y0160213D01*
X0410077Y0160307D01*
X0410154Y0160404D01*
X0410228Y0160503D01*
X0410299Y0160604D01*
X0410367Y0160707D01*
X0410432Y0160813D01*
X0410493Y0160920D01*
X0410551Y0161030D01*
X0410605Y0161141D01*
X0410656Y0161253D01*
X0410704Y0161368D01*
X0410747Y0161483D01*
X0410787Y0161600D01*
X0410824Y0161719D01*
X0410856Y0161838D01*
X0410885Y0161958D01*
X0410910Y0162079D01*
X0410932Y0162201D01*
X0410949Y0162324D01*
X0410963Y0162446D01*
X0410972Y0162570D01*
X0410978Y0162693D01*
X0410980Y0162817D01*
X0410980Y0186439D01*
X0847987Y0186439D01*
X0847987Y0028959D01*
X0060586Y0028959D01*
X0066098Y0040770D02*
X0066100Y0040928D01*
X0066106Y0041086D01*
X0066116Y0041244D01*
X0066130Y0041402D01*
X0066148Y0041559D01*
X0066169Y0041716D01*
X0066195Y0041872D01*
X0066225Y0042028D01*
X0066258Y0042183D01*
X0066296Y0042336D01*
X0066337Y0042489D01*
X0066382Y0042641D01*
X0066431Y0042792D01*
X0066484Y0042941D01*
X0066540Y0043089D01*
X0066600Y0043235D01*
X0066664Y0043380D01*
X0066732Y0043523D01*
X0066803Y0043665D01*
X0066877Y0043805D01*
X0066955Y0043942D01*
X0067037Y0044078D01*
X0067121Y0044212D01*
X0067210Y0044343D01*
X0067301Y0044472D01*
X0067396Y0044599D01*
X0067493Y0044724D01*
X0067594Y0044846D01*
X0067698Y0044965D01*
X0067805Y0045082D01*
X0067915Y0045196D01*
X0068028Y0045307D01*
X0068143Y0045416D01*
X0068261Y0045521D01*
X0068382Y0045623D01*
X0068505Y0045723D01*
X0068631Y0045819D01*
X0068759Y0045912D01*
X0068889Y0046002D01*
X0069022Y0046088D01*
X0069157Y0046172D01*
X0069293Y0046251D01*
X0069432Y0046328D01*
X0069573Y0046400D01*
X0069715Y0046470D01*
X0069859Y0046535D01*
X0070005Y0046597D01*
X0070152Y0046655D01*
X0070301Y0046710D01*
X0070451Y0046761D01*
X0070602Y0046808D01*
X0070754Y0046851D01*
X0070907Y0046890D01*
X0071062Y0046926D01*
X0071217Y0046957D01*
X0071373Y0046985D01*
X0071529Y0047009D01*
X0071686Y0047029D01*
X0071844Y0047045D01*
X0072001Y0047057D01*
X0072160Y0047065D01*
X0072318Y0047069D01*
X0072476Y0047069D01*
X0072634Y0047065D01*
X0072793Y0047057D01*
X0072950Y0047045D01*
X0073108Y0047029D01*
X0073265Y0047009D01*
X0073421Y0046985D01*
X0073577Y0046957D01*
X0073732Y0046926D01*
X0073887Y0046890D01*
X0074040Y0046851D01*
X0074192Y0046808D01*
X0074343Y0046761D01*
X0074493Y0046710D01*
X0074642Y0046655D01*
X0074789Y0046597D01*
X0074935Y0046535D01*
X0075079Y0046470D01*
X0075221Y0046400D01*
X0075362Y0046328D01*
X0075501Y0046251D01*
X0075637Y0046172D01*
X0075772Y0046088D01*
X0075905Y0046002D01*
X0076035Y0045912D01*
X0076163Y0045819D01*
X0076289Y0045723D01*
X0076412Y0045623D01*
X0076533Y0045521D01*
X0076651Y0045416D01*
X0076766Y0045307D01*
X0076879Y0045196D01*
X0076989Y0045082D01*
X0077096Y0044965D01*
X0077200Y0044846D01*
X0077301Y0044724D01*
X0077398Y0044599D01*
X0077493Y0044472D01*
X0077584Y0044343D01*
X0077673Y0044212D01*
X0077757Y0044078D01*
X0077839Y0043942D01*
X0077917Y0043805D01*
X0077991Y0043665D01*
X0078062Y0043523D01*
X0078130Y0043380D01*
X0078194Y0043235D01*
X0078254Y0043089D01*
X0078310Y0042941D01*
X0078363Y0042792D01*
X0078412Y0042641D01*
X0078457Y0042489D01*
X0078498Y0042336D01*
X0078536Y0042183D01*
X0078569Y0042028D01*
X0078599Y0041872D01*
X0078625Y0041716D01*
X0078646Y0041559D01*
X0078664Y0041402D01*
X0078678Y0041244D01*
X0078688Y0041086D01*
X0078694Y0040928D01*
X0078696Y0040770D01*
X0078694Y0040612D01*
X0078688Y0040454D01*
X0078678Y0040296D01*
X0078664Y0040138D01*
X0078646Y0039981D01*
X0078625Y0039824D01*
X0078599Y0039668D01*
X0078569Y0039512D01*
X0078536Y0039357D01*
X0078498Y0039204D01*
X0078457Y0039051D01*
X0078412Y0038899D01*
X0078363Y0038748D01*
X0078310Y0038599D01*
X0078254Y0038451D01*
X0078194Y0038305D01*
X0078130Y0038160D01*
X0078062Y0038017D01*
X0077991Y0037875D01*
X0077917Y0037735D01*
X0077839Y0037598D01*
X0077757Y0037462D01*
X0077673Y0037328D01*
X0077584Y0037197D01*
X0077493Y0037068D01*
X0077398Y0036941D01*
X0077301Y0036816D01*
X0077200Y0036694D01*
X0077096Y0036575D01*
X0076989Y0036458D01*
X0076879Y0036344D01*
X0076766Y0036233D01*
X0076651Y0036124D01*
X0076533Y0036019D01*
X0076412Y0035917D01*
X0076289Y0035817D01*
X0076163Y0035721D01*
X0076035Y0035628D01*
X0075905Y0035538D01*
X0075772Y0035452D01*
X0075637Y0035368D01*
X0075501Y0035289D01*
X0075362Y0035212D01*
X0075221Y0035140D01*
X0075079Y0035070D01*
X0074935Y0035005D01*
X0074789Y0034943D01*
X0074642Y0034885D01*
X0074493Y0034830D01*
X0074343Y0034779D01*
X0074192Y0034732D01*
X0074040Y0034689D01*
X0073887Y0034650D01*
X0073732Y0034614D01*
X0073577Y0034583D01*
X0073421Y0034555D01*
X0073265Y0034531D01*
X0073108Y0034511D01*
X0072950Y0034495D01*
X0072793Y0034483D01*
X0072634Y0034475D01*
X0072476Y0034471D01*
X0072318Y0034471D01*
X0072160Y0034475D01*
X0072001Y0034483D01*
X0071844Y0034495D01*
X0071686Y0034511D01*
X0071529Y0034531D01*
X0071373Y0034555D01*
X0071217Y0034583D01*
X0071062Y0034614D01*
X0070907Y0034650D01*
X0070754Y0034689D01*
X0070602Y0034732D01*
X0070451Y0034779D01*
X0070301Y0034830D01*
X0070152Y0034885D01*
X0070005Y0034943D01*
X0069859Y0035005D01*
X0069715Y0035070D01*
X0069573Y0035140D01*
X0069432Y0035212D01*
X0069293Y0035289D01*
X0069157Y0035368D01*
X0069022Y0035452D01*
X0068889Y0035538D01*
X0068759Y0035628D01*
X0068631Y0035721D01*
X0068505Y0035817D01*
X0068382Y0035917D01*
X0068261Y0036019D01*
X0068143Y0036124D01*
X0068028Y0036233D01*
X0067915Y0036344D01*
X0067805Y0036458D01*
X0067698Y0036575D01*
X0067594Y0036694D01*
X0067493Y0036816D01*
X0067396Y0036941D01*
X0067301Y0037068D01*
X0067210Y0037197D01*
X0067121Y0037328D01*
X0067037Y0037462D01*
X0066955Y0037598D01*
X0066877Y0037735D01*
X0066803Y0037875D01*
X0066732Y0038017D01*
X0066664Y0038160D01*
X0066600Y0038305D01*
X0066540Y0038451D01*
X0066484Y0038599D01*
X0066431Y0038748D01*
X0066382Y0038899D01*
X0066337Y0039051D01*
X0066296Y0039204D01*
X0066258Y0039357D01*
X0066225Y0039512D01*
X0066195Y0039668D01*
X0066169Y0039824D01*
X0066148Y0039981D01*
X0066130Y0040138D01*
X0066116Y0040296D01*
X0066106Y0040454D01*
X0066100Y0040612D01*
X0066098Y0040770D01*
X0115901Y0067935D02*
X0115903Y0068050D01*
X0115909Y0068166D01*
X0115919Y0068281D01*
X0115933Y0068396D01*
X0115951Y0068510D01*
X0115973Y0068623D01*
X0115998Y0068736D01*
X0116028Y0068847D01*
X0116061Y0068958D01*
X0116098Y0069067D01*
X0116139Y0069175D01*
X0116184Y0069282D01*
X0116232Y0069387D01*
X0116284Y0069490D01*
X0116340Y0069591D01*
X0116399Y0069691D01*
X0116461Y0069788D01*
X0116527Y0069883D01*
X0116595Y0069976D01*
X0116667Y0070066D01*
X0116742Y0070154D01*
X0116821Y0070239D01*
X0116902Y0070321D01*
X0116985Y0070401D01*
X0117072Y0070477D01*
X0117161Y0070551D01*
X0117252Y0070621D01*
X0117346Y0070689D01*
X0117442Y0070753D01*
X0117541Y0070813D01*
X0117641Y0070870D01*
X0117743Y0070924D01*
X0117847Y0070974D01*
X0117953Y0071021D01*
X0118060Y0071064D01*
X0118169Y0071103D01*
X0118279Y0071138D01*
X0118390Y0071169D01*
X0118502Y0071197D01*
X0118615Y0071221D01*
X0118729Y0071241D01*
X0118844Y0071257D01*
X0118959Y0071269D01*
X0119074Y0071277D01*
X0119189Y0071281D01*
X0119305Y0071281D01*
X0119420Y0071277D01*
X0119535Y0071269D01*
X0119650Y0071257D01*
X0119765Y0071241D01*
X0119879Y0071221D01*
X0119992Y0071197D01*
X0120104Y0071169D01*
X0120215Y0071138D01*
X0120325Y0071103D01*
X0120434Y0071064D01*
X0120541Y0071021D01*
X0120647Y0070974D01*
X0120751Y0070924D01*
X0120853Y0070870D01*
X0120953Y0070813D01*
X0121052Y0070753D01*
X0121148Y0070689D01*
X0121242Y0070621D01*
X0121333Y0070551D01*
X0121422Y0070477D01*
X0121509Y0070401D01*
X0121592Y0070321D01*
X0121673Y0070239D01*
X0121752Y0070154D01*
X0121827Y0070066D01*
X0121899Y0069976D01*
X0121967Y0069883D01*
X0122033Y0069788D01*
X0122095Y0069691D01*
X0122154Y0069591D01*
X0122210Y0069490D01*
X0122262Y0069387D01*
X0122310Y0069282D01*
X0122355Y0069175D01*
X0122396Y0069067D01*
X0122433Y0068958D01*
X0122466Y0068847D01*
X0122496Y0068736D01*
X0122521Y0068623D01*
X0122543Y0068510D01*
X0122561Y0068396D01*
X0122575Y0068281D01*
X0122585Y0068166D01*
X0122591Y0068050D01*
X0122593Y0067935D01*
X0122591Y0067820D01*
X0122585Y0067704D01*
X0122575Y0067589D01*
X0122561Y0067474D01*
X0122543Y0067360D01*
X0122521Y0067247D01*
X0122496Y0067134D01*
X0122466Y0067023D01*
X0122433Y0066912D01*
X0122396Y0066803D01*
X0122355Y0066695D01*
X0122310Y0066588D01*
X0122262Y0066483D01*
X0122210Y0066380D01*
X0122154Y0066279D01*
X0122095Y0066179D01*
X0122033Y0066082D01*
X0121967Y0065987D01*
X0121899Y0065894D01*
X0121827Y0065804D01*
X0121752Y0065716D01*
X0121673Y0065631D01*
X0121592Y0065549D01*
X0121509Y0065469D01*
X0121422Y0065393D01*
X0121333Y0065319D01*
X0121242Y0065249D01*
X0121148Y0065181D01*
X0121052Y0065117D01*
X0120953Y0065057D01*
X0120853Y0065000D01*
X0120751Y0064946D01*
X0120647Y0064896D01*
X0120541Y0064849D01*
X0120434Y0064806D01*
X0120325Y0064767D01*
X0120215Y0064732D01*
X0120104Y0064701D01*
X0119992Y0064673D01*
X0119879Y0064649D01*
X0119765Y0064629D01*
X0119650Y0064613D01*
X0119535Y0064601D01*
X0119420Y0064593D01*
X0119305Y0064589D01*
X0119189Y0064589D01*
X0119074Y0064593D01*
X0118959Y0064601D01*
X0118844Y0064613D01*
X0118729Y0064629D01*
X0118615Y0064649D01*
X0118502Y0064673D01*
X0118390Y0064701D01*
X0118279Y0064732D01*
X0118169Y0064767D01*
X0118060Y0064806D01*
X0117953Y0064849D01*
X0117847Y0064896D01*
X0117743Y0064946D01*
X0117641Y0065000D01*
X0117541Y0065057D01*
X0117442Y0065117D01*
X0117346Y0065181D01*
X0117252Y0065249D01*
X0117161Y0065319D01*
X0117072Y0065393D01*
X0116985Y0065469D01*
X0116902Y0065549D01*
X0116821Y0065631D01*
X0116742Y0065716D01*
X0116667Y0065804D01*
X0116595Y0065894D01*
X0116527Y0065987D01*
X0116461Y0066082D01*
X0116399Y0066179D01*
X0116340Y0066279D01*
X0116284Y0066380D01*
X0116232Y0066483D01*
X0116184Y0066588D01*
X0116139Y0066695D01*
X0116098Y0066803D01*
X0116061Y0066912D01*
X0116028Y0067023D01*
X0115998Y0067134D01*
X0115973Y0067247D01*
X0115951Y0067360D01*
X0115933Y0067474D01*
X0115919Y0067589D01*
X0115909Y0067704D01*
X0115903Y0067820D01*
X0115901Y0067935D01*
X0117082Y0080928D02*
X0117084Y0081021D01*
X0117090Y0081113D01*
X0117100Y0081205D01*
X0117114Y0081296D01*
X0117131Y0081387D01*
X0117153Y0081477D01*
X0117178Y0081566D01*
X0117207Y0081654D01*
X0117240Y0081740D01*
X0117277Y0081825D01*
X0117317Y0081909D01*
X0117361Y0081990D01*
X0117408Y0082070D01*
X0117458Y0082148D01*
X0117512Y0082223D01*
X0117569Y0082296D01*
X0117629Y0082366D01*
X0117692Y0082434D01*
X0117758Y0082499D01*
X0117826Y0082561D01*
X0117897Y0082621D01*
X0117971Y0082677D01*
X0118047Y0082730D01*
X0118125Y0082779D01*
X0118205Y0082826D01*
X0118287Y0082868D01*
X0118371Y0082908D01*
X0118456Y0082943D01*
X0118543Y0082975D01*
X0118631Y0083004D01*
X0118720Y0083028D01*
X0118810Y0083049D01*
X0118901Y0083065D01*
X0118993Y0083078D01*
X0119085Y0083087D01*
X0119178Y0083092D01*
X0119270Y0083093D01*
X0119363Y0083090D01*
X0119455Y0083083D01*
X0119547Y0083072D01*
X0119638Y0083057D01*
X0119729Y0083039D01*
X0119819Y0083016D01*
X0119907Y0082990D01*
X0119995Y0082960D01*
X0120081Y0082926D01*
X0120165Y0082889D01*
X0120248Y0082847D01*
X0120329Y0082803D01*
X0120409Y0082755D01*
X0120486Y0082704D01*
X0120560Y0082649D01*
X0120633Y0082591D01*
X0120703Y0082531D01*
X0120770Y0082467D01*
X0120834Y0082401D01*
X0120896Y0082331D01*
X0120954Y0082260D01*
X0121009Y0082186D01*
X0121061Y0082109D01*
X0121110Y0082030D01*
X0121156Y0081950D01*
X0121198Y0081867D01*
X0121236Y0081783D01*
X0121271Y0081697D01*
X0121302Y0081610D01*
X0121329Y0081522D01*
X0121352Y0081432D01*
X0121372Y0081342D01*
X0121388Y0081251D01*
X0121400Y0081159D01*
X0121408Y0081067D01*
X0121412Y0080974D01*
X0121412Y0080882D01*
X0121408Y0080789D01*
X0121400Y0080697D01*
X0121388Y0080605D01*
X0121372Y0080514D01*
X0121352Y0080424D01*
X0121329Y0080334D01*
X0121302Y0080246D01*
X0121271Y0080159D01*
X0121236Y0080073D01*
X0121198Y0079989D01*
X0121156Y0079906D01*
X0121110Y0079826D01*
X0121061Y0079747D01*
X0121009Y0079670D01*
X0120954Y0079596D01*
X0120896Y0079525D01*
X0120834Y0079455D01*
X0120770Y0079389D01*
X0120703Y0079325D01*
X0120633Y0079265D01*
X0120560Y0079207D01*
X0120486Y0079152D01*
X0120409Y0079101D01*
X0120330Y0079053D01*
X0120248Y0079009D01*
X0120165Y0078967D01*
X0120081Y0078930D01*
X0119995Y0078896D01*
X0119907Y0078866D01*
X0119819Y0078840D01*
X0119729Y0078817D01*
X0119638Y0078799D01*
X0119547Y0078784D01*
X0119455Y0078773D01*
X0119363Y0078766D01*
X0119270Y0078763D01*
X0119178Y0078764D01*
X0119085Y0078769D01*
X0118993Y0078778D01*
X0118901Y0078791D01*
X0118810Y0078807D01*
X0118720Y0078828D01*
X0118631Y0078852D01*
X0118543Y0078881D01*
X0118456Y0078913D01*
X0118371Y0078948D01*
X0118287Y0078988D01*
X0118205Y0079030D01*
X0118125Y0079077D01*
X0118047Y0079126D01*
X0117971Y0079179D01*
X0117897Y0079235D01*
X0117826Y0079295D01*
X0117758Y0079357D01*
X0117692Y0079422D01*
X0117629Y0079490D01*
X0117569Y0079560D01*
X0117512Y0079633D01*
X0117458Y0079708D01*
X0117408Y0079786D01*
X0117361Y0079866D01*
X0117317Y0079947D01*
X0117277Y0080031D01*
X0117240Y0080116D01*
X0117207Y0080202D01*
X0117178Y0080290D01*
X0117153Y0080379D01*
X0117131Y0080469D01*
X0117114Y0080560D01*
X0117100Y0080651D01*
X0117090Y0080743D01*
X0117084Y0080835D01*
X0117082Y0080928D01*
X0193460Y0070101D02*
X0196216Y0070101D01*
X0196308Y0070095D01*
X0196399Y0070085D01*
X0196490Y0070071D01*
X0196580Y0070053D01*
X0196669Y0070032D01*
X0196758Y0070006D01*
X0196845Y0069977D01*
X0196931Y0069945D01*
X0197015Y0069909D01*
X0197098Y0069869D01*
X0197179Y0069826D01*
X0197258Y0069779D01*
X0197335Y0069729D01*
X0197410Y0069676D01*
X0197483Y0069619D01*
X0197553Y0069560D01*
X0197620Y0069498D01*
X0197685Y0069433D01*
X0197747Y0069365D01*
X0197807Y0069295D01*
X0197863Y0069222D01*
X0197916Y0069147D01*
X0197965Y0069070D01*
X0198012Y0068991D01*
X0198055Y0068909D01*
X0198094Y0068826D01*
X0198130Y0068742D01*
X0198163Y0068656D01*
X0198191Y0068569D01*
X0198216Y0068480D01*
X0198238Y0068391D01*
X0198255Y0068301D01*
X0198269Y0068210D01*
X0198278Y0068119D01*
X0198284Y0068027D01*
X0198286Y0067935D01*
X0198284Y0067843D01*
X0198278Y0067751D01*
X0198269Y0067660D01*
X0198255Y0067569D01*
X0198238Y0067479D01*
X0198216Y0067390D01*
X0198191Y0067301D01*
X0198163Y0067214D01*
X0198130Y0067128D01*
X0198094Y0067044D01*
X0198055Y0066961D01*
X0198012Y0066879D01*
X0197965Y0066800D01*
X0197916Y0066723D01*
X0197863Y0066648D01*
X0197807Y0066575D01*
X0197747Y0066505D01*
X0197685Y0066437D01*
X0197620Y0066372D01*
X0197553Y0066310D01*
X0197483Y0066251D01*
X0197410Y0066194D01*
X0197335Y0066141D01*
X0197258Y0066091D01*
X0197179Y0066044D01*
X0197098Y0066001D01*
X0197015Y0065961D01*
X0196931Y0065925D01*
X0196845Y0065893D01*
X0196758Y0065864D01*
X0196669Y0065838D01*
X0196580Y0065817D01*
X0196490Y0065799D01*
X0196399Y0065785D01*
X0196308Y0065775D01*
X0196216Y0065769D01*
X0196216Y0065770D02*
X0193460Y0065770D01*
X0193368Y0065772D01*
X0193276Y0065778D01*
X0193185Y0065788D01*
X0193094Y0065801D01*
X0193004Y0065819D01*
X0192914Y0065840D01*
X0192826Y0065865D01*
X0192739Y0065894D01*
X0192653Y0065926D01*
X0192568Y0065962D01*
X0192485Y0066002D01*
X0192404Y0066045D01*
X0192325Y0066091D01*
X0192248Y0066141D01*
X0192173Y0066194D01*
X0192100Y0066251D01*
X0192030Y0066310D01*
X0191962Y0066372D01*
X0191897Y0066437D01*
X0191835Y0066505D01*
X0191776Y0066575D01*
X0191719Y0066648D01*
X0191666Y0066723D01*
X0191616Y0066800D01*
X0191570Y0066879D01*
X0191527Y0066960D01*
X0191487Y0067043D01*
X0191451Y0067128D01*
X0191419Y0067214D01*
X0191390Y0067301D01*
X0191365Y0067389D01*
X0191344Y0067479D01*
X0191326Y0067569D01*
X0191313Y0067660D01*
X0191303Y0067751D01*
X0191297Y0067843D01*
X0191295Y0067935D01*
X0191297Y0068027D01*
X0191303Y0068119D01*
X0191313Y0068210D01*
X0191326Y0068301D01*
X0191344Y0068391D01*
X0191365Y0068481D01*
X0191390Y0068569D01*
X0191419Y0068656D01*
X0191451Y0068742D01*
X0191487Y0068827D01*
X0191527Y0068910D01*
X0191570Y0068991D01*
X0191616Y0069070D01*
X0191666Y0069147D01*
X0191719Y0069222D01*
X0191776Y0069295D01*
X0191835Y0069365D01*
X0191897Y0069433D01*
X0191962Y0069498D01*
X0192030Y0069560D01*
X0192100Y0069619D01*
X0192173Y0069676D01*
X0192248Y0069729D01*
X0192325Y0069779D01*
X0192404Y0069825D01*
X0192485Y0069868D01*
X0192568Y0069908D01*
X0192653Y0069944D01*
X0192739Y0069976D01*
X0192826Y0070005D01*
X0192914Y0070030D01*
X0193004Y0070051D01*
X0193094Y0070069D01*
X0193185Y0070082D01*
X0193276Y0070092D01*
X0193368Y0070098D01*
X0193460Y0070100D01*
X0191492Y0080928D02*
X0191494Y0081043D01*
X0191500Y0081159D01*
X0191510Y0081274D01*
X0191524Y0081389D01*
X0191542Y0081503D01*
X0191564Y0081616D01*
X0191589Y0081729D01*
X0191619Y0081840D01*
X0191652Y0081951D01*
X0191689Y0082060D01*
X0191730Y0082168D01*
X0191775Y0082275D01*
X0191823Y0082380D01*
X0191875Y0082483D01*
X0191931Y0082584D01*
X0191990Y0082684D01*
X0192052Y0082781D01*
X0192118Y0082876D01*
X0192186Y0082969D01*
X0192258Y0083059D01*
X0192333Y0083147D01*
X0192412Y0083232D01*
X0192493Y0083314D01*
X0192576Y0083394D01*
X0192663Y0083470D01*
X0192752Y0083544D01*
X0192843Y0083614D01*
X0192937Y0083682D01*
X0193033Y0083746D01*
X0193132Y0083806D01*
X0193232Y0083863D01*
X0193334Y0083917D01*
X0193438Y0083967D01*
X0193544Y0084014D01*
X0193651Y0084057D01*
X0193760Y0084096D01*
X0193870Y0084131D01*
X0193981Y0084162D01*
X0194093Y0084190D01*
X0194206Y0084214D01*
X0194320Y0084234D01*
X0194435Y0084250D01*
X0194550Y0084262D01*
X0194665Y0084270D01*
X0194780Y0084274D01*
X0194896Y0084274D01*
X0195011Y0084270D01*
X0195126Y0084262D01*
X0195241Y0084250D01*
X0195356Y0084234D01*
X0195470Y0084214D01*
X0195583Y0084190D01*
X0195695Y0084162D01*
X0195806Y0084131D01*
X0195916Y0084096D01*
X0196025Y0084057D01*
X0196132Y0084014D01*
X0196238Y0083967D01*
X0196342Y0083917D01*
X0196444Y0083863D01*
X0196544Y0083806D01*
X0196643Y0083746D01*
X0196739Y0083682D01*
X0196833Y0083614D01*
X0196924Y0083544D01*
X0197013Y0083470D01*
X0197100Y0083394D01*
X0197183Y0083314D01*
X0197264Y0083232D01*
X0197343Y0083147D01*
X0197418Y0083059D01*
X0197490Y0082969D01*
X0197558Y0082876D01*
X0197624Y0082781D01*
X0197686Y0082684D01*
X0197745Y0082584D01*
X0197801Y0082483D01*
X0197853Y0082380D01*
X0197901Y0082275D01*
X0197946Y0082168D01*
X0197987Y0082060D01*
X0198024Y0081951D01*
X0198057Y0081840D01*
X0198087Y0081729D01*
X0198112Y0081616D01*
X0198134Y0081503D01*
X0198152Y0081389D01*
X0198166Y0081274D01*
X0198176Y0081159D01*
X0198182Y0081043D01*
X0198184Y0080928D01*
X0198182Y0080813D01*
X0198176Y0080697D01*
X0198166Y0080582D01*
X0198152Y0080467D01*
X0198134Y0080353D01*
X0198112Y0080240D01*
X0198087Y0080127D01*
X0198057Y0080016D01*
X0198024Y0079905D01*
X0197987Y0079796D01*
X0197946Y0079688D01*
X0197901Y0079581D01*
X0197853Y0079476D01*
X0197801Y0079373D01*
X0197745Y0079272D01*
X0197686Y0079172D01*
X0197624Y0079075D01*
X0197558Y0078980D01*
X0197490Y0078887D01*
X0197418Y0078797D01*
X0197343Y0078709D01*
X0197264Y0078624D01*
X0197183Y0078542D01*
X0197100Y0078462D01*
X0197013Y0078386D01*
X0196924Y0078312D01*
X0196833Y0078242D01*
X0196739Y0078174D01*
X0196643Y0078110D01*
X0196544Y0078050D01*
X0196444Y0077993D01*
X0196342Y0077939D01*
X0196238Y0077889D01*
X0196132Y0077842D01*
X0196025Y0077799D01*
X0195916Y0077760D01*
X0195806Y0077725D01*
X0195695Y0077694D01*
X0195583Y0077666D01*
X0195470Y0077642D01*
X0195356Y0077622D01*
X0195241Y0077606D01*
X0195126Y0077594D01*
X0195011Y0077586D01*
X0194896Y0077582D01*
X0194780Y0077582D01*
X0194665Y0077586D01*
X0194550Y0077594D01*
X0194435Y0077606D01*
X0194320Y0077622D01*
X0194206Y0077642D01*
X0194093Y0077666D01*
X0193981Y0077694D01*
X0193870Y0077725D01*
X0193760Y0077760D01*
X0193651Y0077799D01*
X0193544Y0077842D01*
X0193438Y0077889D01*
X0193334Y0077939D01*
X0193232Y0077993D01*
X0193132Y0078050D01*
X0193033Y0078110D01*
X0192937Y0078174D01*
X0192843Y0078242D01*
X0192752Y0078312D01*
X0192663Y0078386D01*
X0192576Y0078462D01*
X0192493Y0078542D01*
X0192412Y0078624D01*
X0192333Y0078709D01*
X0192258Y0078797D01*
X0192186Y0078887D01*
X0192118Y0078980D01*
X0192052Y0079075D01*
X0191990Y0079172D01*
X0191931Y0079272D01*
X0191875Y0079373D01*
X0191823Y0079476D01*
X0191775Y0079581D01*
X0191730Y0079688D01*
X0191689Y0079796D01*
X0191652Y0079905D01*
X0191619Y0080016D01*
X0191589Y0080127D01*
X0191564Y0080240D01*
X0191542Y0080353D01*
X0191524Y0080467D01*
X0191510Y0080582D01*
X0191500Y0080697D01*
X0191494Y0080813D01*
X0191492Y0080928D01*
X0066098Y0174628D02*
X0066100Y0174786D01*
X0066106Y0174944D01*
X0066116Y0175102D01*
X0066130Y0175260D01*
X0066148Y0175417D01*
X0066169Y0175574D01*
X0066195Y0175730D01*
X0066225Y0175886D01*
X0066258Y0176041D01*
X0066296Y0176194D01*
X0066337Y0176347D01*
X0066382Y0176499D01*
X0066431Y0176650D01*
X0066484Y0176799D01*
X0066540Y0176947D01*
X0066600Y0177093D01*
X0066664Y0177238D01*
X0066732Y0177381D01*
X0066803Y0177523D01*
X0066877Y0177663D01*
X0066955Y0177800D01*
X0067037Y0177936D01*
X0067121Y0178070D01*
X0067210Y0178201D01*
X0067301Y0178330D01*
X0067396Y0178457D01*
X0067493Y0178582D01*
X0067594Y0178704D01*
X0067698Y0178823D01*
X0067805Y0178940D01*
X0067915Y0179054D01*
X0068028Y0179165D01*
X0068143Y0179274D01*
X0068261Y0179379D01*
X0068382Y0179481D01*
X0068505Y0179581D01*
X0068631Y0179677D01*
X0068759Y0179770D01*
X0068889Y0179860D01*
X0069022Y0179946D01*
X0069157Y0180030D01*
X0069293Y0180109D01*
X0069432Y0180186D01*
X0069573Y0180258D01*
X0069715Y0180328D01*
X0069859Y0180393D01*
X0070005Y0180455D01*
X0070152Y0180513D01*
X0070301Y0180568D01*
X0070451Y0180619D01*
X0070602Y0180666D01*
X0070754Y0180709D01*
X0070907Y0180748D01*
X0071062Y0180784D01*
X0071217Y0180815D01*
X0071373Y0180843D01*
X0071529Y0180867D01*
X0071686Y0180887D01*
X0071844Y0180903D01*
X0072001Y0180915D01*
X0072160Y0180923D01*
X0072318Y0180927D01*
X0072476Y0180927D01*
X0072634Y0180923D01*
X0072793Y0180915D01*
X0072950Y0180903D01*
X0073108Y0180887D01*
X0073265Y0180867D01*
X0073421Y0180843D01*
X0073577Y0180815D01*
X0073732Y0180784D01*
X0073887Y0180748D01*
X0074040Y0180709D01*
X0074192Y0180666D01*
X0074343Y0180619D01*
X0074493Y0180568D01*
X0074642Y0180513D01*
X0074789Y0180455D01*
X0074935Y0180393D01*
X0075079Y0180328D01*
X0075221Y0180258D01*
X0075362Y0180186D01*
X0075501Y0180109D01*
X0075637Y0180030D01*
X0075772Y0179946D01*
X0075905Y0179860D01*
X0076035Y0179770D01*
X0076163Y0179677D01*
X0076289Y0179581D01*
X0076412Y0179481D01*
X0076533Y0179379D01*
X0076651Y0179274D01*
X0076766Y0179165D01*
X0076879Y0179054D01*
X0076989Y0178940D01*
X0077096Y0178823D01*
X0077200Y0178704D01*
X0077301Y0178582D01*
X0077398Y0178457D01*
X0077493Y0178330D01*
X0077584Y0178201D01*
X0077673Y0178070D01*
X0077757Y0177936D01*
X0077839Y0177800D01*
X0077917Y0177663D01*
X0077991Y0177523D01*
X0078062Y0177381D01*
X0078130Y0177238D01*
X0078194Y0177093D01*
X0078254Y0176947D01*
X0078310Y0176799D01*
X0078363Y0176650D01*
X0078412Y0176499D01*
X0078457Y0176347D01*
X0078498Y0176194D01*
X0078536Y0176041D01*
X0078569Y0175886D01*
X0078599Y0175730D01*
X0078625Y0175574D01*
X0078646Y0175417D01*
X0078664Y0175260D01*
X0078678Y0175102D01*
X0078688Y0174944D01*
X0078694Y0174786D01*
X0078696Y0174628D01*
X0078694Y0174470D01*
X0078688Y0174312D01*
X0078678Y0174154D01*
X0078664Y0173996D01*
X0078646Y0173839D01*
X0078625Y0173682D01*
X0078599Y0173526D01*
X0078569Y0173370D01*
X0078536Y0173215D01*
X0078498Y0173062D01*
X0078457Y0172909D01*
X0078412Y0172757D01*
X0078363Y0172606D01*
X0078310Y0172457D01*
X0078254Y0172309D01*
X0078194Y0172163D01*
X0078130Y0172018D01*
X0078062Y0171875D01*
X0077991Y0171733D01*
X0077917Y0171593D01*
X0077839Y0171456D01*
X0077757Y0171320D01*
X0077673Y0171186D01*
X0077584Y0171055D01*
X0077493Y0170926D01*
X0077398Y0170799D01*
X0077301Y0170674D01*
X0077200Y0170552D01*
X0077096Y0170433D01*
X0076989Y0170316D01*
X0076879Y0170202D01*
X0076766Y0170091D01*
X0076651Y0169982D01*
X0076533Y0169877D01*
X0076412Y0169775D01*
X0076289Y0169675D01*
X0076163Y0169579D01*
X0076035Y0169486D01*
X0075905Y0169396D01*
X0075772Y0169310D01*
X0075637Y0169226D01*
X0075501Y0169147D01*
X0075362Y0169070D01*
X0075221Y0168998D01*
X0075079Y0168928D01*
X0074935Y0168863D01*
X0074789Y0168801D01*
X0074642Y0168743D01*
X0074493Y0168688D01*
X0074343Y0168637D01*
X0074192Y0168590D01*
X0074040Y0168547D01*
X0073887Y0168508D01*
X0073732Y0168472D01*
X0073577Y0168441D01*
X0073421Y0168413D01*
X0073265Y0168389D01*
X0073108Y0168369D01*
X0072950Y0168353D01*
X0072793Y0168341D01*
X0072634Y0168333D01*
X0072476Y0168329D01*
X0072318Y0168329D01*
X0072160Y0168333D01*
X0072001Y0168341D01*
X0071844Y0168353D01*
X0071686Y0168369D01*
X0071529Y0168389D01*
X0071373Y0168413D01*
X0071217Y0168441D01*
X0071062Y0168472D01*
X0070907Y0168508D01*
X0070754Y0168547D01*
X0070602Y0168590D01*
X0070451Y0168637D01*
X0070301Y0168688D01*
X0070152Y0168743D01*
X0070005Y0168801D01*
X0069859Y0168863D01*
X0069715Y0168928D01*
X0069573Y0168998D01*
X0069432Y0169070D01*
X0069293Y0169147D01*
X0069157Y0169226D01*
X0069022Y0169310D01*
X0068889Y0169396D01*
X0068759Y0169486D01*
X0068631Y0169579D01*
X0068505Y0169675D01*
X0068382Y0169775D01*
X0068261Y0169877D01*
X0068143Y0169982D01*
X0068028Y0170091D01*
X0067915Y0170202D01*
X0067805Y0170316D01*
X0067698Y0170433D01*
X0067594Y0170552D01*
X0067493Y0170674D01*
X0067396Y0170799D01*
X0067301Y0170926D01*
X0067210Y0171055D01*
X0067121Y0171186D01*
X0067037Y0171320D01*
X0066955Y0171456D01*
X0066877Y0171593D01*
X0066803Y0171733D01*
X0066732Y0171875D01*
X0066664Y0172018D01*
X0066600Y0172163D01*
X0066540Y0172309D01*
X0066484Y0172457D01*
X0066431Y0172606D01*
X0066382Y0172757D01*
X0066337Y0172909D01*
X0066296Y0173062D01*
X0066258Y0173215D01*
X0066225Y0173370D01*
X0066195Y0173526D01*
X0066169Y0173682D01*
X0066148Y0173839D01*
X0066130Y0173996D01*
X0066116Y0174154D01*
X0066106Y0174312D01*
X0066100Y0174470D01*
X0066098Y0174628D01*
X0532436Y0054550D02*
X0532438Y0054651D01*
X0532444Y0054752D01*
X0532454Y0054853D01*
X0532468Y0054953D01*
X0532486Y0055052D01*
X0532508Y0055151D01*
X0532533Y0055249D01*
X0532563Y0055346D01*
X0532596Y0055441D01*
X0532633Y0055535D01*
X0532674Y0055628D01*
X0532718Y0055719D01*
X0532766Y0055808D01*
X0532818Y0055895D01*
X0532873Y0055980D01*
X0532931Y0056062D01*
X0532992Y0056143D01*
X0533057Y0056221D01*
X0533124Y0056296D01*
X0533194Y0056368D01*
X0533268Y0056438D01*
X0533344Y0056505D01*
X0533422Y0056569D01*
X0533503Y0056629D01*
X0533586Y0056686D01*
X0533672Y0056740D01*
X0533760Y0056791D01*
X0533849Y0056838D01*
X0533940Y0056882D01*
X0534033Y0056921D01*
X0534128Y0056958D01*
X0534223Y0056990D01*
X0534320Y0057019D01*
X0534419Y0057043D01*
X0534517Y0057064D01*
X0534617Y0057081D01*
X0534717Y0057094D01*
X0534818Y0057103D01*
X0534919Y0057108D01*
X0535020Y0057109D01*
X0535121Y0057106D01*
X0535222Y0057099D01*
X0535323Y0057088D01*
X0535423Y0057073D01*
X0535522Y0057054D01*
X0535621Y0057031D01*
X0535718Y0057005D01*
X0535815Y0056974D01*
X0535910Y0056940D01*
X0536003Y0056902D01*
X0536096Y0056860D01*
X0536186Y0056815D01*
X0536275Y0056766D01*
X0536361Y0056714D01*
X0536445Y0056658D01*
X0536528Y0056599D01*
X0536607Y0056537D01*
X0536685Y0056472D01*
X0536759Y0056404D01*
X0536831Y0056332D01*
X0536900Y0056259D01*
X0536966Y0056182D01*
X0537029Y0056103D01*
X0537089Y0056021D01*
X0537145Y0055937D01*
X0537198Y0055851D01*
X0537248Y0055763D01*
X0537294Y0055673D01*
X0537337Y0055582D01*
X0537376Y0055488D01*
X0537411Y0055393D01*
X0537442Y0055297D01*
X0537470Y0055200D01*
X0537494Y0055102D01*
X0537514Y0055003D01*
X0537530Y0054903D01*
X0537542Y0054802D01*
X0537550Y0054702D01*
X0537554Y0054601D01*
X0537554Y0054499D01*
X0537550Y0054398D01*
X0537542Y0054298D01*
X0537530Y0054197D01*
X0537514Y0054097D01*
X0537494Y0053998D01*
X0537470Y0053900D01*
X0537442Y0053803D01*
X0537411Y0053707D01*
X0537376Y0053612D01*
X0537337Y0053518D01*
X0537294Y0053427D01*
X0537248Y0053337D01*
X0537198Y0053249D01*
X0537145Y0053163D01*
X0537089Y0053079D01*
X0537029Y0052997D01*
X0536966Y0052918D01*
X0536900Y0052841D01*
X0536831Y0052768D01*
X0536759Y0052696D01*
X0536685Y0052628D01*
X0536607Y0052563D01*
X0536528Y0052501D01*
X0536445Y0052442D01*
X0536361Y0052386D01*
X0536274Y0052334D01*
X0536186Y0052285D01*
X0536096Y0052240D01*
X0536003Y0052198D01*
X0535910Y0052160D01*
X0535815Y0052126D01*
X0535718Y0052095D01*
X0535621Y0052069D01*
X0535522Y0052046D01*
X0535423Y0052027D01*
X0535323Y0052012D01*
X0535222Y0052001D01*
X0535121Y0051994D01*
X0535020Y0051991D01*
X0534919Y0051992D01*
X0534818Y0051997D01*
X0534717Y0052006D01*
X0534617Y0052019D01*
X0534517Y0052036D01*
X0534419Y0052057D01*
X0534320Y0052081D01*
X0534223Y0052110D01*
X0534128Y0052142D01*
X0534033Y0052179D01*
X0533940Y0052218D01*
X0533849Y0052262D01*
X0533760Y0052309D01*
X0533672Y0052360D01*
X0533586Y0052414D01*
X0533503Y0052471D01*
X0533422Y0052531D01*
X0533344Y0052595D01*
X0533268Y0052662D01*
X0533194Y0052732D01*
X0533124Y0052804D01*
X0533057Y0052879D01*
X0532992Y0052957D01*
X0532931Y0053038D01*
X0532873Y0053120D01*
X0532818Y0053205D01*
X0532766Y0053292D01*
X0532718Y0053381D01*
X0532674Y0053472D01*
X0532633Y0053565D01*
X0532596Y0053659D01*
X0532563Y0053754D01*
X0532533Y0053851D01*
X0532508Y0053949D01*
X0532486Y0054048D01*
X0532468Y0054147D01*
X0532454Y0054247D01*
X0532444Y0054348D01*
X0532438Y0054449D01*
X0532436Y0054550D01*
X0559995Y0054550D02*
X0559997Y0054651D01*
X0560003Y0054752D01*
X0560013Y0054853D01*
X0560027Y0054953D01*
X0560045Y0055052D01*
X0560067Y0055151D01*
X0560092Y0055249D01*
X0560122Y0055346D01*
X0560155Y0055441D01*
X0560192Y0055535D01*
X0560233Y0055628D01*
X0560277Y0055719D01*
X0560325Y0055808D01*
X0560377Y0055895D01*
X0560432Y0055980D01*
X0560490Y0056062D01*
X0560551Y0056143D01*
X0560616Y0056221D01*
X0560683Y0056296D01*
X0560753Y0056368D01*
X0560827Y0056438D01*
X0560903Y0056505D01*
X0560981Y0056569D01*
X0561062Y0056629D01*
X0561145Y0056686D01*
X0561231Y0056740D01*
X0561319Y0056791D01*
X0561408Y0056838D01*
X0561499Y0056882D01*
X0561592Y0056921D01*
X0561687Y0056958D01*
X0561782Y0056990D01*
X0561879Y0057019D01*
X0561978Y0057043D01*
X0562076Y0057064D01*
X0562176Y0057081D01*
X0562276Y0057094D01*
X0562377Y0057103D01*
X0562478Y0057108D01*
X0562579Y0057109D01*
X0562680Y0057106D01*
X0562781Y0057099D01*
X0562882Y0057088D01*
X0562982Y0057073D01*
X0563081Y0057054D01*
X0563180Y0057031D01*
X0563277Y0057005D01*
X0563374Y0056974D01*
X0563469Y0056940D01*
X0563562Y0056902D01*
X0563655Y0056860D01*
X0563745Y0056815D01*
X0563834Y0056766D01*
X0563920Y0056714D01*
X0564004Y0056658D01*
X0564087Y0056599D01*
X0564166Y0056537D01*
X0564244Y0056472D01*
X0564318Y0056404D01*
X0564390Y0056332D01*
X0564459Y0056259D01*
X0564525Y0056182D01*
X0564588Y0056103D01*
X0564648Y0056021D01*
X0564704Y0055937D01*
X0564757Y0055851D01*
X0564807Y0055763D01*
X0564853Y0055673D01*
X0564896Y0055582D01*
X0564935Y0055488D01*
X0564970Y0055393D01*
X0565001Y0055297D01*
X0565029Y0055200D01*
X0565053Y0055102D01*
X0565073Y0055003D01*
X0565089Y0054903D01*
X0565101Y0054802D01*
X0565109Y0054702D01*
X0565113Y0054601D01*
X0565113Y0054499D01*
X0565109Y0054398D01*
X0565101Y0054298D01*
X0565089Y0054197D01*
X0565073Y0054097D01*
X0565053Y0053998D01*
X0565029Y0053900D01*
X0565001Y0053803D01*
X0564970Y0053707D01*
X0564935Y0053612D01*
X0564896Y0053518D01*
X0564853Y0053427D01*
X0564807Y0053337D01*
X0564757Y0053249D01*
X0564704Y0053163D01*
X0564648Y0053079D01*
X0564588Y0052997D01*
X0564525Y0052918D01*
X0564459Y0052841D01*
X0564390Y0052768D01*
X0564318Y0052696D01*
X0564244Y0052628D01*
X0564166Y0052563D01*
X0564087Y0052501D01*
X0564004Y0052442D01*
X0563920Y0052386D01*
X0563833Y0052334D01*
X0563745Y0052285D01*
X0563655Y0052240D01*
X0563562Y0052198D01*
X0563469Y0052160D01*
X0563374Y0052126D01*
X0563277Y0052095D01*
X0563180Y0052069D01*
X0563081Y0052046D01*
X0562982Y0052027D01*
X0562882Y0052012D01*
X0562781Y0052001D01*
X0562680Y0051994D01*
X0562579Y0051991D01*
X0562478Y0051992D01*
X0562377Y0051997D01*
X0562276Y0052006D01*
X0562176Y0052019D01*
X0562076Y0052036D01*
X0561978Y0052057D01*
X0561879Y0052081D01*
X0561782Y0052110D01*
X0561687Y0052142D01*
X0561592Y0052179D01*
X0561499Y0052218D01*
X0561408Y0052262D01*
X0561319Y0052309D01*
X0561231Y0052360D01*
X0561145Y0052414D01*
X0561062Y0052471D01*
X0560981Y0052531D01*
X0560903Y0052595D01*
X0560827Y0052662D01*
X0560753Y0052732D01*
X0560683Y0052804D01*
X0560616Y0052879D01*
X0560551Y0052957D01*
X0560490Y0053038D01*
X0560432Y0053120D01*
X0560377Y0053205D01*
X0560325Y0053292D01*
X0560277Y0053381D01*
X0560233Y0053472D01*
X0560192Y0053565D01*
X0560155Y0053659D01*
X0560122Y0053754D01*
X0560092Y0053851D01*
X0560067Y0053949D01*
X0560045Y0054048D01*
X0560027Y0054147D01*
X0560013Y0054247D01*
X0560003Y0054348D01*
X0559997Y0054449D01*
X0559995Y0054550D01*
X0575743Y0054550D02*
X0575745Y0054651D01*
X0575751Y0054752D01*
X0575761Y0054853D01*
X0575775Y0054953D01*
X0575793Y0055052D01*
X0575815Y0055151D01*
X0575840Y0055249D01*
X0575870Y0055346D01*
X0575903Y0055441D01*
X0575940Y0055535D01*
X0575981Y0055628D01*
X0576025Y0055719D01*
X0576073Y0055808D01*
X0576125Y0055895D01*
X0576180Y0055980D01*
X0576238Y0056062D01*
X0576299Y0056143D01*
X0576364Y0056221D01*
X0576431Y0056296D01*
X0576501Y0056368D01*
X0576575Y0056438D01*
X0576651Y0056505D01*
X0576729Y0056569D01*
X0576810Y0056629D01*
X0576893Y0056686D01*
X0576979Y0056740D01*
X0577067Y0056791D01*
X0577156Y0056838D01*
X0577247Y0056882D01*
X0577340Y0056921D01*
X0577435Y0056958D01*
X0577530Y0056990D01*
X0577627Y0057019D01*
X0577726Y0057043D01*
X0577824Y0057064D01*
X0577924Y0057081D01*
X0578024Y0057094D01*
X0578125Y0057103D01*
X0578226Y0057108D01*
X0578327Y0057109D01*
X0578428Y0057106D01*
X0578529Y0057099D01*
X0578630Y0057088D01*
X0578730Y0057073D01*
X0578829Y0057054D01*
X0578928Y0057031D01*
X0579025Y0057005D01*
X0579122Y0056974D01*
X0579217Y0056940D01*
X0579310Y0056902D01*
X0579403Y0056860D01*
X0579493Y0056815D01*
X0579582Y0056766D01*
X0579668Y0056714D01*
X0579752Y0056658D01*
X0579835Y0056599D01*
X0579914Y0056537D01*
X0579992Y0056472D01*
X0580066Y0056404D01*
X0580138Y0056332D01*
X0580207Y0056259D01*
X0580273Y0056182D01*
X0580336Y0056103D01*
X0580396Y0056021D01*
X0580452Y0055937D01*
X0580505Y0055851D01*
X0580555Y0055763D01*
X0580601Y0055673D01*
X0580644Y0055582D01*
X0580683Y0055488D01*
X0580718Y0055393D01*
X0580749Y0055297D01*
X0580777Y0055200D01*
X0580801Y0055102D01*
X0580821Y0055003D01*
X0580837Y0054903D01*
X0580849Y0054802D01*
X0580857Y0054702D01*
X0580861Y0054601D01*
X0580861Y0054499D01*
X0580857Y0054398D01*
X0580849Y0054298D01*
X0580837Y0054197D01*
X0580821Y0054097D01*
X0580801Y0053998D01*
X0580777Y0053900D01*
X0580749Y0053803D01*
X0580718Y0053707D01*
X0580683Y0053612D01*
X0580644Y0053518D01*
X0580601Y0053427D01*
X0580555Y0053337D01*
X0580505Y0053249D01*
X0580452Y0053163D01*
X0580396Y0053079D01*
X0580336Y0052997D01*
X0580273Y0052918D01*
X0580207Y0052841D01*
X0580138Y0052768D01*
X0580066Y0052696D01*
X0579992Y0052628D01*
X0579914Y0052563D01*
X0579835Y0052501D01*
X0579752Y0052442D01*
X0579668Y0052386D01*
X0579581Y0052334D01*
X0579493Y0052285D01*
X0579403Y0052240D01*
X0579310Y0052198D01*
X0579217Y0052160D01*
X0579122Y0052126D01*
X0579025Y0052095D01*
X0578928Y0052069D01*
X0578829Y0052046D01*
X0578730Y0052027D01*
X0578630Y0052012D01*
X0578529Y0052001D01*
X0578428Y0051994D01*
X0578327Y0051991D01*
X0578226Y0051992D01*
X0578125Y0051997D01*
X0578024Y0052006D01*
X0577924Y0052019D01*
X0577824Y0052036D01*
X0577726Y0052057D01*
X0577627Y0052081D01*
X0577530Y0052110D01*
X0577435Y0052142D01*
X0577340Y0052179D01*
X0577247Y0052218D01*
X0577156Y0052262D01*
X0577067Y0052309D01*
X0576979Y0052360D01*
X0576893Y0052414D01*
X0576810Y0052471D01*
X0576729Y0052531D01*
X0576651Y0052595D01*
X0576575Y0052662D01*
X0576501Y0052732D01*
X0576431Y0052804D01*
X0576364Y0052879D01*
X0576299Y0052957D01*
X0576238Y0053038D01*
X0576180Y0053120D01*
X0576125Y0053205D01*
X0576073Y0053292D01*
X0576025Y0053381D01*
X0575981Y0053472D01*
X0575940Y0053565D01*
X0575903Y0053659D01*
X0575870Y0053754D01*
X0575840Y0053851D01*
X0575815Y0053949D01*
X0575793Y0054048D01*
X0575775Y0054147D01*
X0575761Y0054247D01*
X0575751Y0054348D01*
X0575745Y0054449D01*
X0575743Y0054550D01*
X0603302Y0054550D02*
X0603304Y0054651D01*
X0603310Y0054752D01*
X0603320Y0054853D01*
X0603334Y0054953D01*
X0603352Y0055052D01*
X0603374Y0055151D01*
X0603399Y0055249D01*
X0603429Y0055346D01*
X0603462Y0055441D01*
X0603499Y0055535D01*
X0603540Y0055628D01*
X0603584Y0055719D01*
X0603632Y0055808D01*
X0603684Y0055895D01*
X0603739Y0055980D01*
X0603797Y0056062D01*
X0603858Y0056143D01*
X0603923Y0056221D01*
X0603990Y0056296D01*
X0604060Y0056368D01*
X0604134Y0056438D01*
X0604210Y0056505D01*
X0604288Y0056569D01*
X0604369Y0056629D01*
X0604452Y0056686D01*
X0604538Y0056740D01*
X0604626Y0056791D01*
X0604715Y0056838D01*
X0604806Y0056882D01*
X0604899Y0056921D01*
X0604994Y0056958D01*
X0605089Y0056990D01*
X0605186Y0057019D01*
X0605285Y0057043D01*
X0605383Y0057064D01*
X0605483Y0057081D01*
X0605583Y0057094D01*
X0605684Y0057103D01*
X0605785Y0057108D01*
X0605886Y0057109D01*
X0605987Y0057106D01*
X0606088Y0057099D01*
X0606189Y0057088D01*
X0606289Y0057073D01*
X0606388Y0057054D01*
X0606487Y0057031D01*
X0606584Y0057005D01*
X0606681Y0056974D01*
X0606776Y0056940D01*
X0606869Y0056902D01*
X0606962Y0056860D01*
X0607052Y0056815D01*
X0607141Y0056766D01*
X0607227Y0056714D01*
X0607311Y0056658D01*
X0607394Y0056599D01*
X0607473Y0056537D01*
X0607551Y0056472D01*
X0607625Y0056404D01*
X0607697Y0056332D01*
X0607766Y0056259D01*
X0607832Y0056182D01*
X0607895Y0056103D01*
X0607955Y0056021D01*
X0608011Y0055937D01*
X0608064Y0055851D01*
X0608114Y0055763D01*
X0608160Y0055673D01*
X0608203Y0055582D01*
X0608242Y0055488D01*
X0608277Y0055393D01*
X0608308Y0055297D01*
X0608336Y0055200D01*
X0608360Y0055102D01*
X0608380Y0055003D01*
X0608396Y0054903D01*
X0608408Y0054802D01*
X0608416Y0054702D01*
X0608420Y0054601D01*
X0608420Y0054499D01*
X0608416Y0054398D01*
X0608408Y0054298D01*
X0608396Y0054197D01*
X0608380Y0054097D01*
X0608360Y0053998D01*
X0608336Y0053900D01*
X0608308Y0053803D01*
X0608277Y0053707D01*
X0608242Y0053612D01*
X0608203Y0053518D01*
X0608160Y0053427D01*
X0608114Y0053337D01*
X0608064Y0053249D01*
X0608011Y0053163D01*
X0607955Y0053079D01*
X0607895Y0052997D01*
X0607832Y0052918D01*
X0607766Y0052841D01*
X0607697Y0052768D01*
X0607625Y0052696D01*
X0607551Y0052628D01*
X0607473Y0052563D01*
X0607394Y0052501D01*
X0607311Y0052442D01*
X0607227Y0052386D01*
X0607140Y0052334D01*
X0607052Y0052285D01*
X0606962Y0052240D01*
X0606869Y0052198D01*
X0606776Y0052160D01*
X0606681Y0052126D01*
X0606584Y0052095D01*
X0606487Y0052069D01*
X0606388Y0052046D01*
X0606289Y0052027D01*
X0606189Y0052012D01*
X0606088Y0052001D01*
X0605987Y0051994D01*
X0605886Y0051991D01*
X0605785Y0051992D01*
X0605684Y0051997D01*
X0605583Y0052006D01*
X0605483Y0052019D01*
X0605383Y0052036D01*
X0605285Y0052057D01*
X0605186Y0052081D01*
X0605089Y0052110D01*
X0604994Y0052142D01*
X0604899Y0052179D01*
X0604806Y0052218D01*
X0604715Y0052262D01*
X0604626Y0052309D01*
X0604538Y0052360D01*
X0604452Y0052414D01*
X0604369Y0052471D01*
X0604288Y0052531D01*
X0604210Y0052595D01*
X0604134Y0052662D01*
X0604060Y0052732D01*
X0603990Y0052804D01*
X0603923Y0052879D01*
X0603858Y0052957D01*
X0603797Y0053038D01*
X0603739Y0053120D01*
X0603684Y0053205D01*
X0603632Y0053292D01*
X0603584Y0053381D01*
X0603540Y0053472D01*
X0603499Y0053565D01*
X0603462Y0053659D01*
X0603429Y0053754D01*
X0603399Y0053851D01*
X0603374Y0053949D01*
X0603352Y0054048D01*
X0603334Y0054147D01*
X0603320Y0054247D01*
X0603310Y0054348D01*
X0603304Y0054449D01*
X0603302Y0054550D01*
X0619051Y0054550D02*
X0619053Y0054651D01*
X0619059Y0054752D01*
X0619069Y0054853D01*
X0619083Y0054953D01*
X0619101Y0055052D01*
X0619123Y0055151D01*
X0619148Y0055249D01*
X0619178Y0055346D01*
X0619211Y0055441D01*
X0619248Y0055535D01*
X0619289Y0055628D01*
X0619333Y0055719D01*
X0619381Y0055808D01*
X0619433Y0055895D01*
X0619488Y0055980D01*
X0619546Y0056062D01*
X0619607Y0056143D01*
X0619672Y0056221D01*
X0619739Y0056296D01*
X0619809Y0056368D01*
X0619883Y0056438D01*
X0619959Y0056505D01*
X0620037Y0056569D01*
X0620118Y0056629D01*
X0620201Y0056686D01*
X0620287Y0056740D01*
X0620375Y0056791D01*
X0620464Y0056838D01*
X0620555Y0056882D01*
X0620648Y0056921D01*
X0620743Y0056958D01*
X0620838Y0056990D01*
X0620935Y0057019D01*
X0621034Y0057043D01*
X0621132Y0057064D01*
X0621232Y0057081D01*
X0621332Y0057094D01*
X0621433Y0057103D01*
X0621534Y0057108D01*
X0621635Y0057109D01*
X0621736Y0057106D01*
X0621837Y0057099D01*
X0621938Y0057088D01*
X0622038Y0057073D01*
X0622137Y0057054D01*
X0622236Y0057031D01*
X0622333Y0057005D01*
X0622430Y0056974D01*
X0622525Y0056940D01*
X0622618Y0056902D01*
X0622711Y0056860D01*
X0622801Y0056815D01*
X0622890Y0056766D01*
X0622976Y0056714D01*
X0623060Y0056658D01*
X0623143Y0056599D01*
X0623222Y0056537D01*
X0623300Y0056472D01*
X0623374Y0056404D01*
X0623446Y0056332D01*
X0623515Y0056259D01*
X0623581Y0056182D01*
X0623644Y0056103D01*
X0623704Y0056021D01*
X0623760Y0055937D01*
X0623813Y0055851D01*
X0623863Y0055763D01*
X0623909Y0055673D01*
X0623952Y0055582D01*
X0623991Y0055488D01*
X0624026Y0055393D01*
X0624057Y0055297D01*
X0624085Y0055200D01*
X0624109Y0055102D01*
X0624129Y0055003D01*
X0624145Y0054903D01*
X0624157Y0054802D01*
X0624165Y0054702D01*
X0624169Y0054601D01*
X0624169Y0054499D01*
X0624165Y0054398D01*
X0624157Y0054298D01*
X0624145Y0054197D01*
X0624129Y0054097D01*
X0624109Y0053998D01*
X0624085Y0053900D01*
X0624057Y0053803D01*
X0624026Y0053707D01*
X0623991Y0053612D01*
X0623952Y0053518D01*
X0623909Y0053427D01*
X0623863Y0053337D01*
X0623813Y0053249D01*
X0623760Y0053163D01*
X0623704Y0053079D01*
X0623644Y0052997D01*
X0623581Y0052918D01*
X0623515Y0052841D01*
X0623446Y0052768D01*
X0623374Y0052696D01*
X0623300Y0052628D01*
X0623222Y0052563D01*
X0623143Y0052501D01*
X0623060Y0052442D01*
X0622976Y0052386D01*
X0622889Y0052334D01*
X0622801Y0052285D01*
X0622711Y0052240D01*
X0622618Y0052198D01*
X0622525Y0052160D01*
X0622430Y0052126D01*
X0622333Y0052095D01*
X0622236Y0052069D01*
X0622137Y0052046D01*
X0622038Y0052027D01*
X0621938Y0052012D01*
X0621837Y0052001D01*
X0621736Y0051994D01*
X0621635Y0051991D01*
X0621534Y0051992D01*
X0621433Y0051997D01*
X0621332Y0052006D01*
X0621232Y0052019D01*
X0621132Y0052036D01*
X0621034Y0052057D01*
X0620935Y0052081D01*
X0620838Y0052110D01*
X0620743Y0052142D01*
X0620648Y0052179D01*
X0620555Y0052218D01*
X0620464Y0052262D01*
X0620375Y0052309D01*
X0620287Y0052360D01*
X0620201Y0052414D01*
X0620118Y0052471D01*
X0620037Y0052531D01*
X0619959Y0052595D01*
X0619883Y0052662D01*
X0619809Y0052732D01*
X0619739Y0052804D01*
X0619672Y0052879D01*
X0619607Y0052957D01*
X0619546Y0053038D01*
X0619488Y0053120D01*
X0619433Y0053205D01*
X0619381Y0053292D01*
X0619333Y0053381D01*
X0619289Y0053472D01*
X0619248Y0053565D01*
X0619211Y0053659D01*
X0619178Y0053754D01*
X0619148Y0053851D01*
X0619123Y0053949D01*
X0619101Y0054048D01*
X0619083Y0054147D01*
X0619069Y0054247D01*
X0619059Y0054348D01*
X0619053Y0054449D01*
X0619051Y0054550D01*
X0646610Y0054550D02*
X0646612Y0054651D01*
X0646618Y0054752D01*
X0646628Y0054853D01*
X0646642Y0054953D01*
X0646660Y0055052D01*
X0646682Y0055151D01*
X0646707Y0055249D01*
X0646737Y0055346D01*
X0646770Y0055441D01*
X0646807Y0055535D01*
X0646848Y0055628D01*
X0646892Y0055719D01*
X0646940Y0055808D01*
X0646992Y0055895D01*
X0647047Y0055980D01*
X0647105Y0056062D01*
X0647166Y0056143D01*
X0647231Y0056221D01*
X0647298Y0056296D01*
X0647368Y0056368D01*
X0647442Y0056438D01*
X0647518Y0056505D01*
X0647596Y0056569D01*
X0647677Y0056629D01*
X0647760Y0056686D01*
X0647846Y0056740D01*
X0647934Y0056791D01*
X0648023Y0056838D01*
X0648114Y0056882D01*
X0648207Y0056921D01*
X0648302Y0056958D01*
X0648397Y0056990D01*
X0648494Y0057019D01*
X0648593Y0057043D01*
X0648691Y0057064D01*
X0648791Y0057081D01*
X0648891Y0057094D01*
X0648992Y0057103D01*
X0649093Y0057108D01*
X0649194Y0057109D01*
X0649295Y0057106D01*
X0649396Y0057099D01*
X0649497Y0057088D01*
X0649597Y0057073D01*
X0649696Y0057054D01*
X0649795Y0057031D01*
X0649892Y0057005D01*
X0649989Y0056974D01*
X0650084Y0056940D01*
X0650177Y0056902D01*
X0650270Y0056860D01*
X0650360Y0056815D01*
X0650449Y0056766D01*
X0650535Y0056714D01*
X0650619Y0056658D01*
X0650702Y0056599D01*
X0650781Y0056537D01*
X0650859Y0056472D01*
X0650933Y0056404D01*
X0651005Y0056332D01*
X0651074Y0056259D01*
X0651140Y0056182D01*
X0651203Y0056103D01*
X0651263Y0056021D01*
X0651319Y0055937D01*
X0651372Y0055851D01*
X0651422Y0055763D01*
X0651468Y0055673D01*
X0651511Y0055582D01*
X0651550Y0055488D01*
X0651585Y0055393D01*
X0651616Y0055297D01*
X0651644Y0055200D01*
X0651668Y0055102D01*
X0651688Y0055003D01*
X0651704Y0054903D01*
X0651716Y0054802D01*
X0651724Y0054702D01*
X0651728Y0054601D01*
X0651728Y0054499D01*
X0651724Y0054398D01*
X0651716Y0054298D01*
X0651704Y0054197D01*
X0651688Y0054097D01*
X0651668Y0053998D01*
X0651644Y0053900D01*
X0651616Y0053803D01*
X0651585Y0053707D01*
X0651550Y0053612D01*
X0651511Y0053518D01*
X0651468Y0053427D01*
X0651422Y0053337D01*
X0651372Y0053249D01*
X0651319Y0053163D01*
X0651263Y0053079D01*
X0651203Y0052997D01*
X0651140Y0052918D01*
X0651074Y0052841D01*
X0651005Y0052768D01*
X0650933Y0052696D01*
X0650859Y0052628D01*
X0650781Y0052563D01*
X0650702Y0052501D01*
X0650619Y0052442D01*
X0650535Y0052386D01*
X0650448Y0052334D01*
X0650360Y0052285D01*
X0650270Y0052240D01*
X0650177Y0052198D01*
X0650084Y0052160D01*
X0649989Y0052126D01*
X0649892Y0052095D01*
X0649795Y0052069D01*
X0649696Y0052046D01*
X0649597Y0052027D01*
X0649497Y0052012D01*
X0649396Y0052001D01*
X0649295Y0051994D01*
X0649194Y0051991D01*
X0649093Y0051992D01*
X0648992Y0051997D01*
X0648891Y0052006D01*
X0648791Y0052019D01*
X0648691Y0052036D01*
X0648593Y0052057D01*
X0648494Y0052081D01*
X0648397Y0052110D01*
X0648302Y0052142D01*
X0648207Y0052179D01*
X0648114Y0052218D01*
X0648023Y0052262D01*
X0647934Y0052309D01*
X0647846Y0052360D01*
X0647760Y0052414D01*
X0647677Y0052471D01*
X0647596Y0052531D01*
X0647518Y0052595D01*
X0647442Y0052662D01*
X0647368Y0052732D01*
X0647298Y0052804D01*
X0647231Y0052879D01*
X0647166Y0052957D01*
X0647105Y0053038D01*
X0647047Y0053120D01*
X0646992Y0053205D01*
X0646940Y0053292D01*
X0646892Y0053381D01*
X0646848Y0053472D01*
X0646807Y0053565D01*
X0646770Y0053659D01*
X0646737Y0053754D01*
X0646707Y0053851D01*
X0646682Y0053949D01*
X0646660Y0054048D01*
X0646642Y0054147D01*
X0646628Y0054247D01*
X0646618Y0054348D01*
X0646612Y0054449D01*
X0646610Y0054550D01*
X0829877Y0040770D02*
X0829879Y0040928D01*
X0829885Y0041086D01*
X0829895Y0041244D01*
X0829909Y0041402D01*
X0829927Y0041559D01*
X0829948Y0041716D01*
X0829974Y0041872D01*
X0830004Y0042028D01*
X0830037Y0042183D01*
X0830075Y0042336D01*
X0830116Y0042489D01*
X0830161Y0042641D01*
X0830210Y0042792D01*
X0830263Y0042941D01*
X0830319Y0043089D01*
X0830379Y0043235D01*
X0830443Y0043380D01*
X0830511Y0043523D01*
X0830582Y0043665D01*
X0830656Y0043805D01*
X0830734Y0043942D01*
X0830816Y0044078D01*
X0830900Y0044212D01*
X0830989Y0044343D01*
X0831080Y0044472D01*
X0831175Y0044599D01*
X0831272Y0044724D01*
X0831373Y0044846D01*
X0831477Y0044965D01*
X0831584Y0045082D01*
X0831694Y0045196D01*
X0831807Y0045307D01*
X0831922Y0045416D01*
X0832040Y0045521D01*
X0832161Y0045623D01*
X0832284Y0045723D01*
X0832410Y0045819D01*
X0832538Y0045912D01*
X0832668Y0046002D01*
X0832801Y0046088D01*
X0832936Y0046172D01*
X0833072Y0046251D01*
X0833211Y0046328D01*
X0833352Y0046400D01*
X0833494Y0046470D01*
X0833638Y0046535D01*
X0833784Y0046597D01*
X0833931Y0046655D01*
X0834080Y0046710D01*
X0834230Y0046761D01*
X0834381Y0046808D01*
X0834533Y0046851D01*
X0834686Y0046890D01*
X0834841Y0046926D01*
X0834996Y0046957D01*
X0835152Y0046985D01*
X0835308Y0047009D01*
X0835465Y0047029D01*
X0835623Y0047045D01*
X0835780Y0047057D01*
X0835939Y0047065D01*
X0836097Y0047069D01*
X0836255Y0047069D01*
X0836413Y0047065D01*
X0836572Y0047057D01*
X0836729Y0047045D01*
X0836887Y0047029D01*
X0837044Y0047009D01*
X0837200Y0046985D01*
X0837356Y0046957D01*
X0837511Y0046926D01*
X0837666Y0046890D01*
X0837819Y0046851D01*
X0837971Y0046808D01*
X0838122Y0046761D01*
X0838272Y0046710D01*
X0838421Y0046655D01*
X0838568Y0046597D01*
X0838714Y0046535D01*
X0838858Y0046470D01*
X0839000Y0046400D01*
X0839141Y0046328D01*
X0839280Y0046251D01*
X0839416Y0046172D01*
X0839551Y0046088D01*
X0839684Y0046002D01*
X0839814Y0045912D01*
X0839942Y0045819D01*
X0840068Y0045723D01*
X0840191Y0045623D01*
X0840312Y0045521D01*
X0840430Y0045416D01*
X0840545Y0045307D01*
X0840658Y0045196D01*
X0840768Y0045082D01*
X0840875Y0044965D01*
X0840979Y0044846D01*
X0841080Y0044724D01*
X0841177Y0044599D01*
X0841272Y0044472D01*
X0841363Y0044343D01*
X0841452Y0044212D01*
X0841536Y0044078D01*
X0841618Y0043942D01*
X0841696Y0043805D01*
X0841770Y0043665D01*
X0841841Y0043523D01*
X0841909Y0043380D01*
X0841973Y0043235D01*
X0842033Y0043089D01*
X0842089Y0042941D01*
X0842142Y0042792D01*
X0842191Y0042641D01*
X0842236Y0042489D01*
X0842277Y0042336D01*
X0842315Y0042183D01*
X0842348Y0042028D01*
X0842378Y0041872D01*
X0842404Y0041716D01*
X0842425Y0041559D01*
X0842443Y0041402D01*
X0842457Y0041244D01*
X0842467Y0041086D01*
X0842473Y0040928D01*
X0842475Y0040770D01*
X0842473Y0040612D01*
X0842467Y0040454D01*
X0842457Y0040296D01*
X0842443Y0040138D01*
X0842425Y0039981D01*
X0842404Y0039824D01*
X0842378Y0039668D01*
X0842348Y0039512D01*
X0842315Y0039357D01*
X0842277Y0039204D01*
X0842236Y0039051D01*
X0842191Y0038899D01*
X0842142Y0038748D01*
X0842089Y0038599D01*
X0842033Y0038451D01*
X0841973Y0038305D01*
X0841909Y0038160D01*
X0841841Y0038017D01*
X0841770Y0037875D01*
X0841696Y0037735D01*
X0841618Y0037598D01*
X0841536Y0037462D01*
X0841452Y0037328D01*
X0841363Y0037197D01*
X0841272Y0037068D01*
X0841177Y0036941D01*
X0841080Y0036816D01*
X0840979Y0036694D01*
X0840875Y0036575D01*
X0840768Y0036458D01*
X0840658Y0036344D01*
X0840545Y0036233D01*
X0840430Y0036124D01*
X0840312Y0036019D01*
X0840191Y0035917D01*
X0840068Y0035817D01*
X0839942Y0035721D01*
X0839814Y0035628D01*
X0839684Y0035538D01*
X0839551Y0035452D01*
X0839416Y0035368D01*
X0839280Y0035289D01*
X0839141Y0035212D01*
X0839000Y0035140D01*
X0838858Y0035070D01*
X0838714Y0035005D01*
X0838568Y0034943D01*
X0838421Y0034885D01*
X0838272Y0034830D01*
X0838122Y0034779D01*
X0837971Y0034732D01*
X0837819Y0034689D01*
X0837666Y0034650D01*
X0837511Y0034614D01*
X0837356Y0034583D01*
X0837200Y0034555D01*
X0837044Y0034531D01*
X0836887Y0034511D01*
X0836729Y0034495D01*
X0836572Y0034483D01*
X0836413Y0034475D01*
X0836255Y0034471D01*
X0836097Y0034471D01*
X0835939Y0034475D01*
X0835780Y0034483D01*
X0835623Y0034495D01*
X0835465Y0034511D01*
X0835308Y0034531D01*
X0835152Y0034555D01*
X0834996Y0034583D01*
X0834841Y0034614D01*
X0834686Y0034650D01*
X0834533Y0034689D01*
X0834381Y0034732D01*
X0834230Y0034779D01*
X0834080Y0034830D01*
X0833931Y0034885D01*
X0833784Y0034943D01*
X0833638Y0035005D01*
X0833494Y0035070D01*
X0833352Y0035140D01*
X0833211Y0035212D01*
X0833072Y0035289D01*
X0832936Y0035368D01*
X0832801Y0035452D01*
X0832668Y0035538D01*
X0832538Y0035628D01*
X0832410Y0035721D01*
X0832284Y0035817D01*
X0832161Y0035917D01*
X0832040Y0036019D01*
X0831922Y0036124D01*
X0831807Y0036233D01*
X0831694Y0036344D01*
X0831584Y0036458D01*
X0831477Y0036575D01*
X0831373Y0036694D01*
X0831272Y0036816D01*
X0831175Y0036941D01*
X0831080Y0037068D01*
X0830989Y0037197D01*
X0830900Y0037328D01*
X0830816Y0037462D01*
X0830734Y0037598D01*
X0830656Y0037735D01*
X0830582Y0037875D01*
X0830511Y0038017D01*
X0830443Y0038160D01*
X0830379Y0038305D01*
X0830319Y0038451D01*
X0830263Y0038599D01*
X0830210Y0038748D01*
X0830161Y0038899D01*
X0830116Y0039051D01*
X0830075Y0039204D01*
X0830037Y0039357D01*
X0830004Y0039512D01*
X0829974Y0039668D01*
X0829948Y0039824D01*
X0829927Y0039981D01*
X0829909Y0040138D01*
X0829895Y0040296D01*
X0829885Y0040454D01*
X0829879Y0040612D01*
X0829877Y0040770D01*
X0699956Y0172660D02*
X0699958Y0172791D01*
X0699964Y0172923D01*
X0699974Y0173054D01*
X0699988Y0173185D01*
X0700006Y0173315D01*
X0700028Y0173444D01*
X0700053Y0173573D01*
X0700083Y0173701D01*
X0700117Y0173828D01*
X0700154Y0173955D01*
X0700195Y0174079D01*
X0700240Y0174203D01*
X0700289Y0174325D01*
X0700341Y0174446D01*
X0700397Y0174564D01*
X0700457Y0174682D01*
X0700520Y0174797D01*
X0700587Y0174910D01*
X0700657Y0175022D01*
X0700730Y0175131D01*
X0700806Y0175237D01*
X0700886Y0175342D01*
X0700969Y0175444D01*
X0701055Y0175543D01*
X0701144Y0175640D01*
X0701236Y0175734D01*
X0701331Y0175825D01*
X0701428Y0175914D01*
X0701528Y0175999D01*
X0701631Y0176081D01*
X0701736Y0176160D01*
X0701843Y0176236D01*
X0701953Y0176308D01*
X0702065Y0176377D01*
X0702179Y0176443D01*
X0702294Y0176505D01*
X0702412Y0176564D01*
X0702531Y0176619D01*
X0702652Y0176671D01*
X0702775Y0176718D01*
X0702899Y0176762D01*
X0703024Y0176803D01*
X0703150Y0176839D01*
X0703278Y0176872D01*
X0703406Y0176900D01*
X0703535Y0176925D01*
X0703665Y0176946D01*
X0703795Y0176963D01*
X0703926Y0176976D01*
X0704057Y0176985D01*
X0704188Y0176990D01*
X0704320Y0176991D01*
X0704451Y0176988D01*
X0704583Y0176981D01*
X0704714Y0176970D01*
X0704844Y0176955D01*
X0704974Y0176936D01*
X0705104Y0176913D01*
X0705232Y0176887D01*
X0705360Y0176856D01*
X0705487Y0176821D01*
X0705613Y0176783D01*
X0705737Y0176741D01*
X0705861Y0176695D01*
X0705982Y0176645D01*
X0706102Y0176592D01*
X0706221Y0176535D01*
X0706338Y0176475D01*
X0706452Y0176411D01*
X0706565Y0176343D01*
X0706676Y0176272D01*
X0706785Y0176198D01*
X0706891Y0176121D01*
X0706995Y0176040D01*
X0707096Y0175957D01*
X0707195Y0175870D01*
X0707291Y0175780D01*
X0707384Y0175687D01*
X0707475Y0175592D01*
X0707562Y0175494D01*
X0707647Y0175393D01*
X0707728Y0175290D01*
X0707806Y0175184D01*
X0707881Y0175076D01*
X0707953Y0174966D01*
X0708021Y0174854D01*
X0708086Y0174740D01*
X0708147Y0174623D01*
X0708205Y0174505D01*
X0708259Y0174385D01*
X0708310Y0174264D01*
X0708357Y0174141D01*
X0708400Y0174017D01*
X0708439Y0173892D01*
X0708475Y0173765D01*
X0708506Y0173637D01*
X0708534Y0173509D01*
X0708558Y0173380D01*
X0708578Y0173250D01*
X0708594Y0173119D01*
X0708606Y0172988D01*
X0708614Y0172857D01*
X0708618Y0172726D01*
X0708618Y0172594D01*
X0708614Y0172463D01*
X0708606Y0172332D01*
X0708594Y0172201D01*
X0708578Y0172070D01*
X0708558Y0171940D01*
X0708534Y0171811D01*
X0708506Y0171683D01*
X0708475Y0171555D01*
X0708439Y0171428D01*
X0708400Y0171303D01*
X0708357Y0171179D01*
X0708310Y0171056D01*
X0708259Y0170935D01*
X0708205Y0170815D01*
X0708147Y0170697D01*
X0708086Y0170580D01*
X0708021Y0170466D01*
X0707953Y0170354D01*
X0707881Y0170244D01*
X0707806Y0170136D01*
X0707728Y0170030D01*
X0707647Y0169927D01*
X0707562Y0169826D01*
X0707475Y0169728D01*
X0707384Y0169633D01*
X0707291Y0169540D01*
X0707195Y0169450D01*
X0707096Y0169363D01*
X0706995Y0169280D01*
X0706891Y0169199D01*
X0706785Y0169122D01*
X0706676Y0169048D01*
X0706565Y0168977D01*
X0706453Y0168909D01*
X0706338Y0168845D01*
X0706221Y0168785D01*
X0706102Y0168728D01*
X0705982Y0168675D01*
X0705861Y0168625D01*
X0705737Y0168579D01*
X0705613Y0168537D01*
X0705487Y0168499D01*
X0705360Y0168464D01*
X0705232Y0168433D01*
X0705104Y0168407D01*
X0704974Y0168384D01*
X0704844Y0168365D01*
X0704714Y0168350D01*
X0704583Y0168339D01*
X0704451Y0168332D01*
X0704320Y0168329D01*
X0704188Y0168330D01*
X0704057Y0168335D01*
X0703926Y0168344D01*
X0703795Y0168357D01*
X0703665Y0168374D01*
X0703535Y0168395D01*
X0703406Y0168420D01*
X0703278Y0168448D01*
X0703150Y0168481D01*
X0703024Y0168517D01*
X0702899Y0168558D01*
X0702775Y0168602D01*
X0702652Y0168649D01*
X0702531Y0168701D01*
X0702412Y0168756D01*
X0702294Y0168815D01*
X0702179Y0168877D01*
X0702065Y0168943D01*
X0701953Y0169012D01*
X0701843Y0169084D01*
X0701736Y0169160D01*
X0701631Y0169239D01*
X0701528Y0169321D01*
X0701428Y0169406D01*
X0701331Y0169495D01*
X0701236Y0169586D01*
X0701144Y0169680D01*
X0701055Y0169777D01*
X0700969Y0169876D01*
X0700886Y0169978D01*
X0700806Y0170083D01*
X0700730Y0170189D01*
X0700657Y0170298D01*
X0700587Y0170410D01*
X0700520Y0170523D01*
X0700457Y0170638D01*
X0700397Y0170756D01*
X0700341Y0170874D01*
X0700289Y0170995D01*
X0700240Y0171117D01*
X0700195Y0171241D01*
X0700154Y0171365D01*
X0700117Y0171492D01*
X0700083Y0171619D01*
X0700053Y0171747D01*
X0700028Y0171876D01*
X0700006Y0172005D01*
X0699988Y0172135D01*
X0699974Y0172266D01*
X0699964Y0172397D01*
X0699958Y0172529D01*
X0699956Y0172660D01*
X0680271Y0172660D02*
X0680273Y0172791D01*
X0680279Y0172923D01*
X0680289Y0173054D01*
X0680303Y0173185D01*
X0680321Y0173315D01*
X0680343Y0173444D01*
X0680368Y0173573D01*
X0680398Y0173701D01*
X0680432Y0173828D01*
X0680469Y0173955D01*
X0680510Y0174079D01*
X0680555Y0174203D01*
X0680604Y0174325D01*
X0680656Y0174446D01*
X0680712Y0174564D01*
X0680772Y0174682D01*
X0680835Y0174797D01*
X0680902Y0174910D01*
X0680972Y0175022D01*
X0681045Y0175131D01*
X0681121Y0175237D01*
X0681201Y0175342D01*
X0681284Y0175444D01*
X0681370Y0175543D01*
X0681459Y0175640D01*
X0681551Y0175734D01*
X0681646Y0175825D01*
X0681743Y0175914D01*
X0681843Y0175999D01*
X0681946Y0176081D01*
X0682051Y0176160D01*
X0682158Y0176236D01*
X0682268Y0176308D01*
X0682380Y0176377D01*
X0682494Y0176443D01*
X0682609Y0176505D01*
X0682727Y0176564D01*
X0682846Y0176619D01*
X0682967Y0176671D01*
X0683090Y0176718D01*
X0683214Y0176762D01*
X0683339Y0176803D01*
X0683465Y0176839D01*
X0683593Y0176872D01*
X0683721Y0176900D01*
X0683850Y0176925D01*
X0683980Y0176946D01*
X0684110Y0176963D01*
X0684241Y0176976D01*
X0684372Y0176985D01*
X0684503Y0176990D01*
X0684635Y0176991D01*
X0684766Y0176988D01*
X0684898Y0176981D01*
X0685029Y0176970D01*
X0685159Y0176955D01*
X0685289Y0176936D01*
X0685419Y0176913D01*
X0685547Y0176887D01*
X0685675Y0176856D01*
X0685802Y0176821D01*
X0685928Y0176783D01*
X0686052Y0176741D01*
X0686176Y0176695D01*
X0686297Y0176645D01*
X0686417Y0176592D01*
X0686536Y0176535D01*
X0686653Y0176475D01*
X0686767Y0176411D01*
X0686880Y0176343D01*
X0686991Y0176272D01*
X0687100Y0176198D01*
X0687206Y0176121D01*
X0687310Y0176040D01*
X0687411Y0175957D01*
X0687510Y0175870D01*
X0687606Y0175780D01*
X0687699Y0175687D01*
X0687790Y0175592D01*
X0687877Y0175494D01*
X0687962Y0175393D01*
X0688043Y0175290D01*
X0688121Y0175184D01*
X0688196Y0175076D01*
X0688268Y0174966D01*
X0688336Y0174854D01*
X0688401Y0174740D01*
X0688462Y0174623D01*
X0688520Y0174505D01*
X0688574Y0174385D01*
X0688625Y0174264D01*
X0688672Y0174141D01*
X0688715Y0174017D01*
X0688754Y0173892D01*
X0688790Y0173765D01*
X0688821Y0173637D01*
X0688849Y0173509D01*
X0688873Y0173380D01*
X0688893Y0173250D01*
X0688909Y0173119D01*
X0688921Y0172988D01*
X0688929Y0172857D01*
X0688933Y0172726D01*
X0688933Y0172594D01*
X0688929Y0172463D01*
X0688921Y0172332D01*
X0688909Y0172201D01*
X0688893Y0172070D01*
X0688873Y0171940D01*
X0688849Y0171811D01*
X0688821Y0171683D01*
X0688790Y0171555D01*
X0688754Y0171428D01*
X0688715Y0171303D01*
X0688672Y0171179D01*
X0688625Y0171056D01*
X0688574Y0170935D01*
X0688520Y0170815D01*
X0688462Y0170697D01*
X0688401Y0170580D01*
X0688336Y0170466D01*
X0688268Y0170354D01*
X0688196Y0170244D01*
X0688121Y0170136D01*
X0688043Y0170030D01*
X0687962Y0169927D01*
X0687877Y0169826D01*
X0687790Y0169728D01*
X0687699Y0169633D01*
X0687606Y0169540D01*
X0687510Y0169450D01*
X0687411Y0169363D01*
X0687310Y0169280D01*
X0687206Y0169199D01*
X0687100Y0169122D01*
X0686991Y0169048D01*
X0686880Y0168977D01*
X0686768Y0168909D01*
X0686653Y0168845D01*
X0686536Y0168785D01*
X0686417Y0168728D01*
X0686297Y0168675D01*
X0686176Y0168625D01*
X0686052Y0168579D01*
X0685928Y0168537D01*
X0685802Y0168499D01*
X0685675Y0168464D01*
X0685547Y0168433D01*
X0685419Y0168407D01*
X0685289Y0168384D01*
X0685159Y0168365D01*
X0685029Y0168350D01*
X0684898Y0168339D01*
X0684766Y0168332D01*
X0684635Y0168329D01*
X0684503Y0168330D01*
X0684372Y0168335D01*
X0684241Y0168344D01*
X0684110Y0168357D01*
X0683980Y0168374D01*
X0683850Y0168395D01*
X0683721Y0168420D01*
X0683593Y0168448D01*
X0683465Y0168481D01*
X0683339Y0168517D01*
X0683214Y0168558D01*
X0683090Y0168602D01*
X0682967Y0168649D01*
X0682846Y0168701D01*
X0682727Y0168756D01*
X0682609Y0168815D01*
X0682494Y0168877D01*
X0682380Y0168943D01*
X0682268Y0169012D01*
X0682158Y0169084D01*
X0682051Y0169160D01*
X0681946Y0169239D01*
X0681843Y0169321D01*
X0681743Y0169406D01*
X0681646Y0169495D01*
X0681551Y0169586D01*
X0681459Y0169680D01*
X0681370Y0169777D01*
X0681284Y0169876D01*
X0681201Y0169978D01*
X0681121Y0170083D01*
X0681045Y0170189D01*
X0680972Y0170298D01*
X0680902Y0170410D01*
X0680835Y0170523D01*
X0680772Y0170638D01*
X0680712Y0170756D01*
X0680656Y0170874D01*
X0680604Y0170995D01*
X0680555Y0171117D01*
X0680510Y0171241D01*
X0680469Y0171365D01*
X0680432Y0171492D01*
X0680398Y0171619D01*
X0680368Y0171747D01*
X0680343Y0171876D01*
X0680321Y0172005D01*
X0680303Y0172135D01*
X0680289Y0172266D01*
X0680279Y0172397D01*
X0680273Y0172529D01*
X0680271Y0172660D01*
X0829877Y0174628D02*
X0829879Y0174786D01*
X0829885Y0174944D01*
X0829895Y0175102D01*
X0829909Y0175260D01*
X0829927Y0175417D01*
X0829948Y0175574D01*
X0829974Y0175730D01*
X0830004Y0175886D01*
X0830037Y0176041D01*
X0830075Y0176194D01*
X0830116Y0176347D01*
X0830161Y0176499D01*
X0830210Y0176650D01*
X0830263Y0176799D01*
X0830319Y0176947D01*
X0830379Y0177093D01*
X0830443Y0177238D01*
X0830511Y0177381D01*
X0830582Y0177523D01*
X0830656Y0177663D01*
X0830734Y0177800D01*
X0830816Y0177936D01*
X0830900Y0178070D01*
X0830989Y0178201D01*
X0831080Y0178330D01*
X0831175Y0178457D01*
X0831272Y0178582D01*
X0831373Y0178704D01*
X0831477Y0178823D01*
X0831584Y0178940D01*
X0831694Y0179054D01*
X0831807Y0179165D01*
X0831922Y0179274D01*
X0832040Y0179379D01*
X0832161Y0179481D01*
X0832284Y0179581D01*
X0832410Y0179677D01*
X0832538Y0179770D01*
X0832668Y0179860D01*
X0832801Y0179946D01*
X0832936Y0180030D01*
X0833072Y0180109D01*
X0833211Y0180186D01*
X0833352Y0180258D01*
X0833494Y0180328D01*
X0833638Y0180393D01*
X0833784Y0180455D01*
X0833931Y0180513D01*
X0834080Y0180568D01*
X0834230Y0180619D01*
X0834381Y0180666D01*
X0834533Y0180709D01*
X0834686Y0180748D01*
X0834841Y0180784D01*
X0834996Y0180815D01*
X0835152Y0180843D01*
X0835308Y0180867D01*
X0835465Y0180887D01*
X0835623Y0180903D01*
X0835780Y0180915D01*
X0835939Y0180923D01*
X0836097Y0180927D01*
X0836255Y0180927D01*
X0836413Y0180923D01*
X0836572Y0180915D01*
X0836729Y0180903D01*
X0836887Y0180887D01*
X0837044Y0180867D01*
X0837200Y0180843D01*
X0837356Y0180815D01*
X0837511Y0180784D01*
X0837666Y0180748D01*
X0837819Y0180709D01*
X0837971Y0180666D01*
X0838122Y0180619D01*
X0838272Y0180568D01*
X0838421Y0180513D01*
X0838568Y0180455D01*
X0838714Y0180393D01*
X0838858Y0180328D01*
X0839000Y0180258D01*
X0839141Y0180186D01*
X0839280Y0180109D01*
X0839416Y0180030D01*
X0839551Y0179946D01*
X0839684Y0179860D01*
X0839814Y0179770D01*
X0839942Y0179677D01*
X0840068Y0179581D01*
X0840191Y0179481D01*
X0840312Y0179379D01*
X0840430Y0179274D01*
X0840545Y0179165D01*
X0840658Y0179054D01*
X0840768Y0178940D01*
X0840875Y0178823D01*
X0840979Y0178704D01*
X0841080Y0178582D01*
X0841177Y0178457D01*
X0841272Y0178330D01*
X0841363Y0178201D01*
X0841452Y0178070D01*
X0841536Y0177936D01*
X0841618Y0177800D01*
X0841696Y0177663D01*
X0841770Y0177523D01*
X0841841Y0177381D01*
X0841909Y0177238D01*
X0841973Y0177093D01*
X0842033Y0176947D01*
X0842089Y0176799D01*
X0842142Y0176650D01*
X0842191Y0176499D01*
X0842236Y0176347D01*
X0842277Y0176194D01*
X0842315Y0176041D01*
X0842348Y0175886D01*
X0842378Y0175730D01*
X0842404Y0175574D01*
X0842425Y0175417D01*
X0842443Y0175260D01*
X0842457Y0175102D01*
X0842467Y0174944D01*
X0842473Y0174786D01*
X0842475Y0174628D01*
X0842473Y0174470D01*
X0842467Y0174312D01*
X0842457Y0174154D01*
X0842443Y0173996D01*
X0842425Y0173839D01*
X0842404Y0173682D01*
X0842378Y0173526D01*
X0842348Y0173370D01*
X0842315Y0173215D01*
X0842277Y0173062D01*
X0842236Y0172909D01*
X0842191Y0172757D01*
X0842142Y0172606D01*
X0842089Y0172457D01*
X0842033Y0172309D01*
X0841973Y0172163D01*
X0841909Y0172018D01*
X0841841Y0171875D01*
X0841770Y0171733D01*
X0841696Y0171593D01*
X0841618Y0171456D01*
X0841536Y0171320D01*
X0841452Y0171186D01*
X0841363Y0171055D01*
X0841272Y0170926D01*
X0841177Y0170799D01*
X0841080Y0170674D01*
X0840979Y0170552D01*
X0840875Y0170433D01*
X0840768Y0170316D01*
X0840658Y0170202D01*
X0840545Y0170091D01*
X0840430Y0169982D01*
X0840312Y0169877D01*
X0840191Y0169775D01*
X0840068Y0169675D01*
X0839942Y0169579D01*
X0839814Y0169486D01*
X0839684Y0169396D01*
X0839551Y0169310D01*
X0839416Y0169226D01*
X0839280Y0169147D01*
X0839141Y0169070D01*
X0839000Y0168998D01*
X0838858Y0168928D01*
X0838714Y0168863D01*
X0838568Y0168801D01*
X0838421Y0168743D01*
X0838272Y0168688D01*
X0838122Y0168637D01*
X0837971Y0168590D01*
X0837819Y0168547D01*
X0837666Y0168508D01*
X0837511Y0168472D01*
X0837356Y0168441D01*
X0837200Y0168413D01*
X0837044Y0168389D01*
X0836887Y0168369D01*
X0836729Y0168353D01*
X0836572Y0168341D01*
X0836413Y0168333D01*
X0836255Y0168329D01*
X0836097Y0168329D01*
X0835939Y0168333D01*
X0835780Y0168341D01*
X0835623Y0168353D01*
X0835465Y0168369D01*
X0835308Y0168389D01*
X0835152Y0168413D01*
X0834996Y0168441D01*
X0834841Y0168472D01*
X0834686Y0168508D01*
X0834533Y0168547D01*
X0834381Y0168590D01*
X0834230Y0168637D01*
X0834080Y0168688D01*
X0833931Y0168743D01*
X0833784Y0168801D01*
X0833638Y0168863D01*
X0833494Y0168928D01*
X0833352Y0168998D01*
X0833211Y0169070D01*
X0833072Y0169147D01*
X0832936Y0169226D01*
X0832801Y0169310D01*
X0832668Y0169396D01*
X0832538Y0169486D01*
X0832410Y0169579D01*
X0832284Y0169675D01*
X0832161Y0169775D01*
X0832040Y0169877D01*
X0831922Y0169982D01*
X0831807Y0170091D01*
X0831694Y0170202D01*
X0831584Y0170316D01*
X0831477Y0170433D01*
X0831373Y0170552D01*
X0831272Y0170674D01*
X0831175Y0170799D01*
X0831080Y0170926D01*
X0830989Y0171055D01*
X0830900Y0171186D01*
X0830816Y0171320D01*
X0830734Y0171456D01*
X0830656Y0171593D01*
X0830582Y0171733D01*
X0830511Y0171875D01*
X0830443Y0172018D01*
X0830379Y0172163D01*
X0830319Y0172309D01*
X0830263Y0172457D01*
X0830210Y0172606D01*
X0830161Y0172757D01*
X0830116Y0172909D01*
X0830075Y0173062D01*
X0830037Y0173215D01*
X0830004Y0173370D01*
X0829974Y0173526D01*
X0829948Y0173682D01*
X0829927Y0173839D01*
X0829909Y0173996D01*
X0829895Y0174154D01*
X0829885Y0174312D01*
X0829879Y0174470D01*
X0829877Y0174628D01*
D11*
X0248343Y0120241D03*
X0132595Y0120241D03*
M02*
