G75*
%MOIN*%
%OFA0B0*%
%FSLAX25Y25*%
%IPPOS*%
%LPD*%
%AMOC8*
5,1,8,0,0,1.08239X$1,22.5*
%
%ADD10C,0.00000*%
%ADD11C,0.00600*%
%ADD12C,0.00200*%
%ADD13C,0.00500*%
%ADD14C,0.00400*%
D10*
X0001000Y0001000D02*
X0001000Y0099425D01*
X0079740Y0099425D01*
X0079740Y0001000D01*
X0001000Y0001000D01*
X0006512Y0024622D02*
X0006514Y0024780D01*
X0006520Y0024938D01*
X0006530Y0025096D01*
X0006544Y0025254D01*
X0006562Y0025411D01*
X0006583Y0025568D01*
X0006609Y0025724D01*
X0006639Y0025880D01*
X0006672Y0026035D01*
X0006710Y0026188D01*
X0006751Y0026341D01*
X0006796Y0026493D01*
X0006845Y0026644D01*
X0006898Y0026793D01*
X0006954Y0026941D01*
X0007014Y0027087D01*
X0007078Y0027232D01*
X0007146Y0027375D01*
X0007217Y0027517D01*
X0007291Y0027657D01*
X0007369Y0027794D01*
X0007451Y0027930D01*
X0007535Y0028064D01*
X0007624Y0028195D01*
X0007715Y0028324D01*
X0007810Y0028451D01*
X0007907Y0028576D01*
X0008008Y0028698D01*
X0008112Y0028817D01*
X0008219Y0028934D01*
X0008329Y0029048D01*
X0008442Y0029159D01*
X0008557Y0029268D01*
X0008675Y0029373D01*
X0008796Y0029475D01*
X0008919Y0029575D01*
X0009045Y0029671D01*
X0009173Y0029764D01*
X0009303Y0029854D01*
X0009436Y0029940D01*
X0009571Y0030024D01*
X0009707Y0030103D01*
X0009846Y0030180D01*
X0009987Y0030252D01*
X0010129Y0030322D01*
X0010273Y0030387D01*
X0010419Y0030449D01*
X0010566Y0030507D01*
X0010715Y0030562D01*
X0010865Y0030613D01*
X0011016Y0030660D01*
X0011168Y0030703D01*
X0011321Y0030742D01*
X0011476Y0030778D01*
X0011631Y0030809D01*
X0011787Y0030837D01*
X0011943Y0030861D01*
X0012100Y0030881D01*
X0012258Y0030897D01*
X0012415Y0030909D01*
X0012574Y0030917D01*
X0012732Y0030921D01*
X0012890Y0030921D01*
X0013048Y0030917D01*
X0013207Y0030909D01*
X0013364Y0030897D01*
X0013522Y0030881D01*
X0013679Y0030861D01*
X0013835Y0030837D01*
X0013991Y0030809D01*
X0014146Y0030778D01*
X0014301Y0030742D01*
X0014454Y0030703D01*
X0014606Y0030660D01*
X0014757Y0030613D01*
X0014907Y0030562D01*
X0015056Y0030507D01*
X0015203Y0030449D01*
X0015349Y0030387D01*
X0015493Y0030322D01*
X0015635Y0030252D01*
X0015776Y0030180D01*
X0015915Y0030103D01*
X0016051Y0030024D01*
X0016186Y0029940D01*
X0016319Y0029854D01*
X0016449Y0029764D01*
X0016577Y0029671D01*
X0016703Y0029575D01*
X0016826Y0029475D01*
X0016947Y0029373D01*
X0017065Y0029268D01*
X0017180Y0029159D01*
X0017293Y0029048D01*
X0017403Y0028934D01*
X0017510Y0028817D01*
X0017614Y0028698D01*
X0017715Y0028576D01*
X0017812Y0028451D01*
X0017907Y0028324D01*
X0017998Y0028195D01*
X0018087Y0028064D01*
X0018171Y0027930D01*
X0018253Y0027794D01*
X0018331Y0027657D01*
X0018405Y0027517D01*
X0018476Y0027375D01*
X0018544Y0027232D01*
X0018608Y0027087D01*
X0018668Y0026941D01*
X0018724Y0026793D01*
X0018777Y0026644D01*
X0018826Y0026493D01*
X0018871Y0026341D01*
X0018912Y0026188D01*
X0018950Y0026035D01*
X0018983Y0025880D01*
X0019013Y0025724D01*
X0019039Y0025568D01*
X0019060Y0025411D01*
X0019078Y0025254D01*
X0019092Y0025096D01*
X0019102Y0024938D01*
X0019108Y0024780D01*
X0019110Y0024622D01*
X0019108Y0024464D01*
X0019102Y0024306D01*
X0019092Y0024148D01*
X0019078Y0023990D01*
X0019060Y0023833D01*
X0019039Y0023676D01*
X0019013Y0023520D01*
X0018983Y0023364D01*
X0018950Y0023209D01*
X0018912Y0023056D01*
X0018871Y0022903D01*
X0018826Y0022751D01*
X0018777Y0022600D01*
X0018724Y0022451D01*
X0018668Y0022303D01*
X0018608Y0022157D01*
X0018544Y0022012D01*
X0018476Y0021869D01*
X0018405Y0021727D01*
X0018331Y0021587D01*
X0018253Y0021450D01*
X0018171Y0021314D01*
X0018087Y0021180D01*
X0017998Y0021049D01*
X0017907Y0020920D01*
X0017812Y0020793D01*
X0017715Y0020668D01*
X0017614Y0020546D01*
X0017510Y0020427D01*
X0017403Y0020310D01*
X0017293Y0020196D01*
X0017180Y0020085D01*
X0017065Y0019976D01*
X0016947Y0019871D01*
X0016826Y0019769D01*
X0016703Y0019669D01*
X0016577Y0019573D01*
X0016449Y0019480D01*
X0016319Y0019390D01*
X0016186Y0019304D01*
X0016051Y0019220D01*
X0015915Y0019141D01*
X0015776Y0019064D01*
X0015635Y0018992D01*
X0015493Y0018922D01*
X0015349Y0018857D01*
X0015203Y0018795D01*
X0015056Y0018737D01*
X0014907Y0018682D01*
X0014757Y0018631D01*
X0014606Y0018584D01*
X0014454Y0018541D01*
X0014301Y0018502D01*
X0014146Y0018466D01*
X0013991Y0018435D01*
X0013835Y0018407D01*
X0013679Y0018383D01*
X0013522Y0018363D01*
X0013364Y0018347D01*
X0013207Y0018335D01*
X0013048Y0018327D01*
X0012890Y0018323D01*
X0012732Y0018323D01*
X0012574Y0018327D01*
X0012415Y0018335D01*
X0012258Y0018347D01*
X0012100Y0018363D01*
X0011943Y0018383D01*
X0011787Y0018407D01*
X0011631Y0018435D01*
X0011476Y0018466D01*
X0011321Y0018502D01*
X0011168Y0018541D01*
X0011016Y0018584D01*
X0010865Y0018631D01*
X0010715Y0018682D01*
X0010566Y0018737D01*
X0010419Y0018795D01*
X0010273Y0018857D01*
X0010129Y0018922D01*
X0009987Y0018992D01*
X0009846Y0019064D01*
X0009707Y0019141D01*
X0009571Y0019220D01*
X0009436Y0019304D01*
X0009303Y0019390D01*
X0009173Y0019480D01*
X0009045Y0019573D01*
X0008919Y0019669D01*
X0008796Y0019769D01*
X0008675Y0019871D01*
X0008557Y0019976D01*
X0008442Y0020085D01*
X0008329Y0020196D01*
X0008219Y0020310D01*
X0008112Y0020427D01*
X0008008Y0020546D01*
X0007907Y0020668D01*
X0007810Y0020793D01*
X0007715Y0020920D01*
X0007624Y0021049D01*
X0007535Y0021180D01*
X0007451Y0021314D01*
X0007369Y0021450D01*
X0007291Y0021587D01*
X0007217Y0021727D01*
X0007146Y0021869D01*
X0007078Y0022012D01*
X0007014Y0022157D01*
X0006954Y0022303D01*
X0006898Y0022451D01*
X0006845Y0022600D01*
X0006796Y0022751D01*
X0006751Y0022903D01*
X0006710Y0023056D01*
X0006672Y0023209D01*
X0006639Y0023364D01*
X0006609Y0023520D01*
X0006583Y0023676D01*
X0006562Y0023833D01*
X0006544Y0023990D01*
X0006530Y0024148D01*
X0006520Y0024306D01*
X0006514Y0024464D01*
X0006512Y0024622D01*
X0061630Y0024622D02*
X0061632Y0024780D01*
X0061638Y0024938D01*
X0061648Y0025096D01*
X0061662Y0025254D01*
X0061680Y0025411D01*
X0061701Y0025568D01*
X0061727Y0025724D01*
X0061757Y0025880D01*
X0061790Y0026035D01*
X0061828Y0026188D01*
X0061869Y0026341D01*
X0061914Y0026493D01*
X0061963Y0026644D01*
X0062016Y0026793D01*
X0062072Y0026941D01*
X0062132Y0027087D01*
X0062196Y0027232D01*
X0062264Y0027375D01*
X0062335Y0027517D01*
X0062409Y0027657D01*
X0062487Y0027794D01*
X0062569Y0027930D01*
X0062653Y0028064D01*
X0062742Y0028195D01*
X0062833Y0028324D01*
X0062928Y0028451D01*
X0063025Y0028576D01*
X0063126Y0028698D01*
X0063230Y0028817D01*
X0063337Y0028934D01*
X0063447Y0029048D01*
X0063560Y0029159D01*
X0063675Y0029268D01*
X0063793Y0029373D01*
X0063914Y0029475D01*
X0064037Y0029575D01*
X0064163Y0029671D01*
X0064291Y0029764D01*
X0064421Y0029854D01*
X0064554Y0029940D01*
X0064689Y0030024D01*
X0064825Y0030103D01*
X0064964Y0030180D01*
X0065105Y0030252D01*
X0065247Y0030322D01*
X0065391Y0030387D01*
X0065537Y0030449D01*
X0065684Y0030507D01*
X0065833Y0030562D01*
X0065983Y0030613D01*
X0066134Y0030660D01*
X0066286Y0030703D01*
X0066439Y0030742D01*
X0066594Y0030778D01*
X0066749Y0030809D01*
X0066905Y0030837D01*
X0067061Y0030861D01*
X0067218Y0030881D01*
X0067376Y0030897D01*
X0067533Y0030909D01*
X0067692Y0030917D01*
X0067850Y0030921D01*
X0068008Y0030921D01*
X0068166Y0030917D01*
X0068325Y0030909D01*
X0068482Y0030897D01*
X0068640Y0030881D01*
X0068797Y0030861D01*
X0068953Y0030837D01*
X0069109Y0030809D01*
X0069264Y0030778D01*
X0069419Y0030742D01*
X0069572Y0030703D01*
X0069724Y0030660D01*
X0069875Y0030613D01*
X0070025Y0030562D01*
X0070174Y0030507D01*
X0070321Y0030449D01*
X0070467Y0030387D01*
X0070611Y0030322D01*
X0070753Y0030252D01*
X0070894Y0030180D01*
X0071033Y0030103D01*
X0071169Y0030024D01*
X0071304Y0029940D01*
X0071437Y0029854D01*
X0071567Y0029764D01*
X0071695Y0029671D01*
X0071821Y0029575D01*
X0071944Y0029475D01*
X0072065Y0029373D01*
X0072183Y0029268D01*
X0072298Y0029159D01*
X0072411Y0029048D01*
X0072521Y0028934D01*
X0072628Y0028817D01*
X0072732Y0028698D01*
X0072833Y0028576D01*
X0072930Y0028451D01*
X0073025Y0028324D01*
X0073116Y0028195D01*
X0073205Y0028064D01*
X0073289Y0027930D01*
X0073371Y0027794D01*
X0073449Y0027657D01*
X0073523Y0027517D01*
X0073594Y0027375D01*
X0073662Y0027232D01*
X0073726Y0027087D01*
X0073786Y0026941D01*
X0073842Y0026793D01*
X0073895Y0026644D01*
X0073944Y0026493D01*
X0073989Y0026341D01*
X0074030Y0026188D01*
X0074068Y0026035D01*
X0074101Y0025880D01*
X0074131Y0025724D01*
X0074157Y0025568D01*
X0074178Y0025411D01*
X0074196Y0025254D01*
X0074210Y0025096D01*
X0074220Y0024938D01*
X0074226Y0024780D01*
X0074228Y0024622D01*
X0074226Y0024464D01*
X0074220Y0024306D01*
X0074210Y0024148D01*
X0074196Y0023990D01*
X0074178Y0023833D01*
X0074157Y0023676D01*
X0074131Y0023520D01*
X0074101Y0023364D01*
X0074068Y0023209D01*
X0074030Y0023056D01*
X0073989Y0022903D01*
X0073944Y0022751D01*
X0073895Y0022600D01*
X0073842Y0022451D01*
X0073786Y0022303D01*
X0073726Y0022157D01*
X0073662Y0022012D01*
X0073594Y0021869D01*
X0073523Y0021727D01*
X0073449Y0021587D01*
X0073371Y0021450D01*
X0073289Y0021314D01*
X0073205Y0021180D01*
X0073116Y0021049D01*
X0073025Y0020920D01*
X0072930Y0020793D01*
X0072833Y0020668D01*
X0072732Y0020546D01*
X0072628Y0020427D01*
X0072521Y0020310D01*
X0072411Y0020196D01*
X0072298Y0020085D01*
X0072183Y0019976D01*
X0072065Y0019871D01*
X0071944Y0019769D01*
X0071821Y0019669D01*
X0071695Y0019573D01*
X0071567Y0019480D01*
X0071437Y0019390D01*
X0071304Y0019304D01*
X0071169Y0019220D01*
X0071033Y0019141D01*
X0070894Y0019064D01*
X0070753Y0018992D01*
X0070611Y0018922D01*
X0070467Y0018857D01*
X0070321Y0018795D01*
X0070174Y0018737D01*
X0070025Y0018682D01*
X0069875Y0018631D01*
X0069724Y0018584D01*
X0069572Y0018541D01*
X0069419Y0018502D01*
X0069264Y0018466D01*
X0069109Y0018435D01*
X0068953Y0018407D01*
X0068797Y0018383D01*
X0068640Y0018363D01*
X0068482Y0018347D01*
X0068325Y0018335D01*
X0068166Y0018327D01*
X0068008Y0018323D01*
X0067850Y0018323D01*
X0067692Y0018327D01*
X0067533Y0018335D01*
X0067376Y0018347D01*
X0067218Y0018363D01*
X0067061Y0018383D01*
X0066905Y0018407D01*
X0066749Y0018435D01*
X0066594Y0018466D01*
X0066439Y0018502D01*
X0066286Y0018541D01*
X0066134Y0018584D01*
X0065983Y0018631D01*
X0065833Y0018682D01*
X0065684Y0018737D01*
X0065537Y0018795D01*
X0065391Y0018857D01*
X0065247Y0018922D01*
X0065105Y0018992D01*
X0064964Y0019064D01*
X0064825Y0019141D01*
X0064689Y0019220D01*
X0064554Y0019304D01*
X0064421Y0019390D01*
X0064291Y0019480D01*
X0064163Y0019573D01*
X0064037Y0019669D01*
X0063914Y0019769D01*
X0063793Y0019871D01*
X0063675Y0019976D01*
X0063560Y0020085D01*
X0063447Y0020196D01*
X0063337Y0020310D01*
X0063230Y0020427D01*
X0063126Y0020546D01*
X0063025Y0020668D01*
X0062928Y0020793D01*
X0062833Y0020920D01*
X0062742Y0021049D01*
X0062653Y0021180D01*
X0062569Y0021314D01*
X0062487Y0021450D01*
X0062409Y0021587D01*
X0062335Y0021727D01*
X0062264Y0021869D01*
X0062196Y0022012D01*
X0062132Y0022157D01*
X0062072Y0022303D01*
X0062016Y0022451D01*
X0061963Y0022600D01*
X0061914Y0022751D01*
X0061869Y0022903D01*
X0061828Y0023056D01*
X0061790Y0023209D01*
X0061757Y0023364D01*
X0061727Y0023520D01*
X0061701Y0023676D01*
X0061680Y0023833D01*
X0061662Y0023990D01*
X0061648Y0024148D01*
X0061638Y0024306D01*
X0061632Y0024464D01*
X0061630Y0024622D01*
D11*
X0050370Y0011374D02*
X0050370Y0006374D01*
X0047870Y0003874D01*
X0042870Y0003874D01*
X0040370Y0006374D01*
X0037870Y0003874D01*
X0032870Y0003874D01*
X0030370Y0006374D01*
X0030370Y0011374D01*
X0032870Y0013874D01*
X0037870Y0013874D01*
X0040370Y0011374D01*
X0042870Y0013874D01*
X0047870Y0013874D01*
X0050370Y0011374D01*
X0039370Y0060055D02*
X0039372Y0060118D01*
X0039378Y0060180D01*
X0039388Y0060242D01*
X0039401Y0060304D01*
X0039419Y0060364D01*
X0039440Y0060423D01*
X0039465Y0060481D01*
X0039494Y0060537D01*
X0039526Y0060591D01*
X0039561Y0060643D01*
X0039599Y0060692D01*
X0039641Y0060740D01*
X0039685Y0060784D01*
X0039733Y0060826D01*
X0039782Y0060864D01*
X0039834Y0060899D01*
X0039888Y0060931D01*
X0039944Y0060960D01*
X0040002Y0060985D01*
X0040061Y0061006D01*
X0040121Y0061024D01*
X0040183Y0061037D01*
X0040245Y0061047D01*
X0040307Y0061053D01*
X0040370Y0061055D01*
X0040433Y0061053D01*
X0040495Y0061047D01*
X0040557Y0061037D01*
X0040619Y0061024D01*
X0040679Y0061006D01*
X0040738Y0060985D01*
X0040796Y0060960D01*
X0040852Y0060931D01*
X0040906Y0060899D01*
X0040958Y0060864D01*
X0041007Y0060826D01*
X0041055Y0060784D01*
X0041099Y0060740D01*
X0041141Y0060692D01*
X0041179Y0060643D01*
X0041214Y0060591D01*
X0041246Y0060537D01*
X0041275Y0060481D01*
X0041300Y0060423D01*
X0041321Y0060364D01*
X0041339Y0060304D01*
X0041352Y0060242D01*
X0041362Y0060180D01*
X0041368Y0060118D01*
X0041370Y0060055D01*
X0041368Y0059992D01*
X0041362Y0059930D01*
X0041352Y0059868D01*
X0041339Y0059806D01*
X0041321Y0059746D01*
X0041300Y0059687D01*
X0041275Y0059629D01*
X0041246Y0059573D01*
X0041214Y0059519D01*
X0041179Y0059467D01*
X0041141Y0059418D01*
X0041099Y0059370D01*
X0041055Y0059326D01*
X0041007Y0059284D01*
X0040958Y0059246D01*
X0040906Y0059211D01*
X0040852Y0059179D01*
X0040796Y0059150D01*
X0040738Y0059125D01*
X0040679Y0059104D01*
X0040619Y0059086D01*
X0040557Y0059073D01*
X0040495Y0059063D01*
X0040433Y0059057D01*
X0040370Y0059055D01*
X0040307Y0059057D01*
X0040245Y0059063D01*
X0040183Y0059073D01*
X0040121Y0059086D01*
X0040061Y0059104D01*
X0040002Y0059125D01*
X0039944Y0059150D01*
X0039888Y0059179D01*
X0039834Y0059211D01*
X0039782Y0059246D01*
X0039733Y0059284D01*
X0039685Y0059326D01*
X0039641Y0059370D01*
X0039599Y0059418D01*
X0039561Y0059467D01*
X0039526Y0059519D01*
X0039494Y0059573D01*
X0039465Y0059629D01*
X0039440Y0059687D01*
X0039419Y0059746D01*
X0039401Y0059806D01*
X0039388Y0059868D01*
X0039378Y0059930D01*
X0039372Y0059992D01*
X0039370Y0060055D01*
X0027181Y0060055D02*
X0027185Y0060379D01*
X0027197Y0060702D01*
X0027217Y0061025D01*
X0027245Y0061348D01*
X0027280Y0061669D01*
X0027324Y0061990D01*
X0027375Y0062310D01*
X0027434Y0062628D01*
X0027501Y0062945D01*
X0027576Y0063260D01*
X0027659Y0063573D01*
X0027749Y0063884D01*
X0027847Y0064192D01*
X0027952Y0064498D01*
X0028065Y0064802D01*
X0028185Y0065102D01*
X0028312Y0065400D01*
X0028447Y0065694D01*
X0028589Y0065985D01*
X0028738Y0066272D01*
X0028894Y0066556D01*
X0029057Y0066836D01*
X0029227Y0067111D01*
X0029404Y0067382D01*
X0029587Y0067649D01*
X0029776Y0067912D01*
X0029972Y0068169D01*
X0030175Y0068422D01*
X0030383Y0068670D01*
X0030598Y0068912D01*
X0030818Y0069149D01*
X0031044Y0069381D01*
X0031276Y0069607D01*
X0031513Y0069827D01*
X0031755Y0070042D01*
X0032003Y0070250D01*
X0032256Y0070453D01*
X0032513Y0070649D01*
X0032776Y0070838D01*
X0033043Y0071021D01*
X0033314Y0071198D01*
X0033589Y0071368D01*
X0033869Y0071531D01*
X0034153Y0071687D01*
X0034440Y0071836D01*
X0034731Y0071978D01*
X0035025Y0072113D01*
X0035323Y0072240D01*
X0035623Y0072360D01*
X0035927Y0072473D01*
X0036233Y0072578D01*
X0036541Y0072676D01*
X0036852Y0072766D01*
X0037165Y0072849D01*
X0037480Y0072924D01*
X0037797Y0072991D01*
X0038115Y0073050D01*
X0038435Y0073101D01*
X0038756Y0073145D01*
X0039077Y0073180D01*
X0039400Y0073208D01*
X0039723Y0073228D01*
X0040046Y0073240D01*
X0040370Y0073244D01*
X0040694Y0073240D01*
X0041017Y0073228D01*
X0041340Y0073208D01*
X0041663Y0073180D01*
X0041984Y0073145D01*
X0042305Y0073101D01*
X0042625Y0073050D01*
X0042943Y0072991D01*
X0043260Y0072924D01*
X0043575Y0072849D01*
X0043888Y0072766D01*
X0044199Y0072676D01*
X0044507Y0072578D01*
X0044813Y0072473D01*
X0045117Y0072360D01*
X0045417Y0072240D01*
X0045715Y0072113D01*
X0046009Y0071978D01*
X0046300Y0071836D01*
X0046587Y0071687D01*
X0046871Y0071531D01*
X0047151Y0071368D01*
X0047426Y0071198D01*
X0047697Y0071021D01*
X0047964Y0070838D01*
X0048227Y0070649D01*
X0048484Y0070453D01*
X0048737Y0070250D01*
X0048985Y0070042D01*
X0049227Y0069827D01*
X0049464Y0069607D01*
X0049696Y0069381D01*
X0049922Y0069149D01*
X0050142Y0068912D01*
X0050357Y0068670D01*
X0050565Y0068422D01*
X0050768Y0068169D01*
X0050964Y0067912D01*
X0051153Y0067649D01*
X0051336Y0067382D01*
X0051513Y0067111D01*
X0051683Y0066836D01*
X0051846Y0066556D01*
X0052002Y0066272D01*
X0052151Y0065985D01*
X0052293Y0065694D01*
X0052428Y0065400D01*
X0052555Y0065102D01*
X0052675Y0064802D01*
X0052788Y0064498D01*
X0052893Y0064192D01*
X0052991Y0063884D01*
X0053081Y0063573D01*
X0053164Y0063260D01*
X0053239Y0062945D01*
X0053306Y0062628D01*
X0053365Y0062310D01*
X0053416Y0061990D01*
X0053460Y0061669D01*
X0053495Y0061348D01*
X0053523Y0061025D01*
X0053543Y0060702D01*
X0053555Y0060379D01*
X0053559Y0060055D01*
X0053555Y0059731D01*
X0053543Y0059408D01*
X0053523Y0059085D01*
X0053495Y0058762D01*
X0053460Y0058441D01*
X0053416Y0058120D01*
X0053365Y0057800D01*
X0053306Y0057482D01*
X0053239Y0057165D01*
X0053164Y0056850D01*
X0053081Y0056537D01*
X0052991Y0056226D01*
X0052893Y0055918D01*
X0052788Y0055612D01*
X0052675Y0055308D01*
X0052555Y0055008D01*
X0052428Y0054710D01*
X0052293Y0054416D01*
X0052151Y0054125D01*
X0052002Y0053838D01*
X0051846Y0053554D01*
X0051683Y0053274D01*
X0051513Y0052999D01*
X0051336Y0052728D01*
X0051153Y0052461D01*
X0050964Y0052198D01*
X0050768Y0051941D01*
X0050565Y0051688D01*
X0050357Y0051440D01*
X0050142Y0051198D01*
X0049922Y0050961D01*
X0049696Y0050729D01*
X0049464Y0050503D01*
X0049227Y0050283D01*
X0048985Y0050068D01*
X0048737Y0049860D01*
X0048484Y0049657D01*
X0048227Y0049461D01*
X0047964Y0049272D01*
X0047697Y0049089D01*
X0047426Y0048912D01*
X0047151Y0048742D01*
X0046871Y0048579D01*
X0046587Y0048423D01*
X0046300Y0048274D01*
X0046009Y0048132D01*
X0045715Y0047997D01*
X0045417Y0047870D01*
X0045117Y0047750D01*
X0044813Y0047637D01*
X0044507Y0047532D01*
X0044199Y0047434D01*
X0043888Y0047344D01*
X0043575Y0047261D01*
X0043260Y0047186D01*
X0042943Y0047119D01*
X0042625Y0047060D01*
X0042305Y0047009D01*
X0041984Y0046965D01*
X0041663Y0046930D01*
X0041340Y0046902D01*
X0041017Y0046882D01*
X0040694Y0046870D01*
X0040370Y0046866D01*
X0040046Y0046870D01*
X0039723Y0046882D01*
X0039400Y0046902D01*
X0039077Y0046930D01*
X0038756Y0046965D01*
X0038435Y0047009D01*
X0038115Y0047060D01*
X0037797Y0047119D01*
X0037480Y0047186D01*
X0037165Y0047261D01*
X0036852Y0047344D01*
X0036541Y0047434D01*
X0036233Y0047532D01*
X0035927Y0047637D01*
X0035623Y0047750D01*
X0035323Y0047870D01*
X0035025Y0047997D01*
X0034731Y0048132D01*
X0034440Y0048274D01*
X0034153Y0048423D01*
X0033869Y0048579D01*
X0033589Y0048742D01*
X0033314Y0048912D01*
X0033043Y0049089D01*
X0032776Y0049272D01*
X0032513Y0049461D01*
X0032256Y0049657D01*
X0032003Y0049860D01*
X0031755Y0050068D01*
X0031513Y0050283D01*
X0031276Y0050503D01*
X0031044Y0050729D01*
X0030818Y0050961D01*
X0030598Y0051198D01*
X0030383Y0051440D01*
X0030175Y0051688D01*
X0029972Y0051941D01*
X0029776Y0052198D01*
X0029587Y0052461D01*
X0029404Y0052728D01*
X0029227Y0052999D01*
X0029057Y0053274D01*
X0028894Y0053554D01*
X0028738Y0053838D01*
X0028589Y0054125D01*
X0028447Y0054416D01*
X0028312Y0054710D01*
X0028185Y0055008D01*
X0028065Y0055308D01*
X0027952Y0055612D01*
X0027847Y0055918D01*
X0027749Y0056226D01*
X0027659Y0056537D01*
X0027576Y0056850D01*
X0027501Y0057165D01*
X0027434Y0057482D01*
X0027375Y0057800D01*
X0027324Y0058120D01*
X0027280Y0058441D01*
X0027245Y0058762D01*
X0027217Y0059085D01*
X0027197Y0059408D01*
X0027185Y0059731D01*
X0027181Y0060055D01*
D12*
X0034365Y0089683D02*
X0034365Y0090905D01*
X0034365Y0089683D02*
X0033142Y0090722D01*
X0032164Y0090355D02*
X0032166Y0090303D01*
X0032172Y0090251D01*
X0032181Y0090199D01*
X0032195Y0090149D01*
X0032212Y0090099D01*
X0032233Y0090051D01*
X0032257Y0090005D01*
X0032284Y0089961D01*
X0032315Y0089918D01*
X0032349Y0089878D01*
X0032385Y0089841D01*
X0032425Y0089807D01*
X0032467Y0089775D01*
X0032510Y0089747D01*
X0032556Y0089722D01*
X0032604Y0089700D01*
X0032653Y0089682D01*
X0033143Y0090722D02*
X0033109Y0090755D01*
X0033072Y0090785D01*
X0033032Y0090813D01*
X0032991Y0090837D01*
X0032948Y0090857D01*
X0032903Y0090874D01*
X0032857Y0090888D01*
X0032810Y0090897D01*
X0032763Y0090903D01*
X0032715Y0090905D01*
X0032670Y0090903D01*
X0032624Y0090897D01*
X0032580Y0090888D01*
X0032536Y0090875D01*
X0032494Y0090859D01*
X0032453Y0090839D01*
X0032414Y0090815D01*
X0032377Y0090789D01*
X0032342Y0090760D01*
X0032310Y0090728D01*
X0032281Y0090693D01*
X0032255Y0090656D01*
X0032231Y0090617D01*
X0032211Y0090576D01*
X0032195Y0090534D01*
X0032182Y0090490D01*
X0032173Y0090446D01*
X0032167Y0090400D01*
X0032165Y0090355D01*
X0051850Y0090172D02*
X0053561Y0089683D01*
X0053561Y0090905D01*
X0053072Y0090538D02*
X0054050Y0090538D01*
X0052827Y0029392D02*
X0052827Y0028903D01*
X0052827Y0029392D02*
X0052825Y0029435D01*
X0052820Y0029477D01*
X0052810Y0029519D01*
X0052798Y0029559D01*
X0052781Y0029599D01*
X0052761Y0029637D01*
X0052739Y0029672D01*
X0052713Y0029706D01*
X0052684Y0029738D01*
X0052652Y0029767D01*
X0052618Y0029793D01*
X0052583Y0029815D01*
X0052545Y0029835D01*
X0052505Y0029852D01*
X0052465Y0029864D01*
X0052423Y0029874D01*
X0052381Y0029879D01*
X0052338Y0029881D01*
X0052295Y0029879D01*
X0052253Y0029874D01*
X0052211Y0029864D01*
X0052171Y0029852D01*
X0052131Y0029835D01*
X0052094Y0029815D01*
X0052058Y0029793D01*
X0052024Y0029767D01*
X0051992Y0029738D01*
X0051963Y0029706D01*
X0051937Y0029672D01*
X0051915Y0029637D01*
X0051895Y0029599D01*
X0051878Y0029559D01*
X0051866Y0029519D01*
X0051856Y0029477D01*
X0051851Y0029435D01*
X0051849Y0029392D01*
X0051850Y0029392D02*
X0051850Y0028659D01*
X0052827Y0029270D02*
X0052829Y0029318D01*
X0052835Y0029366D01*
X0052844Y0029413D01*
X0052857Y0029459D01*
X0052874Y0029504D01*
X0052894Y0029547D01*
X0052917Y0029589D01*
X0052944Y0029629D01*
X0052973Y0029667D01*
X0053006Y0029702D01*
X0053041Y0029735D01*
X0053079Y0029764D01*
X0053119Y0029791D01*
X0053161Y0029814D01*
X0053204Y0029834D01*
X0053249Y0029851D01*
X0053295Y0029864D01*
X0053342Y0029873D01*
X0053390Y0029879D01*
X0053438Y0029881D01*
X0053486Y0029879D01*
X0053534Y0029873D01*
X0053581Y0029864D01*
X0053627Y0029851D01*
X0053672Y0029834D01*
X0053715Y0029814D01*
X0053757Y0029791D01*
X0053797Y0029764D01*
X0053835Y0029735D01*
X0053870Y0029702D01*
X0053903Y0029667D01*
X0053932Y0029629D01*
X0053959Y0029589D01*
X0053982Y0029547D01*
X0054002Y0029504D01*
X0054019Y0029459D01*
X0054032Y0029413D01*
X0054041Y0029366D01*
X0054047Y0029318D01*
X0054049Y0029270D01*
X0054050Y0029270D02*
X0054050Y0028659D01*
X0034365Y0028659D02*
X0034365Y0029881D01*
X0034365Y0029270D02*
X0032165Y0029270D01*
X0032653Y0028659D01*
D13*
X0033120Y0020124D02*
X0033120Y0016874D01*
X0033118Y0016805D01*
X0033112Y0016736D01*
X0033103Y0016668D01*
X0033090Y0016601D01*
X0033073Y0016534D01*
X0033052Y0016468D01*
X0033028Y0016404D01*
X0033000Y0016341D01*
X0032969Y0016279D01*
X0032935Y0016219D01*
X0032897Y0016162D01*
X0032856Y0016106D01*
X0032813Y0016053D01*
X0032766Y0016002D01*
X0032717Y0015954D01*
X0032665Y0015909D01*
X0032610Y0015867D01*
X0032554Y0015828D01*
X0032495Y0015791D01*
X0032434Y0015759D01*
X0032372Y0015729D01*
X0032308Y0015703D01*
X0032243Y0015681D01*
X0032177Y0015662D01*
X0032110Y0015647D01*
X0032042Y0015636D01*
X0031973Y0015628D01*
X0031904Y0015624D01*
X0031836Y0015624D01*
X0031767Y0015628D01*
X0031698Y0015636D01*
X0031630Y0015647D01*
X0031563Y0015662D01*
X0031497Y0015681D01*
X0031432Y0015703D01*
X0031368Y0015729D01*
X0031306Y0015759D01*
X0031245Y0015791D01*
X0031186Y0015828D01*
X0031130Y0015867D01*
X0031075Y0015909D01*
X0031023Y0015954D01*
X0030974Y0016002D01*
X0030927Y0016053D01*
X0030884Y0016106D01*
X0030843Y0016162D01*
X0030805Y0016219D01*
X0030771Y0016279D01*
X0030740Y0016341D01*
X0030712Y0016404D01*
X0030688Y0016468D01*
X0030667Y0016534D01*
X0030650Y0016601D01*
X0030637Y0016668D01*
X0030628Y0016736D01*
X0030622Y0016805D01*
X0030620Y0016874D01*
X0030620Y0020124D01*
X0035595Y0018249D02*
X0036220Y0017874D01*
X0036845Y0017499D01*
X0037220Y0019375D02*
X0037147Y0019416D01*
X0037073Y0019455D01*
X0036996Y0019490D01*
X0036919Y0019522D01*
X0036840Y0019551D01*
X0036760Y0019577D01*
X0036679Y0019599D01*
X0036597Y0019617D01*
X0036514Y0019632D01*
X0036431Y0019644D01*
X0036347Y0019652D01*
X0036263Y0019656D01*
X0036179Y0019657D01*
X0036095Y0019654D01*
X0036011Y0019648D01*
X0035928Y0019638D01*
X0035845Y0019625D01*
X0036220Y0020124D02*
X0036220Y0015624D01*
X0036595Y0016124D02*
X0036647Y0016136D01*
X0036698Y0016151D01*
X0036748Y0016169D01*
X0036796Y0016191D01*
X0036843Y0016217D01*
X0036888Y0016246D01*
X0036930Y0016278D01*
X0036970Y0016313D01*
X0037008Y0016350D01*
X0037043Y0016390D01*
X0037075Y0016433D01*
X0037103Y0016478D01*
X0037129Y0016524D01*
X0037151Y0016573D01*
X0037170Y0016622D01*
X0037185Y0016673D01*
X0037196Y0016725D01*
X0037204Y0016778D01*
X0037207Y0016831D01*
X0037208Y0016884D01*
X0037204Y0016937D01*
X0037196Y0016990D01*
X0037185Y0017042D01*
X0037170Y0017093D01*
X0037152Y0017143D01*
X0037130Y0017191D01*
X0037105Y0017238D01*
X0037076Y0017283D01*
X0037044Y0017325D01*
X0037010Y0017366D01*
X0036972Y0017404D01*
X0036932Y0017439D01*
X0036890Y0017471D01*
X0036845Y0017500D01*
X0036595Y0016123D02*
X0036512Y0016110D01*
X0036429Y0016100D01*
X0036345Y0016094D01*
X0036261Y0016091D01*
X0036177Y0016092D01*
X0036093Y0016096D01*
X0036009Y0016104D01*
X0035926Y0016116D01*
X0035843Y0016131D01*
X0035761Y0016149D01*
X0035680Y0016171D01*
X0035600Y0016197D01*
X0035521Y0016226D01*
X0035444Y0016258D01*
X0035367Y0016293D01*
X0035293Y0016332D01*
X0035220Y0016373D01*
X0035595Y0018248D02*
X0035550Y0018277D01*
X0035508Y0018309D01*
X0035468Y0018344D01*
X0035430Y0018382D01*
X0035396Y0018423D01*
X0035364Y0018465D01*
X0035335Y0018510D01*
X0035310Y0018557D01*
X0035288Y0018605D01*
X0035270Y0018655D01*
X0035255Y0018706D01*
X0035244Y0018758D01*
X0035236Y0018811D01*
X0035232Y0018864D01*
X0035233Y0018917D01*
X0035236Y0018970D01*
X0035244Y0019023D01*
X0035255Y0019075D01*
X0035270Y0019126D01*
X0035289Y0019175D01*
X0035311Y0019224D01*
X0035337Y0019270D01*
X0035365Y0019315D01*
X0035397Y0019358D01*
X0035432Y0019398D01*
X0035470Y0019435D01*
X0035510Y0019470D01*
X0035552Y0019502D01*
X0035597Y0019531D01*
X0035644Y0019557D01*
X0035692Y0019579D01*
X0035742Y0019597D01*
X0035793Y0019612D01*
X0035845Y0019624D01*
X0039170Y0019124D02*
X0040420Y0020124D01*
X0040420Y0015624D01*
X0039170Y0015624D02*
X0041670Y0015624D01*
X0063992Y0036433D02*
X0063992Y0083677D01*
X0016748Y0083677D01*
X0016748Y0036433D01*
X0063992Y0036433D01*
X0060055Y0044307D02*
X0060055Y0075803D01*
X0056118Y0079740D02*
X0044307Y0079740D01*
X0036433Y0075803D01*
X0036433Y0079740D02*
X0024622Y0079740D01*
X0020685Y0075803D02*
X0020685Y0044307D01*
X0012561Y0053694D02*
X0009561Y0054694D01*
X0012561Y0055694D01*
X0008061Y0056694D01*
X0009061Y0058544D02*
X0008061Y0059794D01*
X0012561Y0059794D01*
X0012561Y0058544D02*
X0012561Y0061044D01*
X0012561Y0053694D02*
X0008061Y0052694D01*
X0009936Y0049119D02*
X0009903Y0049067D01*
X0009867Y0049016D01*
X0009828Y0048968D01*
X0009786Y0048923D01*
X0009741Y0048880D01*
X0009693Y0048840D01*
X0009644Y0048803D01*
X0009592Y0048769D01*
X0009538Y0048738D01*
X0009482Y0048710D01*
X0009425Y0048686D01*
X0009366Y0048666D01*
X0009307Y0048649D01*
X0009246Y0048636D01*
X0009185Y0048627D01*
X0009123Y0048621D01*
X0009061Y0048619D01*
X0009001Y0048621D01*
X0008940Y0048626D01*
X0008881Y0048635D01*
X0008822Y0048648D01*
X0008763Y0048664D01*
X0008706Y0048684D01*
X0008651Y0048707D01*
X0008596Y0048734D01*
X0008544Y0048763D01*
X0008493Y0048796D01*
X0008444Y0048832D01*
X0008398Y0048870D01*
X0008354Y0048912D01*
X0008312Y0048956D01*
X0008274Y0049002D01*
X0008238Y0049051D01*
X0008205Y0049102D01*
X0008176Y0049154D01*
X0008149Y0049209D01*
X0008126Y0049264D01*
X0008106Y0049321D01*
X0008090Y0049380D01*
X0008077Y0049439D01*
X0008068Y0049498D01*
X0008063Y0049559D01*
X0008061Y0049619D01*
X0008063Y0049699D01*
X0008068Y0049780D01*
X0008077Y0049860D01*
X0008089Y0049939D01*
X0008104Y0050018D01*
X0008123Y0050096D01*
X0008145Y0050174D01*
X0008170Y0050250D01*
X0008199Y0050325D01*
X0008231Y0050399D01*
X0008266Y0050471D01*
X0008304Y0050542D01*
X0008345Y0050611D01*
X0008389Y0050679D01*
X0008436Y0050744D01*
X0011937Y0048494D02*
X0011998Y0048557D01*
X0012056Y0048622D01*
X0012112Y0048690D01*
X0012165Y0048761D01*
X0012214Y0048833D01*
X0012261Y0048907D01*
X0012305Y0048983D01*
X0012345Y0049061D01*
X0012382Y0049141D01*
X0012416Y0049222D01*
X0012446Y0049304D01*
X0012473Y0049388D01*
X0012497Y0049473D01*
X0012517Y0049558D01*
X0012533Y0049644D01*
X0012546Y0049731D01*
X0012555Y0049819D01*
X0012560Y0049906D01*
X0012562Y0049994D01*
X0012561Y0049994D02*
X0012559Y0050054D01*
X0012554Y0050115D01*
X0012545Y0050174D01*
X0012532Y0050233D01*
X0012516Y0050292D01*
X0012496Y0050349D01*
X0012473Y0050404D01*
X0012446Y0050459D01*
X0012417Y0050511D01*
X0012384Y0050562D01*
X0012348Y0050611D01*
X0012310Y0050657D01*
X0012268Y0050701D01*
X0012224Y0050743D01*
X0012178Y0050781D01*
X0012129Y0050817D01*
X0012078Y0050850D01*
X0012026Y0050879D01*
X0011971Y0050906D01*
X0011916Y0050929D01*
X0011859Y0050949D01*
X0011800Y0050965D01*
X0011741Y0050978D01*
X0011682Y0050987D01*
X0011621Y0050992D01*
X0011561Y0050994D01*
X0010686Y0050494D02*
X0009936Y0049119D01*
X0010686Y0050494D02*
X0010719Y0050546D01*
X0010755Y0050597D01*
X0010794Y0050645D01*
X0010836Y0050690D01*
X0010881Y0050733D01*
X0010929Y0050773D01*
X0010978Y0050810D01*
X0011030Y0050844D01*
X0011084Y0050875D01*
X0011140Y0050903D01*
X0011197Y0050927D01*
X0011256Y0050947D01*
X0011315Y0050964D01*
X0011376Y0050977D01*
X0011437Y0050986D01*
X0011499Y0050992D01*
X0011561Y0050994D01*
D14*
X0024348Y0011174D02*
X0024348Y0006574D01*
X0023070Y0006574D02*
X0025626Y0006574D01*
X0023070Y0010152D02*
X0024348Y0011174D01*
X0053070Y0006574D02*
X0055626Y0006574D01*
X0053070Y0006574D02*
X0055242Y0009130D01*
X0054476Y0011174D02*
X0054402Y0011172D01*
X0054328Y0011167D01*
X0054254Y0011157D01*
X0054181Y0011144D01*
X0054108Y0011128D01*
X0054037Y0011107D01*
X0053967Y0011083D01*
X0053898Y0011056D01*
X0053830Y0011025D01*
X0053764Y0010991D01*
X0053700Y0010954D01*
X0053638Y0010913D01*
X0053578Y0010869D01*
X0053520Y0010823D01*
X0053464Y0010773D01*
X0053411Y0010721D01*
X0053361Y0010666D01*
X0053314Y0010609D01*
X0053270Y0010549D01*
X0053228Y0010487D01*
X0053190Y0010424D01*
X0053155Y0010358D01*
X0053124Y0010291D01*
X0053096Y0010222D01*
X0053071Y0010152D01*
X0055242Y0009130D02*
X0055289Y0009177D01*
X0055333Y0009227D01*
X0055375Y0009279D01*
X0055414Y0009333D01*
X0055449Y0009389D01*
X0055482Y0009447D01*
X0055512Y0009507D01*
X0055538Y0009568D01*
X0055561Y0009631D01*
X0055580Y0009695D01*
X0055596Y0009759D01*
X0055609Y0009825D01*
X0055618Y0009891D01*
X0055623Y0009957D01*
X0055625Y0010024D01*
X0055626Y0010024D02*
X0055624Y0010091D01*
X0055618Y0010158D01*
X0055609Y0010224D01*
X0055595Y0010289D01*
X0055578Y0010354D01*
X0055557Y0010417D01*
X0055532Y0010479D01*
X0055504Y0010540D01*
X0055472Y0010599D01*
X0055437Y0010656D01*
X0055398Y0010711D01*
X0055357Y0010763D01*
X0055312Y0010813D01*
X0055265Y0010860D01*
X0055215Y0010905D01*
X0055163Y0010946D01*
X0055108Y0010985D01*
X0055051Y0011020D01*
X0054992Y0011052D01*
X0054931Y0011080D01*
X0054869Y0011105D01*
X0054806Y0011126D01*
X0054741Y0011143D01*
X0054676Y0011157D01*
X0054610Y0011166D01*
X0054543Y0011172D01*
X0054476Y0011174D01*
M02*
