%
M48
M72
T01C0.01200
T02C0.01378
T03C0.02362
T04C0.03937
T05C0.08661
T06C0.12598
%
T01
X82239Y44707
X82239Y60455
X103893Y60455
X117673Y76203
X125547Y88014
X123578Y103762
X125547Y119510
X145232Y119510
X147200Y101794
X143263Y88014
X149169Y76203
X143263Y64392
X129484Y64392
X137358Y46676
X166885Y60455
X188539Y60455
X188539Y44707
X164917Y86046
X164917Y97857
X180665Y105731
X188539Y114589
X188539Y145101
X160980Y154943
X141295Y152975
X135389Y147069
X127318Y141951
X103893Y127384
X80271Y145101
X76334Y151006
X84208Y152975
X56649Y109668
X54680Y76203
X90113Y88014
X103893Y88014
X103893Y101794
X188539Y245494
X176728Y257306
X176728Y263211
X176728Y267148
X184602Y273054
X164917Y280928
X166885Y284865
X164917Y288802
X157043Y273054
X160980Y269117
X160980Y265180
X160980Y261243
X151137Y267148
X149169Y263211
X145232Y263211
X141295Y263211
X137358Y263211
X133421Y263211
X129484Y263211
X135389Y292739
X129484Y298644
X135389Y304550
X129484Y310455
X135389Y316361
X141295Y310455
X147200Y304550
X141295Y298644
X123578Y304550
X88145Y275022
X88145Y269117
X88145Y263211
X96019Y263211
X96019Y269117
X62554Y273054
X62554Y265180
X62554Y282896
X62554Y290770
X62554Y322266
X82239Y322266
X84208Y332109
X70428Y347857
X78302Y355731
X92082Y369510
X105861Y371479
X166885Y363605
X184602Y341951
X192476Y338014
X180665Y334077
X170822Y320298
X170822Y312424
X267279Y284865
X277121Y286833
X283373Y289148
X288932Y284865
X286964Y278959
X284995Y271085
X277121Y261243
X298775Y235652
X302712Y233683
X314523Y225809
X320337Y220839
X328302Y237620
X328302Y243526
X328302Y249431
X327200Y256439
X306649Y259274
X304798Y269038
X314523Y286833
X322948Y292463
X338145Y292739
X338557Y283172
X345468Y282857
X355861Y280928
X355861Y276991
X355861Y267148
X355861Y263211
X355861Y259274
X355861Y255337
X359798Y255337
X359798Y259274
X359798Y263211
X381452Y267148
X385389Y269117
X387358Y273054
X391295Y269117
X389326Y265180
X385389Y263211
X389326Y259274
X393263Y261243
X395232Y265180
X397200Y292739
X412948Y298644
X420822Y292739
X424759Y288802
X409011Y314392
X405074Y314392
X405271Y322069
X401137Y339983
X391295Y334077
X375398Y328320
X365704Y330140
X361334Y326046
X357830Y326203
X353893Y318329
X363381Y316321
X375437Y316361
X353893Y300613
X337948Y306124
X334208Y310455
X330271Y318329
X346019Y324235
X346019Y328172
X344050Y332109
X354287Y343959
X349956Y351794
X346019Y355731
X352909Y360652
X361688Y364746
X364798Y363880
X371610Y363762
X377869Y360613
X381452Y353762
X387358Y361636
X395232Y363605
X399169Y363605
X403106Y367542
X399169Y371479
X418854Y347857
X418854Y343920
X418854Y339983
X426728Y336046
X426728Y330140
X367673Y351754
X360783Y352857
X363066Y338369
X332239Y345888
X328302Y349825
X315980Y350180
X310586Y351794
X304050Y352424
X302712Y341951
X302712Y336046
X302712Y330140
X304680Y322266
X306649Y318329
X316098Y325888
X316491Y332109
X312554Y336046
X310586Y363605
X336176Y381321
X351924Y387227
X279090Y312424
X286295Y308487
X288932Y296676
T02
X332948Y294865
X335468Y283526
X166885Y351794
X160980Y355731
X157043Y359668
X149169Y359668
X122909Y339117
X111767Y389195
X76334Y245494
T03
X120389Y280050
X127889Y277550
X136389Y277050
X144889Y277550
X151889Y282050
X157389Y287050
X160889Y294050
X163389Y302050
X162389Y310550
X159889Y317050
X155389Y323050
X149389Y328550
X142889Y331550
X134889Y332050
X125889Y331050
X118889Y327050
X113389Y321550
X109389Y314550
X107389Y307550
X107389Y299550
X109889Y291550
X113889Y285550
T04
X69444Y51597
X69444Y69313
X95035Y69313
X95035Y51597
X95035Y114589
X95035Y132306
X69444Y132306
X69444Y114589
X175743Y114589
X175743Y132306
X201334Y132306
X201334Y114589
X201334Y69313
X201334Y51597
X175743Y51597
X175743Y69313
T05
X393292Y245326
X407211Y259245
T06
X426728Y304550
X347987Y170691
X214129Y91951
X56649Y91951
X56649Y304550
X64523Y336046
X214129Y304550
X269247Y304550
M30
