%
M48
M72
T01C0.01200
T02C0.01378
T03C0.02756
T04C0.03200
T05C0.03937
T06C0.04000
T07C0.12598
%
T01
X206130Y151000
X246130Y146000
X256130Y151000
X261130Y143500
X253630Y158500
X251130Y131000
X258630Y121000
X263630Y106000
X268630Y103500
X246130Y98500
X268630Y73500
X258630Y68500
X271130Y61000
X251130Y56000
X298630Y56000
X306130Y68500
X321130Y48500
X333630Y53500
X298630Y26000
X381130Y63500
X398630Y98500
X366130Y111000
X338630Y103500
X333630Y98500
X333630Y131000
X338630Y131000
X326130Y141000
X343630Y176000
X318630Y196000
X291130Y218500
X281130Y213500
X276130Y213500
X261130Y218500
X253630Y218500
X186130Y188500
X186130Y181000
X131130Y202000
X92130Y208500
X76130Y223500
X68630Y236000
X111130Y258500
X138630Y233500
X168630Y263500
X146130Y293500
X161130Y303500
X146130Y313500
X136130Y323500
X126130Y318500
X121130Y328500
X103630Y316000
X108630Y303500
X118630Y303500
X96130Y333500
X101130Y338500
X91130Y338500
X113630Y343500
X118630Y343500
X123630Y343500
X128630Y346000
X143630Y364000
X133630Y371000
X138630Y376000
X121130Y371000
X56130Y376000
X46130Y338500
X178630Y328500
X218630Y333500
X223630Y338500
X238630Y328500
X228630Y303500
X233630Y296000
X271130Y271000
X328630Y261000
X338630Y236000
X333630Y228500
X401130Y191000
X403630Y153500
X398630Y148500
X441130Y126000
X458630Y136000
X468630Y151000
X463630Y158500
X481130Y148500
X496130Y146000
X486130Y116000
X438630Y83500
X543630Y143500
X556130Y131000
X473630Y186000
X458630Y176000
X493630Y191000
X426130Y233500
X436130Y238500
X436130Y263500
X436130Y268500
X418630Y286000
X436130Y288500
X483630Y293500
X508630Y311000
X523630Y288500
X493630Y248500
X483630Y248500
X543630Y246000
X448630Y328500
X493630Y336000
X366130Y276000
X348630Y291000
X343630Y326000
X361130Y331000
T02
X362630Y286000
X276630Y227000
X255630Y230000
X295630Y206000
X246130Y183500
X180630Y195000
X180630Y199000
X165630Y224000
X156630Y224000
X101630Y204000
X95630Y230000
X72630Y237000
X64630Y256000
X59630Y272000
X62630Y287000
X85630Y308000
X99630Y295000
X99630Y287000
X99630Y269000
X122130Y268500
X155630Y294000
X163630Y263500
X201630Y286000
X92630Y344000
X90630Y352000
X82630Y344000
X78630Y341000
X75630Y334000
X71630Y327000
X68630Y324000
X61630Y321000
X88491Y330000
X68630Y339000
X72630Y352000
X69630Y356000
X62630Y352000
X59630Y356000
X48630Y361000
X50630Y343000
X78630Y361000
X99630Y367000
X201630Y367000
T03
X251937Y351000
X261937Y351000
X271937Y351000
X281937Y351000
X291937Y351000
X301937Y351000
X311937Y351000
X321937Y351000
X362685Y351000
X372685Y351000
X382685Y351000
X392685Y351000
X402685Y351000
X412685Y351000
X422685Y351000
X432685Y351000
X432685Y321000
X422685Y321000
X412685Y321000
X402685Y321000
X392685Y321000
X382685Y321000
X372685Y321000
X362685Y321000
X321937Y321000
X311937Y321000
X301937Y321000
X291937Y321000
X281937Y321000
X271937Y321000
X261937Y321000
X251937Y321000
X477370Y321000
X487370Y321000
X497370Y321000
X507370Y321000
X517370Y321000
X527370Y321000
X537370Y321000
X547370Y321000
X547370Y351000
X537370Y351000
X527370Y351000
X517370Y351000
X507370Y351000
X497370Y351000
X487370Y351000
X477370Y351000
T04
X185874Y281315
X175874Y281315
X165874Y281315
X155874Y281315
X145874Y281315
X135874Y281315
X125874Y281315
X115874Y281315
X115874Y251315
X125874Y251315
X135874Y251315
X145874Y251315
X155874Y251315
X165874Y251315
X175874Y251315
X185874Y251315
T05
X230283Y256906
X240283Y256906
X250283Y256906
X260283Y256906
X270283Y256906
X280283Y256906
X290283Y256906
X300283Y256906
X310283Y256906
X320283Y256906
X320283Y245094
X310283Y245094
X300283Y245094
X290283Y245094
X280283Y245094
X270283Y245094
X260283Y245094
X250283Y245094
X240283Y245094
X230283Y245094
X264969Y175291
X274969Y175291
X284969Y175291
X294969Y175291
X304969Y175291
X314969Y175291
X324969Y175291
X324969Y165291
X314969Y165291
X304969Y165291
X294969Y165291
X284969Y165291
X274969Y165291
X264969Y165291
X264969Y135921
X274969Y135921
X284969Y135921
X294969Y135921
X304969Y135921
X314969Y135921
X324969Y135921
X324969Y125921
X314969Y125921
X304969Y125921
X294969Y125921
X284969Y125921
X274969Y125921
X264969Y125921
X264969Y92614
X274969Y92614
X284969Y92614
X294969Y92614
X304969Y92614
X314969Y92614
X324969Y92614
X324969Y82614
X314969Y82614
X304969Y82614
X294969Y82614
X284969Y82614
X274969Y82614
X264969Y82614
X264969Y45370
X274969Y45370
X284969Y45370
X294969Y45370
X304969Y45370
X314969Y45370
X324969Y45370
X324969Y35370
X314969Y35370
X304969Y35370
X294969Y35370
X284969Y35370
X274969Y35370
X264969Y35370
X371268Y35370
X381268Y35370
X391268Y35370
X401268Y35370
X411268Y35370
X421268Y35370
X431268Y35370
X431268Y45370
X421268Y45370
X411268Y45370
X401268Y45370
X391268Y45370
X381268Y45370
X371268Y45370
X371268Y78677
X381268Y78677
X391268Y78677
X401268Y78677
X411268Y78677
X421268Y78677
X431268Y78677
X431268Y88677
X421268Y88677
X411268Y88677
X401268Y88677
X391268Y88677
X381268Y88677
X371268Y88677
X371268Y125921
X381268Y125921
X391268Y125921
X401268Y125921
X411268Y125921
X421268Y125921
X431268Y125921
X431268Y135921
X421268Y135921
X411268Y135921
X401268Y135921
X391268Y135921
X381268Y135921
X371268Y135921
X371268Y165291
X381268Y165291
X391268Y165291
X401268Y165291
X411268Y165291
X421268Y165291
X431268Y165291
X431268Y175291
X421268Y175291
X411268Y175291
X401268Y175291
X391268Y175291
X381268Y175291
X371268Y175291
X362961Y245094
X352961Y245094
X352961Y264780
X362961Y264780
X392331Y245094
X402331Y245094
X458630Y247969
X468630Y247969
X468630Y257969
X458630Y257969
X478630Y257969
X488630Y257969
X498630Y257969
X508630Y257969
X518630Y257969
X528630Y257969
X538630Y257969
X548630Y257969
X548630Y247969
X538630Y247969
X528630Y247969
X518630Y247969
X508630Y247969
X498630Y247969
X488630Y247969
X478630Y247969
X477567Y175291
X487567Y175291
X497567Y175291
X507567Y175291
X517567Y175291
X527567Y175291
X537567Y175291
X537567Y165291
X527567Y165291
X517567Y165291
X507567Y165291
X497567Y165291
X487567Y165291
X477567Y165291
X477567Y135921
X487567Y135921
X497567Y135921
X507567Y135921
X517567Y135921
X527567Y135921
X537567Y135921
X537567Y125921
X527567Y125921
X517567Y125921
X507567Y125921
X497567Y125921
X487567Y125921
X477567Y125921
X55205Y245094
X31189Y245094
X43000Y226197
T06
X37606Y290961
X17606Y290961
X18052Y338931
X35852Y338931
X35852Y364531
X18052Y364531
T07
X15441Y12811
X15441Y382890
X582370Y382890
X582370Y12811
M30
