G75*
%MOIN*%
%OFA0B0*%
%FSLAX25Y25*%
%IPPOS*%
%LPD*%
%AMOC8*
5,1,8,0,0,1.08239X$1,22.5*
%
%ADD10C,0.00000*%
%ADD11C,0.12998*%
%ADD12C,0.05600*%
%ADD13R,0.05156X0.05156*%
%ADD14C,0.05156*%
%ADD15C,0.10400*%
%ADD16OC8,0.10400*%
%ADD17C,0.07000*%
%ADD18C,0.08274*%
%ADD19C,0.06337*%
%ADD20OC8,0.06337*%
D10*
X0003630Y0001000D02*
X0003630Y0394701D01*
X0594181Y0394701D01*
X0594181Y0001000D01*
X0003630Y0001000D01*
X0009142Y0012811D02*
X0009144Y0012969D01*
X0009150Y0013127D01*
X0009160Y0013285D01*
X0009174Y0013443D01*
X0009192Y0013600D01*
X0009213Y0013757D01*
X0009239Y0013913D01*
X0009269Y0014069D01*
X0009302Y0014224D01*
X0009340Y0014377D01*
X0009381Y0014530D01*
X0009426Y0014682D01*
X0009475Y0014833D01*
X0009528Y0014982D01*
X0009584Y0015130D01*
X0009644Y0015276D01*
X0009708Y0015421D01*
X0009776Y0015564D01*
X0009847Y0015706D01*
X0009921Y0015846D01*
X0009999Y0015983D01*
X0010081Y0016119D01*
X0010165Y0016253D01*
X0010254Y0016384D01*
X0010345Y0016513D01*
X0010440Y0016640D01*
X0010537Y0016765D01*
X0010638Y0016887D01*
X0010742Y0017006D01*
X0010849Y0017123D01*
X0010959Y0017237D01*
X0011072Y0017348D01*
X0011187Y0017457D01*
X0011305Y0017562D01*
X0011426Y0017664D01*
X0011549Y0017764D01*
X0011675Y0017860D01*
X0011803Y0017953D01*
X0011933Y0018043D01*
X0012066Y0018129D01*
X0012201Y0018213D01*
X0012337Y0018292D01*
X0012476Y0018369D01*
X0012617Y0018441D01*
X0012759Y0018511D01*
X0012903Y0018576D01*
X0013049Y0018638D01*
X0013196Y0018696D01*
X0013345Y0018751D01*
X0013495Y0018802D01*
X0013646Y0018849D01*
X0013798Y0018892D01*
X0013951Y0018931D01*
X0014106Y0018967D01*
X0014261Y0018998D01*
X0014417Y0019026D01*
X0014573Y0019050D01*
X0014730Y0019070D01*
X0014888Y0019086D01*
X0015045Y0019098D01*
X0015204Y0019106D01*
X0015362Y0019110D01*
X0015520Y0019110D01*
X0015678Y0019106D01*
X0015837Y0019098D01*
X0015994Y0019086D01*
X0016152Y0019070D01*
X0016309Y0019050D01*
X0016465Y0019026D01*
X0016621Y0018998D01*
X0016776Y0018967D01*
X0016931Y0018931D01*
X0017084Y0018892D01*
X0017236Y0018849D01*
X0017387Y0018802D01*
X0017537Y0018751D01*
X0017686Y0018696D01*
X0017833Y0018638D01*
X0017979Y0018576D01*
X0018123Y0018511D01*
X0018265Y0018441D01*
X0018406Y0018369D01*
X0018545Y0018292D01*
X0018681Y0018213D01*
X0018816Y0018129D01*
X0018949Y0018043D01*
X0019079Y0017953D01*
X0019207Y0017860D01*
X0019333Y0017764D01*
X0019456Y0017664D01*
X0019577Y0017562D01*
X0019695Y0017457D01*
X0019810Y0017348D01*
X0019923Y0017237D01*
X0020033Y0017123D01*
X0020140Y0017006D01*
X0020244Y0016887D01*
X0020345Y0016765D01*
X0020442Y0016640D01*
X0020537Y0016513D01*
X0020628Y0016384D01*
X0020717Y0016253D01*
X0020801Y0016119D01*
X0020883Y0015983D01*
X0020961Y0015846D01*
X0021035Y0015706D01*
X0021106Y0015564D01*
X0021174Y0015421D01*
X0021238Y0015276D01*
X0021298Y0015130D01*
X0021354Y0014982D01*
X0021407Y0014833D01*
X0021456Y0014682D01*
X0021501Y0014530D01*
X0021542Y0014377D01*
X0021580Y0014224D01*
X0021613Y0014069D01*
X0021643Y0013913D01*
X0021669Y0013757D01*
X0021690Y0013600D01*
X0021708Y0013443D01*
X0021722Y0013285D01*
X0021732Y0013127D01*
X0021738Y0012969D01*
X0021740Y0012811D01*
X0021738Y0012653D01*
X0021732Y0012495D01*
X0021722Y0012337D01*
X0021708Y0012179D01*
X0021690Y0012022D01*
X0021669Y0011865D01*
X0021643Y0011709D01*
X0021613Y0011553D01*
X0021580Y0011398D01*
X0021542Y0011245D01*
X0021501Y0011092D01*
X0021456Y0010940D01*
X0021407Y0010789D01*
X0021354Y0010640D01*
X0021298Y0010492D01*
X0021238Y0010346D01*
X0021174Y0010201D01*
X0021106Y0010058D01*
X0021035Y0009916D01*
X0020961Y0009776D01*
X0020883Y0009639D01*
X0020801Y0009503D01*
X0020717Y0009369D01*
X0020628Y0009238D01*
X0020537Y0009109D01*
X0020442Y0008982D01*
X0020345Y0008857D01*
X0020244Y0008735D01*
X0020140Y0008616D01*
X0020033Y0008499D01*
X0019923Y0008385D01*
X0019810Y0008274D01*
X0019695Y0008165D01*
X0019577Y0008060D01*
X0019456Y0007958D01*
X0019333Y0007858D01*
X0019207Y0007762D01*
X0019079Y0007669D01*
X0018949Y0007579D01*
X0018816Y0007493D01*
X0018681Y0007409D01*
X0018545Y0007330D01*
X0018406Y0007253D01*
X0018265Y0007181D01*
X0018123Y0007111D01*
X0017979Y0007046D01*
X0017833Y0006984D01*
X0017686Y0006926D01*
X0017537Y0006871D01*
X0017387Y0006820D01*
X0017236Y0006773D01*
X0017084Y0006730D01*
X0016931Y0006691D01*
X0016776Y0006655D01*
X0016621Y0006624D01*
X0016465Y0006596D01*
X0016309Y0006572D01*
X0016152Y0006552D01*
X0015994Y0006536D01*
X0015837Y0006524D01*
X0015678Y0006516D01*
X0015520Y0006512D01*
X0015362Y0006512D01*
X0015204Y0006516D01*
X0015045Y0006524D01*
X0014888Y0006536D01*
X0014730Y0006552D01*
X0014573Y0006572D01*
X0014417Y0006596D01*
X0014261Y0006624D01*
X0014106Y0006655D01*
X0013951Y0006691D01*
X0013798Y0006730D01*
X0013646Y0006773D01*
X0013495Y0006820D01*
X0013345Y0006871D01*
X0013196Y0006926D01*
X0013049Y0006984D01*
X0012903Y0007046D01*
X0012759Y0007111D01*
X0012617Y0007181D01*
X0012476Y0007253D01*
X0012337Y0007330D01*
X0012201Y0007409D01*
X0012066Y0007493D01*
X0011933Y0007579D01*
X0011803Y0007669D01*
X0011675Y0007762D01*
X0011549Y0007858D01*
X0011426Y0007958D01*
X0011305Y0008060D01*
X0011187Y0008165D01*
X0011072Y0008274D01*
X0010959Y0008385D01*
X0010849Y0008499D01*
X0010742Y0008616D01*
X0010638Y0008735D01*
X0010537Y0008857D01*
X0010440Y0008982D01*
X0010345Y0009109D01*
X0010254Y0009238D01*
X0010165Y0009369D01*
X0010081Y0009503D01*
X0009999Y0009639D01*
X0009921Y0009776D01*
X0009847Y0009916D01*
X0009776Y0010058D01*
X0009708Y0010201D01*
X0009644Y0010346D01*
X0009584Y0010492D01*
X0009528Y0010640D01*
X0009475Y0010789D01*
X0009426Y0010940D01*
X0009381Y0011092D01*
X0009340Y0011245D01*
X0009302Y0011398D01*
X0009269Y0011553D01*
X0009239Y0011709D01*
X0009213Y0011865D01*
X0009192Y0012022D01*
X0009174Y0012179D01*
X0009160Y0012337D01*
X0009150Y0012495D01*
X0009144Y0012653D01*
X0009142Y0012811D01*
X0009142Y0382890D02*
X0009144Y0383048D01*
X0009150Y0383206D01*
X0009160Y0383364D01*
X0009174Y0383522D01*
X0009192Y0383679D01*
X0009213Y0383836D01*
X0009239Y0383992D01*
X0009269Y0384148D01*
X0009302Y0384303D01*
X0009340Y0384456D01*
X0009381Y0384609D01*
X0009426Y0384761D01*
X0009475Y0384912D01*
X0009528Y0385061D01*
X0009584Y0385209D01*
X0009644Y0385355D01*
X0009708Y0385500D01*
X0009776Y0385643D01*
X0009847Y0385785D01*
X0009921Y0385925D01*
X0009999Y0386062D01*
X0010081Y0386198D01*
X0010165Y0386332D01*
X0010254Y0386463D01*
X0010345Y0386592D01*
X0010440Y0386719D01*
X0010537Y0386844D01*
X0010638Y0386966D01*
X0010742Y0387085D01*
X0010849Y0387202D01*
X0010959Y0387316D01*
X0011072Y0387427D01*
X0011187Y0387536D01*
X0011305Y0387641D01*
X0011426Y0387743D01*
X0011549Y0387843D01*
X0011675Y0387939D01*
X0011803Y0388032D01*
X0011933Y0388122D01*
X0012066Y0388208D01*
X0012201Y0388292D01*
X0012337Y0388371D01*
X0012476Y0388448D01*
X0012617Y0388520D01*
X0012759Y0388590D01*
X0012903Y0388655D01*
X0013049Y0388717D01*
X0013196Y0388775D01*
X0013345Y0388830D01*
X0013495Y0388881D01*
X0013646Y0388928D01*
X0013798Y0388971D01*
X0013951Y0389010D01*
X0014106Y0389046D01*
X0014261Y0389077D01*
X0014417Y0389105D01*
X0014573Y0389129D01*
X0014730Y0389149D01*
X0014888Y0389165D01*
X0015045Y0389177D01*
X0015204Y0389185D01*
X0015362Y0389189D01*
X0015520Y0389189D01*
X0015678Y0389185D01*
X0015837Y0389177D01*
X0015994Y0389165D01*
X0016152Y0389149D01*
X0016309Y0389129D01*
X0016465Y0389105D01*
X0016621Y0389077D01*
X0016776Y0389046D01*
X0016931Y0389010D01*
X0017084Y0388971D01*
X0017236Y0388928D01*
X0017387Y0388881D01*
X0017537Y0388830D01*
X0017686Y0388775D01*
X0017833Y0388717D01*
X0017979Y0388655D01*
X0018123Y0388590D01*
X0018265Y0388520D01*
X0018406Y0388448D01*
X0018545Y0388371D01*
X0018681Y0388292D01*
X0018816Y0388208D01*
X0018949Y0388122D01*
X0019079Y0388032D01*
X0019207Y0387939D01*
X0019333Y0387843D01*
X0019456Y0387743D01*
X0019577Y0387641D01*
X0019695Y0387536D01*
X0019810Y0387427D01*
X0019923Y0387316D01*
X0020033Y0387202D01*
X0020140Y0387085D01*
X0020244Y0386966D01*
X0020345Y0386844D01*
X0020442Y0386719D01*
X0020537Y0386592D01*
X0020628Y0386463D01*
X0020717Y0386332D01*
X0020801Y0386198D01*
X0020883Y0386062D01*
X0020961Y0385925D01*
X0021035Y0385785D01*
X0021106Y0385643D01*
X0021174Y0385500D01*
X0021238Y0385355D01*
X0021298Y0385209D01*
X0021354Y0385061D01*
X0021407Y0384912D01*
X0021456Y0384761D01*
X0021501Y0384609D01*
X0021542Y0384456D01*
X0021580Y0384303D01*
X0021613Y0384148D01*
X0021643Y0383992D01*
X0021669Y0383836D01*
X0021690Y0383679D01*
X0021708Y0383522D01*
X0021722Y0383364D01*
X0021732Y0383206D01*
X0021738Y0383048D01*
X0021740Y0382890D01*
X0021738Y0382732D01*
X0021732Y0382574D01*
X0021722Y0382416D01*
X0021708Y0382258D01*
X0021690Y0382101D01*
X0021669Y0381944D01*
X0021643Y0381788D01*
X0021613Y0381632D01*
X0021580Y0381477D01*
X0021542Y0381324D01*
X0021501Y0381171D01*
X0021456Y0381019D01*
X0021407Y0380868D01*
X0021354Y0380719D01*
X0021298Y0380571D01*
X0021238Y0380425D01*
X0021174Y0380280D01*
X0021106Y0380137D01*
X0021035Y0379995D01*
X0020961Y0379855D01*
X0020883Y0379718D01*
X0020801Y0379582D01*
X0020717Y0379448D01*
X0020628Y0379317D01*
X0020537Y0379188D01*
X0020442Y0379061D01*
X0020345Y0378936D01*
X0020244Y0378814D01*
X0020140Y0378695D01*
X0020033Y0378578D01*
X0019923Y0378464D01*
X0019810Y0378353D01*
X0019695Y0378244D01*
X0019577Y0378139D01*
X0019456Y0378037D01*
X0019333Y0377937D01*
X0019207Y0377841D01*
X0019079Y0377748D01*
X0018949Y0377658D01*
X0018816Y0377572D01*
X0018681Y0377488D01*
X0018545Y0377409D01*
X0018406Y0377332D01*
X0018265Y0377260D01*
X0018123Y0377190D01*
X0017979Y0377125D01*
X0017833Y0377063D01*
X0017686Y0377005D01*
X0017537Y0376950D01*
X0017387Y0376899D01*
X0017236Y0376852D01*
X0017084Y0376809D01*
X0016931Y0376770D01*
X0016776Y0376734D01*
X0016621Y0376703D01*
X0016465Y0376675D01*
X0016309Y0376651D01*
X0016152Y0376631D01*
X0015994Y0376615D01*
X0015837Y0376603D01*
X0015678Y0376595D01*
X0015520Y0376591D01*
X0015362Y0376591D01*
X0015204Y0376595D01*
X0015045Y0376603D01*
X0014888Y0376615D01*
X0014730Y0376631D01*
X0014573Y0376651D01*
X0014417Y0376675D01*
X0014261Y0376703D01*
X0014106Y0376734D01*
X0013951Y0376770D01*
X0013798Y0376809D01*
X0013646Y0376852D01*
X0013495Y0376899D01*
X0013345Y0376950D01*
X0013196Y0377005D01*
X0013049Y0377063D01*
X0012903Y0377125D01*
X0012759Y0377190D01*
X0012617Y0377260D01*
X0012476Y0377332D01*
X0012337Y0377409D01*
X0012201Y0377488D01*
X0012066Y0377572D01*
X0011933Y0377658D01*
X0011803Y0377748D01*
X0011675Y0377841D01*
X0011549Y0377937D01*
X0011426Y0378037D01*
X0011305Y0378139D01*
X0011187Y0378244D01*
X0011072Y0378353D01*
X0010959Y0378464D01*
X0010849Y0378578D01*
X0010742Y0378695D01*
X0010638Y0378814D01*
X0010537Y0378936D01*
X0010440Y0379061D01*
X0010345Y0379188D01*
X0010254Y0379317D01*
X0010165Y0379448D01*
X0010081Y0379582D01*
X0009999Y0379718D01*
X0009921Y0379855D01*
X0009847Y0379995D01*
X0009776Y0380137D01*
X0009708Y0380280D01*
X0009644Y0380425D01*
X0009584Y0380571D01*
X0009528Y0380719D01*
X0009475Y0380868D01*
X0009426Y0381019D01*
X0009381Y0381171D01*
X0009340Y0381324D01*
X0009302Y0381477D01*
X0009269Y0381632D01*
X0009239Y0381788D01*
X0009213Y0381944D01*
X0009192Y0382101D01*
X0009174Y0382258D01*
X0009160Y0382416D01*
X0009150Y0382574D01*
X0009144Y0382732D01*
X0009142Y0382890D01*
X0576071Y0382890D02*
X0576073Y0383048D01*
X0576079Y0383206D01*
X0576089Y0383364D01*
X0576103Y0383522D01*
X0576121Y0383679D01*
X0576142Y0383836D01*
X0576168Y0383992D01*
X0576198Y0384148D01*
X0576231Y0384303D01*
X0576269Y0384456D01*
X0576310Y0384609D01*
X0576355Y0384761D01*
X0576404Y0384912D01*
X0576457Y0385061D01*
X0576513Y0385209D01*
X0576573Y0385355D01*
X0576637Y0385500D01*
X0576705Y0385643D01*
X0576776Y0385785D01*
X0576850Y0385925D01*
X0576928Y0386062D01*
X0577010Y0386198D01*
X0577094Y0386332D01*
X0577183Y0386463D01*
X0577274Y0386592D01*
X0577369Y0386719D01*
X0577466Y0386844D01*
X0577567Y0386966D01*
X0577671Y0387085D01*
X0577778Y0387202D01*
X0577888Y0387316D01*
X0578001Y0387427D01*
X0578116Y0387536D01*
X0578234Y0387641D01*
X0578355Y0387743D01*
X0578478Y0387843D01*
X0578604Y0387939D01*
X0578732Y0388032D01*
X0578862Y0388122D01*
X0578995Y0388208D01*
X0579130Y0388292D01*
X0579266Y0388371D01*
X0579405Y0388448D01*
X0579546Y0388520D01*
X0579688Y0388590D01*
X0579832Y0388655D01*
X0579978Y0388717D01*
X0580125Y0388775D01*
X0580274Y0388830D01*
X0580424Y0388881D01*
X0580575Y0388928D01*
X0580727Y0388971D01*
X0580880Y0389010D01*
X0581035Y0389046D01*
X0581190Y0389077D01*
X0581346Y0389105D01*
X0581502Y0389129D01*
X0581659Y0389149D01*
X0581817Y0389165D01*
X0581974Y0389177D01*
X0582133Y0389185D01*
X0582291Y0389189D01*
X0582449Y0389189D01*
X0582607Y0389185D01*
X0582766Y0389177D01*
X0582923Y0389165D01*
X0583081Y0389149D01*
X0583238Y0389129D01*
X0583394Y0389105D01*
X0583550Y0389077D01*
X0583705Y0389046D01*
X0583860Y0389010D01*
X0584013Y0388971D01*
X0584165Y0388928D01*
X0584316Y0388881D01*
X0584466Y0388830D01*
X0584615Y0388775D01*
X0584762Y0388717D01*
X0584908Y0388655D01*
X0585052Y0388590D01*
X0585194Y0388520D01*
X0585335Y0388448D01*
X0585474Y0388371D01*
X0585610Y0388292D01*
X0585745Y0388208D01*
X0585878Y0388122D01*
X0586008Y0388032D01*
X0586136Y0387939D01*
X0586262Y0387843D01*
X0586385Y0387743D01*
X0586506Y0387641D01*
X0586624Y0387536D01*
X0586739Y0387427D01*
X0586852Y0387316D01*
X0586962Y0387202D01*
X0587069Y0387085D01*
X0587173Y0386966D01*
X0587274Y0386844D01*
X0587371Y0386719D01*
X0587466Y0386592D01*
X0587557Y0386463D01*
X0587646Y0386332D01*
X0587730Y0386198D01*
X0587812Y0386062D01*
X0587890Y0385925D01*
X0587964Y0385785D01*
X0588035Y0385643D01*
X0588103Y0385500D01*
X0588167Y0385355D01*
X0588227Y0385209D01*
X0588283Y0385061D01*
X0588336Y0384912D01*
X0588385Y0384761D01*
X0588430Y0384609D01*
X0588471Y0384456D01*
X0588509Y0384303D01*
X0588542Y0384148D01*
X0588572Y0383992D01*
X0588598Y0383836D01*
X0588619Y0383679D01*
X0588637Y0383522D01*
X0588651Y0383364D01*
X0588661Y0383206D01*
X0588667Y0383048D01*
X0588669Y0382890D01*
X0588667Y0382732D01*
X0588661Y0382574D01*
X0588651Y0382416D01*
X0588637Y0382258D01*
X0588619Y0382101D01*
X0588598Y0381944D01*
X0588572Y0381788D01*
X0588542Y0381632D01*
X0588509Y0381477D01*
X0588471Y0381324D01*
X0588430Y0381171D01*
X0588385Y0381019D01*
X0588336Y0380868D01*
X0588283Y0380719D01*
X0588227Y0380571D01*
X0588167Y0380425D01*
X0588103Y0380280D01*
X0588035Y0380137D01*
X0587964Y0379995D01*
X0587890Y0379855D01*
X0587812Y0379718D01*
X0587730Y0379582D01*
X0587646Y0379448D01*
X0587557Y0379317D01*
X0587466Y0379188D01*
X0587371Y0379061D01*
X0587274Y0378936D01*
X0587173Y0378814D01*
X0587069Y0378695D01*
X0586962Y0378578D01*
X0586852Y0378464D01*
X0586739Y0378353D01*
X0586624Y0378244D01*
X0586506Y0378139D01*
X0586385Y0378037D01*
X0586262Y0377937D01*
X0586136Y0377841D01*
X0586008Y0377748D01*
X0585878Y0377658D01*
X0585745Y0377572D01*
X0585610Y0377488D01*
X0585474Y0377409D01*
X0585335Y0377332D01*
X0585194Y0377260D01*
X0585052Y0377190D01*
X0584908Y0377125D01*
X0584762Y0377063D01*
X0584615Y0377005D01*
X0584466Y0376950D01*
X0584316Y0376899D01*
X0584165Y0376852D01*
X0584013Y0376809D01*
X0583860Y0376770D01*
X0583705Y0376734D01*
X0583550Y0376703D01*
X0583394Y0376675D01*
X0583238Y0376651D01*
X0583081Y0376631D01*
X0582923Y0376615D01*
X0582766Y0376603D01*
X0582607Y0376595D01*
X0582449Y0376591D01*
X0582291Y0376591D01*
X0582133Y0376595D01*
X0581974Y0376603D01*
X0581817Y0376615D01*
X0581659Y0376631D01*
X0581502Y0376651D01*
X0581346Y0376675D01*
X0581190Y0376703D01*
X0581035Y0376734D01*
X0580880Y0376770D01*
X0580727Y0376809D01*
X0580575Y0376852D01*
X0580424Y0376899D01*
X0580274Y0376950D01*
X0580125Y0377005D01*
X0579978Y0377063D01*
X0579832Y0377125D01*
X0579688Y0377190D01*
X0579546Y0377260D01*
X0579405Y0377332D01*
X0579266Y0377409D01*
X0579130Y0377488D01*
X0578995Y0377572D01*
X0578862Y0377658D01*
X0578732Y0377748D01*
X0578604Y0377841D01*
X0578478Y0377937D01*
X0578355Y0378037D01*
X0578234Y0378139D01*
X0578116Y0378244D01*
X0578001Y0378353D01*
X0577888Y0378464D01*
X0577778Y0378578D01*
X0577671Y0378695D01*
X0577567Y0378814D01*
X0577466Y0378936D01*
X0577369Y0379061D01*
X0577274Y0379188D01*
X0577183Y0379317D01*
X0577094Y0379448D01*
X0577010Y0379582D01*
X0576928Y0379718D01*
X0576850Y0379855D01*
X0576776Y0379995D01*
X0576705Y0380137D01*
X0576637Y0380280D01*
X0576573Y0380425D01*
X0576513Y0380571D01*
X0576457Y0380719D01*
X0576404Y0380868D01*
X0576355Y0381019D01*
X0576310Y0381171D01*
X0576269Y0381324D01*
X0576231Y0381477D01*
X0576198Y0381632D01*
X0576168Y0381788D01*
X0576142Y0381944D01*
X0576121Y0382101D01*
X0576103Y0382258D01*
X0576089Y0382416D01*
X0576079Y0382574D01*
X0576073Y0382732D01*
X0576071Y0382890D01*
X0576071Y0012811D02*
X0576073Y0012969D01*
X0576079Y0013127D01*
X0576089Y0013285D01*
X0576103Y0013443D01*
X0576121Y0013600D01*
X0576142Y0013757D01*
X0576168Y0013913D01*
X0576198Y0014069D01*
X0576231Y0014224D01*
X0576269Y0014377D01*
X0576310Y0014530D01*
X0576355Y0014682D01*
X0576404Y0014833D01*
X0576457Y0014982D01*
X0576513Y0015130D01*
X0576573Y0015276D01*
X0576637Y0015421D01*
X0576705Y0015564D01*
X0576776Y0015706D01*
X0576850Y0015846D01*
X0576928Y0015983D01*
X0577010Y0016119D01*
X0577094Y0016253D01*
X0577183Y0016384D01*
X0577274Y0016513D01*
X0577369Y0016640D01*
X0577466Y0016765D01*
X0577567Y0016887D01*
X0577671Y0017006D01*
X0577778Y0017123D01*
X0577888Y0017237D01*
X0578001Y0017348D01*
X0578116Y0017457D01*
X0578234Y0017562D01*
X0578355Y0017664D01*
X0578478Y0017764D01*
X0578604Y0017860D01*
X0578732Y0017953D01*
X0578862Y0018043D01*
X0578995Y0018129D01*
X0579130Y0018213D01*
X0579266Y0018292D01*
X0579405Y0018369D01*
X0579546Y0018441D01*
X0579688Y0018511D01*
X0579832Y0018576D01*
X0579978Y0018638D01*
X0580125Y0018696D01*
X0580274Y0018751D01*
X0580424Y0018802D01*
X0580575Y0018849D01*
X0580727Y0018892D01*
X0580880Y0018931D01*
X0581035Y0018967D01*
X0581190Y0018998D01*
X0581346Y0019026D01*
X0581502Y0019050D01*
X0581659Y0019070D01*
X0581817Y0019086D01*
X0581974Y0019098D01*
X0582133Y0019106D01*
X0582291Y0019110D01*
X0582449Y0019110D01*
X0582607Y0019106D01*
X0582766Y0019098D01*
X0582923Y0019086D01*
X0583081Y0019070D01*
X0583238Y0019050D01*
X0583394Y0019026D01*
X0583550Y0018998D01*
X0583705Y0018967D01*
X0583860Y0018931D01*
X0584013Y0018892D01*
X0584165Y0018849D01*
X0584316Y0018802D01*
X0584466Y0018751D01*
X0584615Y0018696D01*
X0584762Y0018638D01*
X0584908Y0018576D01*
X0585052Y0018511D01*
X0585194Y0018441D01*
X0585335Y0018369D01*
X0585474Y0018292D01*
X0585610Y0018213D01*
X0585745Y0018129D01*
X0585878Y0018043D01*
X0586008Y0017953D01*
X0586136Y0017860D01*
X0586262Y0017764D01*
X0586385Y0017664D01*
X0586506Y0017562D01*
X0586624Y0017457D01*
X0586739Y0017348D01*
X0586852Y0017237D01*
X0586962Y0017123D01*
X0587069Y0017006D01*
X0587173Y0016887D01*
X0587274Y0016765D01*
X0587371Y0016640D01*
X0587466Y0016513D01*
X0587557Y0016384D01*
X0587646Y0016253D01*
X0587730Y0016119D01*
X0587812Y0015983D01*
X0587890Y0015846D01*
X0587964Y0015706D01*
X0588035Y0015564D01*
X0588103Y0015421D01*
X0588167Y0015276D01*
X0588227Y0015130D01*
X0588283Y0014982D01*
X0588336Y0014833D01*
X0588385Y0014682D01*
X0588430Y0014530D01*
X0588471Y0014377D01*
X0588509Y0014224D01*
X0588542Y0014069D01*
X0588572Y0013913D01*
X0588598Y0013757D01*
X0588619Y0013600D01*
X0588637Y0013443D01*
X0588651Y0013285D01*
X0588661Y0013127D01*
X0588667Y0012969D01*
X0588669Y0012811D01*
X0588667Y0012653D01*
X0588661Y0012495D01*
X0588651Y0012337D01*
X0588637Y0012179D01*
X0588619Y0012022D01*
X0588598Y0011865D01*
X0588572Y0011709D01*
X0588542Y0011553D01*
X0588509Y0011398D01*
X0588471Y0011245D01*
X0588430Y0011092D01*
X0588385Y0010940D01*
X0588336Y0010789D01*
X0588283Y0010640D01*
X0588227Y0010492D01*
X0588167Y0010346D01*
X0588103Y0010201D01*
X0588035Y0010058D01*
X0587964Y0009916D01*
X0587890Y0009776D01*
X0587812Y0009639D01*
X0587730Y0009503D01*
X0587646Y0009369D01*
X0587557Y0009238D01*
X0587466Y0009109D01*
X0587371Y0008982D01*
X0587274Y0008857D01*
X0587173Y0008735D01*
X0587069Y0008616D01*
X0586962Y0008499D01*
X0586852Y0008385D01*
X0586739Y0008274D01*
X0586624Y0008165D01*
X0586506Y0008060D01*
X0586385Y0007958D01*
X0586262Y0007858D01*
X0586136Y0007762D01*
X0586008Y0007669D01*
X0585878Y0007579D01*
X0585745Y0007493D01*
X0585610Y0007409D01*
X0585474Y0007330D01*
X0585335Y0007253D01*
X0585194Y0007181D01*
X0585052Y0007111D01*
X0584908Y0007046D01*
X0584762Y0006984D01*
X0584615Y0006926D01*
X0584466Y0006871D01*
X0584316Y0006820D01*
X0584165Y0006773D01*
X0584013Y0006730D01*
X0583860Y0006691D01*
X0583705Y0006655D01*
X0583550Y0006624D01*
X0583394Y0006596D01*
X0583238Y0006572D01*
X0583081Y0006552D01*
X0582923Y0006536D01*
X0582766Y0006524D01*
X0582607Y0006516D01*
X0582449Y0006512D01*
X0582291Y0006512D01*
X0582133Y0006516D01*
X0581974Y0006524D01*
X0581817Y0006536D01*
X0581659Y0006552D01*
X0581502Y0006572D01*
X0581346Y0006596D01*
X0581190Y0006624D01*
X0581035Y0006655D01*
X0580880Y0006691D01*
X0580727Y0006730D01*
X0580575Y0006773D01*
X0580424Y0006820D01*
X0580274Y0006871D01*
X0580125Y0006926D01*
X0579978Y0006984D01*
X0579832Y0007046D01*
X0579688Y0007111D01*
X0579546Y0007181D01*
X0579405Y0007253D01*
X0579266Y0007330D01*
X0579130Y0007409D01*
X0578995Y0007493D01*
X0578862Y0007579D01*
X0578732Y0007669D01*
X0578604Y0007762D01*
X0578478Y0007858D01*
X0578355Y0007958D01*
X0578234Y0008060D01*
X0578116Y0008165D01*
X0578001Y0008274D01*
X0577888Y0008385D01*
X0577778Y0008499D01*
X0577671Y0008616D01*
X0577567Y0008735D01*
X0577466Y0008857D01*
X0577369Y0008982D01*
X0577274Y0009109D01*
X0577183Y0009238D01*
X0577094Y0009369D01*
X0577010Y0009503D01*
X0576928Y0009639D01*
X0576850Y0009776D01*
X0576776Y0009916D01*
X0576705Y0010058D01*
X0576637Y0010201D01*
X0576573Y0010346D01*
X0576513Y0010492D01*
X0576457Y0010640D01*
X0576404Y0010789D01*
X0576355Y0010940D01*
X0576310Y0011092D01*
X0576269Y0011245D01*
X0576231Y0011398D01*
X0576198Y0011553D01*
X0576168Y0011709D01*
X0576142Y0011865D01*
X0576121Y0012022D01*
X0576103Y0012179D01*
X0576089Y0012337D01*
X0576079Y0012495D01*
X0576073Y0012653D01*
X0576071Y0012811D01*
D11*
X0582370Y0012811D03*
X0582370Y0382890D03*
X0015441Y0382890D03*
X0015441Y0012811D03*
D12*
X0115874Y0248715D02*
X0115874Y0253915D01*
X0125874Y0253915D02*
X0125874Y0248715D01*
X0135874Y0248715D02*
X0135874Y0253915D01*
X0145874Y0253915D02*
X0145874Y0248715D01*
X0155874Y0248715D02*
X0155874Y0253915D01*
X0165874Y0253915D02*
X0165874Y0248715D01*
X0175874Y0248715D02*
X0175874Y0253915D01*
X0185874Y0253915D02*
X0185874Y0248715D01*
X0185874Y0278715D02*
X0185874Y0283915D01*
X0175874Y0283915D02*
X0175874Y0278715D01*
X0165874Y0278715D02*
X0165874Y0283915D01*
X0155874Y0283915D02*
X0155874Y0278715D01*
X0145874Y0278715D02*
X0145874Y0283915D01*
X0135874Y0283915D02*
X0135874Y0278715D01*
X0125874Y0278715D02*
X0125874Y0283915D01*
X0115874Y0283915D02*
X0115874Y0278715D01*
D13*
X0321937Y0351000D03*
X0432685Y0351000D03*
X0547370Y0351000D03*
D14*
X0537370Y0351000D03*
X0527370Y0351000D03*
X0517370Y0351000D03*
X0507370Y0351000D03*
X0497370Y0351000D03*
X0487370Y0351000D03*
X0477370Y0351000D03*
X0477370Y0321000D03*
X0487370Y0321000D03*
X0497370Y0321000D03*
X0507370Y0321000D03*
X0517370Y0321000D03*
X0527370Y0321000D03*
X0537370Y0321000D03*
X0547370Y0321000D03*
X0432685Y0321000D03*
X0422685Y0321000D03*
X0412685Y0321000D03*
X0402685Y0321000D03*
X0392685Y0321000D03*
X0382685Y0321000D03*
X0372685Y0321000D03*
X0362685Y0321000D03*
X0321937Y0321000D03*
X0311937Y0321000D03*
X0301937Y0321000D03*
X0291937Y0321000D03*
X0281937Y0321000D03*
X0271937Y0321000D03*
X0261937Y0321000D03*
X0251937Y0321000D03*
X0251937Y0351000D03*
X0261937Y0351000D03*
X0271937Y0351000D03*
X0281937Y0351000D03*
X0291937Y0351000D03*
X0301937Y0351000D03*
X0311937Y0351000D03*
X0362685Y0351000D03*
X0372685Y0351000D03*
X0382685Y0351000D03*
X0392685Y0351000D03*
X0402685Y0351000D03*
X0412685Y0351000D03*
X0422685Y0351000D03*
D15*
X0037606Y0290961D03*
D16*
X0017606Y0290961D03*
D17*
X0018052Y0338931D03*
X0035852Y0338931D03*
X0035852Y0364531D03*
X0018052Y0364531D03*
D18*
X0031189Y0249031D02*
X0031189Y0241157D01*
X0039063Y0226197D02*
X0046937Y0226197D01*
X0055205Y0241157D02*
X0055205Y0249031D01*
D19*
X0230283Y0245094D03*
X0230283Y0256906D03*
X0264969Y0175291D03*
X0264969Y0135921D03*
X0264969Y0092614D03*
X0264969Y0045370D03*
X0371268Y0045370D03*
X0371268Y0088677D03*
X0371268Y0135921D03*
X0371268Y0175291D03*
X0362961Y0245094D03*
X0352961Y0264780D03*
X0402331Y0245094D03*
X0458630Y0257969D03*
X0477567Y0175291D03*
X0477567Y0135921D03*
D20*
X0487567Y0135921D03*
X0497567Y0135921D03*
X0507567Y0135921D03*
X0517567Y0135921D03*
X0527567Y0135921D03*
X0537567Y0135921D03*
X0537567Y0125921D03*
X0527567Y0125921D03*
X0517567Y0125921D03*
X0507567Y0125921D03*
X0497567Y0125921D03*
X0487567Y0125921D03*
X0477567Y0125921D03*
X0431268Y0125921D03*
X0421268Y0125921D03*
X0411268Y0125921D03*
X0401268Y0125921D03*
X0391268Y0125921D03*
X0381268Y0125921D03*
X0371268Y0125921D03*
X0381268Y0135921D03*
X0391268Y0135921D03*
X0401268Y0135921D03*
X0411268Y0135921D03*
X0421268Y0135921D03*
X0431268Y0135921D03*
X0431268Y0165291D03*
X0421268Y0165291D03*
X0411268Y0165291D03*
X0401268Y0165291D03*
X0391268Y0165291D03*
X0381268Y0165291D03*
X0371268Y0165291D03*
X0381268Y0175291D03*
X0391268Y0175291D03*
X0401268Y0175291D03*
X0411268Y0175291D03*
X0421268Y0175291D03*
X0431268Y0175291D03*
X0477567Y0165291D03*
X0487567Y0165291D03*
X0497567Y0165291D03*
X0507567Y0165291D03*
X0517567Y0165291D03*
X0527567Y0165291D03*
X0537567Y0165291D03*
X0537567Y0175291D03*
X0527567Y0175291D03*
X0517567Y0175291D03*
X0507567Y0175291D03*
X0497567Y0175291D03*
X0487567Y0175291D03*
X0392331Y0245094D03*
X0362961Y0264780D03*
X0352961Y0245094D03*
X0320283Y0245094D03*
X0310283Y0245094D03*
X0300283Y0245094D03*
X0290283Y0245094D03*
X0280283Y0245094D03*
X0270283Y0245094D03*
X0260283Y0245094D03*
X0250283Y0245094D03*
X0240283Y0245094D03*
X0240283Y0256906D03*
X0250283Y0256906D03*
X0260283Y0256906D03*
X0270283Y0256906D03*
X0280283Y0256906D03*
X0290283Y0256906D03*
X0300283Y0256906D03*
X0310283Y0256906D03*
X0320283Y0256906D03*
X0324969Y0175291D03*
X0314969Y0175291D03*
X0304969Y0175291D03*
X0294969Y0175291D03*
X0284969Y0175291D03*
X0274969Y0175291D03*
X0274969Y0165291D03*
X0284969Y0165291D03*
X0294969Y0165291D03*
X0304969Y0165291D03*
X0314969Y0165291D03*
X0324969Y0165291D03*
X0324969Y0135921D03*
X0314969Y0135921D03*
X0304969Y0135921D03*
X0294969Y0135921D03*
X0284969Y0135921D03*
X0274969Y0135921D03*
X0274969Y0125921D03*
X0284969Y0125921D03*
X0294969Y0125921D03*
X0304969Y0125921D03*
X0314969Y0125921D03*
X0324969Y0125921D03*
X0324969Y0092614D03*
X0314969Y0092614D03*
X0304969Y0092614D03*
X0294969Y0092614D03*
X0284969Y0092614D03*
X0274969Y0092614D03*
X0274969Y0082614D03*
X0284969Y0082614D03*
X0294969Y0082614D03*
X0304969Y0082614D03*
X0314969Y0082614D03*
X0324969Y0082614D03*
X0371268Y0078677D03*
X0381268Y0078677D03*
X0391268Y0078677D03*
X0401268Y0078677D03*
X0411268Y0078677D03*
X0421268Y0078677D03*
X0431268Y0078677D03*
X0431268Y0088677D03*
X0421268Y0088677D03*
X0411268Y0088677D03*
X0401268Y0088677D03*
X0391268Y0088677D03*
X0381268Y0088677D03*
X0381268Y0045370D03*
X0391268Y0045370D03*
X0401268Y0045370D03*
X0411268Y0045370D03*
X0421268Y0045370D03*
X0431268Y0045370D03*
X0431268Y0035370D03*
X0421268Y0035370D03*
X0411268Y0035370D03*
X0401268Y0035370D03*
X0391268Y0035370D03*
X0381268Y0035370D03*
X0371268Y0035370D03*
X0324969Y0035370D03*
X0314969Y0035370D03*
X0304969Y0035370D03*
X0294969Y0035370D03*
X0284969Y0035370D03*
X0274969Y0035370D03*
X0264969Y0035370D03*
X0274969Y0045370D03*
X0284969Y0045370D03*
X0294969Y0045370D03*
X0304969Y0045370D03*
X0314969Y0045370D03*
X0324969Y0045370D03*
X0264969Y0082614D03*
X0264969Y0125921D03*
X0264969Y0165291D03*
X0458630Y0247969D03*
X0468630Y0247969D03*
X0468630Y0257969D03*
X0478630Y0257969D03*
X0488630Y0257969D03*
X0498630Y0257969D03*
X0508630Y0257969D03*
X0518630Y0257969D03*
X0528630Y0257969D03*
X0538630Y0257969D03*
X0548630Y0257969D03*
X0548630Y0247969D03*
X0538630Y0247969D03*
X0528630Y0247969D03*
X0518630Y0247969D03*
X0508630Y0247969D03*
X0498630Y0247969D03*
X0488630Y0247969D03*
X0478630Y0247969D03*
M02*
