G75*
%MOIN*%
%OFA0B0*%
%FSLAX25Y25*%
%IPPOS*%
%LPD*%
%AMOC8*
5,1,8,0,0,1.08239X$1,22.5*
%
%ADD10C,0.00000*%
%ADD11R,0.05800X0.02000*%
%ADD12R,0.02000X0.05800*%
%ADD13R,0.08268X0.07874*%
%ADD14R,0.06299X0.07480*%
%ADD15R,0.01575X0.05315*%
%ADD16R,0.04724X0.05512*%
%ADD17C,0.05200*%
%ADD18R,0.02600X0.08000*%
%ADD19R,0.04756X0.04756*%
%ADD20C,0.04756*%
%ADD21R,0.07874X0.06299*%
%ADD22C,0.10000*%
%ADD23OC8,0.10000*%
%ADD24C,0.06600*%
%ADD25R,0.06299X0.07087*%
%ADD26C,0.07874*%
%ADD27R,0.06299X0.07098*%
%ADD28C,0.05937*%
%ADD29OC8,0.05937*%
%ADD30C,0.01500*%
%ADD31C,0.01700*%
%ADD32C,0.02578*%
%ADD33C,0.02400*%
D10*
X0003630Y0001000D02*
X0003630Y0394701D01*
X0594181Y0394701D01*
X0594181Y0001000D01*
X0003630Y0001000D01*
X0009142Y0012811D02*
X0009144Y0012969D01*
X0009150Y0013127D01*
X0009160Y0013285D01*
X0009174Y0013443D01*
X0009192Y0013600D01*
X0009213Y0013757D01*
X0009239Y0013913D01*
X0009269Y0014069D01*
X0009302Y0014224D01*
X0009340Y0014377D01*
X0009381Y0014530D01*
X0009426Y0014682D01*
X0009475Y0014833D01*
X0009528Y0014982D01*
X0009584Y0015130D01*
X0009644Y0015276D01*
X0009708Y0015421D01*
X0009776Y0015564D01*
X0009847Y0015706D01*
X0009921Y0015846D01*
X0009999Y0015983D01*
X0010081Y0016119D01*
X0010165Y0016253D01*
X0010254Y0016384D01*
X0010345Y0016513D01*
X0010440Y0016640D01*
X0010537Y0016765D01*
X0010638Y0016887D01*
X0010742Y0017006D01*
X0010849Y0017123D01*
X0010959Y0017237D01*
X0011072Y0017348D01*
X0011187Y0017457D01*
X0011305Y0017562D01*
X0011426Y0017664D01*
X0011549Y0017764D01*
X0011675Y0017860D01*
X0011803Y0017953D01*
X0011933Y0018043D01*
X0012066Y0018129D01*
X0012201Y0018213D01*
X0012337Y0018292D01*
X0012476Y0018369D01*
X0012617Y0018441D01*
X0012759Y0018511D01*
X0012903Y0018576D01*
X0013049Y0018638D01*
X0013196Y0018696D01*
X0013345Y0018751D01*
X0013495Y0018802D01*
X0013646Y0018849D01*
X0013798Y0018892D01*
X0013951Y0018931D01*
X0014106Y0018967D01*
X0014261Y0018998D01*
X0014417Y0019026D01*
X0014573Y0019050D01*
X0014730Y0019070D01*
X0014888Y0019086D01*
X0015045Y0019098D01*
X0015204Y0019106D01*
X0015362Y0019110D01*
X0015520Y0019110D01*
X0015678Y0019106D01*
X0015837Y0019098D01*
X0015994Y0019086D01*
X0016152Y0019070D01*
X0016309Y0019050D01*
X0016465Y0019026D01*
X0016621Y0018998D01*
X0016776Y0018967D01*
X0016931Y0018931D01*
X0017084Y0018892D01*
X0017236Y0018849D01*
X0017387Y0018802D01*
X0017537Y0018751D01*
X0017686Y0018696D01*
X0017833Y0018638D01*
X0017979Y0018576D01*
X0018123Y0018511D01*
X0018265Y0018441D01*
X0018406Y0018369D01*
X0018545Y0018292D01*
X0018681Y0018213D01*
X0018816Y0018129D01*
X0018949Y0018043D01*
X0019079Y0017953D01*
X0019207Y0017860D01*
X0019333Y0017764D01*
X0019456Y0017664D01*
X0019577Y0017562D01*
X0019695Y0017457D01*
X0019810Y0017348D01*
X0019923Y0017237D01*
X0020033Y0017123D01*
X0020140Y0017006D01*
X0020244Y0016887D01*
X0020345Y0016765D01*
X0020442Y0016640D01*
X0020537Y0016513D01*
X0020628Y0016384D01*
X0020717Y0016253D01*
X0020801Y0016119D01*
X0020883Y0015983D01*
X0020961Y0015846D01*
X0021035Y0015706D01*
X0021106Y0015564D01*
X0021174Y0015421D01*
X0021238Y0015276D01*
X0021298Y0015130D01*
X0021354Y0014982D01*
X0021407Y0014833D01*
X0021456Y0014682D01*
X0021501Y0014530D01*
X0021542Y0014377D01*
X0021580Y0014224D01*
X0021613Y0014069D01*
X0021643Y0013913D01*
X0021669Y0013757D01*
X0021690Y0013600D01*
X0021708Y0013443D01*
X0021722Y0013285D01*
X0021732Y0013127D01*
X0021738Y0012969D01*
X0021740Y0012811D01*
X0021738Y0012653D01*
X0021732Y0012495D01*
X0021722Y0012337D01*
X0021708Y0012179D01*
X0021690Y0012022D01*
X0021669Y0011865D01*
X0021643Y0011709D01*
X0021613Y0011553D01*
X0021580Y0011398D01*
X0021542Y0011245D01*
X0021501Y0011092D01*
X0021456Y0010940D01*
X0021407Y0010789D01*
X0021354Y0010640D01*
X0021298Y0010492D01*
X0021238Y0010346D01*
X0021174Y0010201D01*
X0021106Y0010058D01*
X0021035Y0009916D01*
X0020961Y0009776D01*
X0020883Y0009639D01*
X0020801Y0009503D01*
X0020717Y0009369D01*
X0020628Y0009238D01*
X0020537Y0009109D01*
X0020442Y0008982D01*
X0020345Y0008857D01*
X0020244Y0008735D01*
X0020140Y0008616D01*
X0020033Y0008499D01*
X0019923Y0008385D01*
X0019810Y0008274D01*
X0019695Y0008165D01*
X0019577Y0008060D01*
X0019456Y0007958D01*
X0019333Y0007858D01*
X0019207Y0007762D01*
X0019079Y0007669D01*
X0018949Y0007579D01*
X0018816Y0007493D01*
X0018681Y0007409D01*
X0018545Y0007330D01*
X0018406Y0007253D01*
X0018265Y0007181D01*
X0018123Y0007111D01*
X0017979Y0007046D01*
X0017833Y0006984D01*
X0017686Y0006926D01*
X0017537Y0006871D01*
X0017387Y0006820D01*
X0017236Y0006773D01*
X0017084Y0006730D01*
X0016931Y0006691D01*
X0016776Y0006655D01*
X0016621Y0006624D01*
X0016465Y0006596D01*
X0016309Y0006572D01*
X0016152Y0006552D01*
X0015994Y0006536D01*
X0015837Y0006524D01*
X0015678Y0006516D01*
X0015520Y0006512D01*
X0015362Y0006512D01*
X0015204Y0006516D01*
X0015045Y0006524D01*
X0014888Y0006536D01*
X0014730Y0006552D01*
X0014573Y0006572D01*
X0014417Y0006596D01*
X0014261Y0006624D01*
X0014106Y0006655D01*
X0013951Y0006691D01*
X0013798Y0006730D01*
X0013646Y0006773D01*
X0013495Y0006820D01*
X0013345Y0006871D01*
X0013196Y0006926D01*
X0013049Y0006984D01*
X0012903Y0007046D01*
X0012759Y0007111D01*
X0012617Y0007181D01*
X0012476Y0007253D01*
X0012337Y0007330D01*
X0012201Y0007409D01*
X0012066Y0007493D01*
X0011933Y0007579D01*
X0011803Y0007669D01*
X0011675Y0007762D01*
X0011549Y0007858D01*
X0011426Y0007958D01*
X0011305Y0008060D01*
X0011187Y0008165D01*
X0011072Y0008274D01*
X0010959Y0008385D01*
X0010849Y0008499D01*
X0010742Y0008616D01*
X0010638Y0008735D01*
X0010537Y0008857D01*
X0010440Y0008982D01*
X0010345Y0009109D01*
X0010254Y0009238D01*
X0010165Y0009369D01*
X0010081Y0009503D01*
X0009999Y0009639D01*
X0009921Y0009776D01*
X0009847Y0009916D01*
X0009776Y0010058D01*
X0009708Y0010201D01*
X0009644Y0010346D01*
X0009584Y0010492D01*
X0009528Y0010640D01*
X0009475Y0010789D01*
X0009426Y0010940D01*
X0009381Y0011092D01*
X0009340Y0011245D01*
X0009302Y0011398D01*
X0009269Y0011553D01*
X0009239Y0011709D01*
X0009213Y0011865D01*
X0009192Y0012022D01*
X0009174Y0012179D01*
X0009160Y0012337D01*
X0009150Y0012495D01*
X0009144Y0012653D01*
X0009142Y0012811D01*
X0009142Y0382890D02*
X0009144Y0383048D01*
X0009150Y0383206D01*
X0009160Y0383364D01*
X0009174Y0383522D01*
X0009192Y0383679D01*
X0009213Y0383836D01*
X0009239Y0383992D01*
X0009269Y0384148D01*
X0009302Y0384303D01*
X0009340Y0384456D01*
X0009381Y0384609D01*
X0009426Y0384761D01*
X0009475Y0384912D01*
X0009528Y0385061D01*
X0009584Y0385209D01*
X0009644Y0385355D01*
X0009708Y0385500D01*
X0009776Y0385643D01*
X0009847Y0385785D01*
X0009921Y0385925D01*
X0009999Y0386062D01*
X0010081Y0386198D01*
X0010165Y0386332D01*
X0010254Y0386463D01*
X0010345Y0386592D01*
X0010440Y0386719D01*
X0010537Y0386844D01*
X0010638Y0386966D01*
X0010742Y0387085D01*
X0010849Y0387202D01*
X0010959Y0387316D01*
X0011072Y0387427D01*
X0011187Y0387536D01*
X0011305Y0387641D01*
X0011426Y0387743D01*
X0011549Y0387843D01*
X0011675Y0387939D01*
X0011803Y0388032D01*
X0011933Y0388122D01*
X0012066Y0388208D01*
X0012201Y0388292D01*
X0012337Y0388371D01*
X0012476Y0388448D01*
X0012617Y0388520D01*
X0012759Y0388590D01*
X0012903Y0388655D01*
X0013049Y0388717D01*
X0013196Y0388775D01*
X0013345Y0388830D01*
X0013495Y0388881D01*
X0013646Y0388928D01*
X0013798Y0388971D01*
X0013951Y0389010D01*
X0014106Y0389046D01*
X0014261Y0389077D01*
X0014417Y0389105D01*
X0014573Y0389129D01*
X0014730Y0389149D01*
X0014888Y0389165D01*
X0015045Y0389177D01*
X0015204Y0389185D01*
X0015362Y0389189D01*
X0015520Y0389189D01*
X0015678Y0389185D01*
X0015837Y0389177D01*
X0015994Y0389165D01*
X0016152Y0389149D01*
X0016309Y0389129D01*
X0016465Y0389105D01*
X0016621Y0389077D01*
X0016776Y0389046D01*
X0016931Y0389010D01*
X0017084Y0388971D01*
X0017236Y0388928D01*
X0017387Y0388881D01*
X0017537Y0388830D01*
X0017686Y0388775D01*
X0017833Y0388717D01*
X0017979Y0388655D01*
X0018123Y0388590D01*
X0018265Y0388520D01*
X0018406Y0388448D01*
X0018545Y0388371D01*
X0018681Y0388292D01*
X0018816Y0388208D01*
X0018949Y0388122D01*
X0019079Y0388032D01*
X0019207Y0387939D01*
X0019333Y0387843D01*
X0019456Y0387743D01*
X0019577Y0387641D01*
X0019695Y0387536D01*
X0019810Y0387427D01*
X0019923Y0387316D01*
X0020033Y0387202D01*
X0020140Y0387085D01*
X0020244Y0386966D01*
X0020345Y0386844D01*
X0020442Y0386719D01*
X0020537Y0386592D01*
X0020628Y0386463D01*
X0020717Y0386332D01*
X0020801Y0386198D01*
X0020883Y0386062D01*
X0020961Y0385925D01*
X0021035Y0385785D01*
X0021106Y0385643D01*
X0021174Y0385500D01*
X0021238Y0385355D01*
X0021298Y0385209D01*
X0021354Y0385061D01*
X0021407Y0384912D01*
X0021456Y0384761D01*
X0021501Y0384609D01*
X0021542Y0384456D01*
X0021580Y0384303D01*
X0021613Y0384148D01*
X0021643Y0383992D01*
X0021669Y0383836D01*
X0021690Y0383679D01*
X0021708Y0383522D01*
X0021722Y0383364D01*
X0021732Y0383206D01*
X0021738Y0383048D01*
X0021740Y0382890D01*
X0021738Y0382732D01*
X0021732Y0382574D01*
X0021722Y0382416D01*
X0021708Y0382258D01*
X0021690Y0382101D01*
X0021669Y0381944D01*
X0021643Y0381788D01*
X0021613Y0381632D01*
X0021580Y0381477D01*
X0021542Y0381324D01*
X0021501Y0381171D01*
X0021456Y0381019D01*
X0021407Y0380868D01*
X0021354Y0380719D01*
X0021298Y0380571D01*
X0021238Y0380425D01*
X0021174Y0380280D01*
X0021106Y0380137D01*
X0021035Y0379995D01*
X0020961Y0379855D01*
X0020883Y0379718D01*
X0020801Y0379582D01*
X0020717Y0379448D01*
X0020628Y0379317D01*
X0020537Y0379188D01*
X0020442Y0379061D01*
X0020345Y0378936D01*
X0020244Y0378814D01*
X0020140Y0378695D01*
X0020033Y0378578D01*
X0019923Y0378464D01*
X0019810Y0378353D01*
X0019695Y0378244D01*
X0019577Y0378139D01*
X0019456Y0378037D01*
X0019333Y0377937D01*
X0019207Y0377841D01*
X0019079Y0377748D01*
X0018949Y0377658D01*
X0018816Y0377572D01*
X0018681Y0377488D01*
X0018545Y0377409D01*
X0018406Y0377332D01*
X0018265Y0377260D01*
X0018123Y0377190D01*
X0017979Y0377125D01*
X0017833Y0377063D01*
X0017686Y0377005D01*
X0017537Y0376950D01*
X0017387Y0376899D01*
X0017236Y0376852D01*
X0017084Y0376809D01*
X0016931Y0376770D01*
X0016776Y0376734D01*
X0016621Y0376703D01*
X0016465Y0376675D01*
X0016309Y0376651D01*
X0016152Y0376631D01*
X0015994Y0376615D01*
X0015837Y0376603D01*
X0015678Y0376595D01*
X0015520Y0376591D01*
X0015362Y0376591D01*
X0015204Y0376595D01*
X0015045Y0376603D01*
X0014888Y0376615D01*
X0014730Y0376631D01*
X0014573Y0376651D01*
X0014417Y0376675D01*
X0014261Y0376703D01*
X0014106Y0376734D01*
X0013951Y0376770D01*
X0013798Y0376809D01*
X0013646Y0376852D01*
X0013495Y0376899D01*
X0013345Y0376950D01*
X0013196Y0377005D01*
X0013049Y0377063D01*
X0012903Y0377125D01*
X0012759Y0377190D01*
X0012617Y0377260D01*
X0012476Y0377332D01*
X0012337Y0377409D01*
X0012201Y0377488D01*
X0012066Y0377572D01*
X0011933Y0377658D01*
X0011803Y0377748D01*
X0011675Y0377841D01*
X0011549Y0377937D01*
X0011426Y0378037D01*
X0011305Y0378139D01*
X0011187Y0378244D01*
X0011072Y0378353D01*
X0010959Y0378464D01*
X0010849Y0378578D01*
X0010742Y0378695D01*
X0010638Y0378814D01*
X0010537Y0378936D01*
X0010440Y0379061D01*
X0010345Y0379188D01*
X0010254Y0379317D01*
X0010165Y0379448D01*
X0010081Y0379582D01*
X0009999Y0379718D01*
X0009921Y0379855D01*
X0009847Y0379995D01*
X0009776Y0380137D01*
X0009708Y0380280D01*
X0009644Y0380425D01*
X0009584Y0380571D01*
X0009528Y0380719D01*
X0009475Y0380868D01*
X0009426Y0381019D01*
X0009381Y0381171D01*
X0009340Y0381324D01*
X0009302Y0381477D01*
X0009269Y0381632D01*
X0009239Y0381788D01*
X0009213Y0381944D01*
X0009192Y0382101D01*
X0009174Y0382258D01*
X0009160Y0382416D01*
X0009150Y0382574D01*
X0009144Y0382732D01*
X0009142Y0382890D01*
X0576071Y0382890D02*
X0576073Y0383048D01*
X0576079Y0383206D01*
X0576089Y0383364D01*
X0576103Y0383522D01*
X0576121Y0383679D01*
X0576142Y0383836D01*
X0576168Y0383992D01*
X0576198Y0384148D01*
X0576231Y0384303D01*
X0576269Y0384456D01*
X0576310Y0384609D01*
X0576355Y0384761D01*
X0576404Y0384912D01*
X0576457Y0385061D01*
X0576513Y0385209D01*
X0576573Y0385355D01*
X0576637Y0385500D01*
X0576705Y0385643D01*
X0576776Y0385785D01*
X0576850Y0385925D01*
X0576928Y0386062D01*
X0577010Y0386198D01*
X0577094Y0386332D01*
X0577183Y0386463D01*
X0577274Y0386592D01*
X0577369Y0386719D01*
X0577466Y0386844D01*
X0577567Y0386966D01*
X0577671Y0387085D01*
X0577778Y0387202D01*
X0577888Y0387316D01*
X0578001Y0387427D01*
X0578116Y0387536D01*
X0578234Y0387641D01*
X0578355Y0387743D01*
X0578478Y0387843D01*
X0578604Y0387939D01*
X0578732Y0388032D01*
X0578862Y0388122D01*
X0578995Y0388208D01*
X0579130Y0388292D01*
X0579266Y0388371D01*
X0579405Y0388448D01*
X0579546Y0388520D01*
X0579688Y0388590D01*
X0579832Y0388655D01*
X0579978Y0388717D01*
X0580125Y0388775D01*
X0580274Y0388830D01*
X0580424Y0388881D01*
X0580575Y0388928D01*
X0580727Y0388971D01*
X0580880Y0389010D01*
X0581035Y0389046D01*
X0581190Y0389077D01*
X0581346Y0389105D01*
X0581502Y0389129D01*
X0581659Y0389149D01*
X0581817Y0389165D01*
X0581974Y0389177D01*
X0582133Y0389185D01*
X0582291Y0389189D01*
X0582449Y0389189D01*
X0582607Y0389185D01*
X0582766Y0389177D01*
X0582923Y0389165D01*
X0583081Y0389149D01*
X0583238Y0389129D01*
X0583394Y0389105D01*
X0583550Y0389077D01*
X0583705Y0389046D01*
X0583860Y0389010D01*
X0584013Y0388971D01*
X0584165Y0388928D01*
X0584316Y0388881D01*
X0584466Y0388830D01*
X0584615Y0388775D01*
X0584762Y0388717D01*
X0584908Y0388655D01*
X0585052Y0388590D01*
X0585194Y0388520D01*
X0585335Y0388448D01*
X0585474Y0388371D01*
X0585610Y0388292D01*
X0585745Y0388208D01*
X0585878Y0388122D01*
X0586008Y0388032D01*
X0586136Y0387939D01*
X0586262Y0387843D01*
X0586385Y0387743D01*
X0586506Y0387641D01*
X0586624Y0387536D01*
X0586739Y0387427D01*
X0586852Y0387316D01*
X0586962Y0387202D01*
X0587069Y0387085D01*
X0587173Y0386966D01*
X0587274Y0386844D01*
X0587371Y0386719D01*
X0587466Y0386592D01*
X0587557Y0386463D01*
X0587646Y0386332D01*
X0587730Y0386198D01*
X0587812Y0386062D01*
X0587890Y0385925D01*
X0587964Y0385785D01*
X0588035Y0385643D01*
X0588103Y0385500D01*
X0588167Y0385355D01*
X0588227Y0385209D01*
X0588283Y0385061D01*
X0588336Y0384912D01*
X0588385Y0384761D01*
X0588430Y0384609D01*
X0588471Y0384456D01*
X0588509Y0384303D01*
X0588542Y0384148D01*
X0588572Y0383992D01*
X0588598Y0383836D01*
X0588619Y0383679D01*
X0588637Y0383522D01*
X0588651Y0383364D01*
X0588661Y0383206D01*
X0588667Y0383048D01*
X0588669Y0382890D01*
X0588667Y0382732D01*
X0588661Y0382574D01*
X0588651Y0382416D01*
X0588637Y0382258D01*
X0588619Y0382101D01*
X0588598Y0381944D01*
X0588572Y0381788D01*
X0588542Y0381632D01*
X0588509Y0381477D01*
X0588471Y0381324D01*
X0588430Y0381171D01*
X0588385Y0381019D01*
X0588336Y0380868D01*
X0588283Y0380719D01*
X0588227Y0380571D01*
X0588167Y0380425D01*
X0588103Y0380280D01*
X0588035Y0380137D01*
X0587964Y0379995D01*
X0587890Y0379855D01*
X0587812Y0379718D01*
X0587730Y0379582D01*
X0587646Y0379448D01*
X0587557Y0379317D01*
X0587466Y0379188D01*
X0587371Y0379061D01*
X0587274Y0378936D01*
X0587173Y0378814D01*
X0587069Y0378695D01*
X0586962Y0378578D01*
X0586852Y0378464D01*
X0586739Y0378353D01*
X0586624Y0378244D01*
X0586506Y0378139D01*
X0586385Y0378037D01*
X0586262Y0377937D01*
X0586136Y0377841D01*
X0586008Y0377748D01*
X0585878Y0377658D01*
X0585745Y0377572D01*
X0585610Y0377488D01*
X0585474Y0377409D01*
X0585335Y0377332D01*
X0585194Y0377260D01*
X0585052Y0377190D01*
X0584908Y0377125D01*
X0584762Y0377063D01*
X0584615Y0377005D01*
X0584466Y0376950D01*
X0584316Y0376899D01*
X0584165Y0376852D01*
X0584013Y0376809D01*
X0583860Y0376770D01*
X0583705Y0376734D01*
X0583550Y0376703D01*
X0583394Y0376675D01*
X0583238Y0376651D01*
X0583081Y0376631D01*
X0582923Y0376615D01*
X0582766Y0376603D01*
X0582607Y0376595D01*
X0582449Y0376591D01*
X0582291Y0376591D01*
X0582133Y0376595D01*
X0581974Y0376603D01*
X0581817Y0376615D01*
X0581659Y0376631D01*
X0581502Y0376651D01*
X0581346Y0376675D01*
X0581190Y0376703D01*
X0581035Y0376734D01*
X0580880Y0376770D01*
X0580727Y0376809D01*
X0580575Y0376852D01*
X0580424Y0376899D01*
X0580274Y0376950D01*
X0580125Y0377005D01*
X0579978Y0377063D01*
X0579832Y0377125D01*
X0579688Y0377190D01*
X0579546Y0377260D01*
X0579405Y0377332D01*
X0579266Y0377409D01*
X0579130Y0377488D01*
X0578995Y0377572D01*
X0578862Y0377658D01*
X0578732Y0377748D01*
X0578604Y0377841D01*
X0578478Y0377937D01*
X0578355Y0378037D01*
X0578234Y0378139D01*
X0578116Y0378244D01*
X0578001Y0378353D01*
X0577888Y0378464D01*
X0577778Y0378578D01*
X0577671Y0378695D01*
X0577567Y0378814D01*
X0577466Y0378936D01*
X0577369Y0379061D01*
X0577274Y0379188D01*
X0577183Y0379317D01*
X0577094Y0379448D01*
X0577010Y0379582D01*
X0576928Y0379718D01*
X0576850Y0379855D01*
X0576776Y0379995D01*
X0576705Y0380137D01*
X0576637Y0380280D01*
X0576573Y0380425D01*
X0576513Y0380571D01*
X0576457Y0380719D01*
X0576404Y0380868D01*
X0576355Y0381019D01*
X0576310Y0381171D01*
X0576269Y0381324D01*
X0576231Y0381477D01*
X0576198Y0381632D01*
X0576168Y0381788D01*
X0576142Y0381944D01*
X0576121Y0382101D01*
X0576103Y0382258D01*
X0576089Y0382416D01*
X0576079Y0382574D01*
X0576073Y0382732D01*
X0576071Y0382890D01*
X0576071Y0012811D02*
X0576073Y0012969D01*
X0576079Y0013127D01*
X0576089Y0013285D01*
X0576103Y0013443D01*
X0576121Y0013600D01*
X0576142Y0013757D01*
X0576168Y0013913D01*
X0576198Y0014069D01*
X0576231Y0014224D01*
X0576269Y0014377D01*
X0576310Y0014530D01*
X0576355Y0014682D01*
X0576404Y0014833D01*
X0576457Y0014982D01*
X0576513Y0015130D01*
X0576573Y0015276D01*
X0576637Y0015421D01*
X0576705Y0015564D01*
X0576776Y0015706D01*
X0576850Y0015846D01*
X0576928Y0015983D01*
X0577010Y0016119D01*
X0577094Y0016253D01*
X0577183Y0016384D01*
X0577274Y0016513D01*
X0577369Y0016640D01*
X0577466Y0016765D01*
X0577567Y0016887D01*
X0577671Y0017006D01*
X0577778Y0017123D01*
X0577888Y0017237D01*
X0578001Y0017348D01*
X0578116Y0017457D01*
X0578234Y0017562D01*
X0578355Y0017664D01*
X0578478Y0017764D01*
X0578604Y0017860D01*
X0578732Y0017953D01*
X0578862Y0018043D01*
X0578995Y0018129D01*
X0579130Y0018213D01*
X0579266Y0018292D01*
X0579405Y0018369D01*
X0579546Y0018441D01*
X0579688Y0018511D01*
X0579832Y0018576D01*
X0579978Y0018638D01*
X0580125Y0018696D01*
X0580274Y0018751D01*
X0580424Y0018802D01*
X0580575Y0018849D01*
X0580727Y0018892D01*
X0580880Y0018931D01*
X0581035Y0018967D01*
X0581190Y0018998D01*
X0581346Y0019026D01*
X0581502Y0019050D01*
X0581659Y0019070D01*
X0581817Y0019086D01*
X0581974Y0019098D01*
X0582133Y0019106D01*
X0582291Y0019110D01*
X0582449Y0019110D01*
X0582607Y0019106D01*
X0582766Y0019098D01*
X0582923Y0019086D01*
X0583081Y0019070D01*
X0583238Y0019050D01*
X0583394Y0019026D01*
X0583550Y0018998D01*
X0583705Y0018967D01*
X0583860Y0018931D01*
X0584013Y0018892D01*
X0584165Y0018849D01*
X0584316Y0018802D01*
X0584466Y0018751D01*
X0584615Y0018696D01*
X0584762Y0018638D01*
X0584908Y0018576D01*
X0585052Y0018511D01*
X0585194Y0018441D01*
X0585335Y0018369D01*
X0585474Y0018292D01*
X0585610Y0018213D01*
X0585745Y0018129D01*
X0585878Y0018043D01*
X0586008Y0017953D01*
X0586136Y0017860D01*
X0586262Y0017764D01*
X0586385Y0017664D01*
X0586506Y0017562D01*
X0586624Y0017457D01*
X0586739Y0017348D01*
X0586852Y0017237D01*
X0586962Y0017123D01*
X0587069Y0017006D01*
X0587173Y0016887D01*
X0587274Y0016765D01*
X0587371Y0016640D01*
X0587466Y0016513D01*
X0587557Y0016384D01*
X0587646Y0016253D01*
X0587730Y0016119D01*
X0587812Y0015983D01*
X0587890Y0015846D01*
X0587964Y0015706D01*
X0588035Y0015564D01*
X0588103Y0015421D01*
X0588167Y0015276D01*
X0588227Y0015130D01*
X0588283Y0014982D01*
X0588336Y0014833D01*
X0588385Y0014682D01*
X0588430Y0014530D01*
X0588471Y0014377D01*
X0588509Y0014224D01*
X0588542Y0014069D01*
X0588572Y0013913D01*
X0588598Y0013757D01*
X0588619Y0013600D01*
X0588637Y0013443D01*
X0588651Y0013285D01*
X0588661Y0013127D01*
X0588667Y0012969D01*
X0588669Y0012811D01*
X0588667Y0012653D01*
X0588661Y0012495D01*
X0588651Y0012337D01*
X0588637Y0012179D01*
X0588619Y0012022D01*
X0588598Y0011865D01*
X0588572Y0011709D01*
X0588542Y0011553D01*
X0588509Y0011398D01*
X0588471Y0011245D01*
X0588430Y0011092D01*
X0588385Y0010940D01*
X0588336Y0010789D01*
X0588283Y0010640D01*
X0588227Y0010492D01*
X0588167Y0010346D01*
X0588103Y0010201D01*
X0588035Y0010058D01*
X0587964Y0009916D01*
X0587890Y0009776D01*
X0587812Y0009639D01*
X0587730Y0009503D01*
X0587646Y0009369D01*
X0587557Y0009238D01*
X0587466Y0009109D01*
X0587371Y0008982D01*
X0587274Y0008857D01*
X0587173Y0008735D01*
X0587069Y0008616D01*
X0586962Y0008499D01*
X0586852Y0008385D01*
X0586739Y0008274D01*
X0586624Y0008165D01*
X0586506Y0008060D01*
X0586385Y0007958D01*
X0586262Y0007858D01*
X0586136Y0007762D01*
X0586008Y0007669D01*
X0585878Y0007579D01*
X0585745Y0007493D01*
X0585610Y0007409D01*
X0585474Y0007330D01*
X0585335Y0007253D01*
X0585194Y0007181D01*
X0585052Y0007111D01*
X0584908Y0007046D01*
X0584762Y0006984D01*
X0584615Y0006926D01*
X0584466Y0006871D01*
X0584316Y0006820D01*
X0584165Y0006773D01*
X0584013Y0006730D01*
X0583860Y0006691D01*
X0583705Y0006655D01*
X0583550Y0006624D01*
X0583394Y0006596D01*
X0583238Y0006572D01*
X0583081Y0006552D01*
X0582923Y0006536D01*
X0582766Y0006524D01*
X0582607Y0006516D01*
X0582449Y0006512D01*
X0582291Y0006512D01*
X0582133Y0006516D01*
X0581974Y0006524D01*
X0581817Y0006536D01*
X0581659Y0006552D01*
X0581502Y0006572D01*
X0581346Y0006596D01*
X0581190Y0006624D01*
X0581035Y0006655D01*
X0580880Y0006691D01*
X0580727Y0006730D01*
X0580575Y0006773D01*
X0580424Y0006820D01*
X0580274Y0006871D01*
X0580125Y0006926D01*
X0579978Y0006984D01*
X0579832Y0007046D01*
X0579688Y0007111D01*
X0579546Y0007181D01*
X0579405Y0007253D01*
X0579266Y0007330D01*
X0579130Y0007409D01*
X0578995Y0007493D01*
X0578862Y0007579D01*
X0578732Y0007669D01*
X0578604Y0007762D01*
X0578478Y0007858D01*
X0578355Y0007958D01*
X0578234Y0008060D01*
X0578116Y0008165D01*
X0578001Y0008274D01*
X0577888Y0008385D01*
X0577778Y0008499D01*
X0577671Y0008616D01*
X0577567Y0008735D01*
X0577466Y0008857D01*
X0577369Y0008982D01*
X0577274Y0009109D01*
X0577183Y0009238D01*
X0577094Y0009369D01*
X0577010Y0009503D01*
X0576928Y0009639D01*
X0576850Y0009776D01*
X0576776Y0009916D01*
X0576705Y0010058D01*
X0576637Y0010201D01*
X0576573Y0010346D01*
X0576513Y0010492D01*
X0576457Y0010640D01*
X0576404Y0010789D01*
X0576355Y0010940D01*
X0576310Y0011092D01*
X0576269Y0011245D01*
X0576231Y0011398D01*
X0576198Y0011553D01*
X0576168Y0011709D01*
X0576142Y0011865D01*
X0576121Y0012022D01*
X0576103Y0012179D01*
X0576089Y0012337D01*
X0576079Y0012495D01*
X0576073Y0012653D01*
X0576071Y0012811D01*
D11*
X0084267Y0317441D03*
X0084267Y0320541D03*
X0084267Y0323741D03*
X0084267Y0326841D03*
X0084267Y0330041D03*
X0084267Y0333141D03*
X0084267Y0336341D03*
X0084267Y0339441D03*
X0050867Y0339441D03*
X0050867Y0336341D03*
X0050867Y0333141D03*
X0050867Y0330041D03*
X0050867Y0326841D03*
X0050867Y0323741D03*
X0050867Y0320541D03*
X0050867Y0317441D03*
D12*
X0056567Y0311741D03*
X0059667Y0311741D03*
X0062867Y0311741D03*
X0065967Y0311741D03*
X0069167Y0311741D03*
X0072267Y0311741D03*
X0075467Y0311741D03*
X0078567Y0311741D03*
X0078567Y0345141D03*
X0075467Y0345141D03*
X0072267Y0345141D03*
X0069167Y0345141D03*
X0065967Y0345141D03*
X0062867Y0345141D03*
X0059667Y0345141D03*
X0056567Y0345141D03*
D13*
X0081740Y0376748D03*
X0106150Y0376748D03*
D14*
X0110087Y0386000D03*
X0077803Y0386000D03*
D15*
X0088827Y0375469D03*
X0091386Y0375469D03*
X0093945Y0375469D03*
X0096504Y0375469D03*
X0099063Y0375469D03*
D16*
X0037685Y0326413D03*
X0031386Y0326413D03*
X0031386Y0317752D03*
X0037685Y0317752D03*
D17*
X0115874Y0283915D02*
X0115874Y0278715D01*
X0125874Y0278715D02*
X0125874Y0283915D01*
X0135874Y0283915D02*
X0135874Y0278715D01*
X0145874Y0278715D02*
X0145874Y0283915D01*
X0155874Y0283915D02*
X0155874Y0278715D01*
X0165874Y0278715D02*
X0165874Y0283915D01*
X0175874Y0283915D02*
X0175874Y0278715D01*
X0185874Y0278715D02*
X0185874Y0283915D01*
X0185874Y0253915D02*
X0185874Y0248715D01*
X0175874Y0248715D02*
X0175874Y0253915D01*
X0165874Y0253915D02*
X0165874Y0248715D01*
X0155874Y0248715D02*
X0155874Y0253915D01*
X0145874Y0253915D02*
X0145874Y0248715D01*
X0135874Y0248715D02*
X0135874Y0253915D01*
X0125874Y0253915D02*
X0125874Y0248715D01*
X0115874Y0248715D02*
X0115874Y0253915D01*
D18*
X0116878Y0311026D03*
X0121878Y0311026D03*
X0126878Y0311026D03*
X0131878Y0311026D03*
X0136878Y0311026D03*
X0141878Y0311026D03*
X0154004Y0311026D03*
X0159004Y0311026D03*
X0164004Y0311026D03*
X0169004Y0311026D03*
X0174004Y0311026D03*
X0179004Y0311026D03*
X0184004Y0311026D03*
X0189004Y0311026D03*
X0189004Y0335226D03*
X0184004Y0335226D03*
X0179004Y0335226D03*
X0174004Y0335226D03*
X0169004Y0335226D03*
X0164004Y0335226D03*
X0159004Y0335226D03*
X0154004Y0335226D03*
X0141878Y0335226D03*
X0136878Y0335226D03*
X0131878Y0335226D03*
X0126878Y0335226D03*
X0121878Y0335226D03*
X0116878Y0335226D03*
X0111878Y0335226D03*
X0106878Y0335226D03*
X0106878Y0311026D03*
X0111878Y0311026D03*
D19*
X0321937Y0351000D03*
X0432685Y0351000D03*
X0547370Y0351000D03*
D20*
X0537370Y0351000D03*
X0527370Y0351000D03*
X0517370Y0351000D03*
X0507370Y0351000D03*
X0497370Y0351000D03*
X0487370Y0351000D03*
X0477370Y0351000D03*
X0477370Y0321000D03*
X0487370Y0321000D03*
X0497370Y0321000D03*
X0507370Y0321000D03*
X0517370Y0321000D03*
X0527370Y0321000D03*
X0537370Y0321000D03*
X0547370Y0321000D03*
X0432685Y0321000D03*
X0422685Y0321000D03*
X0412685Y0321000D03*
X0402685Y0321000D03*
X0392685Y0321000D03*
X0382685Y0321000D03*
X0372685Y0321000D03*
X0362685Y0321000D03*
X0321937Y0321000D03*
X0311937Y0321000D03*
X0301937Y0321000D03*
X0291937Y0321000D03*
X0281937Y0321000D03*
X0271937Y0321000D03*
X0261937Y0321000D03*
X0251937Y0321000D03*
X0251937Y0351000D03*
X0261937Y0351000D03*
X0271937Y0351000D03*
X0281937Y0351000D03*
X0291937Y0351000D03*
X0301937Y0351000D03*
X0311937Y0351000D03*
X0362685Y0351000D03*
X0372685Y0351000D03*
X0382685Y0351000D03*
X0392685Y0351000D03*
X0402685Y0351000D03*
X0412685Y0351000D03*
X0422685Y0351000D03*
D21*
X0412685Y0365488D03*
X0412685Y0376512D03*
X0432685Y0376512D03*
X0432685Y0365488D03*
X0392685Y0365488D03*
X0392685Y0376512D03*
X0372685Y0376512D03*
X0372685Y0365488D03*
X0321937Y0365488D03*
X0321937Y0376512D03*
X0301937Y0376512D03*
X0301937Y0365488D03*
X0281937Y0365488D03*
X0281937Y0376512D03*
X0261937Y0376512D03*
X0261937Y0365488D03*
X0261937Y0306512D03*
X0261937Y0295488D03*
X0281937Y0295488D03*
X0281937Y0306512D03*
X0301937Y0306512D03*
X0301937Y0295488D03*
X0321937Y0295488D03*
X0321937Y0306512D03*
X0372685Y0306512D03*
X0372685Y0295488D03*
X0392685Y0295488D03*
X0392685Y0306512D03*
X0412685Y0306512D03*
X0412685Y0295488D03*
X0432685Y0295488D03*
X0432685Y0306512D03*
X0487370Y0365488D03*
X0487370Y0376512D03*
X0507370Y0376512D03*
X0507370Y0365488D03*
X0527370Y0365488D03*
X0527370Y0376512D03*
X0547370Y0376512D03*
X0547370Y0365488D03*
X0547370Y0306512D03*
X0547370Y0295488D03*
X0527370Y0295488D03*
X0527370Y0306512D03*
D22*
X0037606Y0290961D03*
D23*
X0017606Y0290961D03*
D24*
X0018052Y0338931D03*
X0035852Y0338931D03*
X0035852Y0364531D03*
X0018052Y0364531D03*
D25*
X0050480Y0367102D03*
X0061504Y0367102D03*
X0155598Y0382890D03*
X0166622Y0382890D03*
D26*
X0055205Y0249031D02*
X0055205Y0241157D01*
X0046937Y0226197D02*
X0039063Y0226197D01*
X0031189Y0241157D02*
X0031189Y0249031D01*
D27*
X0131890Y0382890D03*
X0143087Y0382890D03*
D28*
X0230283Y0256906D03*
X0230283Y0245094D03*
X0264969Y0175291D03*
X0264969Y0135921D03*
X0264969Y0092614D03*
X0264969Y0045370D03*
X0371268Y0045370D03*
X0371268Y0088677D03*
X0371268Y0135921D03*
X0371268Y0175291D03*
X0362961Y0245094D03*
X0352961Y0264780D03*
X0402331Y0245094D03*
X0458630Y0257969D03*
X0477567Y0175291D03*
X0477567Y0135921D03*
D29*
X0487567Y0135921D03*
X0497567Y0135921D03*
X0507567Y0135921D03*
X0517567Y0135921D03*
X0527567Y0135921D03*
X0537567Y0135921D03*
X0537567Y0125921D03*
X0527567Y0125921D03*
X0517567Y0125921D03*
X0507567Y0125921D03*
X0497567Y0125921D03*
X0487567Y0125921D03*
X0477567Y0125921D03*
X0431268Y0125921D03*
X0421268Y0125921D03*
X0411268Y0125921D03*
X0401268Y0125921D03*
X0391268Y0125921D03*
X0381268Y0125921D03*
X0371268Y0125921D03*
X0381268Y0135921D03*
X0391268Y0135921D03*
X0401268Y0135921D03*
X0411268Y0135921D03*
X0421268Y0135921D03*
X0431268Y0135921D03*
X0431268Y0165291D03*
X0421268Y0165291D03*
X0411268Y0165291D03*
X0401268Y0165291D03*
X0391268Y0165291D03*
X0381268Y0165291D03*
X0371268Y0165291D03*
X0381268Y0175291D03*
X0391268Y0175291D03*
X0401268Y0175291D03*
X0411268Y0175291D03*
X0421268Y0175291D03*
X0431268Y0175291D03*
X0477567Y0165291D03*
X0487567Y0165291D03*
X0497567Y0165291D03*
X0507567Y0165291D03*
X0517567Y0165291D03*
X0527567Y0165291D03*
X0537567Y0165291D03*
X0537567Y0175291D03*
X0527567Y0175291D03*
X0517567Y0175291D03*
X0507567Y0175291D03*
X0497567Y0175291D03*
X0487567Y0175291D03*
X0392331Y0245094D03*
X0362961Y0264780D03*
X0352961Y0245094D03*
X0320283Y0245094D03*
X0310283Y0245094D03*
X0300283Y0245094D03*
X0290283Y0245094D03*
X0280283Y0245094D03*
X0270283Y0245094D03*
X0260283Y0245094D03*
X0250283Y0245094D03*
X0240283Y0245094D03*
X0240283Y0256906D03*
X0250283Y0256906D03*
X0260283Y0256906D03*
X0270283Y0256906D03*
X0280283Y0256906D03*
X0290283Y0256906D03*
X0300283Y0256906D03*
X0310283Y0256906D03*
X0320283Y0256906D03*
X0324969Y0175291D03*
X0314969Y0175291D03*
X0304969Y0175291D03*
X0294969Y0175291D03*
X0284969Y0175291D03*
X0274969Y0175291D03*
X0274969Y0165291D03*
X0284969Y0165291D03*
X0294969Y0165291D03*
X0304969Y0165291D03*
X0314969Y0165291D03*
X0324969Y0165291D03*
X0324969Y0135921D03*
X0314969Y0135921D03*
X0304969Y0135921D03*
X0294969Y0135921D03*
X0284969Y0135921D03*
X0274969Y0135921D03*
X0274969Y0125921D03*
X0284969Y0125921D03*
X0294969Y0125921D03*
X0304969Y0125921D03*
X0314969Y0125921D03*
X0324969Y0125921D03*
X0324969Y0092614D03*
X0314969Y0092614D03*
X0304969Y0092614D03*
X0294969Y0092614D03*
X0284969Y0092614D03*
X0274969Y0092614D03*
X0274969Y0082614D03*
X0284969Y0082614D03*
X0294969Y0082614D03*
X0304969Y0082614D03*
X0314969Y0082614D03*
X0324969Y0082614D03*
X0371268Y0078677D03*
X0381268Y0078677D03*
X0391268Y0078677D03*
X0401268Y0078677D03*
X0411268Y0078677D03*
X0421268Y0078677D03*
X0431268Y0078677D03*
X0431268Y0088677D03*
X0421268Y0088677D03*
X0411268Y0088677D03*
X0401268Y0088677D03*
X0391268Y0088677D03*
X0381268Y0088677D03*
X0381268Y0045370D03*
X0391268Y0045370D03*
X0401268Y0045370D03*
X0411268Y0045370D03*
X0421268Y0045370D03*
X0431268Y0045370D03*
X0431268Y0035370D03*
X0421268Y0035370D03*
X0411268Y0035370D03*
X0401268Y0035370D03*
X0391268Y0035370D03*
X0381268Y0035370D03*
X0371268Y0035370D03*
X0324969Y0035370D03*
X0314969Y0035370D03*
X0304969Y0035370D03*
X0294969Y0035370D03*
X0284969Y0035370D03*
X0274969Y0035370D03*
X0264969Y0035370D03*
X0274969Y0045370D03*
X0284969Y0045370D03*
X0294969Y0045370D03*
X0304969Y0045370D03*
X0314969Y0045370D03*
X0324969Y0045370D03*
X0264969Y0082614D03*
X0264969Y0125921D03*
X0264969Y0165291D03*
X0458630Y0247969D03*
X0468630Y0247969D03*
X0468630Y0257969D03*
X0478630Y0257969D03*
X0488630Y0257969D03*
X0498630Y0257969D03*
X0508630Y0257969D03*
X0518630Y0257969D03*
X0528630Y0257969D03*
X0538630Y0257969D03*
X0548630Y0257969D03*
X0548630Y0247969D03*
X0538630Y0247969D03*
X0528630Y0247969D03*
X0518630Y0247969D03*
X0508630Y0247969D03*
X0498630Y0247969D03*
X0488630Y0247969D03*
X0478630Y0247969D03*
D30*
X0478630Y0251000D01*
X0473630Y0256000D01*
X0473630Y0261000D01*
X0471130Y0263500D01*
X0471130Y0333500D01*
X0443630Y0333500D01*
X0443630Y0128500D01*
X0441130Y0126000D01*
X0436130Y0128500D02*
X0436130Y0096000D01*
X0431130Y0091000D01*
X0431268Y0088677D01*
X0433630Y0088500D01*
X0433630Y0083500D01*
X0436130Y0081000D01*
X0436130Y0048500D01*
X0433630Y0046000D01*
X0431268Y0045370D01*
X0428630Y0041000D02*
X0453630Y0041000D01*
X0453630Y0241000D01*
X0458630Y0246000D01*
X0458630Y0247969D01*
X0463630Y0246000D02*
X0463630Y0251000D01*
X0458630Y0256000D01*
X0458630Y0257969D01*
X0463630Y0256000D02*
X0468630Y0251000D01*
X0468630Y0247969D01*
X0463630Y0246000D02*
X0458630Y0241000D01*
X0458630Y0176000D01*
X0458630Y0136000D01*
X0463630Y0133500D02*
X0486130Y0111000D01*
X0496130Y0111000D01*
X0496130Y0121000D01*
X0541130Y0121000D01*
X0553630Y0133500D01*
X0553630Y0251000D01*
X0548630Y0256000D01*
X0548630Y0257969D01*
X0543630Y0261000D02*
X0543630Y0246000D01*
X0538630Y0246000D02*
X0538630Y0247969D01*
X0538630Y0248500D01*
X0533630Y0253500D01*
X0533630Y0261000D01*
X0518630Y0276000D01*
X0518630Y0311000D01*
X0508630Y0321000D01*
X0507370Y0321000D01*
X0517370Y0321000D02*
X0518630Y0321000D01*
X0523630Y0326000D01*
X0556130Y0326000D01*
X0556130Y0131000D01*
X0548630Y0138500D02*
X0541130Y0131000D01*
X0508630Y0131000D01*
X0508630Y0126000D01*
X0507567Y0125921D01*
X0497567Y0125921D02*
X0496130Y0123500D01*
X0496130Y0121000D01*
X0487567Y0125921D02*
X0486130Y0123500D01*
X0486130Y0116000D01*
X0486130Y0126000D02*
X0487567Y0125921D01*
X0486130Y0126000D02*
X0481130Y0131000D01*
X0476130Y0131000D01*
X0471130Y0136000D01*
X0471130Y0143500D01*
X0486130Y0158500D01*
X0486130Y0163500D01*
X0487567Y0165291D01*
X0477567Y0165291D02*
X0476130Y0166000D01*
X0471130Y0171000D01*
X0471130Y0183500D01*
X0473630Y0186000D01*
X0473630Y0191000D02*
X0473630Y0251000D01*
X0468630Y0256000D01*
X0468630Y0257969D01*
X0463630Y0256000D02*
X0463630Y0271000D01*
X0451130Y0258500D01*
X0451130Y0096000D01*
X0438630Y0083500D01*
X0426130Y0086000D02*
X0423630Y0088500D01*
X0421268Y0088677D01*
X0426130Y0086000D02*
X0426130Y0128500D01*
X0426130Y0171000D01*
X0423630Y0173500D01*
X0421268Y0175291D01*
X0416130Y0178500D02*
X0416130Y0171000D01*
X0421130Y0166000D01*
X0421268Y0165291D01*
X0416130Y0161000D02*
X0416130Y0118500D01*
X0416130Y0076000D01*
X0413630Y0078500D01*
X0411268Y0078677D01*
X0416130Y0076000D02*
X0416130Y0038500D01*
X0413630Y0036000D01*
X0411268Y0035370D01*
X0406130Y0038500D02*
X0406130Y0071000D01*
X0403630Y0073500D01*
X0403630Y0078500D01*
X0401268Y0078677D01*
X0401130Y0081000D01*
X0406130Y0086000D01*
X0406130Y0118500D01*
X0401130Y0123500D01*
X0401268Y0125921D01*
X0403630Y0126000D01*
X0403630Y0131000D01*
X0406130Y0133500D01*
X0406130Y0138500D01*
X0403630Y0141000D01*
X0403630Y0153500D01*
X0403630Y0163500D01*
X0401268Y0165291D01*
X0406130Y0168500D02*
X0406130Y0156000D01*
X0411130Y0151000D01*
X0411130Y0136000D01*
X0411268Y0135921D01*
X0411130Y0133500D01*
X0406130Y0128500D01*
X0406130Y0123500D01*
X0408630Y0121000D01*
X0408630Y0093500D01*
X0411130Y0091000D01*
X0411268Y0088677D01*
X0411130Y0088500D01*
X0411130Y0086000D01*
X0406130Y0081000D01*
X0406130Y0076000D01*
X0408630Y0073500D01*
X0408630Y0048500D01*
X0411130Y0046000D01*
X0411268Y0045370D01*
X0421268Y0045370D02*
X0423630Y0046000D01*
X0426130Y0048500D01*
X0426130Y0086000D01*
X0401130Y0086000D02*
X0401130Y0088500D01*
X0401268Y0088677D01*
X0401130Y0091000D01*
X0401130Y0096000D01*
X0398630Y0098500D01*
X0396130Y0101000D01*
X0396130Y0128500D01*
X0401130Y0133500D01*
X0401268Y0135921D01*
X0401130Y0136000D01*
X0401130Y0146000D01*
X0398630Y0148500D01*
X0396130Y0151000D01*
X0396130Y0168500D01*
X0401130Y0173500D01*
X0401268Y0175291D01*
X0401130Y0176000D01*
X0401130Y0191000D01*
X0393630Y0201000D02*
X0393630Y0176000D01*
X0391268Y0175291D01*
X0391130Y0173500D01*
X0386130Y0168500D01*
X0386130Y0143500D01*
X0391130Y0138500D01*
X0391130Y0136000D01*
X0391268Y0135921D01*
X0391130Y0133500D01*
X0386130Y0128500D01*
X0386130Y0123500D01*
X0388630Y0121000D01*
X0388630Y0093500D01*
X0391130Y0091000D01*
X0391268Y0088677D01*
X0391130Y0088500D01*
X0391130Y0086000D01*
X0386130Y0081000D01*
X0386130Y0076000D01*
X0388630Y0073500D01*
X0388630Y0048500D01*
X0391130Y0046000D01*
X0391268Y0045370D01*
X0398630Y0048500D02*
X0398630Y0073500D01*
X0396130Y0076000D01*
X0396130Y0081000D01*
X0401130Y0086000D01*
X0396130Y0086000D02*
X0396130Y0096000D01*
X0391130Y0101000D01*
X0391130Y0123500D01*
X0391268Y0125921D01*
X0393630Y0126000D01*
X0393630Y0131000D01*
X0396130Y0133500D01*
X0396130Y0146000D01*
X0393630Y0148500D01*
X0393630Y0163500D01*
X0391268Y0165291D01*
X0383630Y0163500D02*
X0381268Y0165291D01*
X0383630Y0163500D02*
X0383630Y0141000D01*
X0386130Y0138500D01*
X0386130Y0133500D01*
X0383630Y0131000D01*
X0383630Y0126000D01*
X0381268Y0125921D01*
X0381130Y0123500D01*
X0386130Y0118500D01*
X0386130Y0086000D01*
X0381130Y0081000D01*
X0381268Y0078677D01*
X0383630Y0078500D01*
X0383630Y0073500D01*
X0386130Y0071000D01*
X0386130Y0063500D01*
X0381130Y0063500D01*
X0386130Y0063500D02*
X0386130Y0038500D01*
X0383630Y0036000D01*
X0381268Y0035370D01*
X0376130Y0038500D02*
X0376130Y0051000D01*
X0373630Y0053500D01*
X0373630Y0078500D01*
X0371268Y0078677D01*
X0371130Y0081000D01*
X0376130Y0086000D01*
X0376130Y0118500D01*
X0371130Y0123500D01*
X0371268Y0125921D01*
X0373630Y0126000D01*
X0373630Y0131000D01*
X0376130Y0133500D01*
X0376130Y0138500D01*
X0373630Y0141000D01*
X0373630Y0163500D01*
X0371268Y0165291D01*
X0373630Y0166000D01*
X0373630Y0171000D01*
X0376130Y0173500D01*
X0376130Y0208500D01*
X0436130Y0268500D01*
X0436130Y0263500D02*
X0383630Y0211000D01*
X0383630Y0176000D01*
X0381268Y0175291D01*
X0381130Y0173500D01*
X0376130Y0168500D01*
X0376130Y0143500D01*
X0381130Y0138500D01*
X0381130Y0136000D01*
X0381268Y0135921D01*
X0381130Y0133500D01*
X0376130Y0128500D01*
X0376130Y0123500D01*
X0378630Y0121000D01*
X0378630Y0093500D01*
X0381130Y0091000D01*
X0381268Y0088677D01*
X0381130Y0088500D01*
X0378630Y0086000D01*
X0378630Y0083500D01*
X0376130Y0081000D01*
X0376130Y0056000D01*
X0381130Y0051000D01*
X0381130Y0046000D01*
X0381268Y0045370D01*
X0376130Y0038500D02*
X0373630Y0036000D01*
X0371268Y0035370D01*
X0371130Y0033500D01*
X0371130Y0026000D01*
X0298630Y0026000D01*
X0298630Y0021000D02*
X0391130Y0021000D01*
X0391130Y0033500D01*
X0391268Y0035370D01*
X0393630Y0036000D01*
X0396130Y0038500D01*
X0396130Y0071000D01*
X0393630Y0073500D01*
X0393630Y0078500D01*
X0391268Y0078677D01*
X0391130Y0081000D01*
X0396130Y0086000D01*
X0371268Y0088677D02*
X0371130Y0088500D01*
X0366130Y0083500D01*
X0366130Y0111000D01*
X0366130Y0128500D01*
X0366130Y0168500D01*
X0371130Y0173500D01*
X0371268Y0175291D01*
X0343630Y0176000D02*
X0343630Y0326000D01*
X0333630Y0326000D02*
X0333630Y0228500D01*
X0333630Y0191000D01*
X0338630Y0186000D01*
X0338630Y0131000D01*
X0333630Y0131000D02*
X0333630Y0098500D01*
X0333630Y0053500D01*
X0338630Y0051000D02*
X0328630Y0041000D01*
X0306130Y0041000D01*
X0306130Y0043500D01*
X0304969Y0045370D01*
X0301130Y0051000D02*
X0321130Y0051000D01*
X0321130Y0048500D01*
X0324969Y0045370D02*
X0326130Y0046000D01*
X0328630Y0048500D01*
X0328630Y0078500D01*
X0331130Y0081000D01*
X0331130Y0086000D01*
X0326130Y0091000D01*
X0324969Y0092614D01*
X0326130Y0093500D01*
X0328630Y0096000D01*
X0328630Y0121000D01*
X0331130Y0123500D01*
X0331130Y0128500D01*
X0326130Y0133500D01*
X0324969Y0135921D01*
X0326130Y0136000D01*
X0331130Y0141000D01*
X0331130Y0168500D01*
X0326130Y0173500D01*
X0324969Y0175291D01*
X0323630Y0176000D01*
X0323630Y0191000D01*
X0318630Y0196000D01*
X0318630Y0201000D02*
X0293630Y0201000D01*
X0281130Y0213500D01*
X0276130Y0213500D02*
X0298630Y0236000D01*
X0298630Y0243500D01*
X0300283Y0245094D01*
X0308630Y0243500D02*
X0310283Y0245094D01*
X0308630Y0243500D02*
X0308630Y0236000D01*
X0291130Y0218500D01*
X0295630Y0206000D02*
X0320283Y0230654D01*
X0320283Y0245094D01*
X0338630Y0236000D02*
X0338630Y0378500D01*
X0323630Y0378500D01*
X0321937Y0376512D01*
X0321130Y0378500D01*
X0303630Y0378500D01*
X0301937Y0376512D01*
X0301130Y0378500D01*
X0283630Y0378500D01*
X0281937Y0376512D01*
X0281130Y0378500D01*
X0263630Y0378500D01*
X0261937Y0376512D01*
X0261937Y0365488D02*
X0261130Y0363500D01*
X0261130Y0351000D01*
X0261937Y0351000D01*
X0271130Y0343500D02*
X0271130Y0321000D01*
X0271937Y0321000D01*
X0261937Y0321000D02*
X0261130Y0321000D01*
X0261130Y0308500D01*
X0261937Y0306512D01*
X0263630Y0296000D02*
X0261937Y0295488D01*
X0263630Y0296000D02*
X0281130Y0296000D01*
X0281937Y0295488D01*
X0283630Y0296000D01*
X0301130Y0296000D01*
X0301937Y0295488D01*
X0303630Y0296000D01*
X0321130Y0296000D01*
X0321937Y0295488D01*
X0323630Y0293500D01*
X0328630Y0288500D01*
X0328630Y0261000D01*
X0351130Y0266000D02*
X0352961Y0264780D01*
X0351130Y0266000D02*
X0351130Y0288500D01*
X0348630Y0291000D01*
X0362630Y0286000D02*
X0362961Y0285669D01*
X0362961Y0264780D01*
X0366130Y0276000D02*
X0366130Y0318500D01*
X0363630Y0321000D01*
X0362685Y0321000D01*
X0358630Y0323500D02*
X0371130Y0336000D01*
X0493630Y0336000D01*
X0493630Y0253500D01*
X0498630Y0248500D01*
X0498630Y0247969D01*
X0493630Y0248500D02*
X0493630Y0191000D01*
X0493630Y0188500D01*
X0506130Y0176000D01*
X0507567Y0175291D01*
X0516130Y0176000D02*
X0517567Y0175291D01*
X0516130Y0176000D02*
X0503630Y0188500D01*
X0503630Y0251000D01*
X0498630Y0256000D01*
X0498630Y0257969D01*
X0503630Y0256000D02*
X0508630Y0251000D01*
X0508630Y0247969D01*
X0513630Y0251000D02*
X0513630Y0196000D01*
X0528630Y0181000D01*
X0528630Y0176000D01*
X0527567Y0175291D01*
X0528630Y0181000D02*
X0538630Y0181000D01*
X0546130Y0173500D01*
X0546130Y0146000D01*
X0543630Y0143500D01*
X0548630Y0138500D02*
X0548630Y0236000D01*
X0538630Y0246000D01*
X0528630Y0247969D02*
X0528630Y0248500D01*
X0523630Y0253500D01*
X0523630Y0261000D01*
X0516130Y0268500D01*
X0516130Y0303500D01*
X0508630Y0311000D01*
X0527370Y0306512D02*
X0528630Y0308500D01*
X0528630Y0321000D01*
X0527370Y0321000D01*
X0537370Y0321000D02*
X0538630Y0321000D01*
X0541130Y0318500D01*
X0541130Y0303500D01*
X0543630Y0301000D01*
X0553630Y0301000D01*
X0553630Y0271000D01*
X0543630Y0261000D01*
X0513630Y0251000D02*
X0508630Y0256000D01*
X0508630Y0257969D01*
X0503630Y0256000D02*
X0503630Y0341000D01*
X0371130Y0341000D01*
X0361130Y0331000D01*
X0358630Y0323500D02*
X0358630Y0028500D01*
X0321130Y0028500D01*
X0316130Y0033500D01*
X0314969Y0035370D01*
X0301130Y0051000D02*
X0296130Y0046000D01*
X0294969Y0045370D01*
X0284969Y0045370D02*
X0283630Y0046000D01*
X0271130Y0058500D01*
X0271130Y0061000D01*
X0263630Y0068500D02*
X0263630Y0081000D01*
X0264969Y0082614D01*
X0263630Y0083500D01*
X0258630Y0088500D01*
X0258630Y0116000D01*
X0263630Y0121000D01*
X0263630Y0123500D01*
X0264969Y0125921D01*
X0263630Y0126000D01*
X0258630Y0131000D01*
X0258630Y0136000D01*
X0266130Y0143500D01*
X0266130Y0163500D01*
X0264969Y0165291D01*
X0253630Y0158500D02*
X0251130Y0156000D01*
X0251130Y0131000D01*
X0253630Y0128500D01*
X0253630Y0073500D01*
X0258630Y0068500D01*
X0256130Y0066000D01*
X0256130Y0036000D01*
X0211130Y0081000D01*
X0211130Y0256000D01*
X0186130Y0281000D01*
X0185874Y0281315D01*
X0176130Y0281000D02*
X0175874Y0281315D01*
X0176130Y0281000D02*
X0208630Y0248500D01*
X0208630Y0151000D01*
X0206130Y0151000D01*
X0208630Y0151000D02*
X0208630Y0078500D01*
X0258630Y0028500D01*
X0283630Y0028500D01*
X0283630Y0033500D01*
X0284969Y0035370D01*
X0286130Y0033500D01*
X0298630Y0021000D01*
X0274969Y0035370D02*
X0273630Y0033500D01*
X0273630Y0031000D01*
X0261130Y0031000D01*
X0256130Y0036000D01*
X0258630Y0041000D02*
X0258630Y0063500D01*
X0263630Y0068500D01*
X0266130Y0071000D02*
X0266130Y0046000D01*
X0264969Y0045370D01*
X0258630Y0041000D02*
X0263630Y0036000D01*
X0264969Y0035370D01*
X0251130Y0056000D02*
X0213630Y0093500D01*
X0213630Y0333500D01*
X0223630Y0343500D01*
X0271130Y0343500D01*
X0281130Y0351000D02*
X0281937Y0351000D01*
X0281130Y0351000D02*
X0281130Y0363500D01*
X0281937Y0365488D01*
X0301130Y0363500D02*
X0301130Y0351000D01*
X0301937Y0351000D01*
X0301130Y0363500D02*
X0301937Y0365488D01*
X0321130Y0363500D02*
X0321130Y0351000D01*
X0321937Y0351000D01*
X0321130Y0363500D02*
X0321937Y0365488D01*
X0338630Y0378500D02*
X0371130Y0378500D01*
X0372685Y0376512D01*
X0373630Y0378500D01*
X0391130Y0378500D01*
X0392685Y0376512D01*
X0393630Y0378500D01*
X0411130Y0378500D01*
X0412685Y0376512D01*
X0413630Y0378500D01*
X0431130Y0378500D01*
X0432685Y0376512D01*
X0433630Y0378500D01*
X0486130Y0378500D01*
X0487370Y0376512D01*
X0488630Y0378500D01*
X0506130Y0378500D01*
X0507370Y0376512D01*
X0508630Y0378500D01*
X0526130Y0378500D01*
X0527370Y0376512D01*
X0528630Y0378500D01*
X0546130Y0378500D01*
X0547370Y0376512D01*
X0551130Y0371000D02*
X0518630Y0371000D01*
X0518630Y0351000D01*
X0517370Y0351000D01*
X0508630Y0351000D02*
X0507370Y0351000D01*
X0508630Y0351000D02*
X0508630Y0363500D01*
X0507370Y0365488D01*
X0488630Y0363500D02*
X0488630Y0351000D01*
X0487370Y0351000D01*
X0488630Y0363500D02*
X0487370Y0365488D01*
X0527370Y0365488D02*
X0528630Y0363500D01*
X0528630Y0351000D01*
X0527370Y0351000D01*
X0537370Y0351000D02*
X0538630Y0351000D01*
X0538630Y0346000D01*
X0551130Y0346000D01*
X0556130Y0351000D01*
X0556130Y0386000D01*
X0206130Y0386000D01*
X0161130Y0341000D01*
X0161130Y0338500D01*
X0158630Y0336000D01*
X0159004Y0335226D01*
X0163630Y0336000D02*
X0166130Y0338500D01*
X0166130Y0341000D01*
X0208630Y0383500D01*
X0553630Y0383500D01*
X0553630Y0373500D01*
X0551130Y0371000D01*
X0547370Y0365488D02*
X0548630Y0363500D01*
X0548630Y0351000D01*
X0547370Y0351000D01*
X0547370Y0321000D02*
X0548630Y0321000D01*
X0548630Y0308500D01*
X0547370Y0306512D01*
X0546130Y0296000D02*
X0547370Y0295488D01*
X0546130Y0296000D02*
X0528630Y0296000D01*
X0527370Y0295488D01*
X0526130Y0293500D01*
X0523630Y0291000D01*
X0523630Y0288500D01*
X0483630Y0293500D02*
X0483630Y0253500D01*
X0488630Y0248500D01*
X0488630Y0247969D01*
X0483630Y0248500D02*
X0483630Y0246000D01*
X0488630Y0241000D01*
X0488630Y0183500D01*
X0496130Y0176000D01*
X0497567Y0175291D01*
X0487567Y0175291D02*
X0486130Y0176000D01*
X0486130Y0191000D01*
X0473630Y0191000D01*
X0468630Y0186000D01*
X0468630Y0151000D01*
X0468630Y0146000D02*
X0476130Y0153500D01*
X0476130Y0163500D01*
X0477567Y0165291D01*
X0463630Y0158500D02*
X0463630Y0133500D01*
X0468630Y0133500D02*
X0468630Y0146000D01*
X0481130Y0148500D02*
X0481130Y0141000D01*
X0486130Y0136000D01*
X0487567Y0135921D01*
X0496130Y0146000D02*
X0506130Y0136000D01*
X0507567Y0135921D01*
X0537567Y0135921D02*
X0538630Y0136000D01*
X0538630Y0158500D01*
X0543630Y0163500D01*
X0543630Y0168500D01*
X0538630Y0173500D01*
X0537567Y0175291D01*
X0476130Y0126000D02*
X0468630Y0133500D01*
X0476130Y0126000D02*
X0477567Y0125921D01*
X0436130Y0128500D02*
X0431130Y0133500D01*
X0431268Y0135921D01*
X0433630Y0136000D01*
X0436130Y0138500D01*
X0436130Y0171000D01*
X0433630Y0173500D01*
X0431268Y0175291D01*
X0416130Y0178500D02*
X0441130Y0203500D01*
X0441130Y0326000D01*
X0428630Y0326000D01*
X0423630Y0321000D01*
X0422685Y0321000D01*
X0432685Y0321000D02*
X0433630Y0321000D01*
X0433630Y0308500D01*
X0432685Y0306512D01*
X0431130Y0296000D02*
X0432685Y0295488D01*
X0433630Y0293500D01*
X0433630Y0291000D01*
X0436130Y0288500D01*
X0431130Y0296000D02*
X0413630Y0296000D01*
X0412685Y0295488D01*
X0411130Y0296000D01*
X0393630Y0296000D01*
X0392685Y0295488D01*
X0391130Y0296000D01*
X0373630Y0296000D01*
X0372685Y0295488D01*
X0371130Y0293500D01*
X0371130Y0253500D01*
X0363630Y0246000D01*
X0362961Y0245094D01*
X0392331Y0245094D02*
X0393630Y0246000D01*
X0393630Y0261000D01*
X0418630Y0286000D01*
X0412685Y0306512D02*
X0413630Y0308500D01*
X0413630Y0321000D01*
X0412685Y0321000D01*
X0403630Y0321000D02*
X0402685Y0321000D01*
X0403630Y0321000D02*
X0416130Y0333500D01*
X0443630Y0333500D01*
X0448630Y0328500D02*
X0463630Y0313500D01*
X0463630Y0271000D01*
X0436130Y0238500D02*
X0413630Y0216000D01*
X0413630Y0176000D01*
X0411268Y0175291D01*
X0411130Y0173500D01*
X0406130Y0168500D01*
X0411268Y0165291D02*
X0413630Y0163500D01*
X0416130Y0161000D01*
X0421268Y0135921D02*
X0421130Y0133500D01*
X0426130Y0128500D01*
X0416130Y0118500D02*
X0411130Y0123500D01*
X0411268Y0125921D01*
X0371130Y0133500D02*
X0371268Y0135921D01*
X0371130Y0133500D02*
X0366130Y0128500D01*
X0333630Y0131000D02*
X0333630Y0186000D01*
X0318630Y0201000D01*
X0313630Y0181000D02*
X0293630Y0201000D01*
X0276130Y0183500D02*
X0246130Y0183500D01*
X0246130Y0146000D01*
X0246130Y0098500D01*
X0263630Y0093500D02*
X0264969Y0092614D01*
X0263630Y0093500D02*
X0263630Y0106000D01*
X0268630Y0103500D02*
X0268630Y0098500D01*
X0273630Y0093500D01*
X0274969Y0092614D01*
X0268630Y0073500D02*
X0266130Y0071000D01*
X0298630Y0056000D02*
X0311130Y0068500D01*
X0311130Y0078500D01*
X0313630Y0081000D01*
X0314969Y0082614D01*
X0306130Y0081000D02*
X0304969Y0082614D01*
X0306130Y0081000D02*
X0306130Y0068500D01*
X0338630Y0051000D02*
X0338630Y0103500D01*
X0366130Y0083500D02*
X0366130Y0051000D01*
X0371130Y0046000D01*
X0371268Y0045370D01*
X0398630Y0048500D02*
X0401130Y0046000D01*
X0401268Y0045370D01*
X0406130Y0038500D02*
X0403630Y0036000D01*
X0401268Y0035370D01*
X0421268Y0035370D02*
X0423630Y0036000D01*
X0428630Y0041000D01*
X0291130Y0141000D02*
X0286130Y0136000D01*
X0284969Y0135921D01*
X0291130Y0141000D02*
X0326130Y0141000D01*
X0314969Y0175291D02*
X0313630Y0176000D01*
X0313630Y0181000D01*
X0304969Y0175291D02*
X0303630Y0176000D01*
X0261130Y0218500D01*
X0253630Y0218500D02*
X0278630Y0243500D01*
X0280283Y0245094D01*
X0290283Y0245094D02*
X0276630Y0231441D01*
X0276630Y0227000D01*
X0260283Y0234654D02*
X0255630Y0230000D01*
X0260283Y0234654D02*
X0260283Y0245094D01*
X0250283Y0245094D02*
X0248630Y0243500D01*
X0248630Y0238500D01*
X0228630Y0238500D01*
X0221130Y0246000D01*
X0221130Y0331000D01*
X0218630Y0333500D01*
X0223630Y0338500D02*
X0223630Y0256000D01*
X0228630Y0251000D01*
X0238630Y0251000D01*
X0238630Y0246000D01*
X0240283Y0245094D01*
X0230283Y0256906D02*
X0228630Y0258500D01*
X0228630Y0303500D01*
X0233630Y0296000D02*
X0233630Y0273500D01*
X0248630Y0258500D01*
X0250283Y0256906D01*
X0258630Y0258500D02*
X0260283Y0256906D01*
X0258630Y0258500D02*
X0238630Y0278500D01*
X0238630Y0328500D01*
X0281130Y0321000D02*
X0281130Y0308500D01*
X0281937Y0306512D01*
X0301130Y0308500D02*
X0301937Y0306512D01*
X0301130Y0308500D02*
X0301130Y0321000D01*
X0301937Y0321000D01*
X0298630Y0326000D02*
X0333630Y0326000D01*
X0321937Y0321000D02*
X0321130Y0321000D01*
X0321130Y0308500D01*
X0321937Y0306512D01*
X0298630Y0326000D02*
X0293630Y0321000D01*
X0291937Y0321000D01*
X0281937Y0321000D02*
X0281130Y0321000D01*
X0271130Y0271000D02*
X0271130Y0258500D01*
X0270283Y0256906D01*
X0201630Y0286000D02*
X0201630Y0367000D01*
X0166130Y0381000D02*
X0166622Y0382890D01*
X0166130Y0383500D01*
X0161130Y0388500D01*
X0116130Y0388500D01*
X0116130Y0376000D01*
X0096130Y0356000D01*
X0096130Y0361000D01*
X0096130Y0373500D01*
X0096504Y0375469D01*
X0121130Y0371000D02*
X0131130Y0381000D01*
X0131890Y0382890D01*
X0138630Y0376000D02*
X0138630Y0338500D01*
X0136130Y0336000D01*
X0136878Y0335226D01*
X0141130Y0336000D02*
X0141878Y0335226D01*
X0141130Y0336000D02*
X0143630Y0338500D01*
X0143630Y0364000D01*
X0146130Y0361000D02*
X0146130Y0331000D01*
X0143630Y0328500D01*
X0131130Y0328500D01*
X0131130Y0313500D01*
X0131878Y0311026D01*
X0128630Y0308500D02*
X0128630Y0306000D01*
X0131130Y0303500D01*
X0141130Y0303500D01*
X0141130Y0276000D01*
X0143630Y0273500D01*
X0143630Y0253500D01*
X0145874Y0251315D01*
X0138630Y0248500D02*
X0138630Y0233500D01*
X0133630Y0233500D02*
X0186130Y0181000D01*
X0186130Y0188500D02*
X0186130Y0251000D01*
X0185874Y0251315D01*
X0180630Y0246559D02*
X0180630Y0199000D01*
X0180630Y0195000D02*
X0176630Y0195000D01*
X0171630Y0200000D01*
X0171630Y0255500D01*
X0163630Y0263500D01*
X0163630Y0268500D02*
X0168630Y0263500D01*
X0163630Y0268500D02*
X0151130Y0268500D01*
X0151130Y0298500D01*
X0158630Y0306000D01*
X0158630Y0311000D01*
X0159004Y0311026D01*
X0163630Y0311000D02*
X0164004Y0311026D01*
X0163630Y0311000D02*
X0163630Y0306000D01*
X0161130Y0303500D01*
X0154004Y0311026D02*
X0153630Y0313500D01*
X0146130Y0313500D01*
X0141878Y0311026D02*
X0141130Y0313500D01*
X0141130Y0318500D01*
X0166130Y0318500D01*
X0168630Y0316000D01*
X0168630Y0313500D01*
X0169004Y0311026D01*
X0168630Y0311000D01*
X0173630Y0311000D01*
X0174004Y0311026D01*
X0173630Y0311000D02*
X0173630Y0303500D01*
X0186130Y0303500D01*
X0188630Y0306000D01*
X0188630Y0311000D01*
X0189004Y0311026D01*
X0179004Y0311026D02*
X0178630Y0313500D01*
X0178630Y0328500D01*
X0164004Y0335226D02*
X0163630Y0336000D01*
X0133630Y0338500D02*
X0131130Y0336000D01*
X0131878Y0335226D01*
X0133630Y0338500D02*
X0133630Y0371000D01*
X0143087Y0382890D02*
X0143630Y0383500D01*
X0153630Y0383500D01*
X0155598Y0382890D01*
X0166130Y0381000D02*
X0146130Y0361000D01*
X0128630Y0346000D02*
X0128630Y0338500D01*
X0126130Y0336000D01*
X0126878Y0335226D01*
X0123630Y0338500D02*
X0123630Y0343500D01*
X0123630Y0338500D02*
X0121130Y0336000D01*
X0121878Y0335226D01*
X0118630Y0338500D02*
X0118630Y0343500D01*
X0118630Y0338500D02*
X0116130Y0336000D01*
X0116878Y0335226D01*
X0113630Y0338500D02*
X0113630Y0343500D01*
X0113630Y0338500D02*
X0111130Y0336000D01*
X0111878Y0335226D01*
X0106878Y0335226D02*
X0106130Y0333500D01*
X0106130Y0321000D01*
X0086130Y0321000D01*
X0084267Y0320541D01*
X0083630Y0321000D01*
X0061630Y0321000D01*
X0061630Y0329000D01*
X0060589Y0330041D01*
X0050867Y0330041D01*
X0050867Y0333141D02*
X0048630Y0333500D01*
X0043630Y0333500D01*
X0023483Y0333500D01*
X0018052Y0338931D01*
X0018630Y0341000D01*
X0018630Y0363500D01*
X0018052Y0364531D01*
X0035852Y0364531D02*
X0036130Y0366000D01*
X0036130Y0383500D01*
X0056130Y0383500D01*
X0061130Y0378500D01*
X0061130Y0368500D01*
X0061504Y0367102D01*
X0063630Y0366000D01*
X0066130Y0363500D01*
X0066130Y0346000D01*
X0065967Y0345141D01*
X0062867Y0345141D02*
X0062867Y0351763D01*
X0059667Y0355963D02*
X0059667Y0345141D01*
X0056567Y0345141D02*
X0056130Y0346000D01*
X0056130Y0376000D01*
X0050480Y0367102D02*
X0048630Y0366000D01*
X0036130Y0363500D02*
X0035852Y0364531D01*
X0036130Y0363500D02*
X0036130Y0341000D01*
X0035852Y0338931D01*
X0046130Y0338500D02*
X0046130Y0336000D01*
X0048630Y0336000D01*
X0050867Y0336341D01*
X0050867Y0339441D02*
X0050867Y0342763D01*
X0050630Y0343000D01*
X0043630Y0333500D02*
X0038630Y0328500D01*
X0038236Y0327631D01*
X0039026Y0326841D01*
X0050867Y0326841D01*
X0050867Y0323741D02*
X0051130Y0323500D01*
X0056130Y0323500D01*
X0058630Y0321000D01*
X0061630Y0321000D01*
X0068630Y0324000D02*
X0068630Y0330000D01*
X0075362Y0330000D01*
X0078269Y0332907D01*
X0078269Y0336152D01*
X0080808Y0338691D01*
X0083517Y0338691D01*
X0084267Y0339441D01*
X0084267Y0336341D02*
X0086130Y0336000D01*
X0091130Y0336000D01*
X0091130Y0338500D01*
X0092630Y0344000D02*
X0082630Y0344000D01*
X0078630Y0345078D02*
X0078630Y0341000D01*
X0078630Y0345078D02*
X0078567Y0345141D01*
X0078630Y0346000D01*
X0075467Y0345141D02*
X0075467Y0334163D01*
X0075630Y0334000D01*
X0071630Y0327000D02*
X0071789Y0326841D01*
X0084267Y0326841D01*
X0084267Y0323741D02*
X0086130Y0323500D01*
X0101130Y0323500D01*
X0101130Y0338500D01*
X0106130Y0338500D02*
X0106130Y0336000D01*
X0106878Y0335226D01*
X0106130Y0338500D02*
X0096130Y0348500D01*
X0096130Y0356000D01*
X0090630Y0352000D02*
X0076517Y0352000D01*
X0073117Y0348600D01*
X0073117Y0345991D01*
X0072267Y0345141D01*
X0069167Y0345141D02*
X0069167Y0339537D01*
X0068630Y0339000D01*
X0084267Y0333141D02*
X0086130Y0333500D01*
X0096130Y0333500D01*
X0088491Y0330000D02*
X0084308Y0330000D01*
X0084267Y0330041D01*
X0084267Y0317441D02*
X0087189Y0317441D01*
X0090630Y0314000D01*
X0090630Y0259000D01*
X0101630Y0248000D01*
X0101630Y0204000D01*
X0105130Y0197500D02*
X0111130Y0203500D01*
X0111130Y0258500D01*
X0118130Y0258500D01*
X0125630Y0266000D01*
X0125630Y0281071D01*
X0125874Y0281315D01*
X0131130Y0286000D02*
X0131130Y0276000D01*
X0141130Y0266000D01*
X0141130Y0243500D01*
X0148630Y0243500D01*
X0151130Y0246000D01*
X0151130Y0268500D01*
X0145874Y0281315D02*
X0146130Y0283500D01*
X0146130Y0293500D01*
X0155630Y0294000D02*
X0165874Y0283756D01*
X0165874Y0281315D01*
X0131130Y0286000D02*
X0111130Y0306000D01*
X0111130Y0311000D01*
X0111878Y0311026D01*
X0116130Y0311000D02*
X0118630Y0308500D01*
X0118630Y0303500D01*
X0111130Y0306000D02*
X0108630Y0303500D01*
X0106878Y0311026D02*
X0106130Y0313500D01*
X0103630Y0316000D01*
X0116130Y0311000D02*
X0116878Y0311026D01*
X0121130Y0313500D02*
X0121878Y0311026D01*
X0121130Y0313500D02*
X0121130Y0328500D01*
X0126130Y0318500D02*
X0126130Y0313500D01*
X0126878Y0311026D01*
X0126130Y0311000D01*
X0128630Y0308500D01*
X0136878Y0311026D02*
X0136130Y0313500D01*
X0136130Y0323500D01*
X0141130Y0311000D02*
X0141878Y0311026D01*
X0141130Y0311000D02*
X0141130Y0303500D01*
X0099630Y0295000D02*
X0099630Y0287000D01*
X0099630Y0269000D02*
X0100130Y0268500D01*
X0122130Y0268500D01*
X0125874Y0251315D02*
X0126130Y0251000D01*
X0133630Y0243500D01*
X0133630Y0233500D01*
X0131130Y0236000D02*
X0131130Y0202000D01*
X0105130Y0197500D02*
X0097130Y0197500D01*
X0063630Y0231000D01*
X0063630Y0248500D01*
X0056130Y0256000D01*
X0056130Y0311000D01*
X0056567Y0311741D01*
X0059630Y0311704D02*
X0059667Y0311741D01*
X0059630Y0311704D02*
X0059630Y0272000D01*
X0053630Y0273500D02*
X0053630Y0246000D01*
X0055205Y0245094D01*
X0068630Y0236000D02*
X0068630Y0311000D01*
X0069167Y0311741D01*
X0072267Y0311741D02*
X0072267Y0237363D01*
X0072630Y0237000D01*
X0078630Y0232268D02*
X0092130Y0218768D01*
X0092130Y0208500D01*
X0076130Y0223500D02*
X0076130Y0311000D01*
X0075467Y0311741D01*
X0078567Y0311741D02*
X0078630Y0311000D01*
X0078630Y0232268D01*
X0085630Y0240000D02*
X0085630Y0308000D01*
X0065967Y0311741D02*
X0065967Y0257337D01*
X0064630Y0256000D01*
X0053630Y0273500D02*
X0038630Y0288500D01*
X0037606Y0290961D01*
X0038630Y0291000D01*
X0039630Y0306000D02*
X0024630Y0306000D01*
X0024630Y0319657D01*
X0031386Y0326413D01*
X0036130Y0326000D02*
X0037685Y0326413D01*
X0038236Y0327631D01*
X0036130Y0326000D02*
X0036130Y0324500D01*
X0032630Y0320000D01*
X0032630Y0317500D01*
X0031386Y0317752D01*
X0031130Y0316000D01*
X0031386Y0317752D02*
X0031130Y0318500D01*
X0037685Y0317752D02*
X0040474Y0320541D01*
X0050867Y0320541D01*
X0050867Y0317441D02*
X0050867Y0317237D01*
X0039630Y0306000D01*
X0019630Y0292000D02*
X0018630Y0293000D01*
X0018630Y0338500D01*
X0018052Y0338931D01*
X0048630Y0323500D02*
X0050867Y0323741D01*
X0062867Y0311741D02*
X0062867Y0287237D01*
X0062630Y0287000D01*
X0019630Y0292000D02*
X0018630Y0291000D01*
X0017606Y0290961D01*
X0018630Y0288500D01*
X0018630Y0258500D01*
X0031130Y0246000D01*
X0031189Y0245094D01*
X0033630Y0243500D01*
X0041130Y0236000D01*
X0041130Y0228500D01*
X0043000Y0226197D01*
X0085630Y0240000D02*
X0095630Y0230000D01*
X0116130Y0251000D02*
X0115874Y0251315D01*
X0116130Y0251000D02*
X0131130Y0236000D01*
X0138630Y0248500D02*
X0136130Y0251000D01*
X0135874Y0251315D01*
X0155874Y0251315D02*
X0155874Y0224756D01*
X0156630Y0224000D01*
X0165630Y0224000D02*
X0165874Y0224756D01*
X0165874Y0251315D01*
X0175874Y0251315D02*
X0180630Y0246559D01*
X0258630Y0181000D02*
X0258630Y0153500D01*
X0261130Y0151000D01*
X0261130Y0143500D01*
X0256130Y0151000D02*
X0256130Y0123500D01*
X0258630Y0121000D01*
X0274969Y0175291D02*
X0273630Y0176000D01*
X0268630Y0181000D01*
X0258630Y0181000D01*
X0276130Y0183500D02*
X0283630Y0176000D01*
X0284969Y0175291D01*
X0393630Y0201000D02*
X0426130Y0233500D01*
X0392685Y0306512D02*
X0393630Y0308500D01*
X0393630Y0321000D01*
X0392685Y0321000D01*
X0373630Y0321000D02*
X0373630Y0308500D01*
X0372685Y0306512D01*
X0372685Y0321000D02*
X0373630Y0321000D01*
X0373630Y0351000D02*
X0372685Y0351000D01*
X0373630Y0351000D02*
X0373630Y0363500D01*
X0372685Y0365488D01*
X0392685Y0365488D02*
X0393630Y0363500D01*
X0393630Y0351000D01*
X0392685Y0351000D01*
X0412685Y0351000D02*
X0413630Y0351000D01*
X0413630Y0363500D01*
X0412685Y0365488D01*
X0432685Y0365488D02*
X0433630Y0363500D01*
X0433630Y0351000D01*
X0432685Y0351000D01*
D31*
X0099630Y0367000D02*
X0099063Y0367567D01*
X0099063Y0375469D01*
X0093945Y0375469D02*
X0093945Y0374426D01*
X0093798Y0374280D01*
X0093798Y0369169D01*
X0089630Y0365000D01*
X0072630Y0365000D01*
X0072630Y0352000D01*
X0069630Y0356000D02*
X0069630Y0368000D01*
X0070630Y0369000D01*
X0087854Y0369000D01*
X0091064Y0372210D01*
X0091064Y0375147D01*
X0091386Y0375469D01*
X0096130Y0361000D02*
X0078630Y0361000D01*
X0062867Y0351763D02*
X0062630Y0352000D01*
X0059667Y0355963D02*
X0059630Y0356000D01*
X0048630Y0361000D02*
X0048630Y0365252D01*
X0050480Y0367102D01*
D32*
X0048630Y0361000D03*
X0059630Y0356000D03*
X0062630Y0352000D03*
X0069630Y0356000D03*
X0072630Y0352000D03*
X0078630Y0361000D03*
X0090630Y0352000D03*
X0092630Y0344000D03*
X0082630Y0344000D03*
X0078630Y0341000D03*
X0075630Y0334000D03*
X0071630Y0327000D03*
X0068630Y0324000D03*
X0061630Y0321000D03*
X0085630Y0308000D03*
X0099630Y0295000D03*
X0099630Y0287000D03*
X0099630Y0269000D03*
X0122130Y0268500D03*
X0155630Y0294000D03*
X0163630Y0263500D03*
X0201630Y0286000D03*
X0255630Y0230000D03*
X0276630Y0227000D03*
X0295630Y0206000D03*
X0246130Y0183500D03*
X0180630Y0195000D03*
X0180630Y0199000D03*
X0165630Y0224000D03*
X0156630Y0224000D03*
X0101630Y0204000D03*
X0095630Y0230000D03*
X0072630Y0237000D03*
X0064630Y0256000D03*
X0059630Y0272000D03*
X0062630Y0287000D03*
X0088491Y0330000D03*
X0068630Y0339000D03*
X0050630Y0343000D03*
X0099630Y0367000D03*
X0201630Y0367000D03*
X0362630Y0286000D03*
D33*
X0366130Y0276000D03*
X0348630Y0291000D03*
X0343630Y0326000D03*
X0361130Y0331000D03*
X0418630Y0286000D03*
X0436130Y0288500D03*
X0436130Y0268500D03*
X0436130Y0263500D03*
X0436130Y0238500D03*
X0426130Y0233500D03*
X0483630Y0248500D03*
X0493630Y0248500D03*
X0543630Y0246000D03*
X0523630Y0288500D03*
X0508630Y0311000D03*
X0483630Y0293500D03*
X0448630Y0328500D03*
X0493630Y0336000D03*
X0338630Y0236000D03*
X0333630Y0228500D03*
X0328630Y0261000D03*
X0271130Y0271000D03*
X0233630Y0296000D03*
X0228630Y0303500D03*
X0238630Y0328500D03*
X0223630Y0338500D03*
X0218630Y0333500D03*
X0178630Y0328500D03*
X0161130Y0303500D03*
X0146130Y0293500D03*
X0146130Y0313500D03*
X0136130Y0323500D03*
X0126130Y0318500D03*
X0121130Y0328500D03*
X0103630Y0316000D03*
X0108630Y0303500D03*
X0118630Y0303500D03*
X0096130Y0333500D03*
X0101130Y0338500D03*
X0091130Y0338500D03*
X0113630Y0343500D03*
X0118630Y0343500D03*
X0123630Y0343500D03*
X0128630Y0346000D03*
X0143630Y0364000D03*
X0133630Y0371000D03*
X0138630Y0376000D03*
X0121130Y0371000D03*
X0056130Y0376000D03*
X0046130Y0338500D03*
X0111130Y0258500D03*
X0138630Y0233500D03*
X0131130Y0202000D03*
X0092130Y0208500D03*
X0076130Y0223500D03*
X0068630Y0236000D03*
X0168630Y0263500D03*
X0253630Y0218500D03*
X0261130Y0218500D03*
X0276130Y0213500D03*
X0281130Y0213500D03*
X0291130Y0218500D03*
X0318630Y0196000D03*
X0343630Y0176000D03*
X0326130Y0141000D03*
X0333630Y0131000D03*
X0338630Y0131000D03*
X0366130Y0111000D03*
X0338630Y0103500D03*
X0333630Y0098500D03*
X0306130Y0068500D03*
X0298630Y0056000D03*
X0321130Y0048500D03*
X0333630Y0053500D03*
X0298630Y0026000D03*
X0251130Y0056000D03*
X0258630Y0068500D03*
X0268630Y0073500D03*
X0271130Y0061000D03*
X0246130Y0098500D03*
X0263630Y0106000D03*
X0268630Y0103500D03*
X0258630Y0121000D03*
X0251130Y0131000D03*
X0246130Y0146000D03*
X0256130Y0151000D03*
X0261130Y0143500D03*
X0253630Y0158500D03*
X0206130Y0151000D03*
X0186130Y0181000D03*
X0186130Y0188500D03*
X0381130Y0063500D03*
X0398630Y0098500D03*
X0438630Y0083500D03*
X0486130Y0116000D03*
X0458630Y0136000D03*
X0468630Y0151000D03*
X0463630Y0158500D03*
X0481130Y0148500D03*
X0496130Y0146000D03*
X0543630Y0143500D03*
X0556130Y0131000D03*
X0473630Y0186000D03*
X0458630Y0176000D03*
X0493630Y0191000D03*
X0401130Y0191000D03*
X0403630Y0153500D03*
X0398630Y0148500D03*
X0441130Y0126000D03*
M02*
