G75*
%MOIN*%
%OFA0B0*%
%FSLAX25Y25*%
%IPPOS*%
%LPD*%
%AMOC8*
5,1,8,0,0,1.08239X$1,22.5*
%
%ADD10C,0.00000*%
%ADD11C,0.12998*%
%ADD12C,0.05707*%
%ADD13C,0.06337*%
%ADD14OC8,0.06337*%
D10*
X0001000Y0001000D02*
X0001000Y0197850D01*
X0945882Y0197850D01*
X0945882Y0001000D01*
X0001000Y0001000D01*
X0006512Y0012811D02*
X0006514Y0012969D01*
X0006520Y0013127D01*
X0006530Y0013285D01*
X0006544Y0013443D01*
X0006562Y0013600D01*
X0006583Y0013757D01*
X0006609Y0013913D01*
X0006639Y0014069D01*
X0006672Y0014224D01*
X0006710Y0014377D01*
X0006751Y0014530D01*
X0006796Y0014682D01*
X0006845Y0014833D01*
X0006898Y0014982D01*
X0006954Y0015130D01*
X0007014Y0015276D01*
X0007078Y0015421D01*
X0007146Y0015564D01*
X0007217Y0015706D01*
X0007291Y0015846D01*
X0007369Y0015983D01*
X0007451Y0016119D01*
X0007535Y0016253D01*
X0007624Y0016384D01*
X0007715Y0016513D01*
X0007810Y0016640D01*
X0007907Y0016765D01*
X0008008Y0016887D01*
X0008112Y0017006D01*
X0008219Y0017123D01*
X0008329Y0017237D01*
X0008442Y0017348D01*
X0008557Y0017457D01*
X0008675Y0017562D01*
X0008796Y0017664D01*
X0008919Y0017764D01*
X0009045Y0017860D01*
X0009173Y0017953D01*
X0009303Y0018043D01*
X0009436Y0018129D01*
X0009571Y0018213D01*
X0009707Y0018292D01*
X0009846Y0018369D01*
X0009987Y0018441D01*
X0010129Y0018511D01*
X0010273Y0018576D01*
X0010419Y0018638D01*
X0010566Y0018696D01*
X0010715Y0018751D01*
X0010865Y0018802D01*
X0011016Y0018849D01*
X0011168Y0018892D01*
X0011321Y0018931D01*
X0011476Y0018967D01*
X0011631Y0018998D01*
X0011787Y0019026D01*
X0011943Y0019050D01*
X0012100Y0019070D01*
X0012258Y0019086D01*
X0012415Y0019098D01*
X0012574Y0019106D01*
X0012732Y0019110D01*
X0012890Y0019110D01*
X0013048Y0019106D01*
X0013207Y0019098D01*
X0013364Y0019086D01*
X0013522Y0019070D01*
X0013679Y0019050D01*
X0013835Y0019026D01*
X0013991Y0018998D01*
X0014146Y0018967D01*
X0014301Y0018931D01*
X0014454Y0018892D01*
X0014606Y0018849D01*
X0014757Y0018802D01*
X0014907Y0018751D01*
X0015056Y0018696D01*
X0015203Y0018638D01*
X0015349Y0018576D01*
X0015493Y0018511D01*
X0015635Y0018441D01*
X0015776Y0018369D01*
X0015915Y0018292D01*
X0016051Y0018213D01*
X0016186Y0018129D01*
X0016319Y0018043D01*
X0016449Y0017953D01*
X0016577Y0017860D01*
X0016703Y0017764D01*
X0016826Y0017664D01*
X0016947Y0017562D01*
X0017065Y0017457D01*
X0017180Y0017348D01*
X0017293Y0017237D01*
X0017403Y0017123D01*
X0017510Y0017006D01*
X0017614Y0016887D01*
X0017715Y0016765D01*
X0017812Y0016640D01*
X0017907Y0016513D01*
X0017998Y0016384D01*
X0018087Y0016253D01*
X0018171Y0016119D01*
X0018253Y0015983D01*
X0018331Y0015846D01*
X0018405Y0015706D01*
X0018476Y0015564D01*
X0018544Y0015421D01*
X0018608Y0015276D01*
X0018668Y0015130D01*
X0018724Y0014982D01*
X0018777Y0014833D01*
X0018826Y0014682D01*
X0018871Y0014530D01*
X0018912Y0014377D01*
X0018950Y0014224D01*
X0018983Y0014069D01*
X0019013Y0013913D01*
X0019039Y0013757D01*
X0019060Y0013600D01*
X0019078Y0013443D01*
X0019092Y0013285D01*
X0019102Y0013127D01*
X0019108Y0012969D01*
X0019110Y0012811D01*
X0019108Y0012653D01*
X0019102Y0012495D01*
X0019092Y0012337D01*
X0019078Y0012179D01*
X0019060Y0012022D01*
X0019039Y0011865D01*
X0019013Y0011709D01*
X0018983Y0011553D01*
X0018950Y0011398D01*
X0018912Y0011245D01*
X0018871Y0011092D01*
X0018826Y0010940D01*
X0018777Y0010789D01*
X0018724Y0010640D01*
X0018668Y0010492D01*
X0018608Y0010346D01*
X0018544Y0010201D01*
X0018476Y0010058D01*
X0018405Y0009916D01*
X0018331Y0009776D01*
X0018253Y0009639D01*
X0018171Y0009503D01*
X0018087Y0009369D01*
X0017998Y0009238D01*
X0017907Y0009109D01*
X0017812Y0008982D01*
X0017715Y0008857D01*
X0017614Y0008735D01*
X0017510Y0008616D01*
X0017403Y0008499D01*
X0017293Y0008385D01*
X0017180Y0008274D01*
X0017065Y0008165D01*
X0016947Y0008060D01*
X0016826Y0007958D01*
X0016703Y0007858D01*
X0016577Y0007762D01*
X0016449Y0007669D01*
X0016319Y0007579D01*
X0016186Y0007493D01*
X0016051Y0007409D01*
X0015915Y0007330D01*
X0015776Y0007253D01*
X0015635Y0007181D01*
X0015493Y0007111D01*
X0015349Y0007046D01*
X0015203Y0006984D01*
X0015056Y0006926D01*
X0014907Y0006871D01*
X0014757Y0006820D01*
X0014606Y0006773D01*
X0014454Y0006730D01*
X0014301Y0006691D01*
X0014146Y0006655D01*
X0013991Y0006624D01*
X0013835Y0006596D01*
X0013679Y0006572D01*
X0013522Y0006552D01*
X0013364Y0006536D01*
X0013207Y0006524D01*
X0013048Y0006516D01*
X0012890Y0006512D01*
X0012732Y0006512D01*
X0012574Y0006516D01*
X0012415Y0006524D01*
X0012258Y0006536D01*
X0012100Y0006552D01*
X0011943Y0006572D01*
X0011787Y0006596D01*
X0011631Y0006624D01*
X0011476Y0006655D01*
X0011321Y0006691D01*
X0011168Y0006730D01*
X0011016Y0006773D01*
X0010865Y0006820D01*
X0010715Y0006871D01*
X0010566Y0006926D01*
X0010419Y0006984D01*
X0010273Y0007046D01*
X0010129Y0007111D01*
X0009987Y0007181D01*
X0009846Y0007253D01*
X0009707Y0007330D01*
X0009571Y0007409D01*
X0009436Y0007493D01*
X0009303Y0007579D01*
X0009173Y0007669D01*
X0009045Y0007762D01*
X0008919Y0007858D01*
X0008796Y0007958D01*
X0008675Y0008060D01*
X0008557Y0008165D01*
X0008442Y0008274D01*
X0008329Y0008385D01*
X0008219Y0008499D01*
X0008112Y0008616D01*
X0008008Y0008735D01*
X0007907Y0008857D01*
X0007810Y0008982D01*
X0007715Y0009109D01*
X0007624Y0009238D01*
X0007535Y0009369D01*
X0007451Y0009503D01*
X0007369Y0009639D01*
X0007291Y0009776D01*
X0007217Y0009916D01*
X0007146Y0010058D01*
X0007078Y0010201D01*
X0007014Y0010346D01*
X0006954Y0010492D01*
X0006898Y0010640D01*
X0006845Y0010789D01*
X0006796Y0010940D01*
X0006751Y0011092D01*
X0006710Y0011245D01*
X0006672Y0011398D01*
X0006639Y0011553D01*
X0006609Y0011709D01*
X0006583Y0011865D01*
X0006562Y0012022D01*
X0006544Y0012179D01*
X0006530Y0012337D01*
X0006520Y0012495D01*
X0006514Y0012653D01*
X0006512Y0012811D01*
X0006512Y0186039D02*
X0006514Y0186197D01*
X0006520Y0186355D01*
X0006530Y0186513D01*
X0006544Y0186671D01*
X0006562Y0186828D01*
X0006583Y0186985D01*
X0006609Y0187141D01*
X0006639Y0187297D01*
X0006672Y0187452D01*
X0006710Y0187605D01*
X0006751Y0187758D01*
X0006796Y0187910D01*
X0006845Y0188061D01*
X0006898Y0188210D01*
X0006954Y0188358D01*
X0007014Y0188504D01*
X0007078Y0188649D01*
X0007146Y0188792D01*
X0007217Y0188934D01*
X0007291Y0189074D01*
X0007369Y0189211D01*
X0007451Y0189347D01*
X0007535Y0189481D01*
X0007624Y0189612D01*
X0007715Y0189741D01*
X0007810Y0189868D01*
X0007907Y0189993D01*
X0008008Y0190115D01*
X0008112Y0190234D01*
X0008219Y0190351D01*
X0008329Y0190465D01*
X0008442Y0190576D01*
X0008557Y0190685D01*
X0008675Y0190790D01*
X0008796Y0190892D01*
X0008919Y0190992D01*
X0009045Y0191088D01*
X0009173Y0191181D01*
X0009303Y0191271D01*
X0009436Y0191357D01*
X0009571Y0191441D01*
X0009707Y0191520D01*
X0009846Y0191597D01*
X0009987Y0191669D01*
X0010129Y0191739D01*
X0010273Y0191804D01*
X0010419Y0191866D01*
X0010566Y0191924D01*
X0010715Y0191979D01*
X0010865Y0192030D01*
X0011016Y0192077D01*
X0011168Y0192120D01*
X0011321Y0192159D01*
X0011476Y0192195D01*
X0011631Y0192226D01*
X0011787Y0192254D01*
X0011943Y0192278D01*
X0012100Y0192298D01*
X0012258Y0192314D01*
X0012415Y0192326D01*
X0012574Y0192334D01*
X0012732Y0192338D01*
X0012890Y0192338D01*
X0013048Y0192334D01*
X0013207Y0192326D01*
X0013364Y0192314D01*
X0013522Y0192298D01*
X0013679Y0192278D01*
X0013835Y0192254D01*
X0013991Y0192226D01*
X0014146Y0192195D01*
X0014301Y0192159D01*
X0014454Y0192120D01*
X0014606Y0192077D01*
X0014757Y0192030D01*
X0014907Y0191979D01*
X0015056Y0191924D01*
X0015203Y0191866D01*
X0015349Y0191804D01*
X0015493Y0191739D01*
X0015635Y0191669D01*
X0015776Y0191597D01*
X0015915Y0191520D01*
X0016051Y0191441D01*
X0016186Y0191357D01*
X0016319Y0191271D01*
X0016449Y0191181D01*
X0016577Y0191088D01*
X0016703Y0190992D01*
X0016826Y0190892D01*
X0016947Y0190790D01*
X0017065Y0190685D01*
X0017180Y0190576D01*
X0017293Y0190465D01*
X0017403Y0190351D01*
X0017510Y0190234D01*
X0017614Y0190115D01*
X0017715Y0189993D01*
X0017812Y0189868D01*
X0017907Y0189741D01*
X0017998Y0189612D01*
X0018087Y0189481D01*
X0018171Y0189347D01*
X0018253Y0189211D01*
X0018331Y0189074D01*
X0018405Y0188934D01*
X0018476Y0188792D01*
X0018544Y0188649D01*
X0018608Y0188504D01*
X0018668Y0188358D01*
X0018724Y0188210D01*
X0018777Y0188061D01*
X0018826Y0187910D01*
X0018871Y0187758D01*
X0018912Y0187605D01*
X0018950Y0187452D01*
X0018983Y0187297D01*
X0019013Y0187141D01*
X0019039Y0186985D01*
X0019060Y0186828D01*
X0019078Y0186671D01*
X0019092Y0186513D01*
X0019102Y0186355D01*
X0019108Y0186197D01*
X0019110Y0186039D01*
X0019108Y0185881D01*
X0019102Y0185723D01*
X0019092Y0185565D01*
X0019078Y0185407D01*
X0019060Y0185250D01*
X0019039Y0185093D01*
X0019013Y0184937D01*
X0018983Y0184781D01*
X0018950Y0184626D01*
X0018912Y0184473D01*
X0018871Y0184320D01*
X0018826Y0184168D01*
X0018777Y0184017D01*
X0018724Y0183868D01*
X0018668Y0183720D01*
X0018608Y0183574D01*
X0018544Y0183429D01*
X0018476Y0183286D01*
X0018405Y0183144D01*
X0018331Y0183004D01*
X0018253Y0182867D01*
X0018171Y0182731D01*
X0018087Y0182597D01*
X0017998Y0182466D01*
X0017907Y0182337D01*
X0017812Y0182210D01*
X0017715Y0182085D01*
X0017614Y0181963D01*
X0017510Y0181844D01*
X0017403Y0181727D01*
X0017293Y0181613D01*
X0017180Y0181502D01*
X0017065Y0181393D01*
X0016947Y0181288D01*
X0016826Y0181186D01*
X0016703Y0181086D01*
X0016577Y0180990D01*
X0016449Y0180897D01*
X0016319Y0180807D01*
X0016186Y0180721D01*
X0016051Y0180637D01*
X0015915Y0180558D01*
X0015776Y0180481D01*
X0015635Y0180409D01*
X0015493Y0180339D01*
X0015349Y0180274D01*
X0015203Y0180212D01*
X0015056Y0180154D01*
X0014907Y0180099D01*
X0014757Y0180048D01*
X0014606Y0180001D01*
X0014454Y0179958D01*
X0014301Y0179919D01*
X0014146Y0179883D01*
X0013991Y0179852D01*
X0013835Y0179824D01*
X0013679Y0179800D01*
X0013522Y0179780D01*
X0013364Y0179764D01*
X0013207Y0179752D01*
X0013048Y0179744D01*
X0012890Y0179740D01*
X0012732Y0179740D01*
X0012574Y0179744D01*
X0012415Y0179752D01*
X0012258Y0179764D01*
X0012100Y0179780D01*
X0011943Y0179800D01*
X0011787Y0179824D01*
X0011631Y0179852D01*
X0011476Y0179883D01*
X0011321Y0179919D01*
X0011168Y0179958D01*
X0011016Y0180001D01*
X0010865Y0180048D01*
X0010715Y0180099D01*
X0010566Y0180154D01*
X0010419Y0180212D01*
X0010273Y0180274D01*
X0010129Y0180339D01*
X0009987Y0180409D01*
X0009846Y0180481D01*
X0009707Y0180558D01*
X0009571Y0180637D01*
X0009436Y0180721D01*
X0009303Y0180807D01*
X0009173Y0180897D01*
X0009045Y0180990D01*
X0008919Y0181086D01*
X0008796Y0181186D01*
X0008675Y0181288D01*
X0008557Y0181393D01*
X0008442Y0181502D01*
X0008329Y0181613D01*
X0008219Y0181727D01*
X0008112Y0181844D01*
X0008008Y0181963D01*
X0007907Y0182085D01*
X0007810Y0182210D01*
X0007715Y0182337D01*
X0007624Y0182466D01*
X0007535Y0182597D01*
X0007451Y0182731D01*
X0007369Y0182867D01*
X0007291Y0183004D01*
X0007217Y0183144D01*
X0007146Y0183286D01*
X0007078Y0183429D01*
X0007014Y0183574D01*
X0006954Y0183720D01*
X0006898Y0183868D01*
X0006845Y0184017D01*
X0006796Y0184168D01*
X0006751Y0184320D01*
X0006710Y0184473D01*
X0006672Y0184626D01*
X0006639Y0184781D01*
X0006609Y0184937D01*
X0006583Y0185093D01*
X0006562Y0185250D01*
X0006544Y0185407D01*
X0006530Y0185565D01*
X0006520Y0185723D01*
X0006514Y0185881D01*
X0006512Y0186039D01*
X0927772Y0186039D02*
X0927774Y0186197D01*
X0927780Y0186355D01*
X0927790Y0186513D01*
X0927804Y0186671D01*
X0927822Y0186828D01*
X0927843Y0186985D01*
X0927869Y0187141D01*
X0927899Y0187297D01*
X0927932Y0187452D01*
X0927970Y0187605D01*
X0928011Y0187758D01*
X0928056Y0187910D01*
X0928105Y0188061D01*
X0928158Y0188210D01*
X0928214Y0188358D01*
X0928274Y0188504D01*
X0928338Y0188649D01*
X0928406Y0188792D01*
X0928477Y0188934D01*
X0928551Y0189074D01*
X0928629Y0189211D01*
X0928711Y0189347D01*
X0928795Y0189481D01*
X0928884Y0189612D01*
X0928975Y0189741D01*
X0929070Y0189868D01*
X0929167Y0189993D01*
X0929268Y0190115D01*
X0929372Y0190234D01*
X0929479Y0190351D01*
X0929589Y0190465D01*
X0929702Y0190576D01*
X0929817Y0190685D01*
X0929935Y0190790D01*
X0930056Y0190892D01*
X0930179Y0190992D01*
X0930305Y0191088D01*
X0930433Y0191181D01*
X0930563Y0191271D01*
X0930696Y0191357D01*
X0930831Y0191441D01*
X0930967Y0191520D01*
X0931106Y0191597D01*
X0931247Y0191669D01*
X0931389Y0191739D01*
X0931533Y0191804D01*
X0931679Y0191866D01*
X0931826Y0191924D01*
X0931975Y0191979D01*
X0932125Y0192030D01*
X0932276Y0192077D01*
X0932428Y0192120D01*
X0932581Y0192159D01*
X0932736Y0192195D01*
X0932891Y0192226D01*
X0933047Y0192254D01*
X0933203Y0192278D01*
X0933360Y0192298D01*
X0933518Y0192314D01*
X0933675Y0192326D01*
X0933834Y0192334D01*
X0933992Y0192338D01*
X0934150Y0192338D01*
X0934308Y0192334D01*
X0934467Y0192326D01*
X0934624Y0192314D01*
X0934782Y0192298D01*
X0934939Y0192278D01*
X0935095Y0192254D01*
X0935251Y0192226D01*
X0935406Y0192195D01*
X0935561Y0192159D01*
X0935714Y0192120D01*
X0935866Y0192077D01*
X0936017Y0192030D01*
X0936167Y0191979D01*
X0936316Y0191924D01*
X0936463Y0191866D01*
X0936609Y0191804D01*
X0936753Y0191739D01*
X0936895Y0191669D01*
X0937036Y0191597D01*
X0937175Y0191520D01*
X0937311Y0191441D01*
X0937446Y0191357D01*
X0937579Y0191271D01*
X0937709Y0191181D01*
X0937837Y0191088D01*
X0937963Y0190992D01*
X0938086Y0190892D01*
X0938207Y0190790D01*
X0938325Y0190685D01*
X0938440Y0190576D01*
X0938553Y0190465D01*
X0938663Y0190351D01*
X0938770Y0190234D01*
X0938874Y0190115D01*
X0938975Y0189993D01*
X0939072Y0189868D01*
X0939167Y0189741D01*
X0939258Y0189612D01*
X0939347Y0189481D01*
X0939431Y0189347D01*
X0939513Y0189211D01*
X0939591Y0189074D01*
X0939665Y0188934D01*
X0939736Y0188792D01*
X0939804Y0188649D01*
X0939868Y0188504D01*
X0939928Y0188358D01*
X0939984Y0188210D01*
X0940037Y0188061D01*
X0940086Y0187910D01*
X0940131Y0187758D01*
X0940172Y0187605D01*
X0940210Y0187452D01*
X0940243Y0187297D01*
X0940273Y0187141D01*
X0940299Y0186985D01*
X0940320Y0186828D01*
X0940338Y0186671D01*
X0940352Y0186513D01*
X0940362Y0186355D01*
X0940368Y0186197D01*
X0940370Y0186039D01*
X0940368Y0185881D01*
X0940362Y0185723D01*
X0940352Y0185565D01*
X0940338Y0185407D01*
X0940320Y0185250D01*
X0940299Y0185093D01*
X0940273Y0184937D01*
X0940243Y0184781D01*
X0940210Y0184626D01*
X0940172Y0184473D01*
X0940131Y0184320D01*
X0940086Y0184168D01*
X0940037Y0184017D01*
X0939984Y0183868D01*
X0939928Y0183720D01*
X0939868Y0183574D01*
X0939804Y0183429D01*
X0939736Y0183286D01*
X0939665Y0183144D01*
X0939591Y0183004D01*
X0939513Y0182867D01*
X0939431Y0182731D01*
X0939347Y0182597D01*
X0939258Y0182466D01*
X0939167Y0182337D01*
X0939072Y0182210D01*
X0938975Y0182085D01*
X0938874Y0181963D01*
X0938770Y0181844D01*
X0938663Y0181727D01*
X0938553Y0181613D01*
X0938440Y0181502D01*
X0938325Y0181393D01*
X0938207Y0181288D01*
X0938086Y0181186D01*
X0937963Y0181086D01*
X0937837Y0180990D01*
X0937709Y0180897D01*
X0937579Y0180807D01*
X0937446Y0180721D01*
X0937311Y0180637D01*
X0937175Y0180558D01*
X0937036Y0180481D01*
X0936895Y0180409D01*
X0936753Y0180339D01*
X0936609Y0180274D01*
X0936463Y0180212D01*
X0936316Y0180154D01*
X0936167Y0180099D01*
X0936017Y0180048D01*
X0935866Y0180001D01*
X0935714Y0179958D01*
X0935561Y0179919D01*
X0935406Y0179883D01*
X0935251Y0179852D01*
X0935095Y0179824D01*
X0934939Y0179800D01*
X0934782Y0179780D01*
X0934624Y0179764D01*
X0934467Y0179752D01*
X0934308Y0179744D01*
X0934150Y0179740D01*
X0933992Y0179740D01*
X0933834Y0179744D01*
X0933675Y0179752D01*
X0933518Y0179764D01*
X0933360Y0179780D01*
X0933203Y0179800D01*
X0933047Y0179824D01*
X0932891Y0179852D01*
X0932736Y0179883D01*
X0932581Y0179919D01*
X0932428Y0179958D01*
X0932276Y0180001D01*
X0932125Y0180048D01*
X0931975Y0180099D01*
X0931826Y0180154D01*
X0931679Y0180212D01*
X0931533Y0180274D01*
X0931389Y0180339D01*
X0931247Y0180409D01*
X0931106Y0180481D01*
X0930967Y0180558D01*
X0930831Y0180637D01*
X0930696Y0180721D01*
X0930563Y0180807D01*
X0930433Y0180897D01*
X0930305Y0180990D01*
X0930179Y0181086D01*
X0930056Y0181186D01*
X0929935Y0181288D01*
X0929817Y0181393D01*
X0929702Y0181502D01*
X0929589Y0181613D01*
X0929479Y0181727D01*
X0929372Y0181844D01*
X0929268Y0181963D01*
X0929167Y0182085D01*
X0929070Y0182210D01*
X0928975Y0182337D01*
X0928884Y0182466D01*
X0928795Y0182597D01*
X0928711Y0182731D01*
X0928629Y0182867D01*
X0928551Y0183004D01*
X0928477Y0183144D01*
X0928406Y0183286D01*
X0928338Y0183429D01*
X0928274Y0183574D01*
X0928214Y0183720D01*
X0928158Y0183868D01*
X0928105Y0184017D01*
X0928056Y0184168D01*
X0928011Y0184320D01*
X0927970Y0184473D01*
X0927932Y0184626D01*
X0927899Y0184781D01*
X0927869Y0184937D01*
X0927843Y0185093D01*
X0927822Y0185250D01*
X0927804Y0185407D01*
X0927790Y0185565D01*
X0927780Y0185723D01*
X0927774Y0185881D01*
X0927772Y0186039D01*
X0927772Y0012811D02*
X0927774Y0012969D01*
X0927780Y0013127D01*
X0927790Y0013285D01*
X0927804Y0013443D01*
X0927822Y0013600D01*
X0927843Y0013757D01*
X0927869Y0013913D01*
X0927899Y0014069D01*
X0927932Y0014224D01*
X0927970Y0014377D01*
X0928011Y0014530D01*
X0928056Y0014682D01*
X0928105Y0014833D01*
X0928158Y0014982D01*
X0928214Y0015130D01*
X0928274Y0015276D01*
X0928338Y0015421D01*
X0928406Y0015564D01*
X0928477Y0015706D01*
X0928551Y0015846D01*
X0928629Y0015983D01*
X0928711Y0016119D01*
X0928795Y0016253D01*
X0928884Y0016384D01*
X0928975Y0016513D01*
X0929070Y0016640D01*
X0929167Y0016765D01*
X0929268Y0016887D01*
X0929372Y0017006D01*
X0929479Y0017123D01*
X0929589Y0017237D01*
X0929702Y0017348D01*
X0929817Y0017457D01*
X0929935Y0017562D01*
X0930056Y0017664D01*
X0930179Y0017764D01*
X0930305Y0017860D01*
X0930433Y0017953D01*
X0930563Y0018043D01*
X0930696Y0018129D01*
X0930831Y0018213D01*
X0930967Y0018292D01*
X0931106Y0018369D01*
X0931247Y0018441D01*
X0931389Y0018511D01*
X0931533Y0018576D01*
X0931679Y0018638D01*
X0931826Y0018696D01*
X0931975Y0018751D01*
X0932125Y0018802D01*
X0932276Y0018849D01*
X0932428Y0018892D01*
X0932581Y0018931D01*
X0932736Y0018967D01*
X0932891Y0018998D01*
X0933047Y0019026D01*
X0933203Y0019050D01*
X0933360Y0019070D01*
X0933518Y0019086D01*
X0933675Y0019098D01*
X0933834Y0019106D01*
X0933992Y0019110D01*
X0934150Y0019110D01*
X0934308Y0019106D01*
X0934467Y0019098D01*
X0934624Y0019086D01*
X0934782Y0019070D01*
X0934939Y0019050D01*
X0935095Y0019026D01*
X0935251Y0018998D01*
X0935406Y0018967D01*
X0935561Y0018931D01*
X0935714Y0018892D01*
X0935866Y0018849D01*
X0936017Y0018802D01*
X0936167Y0018751D01*
X0936316Y0018696D01*
X0936463Y0018638D01*
X0936609Y0018576D01*
X0936753Y0018511D01*
X0936895Y0018441D01*
X0937036Y0018369D01*
X0937175Y0018292D01*
X0937311Y0018213D01*
X0937446Y0018129D01*
X0937579Y0018043D01*
X0937709Y0017953D01*
X0937837Y0017860D01*
X0937963Y0017764D01*
X0938086Y0017664D01*
X0938207Y0017562D01*
X0938325Y0017457D01*
X0938440Y0017348D01*
X0938553Y0017237D01*
X0938663Y0017123D01*
X0938770Y0017006D01*
X0938874Y0016887D01*
X0938975Y0016765D01*
X0939072Y0016640D01*
X0939167Y0016513D01*
X0939258Y0016384D01*
X0939347Y0016253D01*
X0939431Y0016119D01*
X0939513Y0015983D01*
X0939591Y0015846D01*
X0939665Y0015706D01*
X0939736Y0015564D01*
X0939804Y0015421D01*
X0939868Y0015276D01*
X0939928Y0015130D01*
X0939984Y0014982D01*
X0940037Y0014833D01*
X0940086Y0014682D01*
X0940131Y0014530D01*
X0940172Y0014377D01*
X0940210Y0014224D01*
X0940243Y0014069D01*
X0940273Y0013913D01*
X0940299Y0013757D01*
X0940320Y0013600D01*
X0940338Y0013443D01*
X0940352Y0013285D01*
X0940362Y0013127D01*
X0940368Y0012969D01*
X0940370Y0012811D01*
X0940368Y0012653D01*
X0940362Y0012495D01*
X0940352Y0012337D01*
X0940338Y0012179D01*
X0940320Y0012022D01*
X0940299Y0011865D01*
X0940273Y0011709D01*
X0940243Y0011553D01*
X0940210Y0011398D01*
X0940172Y0011245D01*
X0940131Y0011092D01*
X0940086Y0010940D01*
X0940037Y0010789D01*
X0939984Y0010640D01*
X0939928Y0010492D01*
X0939868Y0010346D01*
X0939804Y0010201D01*
X0939736Y0010058D01*
X0939665Y0009916D01*
X0939591Y0009776D01*
X0939513Y0009639D01*
X0939431Y0009503D01*
X0939347Y0009369D01*
X0939258Y0009238D01*
X0939167Y0009109D01*
X0939072Y0008982D01*
X0938975Y0008857D01*
X0938874Y0008735D01*
X0938770Y0008616D01*
X0938663Y0008499D01*
X0938553Y0008385D01*
X0938440Y0008274D01*
X0938325Y0008165D01*
X0938207Y0008060D01*
X0938086Y0007958D01*
X0937963Y0007858D01*
X0937837Y0007762D01*
X0937709Y0007669D01*
X0937579Y0007579D01*
X0937446Y0007493D01*
X0937311Y0007409D01*
X0937175Y0007330D01*
X0937036Y0007253D01*
X0936895Y0007181D01*
X0936753Y0007111D01*
X0936609Y0007046D01*
X0936463Y0006984D01*
X0936316Y0006926D01*
X0936167Y0006871D01*
X0936017Y0006820D01*
X0935866Y0006773D01*
X0935714Y0006730D01*
X0935561Y0006691D01*
X0935406Y0006655D01*
X0935251Y0006624D01*
X0935095Y0006596D01*
X0934939Y0006572D01*
X0934782Y0006552D01*
X0934624Y0006536D01*
X0934467Y0006524D01*
X0934308Y0006516D01*
X0934150Y0006512D01*
X0933992Y0006512D01*
X0933834Y0006516D01*
X0933675Y0006524D01*
X0933518Y0006536D01*
X0933360Y0006552D01*
X0933203Y0006572D01*
X0933047Y0006596D01*
X0932891Y0006624D01*
X0932736Y0006655D01*
X0932581Y0006691D01*
X0932428Y0006730D01*
X0932276Y0006773D01*
X0932125Y0006820D01*
X0931975Y0006871D01*
X0931826Y0006926D01*
X0931679Y0006984D01*
X0931533Y0007046D01*
X0931389Y0007111D01*
X0931247Y0007181D01*
X0931106Y0007253D01*
X0930967Y0007330D01*
X0930831Y0007409D01*
X0930696Y0007493D01*
X0930563Y0007579D01*
X0930433Y0007669D01*
X0930305Y0007762D01*
X0930179Y0007858D01*
X0930056Y0007958D01*
X0929935Y0008060D01*
X0929817Y0008165D01*
X0929702Y0008274D01*
X0929589Y0008385D01*
X0929479Y0008499D01*
X0929372Y0008616D01*
X0929268Y0008735D01*
X0929167Y0008857D01*
X0929070Y0008982D01*
X0928975Y0009109D01*
X0928884Y0009238D01*
X0928795Y0009369D01*
X0928711Y0009503D01*
X0928629Y0009639D01*
X0928551Y0009776D01*
X0928477Y0009916D01*
X0928406Y0010058D01*
X0928338Y0010201D01*
X0928274Y0010346D01*
X0928214Y0010492D01*
X0928158Y0010640D01*
X0928105Y0010789D01*
X0928056Y0010940D01*
X0928011Y0011092D01*
X0927970Y0011245D01*
X0927932Y0011398D01*
X0927899Y0011553D01*
X0927869Y0011709D01*
X0927843Y0011865D01*
X0927822Y0012022D01*
X0927804Y0012179D01*
X0927790Y0012337D01*
X0927780Y0012495D01*
X0927774Y0012653D01*
X0927772Y0012811D01*
D11*
X0934071Y0012811D03*
X0934071Y0186039D03*
X0012811Y0186039D03*
X0012811Y0012811D03*
D12*
X0073908Y0060015D03*
X0085572Y0060015D03*
X0095900Y0065436D03*
X0063580Y0065436D03*
X0056954Y0075035D03*
X0102526Y0075035D03*
X0103932Y0086615D03*
X0055548Y0086615D03*
X0059684Y0097521D03*
X0068415Y0105256D03*
X0079740Y0108047D03*
X0091065Y0105256D03*
X0099796Y0097521D03*
X0167753Y0086615D03*
X0216137Y0086615D03*
X0212001Y0097521D03*
X0203270Y0105256D03*
X0191945Y0108047D03*
X0180620Y0105256D03*
X0171889Y0097521D03*
X0279957Y0086615D03*
X0328342Y0086615D03*
X0324206Y0097521D03*
X0315475Y0105256D03*
X0304150Y0108047D03*
X0292824Y0105256D03*
X0284094Y0097521D03*
X0392162Y0086615D03*
X0440546Y0086615D03*
X0436410Y0097521D03*
X0427680Y0105256D03*
X0416354Y0108047D03*
X0405029Y0105256D03*
X0396298Y0097521D03*
X0393568Y0075035D03*
X0400194Y0065436D03*
X0410522Y0060015D03*
X0422186Y0060015D03*
X0432515Y0065436D03*
X0439141Y0075035D03*
X0504367Y0086615D03*
X0552751Y0086615D03*
X0548615Y0097521D03*
X0539884Y0105256D03*
X0528559Y0108047D03*
X0517234Y0105256D03*
X0508503Y0097521D03*
X0505773Y0075035D03*
X0512399Y0065436D03*
X0522727Y0060015D03*
X0534391Y0060015D03*
X0544719Y0065436D03*
X0551345Y0075035D03*
X0616572Y0086615D03*
X0664956Y0086615D03*
X0660820Y0097521D03*
X0652089Y0105256D03*
X0640764Y0108047D03*
X0629439Y0105256D03*
X0620708Y0097521D03*
X0728776Y0086615D03*
X0732913Y0097521D03*
X0741643Y0105256D03*
X0752969Y0108047D03*
X0764294Y0105256D03*
X0773024Y0097521D03*
X0777161Y0086615D03*
X0775755Y0075035D03*
X0730182Y0075035D03*
X0736808Y0065436D03*
X0747137Y0060015D03*
X0758800Y0060015D03*
X0769129Y0065436D03*
X0842387Y0075035D03*
X0849013Y0065436D03*
X0859341Y0060015D03*
X0871005Y0060015D03*
X0881333Y0065436D03*
X0887959Y0075035D03*
X0889365Y0086615D03*
X0840981Y0086615D03*
X0845117Y0097521D03*
X0853848Y0105256D03*
X0865173Y0108047D03*
X0876498Y0105256D03*
X0885229Y0097521D03*
X0663550Y0075035D03*
X0656924Y0065436D03*
X0646596Y0060015D03*
X0634932Y0060015D03*
X0624604Y0065436D03*
X0617978Y0075035D03*
X0326936Y0075035D03*
X0320310Y0065436D03*
X0309981Y0060015D03*
X0298318Y0060015D03*
X0287989Y0065436D03*
X0281363Y0075035D03*
X0214731Y0075035D03*
X0208105Y0065436D03*
X0197777Y0060015D03*
X0186113Y0060015D03*
X0175785Y0065436D03*
X0169159Y0075035D03*
D13*
X0380764Y0154543D03*
X0428441Y0159543D03*
D14*
X0438441Y0159543D03*
X0448441Y0159543D03*
X0458441Y0159543D03*
X0468441Y0159543D03*
X0478441Y0159543D03*
X0488441Y0159543D03*
X0498441Y0159543D03*
X0508441Y0159543D03*
X0518441Y0159543D03*
X0518441Y0149543D03*
X0508441Y0149543D03*
X0498441Y0149543D03*
X0488441Y0149543D03*
X0478441Y0149543D03*
X0468441Y0149543D03*
X0458441Y0149543D03*
X0448441Y0149543D03*
X0438441Y0149543D03*
X0428441Y0149543D03*
X0400764Y0154543D03*
X0390764Y0154543D03*
M02*
