G75*
%MOIN*%
%OFA0B0*%
%FSLAX25Y25*%
%IPPOS*%
%LPD*%
%AMOC8*
5,1,8,0,0,1.08239X$1,22.5*
%
%ADD10C,0.00000*%
%ADD11C,0.12998*%
%ADD12C,0.05400*%
%ADD13R,0.03746X0.09652*%
%ADD14C,0.08274*%
%ADD15C,0.04762*%
%ADD16C,0.07487*%
D10*
X0050350Y0092616D02*
X0050352Y0092774D01*
X0050358Y0092932D01*
X0050368Y0093090D01*
X0050382Y0093248D01*
X0050400Y0093405D01*
X0050421Y0093562D01*
X0050447Y0093718D01*
X0050477Y0093874D01*
X0050510Y0094029D01*
X0050548Y0094182D01*
X0050589Y0094335D01*
X0050634Y0094487D01*
X0050683Y0094638D01*
X0050736Y0094787D01*
X0050792Y0094935D01*
X0050852Y0095081D01*
X0050916Y0095226D01*
X0050984Y0095369D01*
X0051055Y0095511D01*
X0051129Y0095651D01*
X0051207Y0095788D01*
X0051289Y0095924D01*
X0051373Y0096058D01*
X0051462Y0096189D01*
X0051553Y0096318D01*
X0051648Y0096445D01*
X0051745Y0096570D01*
X0051846Y0096692D01*
X0051950Y0096811D01*
X0052057Y0096928D01*
X0052167Y0097042D01*
X0052280Y0097153D01*
X0052395Y0097262D01*
X0052513Y0097367D01*
X0052634Y0097469D01*
X0052757Y0097569D01*
X0052883Y0097665D01*
X0053011Y0097758D01*
X0053141Y0097848D01*
X0053274Y0097934D01*
X0053409Y0098018D01*
X0053545Y0098097D01*
X0053684Y0098174D01*
X0053825Y0098246D01*
X0053967Y0098316D01*
X0054111Y0098381D01*
X0054257Y0098443D01*
X0054404Y0098501D01*
X0054553Y0098556D01*
X0054703Y0098607D01*
X0054854Y0098654D01*
X0055006Y0098697D01*
X0055159Y0098736D01*
X0055314Y0098772D01*
X0055469Y0098803D01*
X0055625Y0098831D01*
X0055781Y0098855D01*
X0055938Y0098875D01*
X0056096Y0098891D01*
X0056253Y0098903D01*
X0056412Y0098911D01*
X0056570Y0098915D01*
X0056728Y0098915D01*
X0056886Y0098911D01*
X0057045Y0098903D01*
X0057202Y0098891D01*
X0057360Y0098875D01*
X0057517Y0098855D01*
X0057673Y0098831D01*
X0057829Y0098803D01*
X0057984Y0098772D01*
X0058139Y0098736D01*
X0058292Y0098697D01*
X0058444Y0098654D01*
X0058595Y0098607D01*
X0058745Y0098556D01*
X0058894Y0098501D01*
X0059041Y0098443D01*
X0059187Y0098381D01*
X0059331Y0098316D01*
X0059473Y0098246D01*
X0059614Y0098174D01*
X0059753Y0098097D01*
X0059889Y0098018D01*
X0060024Y0097934D01*
X0060157Y0097848D01*
X0060287Y0097758D01*
X0060415Y0097665D01*
X0060541Y0097569D01*
X0060664Y0097469D01*
X0060785Y0097367D01*
X0060903Y0097262D01*
X0061018Y0097153D01*
X0061131Y0097042D01*
X0061241Y0096928D01*
X0061348Y0096811D01*
X0061452Y0096692D01*
X0061553Y0096570D01*
X0061650Y0096445D01*
X0061745Y0096318D01*
X0061836Y0096189D01*
X0061925Y0096058D01*
X0062009Y0095924D01*
X0062091Y0095788D01*
X0062169Y0095651D01*
X0062243Y0095511D01*
X0062314Y0095369D01*
X0062382Y0095226D01*
X0062446Y0095081D01*
X0062506Y0094935D01*
X0062562Y0094787D01*
X0062615Y0094638D01*
X0062664Y0094487D01*
X0062709Y0094335D01*
X0062750Y0094182D01*
X0062788Y0094029D01*
X0062821Y0093874D01*
X0062851Y0093718D01*
X0062877Y0093562D01*
X0062898Y0093405D01*
X0062916Y0093248D01*
X0062930Y0093090D01*
X0062940Y0092932D01*
X0062946Y0092774D01*
X0062948Y0092616D01*
X0062946Y0092458D01*
X0062940Y0092300D01*
X0062930Y0092142D01*
X0062916Y0091984D01*
X0062898Y0091827D01*
X0062877Y0091670D01*
X0062851Y0091514D01*
X0062821Y0091358D01*
X0062788Y0091203D01*
X0062750Y0091050D01*
X0062709Y0090897D01*
X0062664Y0090745D01*
X0062615Y0090594D01*
X0062562Y0090445D01*
X0062506Y0090297D01*
X0062446Y0090151D01*
X0062382Y0090006D01*
X0062314Y0089863D01*
X0062243Y0089721D01*
X0062169Y0089581D01*
X0062091Y0089444D01*
X0062009Y0089308D01*
X0061925Y0089174D01*
X0061836Y0089043D01*
X0061745Y0088914D01*
X0061650Y0088787D01*
X0061553Y0088662D01*
X0061452Y0088540D01*
X0061348Y0088421D01*
X0061241Y0088304D01*
X0061131Y0088190D01*
X0061018Y0088079D01*
X0060903Y0087970D01*
X0060785Y0087865D01*
X0060664Y0087763D01*
X0060541Y0087663D01*
X0060415Y0087567D01*
X0060287Y0087474D01*
X0060157Y0087384D01*
X0060024Y0087298D01*
X0059889Y0087214D01*
X0059753Y0087135D01*
X0059614Y0087058D01*
X0059473Y0086986D01*
X0059331Y0086916D01*
X0059187Y0086851D01*
X0059041Y0086789D01*
X0058894Y0086731D01*
X0058745Y0086676D01*
X0058595Y0086625D01*
X0058444Y0086578D01*
X0058292Y0086535D01*
X0058139Y0086496D01*
X0057984Y0086460D01*
X0057829Y0086429D01*
X0057673Y0086401D01*
X0057517Y0086377D01*
X0057360Y0086357D01*
X0057202Y0086341D01*
X0057045Y0086329D01*
X0056886Y0086321D01*
X0056728Y0086317D01*
X0056570Y0086317D01*
X0056412Y0086321D01*
X0056253Y0086329D01*
X0056096Y0086341D01*
X0055938Y0086357D01*
X0055781Y0086377D01*
X0055625Y0086401D01*
X0055469Y0086429D01*
X0055314Y0086460D01*
X0055159Y0086496D01*
X0055006Y0086535D01*
X0054854Y0086578D01*
X0054703Y0086625D01*
X0054553Y0086676D01*
X0054404Y0086731D01*
X0054257Y0086789D01*
X0054111Y0086851D01*
X0053967Y0086916D01*
X0053825Y0086986D01*
X0053684Y0087058D01*
X0053545Y0087135D01*
X0053409Y0087214D01*
X0053274Y0087298D01*
X0053141Y0087384D01*
X0053011Y0087474D01*
X0052883Y0087567D01*
X0052757Y0087663D01*
X0052634Y0087763D01*
X0052513Y0087865D01*
X0052395Y0087970D01*
X0052280Y0088079D01*
X0052167Y0088190D01*
X0052057Y0088304D01*
X0051950Y0088421D01*
X0051846Y0088540D01*
X0051745Y0088662D01*
X0051648Y0088787D01*
X0051553Y0088914D01*
X0051462Y0089043D01*
X0051373Y0089174D01*
X0051289Y0089308D01*
X0051207Y0089444D01*
X0051129Y0089581D01*
X0051055Y0089721D01*
X0050984Y0089863D01*
X0050916Y0090006D01*
X0050852Y0090151D01*
X0050792Y0090297D01*
X0050736Y0090445D01*
X0050683Y0090594D01*
X0050634Y0090745D01*
X0050589Y0090897D01*
X0050548Y0091050D01*
X0050510Y0091203D01*
X0050477Y0091358D01*
X0050447Y0091514D01*
X0050421Y0091670D01*
X0050400Y0091827D01*
X0050382Y0091984D01*
X0050368Y0092142D01*
X0050358Y0092300D01*
X0050352Y0092458D01*
X0050350Y0092616D01*
X0139326Y0183081D02*
X0141525Y0182959D01*
X0143721Y0182783D01*
X0145911Y0182554D01*
X0148096Y0182271D01*
X0150273Y0181935D01*
X0152441Y0181547D01*
X0154599Y0181106D01*
X0156745Y0180613D01*
X0158879Y0180067D01*
X0160999Y0179470D01*
X0163104Y0178821D01*
X0165193Y0178122D01*
X0167264Y0177372D01*
X0169316Y0176571D01*
X0171348Y0175721D01*
X0173358Y0174822D01*
X0175346Y0173874D01*
X0177311Y0172878D01*
X0179251Y0171835D01*
X0181165Y0170745D01*
X0183051Y0169608D01*
X0184910Y0168426D01*
X0186739Y0167199D01*
X0188538Y0165928D01*
X0190305Y0164614D01*
X0192040Y0163257D01*
X0193742Y0161858D01*
X0195409Y0160418D01*
X0197040Y0158938D01*
X0198635Y0157419D01*
X0200192Y0155862D01*
X0201711Y0154267D01*
X0203191Y0152636D01*
X0204631Y0150969D01*
X0206030Y0149267D01*
X0207387Y0147532D01*
X0208701Y0145765D01*
X0209972Y0143966D01*
X0211199Y0142137D01*
X0212381Y0140278D01*
X0213518Y0138392D01*
X0214608Y0136478D01*
X0215651Y0134538D01*
X0216647Y0132573D01*
X0217595Y0130585D01*
X0218494Y0128575D01*
X0219344Y0126543D01*
X0220145Y0124491D01*
X0220895Y0122420D01*
X0221594Y0120331D01*
X0222243Y0118226D01*
X0222840Y0116106D01*
X0223386Y0113972D01*
X0223879Y0111826D01*
X0224320Y0109668D01*
X0224708Y0107500D01*
X0225044Y0105323D01*
X0225327Y0103138D01*
X0225556Y0100948D01*
X0225732Y0098752D01*
X0225854Y0096553D01*
X0225855Y0096554D02*
X0257522Y0096554D01*
X0257522Y0088679D02*
X0225855Y0088679D01*
X0207830Y0092616D02*
X0207832Y0092774D01*
X0207838Y0092932D01*
X0207848Y0093090D01*
X0207862Y0093248D01*
X0207880Y0093405D01*
X0207901Y0093562D01*
X0207927Y0093718D01*
X0207957Y0093874D01*
X0207990Y0094029D01*
X0208028Y0094182D01*
X0208069Y0094335D01*
X0208114Y0094487D01*
X0208163Y0094638D01*
X0208216Y0094787D01*
X0208272Y0094935D01*
X0208332Y0095081D01*
X0208396Y0095226D01*
X0208464Y0095369D01*
X0208535Y0095511D01*
X0208609Y0095651D01*
X0208687Y0095788D01*
X0208769Y0095924D01*
X0208853Y0096058D01*
X0208942Y0096189D01*
X0209033Y0096318D01*
X0209128Y0096445D01*
X0209225Y0096570D01*
X0209326Y0096692D01*
X0209430Y0096811D01*
X0209537Y0096928D01*
X0209647Y0097042D01*
X0209760Y0097153D01*
X0209875Y0097262D01*
X0209993Y0097367D01*
X0210114Y0097469D01*
X0210237Y0097569D01*
X0210363Y0097665D01*
X0210491Y0097758D01*
X0210621Y0097848D01*
X0210754Y0097934D01*
X0210889Y0098018D01*
X0211025Y0098097D01*
X0211164Y0098174D01*
X0211305Y0098246D01*
X0211447Y0098316D01*
X0211591Y0098381D01*
X0211737Y0098443D01*
X0211884Y0098501D01*
X0212033Y0098556D01*
X0212183Y0098607D01*
X0212334Y0098654D01*
X0212486Y0098697D01*
X0212639Y0098736D01*
X0212794Y0098772D01*
X0212949Y0098803D01*
X0213105Y0098831D01*
X0213261Y0098855D01*
X0213418Y0098875D01*
X0213576Y0098891D01*
X0213733Y0098903D01*
X0213892Y0098911D01*
X0214050Y0098915D01*
X0214208Y0098915D01*
X0214366Y0098911D01*
X0214525Y0098903D01*
X0214682Y0098891D01*
X0214840Y0098875D01*
X0214997Y0098855D01*
X0215153Y0098831D01*
X0215309Y0098803D01*
X0215464Y0098772D01*
X0215619Y0098736D01*
X0215772Y0098697D01*
X0215924Y0098654D01*
X0216075Y0098607D01*
X0216225Y0098556D01*
X0216374Y0098501D01*
X0216521Y0098443D01*
X0216667Y0098381D01*
X0216811Y0098316D01*
X0216953Y0098246D01*
X0217094Y0098174D01*
X0217233Y0098097D01*
X0217369Y0098018D01*
X0217504Y0097934D01*
X0217637Y0097848D01*
X0217767Y0097758D01*
X0217895Y0097665D01*
X0218021Y0097569D01*
X0218144Y0097469D01*
X0218265Y0097367D01*
X0218383Y0097262D01*
X0218498Y0097153D01*
X0218611Y0097042D01*
X0218721Y0096928D01*
X0218828Y0096811D01*
X0218932Y0096692D01*
X0219033Y0096570D01*
X0219130Y0096445D01*
X0219225Y0096318D01*
X0219316Y0096189D01*
X0219405Y0096058D01*
X0219489Y0095924D01*
X0219571Y0095788D01*
X0219649Y0095651D01*
X0219723Y0095511D01*
X0219794Y0095369D01*
X0219862Y0095226D01*
X0219926Y0095081D01*
X0219986Y0094935D01*
X0220042Y0094787D01*
X0220095Y0094638D01*
X0220144Y0094487D01*
X0220189Y0094335D01*
X0220230Y0094182D01*
X0220268Y0094029D01*
X0220301Y0093874D01*
X0220331Y0093718D01*
X0220357Y0093562D01*
X0220378Y0093405D01*
X0220396Y0093248D01*
X0220410Y0093090D01*
X0220420Y0092932D01*
X0220426Y0092774D01*
X0220428Y0092616D01*
X0220426Y0092458D01*
X0220420Y0092300D01*
X0220410Y0092142D01*
X0220396Y0091984D01*
X0220378Y0091827D01*
X0220357Y0091670D01*
X0220331Y0091514D01*
X0220301Y0091358D01*
X0220268Y0091203D01*
X0220230Y0091050D01*
X0220189Y0090897D01*
X0220144Y0090745D01*
X0220095Y0090594D01*
X0220042Y0090445D01*
X0219986Y0090297D01*
X0219926Y0090151D01*
X0219862Y0090006D01*
X0219794Y0089863D01*
X0219723Y0089721D01*
X0219649Y0089581D01*
X0219571Y0089444D01*
X0219489Y0089308D01*
X0219405Y0089174D01*
X0219316Y0089043D01*
X0219225Y0088914D01*
X0219130Y0088787D01*
X0219033Y0088662D01*
X0218932Y0088540D01*
X0218828Y0088421D01*
X0218721Y0088304D01*
X0218611Y0088190D01*
X0218498Y0088079D01*
X0218383Y0087970D01*
X0218265Y0087865D01*
X0218144Y0087763D01*
X0218021Y0087663D01*
X0217895Y0087567D01*
X0217767Y0087474D01*
X0217637Y0087384D01*
X0217504Y0087298D01*
X0217369Y0087214D01*
X0217233Y0087135D01*
X0217094Y0087058D01*
X0216953Y0086986D01*
X0216811Y0086916D01*
X0216667Y0086851D01*
X0216521Y0086789D01*
X0216374Y0086731D01*
X0216225Y0086676D01*
X0216075Y0086625D01*
X0215924Y0086578D01*
X0215772Y0086535D01*
X0215619Y0086496D01*
X0215464Y0086460D01*
X0215309Y0086429D01*
X0215153Y0086401D01*
X0214997Y0086377D01*
X0214840Y0086357D01*
X0214682Y0086341D01*
X0214525Y0086329D01*
X0214366Y0086321D01*
X0214208Y0086317D01*
X0214050Y0086317D01*
X0213892Y0086321D01*
X0213733Y0086329D01*
X0213576Y0086341D01*
X0213418Y0086357D01*
X0213261Y0086377D01*
X0213105Y0086401D01*
X0212949Y0086429D01*
X0212794Y0086460D01*
X0212639Y0086496D01*
X0212486Y0086535D01*
X0212334Y0086578D01*
X0212183Y0086625D01*
X0212033Y0086676D01*
X0211884Y0086731D01*
X0211737Y0086789D01*
X0211591Y0086851D01*
X0211447Y0086916D01*
X0211305Y0086986D01*
X0211164Y0087058D01*
X0211025Y0087135D01*
X0210889Y0087214D01*
X0210754Y0087298D01*
X0210621Y0087384D01*
X0210491Y0087474D01*
X0210363Y0087567D01*
X0210237Y0087663D01*
X0210114Y0087763D01*
X0209993Y0087865D01*
X0209875Y0087970D01*
X0209760Y0088079D01*
X0209647Y0088190D01*
X0209537Y0088304D01*
X0209430Y0088421D01*
X0209326Y0088540D01*
X0209225Y0088662D01*
X0209128Y0088787D01*
X0209033Y0088914D01*
X0208942Y0089043D01*
X0208853Y0089174D01*
X0208769Y0089308D01*
X0208687Y0089444D01*
X0208609Y0089581D01*
X0208535Y0089721D01*
X0208464Y0089863D01*
X0208396Y0090006D01*
X0208332Y0090151D01*
X0208272Y0090297D01*
X0208216Y0090445D01*
X0208163Y0090594D01*
X0208114Y0090745D01*
X0208069Y0090897D01*
X0208028Y0091050D01*
X0207990Y0091203D01*
X0207957Y0091358D01*
X0207927Y0091514D01*
X0207901Y0091670D01*
X0207880Y0091827D01*
X0207862Y0091984D01*
X0207848Y0092142D01*
X0207838Y0092300D01*
X0207832Y0092458D01*
X0207830Y0092616D01*
X0262948Y0092616D02*
X0262950Y0092774D01*
X0262956Y0092932D01*
X0262966Y0093090D01*
X0262980Y0093248D01*
X0262998Y0093405D01*
X0263019Y0093562D01*
X0263045Y0093718D01*
X0263075Y0093874D01*
X0263108Y0094029D01*
X0263146Y0094182D01*
X0263187Y0094335D01*
X0263232Y0094487D01*
X0263281Y0094638D01*
X0263334Y0094787D01*
X0263390Y0094935D01*
X0263450Y0095081D01*
X0263514Y0095226D01*
X0263582Y0095369D01*
X0263653Y0095511D01*
X0263727Y0095651D01*
X0263805Y0095788D01*
X0263887Y0095924D01*
X0263971Y0096058D01*
X0264060Y0096189D01*
X0264151Y0096318D01*
X0264246Y0096445D01*
X0264343Y0096570D01*
X0264444Y0096692D01*
X0264548Y0096811D01*
X0264655Y0096928D01*
X0264765Y0097042D01*
X0264878Y0097153D01*
X0264993Y0097262D01*
X0265111Y0097367D01*
X0265232Y0097469D01*
X0265355Y0097569D01*
X0265481Y0097665D01*
X0265609Y0097758D01*
X0265739Y0097848D01*
X0265872Y0097934D01*
X0266007Y0098018D01*
X0266143Y0098097D01*
X0266282Y0098174D01*
X0266423Y0098246D01*
X0266565Y0098316D01*
X0266709Y0098381D01*
X0266855Y0098443D01*
X0267002Y0098501D01*
X0267151Y0098556D01*
X0267301Y0098607D01*
X0267452Y0098654D01*
X0267604Y0098697D01*
X0267757Y0098736D01*
X0267912Y0098772D01*
X0268067Y0098803D01*
X0268223Y0098831D01*
X0268379Y0098855D01*
X0268536Y0098875D01*
X0268694Y0098891D01*
X0268851Y0098903D01*
X0269010Y0098911D01*
X0269168Y0098915D01*
X0269326Y0098915D01*
X0269484Y0098911D01*
X0269643Y0098903D01*
X0269800Y0098891D01*
X0269958Y0098875D01*
X0270115Y0098855D01*
X0270271Y0098831D01*
X0270427Y0098803D01*
X0270582Y0098772D01*
X0270737Y0098736D01*
X0270890Y0098697D01*
X0271042Y0098654D01*
X0271193Y0098607D01*
X0271343Y0098556D01*
X0271492Y0098501D01*
X0271639Y0098443D01*
X0271785Y0098381D01*
X0271929Y0098316D01*
X0272071Y0098246D01*
X0272212Y0098174D01*
X0272351Y0098097D01*
X0272487Y0098018D01*
X0272622Y0097934D01*
X0272755Y0097848D01*
X0272885Y0097758D01*
X0273013Y0097665D01*
X0273139Y0097569D01*
X0273262Y0097469D01*
X0273383Y0097367D01*
X0273501Y0097262D01*
X0273616Y0097153D01*
X0273729Y0097042D01*
X0273839Y0096928D01*
X0273946Y0096811D01*
X0274050Y0096692D01*
X0274151Y0096570D01*
X0274248Y0096445D01*
X0274343Y0096318D01*
X0274434Y0096189D01*
X0274523Y0096058D01*
X0274607Y0095924D01*
X0274689Y0095788D01*
X0274767Y0095651D01*
X0274841Y0095511D01*
X0274912Y0095369D01*
X0274980Y0095226D01*
X0275044Y0095081D01*
X0275104Y0094935D01*
X0275160Y0094787D01*
X0275213Y0094638D01*
X0275262Y0094487D01*
X0275307Y0094335D01*
X0275348Y0094182D01*
X0275386Y0094029D01*
X0275419Y0093874D01*
X0275449Y0093718D01*
X0275475Y0093562D01*
X0275496Y0093405D01*
X0275514Y0093248D01*
X0275528Y0093090D01*
X0275538Y0092932D01*
X0275544Y0092774D01*
X0275546Y0092616D01*
X0275544Y0092458D01*
X0275538Y0092300D01*
X0275528Y0092142D01*
X0275514Y0091984D01*
X0275496Y0091827D01*
X0275475Y0091670D01*
X0275449Y0091514D01*
X0275419Y0091358D01*
X0275386Y0091203D01*
X0275348Y0091050D01*
X0275307Y0090897D01*
X0275262Y0090745D01*
X0275213Y0090594D01*
X0275160Y0090445D01*
X0275104Y0090297D01*
X0275044Y0090151D01*
X0274980Y0090006D01*
X0274912Y0089863D01*
X0274841Y0089721D01*
X0274767Y0089581D01*
X0274689Y0089444D01*
X0274607Y0089308D01*
X0274523Y0089174D01*
X0274434Y0089043D01*
X0274343Y0088914D01*
X0274248Y0088787D01*
X0274151Y0088662D01*
X0274050Y0088540D01*
X0273946Y0088421D01*
X0273839Y0088304D01*
X0273729Y0088190D01*
X0273616Y0088079D01*
X0273501Y0087970D01*
X0273383Y0087865D01*
X0273262Y0087763D01*
X0273139Y0087663D01*
X0273013Y0087567D01*
X0272885Y0087474D01*
X0272755Y0087384D01*
X0272622Y0087298D01*
X0272487Y0087214D01*
X0272351Y0087135D01*
X0272212Y0087058D01*
X0272071Y0086986D01*
X0271929Y0086916D01*
X0271785Y0086851D01*
X0271639Y0086789D01*
X0271492Y0086731D01*
X0271343Y0086676D01*
X0271193Y0086625D01*
X0271042Y0086578D01*
X0270890Y0086535D01*
X0270737Y0086496D01*
X0270582Y0086460D01*
X0270427Y0086429D01*
X0270271Y0086401D01*
X0270115Y0086377D01*
X0269958Y0086357D01*
X0269800Y0086341D01*
X0269643Y0086329D01*
X0269484Y0086321D01*
X0269326Y0086317D01*
X0269168Y0086317D01*
X0269010Y0086321D01*
X0268851Y0086329D01*
X0268694Y0086341D01*
X0268536Y0086357D01*
X0268379Y0086377D01*
X0268223Y0086401D01*
X0268067Y0086429D01*
X0267912Y0086460D01*
X0267757Y0086496D01*
X0267604Y0086535D01*
X0267452Y0086578D01*
X0267301Y0086625D01*
X0267151Y0086676D01*
X0267002Y0086731D01*
X0266855Y0086789D01*
X0266709Y0086851D01*
X0266565Y0086916D01*
X0266423Y0086986D01*
X0266282Y0087058D01*
X0266143Y0087135D01*
X0266007Y0087214D01*
X0265872Y0087298D01*
X0265739Y0087384D01*
X0265609Y0087474D01*
X0265481Y0087567D01*
X0265355Y0087663D01*
X0265232Y0087763D01*
X0265111Y0087865D01*
X0264993Y0087970D01*
X0264878Y0088079D01*
X0264765Y0088190D01*
X0264655Y0088304D01*
X0264548Y0088421D01*
X0264444Y0088540D01*
X0264343Y0088662D01*
X0264246Y0088787D01*
X0264151Y0088914D01*
X0264060Y0089043D01*
X0263971Y0089174D01*
X0263887Y0089308D01*
X0263805Y0089444D01*
X0263727Y0089581D01*
X0263653Y0089721D01*
X0263582Y0089863D01*
X0263514Y0090006D01*
X0263450Y0090151D01*
X0263390Y0090297D01*
X0263334Y0090445D01*
X0263281Y0090594D01*
X0263232Y0090745D01*
X0263187Y0090897D01*
X0263146Y0091050D01*
X0263108Y0091203D01*
X0263075Y0091358D01*
X0263045Y0091514D01*
X0263019Y0091670D01*
X0262998Y0091827D01*
X0262980Y0091984D01*
X0262966Y0092142D01*
X0262956Y0092300D01*
X0262950Y0092458D01*
X0262948Y0092616D01*
X0257523Y0088679D02*
X0257646Y0086465D01*
X0257824Y0084254D01*
X0258056Y0082049D01*
X0258341Y0079850D01*
X0258681Y0077658D01*
X0259074Y0075476D01*
X0259520Y0073304D01*
X0260020Y0071143D01*
X0260572Y0068995D01*
X0261177Y0066862D01*
X0261833Y0064743D01*
X0262542Y0062642D01*
X0263302Y0060558D01*
X0264112Y0058494D01*
X0264973Y0056450D01*
X0265883Y0054428D01*
X0266843Y0052429D01*
X0267851Y0050454D01*
X0268908Y0048504D01*
X0270012Y0046581D01*
X0271163Y0044685D01*
X0272359Y0042818D01*
X0273602Y0040981D01*
X0274888Y0039175D01*
X0276219Y0037401D01*
X0277593Y0035660D01*
X0279008Y0033953D01*
X0280466Y0032282D01*
X0281963Y0030646D01*
X0283501Y0029048D01*
X0285077Y0027488D01*
X0286691Y0025967D01*
X0288341Y0024486D01*
X0290027Y0023046D01*
X0291748Y0021647D01*
X0293503Y0020291D01*
X0295291Y0018979D01*
X0297110Y0017710D01*
X0298959Y0016487D01*
X0300838Y0015309D01*
X0302746Y0014177D01*
X0304680Y0013093D01*
X0306640Y0012056D01*
X0308626Y0011068D01*
X0310634Y0010128D01*
X0312666Y0009238D01*
X0314718Y0008399D01*
X0316790Y0007609D01*
X0318881Y0006871D01*
X0320990Y0006183D01*
X0323115Y0005548D01*
X0325254Y0004965D01*
X0327407Y0004435D01*
X0329573Y0003957D01*
X0331750Y0003533D01*
X0333936Y0003162D01*
X0336131Y0002845D01*
X0338333Y0002581D01*
X0340540Y0002372D01*
X0342753Y0002216D01*
X0344968Y0002115D01*
X0347185Y0002069D01*
X0349403Y0002076D01*
X0351619Y0002138D01*
X0353834Y0002254D01*
X0356045Y0002424D01*
X0358251Y0002649D01*
X0360451Y0002927D01*
X0362644Y0003259D01*
X0364828Y0003645D01*
X0367002Y0004084D01*
X0369164Y0004576D01*
X0371313Y0005121D01*
X0373449Y0005718D01*
X0375569Y0006368D01*
X0377673Y0007069D01*
X0379759Y0007822D01*
X0381826Y0008625D01*
X0383873Y0009479D01*
X0385898Y0010383D01*
X0387900Y0011336D01*
X0389879Y0012338D01*
X0391832Y0013387D01*
X0393759Y0014485D01*
X0395659Y0015629D01*
X0397530Y0016820D01*
X0399371Y0018056D01*
X0401182Y0019336D01*
X0402960Y0020661D01*
X0404706Y0022029D01*
X0406417Y0023439D01*
X0408094Y0024890D01*
X0409734Y0026382D01*
X0411338Y0027914D01*
X0412903Y0029485D01*
X0414430Y0031094D01*
X0415916Y0032739D01*
X0417362Y0034421D01*
X0418767Y0036137D01*
X0420128Y0037887D01*
X0421447Y0039670D01*
X0422722Y0041485D01*
X0423951Y0043330D01*
X0425135Y0045205D01*
X0426273Y0047109D01*
X0427364Y0049040D01*
X0428408Y0050997D01*
X0429403Y0052978D01*
X0430349Y0054984D01*
X0431246Y0057012D01*
X0432093Y0059062D01*
X0432889Y0061131D01*
X0433635Y0063220D01*
X0434329Y0065326D01*
X0434971Y0067449D01*
X0435561Y0069586D01*
X0436099Y0071738D01*
X0436584Y0073902D01*
X0437016Y0076077D01*
X0437394Y0078262D01*
X0437719Y0080456D01*
X0437990Y0082657D01*
X0438207Y0084864D01*
X0438369Y0087075D01*
X0438478Y0089290D01*
X0438532Y0091507D01*
X0438532Y0093725D01*
X0438478Y0095942D01*
X0438369Y0098157D01*
X0438207Y0100368D01*
X0437990Y0102575D01*
X0437719Y0104776D01*
X0437394Y0106970D01*
X0437016Y0109155D01*
X0436584Y0111330D01*
X0436099Y0113494D01*
X0435561Y0115646D01*
X0434971Y0117783D01*
X0434329Y0119906D01*
X0433635Y0122012D01*
X0432889Y0124101D01*
X0432093Y0126170D01*
X0431246Y0128220D01*
X0430349Y0130248D01*
X0429403Y0132254D01*
X0428408Y0134235D01*
X0427364Y0136192D01*
X0426273Y0138123D01*
X0425135Y0140027D01*
X0423951Y0141902D01*
X0422722Y0143747D01*
X0421447Y0145562D01*
X0420128Y0147345D01*
X0418767Y0149095D01*
X0417362Y0150811D01*
X0415916Y0152493D01*
X0414430Y0154138D01*
X0412903Y0155747D01*
X0411338Y0157318D01*
X0409734Y0158850D01*
X0408094Y0160342D01*
X0406417Y0161793D01*
X0404706Y0163203D01*
X0402960Y0164571D01*
X0401182Y0165896D01*
X0399371Y0167176D01*
X0397530Y0168412D01*
X0395659Y0169603D01*
X0393759Y0170747D01*
X0391832Y0171845D01*
X0389879Y0172894D01*
X0387900Y0173896D01*
X0385898Y0174849D01*
X0383873Y0175753D01*
X0381826Y0176607D01*
X0379759Y0177410D01*
X0377673Y0178163D01*
X0375569Y0178864D01*
X0373449Y0179514D01*
X0371313Y0180111D01*
X0369164Y0180656D01*
X0367002Y0181148D01*
X0364828Y0181587D01*
X0362644Y0181973D01*
X0360451Y0182305D01*
X0358251Y0182583D01*
X0356045Y0182808D01*
X0353834Y0182978D01*
X0351619Y0183094D01*
X0349403Y0183156D01*
X0347185Y0183163D01*
X0344968Y0183117D01*
X0342753Y0183016D01*
X0340540Y0182860D01*
X0338333Y0182651D01*
X0336131Y0182387D01*
X0333936Y0182070D01*
X0331750Y0181699D01*
X0329573Y0181275D01*
X0327407Y0180797D01*
X0325254Y0180267D01*
X0323115Y0179684D01*
X0320990Y0179049D01*
X0318881Y0178361D01*
X0316790Y0177623D01*
X0314718Y0176833D01*
X0312666Y0175994D01*
X0310634Y0175104D01*
X0308626Y0174164D01*
X0306640Y0173176D01*
X0304680Y0172139D01*
X0302746Y0171055D01*
X0300838Y0169923D01*
X0298959Y0168745D01*
X0297110Y0167522D01*
X0295291Y0166253D01*
X0293503Y0164941D01*
X0291748Y0163585D01*
X0290027Y0162186D01*
X0288341Y0160746D01*
X0286691Y0159265D01*
X0285077Y0157744D01*
X0283501Y0156184D01*
X0281963Y0154586D01*
X0280466Y0152950D01*
X0279008Y0151279D01*
X0277593Y0149572D01*
X0276219Y0147831D01*
X0274888Y0146057D01*
X0273602Y0144251D01*
X0272359Y0142414D01*
X0271163Y0140547D01*
X0270012Y0138651D01*
X0268908Y0136728D01*
X0267851Y0134778D01*
X0266843Y0132803D01*
X0265883Y0130804D01*
X0264973Y0128782D01*
X0264112Y0126738D01*
X0263302Y0124674D01*
X0262542Y0122590D01*
X0261833Y0120489D01*
X0261177Y0118370D01*
X0260572Y0116237D01*
X0260020Y0114089D01*
X0259520Y0111928D01*
X0259074Y0109756D01*
X0258681Y0107574D01*
X0258341Y0105382D01*
X0258056Y0103183D01*
X0257824Y0100978D01*
X0257646Y0098767D01*
X0257523Y0096553D01*
X0139326Y0183082D02*
X0139326Y0214750D01*
X0131452Y0214750D02*
X0131452Y0183082D01*
X0131452Y0183081D02*
X0129239Y0182958D01*
X0127031Y0182780D01*
X0124827Y0182549D01*
X0122629Y0182263D01*
X0120439Y0181924D01*
X0118258Y0181532D01*
X0116088Y0181086D01*
X0113928Y0180587D01*
X0111782Y0180036D01*
X0109650Y0179432D01*
X0107533Y0178776D01*
X0105433Y0178069D01*
X0103351Y0177310D01*
X0101288Y0176501D01*
X0099246Y0175641D01*
X0097225Y0174732D01*
X0095227Y0173773D01*
X0093253Y0172766D01*
X0091304Y0171711D01*
X0089382Y0170609D01*
X0087487Y0169459D01*
X0085621Y0168264D01*
X0083785Y0167024D01*
X0081980Y0165739D01*
X0080206Y0164410D01*
X0078466Y0163038D01*
X0076760Y0161624D01*
X0075089Y0160168D01*
X0073454Y0158673D01*
X0071856Y0157137D01*
X0070296Y0155563D01*
X0068775Y0153952D01*
X0067294Y0152303D01*
X0065854Y0150619D01*
X0064455Y0148900D01*
X0063099Y0147147D01*
X0061786Y0145362D01*
X0060518Y0143545D01*
X0059294Y0141698D01*
X0058116Y0139821D01*
X0056984Y0137916D01*
X0055899Y0135984D01*
X0054861Y0134026D01*
X0053872Y0132043D01*
X0052932Y0130036D01*
X0052041Y0128007D01*
X0051199Y0125957D01*
X0050409Y0123887D01*
X0049669Y0121798D01*
X0048981Y0119691D01*
X0048344Y0117569D01*
X0047759Y0115431D01*
X0047227Y0113280D01*
X0046748Y0111117D01*
X0046322Y0108942D01*
X0045949Y0106758D01*
X0045630Y0104565D01*
X0045364Y0102365D01*
X0045153Y0100159D01*
X0044995Y0097948D01*
X0044892Y0095735D01*
X0044843Y0093519D01*
X0044848Y0091303D01*
X0044907Y0089088D01*
X0045020Y0086875D01*
X0045188Y0084665D01*
X0045409Y0082460D01*
X0045685Y0080262D01*
X0046014Y0078070D01*
X0046397Y0075887D01*
X0046833Y0073715D01*
X0047322Y0071553D01*
X0047863Y0069405D01*
X0048458Y0067270D01*
X0049104Y0065150D01*
X0049802Y0063047D01*
X0050551Y0060961D01*
X0051351Y0058895D01*
X0052201Y0056849D01*
X0053102Y0054824D01*
X0054051Y0052821D01*
X0055049Y0050843D01*
X0056095Y0048889D01*
X0057189Y0046962D01*
X0058330Y0045062D01*
X0059517Y0043191D01*
X0060749Y0041349D01*
X0062026Y0039538D01*
X0063346Y0037758D01*
X0064710Y0036012D01*
X0066117Y0034299D01*
X0067565Y0032622D01*
X0069053Y0030980D01*
X0070581Y0029375D01*
X0072148Y0027808D01*
X0073753Y0026280D01*
X0075395Y0024792D01*
X0077072Y0023344D01*
X0078785Y0021937D01*
X0080531Y0020573D01*
X0082311Y0019253D01*
X0084122Y0017976D01*
X0085964Y0016744D01*
X0087835Y0015557D01*
X0089735Y0014416D01*
X0091662Y0013322D01*
X0093616Y0012276D01*
X0095594Y0011278D01*
X0097597Y0010329D01*
X0099622Y0009428D01*
X0101668Y0008578D01*
X0103734Y0007778D01*
X0105820Y0007029D01*
X0107923Y0006331D01*
X0110043Y0005685D01*
X0112178Y0005090D01*
X0114326Y0004549D01*
X0116488Y0004060D01*
X0118660Y0003624D01*
X0120843Y0003241D01*
X0123035Y0002912D01*
X0125233Y0002636D01*
X0127438Y0002415D01*
X0129648Y0002247D01*
X0131861Y0002134D01*
X0134076Y0002075D01*
X0136292Y0002070D01*
X0138508Y0002119D01*
X0140721Y0002222D01*
X0142932Y0002380D01*
X0145138Y0002591D01*
X0147338Y0002857D01*
X0149531Y0003176D01*
X0151715Y0003549D01*
X0153890Y0003975D01*
X0156053Y0004454D01*
X0158204Y0004986D01*
X0160342Y0005571D01*
X0162464Y0006208D01*
X0164571Y0006896D01*
X0166660Y0007636D01*
X0168730Y0008426D01*
X0170780Y0009268D01*
X0172809Y0010159D01*
X0174816Y0011099D01*
X0176799Y0012088D01*
X0178757Y0013126D01*
X0180689Y0014211D01*
X0182594Y0015343D01*
X0184471Y0016521D01*
X0186318Y0017745D01*
X0188135Y0019013D01*
X0189920Y0020326D01*
X0191673Y0021682D01*
X0193392Y0023081D01*
X0195076Y0024521D01*
X0196725Y0026002D01*
X0198336Y0027523D01*
X0199910Y0029083D01*
X0201446Y0030681D01*
X0202941Y0032316D01*
X0204397Y0033987D01*
X0205811Y0035693D01*
X0207183Y0037433D01*
X0208512Y0039207D01*
X0209797Y0041012D01*
X0211037Y0042848D01*
X0212232Y0044714D01*
X0213382Y0046609D01*
X0214484Y0048531D01*
X0215539Y0050480D01*
X0216546Y0052454D01*
X0217505Y0054452D01*
X0218414Y0056473D01*
X0219274Y0058515D01*
X0220083Y0060578D01*
X0220842Y0062660D01*
X0221549Y0064760D01*
X0222205Y0066877D01*
X0222809Y0069009D01*
X0223360Y0071155D01*
X0223859Y0073315D01*
X0224305Y0075485D01*
X0224697Y0077666D01*
X0225036Y0079856D01*
X0225322Y0082054D01*
X0225553Y0084258D01*
X0225731Y0086466D01*
X0225854Y0088679D01*
X0328302Y0216829D02*
X0328302Y0221357D01*
X0367673Y0221357D01*
X0367673Y0216829D01*
X0328302Y0216830D02*
X0326167Y0217332D01*
X0324044Y0217887D01*
X0321936Y0218492D01*
X0319843Y0219149D01*
X0317767Y0219856D01*
X0315708Y0220613D01*
X0313668Y0221419D01*
X0311648Y0222275D01*
X0309650Y0223180D01*
X0307674Y0224133D01*
X0305722Y0225133D01*
X0303794Y0226180D01*
X0301893Y0227274D01*
X0300018Y0228413D01*
X0298172Y0229598D01*
X0296355Y0230827D01*
X0294568Y0232099D01*
X0292813Y0233415D01*
X0291090Y0234772D01*
X0289400Y0236171D01*
X0287745Y0237610D01*
X0286125Y0239089D01*
X0284542Y0240607D01*
X0282995Y0242163D01*
X0281487Y0243756D01*
X0280018Y0245385D01*
X0278588Y0247049D01*
X0277200Y0248747D01*
X0275853Y0250478D01*
X0274548Y0252241D01*
X0273286Y0254036D01*
X0272069Y0255860D01*
X0270895Y0257714D01*
X0269767Y0259595D01*
X0268685Y0261503D01*
X0267650Y0263437D01*
X0266661Y0265395D01*
X0265721Y0267377D01*
X0264828Y0269381D01*
X0263985Y0271405D01*
X0263190Y0273450D01*
X0262446Y0275514D01*
X0261751Y0277594D01*
X0261108Y0279691D01*
X0260515Y0281803D01*
X0259973Y0283929D01*
X0259484Y0286067D01*
X0259046Y0288217D01*
X0258660Y0290376D01*
X0258327Y0292544D01*
X0258046Y0294720D01*
X0257818Y0296901D01*
X0257644Y0299088D01*
X0257522Y0301278D01*
X0225855Y0301278D01*
X0225855Y0309152D02*
X0257522Y0309152D01*
X0262948Y0305215D02*
X0262950Y0305373D01*
X0262956Y0305531D01*
X0262966Y0305689D01*
X0262980Y0305847D01*
X0262998Y0306004D01*
X0263019Y0306161D01*
X0263045Y0306317D01*
X0263075Y0306473D01*
X0263108Y0306628D01*
X0263146Y0306781D01*
X0263187Y0306934D01*
X0263232Y0307086D01*
X0263281Y0307237D01*
X0263334Y0307386D01*
X0263390Y0307534D01*
X0263450Y0307680D01*
X0263514Y0307825D01*
X0263582Y0307968D01*
X0263653Y0308110D01*
X0263727Y0308250D01*
X0263805Y0308387D01*
X0263887Y0308523D01*
X0263971Y0308657D01*
X0264060Y0308788D01*
X0264151Y0308917D01*
X0264246Y0309044D01*
X0264343Y0309169D01*
X0264444Y0309291D01*
X0264548Y0309410D01*
X0264655Y0309527D01*
X0264765Y0309641D01*
X0264878Y0309752D01*
X0264993Y0309861D01*
X0265111Y0309966D01*
X0265232Y0310068D01*
X0265355Y0310168D01*
X0265481Y0310264D01*
X0265609Y0310357D01*
X0265739Y0310447D01*
X0265872Y0310533D01*
X0266007Y0310617D01*
X0266143Y0310696D01*
X0266282Y0310773D01*
X0266423Y0310845D01*
X0266565Y0310915D01*
X0266709Y0310980D01*
X0266855Y0311042D01*
X0267002Y0311100D01*
X0267151Y0311155D01*
X0267301Y0311206D01*
X0267452Y0311253D01*
X0267604Y0311296D01*
X0267757Y0311335D01*
X0267912Y0311371D01*
X0268067Y0311402D01*
X0268223Y0311430D01*
X0268379Y0311454D01*
X0268536Y0311474D01*
X0268694Y0311490D01*
X0268851Y0311502D01*
X0269010Y0311510D01*
X0269168Y0311514D01*
X0269326Y0311514D01*
X0269484Y0311510D01*
X0269643Y0311502D01*
X0269800Y0311490D01*
X0269958Y0311474D01*
X0270115Y0311454D01*
X0270271Y0311430D01*
X0270427Y0311402D01*
X0270582Y0311371D01*
X0270737Y0311335D01*
X0270890Y0311296D01*
X0271042Y0311253D01*
X0271193Y0311206D01*
X0271343Y0311155D01*
X0271492Y0311100D01*
X0271639Y0311042D01*
X0271785Y0310980D01*
X0271929Y0310915D01*
X0272071Y0310845D01*
X0272212Y0310773D01*
X0272351Y0310696D01*
X0272487Y0310617D01*
X0272622Y0310533D01*
X0272755Y0310447D01*
X0272885Y0310357D01*
X0273013Y0310264D01*
X0273139Y0310168D01*
X0273262Y0310068D01*
X0273383Y0309966D01*
X0273501Y0309861D01*
X0273616Y0309752D01*
X0273729Y0309641D01*
X0273839Y0309527D01*
X0273946Y0309410D01*
X0274050Y0309291D01*
X0274151Y0309169D01*
X0274248Y0309044D01*
X0274343Y0308917D01*
X0274434Y0308788D01*
X0274523Y0308657D01*
X0274607Y0308523D01*
X0274689Y0308387D01*
X0274767Y0308250D01*
X0274841Y0308110D01*
X0274912Y0307968D01*
X0274980Y0307825D01*
X0275044Y0307680D01*
X0275104Y0307534D01*
X0275160Y0307386D01*
X0275213Y0307237D01*
X0275262Y0307086D01*
X0275307Y0306934D01*
X0275348Y0306781D01*
X0275386Y0306628D01*
X0275419Y0306473D01*
X0275449Y0306317D01*
X0275475Y0306161D01*
X0275496Y0306004D01*
X0275514Y0305847D01*
X0275528Y0305689D01*
X0275538Y0305531D01*
X0275544Y0305373D01*
X0275546Y0305215D01*
X0275544Y0305057D01*
X0275538Y0304899D01*
X0275528Y0304741D01*
X0275514Y0304583D01*
X0275496Y0304426D01*
X0275475Y0304269D01*
X0275449Y0304113D01*
X0275419Y0303957D01*
X0275386Y0303802D01*
X0275348Y0303649D01*
X0275307Y0303496D01*
X0275262Y0303344D01*
X0275213Y0303193D01*
X0275160Y0303044D01*
X0275104Y0302896D01*
X0275044Y0302750D01*
X0274980Y0302605D01*
X0274912Y0302462D01*
X0274841Y0302320D01*
X0274767Y0302180D01*
X0274689Y0302043D01*
X0274607Y0301907D01*
X0274523Y0301773D01*
X0274434Y0301642D01*
X0274343Y0301513D01*
X0274248Y0301386D01*
X0274151Y0301261D01*
X0274050Y0301139D01*
X0273946Y0301020D01*
X0273839Y0300903D01*
X0273729Y0300789D01*
X0273616Y0300678D01*
X0273501Y0300569D01*
X0273383Y0300464D01*
X0273262Y0300362D01*
X0273139Y0300262D01*
X0273013Y0300166D01*
X0272885Y0300073D01*
X0272755Y0299983D01*
X0272622Y0299897D01*
X0272487Y0299813D01*
X0272351Y0299734D01*
X0272212Y0299657D01*
X0272071Y0299585D01*
X0271929Y0299515D01*
X0271785Y0299450D01*
X0271639Y0299388D01*
X0271492Y0299330D01*
X0271343Y0299275D01*
X0271193Y0299224D01*
X0271042Y0299177D01*
X0270890Y0299134D01*
X0270737Y0299095D01*
X0270582Y0299059D01*
X0270427Y0299028D01*
X0270271Y0299000D01*
X0270115Y0298976D01*
X0269958Y0298956D01*
X0269800Y0298940D01*
X0269643Y0298928D01*
X0269484Y0298920D01*
X0269326Y0298916D01*
X0269168Y0298916D01*
X0269010Y0298920D01*
X0268851Y0298928D01*
X0268694Y0298940D01*
X0268536Y0298956D01*
X0268379Y0298976D01*
X0268223Y0299000D01*
X0268067Y0299028D01*
X0267912Y0299059D01*
X0267757Y0299095D01*
X0267604Y0299134D01*
X0267452Y0299177D01*
X0267301Y0299224D01*
X0267151Y0299275D01*
X0267002Y0299330D01*
X0266855Y0299388D01*
X0266709Y0299450D01*
X0266565Y0299515D01*
X0266423Y0299585D01*
X0266282Y0299657D01*
X0266143Y0299734D01*
X0266007Y0299813D01*
X0265872Y0299897D01*
X0265739Y0299983D01*
X0265609Y0300073D01*
X0265481Y0300166D01*
X0265355Y0300262D01*
X0265232Y0300362D01*
X0265111Y0300464D01*
X0264993Y0300569D01*
X0264878Y0300678D01*
X0264765Y0300789D01*
X0264655Y0300903D01*
X0264548Y0301020D01*
X0264444Y0301139D01*
X0264343Y0301261D01*
X0264246Y0301386D01*
X0264151Y0301513D01*
X0264060Y0301642D01*
X0263971Y0301773D01*
X0263887Y0301907D01*
X0263805Y0302043D01*
X0263727Y0302180D01*
X0263653Y0302320D01*
X0263582Y0302462D01*
X0263514Y0302605D01*
X0263450Y0302750D01*
X0263390Y0302896D01*
X0263334Y0303044D01*
X0263281Y0303193D01*
X0263232Y0303344D01*
X0263187Y0303496D01*
X0263146Y0303649D01*
X0263108Y0303802D01*
X0263075Y0303957D01*
X0263045Y0304113D01*
X0263019Y0304269D01*
X0262998Y0304426D01*
X0262980Y0304583D01*
X0262966Y0304741D01*
X0262956Y0304899D01*
X0262950Y0305057D01*
X0262948Y0305215D01*
X0207830Y0305215D02*
X0207832Y0305373D01*
X0207838Y0305531D01*
X0207848Y0305689D01*
X0207862Y0305847D01*
X0207880Y0306004D01*
X0207901Y0306161D01*
X0207927Y0306317D01*
X0207957Y0306473D01*
X0207990Y0306628D01*
X0208028Y0306781D01*
X0208069Y0306934D01*
X0208114Y0307086D01*
X0208163Y0307237D01*
X0208216Y0307386D01*
X0208272Y0307534D01*
X0208332Y0307680D01*
X0208396Y0307825D01*
X0208464Y0307968D01*
X0208535Y0308110D01*
X0208609Y0308250D01*
X0208687Y0308387D01*
X0208769Y0308523D01*
X0208853Y0308657D01*
X0208942Y0308788D01*
X0209033Y0308917D01*
X0209128Y0309044D01*
X0209225Y0309169D01*
X0209326Y0309291D01*
X0209430Y0309410D01*
X0209537Y0309527D01*
X0209647Y0309641D01*
X0209760Y0309752D01*
X0209875Y0309861D01*
X0209993Y0309966D01*
X0210114Y0310068D01*
X0210237Y0310168D01*
X0210363Y0310264D01*
X0210491Y0310357D01*
X0210621Y0310447D01*
X0210754Y0310533D01*
X0210889Y0310617D01*
X0211025Y0310696D01*
X0211164Y0310773D01*
X0211305Y0310845D01*
X0211447Y0310915D01*
X0211591Y0310980D01*
X0211737Y0311042D01*
X0211884Y0311100D01*
X0212033Y0311155D01*
X0212183Y0311206D01*
X0212334Y0311253D01*
X0212486Y0311296D01*
X0212639Y0311335D01*
X0212794Y0311371D01*
X0212949Y0311402D01*
X0213105Y0311430D01*
X0213261Y0311454D01*
X0213418Y0311474D01*
X0213576Y0311490D01*
X0213733Y0311502D01*
X0213892Y0311510D01*
X0214050Y0311514D01*
X0214208Y0311514D01*
X0214366Y0311510D01*
X0214525Y0311502D01*
X0214682Y0311490D01*
X0214840Y0311474D01*
X0214997Y0311454D01*
X0215153Y0311430D01*
X0215309Y0311402D01*
X0215464Y0311371D01*
X0215619Y0311335D01*
X0215772Y0311296D01*
X0215924Y0311253D01*
X0216075Y0311206D01*
X0216225Y0311155D01*
X0216374Y0311100D01*
X0216521Y0311042D01*
X0216667Y0310980D01*
X0216811Y0310915D01*
X0216953Y0310845D01*
X0217094Y0310773D01*
X0217233Y0310696D01*
X0217369Y0310617D01*
X0217504Y0310533D01*
X0217637Y0310447D01*
X0217767Y0310357D01*
X0217895Y0310264D01*
X0218021Y0310168D01*
X0218144Y0310068D01*
X0218265Y0309966D01*
X0218383Y0309861D01*
X0218498Y0309752D01*
X0218611Y0309641D01*
X0218721Y0309527D01*
X0218828Y0309410D01*
X0218932Y0309291D01*
X0219033Y0309169D01*
X0219130Y0309044D01*
X0219225Y0308917D01*
X0219316Y0308788D01*
X0219405Y0308657D01*
X0219489Y0308523D01*
X0219571Y0308387D01*
X0219649Y0308250D01*
X0219723Y0308110D01*
X0219794Y0307968D01*
X0219862Y0307825D01*
X0219926Y0307680D01*
X0219986Y0307534D01*
X0220042Y0307386D01*
X0220095Y0307237D01*
X0220144Y0307086D01*
X0220189Y0306934D01*
X0220230Y0306781D01*
X0220268Y0306628D01*
X0220301Y0306473D01*
X0220331Y0306317D01*
X0220357Y0306161D01*
X0220378Y0306004D01*
X0220396Y0305847D01*
X0220410Y0305689D01*
X0220420Y0305531D01*
X0220426Y0305373D01*
X0220428Y0305215D01*
X0220426Y0305057D01*
X0220420Y0304899D01*
X0220410Y0304741D01*
X0220396Y0304583D01*
X0220378Y0304426D01*
X0220357Y0304269D01*
X0220331Y0304113D01*
X0220301Y0303957D01*
X0220268Y0303802D01*
X0220230Y0303649D01*
X0220189Y0303496D01*
X0220144Y0303344D01*
X0220095Y0303193D01*
X0220042Y0303044D01*
X0219986Y0302896D01*
X0219926Y0302750D01*
X0219862Y0302605D01*
X0219794Y0302462D01*
X0219723Y0302320D01*
X0219649Y0302180D01*
X0219571Y0302043D01*
X0219489Y0301907D01*
X0219405Y0301773D01*
X0219316Y0301642D01*
X0219225Y0301513D01*
X0219130Y0301386D01*
X0219033Y0301261D01*
X0218932Y0301139D01*
X0218828Y0301020D01*
X0218721Y0300903D01*
X0218611Y0300789D01*
X0218498Y0300678D01*
X0218383Y0300569D01*
X0218265Y0300464D01*
X0218144Y0300362D01*
X0218021Y0300262D01*
X0217895Y0300166D01*
X0217767Y0300073D01*
X0217637Y0299983D01*
X0217504Y0299897D01*
X0217369Y0299813D01*
X0217233Y0299734D01*
X0217094Y0299657D01*
X0216953Y0299585D01*
X0216811Y0299515D01*
X0216667Y0299450D01*
X0216521Y0299388D01*
X0216374Y0299330D01*
X0216225Y0299275D01*
X0216075Y0299224D01*
X0215924Y0299177D01*
X0215772Y0299134D01*
X0215619Y0299095D01*
X0215464Y0299059D01*
X0215309Y0299028D01*
X0215153Y0299000D01*
X0214997Y0298976D01*
X0214840Y0298956D01*
X0214682Y0298940D01*
X0214525Y0298928D01*
X0214366Y0298920D01*
X0214208Y0298916D01*
X0214050Y0298916D01*
X0213892Y0298920D01*
X0213733Y0298928D01*
X0213576Y0298940D01*
X0213418Y0298956D01*
X0213261Y0298976D01*
X0213105Y0299000D01*
X0212949Y0299028D01*
X0212794Y0299059D01*
X0212639Y0299095D01*
X0212486Y0299134D01*
X0212334Y0299177D01*
X0212183Y0299224D01*
X0212033Y0299275D01*
X0211884Y0299330D01*
X0211737Y0299388D01*
X0211591Y0299450D01*
X0211447Y0299515D01*
X0211305Y0299585D01*
X0211164Y0299657D01*
X0211025Y0299734D01*
X0210889Y0299813D01*
X0210754Y0299897D01*
X0210621Y0299983D01*
X0210491Y0300073D01*
X0210363Y0300166D01*
X0210237Y0300262D01*
X0210114Y0300362D01*
X0209993Y0300464D01*
X0209875Y0300569D01*
X0209760Y0300678D01*
X0209647Y0300789D01*
X0209537Y0300903D01*
X0209430Y0301020D01*
X0209326Y0301139D01*
X0209225Y0301261D01*
X0209128Y0301386D01*
X0209033Y0301513D01*
X0208942Y0301642D01*
X0208853Y0301773D01*
X0208769Y0301907D01*
X0208687Y0302043D01*
X0208609Y0302180D01*
X0208535Y0302320D01*
X0208464Y0302462D01*
X0208396Y0302605D01*
X0208332Y0302750D01*
X0208272Y0302896D01*
X0208216Y0303044D01*
X0208163Y0303193D01*
X0208114Y0303344D01*
X0208069Y0303496D01*
X0208028Y0303649D01*
X0207990Y0303802D01*
X0207957Y0303957D01*
X0207927Y0304113D01*
X0207901Y0304269D01*
X0207880Y0304426D01*
X0207862Y0304583D01*
X0207848Y0304741D01*
X0207838Y0304899D01*
X0207832Y0305057D01*
X0207830Y0305215D01*
X0225854Y0301278D02*
X0225732Y0299079D01*
X0225556Y0296883D01*
X0225327Y0294692D01*
X0225044Y0292508D01*
X0224708Y0290331D01*
X0224320Y0288163D01*
X0223879Y0286005D01*
X0223386Y0283859D01*
X0222840Y0281725D01*
X0222243Y0279605D01*
X0221594Y0277500D01*
X0220895Y0275411D01*
X0220144Y0273340D01*
X0219344Y0271288D01*
X0218494Y0269256D01*
X0217595Y0267246D01*
X0216647Y0265257D01*
X0215651Y0263293D01*
X0214608Y0261353D01*
X0213517Y0259439D01*
X0212381Y0257552D01*
X0211199Y0255694D01*
X0209972Y0253865D01*
X0208701Y0252066D01*
X0207387Y0250298D01*
X0206030Y0248564D01*
X0204631Y0246862D01*
X0203191Y0245195D01*
X0201711Y0243564D01*
X0200192Y0241969D01*
X0198635Y0240412D01*
X0197040Y0238893D01*
X0195408Y0237413D01*
X0193741Y0235973D01*
X0192040Y0234574D01*
X0190305Y0233217D01*
X0188538Y0231903D01*
X0186739Y0230632D01*
X0184910Y0229405D01*
X0183051Y0228223D01*
X0181164Y0227086D01*
X0179251Y0225996D01*
X0177311Y0224953D01*
X0175346Y0223957D01*
X0173358Y0223009D01*
X0171347Y0222110D01*
X0169315Y0221260D01*
X0167263Y0220459D01*
X0165192Y0219709D01*
X0163104Y0219010D01*
X0160999Y0218361D01*
X0158879Y0217764D01*
X0156745Y0217218D01*
X0154598Y0216725D01*
X0152440Y0216284D01*
X0150272Y0215896D01*
X0148095Y0215560D01*
X0145911Y0215277D01*
X0143721Y0215048D01*
X0141525Y0214872D01*
X0139326Y0214750D01*
X0131452Y0214750D02*
X0129239Y0214873D01*
X0127030Y0215051D01*
X0124826Y0215282D01*
X0122629Y0215568D01*
X0120439Y0215907D01*
X0118258Y0216299D01*
X0116087Y0216745D01*
X0113928Y0217244D01*
X0111782Y0217795D01*
X0109650Y0218399D01*
X0107533Y0219055D01*
X0105433Y0219763D01*
X0103351Y0220521D01*
X0101288Y0221331D01*
X0099246Y0222190D01*
X0097225Y0223099D01*
X0095227Y0224058D01*
X0093253Y0225065D01*
X0091304Y0226120D01*
X0089382Y0227223D01*
X0087487Y0228372D01*
X0085621Y0229567D01*
X0083785Y0230807D01*
X0081979Y0232093D01*
X0080206Y0233421D01*
X0078466Y0234793D01*
X0076760Y0236207D01*
X0075088Y0237663D01*
X0073453Y0239158D01*
X0071856Y0240694D01*
X0070296Y0242268D01*
X0068775Y0243880D01*
X0067294Y0245528D01*
X0065854Y0247212D01*
X0064455Y0248931D01*
X0063099Y0250684D01*
X0061786Y0252469D01*
X0060518Y0254286D01*
X0059294Y0256133D01*
X0058116Y0258010D01*
X0056984Y0259915D01*
X0055898Y0261847D01*
X0054861Y0263806D01*
X0053872Y0265789D01*
X0052931Y0267795D01*
X0052040Y0269824D01*
X0051199Y0271874D01*
X0050409Y0273945D01*
X0049669Y0276033D01*
X0048981Y0278140D01*
X0048344Y0280262D01*
X0047759Y0282400D01*
X0047227Y0284551D01*
X0046748Y0286715D01*
X0046322Y0288889D01*
X0045949Y0291074D01*
X0045630Y0293267D01*
X0045364Y0295467D01*
X0045153Y0297672D01*
X0044995Y0299883D01*
X0044892Y0302096D01*
X0044843Y0304312D01*
X0044848Y0306528D01*
X0044907Y0308743D01*
X0045020Y0310956D01*
X0045188Y0313166D01*
X0045409Y0315371D01*
X0045685Y0317570D01*
X0046014Y0319761D01*
X0046397Y0321944D01*
X0046833Y0324116D01*
X0047322Y0326278D01*
X0047864Y0328426D01*
X0048458Y0330561D01*
X0049104Y0332681D01*
X0049802Y0334784D01*
X0050551Y0336870D01*
X0051351Y0338936D01*
X0052202Y0340983D01*
X0053102Y0343008D01*
X0054051Y0345010D01*
X0055049Y0346988D01*
X0056096Y0348942D01*
X0057189Y0350869D01*
X0058330Y0352769D01*
X0059517Y0354640D01*
X0060749Y0356482D01*
X0062026Y0358293D01*
X0063347Y0360073D01*
X0064711Y0361819D01*
X0066117Y0363532D01*
X0067565Y0365210D01*
X0069053Y0366851D01*
X0070581Y0368456D01*
X0072148Y0370023D01*
X0073753Y0371551D01*
X0075395Y0373040D01*
X0077072Y0374487D01*
X0078785Y0375894D01*
X0080532Y0377258D01*
X0082311Y0378578D01*
X0084122Y0379855D01*
X0085964Y0381088D01*
X0087835Y0382274D01*
X0089735Y0383415D01*
X0091663Y0384509D01*
X0093616Y0385555D01*
X0095594Y0386553D01*
X0097597Y0387502D01*
X0099622Y0388403D01*
X0101668Y0389253D01*
X0103735Y0390053D01*
X0105820Y0390802D01*
X0107923Y0391500D01*
X0110043Y0392146D01*
X0112178Y0392741D01*
X0114327Y0393282D01*
X0116488Y0393771D01*
X0118661Y0394207D01*
X0120843Y0394590D01*
X0123035Y0394919D01*
X0125234Y0395195D01*
X0127439Y0395416D01*
X0129648Y0395584D01*
X0131861Y0395697D01*
X0134076Y0395756D01*
X0136292Y0395761D01*
X0138508Y0395712D01*
X0140722Y0395609D01*
X0142932Y0395451D01*
X0145138Y0395240D01*
X0147338Y0394974D01*
X0149531Y0394655D01*
X0151715Y0394282D01*
X0153890Y0393856D01*
X0156053Y0393377D01*
X0158205Y0392845D01*
X0160342Y0392260D01*
X0162465Y0391623D01*
X0164571Y0390935D01*
X0166660Y0390195D01*
X0168730Y0389404D01*
X0170780Y0388563D01*
X0172809Y0387672D01*
X0174816Y0386732D01*
X0176799Y0385743D01*
X0178757Y0384705D01*
X0180689Y0383620D01*
X0182594Y0382488D01*
X0184471Y0381310D01*
X0186318Y0380086D01*
X0188135Y0378817D01*
X0189920Y0377505D01*
X0191673Y0376149D01*
X0193392Y0374750D01*
X0195076Y0373310D01*
X0196725Y0371829D01*
X0198336Y0370308D01*
X0199910Y0368748D01*
X0201446Y0367150D01*
X0202942Y0365515D01*
X0204397Y0363844D01*
X0205811Y0362138D01*
X0207183Y0360398D01*
X0208512Y0358624D01*
X0209797Y0356819D01*
X0211037Y0354983D01*
X0212232Y0353117D01*
X0213382Y0351222D01*
X0214484Y0349300D01*
X0215539Y0347351D01*
X0216546Y0345377D01*
X0217505Y0343379D01*
X0218414Y0341358D01*
X0219274Y0339316D01*
X0220083Y0337253D01*
X0220842Y0335171D01*
X0221549Y0333071D01*
X0222205Y0330954D01*
X0222809Y0328822D01*
X0223360Y0326675D01*
X0223859Y0324516D01*
X0224305Y0322346D01*
X0224697Y0320165D01*
X0225036Y0317975D01*
X0225322Y0315777D01*
X0225553Y0313573D01*
X0225731Y0311364D01*
X0225854Y0309152D01*
X0257522Y0309152D02*
X0257645Y0311362D01*
X0257822Y0313569D01*
X0258053Y0315771D01*
X0258338Y0317966D01*
X0258677Y0320154D01*
X0259069Y0322333D01*
X0259514Y0324502D01*
X0260012Y0326659D01*
X0260562Y0328803D01*
X0261165Y0330933D01*
X0261820Y0333048D01*
X0262526Y0335146D01*
X0263283Y0337227D01*
X0264091Y0339288D01*
X0264949Y0341329D01*
X0265857Y0343348D01*
X0266814Y0345344D01*
X0267819Y0347317D01*
X0268872Y0349264D01*
X0269973Y0351185D01*
X0271120Y0353078D01*
X0272313Y0354943D01*
X0273551Y0356778D01*
X0274834Y0358583D01*
X0276160Y0360355D01*
X0277530Y0362094D01*
X0278941Y0363800D01*
X0280394Y0365470D01*
X0281888Y0367105D01*
X0283420Y0368702D01*
X0284992Y0370262D01*
X0286601Y0371782D01*
X0288246Y0373263D01*
X0289928Y0374703D01*
X0291644Y0376102D01*
X0293394Y0377458D01*
X0295176Y0378771D01*
X0296990Y0380040D01*
X0298835Y0381264D01*
X0300708Y0382443D01*
X0302611Y0383576D01*
X0304540Y0384662D01*
X0306495Y0385700D01*
X0308475Y0386691D01*
X0310479Y0387632D01*
X0312505Y0388525D01*
X0314552Y0389367D01*
X0316619Y0390159D01*
X0318705Y0390901D01*
X0320809Y0391591D01*
X0322928Y0392230D01*
X0325063Y0392816D01*
X0327212Y0393350D01*
X0329372Y0393832D01*
X0331544Y0394261D01*
X0333726Y0394636D01*
X0335916Y0394958D01*
X0338114Y0395226D01*
X0340317Y0395441D01*
X0342525Y0395601D01*
X0344737Y0395708D01*
X0346950Y0395760D01*
X0349164Y0395758D01*
X0351377Y0395703D01*
X0353588Y0395593D01*
X0355796Y0395429D01*
X0357999Y0395211D01*
X0360196Y0394939D01*
X0362386Y0394614D01*
X0364567Y0394235D01*
X0366738Y0393803D01*
X0368898Y0393318D01*
X0371046Y0392781D01*
X0373180Y0392191D01*
X0375299Y0391549D01*
X0377401Y0390856D01*
X0379486Y0390111D01*
X0381552Y0389315D01*
X0383598Y0388470D01*
X0385622Y0387574D01*
X0387625Y0386630D01*
X0389603Y0385636D01*
X0391557Y0384595D01*
X0393484Y0383506D01*
X0395385Y0382370D01*
X0397257Y0381189D01*
X0399099Y0379961D01*
X0400911Y0378690D01*
X0402692Y0377374D01*
X0404439Y0376015D01*
X0406153Y0374614D01*
X0407833Y0373171D01*
X0409476Y0371688D01*
X0411083Y0370164D01*
X0412652Y0368603D01*
X0414182Y0367003D01*
X0415673Y0365366D01*
X0417123Y0363693D01*
X0418532Y0361986D01*
X0419899Y0360244D01*
X0421222Y0358470D01*
X0422502Y0356663D01*
X0423738Y0354826D01*
X0424928Y0352960D01*
X0426072Y0351064D01*
X0427170Y0349142D01*
X0428220Y0347193D01*
X0429222Y0345219D01*
X0430176Y0343221D01*
X0431080Y0341200D01*
X0431935Y0339158D01*
X0432740Y0337096D01*
X0433494Y0335014D01*
X0434197Y0332915D01*
X0434849Y0330799D01*
X0435448Y0328668D01*
X0435995Y0326523D01*
X0436490Y0324365D01*
X0436932Y0322196D01*
X0437320Y0320016D01*
X0437655Y0317828D01*
X0437937Y0315632D01*
X0438165Y0313430D01*
X0438338Y0311223D01*
X0438458Y0309012D01*
X0438524Y0306800D01*
X0438536Y0304586D01*
X0438493Y0302372D01*
X0438397Y0300161D01*
X0438246Y0297952D01*
X0438042Y0295748D01*
X0437783Y0293549D01*
X0437471Y0291357D01*
X0437106Y0289174D01*
X0436687Y0287000D01*
X0436215Y0284837D01*
X0435691Y0282686D01*
X0435114Y0280549D01*
X0434485Y0278426D01*
X0433804Y0276319D01*
X0433072Y0274230D01*
X0432289Y0272159D01*
X0431456Y0270108D01*
X0430572Y0268078D01*
X0429640Y0266070D01*
X0428658Y0264086D01*
X0427629Y0262126D01*
X0426552Y0260192D01*
X0425428Y0258285D01*
X0424257Y0256406D01*
X0423041Y0254556D01*
X0421780Y0252736D01*
X0420475Y0250948D01*
X0419127Y0249192D01*
X0417736Y0247469D01*
X0416303Y0245781D01*
X0414830Y0244129D01*
X0413317Y0242513D01*
X0411764Y0240935D01*
X0410174Y0239395D01*
X0408546Y0237894D01*
X0406882Y0236434D01*
X0405183Y0235015D01*
X0403450Y0233638D01*
X0401684Y0232303D01*
X0399885Y0231012D01*
X0398056Y0229766D01*
X0396196Y0228564D01*
X0394308Y0227408D01*
X0392392Y0226299D01*
X0390449Y0225237D01*
X0388481Y0224223D01*
X0386489Y0223257D01*
X0384474Y0222341D01*
X0382437Y0221473D01*
X0380380Y0220656D01*
X0378303Y0219890D01*
X0376208Y0219174D01*
X0374096Y0218510D01*
X0371969Y0217897D01*
X0369827Y0217337D01*
X0367672Y0216830D01*
X0420429Y0305215D02*
X0420431Y0305373D01*
X0420437Y0305531D01*
X0420447Y0305689D01*
X0420461Y0305847D01*
X0420479Y0306004D01*
X0420500Y0306161D01*
X0420526Y0306317D01*
X0420556Y0306473D01*
X0420589Y0306628D01*
X0420627Y0306781D01*
X0420668Y0306934D01*
X0420713Y0307086D01*
X0420762Y0307237D01*
X0420815Y0307386D01*
X0420871Y0307534D01*
X0420931Y0307680D01*
X0420995Y0307825D01*
X0421063Y0307968D01*
X0421134Y0308110D01*
X0421208Y0308250D01*
X0421286Y0308387D01*
X0421368Y0308523D01*
X0421452Y0308657D01*
X0421541Y0308788D01*
X0421632Y0308917D01*
X0421727Y0309044D01*
X0421824Y0309169D01*
X0421925Y0309291D01*
X0422029Y0309410D01*
X0422136Y0309527D01*
X0422246Y0309641D01*
X0422359Y0309752D01*
X0422474Y0309861D01*
X0422592Y0309966D01*
X0422713Y0310068D01*
X0422836Y0310168D01*
X0422962Y0310264D01*
X0423090Y0310357D01*
X0423220Y0310447D01*
X0423353Y0310533D01*
X0423488Y0310617D01*
X0423624Y0310696D01*
X0423763Y0310773D01*
X0423904Y0310845D01*
X0424046Y0310915D01*
X0424190Y0310980D01*
X0424336Y0311042D01*
X0424483Y0311100D01*
X0424632Y0311155D01*
X0424782Y0311206D01*
X0424933Y0311253D01*
X0425085Y0311296D01*
X0425238Y0311335D01*
X0425393Y0311371D01*
X0425548Y0311402D01*
X0425704Y0311430D01*
X0425860Y0311454D01*
X0426017Y0311474D01*
X0426175Y0311490D01*
X0426332Y0311502D01*
X0426491Y0311510D01*
X0426649Y0311514D01*
X0426807Y0311514D01*
X0426965Y0311510D01*
X0427124Y0311502D01*
X0427281Y0311490D01*
X0427439Y0311474D01*
X0427596Y0311454D01*
X0427752Y0311430D01*
X0427908Y0311402D01*
X0428063Y0311371D01*
X0428218Y0311335D01*
X0428371Y0311296D01*
X0428523Y0311253D01*
X0428674Y0311206D01*
X0428824Y0311155D01*
X0428973Y0311100D01*
X0429120Y0311042D01*
X0429266Y0310980D01*
X0429410Y0310915D01*
X0429552Y0310845D01*
X0429693Y0310773D01*
X0429832Y0310696D01*
X0429968Y0310617D01*
X0430103Y0310533D01*
X0430236Y0310447D01*
X0430366Y0310357D01*
X0430494Y0310264D01*
X0430620Y0310168D01*
X0430743Y0310068D01*
X0430864Y0309966D01*
X0430982Y0309861D01*
X0431097Y0309752D01*
X0431210Y0309641D01*
X0431320Y0309527D01*
X0431427Y0309410D01*
X0431531Y0309291D01*
X0431632Y0309169D01*
X0431729Y0309044D01*
X0431824Y0308917D01*
X0431915Y0308788D01*
X0432004Y0308657D01*
X0432088Y0308523D01*
X0432170Y0308387D01*
X0432248Y0308250D01*
X0432322Y0308110D01*
X0432393Y0307968D01*
X0432461Y0307825D01*
X0432525Y0307680D01*
X0432585Y0307534D01*
X0432641Y0307386D01*
X0432694Y0307237D01*
X0432743Y0307086D01*
X0432788Y0306934D01*
X0432829Y0306781D01*
X0432867Y0306628D01*
X0432900Y0306473D01*
X0432930Y0306317D01*
X0432956Y0306161D01*
X0432977Y0306004D01*
X0432995Y0305847D01*
X0433009Y0305689D01*
X0433019Y0305531D01*
X0433025Y0305373D01*
X0433027Y0305215D01*
X0433025Y0305057D01*
X0433019Y0304899D01*
X0433009Y0304741D01*
X0432995Y0304583D01*
X0432977Y0304426D01*
X0432956Y0304269D01*
X0432930Y0304113D01*
X0432900Y0303957D01*
X0432867Y0303802D01*
X0432829Y0303649D01*
X0432788Y0303496D01*
X0432743Y0303344D01*
X0432694Y0303193D01*
X0432641Y0303044D01*
X0432585Y0302896D01*
X0432525Y0302750D01*
X0432461Y0302605D01*
X0432393Y0302462D01*
X0432322Y0302320D01*
X0432248Y0302180D01*
X0432170Y0302043D01*
X0432088Y0301907D01*
X0432004Y0301773D01*
X0431915Y0301642D01*
X0431824Y0301513D01*
X0431729Y0301386D01*
X0431632Y0301261D01*
X0431531Y0301139D01*
X0431427Y0301020D01*
X0431320Y0300903D01*
X0431210Y0300789D01*
X0431097Y0300678D01*
X0430982Y0300569D01*
X0430864Y0300464D01*
X0430743Y0300362D01*
X0430620Y0300262D01*
X0430494Y0300166D01*
X0430366Y0300073D01*
X0430236Y0299983D01*
X0430103Y0299897D01*
X0429968Y0299813D01*
X0429832Y0299734D01*
X0429693Y0299657D01*
X0429552Y0299585D01*
X0429410Y0299515D01*
X0429266Y0299450D01*
X0429120Y0299388D01*
X0428973Y0299330D01*
X0428824Y0299275D01*
X0428674Y0299224D01*
X0428523Y0299177D01*
X0428371Y0299134D01*
X0428218Y0299095D01*
X0428063Y0299059D01*
X0427908Y0299028D01*
X0427752Y0299000D01*
X0427596Y0298976D01*
X0427439Y0298956D01*
X0427281Y0298940D01*
X0427124Y0298928D01*
X0426965Y0298920D01*
X0426807Y0298916D01*
X0426649Y0298916D01*
X0426491Y0298920D01*
X0426332Y0298928D01*
X0426175Y0298940D01*
X0426017Y0298956D01*
X0425860Y0298976D01*
X0425704Y0299000D01*
X0425548Y0299028D01*
X0425393Y0299059D01*
X0425238Y0299095D01*
X0425085Y0299134D01*
X0424933Y0299177D01*
X0424782Y0299224D01*
X0424632Y0299275D01*
X0424483Y0299330D01*
X0424336Y0299388D01*
X0424190Y0299450D01*
X0424046Y0299515D01*
X0423904Y0299585D01*
X0423763Y0299657D01*
X0423624Y0299734D01*
X0423488Y0299813D01*
X0423353Y0299897D01*
X0423220Y0299983D01*
X0423090Y0300073D01*
X0422962Y0300166D01*
X0422836Y0300262D01*
X0422713Y0300362D01*
X0422592Y0300464D01*
X0422474Y0300569D01*
X0422359Y0300678D01*
X0422246Y0300789D01*
X0422136Y0300903D01*
X0422029Y0301020D01*
X0421925Y0301139D01*
X0421824Y0301261D01*
X0421727Y0301386D01*
X0421632Y0301513D01*
X0421541Y0301642D01*
X0421452Y0301773D01*
X0421368Y0301907D01*
X0421286Y0302043D01*
X0421208Y0302180D01*
X0421134Y0302320D01*
X0421063Y0302462D01*
X0420995Y0302605D01*
X0420931Y0302750D01*
X0420871Y0302896D01*
X0420815Y0303044D01*
X0420762Y0303193D01*
X0420713Y0303344D01*
X0420668Y0303496D01*
X0420627Y0303649D01*
X0420589Y0303802D01*
X0420556Y0303957D01*
X0420526Y0304113D01*
X0420500Y0304269D01*
X0420479Y0304426D01*
X0420461Y0304583D01*
X0420447Y0304741D01*
X0420437Y0304899D01*
X0420431Y0305057D01*
X0420429Y0305215D01*
X0420429Y0092616D02*
X0420431Y0092774D01*
X0420437Y0092932D01*
X0420447Y0093090D01*
X0420461Y0093248D01*
X0420479Y0093405D01*
X0420500Y0093562D01*
X0420526Y0093718D01*
X0420556Y0093874D01*
X0420589Y0094029D01*
X0420627Y0094182D01*
X0420668Y0094335D01*
X0420713Y0094487D01*
X0420762Y0094638D01*
X0420815Y0094787D01*
X0420871Y0094935D01*
X0420931Y0095081D01*
X0420995Y0095226D01*
X0421063Y0095369D01*
X0421134Y0095511D01*
X0421208Y0095651D01*
X0421286Y0095788D01*
X0421368Y0095924D01*
X0421452Y0096058D01*
X0421541Y0096189D01*
X0421632Y0096318D01*
X0421727Y0096445D01*
X0421824Y0096570D01*
X0421925Y0096692D01*
X0422029Y0096811D01*
X0422136Y0096928D01*
X0422246Y0097042D01*
X0422359Y0097153D01*
X0422474Y0097262D01*
X0422592Y0097367D01*
X0422713Y0097469D01*
X0422836Y0097569D01*
X0422962Y0097665D01*
X0423090Y0097758D01*
X0423220Y0097848D01*
X0423353Y0097934D01*
X0423488Y0098018D01*
X0423624Y0098097D01*
X0423763Y0098174D01*
X0423904Y0098246D01*
X0424046Y0098316D01*
X0424190Y0098381D01*
X0424336Y0098443D01*
X0424483Y0098501D01*
X0424632Y0098556D01*
X0424782Y0098607D01*
X0424933Y0098654D01*
X0425085Y0098697D01*
X0425238Y0098736D01*
X0425393Y0098772D01*
X0425548Y0098803D01*
X0425704Y0098831D01*
X0425860Y0098855D01*
X0426017Y0098875D01*
X0426175Y0098891D01*
X0426332Y0098903D01*
X0426491Y0098911D01*
X0426649Y0098915D01*
X0426807Y0098915D01*
X0426965Y0098911D01*
X0427124Y0098903D01*
X0427281Y0098891D01*
X0427439Y0098875D01*
X0427596Y0098855D01*
X0427752Y0098831D01*
X0427908Y0098803D01*
X0428063Y0098772D01*
X0428218Y0098736D01*
X0428371Y0098697D01*
X0428523Y0098654D01*
X0428674Y0098607D01*
X0428824Y0098556D01*
X0428973Y0098501D01*
X0429120Y0098443D01*
X0429266Y0098381D01*
X0429410Y0098316D01*
X0429552Y0098246D01*
X0429693Y0098174D01*
X0429832Y0098097D01*
X0429968Y0098018D01*
X0430103Y0097934D01*
X0430236Y0097848D01*
X0430366Y0097758D01*
X0430494Y0097665D01*
X0430620Y0097569D01*
X0430743Y0097469D01*
X0430864Y0097367D01*
X0430982Y0097262D01*
X0431097Y0097153D01*
X0431210Y0097042D01*
X0431320Y0096928D01*
X0431427Y0096811D01*
X0431531Y0096692D01*
X0431632Y0096570D01*
X0431729Y0096445D01*
X0431824Y0096318D01*
X0431915Y0096189D01*
X0432004Y0096058D01*
X0432088Y0095924D01*
X0432170Y0095788D01*
X0432248Y0095651D01*
X0432322Y0095511D01*
X0432393Y0095369D01*
X0432461Y0095226D01*
X0432525Y0095081D01*
X0432585Y0094935D01*
X0432641Y0094787D01*
X0432694Y0094638D01*
X0432743Y0094487D01*
X0432788Y0094335D01*
X0432829Y0094182D01*
X0432867Y0094029D01*
X0432900Y0093874D01*
X0432930Y0093718D01*
X0432956Y0093562D01*
X0432977Y0093405D01*
X0432995Y0093248D01*
X0433009Y0093090D01*
X0433019Y0092932D01*
X0433025Y0092774D01*
X0433027Y0092616D01*
X0433025Y0092458D01*
X0433019Y0092300D01*
X0433009Y0092142D01*
X0432995Y0091984D01*
X0432977Y0091827D01*
X0432956Y0091670D01*
X0432930Y0091514D01*
X0432900Y0091358D01*
X0432867Y0091203D01*
X0432829Y0091050D01*
X0432788Y0090897D01*
X0432743Y0090745D01*
X0432694Y0090594D01*
X0432641Y0090445D01*
X0432585Y0090297D01*
X0432525Y0090151D01*
X0432461Y0090006D01*
X0432393Y0089863D01*
X0432322Y0089721D01*
X0432248Y0089581D01*
X0432170Y0089444D01*
X0432088Y0089308D01*
X0432004Y0089174D01*
X0431915Y0089043D01*
X0431824Y0088914D01*
X0431729Y0088787D01*
X0431632Y0088662D01*
X0431531Y0088540D01*
X0431427Y0088421D01*
X0431320Y0088304D01*
X0431210Y0088190D01*
X0431097Y0088079D01*
X0430982Y0087970D01*
X0430864Y0087865D01*
X0430743Y0087763D01*
X0430620Y0087663D01*
X0430494Y0087567D01*
X0430366Y0087474D01*
X0430236Y0087384D01*
X0430103Y0087298D01*
X0429968Y0087214D01*
X0429832Y0087135D01*
X0429693Y0087058D01*
X0429552Y0086986D01*
X0429410Y0086916D01*
X0429266Y0086851D01*
X0429120Y0086789D01*
X0428973Y0086731D01*
X0428824Y0086676D01*
X0428674Y0086625D01*
X0428523Y0086578D01*
X0428371Y0086535D01*
X0428218Y0086496D01*
X0428063Y0086460D01*
X0427908Y0086429D01*
X0427752Y0086401D01*
X0427596Y0086377D01*
X0427439Y0086357D01*
X0427281Y0086341D01*
X0427124Y0086329D01*
X0426965Y0086321D01*
X0426807Y0086317D01*
X0426649Y0086317D01*
X0426491Y0086321D01*
X0426332Y0086329D01*
X0426175Y0086341D01*
X0426017Y0086357D01*
X0425860Y0086377D01*
X0425704Y0086401D01*
X0425548Y0086429D01*
X0425393Y0086460D01*
X0425238Y0086496D01*
X0425085Y0086535D01*
X0424933Y0086578D01*
X0424782Y0086625D01*
X0424632Y0086676D01*
X0424483Y0086731D01*
X0424336Y0086789D01*
X0424190Y0086851D01*
X0424046Y0086916D01*
X0423904Y0086986D01*
X0423763Y0087058D01*
X0423624Y0087135D01*
X0423488Y0087214D01*
X0423353Y0087298D01*
X0423220Y0087384D01*
X0423090Y0087474D01*
X0422962Y0087567D01*
X0422836Y0087663D01*
X0422713Y0087763D01*
X0422592Y0087865D01*
X0422474Y0087970D01*
X0422359Y0088079D01*
X0422246Y0088190D01*
X0422136Y0088304D01*
X0422029Y0088421D01*
X0421925Y0088540D01*
X0421824Y0088662D01*
X0421727Y0088787D01*
X0421632Y0088914D01*
X0421541Y0089043D01*
X0421452Y0089174D01*
X0421368Y0089308D01*
X0421286Y0089444D01*
X0421208Y0089581D01*
X0421134Y0089721D01*
X0421063Y0089863D01*
X0420995Y0090006D01*
X0420931Y0090151D01*
X0420871Y0090297D01*
X0420815Y0090445D01*
X0420762Y0090594D01*
X0420713Y0090745D01*
X0420668Y0090897D01*
X0420627Y0091050D01*
X0420589Y0091203D01*
X0420556Y0091358D01*
X0420526Y0091514D01*
X0420500Y0091670D01*
X0420479Y0091827D01*
X0420461Y0091984D01*
X0420447Y0092142D01*
X0420437Y0092300D01*
X0420431Y0092458D01*
X0420429Y0092616D01*
X0050350Y0305215D02*
X0050352Y0305373D01*
X0050358Y0305531D01*
X0050368Y0305689D01*
X0050382Y0305847D01*
X0050400Y0306004D01*
X0050421Y0306161D01*
X0050447Y0306317D01*
X0050477Y0306473D01*
X0050510Y0306628D01*
X0050548Y0306781D01*
X0050589Y0306934D01*
X0050634Y0307086D01*
X0050683Y0307237D01*
X0050736Y0307386D01*
X0050792Y0307534D01*
X0050852Y0307680D01*
X0050916Y0307825D01*
X0050984Y0307968D01*
X0051055Y0308110D01*
X0051129Y0308250D01*
X0051207Y0308387D01*
X0051289Y0308523D01*
X0051373Y0308657D01*
X0051462Y0308788D01*
X0051553Y0308917D01*
X0051648Y0309044D01*
X0051745Y0309169D01*
X0051846Y0309291D01*
X0051950Y0309410D01*
X0052057Y0309527D01*
X0052167Y0309641D01*
X0052280Y0309752D01*
X0052395Y0309861D01*
X0052513Y0309966D01*
X0052634Y0310068D01*
X0052757Y0310168D01*
X0052883Y0310264D01*
X0053011Y0310357D01*
X0053141Y0310447D01*
X0053274Y0310533D01*
X0053409Y0310617D01*
X0053545Y0310696D01*
X0053684Y0310773D01*
X0053825Y0310845D01*
X0053967Y0310915D01*
X0054111Y0310980D01*
X0054257Y0311042D01*
X0054404Y0311100D01*
X0054553Y0311155D01*
X0054703Y0311206D01*
X0054854Y0311253D01*
X0055006Y0311296D01*
X0055159Y0311335D01*
X0055314Y0311371D01*
X0055469Y0311402D01*
X0055625Y0311430D01*
X0055781Y0311454D01*
X0055938Y0311474D01*
X0056096Y0311490D01*
X0056253Y0311502D01*
X0056412Y0311510D01*
X0056570Y0311514D01*
X0056728Y0311514D01*
X0056886Y0311510D01*
X0057045Y0311502D01*
X0057202Y0311490D01*
X0057360Y0311474D01*
X0057517Y0311454D01*
X0057673Y0311430D01*
X0057829Y0311402D01*
X0057984Y0311371D01*
X0058139Y0311335D01*
X0058292Y0311296D01*
X0058444Y0311253D01*
X0058595Y0311206D01*
X0058745Y0311155D01*
X0058894Y0311100D01*
X0059041Y0311042D01*
X0059187Y0310980D01*
X0059331Y0310915D01*
X0059473Y0310845D01*
X0059614Y0310773D01*
X0059753Y0310696D01*
X0059889Y0310617D01*
X0060024Y0310533D01*
X0060157Y0310447D01*
X0060287Y0310357D01*
X0060415Y0310264D01*
X0060541Y0310168D01*
X0060664Y0310068D01*
X0060785Y0309966D01*
X0060903Y0309861D01*
X0061018Y0309752D01*
X0061131Y0309641D01*
X0061241Y0309527D01*
X0061348Y0309410D01*
X0061452Y0309291D01*
X0061553Y0309169D01*
X0061650Y0309044D01*
X0061745Y0308917D01*
X0061836Y0308788D01*
X0061925Y0308657D01*
X0062009Y0308523D01*
X0062091Y0308387D01*
X0062169Y0308250D01*
X0062243Y0308110D01*
X0062314Y0307968D01*
X0062382Y0307825D01*
X0062446Y0307680D01*
X0062506Y0307534D01*
X0062562Y0307386D01*
X0062615Y0307237D01*
X0062664Y0307086D01*
X0062709Y0306934D01*
X0062750Y0306781D01*
X0062788Y0306628D01*
X0062821Y0306473D01*
X0062851Y0306317D01*
X0062877Y0306161D01*
X0062898Y0306004D01*
X0062916Y0305847D01*
X0062930Y0305689D01*
X0062940Y0305531D01*
X0062946Y0305373D01*
X0062948Y0305215D01*
X0062946Y0305057D01*
X0062940Y0304899D01*
X0062930Y0304741D01*
X0062916Y0304583D01*
X0062898Y0304426D01*
X0062877Y0304269D01*
X0062851Y0304113D01*
X0062821Y0303957D01*
X0062788Y0303802D01*
X0062750Y0303649D01*
X0062709Y0303496D01*
X0062664Y0303344D01*
X0062615Y0303193D01*
X0062562Y0303044D01*
X0062506Y0302896D01*
X0062446Y0302750D01*
X0062382Y0302605D01*
X0062314Y0302462D01*
X0062243Y0302320D01*
X0062169Y0302180D01*
X0062091Y0302043D01*
X0062009Y0301907D01*
X0061925Y0301773D01*
X0061836Y0301642D01*
X0061745Y0301513D01*
X0061650Y0301386D01*
X0061553Y0301261D01*
X0061452Y0301139D01*
X0061348Y0301020D01*
X0061241Y0300903D01*
X0061131Y0300789D01*
X0061018Y0300678D01*
X0060903Y0300569D01*
X0060785Y0300464D01*
X0060664Y0300362D01*
X0060541Y0300262D01*
X0060415Y0300166D01*
X0060287Y0300073D01*
X0060157Y0299983D01*
X0060024Y0299897D01*
X0059889Y0299813D01*
X0059753Y0299734D01*
X0059614Y0299657D01*
X0059473Y0299585D01*
X0059331Y0299515D01*
X0059187Y0299450D01*
X0059041Y0299388D01*
X0058894Y0299330D01*
X0058745Y0299275D01*
X0058595Y0299224D01*
X0058444Y0299177D01*
X0058292Y0299134D01*
X0058139Y0299095D01*
X0057984Y0299059D01*
X0057829Y0299028D01*
X0057673Y0299000D01*
X0057517Y0298976D01*
X0057360Y0298956D01*
X0057202Y0298940D01*
X0057045Y0298928D01*
X0056886Y0298920D01*
X0056728Y0298916D01*
X0056570Y0298916D01*
X0056412Y0298920D01*
X0056253Y0298928D01*
X0056096Y0298940D01*
X0055938Y0298956D01*
X0055781Y0298976D01*
X0055625Y0299000D01*
X0055469Y0299028D01*
X0055314Y0299059D01*
X0055159Y0299095D01*
X0055006Y0299134D01*
X0054854Y0299177D01*
X0054703Y0299224D01*
X0054553Y0299275D01*
X0054404Y0299330D01*
X0054257Y0299388D01*
X0054111Y0299450D01*
X0053967Y0299515D01*
X0053825Y0299585D01*
X0053684Y0299657D01*
X0053545Y0299734D01*
X0053409Y0299813D01*
X0053274Y0299897D01*
X0053141Y0299983D01*
X0053011Y0300073D01*
X0052883Y0300166D01*
X0052757Y0300262D01*
X0052634Y0300362D01*
X0052513Y0300464D01*
X0052395Y0300569D01*
X0052280Y0300678D01*
X0052167Y0300789D01*
X0052057Y0300903D01*
X0051950Y0301020D01*
X0051846Y0301139D01*
X0051745Y0301261D01*
X0051648Y0301386D01*
X0051553Y0301513D01*
X0051462Y0301642D01*
X0051373Y0301773D01*
X0051289Y0301907D01*
X0051207Y0302043D01*
X0051129Y0302180D01*
X0051055Y0302320D01*
X0050984Y0302462D01*
X0050916Y0302605D01*
X0050852Y0302750D01*
X0050792Y0302896D01*
X0050736Y0303044D01*
X0050683Y0303193D01*
X0050634Y0303344D01*
X0050589Y0303496D01*
X0050548Y0303649D01*
X0050510Y0303802D01*
X0050477Y0303957D01*
X0050447Y0304113D01*
X0050421Y0304269D01*
X0050400Y0304426D01*
X0050382Y0304583D01*
X0050368Y0304741D01*
X0050358Y0304899D01*
X0050352Y0305057D01*
X0050350Y0305215D01*
D11*
X0056649Y0305215D03*
X0214129Y0305215D03*
X0269247Y0305215D03*
X0426728Y0305215D03*
X0426728Y0092616D03*
X0269247Y0092616D03*
X0214129Y0092616D03*
X0056649Y0092616D03*
D12*
X0120389Y0280715D03*
X0127889Y0278215D03*
X0136389Y0277715D03*
X0144889Y0278215D03*
X0151889Y0282715D03*
X0157389Y0287715D03*
X0160889Y0294715D03*
X0163389Y0302715D03*
X0162389Y0311215D03*
X0159889Y0317715D03*
X0155389Y0323715D03*
X0149389Y0329215D03*
X0142889Y0332215D03*
X0134889Y0332715D03*
X0125889Y0331715D03*
X0118889Y0327715D03*
X0113389Y0322215D03*
X0109389Y0315215D03*
X0107389Y0308215D03*
X0107389Y0300215D03*
X0109889Y0292215D03*
X0113889Y0286215D03*
D13*
X0127515Y0371455D03*
X0135389Y0380707D03*
X0143263Y0371455D03*
X0151137Y0380707D03*
X0159011Y0371455D03*
X0166885Y0380707D03*
X0174759Y0371455D03*
X0340113Y0371455D03*
X0347987Y0380707D03*
X0355861Y0371455D03*
X0363736Y0380707D03*
X0371610Y0371455D03*
X0379484Y0380707D03*
X0387358Y0371455D03*
D14*
X0179432Y0075298D02*
X0185000Y0069731D01*
X0179989Y0053584D02*
X0174421Y0048016D01*
X0157440Y0064998D02*
X0163007Y0070566D01*
D15*
X0359798Y0252065D03*
X0359798Y0259939D03*
D16*
X0092082Y0061120D03*
X0111767Y0061120D03*
M02*
