%
M48
M72
T01C0.01378
T02C0.02362
T03C0.03937
T04C0.04724
T05C0.12598
%
T01
X60586Y55215
X66491Y61120
X72397Y55215
X78302Y49309
X72397Y43404
X78302Y37498
X84208Y31593
X90113Y25687
X96019Y31593
X101924Y37498
X107830Y43404
X113736Y37498
X119641Y43404
X113736Y49309
X107830Y55215
X101924Y49309
X96019Y43404
X90113Y37498
X84208Y43404
X90113Y49309
X84208Y55215
X96019Y55215
X101924Y61120
X107830Y67026
X101924Y72931
X107830Y78837
X113736Y72931
X119641Y67026
X125547Y61120
X131452Y55215
X125547Y49309
X119641Y55215
X137358Y72931
X133421Y76868
X129484Y80805
X125547Y84742
X121610Y88679
X117673Y92616
X113736Y96554
X105861Y108365
X123578Y100491
X127515Y96554
X131452Y100491
X135389Y108365
X131452Y112302
X139326Y112302
X141295Y106396
X141728Y116829
X139326Y122144
X135389Y128050
X131452Y122144
X141295Y130018
X133421Y135924
X133421Y139861
X131452Y147735
X127515Y151672
X125547Y155609
X129484Y155609
X135389Y151672
X125547Y147735
X119641Y167420
X117673Y171357
X113736Y167420
X111767Y171357
X107830Y167420
X105861Y171357
X101924Y167420
X123578Y171357
X133421Y171357
X133421Y167420
X166688Y137774
X170822Y131987
X174759Y135924
X178696Y139861
X174759Y143798
X186570Y141829
X192476Y141829
X194444Y135924
X198381Y131987
X194444Y128050
X198381Y124113
X194444Y120176
X198381Y116239
X194444Y112302
X186570Y112302
X186570Y102459
X176728Y104428
X170822Y98522
X174759Y92616
X161098Y100097
X162948Y80805
X157043Y76868
X168854Y63089
X172791Y67026
X176728Y63089
X172791Y59152
X168854Y55215
X164917Y59152
X160980Y55215
X164917Y51278
X151137Y41435
X143263Y39467
X147200Y31593
X143263Y27656
X131452Y27656
X127515Y23719
X123578Y19782
X141817Y15028
X157043Y15845
X159974Y32567
X176728Y37498
X180665Y33561
X184602Y29624
X190507Y35530
X186570Y39467
X182633Y43404
X188539Y49309
X192476Y45372
X196413Y41435
X202318Y57183
X198381Y61120
X194444Y65057
X198381Y68994
X202318Y65057
X206255Y61120
X210192Y65057
X206255Y68994
X202318Y72931
X206255Y76868
X210192Y72931
X214129Y68994
X214129Y76868
X196413Y92616
X202318Y100491
X206255Y104428
X210192Y106396
X172791Y126081
X170822Y120176
X133421Y94585
X129484Y90648
X135389Y88679
X101924Y84742
X96019Y78837
X90113Y72931
X84208Y78837
X90113Y84742
X84208Y90648
X90113Y96554
X96019Y90648
X80271Y98522
X74365Y98522
X68460Y110333
X64523Y116239
X64523Y122144
X52712Y116239
X52712Y110333
X56649Y106396
X50743Y104428
X78302Y84742
X74365Y78837
X78302Y72931
X60586Y67026
X54680Y61120
X54680Y72931
X60586Y78837
X66491Y49309
X101924Y25687
X107830Y31593
X84484Y117223
X96019Y236317
X101924Y240254
X107830Y240254
X107830Y271750
X101924Y291435
X86176Y293404
X77673Y307183
X94050Y334742
X94050Y348522
X127515Y352459
X135389Y364270
X143263Y364270
X151137Y364270
X143263Y352459
X157043Y346554
X127515Y371455
X188539Y318994
X174759Y299309
X168854Y283561
X166885Y242223
X166885Y234349
X263342Y283561
X265310Y287498
X263342Y291435
X267279Y291435
X271216Y291435
X273184Y295372
X269247Y295372
X265310Y295372
X277121Y299309
X279090Y303246
X279090Y309152
X297161Y312656
X302712Y313089
X302712Y309152
X306649Y309152
X306649Y305215
X310586Y305215
X316491Y313089
X320428Y309152
X324365Y305215
X324365Y299309
X328302Y295372
X324365Y291435
X328302Y287498
X332239Y283561
X336176Y287498
X332239Y291435
X336176Y297341
X340113Y293404
X342082Y299309
X346019Y303246
X349956Y307183
X346019Y311120
X342082Y307183
X338145Y303246
X351924Y299309
X361767Y301672
X365704Y305609
X361767Y317026
X349956Y315057
X328302Y334742
X324365Y330805
X320428Y326868
X316491Y322931
X312554Y318994
X308617Y322931
X312554Y326868
X316491Y330805
X320428Y334742
X324365Y338679
X324188Y346731
X320428Y350491
X324365Y354428
X328520Y358147
X338893Y353010
X336176Y348522
X336176Y344585
X332239Y346554
X340310Y346514
X337673Y338994
X350035Y341947
X364523Y360097
X365625Y363522
X361531Y363128
X355861Y371455
X355861Y380707
X351924Y383955
X336098Y385176
X375547Y380018
X387358Y380707
X387358Y371455
X382082Y362577
X377515Y362695
X395783Y352813
X401137Y350884
X401137Y346947
X401019Y341868
X401137Y336711
X407043Y336711
X414050Y334388
X419169Y329624
X424759Y329231
X428696Y326868
X428696Y332774
X428696Y320963
X413145Y312971
X396098Y310963
X387358Y311120
X379484Y311514
X383421Y303640
X387358Y301672
X391295Y299703
X394011Y295766
X403106Y293798
X403106Y289861
X399169Y285530
X403106Y281593
X407043Y277656
X410980Y273719
X414917Y269782
X410980Y265845
X407043Y269782
X403106Y273719
X399169Y277656
X395232Y281593
X391295Y277656
X395232Y273719
X399169Y269782
X403106Y265845
X407043Y261908
X403106Y257971
X399169Y261908
X395232Y265845
X391295Y269782
X387358Y273719
X383421Y269782
X387358Y265845
X391295Y261908
X395232Y257971
X399169Y254034
X395232Y250097
X391295Y254034
X387358Y257971
X383421Y261908
X379484Y265845
X375547Y261908
X379484Y257971
X383421Y254034
X387358Y250097
X391295Y246160
X373578Y250097
X367673Y234349
X349956Y246160
X347987Y243010
X338342Y259939
X328775Y260577
X324090Y252105
X312554Y259939
X306649Y267813
X310586Y271750
X312554Y277656
X310586Y281593
X306649Y285530
X302712Y281593
X318263Y273050
X340113Y269782
X349956Y270176
X355861Y268207
X359798Y266239
X357830Y278050
X361767Y281987
X365704Y285924
X369641Y289861
X373578Y293798
X387043Y324782
X394641Y324782
X409208Y329104
X418854Y350491
X377673Y336829
X414917Y295766
X414917Y291829
X416885Y287498
X412948Y283561
X420822Y283561
X424759Y279624
X428696Y275687
X428696Y283561
X424759Y287498
X420822Y291435
X428696Y291435
X432633Y287498
X389326Y228443
X328578Y233089
X326334Y236317
X314523Y230805
X316491Y226868
X320428Y222931
X310586Y228837
X306649Y228837
X305389Y234900
X302003Y237105
X299050Y239939
X298145Y246081
X294838Y252026
X290940Y249113
X287318Y253050
X277121Y254034
X271216Y265845
X271216Y271750
X265310Y277656
X283893Y268404
X312554Y299309
X300192Y322735
X296806Y326868
X292869Y322931
X300743Y330805
X304680Y334742
X308617Y338679
X312554Y342616
X316491Y346554
X194444Y342616
T02
X159889Y317715
X155389Y323715
X149389Y329215
X142889Y332215
X134889Y332715
X125889Y331715
X118889Y327715
X113389Y322215
X109389Y315215
X107389Y308215
X107389Y300215
X109889Y292215
X113889Y286215
X120389Y280715
X127889Y278215
X136389Y277715
X144889Y278215
X151889Y282715
X157389Y287715
X160889Y294715
X163389Y302715
X162389Y311215
X359798Y259939
X359798Y252065
T03
X182216Y72515
X160224Y67782
X177205Y50800
T04
X111767Y61120
X92082Y61120
T05
X56649Y92616
X214129Y92616
X269247Y92616
X426728Y92616
X426728Y305215
X269247Y305215
X214129Y305215
X56649Y305215
M30
