G75*
%MOIN*%
%OFA0B0*%
%FSLAX25Y25*%
%IPPOS*%
%LPD*%
%AMOC8*
5,1,8,0,0,1.08239X$1,22.5*
%
%ADD10C,0.00000*%
%ADD11C,0.05000*%
%ADD12R,0.03346X0.09252*%
%ADD13C,0.07874*%
%ADD14C,0.04362*%
%ADD15C,0.07087*%
%ADD16C,0.00800*%
%ADD17C,0.02578*%
%ADD18C,0.03200*%
%ADD19C,0.02400*%
%ADD20C,0.01600*%
%ADD21C,0.01000*%
%ADD22C,0.01200*%
D10*
X0050350Y0092616D02*
X0050352Y0092774D01*
X0050358Y0092932D01*
X0050368Y0093090D01*
X0050382Y0093248D01*
X0050400Y0093405D01*
X0050421Y0093562D01*
X0050447Y0093718D01*
X0050477Y0093874D01*
X0050510Y0094029D01*
X0050548Y0094182D01*
X0050589Y0094335D01*
X0050634Y0094487D01*
X0050683Y0094638D01*
X0050736Y0094787D01*
X0050792Y0094935D01*
X0050852Y0095081D01*
X0050916Y0095226D01*
X0050984Y0095369D01*
X0051055Y0095511D01*
X0051129Y0095651D01*
X0051207Y0095788D01*
X0051289Y0095924D01*
X0051373Y0096058D01*
X0051462Y0096189D01*
X0051553Y0096318D01*
X0051648Y0096445D01*
X0051745Y0096570D01*
X0051846Y0096692D01*
X0051950Y0096811D01*
X0052057Y0096928D01*
X0052167Y0097042D01*
X0052280Y0097153D01*
X0052395Y0097262D01*
X0052513Y0097367D01*
X0052634Y0097469D01*
X0052757Y0097569D01*
X0052883Y0097665D01*
X0053011Y0097758D01*
X0053141Y0097848D01*
X0053274Y0097934D01*
X0053409Y0098018D01*
X0053545Y0098097D01*
X0053684Y0098174D01*
X0053825Y0098246D01*
X0053967Y0098316D01*
X0054111Y0098381D01*
X0054257Y0098443D01*
X0054404Y0098501D01*
X0054553Y0098556D01*
X0054703Y0098607D01*
X0054854Y0098654D01*
X0055006Y0098697D01*
X0055159Y0098736D01*
X0055314Y0098772D01*
X0055469Y0098803D01*
X0055625Y0098831D01*
X0055781Y0098855D01*
X0055938Y0098875D01*
X0056096Y0098891D01*
X0056253Y0098903D01*
X0056412Y0098911D01*
X0056570Y0098915D01*
X0056728Y0098915D01*
X0056886Y0098911D01*
X0057045Y0098903D01*
X0057202Y0098891D01*
X0057360Y0098875D01*
X0057517Y0098855D01*
X0057673Y0098831D01*
X0057829Y0098803D01*
X0057984Y0098772D01*
X0058139Y0098736D01*
X0058292Y0098697D01*
X0058444Y0098654D01*
X0058595Y0098607D01*
X0058745Y0098556D01*
X0058894Y0098501D01*
X0059041Y0098443D01*
X0059187Y0098381D01*
X0059331Y0098316D01*
X0059473Y0098246D01*
X0059614Y0098174D01*
X0059753Y0098097D01*
X0059889Y0098018D01*
X0060024Y0097934D01*
X0060157Y0097848D01*
X0060287Y0097758D01*
X0060415Y0097665D01*
X0060541Y0097569D01*
X0060664Y0097469D01*
X0060785Y0097367D01*
X0060903Y0097262D01*
X0061018Y0097153D01*
X0061131Y0097042D01*
X0061241Y0096928D01*
X0061348Y0096811D01*
X0061452Y0096692D01*
X0061553Y0096570D01*
X0061650Y0096445D01*
X0061745Y0096318D01*
X0061836Y0096189D01*
X0061925Y0096058D01*
X0062009Y0095924D01*
X0062091Y0095788D01*
X0062169Y0095651D01*
X0062243Y0095511D01*
X0062314Y0095369D01*
X0062382Y0095226D01*
X0062446Y0095081D01*
X0062506Y0094935D01*
X0062562Y0094787D01*
X0062615Y0094638D01*
X0062664Y0094487D01*
X0062709Y0094335D01*
X0062750Y0094182D01*
X0062788Y0094029D01*
X0062821Y0093874D01*
X0062851Y0093718D01*
X0062877Y0093562D01*
X0062898Y0093405D01*
X0062916Y0093248D01*
X0062930Y0093090D01*
X0062940Y0092932D01*
X0062946Y0092774D01*
X0062948Y0092616D01*
X0062946Y0092458D01*
X0062940Y0092300D01*
X0062930Y0092142D01*
X0062916Y0091984D01*
X0062898Y0091827D01*
X0062877Y0091670D01*
X0062851Y0091514D01*
X0062821Y0091358D01*
X0062788Y0091203D01*
X0062750Y0091050D01*
X0062709Y0090897D01*
X0062664Y0090745D01*
X0062615Y0090594D01*
X0062562Y0090445D01*
X0062506Y0090297D01*
X0062446Y0090151D01*
X0062382Y0090006D01*
X0062314Y0089863D01*
X0062243Y0089721D01*
X0062169Y0089581D01*
X0062091Y0089444D01*
X0062009Y0089308D01*
X0061925Y0089174D01*
X0061836Y0089043D01*
X0061745Y0088914D01*
X0061650Y0088787D01*
X0061553Y0088662D01*
X0061452Y0088540D01*
X0061348Y0088421D01*
X0061241Y0088304D01*
X0061131Y0088190D01*
X0061018Y0088079D01*
X0060903Y0087970D01*
X0060785Y0087865D01*
X0060664Y0087763D01*
X0060541Y0087663D01*
X0060415Y0087567D01*
X0060287Y0087474D01*
X0060157Y0087384D01*
X0060024Y0087298D01*
X0059889Y0087214D01*
X0059753Y0087135D01*
X0059614Y0087058D01*
X0059473Y0086986D01*
X0059331Y0086916D01*
X0059187Y0086851D01*
X0059041Y0086789D01*
X0058894Y0086731D01*
X0058745Y0086676D01*
X0058595Y0086625D01*
X0058444Y0086578D01*
X0058292Y0086535D01*
X0058139Y0086496D01*
X0057984Y0086460D01*
X0057829Y0086429D01*
X0057673Y0086401D01*
X0057517Y0086377D01*
X0057360Y0086357D01*
X0057202Y0086341D01*
X0057045Y0086329D01*
X0056886Y0086321D01*
X0056728Y0086317D01*
X0056570Y0086317D01*
X0056412Y0086321D01*
X0056253Y0086329D01*
X0056096Y0086341D01*
X0055938Y0086357D01*
X0055781Y0086377D01*
X0055625Y0086401D01*
X0055469Y0086429D01*
X0055314Y0086460D01*
X0055159Y0086496D01*
X0055006Y0086535D01*
X0054854Y0086578D01*
X0054703Y0086625D01*
X0054553Y0086676D01*
X0054404Y0086731D01*
X0054257Y0086789D01*
X0054111Y0086851D01*
X0053967Y0086916D01*
X0053825Y0086986D01*
X0053684Y0087058D01*
X0053545Y0087135D01*
X0053409Y0087214D01*
X0053274Y0087298D01*
X0053141Y0087384D01*
X0053011Y0087474D01*
X0052883Y0087567D01*
X0052757Y0087663D01*
X0052634Y0087763D01*
X0052513Y0087865D01*
X0052395Y0087970D01*
X0052280Y0088079D01*
X0052167Y0088190D01*
X0052057Y0088304D01*
X0051950Y0088421D01*
X0051846Y0088540D01*
X0051745Y0088662D01*
X0051648Y0088787D01*
X0051553Y0088914D01*
X0051462Y0089043D01*
X0051373Y0089174D01*
X0051289Y0089308D01*
X0051207Y0089444D01*
X0051129Y0089581D01*
X0051055Y0089721D01*
X0050984Y0089863D01*
X0050916Y0090006D01*
X0050852Y0090151D01*
X0050792Y0090297D01*
X0050736Y0090445D01*
X0050683Y0090594D01*
X0050634Y0090745D01*
X0050589Y0090897D01*
X0050548Y0091050D01*
X0050510Y0091203D01*
X0050477Y0091358D01*
X0050447Y0091514D01*
X0050421Y0091670D01*
X0050400Y0091827D01*
X0050382Y0091984D01*
X0050368Y0092142D01*
X0050358Y0092300D01*
X0050352Y0092458D01*
X0050350Y0092616D01*
X0139326Y0183081D02*
X0141525Y0182959D01*
X0143721Y0182783D01*
X0145911Y0182554D01*
X0148096Y0182271D01*
X0150273Y0181935D01*
X0152441Y0181547D01*
X0154599Y0181106D01*
X0156745Y0180613D01*
X0158879Y0180067D01*
X0160999Y0179470D01*
X0163104Y0178821D01*
X0165193Y0178122D01*
X0167264Y0177372D01*
X0169316Y0176571D01*
X0171348Y0175721D01*
X0173358Y0174822D01*
X0175346Y0173874D01*
X0177311Y0172878D01*
X0179251Y0171835D01*
X0181165Y0170745D01*
X0183051Y0169608D01*
X0184910Y0168426D01*
X0186739Y0167199D01*
X0188538Y0165928D01*
X0190305Y0164614D01*
X0192040Y0163257D01*
X0193742Y0161858D01*
X0195409Y0160418D01*
X0197040Y0158938D01*
X0198635Y0157419D01*
X0200192Y0155862D01*
X0201711Y0154267D01*
X0203191Y0152636D01*
X0204631Y0150969D01*
X0206030Y0149267D01*
X0207387Y0147532D01*
X0208701Y0145765D01*
X0209972Y0143966D01*
X0211199Y0142137D01*
X0212381Y0140278D01*
X0213518Y0138392D01*
X0214608Y0136478D01*
X0215651Y0134538D01*
X0216647Y0132573D01*
X0217595Y0130585D01*
X0218494Y0128575D01*
X0219344Y0126543D01*
X0220145Y0124491D01*
X0220895Y0122420D01*
X0221594Y0120331D01*
X0222243Y0118226D01*
X0222840Y0116106D01*
X0223386Y0113972D01*
X0223879Y0111826D01*
X0224320Y0109668D01*
X0224708Y0107500D01*
X0225044Y0105323D01*
X0225327Y0103138D01*
X0225556Y0100948D01*
X0225732Y0098752D01*
X0225854Y0096553D01*
X0225855Y0096554D02*
X0257522Y0096554D01*
X0257522Y0088679D02*
X0225855Y0088679D01*
X0207830Y0092616D02*
X0207832Y0092774D01*
X0207838Y0092932D01*
X0207848Y0093090D01*
X0207862Y0093248D01*
X0207880Y0093405D01*
X0207901Y0093562D01*
X0207927Y0093718D01*
X0207957Y0093874D01*
X0207990Y0094029D01*
X0208028Y0094182D01*
X0208069Y0094335D01*
X0208114Y0094487D01*
X0208163Y0094638D01*
X0208216Y0094787D01*
X0208272Y0094935D01*
X0208332Y0095081D01*
X0208396Y0095226D01*
X0208464Y0095369D01*
X0208535Y0095511D01*
X0208609Y0095651D01*
X0208687Y0095788D01*
X0208769Y0095924D01*
X0208853Y0096058D01*
X0208942Y0096189D01*
X0209033Y0096318D01*
X0209128Y0096445D01*
X0209225Y0096570D01*
X0209326Y0096692D01*
X0209430Y0096811D01*
X0209537Y0096928D01*
X0209647Y0097042D01*
X0209760Y0097153D01*
X0209875Y0097262D01*
X0209993Y0097367D01*
X0210114Y0097469D01*
X0210237Y0097569D01*
X0210363Y0097665D01*
X0210491Y0097758D01*
X0210621Y0097848D01*
X0210754Y0097934D01*
X0210889Y0098018D01*
X0211025Y0098097D01*
X0211164Y0098174D01*
X0211305Y0098246D01*
X0211447Y0098316D01*
X0211591Y0098381D01*
X0211737Y0098443D01*
X0211884Y0098501D01*
X0212033Y0098556D01*
X0212183Y0098607D01*
X0212334Y0098654D01*
X0212486Y0098697D01*
X0212639Y0098736D01*
X0212794Y0098772D01*
X0212949Y0098803D01*
X0213105Y0098831D01*
X0213261Y0098855D01*
X0213418Y0098875D01*
X0213576Y0098891D01*
X0213733Y0098903D01*
X0213892Y0098911D01*
X0214050Y0098915D01*
X0214208Y0098915D01*
X0214366Y0098911D01*
X0214525Y0098903D01*
X0214682Y0098891D01*
X0214840Y0098875D01*
X0214997Y0098855D01*
X0215153Y0098831D01*
X0215309Y0098803D01*
X0215464Y0098772D01*
X0215619Y0098736D01*
X0215772Y0098697D01*
X0215924Y0098654D01*
X0216075Y0098607D01*
X0216225Y0098556D01*
X0216374Y0098501D01*
X0216521Y0098443D01*
X0216667Y0098381D01*
X0216811Y0098316D01*
X0216953Y0098246D01*
X0217094Y0098174D01*
X0217233Y0098097D01*
X0217369Y0098018D01*
X0217504Y0097934D01*
X0217637Y0097848D01*
X0217767Y0097758D01*
X0217895Y0097665D01*
X0218021Y0097569D01*
X0218144Y0097469D01*
X0218265Y0097367D01*
X0218383Y0097262D01*
X0218498Y0097153D01*
X0218611Y0097042D01*
X0218721Y0096928D01*
X0218828Y0096811D01*
X0218932Y0096692D01*
X0219033Y0096570D01*
X0219130Y0096445D01*
X0219225Y0096318D01*
X0219316Y0096189D01*
X0219405Y0096058D01*
X0219489Y0095924D01*
X0219571Y0095788D01*
X0219649Y0095651D01*
X0219723Y0095511D01*
X0219794Y0095369D01*
X0219862Y0095226D01*
X0219926Y0095081D01*
X0219986Y0094935D01*
X0220042Y0094787D01*
X0220095Y0094638D01*
X0220144Y0094487D01*
X0220189Y0094335D01*
X0220230Y0094182D01*
X0220268Y0094029D01*
X0220301Y0093874D01*
X0220331Y0093718D01*
X0220357Y0093562D01*
X0220378Y0093405D01*
X0220396Y0093248D01*
X0220410Y0093090D01*
X0220420Y0092932D01*
X0220426Y0092774D01*
X0220428Y0092616D01*
X0220426Y0092458D01*
X0220420Y0092300D01*
X0220410Y0092142D01*
X0220396Y0091984D01*
X0220378Y0091827D01*
X0220357Y0091670D01*
X0220331Y0091514D01*
X0220301Y0091358D01*
X0220268Y0091203D01*
X0220230Y0091050D01*
X0220189Y0090897D01*
X0220144Y0090745D01*
X0220095Y0090594D01*
X0220042Y0090445D01*
X0219986Y0090297D01*
X0219926Y0090151D01*
X0219862Y0090006D01*
X0219794Y0089863D01*
X0219723Y0089721D01*
X0219649Y0089581D01*
X0219571Y0089444D01*
X0219489Y0089308D01*
X0219405Y0089174D01*
X0219316Y0089043D01*
X0219225Y0088914D01*
X0219130Y0088787D01*
X0219033Y0088662D01*
X0218932Y0088540D01*
X0218828Y0088421D01*
X0218721Y0088304D01*
X0218611Y0088190D01*
X0218498Y0088079D01*
X0218383Y0087970D01*
X0218265Y0087865D01*
X0218144Y0087763D01*
X0218021Y0087663D01*
X0217895Y0087567D01*
X0217767Y0087474D01*
X0217637Y0087384D01*
X0217504Y0087298D01*
X0217369Y0087214D01*
X0217233Y0087135D01*
X0217094Y0087058D01*
X0216953Y0086986D01*
X0216811Y0086916D01*
X0216667Y0086851D01*
X0216521Y0086789D01*
X0216374Y0086731D01*
X0216225Y0086676D01*
X0216075Y0086625D01*
X0215924Y0086578D01*
X0215772Y0086535D01*
X0215619Y0086496D01*
X0215464Y0086460D01*
X0215309Y0086429D01*
X0215153Y0086401D01*
X0214997Y0086377D01*
X0214840Y0086357D01*
X0214682Y0086341D01*
X0214525Y0086329D01*
X0214366Y0086321D01*
X0214208Y0086317D01*
X0214050Y0086317D01*
X0213892Y0086321D01*
X0213733Y0086329D01*
X0213576Y0086341D01*
X0213418Y0086357D01*
X0213261Y0086377D01*
X0213105Y0086401D01*
X0212949Y0086429D01*
X0212794Y0086460D01*
X0212639Y0086496D01*
X0212486Y0086535D01*
X0212334Y0086578D01*
X0212183Y0086625D01*
X0212033Y0086676D01*
X0211884Y0086731D01*
X0211737Y0086789D01*
X0211591Y0086851D01*
X0211447Y0086916D01*
X0211305Y0086986D01*
X0211164Y0087058D01*
X0211025Y0087135D01*
X0210889Y0087214D01*
X0210754Y0087298D01*
X0210621Y0087384D01*
X0210491Y0087474D01*
X0210363Y0087567D01*
X0210237Y0087663D01*
X0210114Y0087763D01*
X0209993Y0087865D01*
X0209875Y0087970D01*
X0209760Y0088079D01*
X0209647Y0088190D01*
X0209537Y0088304D01*
X0209430Y0088421D01*
X0209326Y0088540D01*
X0209225Y0088662D01*
X0209128Y0088787D01*
X0209033Y0088914D01*
X0208942Y0089043D01*
X0208853Y0089174D01*
X0208769Y0089308D01*
X0208687Y0089444D01*
X0208609Y0089581D01*
X0208535Y0089721D01*
X0208464Y0089863D01*
X0208396Y0090006D01*
X0208332Y0090151D01*
X0208272Y0090297D01*
X0208216Y0090445D01*
X0208163Y0090594D01*
X0208114Y0090745D01*
X0208069Y0090897D01*
X0208028Y0091050D01*
X0207990Y0091203D01*
X0207957Y0091358D01*
X0207927Y0091514D01*
X0207901Y0091670D01*
X0207880Y0091827D01*
X0207862Y0091984D01*
X0207848Y0092142D01*
X0207838Y0092300D01*
X0207832Y0092458D01*
X0207830Y0092616D01*
X0262948Y0092616D02*
X0262950Y0092774D01*
X0262956Y0092932D01*
X0262966Y0093090D01*
X0262980Y0093248D01*
X0262998Y0093405D01*
X0263019Y0093562D01*
X0263045Y0093718D01*
X0263075Y0093874D01*
X0263108Y0094029D01*
X0263146Y0094182D01*
X0263187Y0094335D01*
X0263232Y0094487D01*
X0263281Y0094638D01*
X0263334Y0094787D01*
X0263390Y0094935D01*
X0263450Y0095081D01*
X0263514Y0095226D01*
X0263582Y0095369D01*
X0263653Y0095511D01*
X0263727Y0095651D01*
X0263805Y0095788D01*
X0263887Y0095924D01*
X0263971Y0096058D01*
X0264060Y0096189D01*
X0264151Y0096318D01*
X0264246Y0096445D01*
X0264343Y0096570D01*
X0264444Y0096692D01*
X0264548Y0096811D01*
X0264655Y0096928D01*
X0264765Y0097042D01*
X0264878Y0097153D01*
X0264993Y0097262D01*
X0265111Y0097367D01*
X0265232Y0097469D01*
X0265355Y0097569D01*
X0265481Y0097665D01*
X0265609Y0097758D01*
X0265739Y0097848D01*
X0265872Y0097934D01*
X0266007Y0098018D01*
X0266143Y0098097D01*
X0266282Y0098174D01*
X0266423Y0098246D01*
X0266565Y0098316D01*
X0266709Y0098381D01*
X0266855Y0098443D01*
X0267002Y0098501D01*
X0267151Y0098556D01*
X0267301Y0098607D01*
X0267452Y0098654D01*
X0267604Y0098697D01*
X0267757Y0098736D01*
X0267912Y0098772D01*
X0268067Y0098803D01*
X0268223Y0098831D01*
X0268379Y0098855D01*
X0268536Y0098875D01*
X0268694Y0098891D01*
X0268851Y0098903D01*
X0269010Y0098911D01*
X0269168Y0098915D01*
X0269326Y0098915D01*
X0269484Y0098911D01*
X0269643Y0098903D01*
X0269800Y0098891D01*
X0269958Y0098875D01*
X0270115Y0098855D01*
X0270271Y0098831D01*
X0270427Y0098803D01*
X0270582Y0098772D01*
X0270737Y0098736D01*
X0270890Y0098697D01*
X0271042Y0098654D01*
X0271193Y0098607D01*
X0271343Y0098556D01*
X0271492Y0098501D01*
X0271639Y0098443D01*
X0271785Y0098381D01*
X0271929Y0098316D01*
X0272071Y0098246D01*
X0272212Y0098174D01*
X0272351Y0098097D01*
X0272487Y0098018D01*
X0272622Y0097934D01*
X0272755Y0097848D01*
X0272885Y0097758D01*
X0273013Y0097665D01*
X0273139Y0097569D01*
X0273262Y0097469D01*
X0273383Y0097367D01*
X0273501Y0097262D01*
X0273616Y0097153D01*
X0273729Y0097042D01*
X0273839Y0096928D01*
X0273946Y0096811D01*
X0274050Y0096692D01*
X0274151Y0096570D01*
X0274248Y0096445D01*
X0274343Y0096318D01*
X0274434Y0096189D01*
X0274523Y0096058D01*
X0274607Y0095924D01*
X0274689Y0095788D01*
X0274767Y0095651D01*
X0274841Y0095511D01*
X0274912Y0095369D01*
X0274980Y0095226D01*
X0275044Y0095081D01*
X0275104Y0094935D01*
X0275160Y0094787D01*
X0275213Y0094638D01*
X0275262Y0094487D01*
X0275307Y0094335D01*
X0275348Y0094182D01*
X0275386Y0094029D01*
X0275419Y0093874D01*
X0275449Y0093718D01*
X0275475Y0093562D01*
X0275496Y0093405D01*
X0275514Y0093248D01*
X0275528Y0093090D01*
X0275538Y0092932D01*
X0275544Y0092774D01*
X0275546Y0092616D01*
X0275544Y0092458D01*
X0275538Y0092300D01*
X0275528Y0092142D01*
X0275514Y0091984D01*
X0275496Y0091827D01*
X0275475Y0091670D01*
X0275449Y0091514D01*
X0275419Y0091358D01*
X0275386Y0091203D01*
X0275348Y0091050D01*
X0275307Y0090897D01*
X0275262Y0090745D01*
X0275213Y0090594D01*
X0275160Y0090445D01*
X0275104Y0090297D01*
X0275044Y0090151D01*
X0274980Y0090006D01*
X0274912Y0089863D01*
X0274841Y0089721D01*
X0274767Y0089581D01*
X0274689Y0089444D01*
X0274607Y0089308D01*
X0274523Y0089174D01*
X0274434Y0089043D01*
X0274343Y0088914D01*
X0274248Y0088787D01*
X0274151Y0088662D01*
X0274050Y0088540D01*
X0273946Y0088421D01*
X0273839Y0088304D01*
X0273729Y0088190D01*
X0273616Y0088079D01*
X0273501Y0087970D01*
X0273383Y0087865D01*
X0273262Y0087763D01*
X0273139Y0087663D01*
X0273013Y0087567D01*
X0272885Y0087474D01*
X0272755Y0087384D01*
X0272622Y0087298D01*
X0272487Y0087214D01*
X0272351Y0087135D01*
X0272212Y0087058D01*
X0272071Y0086986D01*
X0271929Y0086916D01*
X0271785Y0086851D01*
X0271639Y0086789D01*
X0271492Y0086731D01*
X0271343Y0086676D01*
X0271193Y0086625D01*
X0271042Y0086578D01*
X0270890Y0086535D01*
X0270737Y0086496D01*
X0270582Y0086460D01*
X0270427Y0086429D01*
X0270271Y0086401D01*
X0270115Y0086377D01*
X0269958Y0086357D01*
X0269800Y0086341D01*
X0269643Y0086329D01*
X0269484Y0086321D01*
X0269326Y0086317D01*
X0269168Y0086317D01*
X0269010Y0086321D01*
X0268851Y0086329D01*
X0268694Y0086341D01*
X0268536Y0086357D01*
X0268379Y0086377D01*
X0268223Y0086401D01*
X0268067Y0086429D01*
X0267912Y0086460D01*
X0267757Y0086496D01*
X0267604Y0086535D01*
X0267452Y0086578D01*
X0267301Y0086625D01*
X0267151Y0086676D01*
X0267002Y0086731D01*
X0266855Y0086789D01*
X0266709Y0086851D01*
X0266565Y0086916D01*
X0266423Y0086986D01*
X0266282Y0087058D01*
X0266143Y0087135D01*
X0266007Y0087214D01*
X0265872Y0087298D01*
X0265739Y0087384D01*
X0265609Y0087474D01*
X0265481Y0087567D01*
X0265355Y0087663D01*
X0265232Y0087763D01*
X0265111Y0087865D01*
X0264993Y0087970D01*
X0264878Y0088079D01*
X0264765Y0088190D01*
X0264655Y0088304D01*
X0264548Y0088421D01*
X0264444Y0088540D01*
X0264343Y0088662D01*
X0264246Y0088787D01*
X0264151Y0088914D01*
X0264060Y0089043D01*
X0263971Y0089174D01*
X0263887Y0089308D01*
X0263805Y0089444D01*
X0263727Y0089581D01*
X0263653Y0089721D01*
X0263582Y0089863D01*
X0263514Y0090006D01*
X0263450Y0090151D01*
X0263390Y0090297D01*
X0263334Y0090445D01*
X0263281Y0090594D01*
X0263232Y0090745D01*
X0263187Y0090897D01*
X0263146Y0091050D01*
X0263108Y0091203D01*
X0263075Y0091358D01*
X0263045Y0091514D01*
X0263019Y0091670D01*
X0262998Y0091827D01*
X0262980Y0091984D01*
X0262966Y0092142D01*
X0262956Y0092300D01*
X0262950Y0092458D01*
X0262948Y0092616D01*
X0257523Y0088679D02*
X0257646Y0086465D01*
X0257824Y0084254D01*
X0258056Y0082049D01*
X0258341Y0079850D01*
X0258681Y0077658D01*
X0259074Y0075476D01*
X0259520Y0073304D01*
X0260020Y0071143D01*
X0260572Y0068995D01*
X0261177Y0066862D01*
X0261833Y0064743D01*
X0262542Y0062642D01*
X0263302Y0060558D01*
X0264112Y0058494D01*
X0264973Y0056450D01*
X0265883Y0054428D01*
X0266843Y0052429D01*
X0267851Y0050454D01*
X0268908Y0048504D01*
X0270012Y0046581D01*
X0271163Y0044685D01*
X0272359Y0042818D01*
X0273602Y0040981D01*
X0274888Y0039175D01*
X0276219Y0037401D01*
X0277593Y0035660D01*
X0279008Y0033953D01*
X0280466Y0032282D01*
X0281963Y0030646D01*
X0283501Y0029048D01*
X0285077Y0027488D01*
X0286691Y0025967D01*
X0288341Y0024486D01*
X0290027Y0023046D01*
X0291748Y0021647D01*
X0293503Y0020291D01*
X0295291Y0018979D01*
X0297110Y0017710D01*
X0298959Y0016487D01*
X0300838Y0015309D01*
X0302746Y0014177D01*
X0304680Y0013093D01*
X0306640Y0012056D01*
X0308626Y0011068D01*
X0310634Y0010128D01*
X0312666Y0009238D01*
X0314718Y0008399D01*
X0316790Y0007609D01*
X0318881Y0006871D01*
X0320990Y0006183D01*
X0323115Y0005548D01*
X0325254Y0004965D01*
X0327407Y0004435D01*
X0329573Y0003957D01*
X0331750Y0003533D01*
X0333936Y0003162D01*
X0336131Y0002845D01*
X0338333Y0002581D01*
X0340540Y0002372D01*
X0342753Y0002216D01*
X0344968Y0002115D01*
X0347185Y0002069D01*
X0349403Y0002076D01*
X0351619Y0002138D01*
X0353834Y0002254D01*
X0356045Y0002424D01*
X0358251Y0002649D01*
X0360451Y0002927D01*
X0362644Y0003259D01*
X0364828Y0003645D01*
X0367002Y0004084D01*
X0369164Y0004576D01*
X0371313Y0005121D01*
X0373449Y0005718D01*
X0375569Y0006368D01*
X0377673Y0007069D01*
X0379759Y0007822D01*
X0381826Y0008625D01*
X0383873Y0009479D01*
X0385898Y0010383D01*
X0387900Y0011336D01*
X0389879Y0012338D01*
X0391832Y0013387D01*
X0393759Y0014485D01*
X0395659Y0015629D01*
X0397530Y0016820D01*
X0399371Y0018056D01*
X0401182Y0019336D01*
X0402960Y0020661D01*
X0404706Y0022029D01*
X0406417Y0023439D01*
X0408094Y0024890D01*
X0409734Y0026382D01*
X0411338Y0027914D01*
X0412903Y0029485D01*
X0414430Y0031094D01*
X0415916Y0032739D01*
X0417362Y0034421D01*
X0418767Y0036137D01*
X0420128Y0037887D01*
X0421447Y0039670D01*
X0422722Y0041485D01*
X0423951Y0043330D01*
X0425135Y0045205D01*
X0426273Y0047109D01*
X0427364Y0049040D01*
X0428408Y0050997D01*
X0429403Y0052978D01*
X0430349Y0054984D01*
X0431246Y0057012D01*
X0432093Y0059062D01*
X0432889Y0061131D01*
X0433635Y0063220D01*
X0434329Y0065326D01*
X0434971Y0067449D01*
X0435561Y0069586D01*
X0436099Y0071738D01*
X0436584Y0073902D01*
X0437016Y0076077D01*
X0437394Y0078262D01*
X0437719Y0080456D01*
X0437990Y0082657D01*
X0438207Y0084864D01*
X0438369Y0087075D01*
X0438478Y0089290D01*
X0438532Y0091507D01*
X0438532Y0093725D01*
X0438478Y0095942D01*
X0438369Y0098157D01*
X0438207Y0100368D01*
X0437990Y0102575D01*
X0437719Y0104776D01*
X0437394Y0106970D01*
X0437016Y0109155D01*
X0436584Y0111330D01*
X0436099Y0113494D01*
X0435561Y0115646D01*
X0434971Y0117783D01*
X0434329Y0119906D01*
X0433635Y0122012D01*
X0432889Y0124101D01*
X0432093Y0126170D01*
X0431246Y0128220D01*
X0430349Y0130248D01*
X0429403Y0132254D01*
X0428408Y0134235D01*
X0427364Y0136192D01*
X0426273Y0138123D01*
X0425135Y0140027D01*
X0423951Y0141902D01*
X0422722Y0143747D01*
X0421447Y0145562D01*
X0420128Y0147345D01*
X0418767Y0149095D01*
X0417362Y0150811D01*
X0415916Y0152493D01*
X0414430Y0154138D01*
X0412903Y0155747D01*
X0411338Y0157318D01*
X0409734Y0158850D01*
X0408094Y0160342D01*
X0406417Y0161793D01*
X0404706Y0163203D01*
X0402960Y0164571D01*
X0401182Y0165896D01*
X0399371Y0167176D01*
X0397530Y0168412D01*
X0395659Y0169603D01*
X0393759Y0170747D01*
X0391832Y0171845D01*
X0389879Y0172894D01*
X0387900Y0173896D01*
X0385898Y0174849D01*
X0383873Y0175753D01*
X0381826Y0176607D01*
X0379759Y0177410D01*
X0377673Y0178163D01*
X0375569Y0178864D01*
X0373449Y0179514D01*
X0371313Y0180111D01*
X0369164Y0180656D01*
X0367002Y0181148D01*
X0364828Y0181587D01*
X0362644Y0181973D01*
X0360451Y0182305D01*
X0358251Y0182583D01*
X0356045Y0182808D01*
X0353834Y0182978D01*
X0351619Y0183094D01*
X0349403Y0183156D01*
X0347185Y0183163D01*
X0344968Y0183117D01*
X0342753Y0183016D01*
X0340540Y0182860D01*
X0338333Y0182651D01*
X0336131Y0182387D01*
X0333936Y0182070D01*
X0331750Y0181699D01*
X0329573Y0181275D01*
X0327407Y0180797D01*
X0325254Y0180267D01*
X0323115Y0179684D01*
X0320990Y0179049D01*
X0318881Y0178361D01*
X0316790Y0177623D01*
X0314718Y0176833D01*
X0312666Y0175994D01*
X0310634Y0175104D01*
X0308626Y0174164D01*
X0306640Y0173176D01*
X0304680Y0172139D01*
X0302746Y0171055D01*
X0300838Y0169923D01*
X0298959Y0168745D01*
X0297110Y0167522D01*
X0295291Y0166253D01*
X0293503Y0164941D01*
X0291748Y0163585D01*
X0290027Y0162186D01*
X0288341Y0160746D01*
X0286691Y0159265D01*
X0285077Y0157744D01*
X0283501Y0156184D01*
X0281963Y0154586D01*
X0280466Y0152950D01*
X0279008Y0151279D01*
X0277593Y0149572D01*
X0276219Y0147831D01*
X0274888Y0146057D01*
X0273602Y0144251D01*
X0272359Y0142414D01*
X0271163Y0140547D01*
X0270012Y0138651D01*
X0268908Y0136728D01*
X0267851Y0134778D01*
X0266843Y0132803D01*
X0265883Y0130804D01*
X0264973Y0128782D01*
X0264112Y0126738D01*
X0263302Y0124674D01*
X0262542Y0122590D01*
X0261833Y0120489D01*
X0261177Y0118370D01*
X0260572Y0116237D01*
X0260020Y0114089D01*
X0259520Y0111928D01*
X0259074Y0109756D01*
X0258681Y0107574D01*
X0258341Y0105382D01*
X0258056Y0103183D01*
X0257824Y0100978D01*
X0257646Y0098767D01*
X0257523Y0096553D01*
X0139326Y0183082D02*
X0139326Y0214750D01*
X0131452Y0214750D02*
X0131452Y0183082D01*
X0131452Y0183081D02*
X0129239Y0182958D01*
X0127031Y0182780D01*
X0124827Y0182549D01*
X0122629Y0182263D01*
X0120439Y0181924D01*
X0118258Y0181532D01*
X0116088Y0181086D01*
X0113928Y0180587D01*
X0111782Y0180036D01*
X0109650Y0179432D01*
X0107533Y0178776D01*
X0105433Y0178069D01*
X0103351Y0177310D01*
X0101288Y0176501D01*
X0099246Y0175641D01*
X0097225Y0174732D01*
X0095227Y0173773D01*
X0093253Y0172766D01*
X0091304Y0171711D01*
X0089382Y0170609D01*
X0087487Y0169459D01*
X0085621Y0168264D01*
X0083785Y0167024D01*
X0081980Y0165739D01*
X0080206Y0164410D01*
X0078466Y0163038D01*
X0076760Y0161624D01*
X0075089Y0160168D01*
X0073454Y0158673D01*
X0071856Y0157137D01*
X0070296Y0155563D01*
X0068775Y0153952D01*
X0067294Y0152303D01*
X0065854Y0150619D01*
X0064455Y0148900D01*
X0063099Y0147147D01*
X0061786Y0145362D01*
X0060518Y0143545D01*
X0059294Y0141698D01*
X0058116Y0139821D01*
X0056984Y0137916D01*
X0055899Y0135984D01*
X0054861Y0134026D01*
X0053872Y0132043D01*
X0052932Y0130036D01*
X0052041Y0128007D01*
X0051199Y0125957D01*
X0050409Y0123887D01*
X0049669Y0121798D01*
X0048981Y0119691D01*
X0048344Y0117569D01*
X0047759Y0115431D01*
X0047227Y0113280D01*
X0046748Y0111117D01*
X0046322Y0108942D01*
X0045949Y0106758D01*
X0045630Y0104565D01*
X0045364Y0102365D01*
X0045153Y0100159D01*
X0044995Y0097948D01*
X0044892Y0095735D01*
X0044843Y0093519D01*
X0044848Y0091303D01*
X0044907Y0089088D01*
X0045020Y0086875D01*
X0045188Y0084665D01*
X0045409Y0082460D01*
X0045685Y0080262D01*
X0046014Y0078070D01*
X0046397Y0075887D01*
X0046833Y0073715D01*
X0047322Y0071553D01*
X0047863Y0069405D01*
X0048458Y0067270D01*
X0049104Y0065150D01*
X0049802Y0063047D01*
X0050551Y0060961D01*
X0051351Y0058895D01*
X0052201Y0056849D01*
X0053102Y0054824D01*
X0054051Y0052821D01*
X0055049Y0050843D01*
X0056095Y0048889D01*
X0057189Y0046962D01*
X0058330Y0045062D01*
X0059517Y0043191D01*
X0060749Y0041349D01*
X0062026Y0039538D01*
X0063346Y0037758D01*
X0064710Y0036012D01*
X0066117Y0034299D01*
X0067565Y0032622D01*
X0069053Y0030980D01*
X0070581Y0029375D01*
X0072148Y0027808D01*
X0073753Y0026280D01*
X0075395Y0024792D01*
X0077072Y0023344D01*
X0078785Y0021937D01*
X0080531Y0020573D01*
X0082311Y0019253D01*
X0084122Y0017976D01*
X0085964Y0016744D01*
X0087835Y0015557D01*
X0089735Y0014416D01*
X0091662Y0013322D01*
X0093616Y0012276D01*
X0095594Y0011278D01*
X0097597Y0010329D01*
X0099622Y0009428D01*
X0101668Y0008578D01*
X0103734Y0007778D01*
X0105820Y0007029D01*
X0107923Y0006331D01*
X0110043Y0005685D01*
X0112178Y0005090D01*
X0114326Y0004549D01*
X0116488Y0004060D01*
X0118660Y0003624D01*
X0120843Y0003241D01*
X0123035Y0002912D01*
X0125233Y0002636D01*
X0127438Y0002415D01*
X0129648Y0002247D01*
X0131861Y0002134D01*
X0134076Y0002075D01*
X0136292Y0002070D01*
X0138508Y0002119D01*
X0140721Y0002222D01*
X0142932Y0002380D01*
X0145138Y0002591D01*
X0147338Y0002857D01*
X0149531Y0003176D01*
X0151715Y0003549D01*
X0153890Y0003975D01*
X0156053Y0004454D01*
X0158204Y0004986D01*
X0160342Y0005571D01*
X0162464Y0006208D01*
X0164571Y0006896D01*
X0166660Y0007636D01*
X0168730Y0008426D01*
X0170780Y0009268D01*
X0172809Y0010159D01*
X0174816Y0011099D01*
X0176799Y0012088D01*
X0178757Y0013126D01*
X0180689Y0014211D01*
X0182594Y0015343D01*
X0184471Y0016521D01*
X0186318Y0017745D01*
X0188135Y0019013D01*
X0189920Y0020326D01*
X0191673Y0021682D01*
X0193392Y0023081D01*
X0195076Y0024521D01*
X0196725Y0026002D01*
X0198336Y0027523D01*
X0199910Y0029083D01*
X0201446Y0030681D01*
X0202941Y0032316D01*
X0204397Y0033987D01*
X0205811Y0035693D01*
X0207183Y0037433D01*
X0208512Y0039207D01*
X0209797Y0041012D01*
X0211037Y0042848D01*
X0212232Y0044714D01*
X0213382Y0046609D01*
X0214484Y0048531D01*
X0215539Y0050480D01*
X0216546Y0052454D01*
X0217505Y0054452D01*
X0218414Y0056473D01*
X0219274Y0058515D01*
X0220083Y0060578D01*
X0220842Y0062660D01*
X0221549Y0064760D01*
X0222205Y0066877D01*
X0222809Y0069009D01*
X0223360Y0071155D01*
X0223859Y0073315D01*
X0224305Y0075485D01*
X0224697Y0077666D01*
X0225036Y0079856D01*
X0225322Y0082054D01*
X0225553Y0084258D01*
X0225731Y0086466D01*
X0225854Y0088679D01*
X0328302Y0216829D02*
X0328302Y0221357D01*
X0367673Y0221357D01*
X0367673Y0216829D01*
X0328302Y0216830D02*
X0326167Y0217332D01*
X0324044Y0217887D01*
X0321936Y0218492D01*
X0319843Y0219149D01*
X0317767Y0219856D01*
X0315708Y0220613D01*
X0313668Y0221419D01*
X0311648Y0222275D01*
X0309650Y0223180D01*
X0307674Y0224133D01*
X0305722Y0225133D01*
X0303794Y0226180D01*
X0301893Y0227274D01*
X0300018Y0228413D01*
X0298172Y0229598D01*
X0296355Y0230827D01*
X0294568Y0232099D01*
X0292813Y0233415D01*
X0291090Y0234772D01*
X0289400Y0236171D01*
X0287745Y0237610D01*
X0286125Y0239089D01*
X0284542Y0240607D01*
X0282995Y0242163D01*
X0281487Y0243756D01*
X0280018Y0245385D01*
X0278588Y0247049D01*
X0277200Y0248747D01*
X0275853Y0250478D01*
X0274548Y0252241D01*
X0273286Y0254036D01*
X0272069Y0255860D01*
X0270895Y0257714D01*
X0269767Y0259595D01*
X0268685Y0261503D01*
X0267650Y0263437D01*
X0266661Y0265395D01*
X0265721Y0267377D01*
X0264828Y0269381D01*
X0263985Y0271405D01*
X0263190Y0273450D01*
X0262446Y0275514D01*
X0261751Y0277594D01*
X0261108Y0279691D01*
X0260515Y0281803D01*
X0259973Y0283929D01*
X0259484Y0286067D01*
X0259046Y0288217D01*
X0258660Y0290376D01*
X0258327Y0292544D01*
X0258046Y0294720D01*
X0257818Y0296901D01*
X0257644Y0299088D01*
X0257522Y0301278D01*
X0225855Y0301278D01*
X0225855Y0309152D02*
X0257522Y0309152D01*
X0262948Y0305215D02*
X0262950Y0305373D01*
X0262956Y0305531D01*
X0262966Y0305689D01*
X0262980Y0305847D01*
X0262998Y0306004D01*
X0263019Y0306161D01*
X0263045Y0306317D01*
X0263075Y0306473D01*
X0263108Y0306628D01*
X0263146Y0306781D01*
X0263187Y0306934D01*
X0263232Y0307086D01*
X0263281Y0307237D01*
X0263334Y0307386D01*
X0263390Y0307534D01*
X0263450Y0307680D01*
X0263514Y0307825D01*
X0263582Y0307968D01*
X0263653Y0308110D01*
X0263727Y0308250D01*
X0263805Y0308387D01*
X0263887Y0308523D01*
X0263971Y0308657D01*
X0264060Y0308788D01*
X0264151Y0308917D01*
X0264246Y0309044D01*
X0264343Y0309169D01*
X0264444Y0309291D01*
X0264548Y0309410D01*
X0264655Y0309527D01*
X0264765Y0309641D01*
X0264878Y0309752D01*
X0264993Y0309861D01*
X0265111Y0309966D01*
X0265232Y0310068D01*
X0265355Y0310168D01*
X0265481Y0310264D01*
X0265609Y0310357D01*
X0265739Y0310447D01*
X0265872Y0310533D01*
X0266007Y0310617D01*
X0266143Y0310696D01*
X0266282Y0310773D01*
X0266423Y0310845D01*
X0266565Y0310915D01*
X0266709Y0310980D01*
X0266855Y0311042D01*
X0267002Y0311100D01*
X0267151Y0311155D01*
X0267301Y0311206D01*
X0267452Y0311253D01*
X0267604Y0311296D01*
X0267757Y0311335D01*
X0267912Y0311371D01*
X0268067Y0311402D01*
X0268223Y0311430D01*
X0268379Y0311454D01*
X0268536Y0311474D01*
X0268694Y0311490D01*
X0268851Y0311502D01*
X0269010Y0311510D01*
X0269168Y0311514D01*
X0269326Y0311514D01*
X0269484Y0311510D01*
X0269643Y0311502D01*
X0269800Y0311490D01*
X0269958Y0311474D01*
X0270115Y0311454D01*
X0270271Y0311430D01*
X0270427Y0311402D01*
X0270582Y0311371D01*
X0270737Y0311335D01*
X0270890Y0311296D01*
X0271042Y0311253D01*
X0271193Y0311206D01*
X0271343Y0311155D01*
X0271492Y0311100D01*
X0271639Y0311042D01*
X0271785Y0310980D01*
X0271929Y0310915D01*
X0272071Y0310845D01*
X0272212Y0310773D01*
X0272351Y0310696D01*
X0272487Y0310617D01*
X0272622Y0310533D01*
X0272755Y0310447D01*
X0272885Y0310357D01*
X0273013Y0310264D01*
X0273139Y0310168D01*
X0273262Y0310068D01*
X0273383Y0309966D01*
X0273501Y0309861D01*
X0273616Y0309752D01*
X0273729Y0309641D01*
X0273839Y0309527D01*
X0273946Y0309410D01*
X0274050Y0309291D01*
X0274151Y0309169D01*
X0274248Y0309044D01*
X0274343Y0308917D01*
X0274434Y0308788D01*
X0274523Y0308657D01*
X0274607Y0308523D01*
X0274689Y0308387D01*
X0274767Y0308250D01*
X0274841Y0308110D01*
X0274912Y0307968D01*
X0274980Y0307825D01*
X0275044Y0307680D01*
X0275104Y0307534D01*
X0275160Y0307386D01*
X0275213Y0307237D01*
X0275262Y0307086D01*
X0275307Y0306934D01*
X0275348Y0306781D01*
X0275386Y0306628D01*
X0275419Y0306473D01*
X0275449Y0306317D01*
X0275475Y0306161D01*
X0275496Y0306004D01*
X0275514Y0305847D01*
X0275528Y0305689D01*
X0275538Y0305531D01*
X0275544Y0305373D01*
X0275546Y0305215D01*
X0275544Y0305057D01*
X0275538Y0304899D01*
X0275528Y0304741D01*
X0275514Y0304583D01*
X0275496Y0304426D01*
X0275475Y0304269D01*
X0275449Y0304113D01*
X0275419Y0303957D01*
X0275386Y0303802D01*
X0275348Y0303649D01*
X0275307Y0303496D01*
X0275262Y0303344D01*
X0275213Y0303193D01*
X0275160Y0303044D01*
X0275104Y0302896D01*
X0275044Y0302750D01*
X0274980Y0302605D01*
X0274912Y0302462D01*
X0274841Y0302320D01*
X0274767Y0302180D01*
X0274689Y0302043D01*
X0274607Y0301907D01*
X0274523Y0301773D01*
X0274434Y0301642D01*
X0274343Y0301513D01*
X0274248Y0301386D01*
X0274151Y0301261D01*
X0274050Y0301139D01*
X0273946Y0301020D01*
X0273839Y0300903D01*
X0273729Y0300789D01*
X0273616Y0300678D01*
X0273501Y0300569D01*
X0273383Y0300464D01*
X0273262Y0300362D01*
X0273139Y0300262D01*
X0273013Y0300166D01*
X0272885Y0300073D01*
X0272755Y0299983D01*
X0272622Y0299897D01*
X0272487Y0299813D01*
X0272351Y0299734D01*
X0272212Y0299657D01*
X0272071Y0299585D01*
X0271929Y0299515D01*
X0271785Y0299450D01*
X0271639Y0299388D01*
X0271492Y0299330D01*
X0271343Y0299275D01*
X0271193Y0299224D01*
X0271042Y0299177D01*
X0270890Y0299134D01*
X0270737Y0299095D01*
X0270582Y0299059D01*
X0270427Y0299028D01*
X0270271Y0299000D01*
X0270115Y0298976D01*
X0269958Y0298956D01*
X0269800Y0298940D01*
X0269643Y0298928D01*
X0269484Y0298920D01*
X0269326Y0298916D01*
X0269168Y0298916D01*
X0269010Y0298920D01*
X0268851Y0298928D01*
X0268694Y0298940D01*
X0268536Y0298956D01*
X0268379Y0298976D01*
X0268223Y0299000D01*
X0268067Y0299028D01*
X0267912Y0299059D01*
X0267757Y0299095D01*
X0267604Y0299134D01*
X0267452Y0299177D01*
X0267301Y0299224D01*
X0267151Y0299275D01*
X0267002Y0299330D01*
X0266855Y0299388D01*
X0266709Y0299450D01*
X0266565Y0299515D01*
X0266423Y0299585D01*
X0266282Y0299657D01*
X0266143Y0299734D01*
X0266007Y0299813D01*
X0265872Y0299897D01*
X0265739Y0299983D01*
X0265609Y0300073D01*
X0265481Y0300166D01*
X0265355Y0300262D01*
X0265232Y0300362D01*
X0265111Y0300464D01*
X0264993Y0300569D01*
X0264878Y0300678D01*
X0264765Y0300789D01*
X0264655Y0300903D01*
X0264548Y0301020D01*
X0264444Y0301139D01*
X0264343Y0301261D01*
X0264246Y0301386D01*
X0264151Y0301513D01*
X0264060Y0301642D01*
X0263971Y0301773D01*
X0263887Y0301907D01*
X0263805Y0302043D01*
X0263727Y0302180D01*
X0263653Y0302320D01*
X0263582Y0302462D01*
X0263514Y0302605D01*
X0263450Y0302750D01*
X0263390Y0302896D01*
X0263334Y0303044D01*
X0263281Y0303193D01*
X0263232Y0303344D01*
X0263187Y0303496D01*
X0263146Y0303649D01*
X0263108Y0303802D01*
X0263075Y0303957D01*
X0263045Y0304113D01*
X0263019Y0304269D01*
X0262998Y0304426D01*
X0262980Y0304583D01*
X0262966Y0304741D01*
X0262956Y0304899D01*
X0262950Y0305057D01*
X0262948Y0305215D01*
X0207830Y0305215D02*
X0207832Y0305373D01*
X0207838Y0305531D01*
X0207848Y0305689D01*
X0207862Y0305847D01*
X0207880Y0306004D01*
X0207901Y0306161D01*
X0207927Y0306317D01*
X0207957Y0306473D01*
X0207990Y0306628D01*
X0208028Y0306781D01*
X0208069Y0306934D01*
X0208114Y0307086D01*
X0208163Y0307237D01*
X0208216Y0307386D01*
X0208272Y0307534D01*
X0208332Y0307680D01*
X0208396Y0307825D01*
X0208464Y0307968D01*
X0208535Y0308110D01*
X0208609Y0308250D01*
X0208687Y0308387D01*
X0208769Y0308523D01*
X0208853Y0308657D01*
X0208942Y0308788D01*
X0209033Y0308917D01*
X0209128Y0309044D01*
X0209225Y0309169D01*
X0209326Y0309291D01*
X0209430Y0309410D01*
X0209537Y0309527D01*
X0209647Y0309641D01*
X0209760Y0309752D01*
X0209875Y0309861D01*
X0209993Y0309966D01*
X0210114Y0310068D01*
X0210237Y0310168D01*
X0210363Y0310264D01*
X0210491Y0310357D01*
X0210621Y0310447D01*
X0210754Y0310533D01*
X0210889Y0310617D01*
X0211025Y0310696D01*
X0211164Y0310773D01*
X0211305Y0310845D01*
X0211447Y0310915D01*
X0211591Y0310980D01*
X0211737Y0311042D01*
X0211884Y0311100D01*
X0212033Y0311155D01*
X0212183Y0311206D01*
X0212334Y0311253D01*
X0212486Y0311296D01*
X0212639Y0311335D01*
X0212794Y0311371D01*
X0212949Y0311402D01*
X0213105Y0311430D01*
X0213261Y0311454D01*
X0213418Y0311474D01*
X0213576Y0311490D01*
X0213733Y0311502D01*
X0213892Y0311510D01*
X0214050Y0311514D01*
X0214208Y0311514D01*
X0214366Y0311510D01*
X0214525Y0311502D01*
X0214682Y0311490D01*
X0214840Y0311474D01*
X0214997Y0311454D01*
X0215153Y0311430D01*
X0215309Y0311402D01*
X0215464Y0311371D01*
X0215619Y0311335D01*
X0215772Y0311296D01*
X0215924Y0311253D01*
X0216075Y0311206D01*
X0216225Y0311155D01*
X0216374Y0311100D01*
X0216521Y0311042D01*
X0216667Y0310980D01*
X0216811Y0310915D01*
X0216953Y0310845D01*
X0217094Y0310773D01*
X0217233Y0310696D01*
X0217369Y0310617D01*
X0217504Y0310533D01*
X0217637Y0310447D01*
X0217767Y0310357D01*
X0217895Y0310264D01*
X0218021Y0310168D01*
X0218144Y0310068D01*
X0218265Y0309966D01*
X0218383Y0309861D01*
X0218498Y0309752D01*
X0218611Y0309641D01*
X0218721Y0309527D01*
X0218828Y0309410D01*
X0218932Y0309291D01*
X0219033Y0309169D01*
X0219130Y0309044D01*
X0219225Y0308917D01*
X0219316Y0308788D01*
X0219405Y0308657D01*
X0219489Y0308523D01*
X0219571Y0308387D01*
X0219649Y0308250D01*
X0219723Y0308110D01*
X0219794Y0307968D01*
X0219862Y0307825D01*
X0219926Y0307680D01*
X0219986Y0307534D01*
X0220042Y0307386D01*
X0220095Y0307237D01*
X0220144Y0307086D01*
X0220189Y0306934D01*
X0220230Y0306781D01*
X0220268Y0306628D01*
X0220301Y0306473D01*
X0220331Y0306317D01*
X0220357Y0306161D01*
X0220378Y0306004D01*
X0220396Y0305847D01*
X0220410Y0305689D01*
X0220420Y0305531D01*
X0220426Y0305373D01*
X0220428Y0305215D01*
X0220426Y0305057D01*
X0220420Y0304899D01*
X0220410Y0304741D01*
X0220396Y0304583D01*
X0220378Y0304426D01*
X0220357Y0304269D01*
X0220331Y0304113D01*
X0220301Y0303957D01*
X0220268Y0303802D01*
X0220230Y0303649D01*
X0220189Y0303496D01*
X0220144Y0303344D01*
X0220095Y0303193D01*
X0220042Y0303044D01*
X0219986Y0302896D01*
X0219926Y0302750D01*
X0219862Y0302605D01*
X0219794Y0302462D01*
X0219723Y0302320D01*
X0219649Y0302180D01*
X0219571Y0302043D01*
X0219489Y0301907D01*
X0219405Y0301773D01*
X0219316Y0301642D01*
X0219225Y0301513D01*
X0219130Y0301386D01*
X0219033Y0301261D01*
X0218932Y0301139D01*
X0218828Y0301020D01*
X0218721Y0300903D01*
X0218611Y0300789D01*
X0218498Y0300678D01*
X0218383Y0300569D01*
X0218265Y0300464D01*
X0218144Y0300362D01*
X0218021Y0300262D01*
X0217895Y0300166D01*
X0217767Y0300073D01*
X0217637Y0299983D01*
X0217504Y0299897D01*
X0217369Y0299813D01*
X0217233Y0299734D01*
X0217094Y0299657D01*
X0216953Y0299585D01*
X0216811Y0299515D01*
X0216667Y0299450D01*
X0216521Y0299388D01*
X0216374Y0299330D01*
X0216225Y0299275D01*
X0216075Y0299224D01*
X0215924Y0299177D01*
X0215772Y0299134D01*
X0215619Y0299095D01*
X0215464Y0299059D01*
X0215309Y0299028D01*
X0215153Y0299000D01*
X0214997Y0298976D01*
X0214840Y0298956D01*
X0214682Y0298940D01*
X0214525Y0298928D01*
X0214366Y0298920D01*
X0214208Y0298916D01*
X0214050Y0298916D01*
X0213892Y0298920D01*
X0213733Y0298928D01*
X0213576Y0298940D01*
X0213418Y0298956D01*
X0213261Y0298976D01*
X0213105Y0299000D01*
X0212949Y0299028D01*
X0212794Y0299059D01*
X0212639Y0299095D01*
X0212486Y0299134D01*
X0212334Y0299177D01*
X0212183Y0299224D01*
X0212033Y0299275D01*
X0211884Y0299330D01*
X0211737Y0299388D01*
X0211591Y0299450D01*
X0211447Y0299515D01*
X0211305Y0299585D01*
X0211164Y0299657D01*
X0211025Y0299734D01*
X0210889Y0299813D01*
X0210754Y0299897D01*
X0210621Y0299983D01*
X0210491Y0300073D01*
X0210363Y0300166D01*
X0210237Y0300262D01*
X0210114Y0300362D01*
X0209993Y0300464D01*
X0209875Y0300569D01*
X0209760Y0300678D01*
X0209647Y0300789D01*
X0209537Y0300903D01*
X0209430Y0301020D01*
X0209326Y0301139D01*
X0209225Y0301261D01*
X0209128Y0301386D01*
X0209033Y0301513D01*
X0208942Y0301642D01*
X0208853Y0301773D01*
X0208769Y0301907D01*
X0208687Y0302043D01*
X0208609Y0302180D01*
X0208535Y0302320D01*
X0208464Y0302462D01*
X0208396Y0302605D01*
X0208332Y0302750D01*
X0208272Y0302896D01*
X0208216Y0303044D01*
X0208163Y0303193D01*
X0208114Y0303344D01*
X0208069Y0303496D01*
X0208028Y0303649D01*
X0207990Y0303802D01*
X0207957Y0303957D01*
X0207927Y0304113D01*
X0207901Y0304269D01*
X0207880Y0304426D01*
X0207862Y0304583D01*
X0207848Y0304741D01*
X0207838Y0304899D01*
X0207832Y0305057D01*
X0207830Y0305215D01*
X0225854Y0301278D02*
X0225732Y0299079D01*
X0225556Y0296883D01*
X0225327Y0294692D01*
X0225044Y0292508D01*
X0224708Y0290331D01*
X0224320Y0288163D01*
X0223879Y0286005D01*
X0223386Y0283859D01*
X0222840Y0281725D01*
X0222243Y0279605D01*
X0221594Y0277500D01*
X0220895Y0275411D01*
X0220144Y0273340D01*
X0219344Y0271288D01*
X0218494Y0269256D01*
X0217595Y0267246D01*
X0216647Y0265257D01*
X0215651Y0263293D01*
X0214608Y0261353D01*
X0213517Y0259439D01*
X0212381Y0257552D01*
X0211199Y0255694D01*
X0209972Y0253865D01*
X0208701Y0252066D01*
X0207387Y0250298D01*
X0206030Y0248564D01*
X0204631Y0246862D01*
X0203191Y0245195D01*
X0201711Y0243564D01*
X0200192Y0241969D01*
X0198635Y0240412D01*
X0197040Y0238893D01*
X0195408Y0237413D01*
X0193741Y0235973D01*
X0192040Y0234574D01*
X0190305Y0233217D01*
X0188538Y0231903D01*
X0186739Y0230632D01*
X0184910Y0229405D01*
X0183051Y0228223D01*
X0181164Y0227086D01*
X0179251Y0225996D01*
X0177311Y0224953D01*
X0175346Y0223957D01*
X0173358Y0223009D01*
X0171347Y0222110D01*
X0169315Y0221260D01*
X0167263Y0220459D01*
X0165192Y0219709D01*
X0163104Y0219010D01*
X0160999Y0218361D01*
X0158879Y0217764D01*
X0156745Y0217218D01*
X0154598Y0216725D01*
X0152440Y0216284D01*
X0150272Y0215896D01*
X0148095Y0215560D01*
X0145911Y0215277D01*
X0143721Y0215048D01*
X0141525Y0214872D01*
X0139326Y0214750D01*
X0131452Y0214750D02*
X0129239Y0214873D01*
X0127030Y0215051D01*
X0124826Y0215282D01*
X0122629Y0215568D01*
X0120439Y0215907D01*
X0118258Y0216299D01*
X0116087Y0216745D01*
X0113928Y0217244D01*
X0111782Y0217795D01*
X0109650Y0218399D01*
X0107533Y0219055D01*
X0105433Y0219763D01*
X0103351Y0220521D01*
X0101288Y0221331D01*
X0099246Y0222190D01*
X0097225Y0223099D01*
X0095227Y0224058D01*
X0093253Y0225065D01*
X0091304Y0226120D01*
X0089382Y0227223D01*
X0087487Y0228372D01*
X0085621Y0229567D01*
X0083785Y0230807D01*
X0081979Y0232093D01*
X0080206Y0233421D01*
X0078466Y0234793D01*
X0076760Y0236207D01*
X0075088Y0237663D01*
X0073453Y0239158D01*
X0071856Y0240694D01*
X0070296Y0242268D01*
X0068775Y0243880D01*
X0067294Y0245528D01*
X0065854Y0247212D01*
X0064455Y0248931D01*
X0063099Y0250684D01*
X0061786Y0252469D01*
X0060518Y0254286D01*
X0059294Y0256133D01*
X0058116Y0258010D01*
X0056984Y0259915D01*
X0055898Y0261847D01*
X0054861Y0263806D01*
X0053872Y0265789D01*
X0052931Y0267795D01*
X0052040Y0269824D01*
X0051199Y0271874D01*
X0050409Y0273945D01*
X0049669Y0276033D01*
X0048981Y0278140D01*
X0048344Y0280262D01*
X0047759Y0282400D01*
X0047227Y0284551D01*
X0046748Y0286715D01*
X0046322Y0288889D01*
X0045949Y0291074D01*
X0045630Y0293267D01*
X0045364Y0295467D01*
X0045153Y0297672D01*
X0044995Y0299883D01*
X0044892Y0302096D01*
X0044843Y0304312D01*
X0044848Y0306528D01*
X0044907Y0308743D01*
X0045020Y0310956D01*
X0045188Y0313166D01*
X0045409Y0315371D01*
X0045685Y0317570D01*
X0046014Y0319761D01*
X0046397Y0321944D01*
X0046833Y0324116D01*
X0047322Y0326278D01*
X0047864Y0328426D01*
X0048458Y0330561D01*
X0049104Y0332681D01*
X0049802Y0334784D01*
X0050551Y0336870D01*
X0051351Y0338936D01*
X0052202Y0340983D01*
X0053102Y0343008D01*
X0054051Y0345010D01*
X0055049Y0346988D01*
X0056096Y0348942D01*
X0057189Y0350869D01*
X0058330Y0352769D01*
X0059517Y0354640D01*
X0060749Y0356482D01*
X0062026Y0358293D01*
X0063347Y0360073D01*
X0064711Y0361819D01*
X0066117Y0363532D01*
X0067565Y0365210D01*
X0069053Y0366851D01*
X0070581Y0368456D01*
X0072148Y0370023D01*
X0073753Y0371551D01*
X0075395Y0373040D01*
X0077072Y0374487D01*
X0078785Y0375894D01*
X0080532Y0377258D01*
X0082311Y0378578D01*
X0084122Y0379855D01*
X0085964Y0381088D01*
X0087835Y0382274D01*
X0089735Y0383415D01*
X0091663Y0384509D01*
X0093616Y0385555D01*
X0095594Y0386553D01*
X0097597Y0387502D01*
X0099622Y0388403D01*
X0101668Y0389253D01*
X0103735Y0390053D01*
X0105820Y0390802D01*
X0107923Y0391500D01*
X0110043Y0392146D01*
X0112178Y0392741D01*
X0114327Y0393282D01*
X0116488Y0393771D01*
X0118661Y0394207D01*
X0120843Y0394590D01*
X0123035Y0394919D01*
X0125234Y0395195D01*
X0127439Y0395416D01*
X0129648Y0395584D01*
X0131861Y0395697D01*
X0134076Y0395756D01*
X0136292Y0395761D01*
X0138508Y0395712D01*
X0140722Y0395609D01*
X0142932Y0395451D01*
X0145138Y0395240D01*
X0147338Y0394974D01*
X0149531Y0394655D01*
X0151715Y0394282D01*
X0153890Y0393856D01*
X0156053Y0393377D01*
X0158205Y0392845D01*
X0160342Y0392260D01*
X0162465Y0391623D01*
X0164571Y0390935D01*
X0166660Y0390195D01*
X0168730Y0389404D01*
X0170780Y0388563D01*
X0172809Y0387672D01*
X0174816Y0386732D01*
X0176799Y0385743D01*
X0178757Y0384705D01*
X0180689Y0383620D01*
X0182594Y0382488D01*
X0184471Y0381310D01*
X0186318Y0380086D01*
X0188135Y0378817D01*
X0189920Y0377505D01*
X0191673Y0376149D01*
X0193392Y0374750D01*
X0195076Y0373310D01*
X0196725Y0371829D01*
X0198336Y0370308D01*
X0199910Y0368748D01*
X0201446Y0367150D01*
X0202942Y0365515D01*
X0204397Y0363844D01*
X0205811Y0362138D01*
X0207183Y0360398D01*
X0208512Y0358624D01*
X0209797Y0356819D01*
X0211037Y0354983D01*
X0212232Y0353117D01*
X0213382Y0351222D01*
X0214484Y0349300D01*
X0215539Y0347351D01*
X0216546Y0345377D01*
X0217505Y0343379D01*
X0218414Y0341358D01*
X0219274Y0339316D01*
X0220083Y0337253D01*
X0220842Y0335171D01*
X0221549Y0333071D01*
X0222205Y0330954D01*
X0222809Y0328822D01*
X0223360Y0326675D01*
X0223859Y0324516D01*
X0224305Y0322346D01*
X0224697Y0320165D01*
X0225036Y0317975D01*
X0225322Y0315777D01*
X0225553Y0313573D01*
X0225731Y0311364D01*
X0225854Y0309152D01*
X0257522Y0309152D02*
X0257645Y0311362D01*
X0257822Y0313569D01*
X0258053Y0315771D01*
X0258338Y0317966D01*
X0258677Y0320154D01*
X0259069Y0322333D01*
X0259514Y0324502D01*
X0260012Y0326659D01*
X0260562Y0328803D01*
X0261165Y0330933D01*
X0261820Y0333048D01*
X0262526Y0335146D01*
X0263283Y0337227D01*
X0264091Y0339288D01*
X0264949Y0341329D01*
X0265857Y0343348D01*
X0266814Y0345344D01*
X0267819Y0347317D01*
X0268872Y0349264D01*
X0269973Y0351185D01*
X0271120Y0353078D01*
X0272313Y0354943D01*
X0273551Y0356778D01*
X0274834Y0358583D01*
X0276160Y0360355D01*
X0277530Y0362094D01*
X0278941Y0363800D01*
X0280394Y0365470D01*
X0281888Y0367105D01*
X0283420Y0368702D01*
X0284992Y0370262D01*
X0286601Y0371782D01*
X0288246Y0373263D01*
X0289928Y0374703D01*
X0291644Y0376102D01*
X0293394Y0377458D01*
X0295176Y0378771D01*
X0296990Y0380040D01*
X0298835Y0381264D01*
X0300708Y0382443D01*
X0302611Y0383576D01*
X0304540Y0384662D01*
X0306495Y0385700D01*
X0308475Y0386691D01*
X0310479Y0387632D01*
X0312505Y0388525D01*
X0314552Y0389367D01*
X0316619Y0390159D01*
X0318705Y0390901D01*
X0320809Y0391591D01*
X0322928Y0392230D01*
X0325063Y0392816D01*
X0327212Y0393350D01*
X0329372Y0393832D01*
X0331544Y0394261D01*
X0333726Y0394636D01*
X0335916Y0394958D01*
X0338114Y0395226D01*
X0340317Y0395441D01*
X0342525Y0395601D01*
X0344737Y0395708D01*
X0346950Y0395760D01*
X0349164Y0395758D01*
X0351377Y0395703D01*
X0353588Y0395593D01*
X0355796Y0395429D01*
X0357999Y0395211D01*
X0360196Y0394939D01*
X0362386Y0394614D01*
X0364567Y0394235D01*
X0366738Y0393803D01*
X0368898Y0393318D01*
X0371046Y0392781D01*
X0373180Y0392191D01*
X0375299Y0391549D01*
X0377401Y0390856D01*
X0379486Y0390111D01*
X0381552Y0389315D01*
X0383598Y0388470D01*
X0385622Y0387574D01*
X0387625Y0386630D01*
X0389603Y0385636D01*
X0391557Y0384595D01*
X0393484Y0383506D01*
X0395385Y0382370D01*
X0397257Y0381189D01*
X0399099Y0379961D01*
X0400911Y0378690D01*
X0402692Y0377374D01*
X0404439Y0376015D01*
X0406153Y0374614D01*
X0407833Y0373171D01*
X0409476Y0371688D01*
X0411083Y0370164D01*
X0412652Y0368603D01*
X0414182Y0367003D01*
X0415673Y0365366D01*
X0417123Y0363693D01*
X0418532Y0361986D01*
X0419899Y0360244D01*
X0421222Y0358470D01*
X0422502Y0356663D01*
X0423738Y0354826D01*
X0424928Y0352960D01*
X0426072Y0351064D01*
X0427170Y0349142D01*
X0428220Y0347193D01*
X0429222Y0345219D01*
X0430176Y0343221D01*
X0431080Y0341200D01*
X0431935Y0339158D01*
X0432740Y0337096D01*
X0433494Y0335014D01*
X0434197Y0332915D01*
X0434849Y0330799D01*
X0435448Y0328668D01*
X0435995Y0326523D01*
X0436490Y0324365D01*
X0436932Y0322196D01*
X0437320Y0320016D01*
X0437655Y0317828D01*
X0437937Y0315632D01*
X0438165Y0313430D01*
X0438338Y0311223D01*
X0438458Y0309012D01*
X0438524Y0306800D01*
X0438536Y0304586D01*
X0438493Y0302372D01*
X0438397Y0300161D01*
X0438246Y0297952D01*
X0438042Y0295748D01*
X0437783Y0293549D01*
X0437471Y0291357D01*
X0437106Y0289174D01*
X0436687Y0287000D01*
X0436215Y0284837D01*
X0435691Y0282686D01*
X0435114Y0280549D01*
X0434485Y0278426D01*
X0433804Y0276319D01*
X0433072Y0274230D01*
X0432289Y0272159D01*
X0431456Y0270108D01*
X0430572Y0268078D01*
X0429640Y0266070D01*
X0428658Y0264086D01*
X0427629Y0262126D01*
X0426552Y0260192D01*
X0425428Y0258285D01*
X0424257Y0256406D01*
X0423041Y0254556D01*
X0421780Y0252736D01*
X0420475Y0250948D01*
X0419127Y0249192D01*
X0417736Y0247469D01*
X0416303Y0245781D01*
X0414830Y0244129D01*
X0413317Y0242513D01*
X0411764Y0240935D01*
X0410174Y0239395D01*
X0408546Y0237894D01*
X0406882Y0236434D01*
X0405183Y0235015D01*
X0403450Y0233638D01*
X0401684Y0232303D01*
X0399885Y0231012D01*
X0398056Y0229766D01*
X0396196Y0228564D01*
X0394308Y0227408D01*
X0392392Y0226299D01*
X0390449Y0225237D01*
X0388481Y0224223D01*
X0386489Y0223257D01*
X0384474Y0222341D01*
X0382437Y0221473D01*
X0380380Y0220656D01*
X0378303Y0219890D01*
X0376208Y0219174D01*
X0374096Y0218510D01*
X0371969Y0217897D01*
X0369827Y0217337D01*
X0367672Y0216830D01*
X0420429Y0305215D02*
X0420431Y0305373D01*
X0420437Y0305531D01*
X0420447Y0305689D01*
X0420461Y0305847D01*
X0420479Y0306004D01*
X0420500Y0306161D01*
X0420526Y0306317D01*
X0420556Y0306473D01*
X0420589Y0306628D01*
X0420627Y0306781D01*
X0420668Y0306934D01*
X0420713Y0307086D01*
X0420762Y0307237D01*
X0420815Y0307386D01*
X0420871Y0307534D01*
X0420931Y0307680D01*
X0420995Y0307825D01*
X0421063Y0307968D01*
X0421134Y0308110D01*
X0421208Y0308250D01*
X0421286Y0308387D01*
X0421368Y0308523D01*
X0421452Y0308657D01*
X0421541Y0308788D01*
X0421632Y0308917D01*
X0421727Y0309044D01*
X0421824Y0309169D01*
X0421925Y0309291D01*
X0422029Y0309410D01*
X0422136Y0309527D01*
X0422246Y0309641D01*
X0422359Y0309752D01*
X0422474Y0309861D01*
X0422592Y0309966D01*
X0422713Y0310068D01*
X0422836Y0310168D01*
X0422962Y0310264D01*
X0423090Y0310357D01*
X0423220Y0310447D01*
X0423353Y0310533D01*
X0423488Y0310617D01*
X0423624Y0310696D01*
X0423763Y0310773D01*
X0423904Y0310845D01*
X0424046Y0310915D01*
X0424190Y0310980D01*
X0424336Y0311042D01*
X0424483Y0311100D01*
X0424632Y0311155D01*
X0424782Y0311206D01*
X0424933Y0311253D01*
X0425085Y0311296D01*
X0425238Y0311335D01*
X0425393Y0311371D01*
X0425548Y0311402D01*
X0425704Y0311430D01*
X0425860Y0311454D01*
X0426017Y0311474D01*
X0426175Y0311490D01*
X0426332Y0311502D01*
X0426491Y0311510D01*
X0426649Y0311514D01*
X0426807Y0311514D01*
X0426965Y0311510D01*
X0427124Y0311502D01*
X0427281Y0311490D01*
X0427439Y0311474D01*
X0427596Y0311454D01*
X0427752Y0311430D01*
X0427908Y0311402D01*
X0428063Y0311371D01*
X0428218Y0311335D01*
X0428371Y0311296D01*
X0428523Y0311253D01*
X0428674Y0311206D01*
X0428824Y0311155D01*
X0428973Y0311100D01*
X0429120Y0311042D01*
X0429266Y0310980D01*
X0429410Y0310915D01*
X0429552Y0310845D01*
X0429693Y0310773D01*
X0429832Y0310696D01*
X0429968Y0310617D01*
X0430103Y0310533D01*
X0430236Y0310447D01*
X0430366Y0310357D01*
X0430494Y0310264D01*
X0430620Y0310168D01*
X0430743Y0310068D01*
X0430864Y0309966D01*
X0430982Y0309861D01*
X0431097Y0309752D01*
X0431210Y0309641D01*
X0431320Y0309527D01*
X0431427Y0309410D01*
X0431531Y0309291D01*
X0431632Y0309169D01*
X0431729Y0309044D01*
X0431824Y0308917D01*
X0431915Y0308788D01*
X0432004Y0308657D01*
X0432088Y0308523D01*
X0432170Y0308387D01*
X0432248Y0308250D01*
X0432322Y0308110D01*
X0432393Y0307968D01*
X0432461Y0307825D01*
X0432525Y0307680D01*
X0432585Y0307534D01*
X0432641Y0307386D01*
X0432694Y0307237D01*
X0432743Y0307086D01*
X0432788Y0306934D01*
X0432829Y0306781D01*
X0432867Y0306628D01*
X0432900Y0306473D01*
X0432930Y0306317D01*
X0432956Y0306161D01*
X0432977Y0306004D01*
X0432995Y0305847D01*
X0433009Y0305689D01*
X0433019Y0305531D01*
X0433025Y0305373D01*
X0433027Y0305215D01*
X0433025Y0305057D01*
X0433019Y0304899D01*
X0433009Y0304741D01*
X0432995Y0304583D01*
X0432977Y0304426D01*
X0432956Y0304269D01*
X0432930Y0304113D01*
X0432900Y0303957D01*
X0432867Y0303802D01*
X0432829Y0303649D01*
X0432788Y0303496D01*
X0432743Y0303344D01*
X0432694Y0303193D01*
X0432641Y0303044D01*
X0432585Y0302896D01*
X0432525Y0302750D01*
X0432461Y0302605D01*
X0432393Y0302462D01*
X0432322Y0302320D01*
X0432248Y0302180D01*
X0432170Y0302043D01*
X0432088Y0301907D01*
X0432004Y0301773D01*
X0431915Y0301642D01*
X0431824Y0301513D01*
X0431729Y0301386D01*
X0431632Y0301261D01*
X0431531Y0301139D01*
X0431427Y0301020D01*
X0431320Y0300903D01*
X0431210Y0300789D01*
X0431097Y0300678D01*
X0430982Y0300569D01*
X0430864Y0300464D01*
X0430743Y0300362D01*
X0430620Y0300262D01*
X0430494Y0300166D01*
X0430366Y0300073D01*
X0430236Y0299983D01*
X0430103Y0299897D01*
X0429968Y0299813D01*
X0429832Y0299734D01*
X0429693Y0299657D01*
X0429552Y0299585D01*
X0429410Y0299515D01*
X0429266Y0299450D01*
X0429120Y0299388D01*
X0428973Y0299330D01*
X0428824Y0299275D01*
X0428674Y0299224D01*
X0428523Y0299177D01*
X0428371Y0299134D01*
X0428218Y0299095D01*
X0428063Y0299059D01*
X0427908Y0299028D01*
X0427752Y0299000D01*
X0427596Y0298976D01*
X0427439Y0298956D01*
X0427281Y0298940D01*
X0427124Y0298928D01*
X0426965Y0298920D01*
X0426807Y0298916D01*
X0426649Y0298916D01*
X0426491Y0298920D01*
X0426332Y0298928D01*
X0426175Y0298940D01*
X0426017Y0298956D01*
X0425860Y0298976D01*
X0425704Y0299000D01*
X0425548Y0299028D01*
X0425393Y0299059D01*
X0425238Y0299095D01*
X0425085Y0299134D01*
X0424933Y0299177D01*
X0424782Y0299224D01*
X0424632Y0299275D01*
X0424483Y0299330D01*
X0424336Y0299388D01*
X0424190Y0299450D01*
X0424046Y0299515D01*
X0423904Y0299585D01*
X0423763Y0299657D01*
X0423624Y0299734D01*
X0423488Y0299813D01*
X0423353Y0299897D01*
X0423220Y0299983D01*
X0423090Y0300073D01*
X0422962Y0300166D01*
X0422836Y0300262D01*
X0422713Y0300362D01*
X0422592Y0300464D01*
X0422474Y0300569D01*
X0422359Y0300678D01*
X0422246Y0300789D01*
X0422136Y0300903D01*
X0422029Y0301020D01*
X0421925Y0301139D01*
X0421824Y0301261D01*
X0421727Y0301386D01*
X0421632Y0301513D01*
X0421541Y0301642D01*
X0421452Y0301773D01*
X0421368Y0301907D01*
X0421286Y0302043D01*
X0421208Y0302180D01*
X0421134Y0302320D01*
X0421063Y0302462D01*
X0420995Y0302605D01*
X0420931Y0302750D01*
X0420871Y0302896D01*
X0420815Y0303044D01*
X0420762Y0303193D01*
X0420713Y0303344D01*
X0420668Y0303496D01*
X0420627Y0303649D01*
X0420589Y0303802D01*
X0420556Y0303957D01*
X0420526Y0304113D01*
X0420500Y0304269D01*
X0420479Y0304426D01*
X0420461Y0304583D01*
X0420447Y0304741D01*
X0420437Y0304899D01*
X0420431Y0305057D01*
X0420429Y0305215D01*
X0420429Y0092616D02*
X0420431Y0092774D01*
X0420437Y0092932D01*
X0420447Y0093090D01*
X0420461Y0093248D01*
X0420479Y0093405D01*
X0420500Y0093562D01*
X0420526Y0093718D01*
X0420556Y0093874D01*
X0420589Y0094029D01*
X0420627Y0094182D01*
X0420668Y0094335D01*
X0420713Y0094487D01*
X0420762Y0094638D01*
X0420815Y0094787D01*
X0420871Y0094935D01*
X0420931Y0095081D01*
X0420995Y0095226D01*
X0421063Y0095369D01*
X0421134Y0095511D01*
X0421208Y0095651D01*
X0421286Y0095788D01*
X0421368Y0095924D01*
X0421452Y0096058D01*
X0421541Y0096189D01*
X0421632Y0096318D01*
X0421727Y0096445D01*
X0421824Y0096570D01*
X0421925Y0096692D01*
X0422029Y0096811D01*
X0422136Y0096928D01*
X0422246Y0097042D01*
X0422359Y0097153D01*
X0422474Y0097262D01*
X0422592Y0097367D01*
X0422713Y0097469D01*
X0422836Y0097569D01*
X0422962Y0097665D01*
X0423090Y0097758D01*
X0423220Y0097848D01*
X0423353Y0097934D01*
X0423488Y0098018D01*
X0423624Y0098097D01*
X0423763Y0098174D01*
X0423904Y0098246D01*
X0424046Y0098316D01*
X0424190Y0098381D01*
X0424336Y0098443D01*
X0424483Y0098501D01*
X0424632Y0098556D01*
X0424782Y0098607D01*
X0424933Y0098654D01*
X0425085Y0098697D01*
X0425238Y0098736D01*
X0425393Y0098772D01*
X0425548Y0098803D01*
X0425704Y0098831D01*
X0425860Y0098855D01*
X0426017Y0098875D01*
X0426175Y0098891D01*
X0426332Y0098903D01*
X0426491Y0098911D01*
X0426649Y0098915D01*
X0426807Y0098915D01*
X0426965Y0098911D01*
X0427124Y0098903D01*
X0427281Y0098891D01*
X0427439Y0098875D01*
X0427596Y0098855D01*
X0427752Y0098831D01*
X0427908Y0098803D01*
X0428063Y0098772D01*
X0428218Y0098736D01*
X0428371Y0098697D01*
X0428523Y0098654D01*
X0428674Y0098607D01*
X0428824Y0098556D01*
X0428973Y0098501D01*
X0429120Y0098443D01*
X0429266Y0098381D01*
X0429410Y0098316D01*
X0429552Y0098246D01*
X0429693Y0098174D01*
X0429832Y0098097D01*
X0429968Y0098018D01*
X0430103Y0097934D01*
X0430236Y0097848D01*
X0430366Y0097758D01*
X0430494Y0097665D01*
X0430620Y0097569D01*
X0430743Y0097469D01*
X0430864Y0097367D01*
X0430982Y0097262D01*
X0431097Y0097153D01*
X0431210Y0097042D01*
X0431320Y0096928D01*
X0431427Y0096811D01*
X0431531Y0096692D01*
X0431632Y0096570D01*
X0431729Y0096445D01*
X0431824Y0096318D01*
X0431915Y0096189D01*
X0432004Y0096058D01*
X0432088Y0095924D01*
X0432170Y0095788D01*
X0432248Y0095651D01*
X0432322Y0095511D01*
X0432393Y0095369D01*
X0432461Y0095226D01*
X0432525Y0095081D01*
X0432585Y0094935D01*
X0432641Y0094787D01*
X0432694Y0094638D01*
X0432743Y0094487D01*
X0432788Y0094335D01*
X0432829Y0094182D01*
X0432867Y0094029D01*
X0432900Y0093874D01*
X0432930Y0093718D01*
X0432956Y0093562D01*
X0432977Y0093405D01*
X0432995Y0093248D01*
X0433009Y0093090D01*
X0433019Y0092932D01*
X0433025Y0092774D01*
X0433027Y0092616D01*
X0433025Y0092458D01*
X0433019Y0092300D01*
X0433009Y0092142D01*
X0432995Y0091984D01*
X0432977Y0091827D01*
X0432956Y0091670D01*
X0432930Y0091514D01*
X0432900Y0091358D01*
X0432867Y0091203D01*
X0432829Y0091050D01*
X0432788Y0090897D01*
X0432743Y0090745D01*
X0432694Y0090594D01*
X0432641Y0090445D01*
X0432585Y0090297D01*
X0432525Y0090151D01*
X0432461Y0090006D01*
X0432393Y0089863D01*
X0432322Y0089721D01*
X0432248Y0089581D01*
X0432170Y0089444D01*
X0432088Y0089308D01*
X0432004Y0089174D01*
X0431915Y0089043D01*
X0431824Y0088914D01*
X0431729Y0088787D01*
X0431632Y0088662D01*
X0431531Y0088540D01*
X0431427Y0088421D01*
X0431320Y0088304D01*
X0431210Y0088190D01*
X0431097Y0088079D01*
X0430982Y0087970D01*
X0430864Y0087865D01*
X0430743Y0087763D01*
X0430620Y0087663D01*
X0430494Y0087567D01*
X0430366Y0087474D01*
X0430236Y0087384D01*
X0430103Y0087298D01*
X0429968Y0087214D01*
X0429832Y0087135D01*
X0429693Y0087058D01*
X0429552Y0086986D01*
X0429410Y0086916D01*
X0429266Y0086851D01*
X0429120Y0086789D01*
X0428973Y0086731D01*
X0428824Y0086676D01*
X0428674Y0086625D01*
X0428523Y0086578D01*
X0428371Y0086535D01*
X0428218Y0086496D01*
X0428063Y0086460D01*
X0427908Y0086429D01*
X0427752Y0086401D01*
X0427596Y0086377D01*
X0427439Y0086357D01*
X0427281Y0086341D01*
X0427124Y0086329D01*
X0426965Y0086321D01*
X0426807Y0086317D01*
X0426649Y0086317D01*
X0426491Y0086321D01*
X0426332Y0086329D01*
X0426175Y0086341D01*
X0426017Y0086357D01*
X0425860Y0086377D01*
X0425704Y0086401D01*
X0425548Y0086429D01*
X0425393Y0086460D01*
X0425238Y0086496D01*
X0425085Y0086535D01*
X0424933Y0086578D01*
X0424782Y0086625D01*
X0424632Y0086676D01*
X0424483Y0086731D01*
X0424336Y0086789D01*
X0424190Y0086851D01*
X0424046Y0086916D01*
X0423904Y0086986D01*
X0423763Y0087058D01*
X0423624Y0087135D01*
X0423488Y0087214D01*
X0423353Y0087298D01*
X0423220Y0087384D01*
X0423090Y0087474D01*
X0422962Y0087567D01*
X0422836Y0087663D01*
X0422713Y0087763D01*
X0422592Y0087865D01*
X0422474Y0087970D01*
X0422359Y0088079D01*
X0422246Y0088190D01*
X0422136Y0088304D01*
X0422029Y0088421D01*
X0421925Y0088540D01*
X0421824Y0088662D01*
X0421727Y0088787D01*
X0421632Y0088914D01*
X0421541Y0089043D01*
X0421452Y0089174D01*
X0421368Y0089308D01*
X0421286Y0089444D01*
X0421208Y0089581D01*
X0421134Y0089721D01*
X0421063Y0089863D01*
X0420995Y0090006D01*
X0420931Y0090151D01*
X0420871Y0090297D01*
X0420815Y0090445D01*
X0420762Y0090594D01*
X0420713Y0090745D01*
X0420668Y0090897D01*
X0420627Y0091050D01*
X0420589Y0091203D01*
X0420556Y0091358D01*
X0420526Y0091514D01*
X0420500Y0091670D01*
X0420479Y0091827D01*
X0420461Y0091984D01*
X0420447Y0092142D01*
X0420437Y0092300D01*
X0420431Y0092458D01*
X0420429Y0092616D01*
X0050350Y0305215D02*
X0050352Y0305373D01*
X0050358Y0305531D01*
X0050368Y0305689D01*
X0050382Y0305847D01*
X0050400Y0306004D01*
X0050421Y0306161D01*
X0050447Y0306317D01*
X0050477Y0306473D01*
X0050510Y0306628D01*
X0050548Y0306781D01*
X0050589Y0306934D01*
X0050634Y0307086D01*
X0050683Y0307237D01*
X0050736Y0307386D01*
X0050792Y0307534D01*
X0050852Y0307680D01*
X0050916Y0307825D01*
X0050984Y0307968D01*
X0051055Y0308110D01*
X0051129Y0308250D01*
X0051207Y0308387D01*
X0051289Y0308523D01*
X0051373Y0308657D01*
X0051462Y0308788D01*
X0051553Y0308917D01*
X0051648Y0309044D01*
X0051745Y0309169D01*
X0051846Y0309291D01*
X0051950Y0309410D01*
X0052057Y0309527D01*
X0052167Y0309641D01*
X0052280Y0309752D01*
X0052395Y0309861D01*
X0052513Y0309966D01*
X0052634Y0310068D01*
X0052757Y0310168D01*
X0052883Y0310264D01*
X0053011Y0310357D01*
X0053141Y0310447D01*
X0053274Y0310533D01*
X0053409Y0310617D01*
X0053545Y0310696D01*
X0053684Y0310773D01*
X0053825Y0310845D01*
X0053967Y0310915D01*
X0054111Y0310980D01*
X0054257Y0311042D01*
X0054404Y0311100D01*
X0054553Y0311155D01*
X0054703Y0311206D01*
X0054854Y0311253D01*
X0055006Y0311296D01*
X0055159Y0311335D01*
X0055314Y0311371D01*
X0055469Y0311402D01*
X0055625Y0311430D01*
X0055781Y0311454D01*
X0055938Y0311474D01*
X0056096Y0311490D01*
X0056253Y0311502D01*
X0056412Y0311510D01*
X0056570Y0311514D01*
X0056728Y0311514D01*
X0056886Y0311510D01*
X0057045Y0311502D01*
X0057202Y0311490D01*
X0057360Y0311474D01*
X0057517Y0311454D01*
X0057673Y0311430D01*
X0057829Y0311402D01*
X0057984Y0311371D01*
X0058139Y0311335D01*
X0058292Y0311296D01*
X0058444Y0311253D01*
X0058595Y0311206D01*
X0058745Y0311155D01*
X0058894Y0311100D01*
X0059041Y0311042D01*
X0059187Y0310980D01*
X0059331Y0310915D01*
X0059473Y0310845D01*
X0059614Y0310773D01*
X0059753Y0310696D01*
X0059889Y0310617D01*
X0060024Y0310533D01*
X0060157Y0310447D01*
X0060287Y0310357D01*
X0060415Y0310264D01*
X0060541Y0310168D01*
X0060664Y0310068D01*
X0060785Y0309966D01*
X0060903Y0309861D01*
X0061018Y0309752D01*
X0061131Y0309641D01*
X0061241Y0309527D01*
X0061348Y0309410D01*
X0061452Y0309291D01*
X0061553Y0309169D01*
X0061650Y0309044D01*
X0061745Y0308917D01*
X0061836Y0308788D01*
X0061925Y0308657D01*
X0062009Y0308523D01*
X0062091Y0308387D01*
X0062169Y0308250D01*
X0062243Y0308110D01*
X0062314Y0307968D01*
X0062382Y0307825D01*
X0062446Y0307680D01*
X0062506Y0307534D01*
X0062562Y0307386D01*
X0062615Y0307237D01*
X0062664Y0307086D01*
X0062709Y0306934D01*
X0062750Y0306781D01*
X0062788Y0306628D01*
X0062821Y0306473D01*
X0062851Y0306317D01*
X0062877Y0306161D01*
X0062898Y0306004D01*
X0062916Y0305847D01*
X0062930Y0305689D01*
X0062940Y0305531D01*
X0062946Y0305373D01*
X0062948Y0305215D01*
X0062946Y0305057D01*
X0062940Y0304899D01*
X0062930Y0304741D01*
X0062916Y0304583D01*
X0062898Y0304426D01*
X0062877Y0304269D01*
X0062851Y0304113D01*
X0062821Y0303957D01*
X0062788Y0303802D01*
X0062750Y0303649D01*
X0062709Y0303496D01*
X0062664Y0303344D01*
X0062615Y0303193D01*
X0062562Y0303044D01*
X0062506Y0302896D01*
X0062446Y0302750D01*
X0062382Y0302605D01*
X0062314Y0302462D01*
X0062243Y0302320D01*
X0062169Y0302180D01*
X0062091Y0302043D01*
X0062009Y0301907D01*
X0061925Y0301773D01*
X0061836Y0301642D01*
X0061745Y0301513D01*
X0061650Y0301386D01*
X0061553Y0301261D01*
X0061452Y0301139D01*
X0061348Y0301020D01*
X0061241Y0300903D01*
X0061131Y0300789D01*
X0061018Y0300678D01*
X0060903Y0300569D01*
X0060785Y0300464D01*
X0060664Y0300362D01*
X0060541Y0300262D01*
X0060415Y0300166D01*
X0060287Y0300073D01*
X0060157Y0299983D01*
X0060024Y0299897D01*
X0059889Y0299813D01*
X0059753Y0299734D01*
X0059614Y0299657D01*
X0059473Y0299585D01*
X0059331Y0299515D01*
X0059187Y0299450D01*
X0059041Y0299388D01*
X0058894Y0299330D01*
X0058745Y0299275D01*
X0058595Y0299224D01*
X0058444Y0299177D01*
X0058292Y0299134D01*
X0058139Y0299095D01*
X0057984Y0299059D01*
X0057829Y0299028D01*
X0057673Y0299000D01*
X0057517Y0298976D01*
X0057360Y0298956D01*
X0057202Y0298940D01*
X0057045Y0298928D01*
X0056886Y0298920D01*
X0056728Y0298916D01*
X0056570Y0298916D01*
X0056412Y0298920D01*
X0056253Y0298928D01*
X0056096Y0298940D01*
X0055938Y0298956D01*
X0055781Y0298976D01*
X0055625Y0299000D01*
X0055469Y0299028D01*
X0055314Y0299059D01*
X0055159Y0299095D01*
X0055006Y0299134D01*
X0054854Y0299177D01*
X0054703Y0299224D01*
X0054553Y0299275D01*
X0054404Y0299330D01*
X0054257Y0299388D01*
X0054111Y0299450D01*
X0053967Y0299515D01*
X0053825Y0299585D01*
X0053684Y0299657D01*
X0053545Y0299734D01*
X0053409Y0299813D01*
X0053274Y0299897D01*
X0053141Y0299983D01*
X0053011Y0300073D01*
X0052883Y0300166D01*
X0052757Y0300262D01*
X0052634Y0300362D01*
X0052513Y0300464D01*
X0052395Y0300569D01*
X0052280Y0300678D01*
X0052167Y0300789D01*
X0052057Y0300903D01*
X0051950Y0301020D01*
X0051846Y0301139D01*
X0051745Y0301261D01*
X0051648Y0301386D01*
X0051553Y0301513D01*
X0051462Y0301642D01*
X0051373Y0301773D01*
X0051289Y0301907D01*
X0051207Y0302043D01*
X0051129Y0302180D01*
X0051055Y0302320D01*
X0050984Y0302462D01*
X0050916Y0302605D01*
X0050852Y0302750D01*
X0050792Y0302896D01*
X0050736Y0303044D01*
X0050683Y0303193D01*
X0050634Y0303344D01*
X0050589Y0303496D01*
X0050548Y0303649D01*
X0050510Y0303802D01*
X0050477Y0303957D01*
X0050447Y0304113D01*
X0050421Y0304269D01*
X0050400Y0304426D01*
X0050382Y0304583D01*
X0050368Y0304741D01*
X0050358Y0304899D01*
X0050352Y0305057D01*
X0050350Y0305215D01*
D11*
X0107389Y0308215D03*
X0109389Y0315215D03*
X0113389Y0322215D03*
X0118889Y0327715D03*
X0125889Y0331715D03*
X0134889Y0332715D03*
X0142889Y0332215D03*
X0149389Y0329215D03*
X0155389Y0323715D03*
X0159889Y0317715D03*
X0162389Y0311215D03*
X0163389Y0302715D03*
X0160889Y0294715D03*
X0157389Y0287715D03*
X0151889Y0282715D03*
X0144889Y0278215D03*
X0136389Y0277715D03*
X0127889Y0278215D03*
X0120389Y0280715D03*
X0113889Y0286215D03*
X0109889Y0292215D03*
X0107389Y0300215D03*
D12*
X0127515Y0371455D03*
X0135389Y0380707D03*
X0143263Y0371455D03*
X0151137Y0380707D03*
X0159011Y0371455D03*
X0166885Y0380707D03*
X0174759Y0371455D03*
X0340113Y0371455D03*
X0347987Y0380707D03*
X0355861Y0371455D03*
X0363736Y0380707D03*
X0371610Y0371455D03*
X0379484Y0380707D03*
X0387358Y0371455D03*
D13*
X0179432Y0075298D02*
X0185000Y0069731D01*
X0179989Y0053584D02*
X0174421Y0048016D01*
X0157440Y0064998D02*
X0163007Y0070566D01*
D14*
X0359798Y0252065D03*
X0359798Y0259939D03*
D15*
X0111767Y0061120D03*
X0092082Y0061120D03*
D16*
X0057086Y0051573D02*
X0147962Y0051573D01*
X0147962Y0050775D02*
X0057494Y0050775D01*
X0057903Y0049976D02*
X0147962Y0049976D01*
X0147962Y0049177D02*
X0058311Y0049177D01*
X0058720Y0048379D02*
X0147962Y0048379D01*
X0147962Y0047580D02*
X0059128Y0047580D01*
X0059206Y0047428D02*
X0054167Y0057279D01*
X0050394Y0067682D01*
X0047949Y0078475D01*
X0046868Y0089488D01*
X0047168Y0100549D01*
X0048846Y0111487D01*
X0051874Y0122131D01*
X0056206Y0132313D01*
X0061773Y0141877D01*
X0068490Y0150671D01*
X0073365Y0155627D01*
X0073365Y0115824D01*
X0073951Y0115239D01*
X0081852Y0115239D01*
X0082635Y0114456D01*
X0083834Y0113959D01*
X0085133Y0113959D01*
X0086313Y0114448D01*
X0139493Y0114448D01*
X0139879Y0114062D01*
X0141078Y0113565D01*
X0142377Y0113565D01*
X0143576Y0114062D01*
X0144495Y0114980D01*
X0144991Y0116180D01*
X0144991Y0117478D01*
X0144495Y0118678D01*
X0143576Y0119596D01*
X0142377Y0120093D01*
X0141078Y0120093D01*
X0140848Y0119998D01*
X0122610Y0119998D01*
X0122610Y0163897D01*
X0122024Y0164483D01*
X0083750Y0164483D01*
X0084934Y0165418D01*
X0094405Y0171141D01*
X0104516Y0175639D01*
X0115109Y0178840D01*
X0126018Y0180696D01*
X0131513Y0181107D01*
X0132270Y0181107D01*
X0132305Y0181143D01*
X0132355Y0181145D01*
X0132879Y0181716D01*
X0133427Y0182264D01*
X0133427Y0182314D01*
X0133461Y0182351D01*
X0133460Y0182368D01*
X0137318Y0182368D01*
X0137318Y0182351D01*
X0137351Y0182314D01*
X0137351Y0182264D01*
X0137899Y0181716D01*
X0138423Y0181145D01*
X0138473Y0181143D01*
X0138508Y0181107D01*
X0139265Y0181107D01*
X0144700Y0180702D01*
X0155494Y0178881D01*
X0165980Y0175743D01*
X0175999Y0171335D01*
X0185397Y0165726D01*
X0194033Y0159000D01*
X0201772Y0151260D01*
X0208498Y0142625D01*
X0214108Y0133226D01*
X0218516Y0123207D01*
X0221654Y0112721D01*
X0223475Y0101928D01*
X0223880Y0096493D01*
X0223880Y0095736D01*
X0223915Y0095700D01*
X0223917Y0095650D01*
X0224489Y0095127D01*
X0225037Y0094579D01*
X0225087Y0094579D01*
X0225123Y0094545D01*
X0225140Y0094546D01*
X0225140Y0090687D01*
X0225123Y0090688D01*
X0225087Y0090654D01*
X0225037Y0090654D01*
X0224489Y0090106D01*
X0223917Y0089583D01*
X0223915Y0089533D01*
X0223880Y0089497D01*
X0223880Y0088740D01*
X0223468Y0083245D01*
X0221613Y0072336D01*
X0218411Y0061743D01*
X0213914Y0051633D01*
X0208191Y0042162D01*
X0201332Y0033478D01*
X0193444Y0025717D01*
X0184649Y0019001D01*
X0175086Y0013433D01*
X0164903Y0009102D01*
X0154260Y0006073D01*
X0143322Y0004396D01*
X0132260Y0004095D01*
X0121247Y0005176D01*
X0110455Y0007622D01*
X0100052Y0011394D01*
X0090200Y0016434D01*
X0081054Y0022663D01*
X0072756Y0029983D01*
X0065435Y0038282D01*
X0059206Y0047428D01*
X0059646Y0046782D02*
X0147962Y0046782D01*
X0147962Y0045983D02*
X0060190Y0045983D01*
X0060734Y0045185D02*
X0147962Y0045185D01*
X0147962Y0044386D02*
X0061278Y0044386D01*
X0061822Y0043588D02*
X0147962Y0043588D01*
X0147962Y0042789D02*
X0062365Y0042789D01*
X0062909Y0041991D02*
X0147873Y0041991D01*
X0147873Y0042085D02*
X0147873Y0040786D01*
X0148370Y0039587D01*
X0149288Y0038668D01*
X0150488Y0038172D01*
X0151786Y0038172D01*
X0152986Y0038668D01*
X0153904Y0039587D01*
X0154401Y0040786D01*
X0154401Y0042085D01*
X0154312Y0042299D01*
X0154312Y0059895D01*
X0156264Y0059086D01*
X0158616Y0059086D01*
X0160788Y0059986D01*
X0168019Y0067217D01*
X0168919Y0069390D01*
X0168919Y0071742D01*
X0168019Y0073915D01*
X0166356Y0075578D01*
X0164183Y0076478D01*
X0161832Y0076478D01*
X0159659Y0075578D01*
X0154312Y0070231D01*
X0154312Y0144429D01*
X0153829Y0145596D01*
X0149892Y0149533D01*
X0148998Y0150426D01*
X0147832Y0150909D01*
X0140641Y0150909D01*
X0138245Y0153306D01*
X0138156Y0153520D01*
X0137238Y0154439D01*
X0136038Y0154935D01*
X0134740Y0154935D01*
X0133540Y0154439D01*
X0132622Y0153520D01*
X0132125Y0152321D01*
X0132125Y0151022D01*
X0132622Y0149823D01*
X0133540Y0148905D01*
X0133755Y0148816D01*
X0137528Y0145043D01*
X0138695Y0144560D01*
X0145885Y0144560D01*
X0147962Y0142483D01*
X0147962Y0042299D01*
X0147873Y0042085D01*
X0147873Y0041192D02*
X0063453Y0041192D01*
X0063997Y0040394D02*
X0148036Y0040394D01*
X0148367Y0039595D02*
X0064541Y0039595D01*
X0065084Y0038797D02*
X0149160Y0038797D01*
X0153114Y0038797D02*
X0205533Y0038797D01*
X0206164Y0039595D02*
X0153908Y0039595D01*
X0154238Y0040394D02*
X0206795Y0040394D01*
X0207425Y0041192D02*
X0154401Y0041192D01*
X0154401Y0041991D02*
X0208056Y0041991D01*
X0208570Y0042789D02*
X0175536Y0042789D01*
X0175671Y0042811D02*
X0176470Y0043070D01*
X0177219Y0043452D01*
X0177898Y0043946D01*
X0180696Y0046744D01*
X0177205Y0050235D01*
X0170930Y0043960D01*
X0170945Y0043946D01*
X0171624Y0043452D01*
X0172373Y0043070D01*
X0173172Y0042811D01*
X0174001Y0042679D01*
X0174841Y0042679D01*
X0175671Y0042811D01*
X0177406Y0043588D02*
X0209053Y0043588D01*
X0209535Y0044386D02*
X0178339Y0044386D01*
X0179138Y0045185D02*
X0210018Y0045185D01*
X0210500Y0045983D02*
X0179936Y0045983D01*
X0180658Y0046782D02*
X0210983Y0046782D01*
X0211465Y0047580D02*
X0181533Y0047580D01*
X0181262Y0047309D02*
X0184060Y0050107D01*
X0184554Y0050787D01*
X0184935Y0051535D01*
X0185195Y0052334D01*
X0185326Y0053164D01*
X0185326Y0054004D01*
X0185195Y0054834D01*
X0184935Y0055633D01*
X0184554Y0056381D01*
X0184060Y0057061D01*
X0184046Y0057075D01*
X0177771Y0050800D01*
X0181262Y0047309D01*
X0180991Y0047580D02*
X0179859Y0047580D01*
X0180192Y0048379D02*
X0179061Y0048379D01*
X0179394Y0049177D02*
X0178262Y0049177D01*
X0178595Y0049976D02*
X0177464Y0049976D01*
X0177205Y0050235D02*
X0177771Y0050800D01*
X0177205Y0051366D01*
X0176640Y0050800D01*
X0177205Y0050235D01*
X0176947Y0049976D02*
X0175815Y0049976D01*
X0176148Y0049177D02*
X0175017Y0049177D01*
X0175350Y0048379D02*
X0174218Y0048379D01*
X0174551Y0047580D02*
X0173420Y0047580D01*
X0173753Y0046782D02*
X0172621Y0046782D01*
X0172954Y0045983D02*
X0171823Y0045983D01*
X0172156Y0045185D02*
X0171024Y0045185D01*
X0171357Y0044386D02*
X0154312Y0044386D01*
X0154312Y0043588D02*
X0171437Y0043588D01*
X0170365Y0044525D02*
X0176640Y0050800D01*
X0173149Y0054291D01*
X0170351Y0051493D01*
X0169857Y0050814D01*
X0169475Y0050065D01*
X0169216Y0049266D01*
X0169084Y0048436D01*
X0169084Y0047596D01*
X0169216Y0046767D01*
X0169475Y0045968D01*
X0169857Y0045219D01*
X0170351Y0044540D01*
X0170365Y0044525D01*
X0169882Y0045185D02*
X0154312Y0045185D01*
X0154312Y0045983D02*
X0169470Y0045983D01*
X0169213Y0046782D02*
X0154312Y0046782D01*
X0154312Y0047580D02*
X0169087Y0047580D01*
X0169084Y0048379D02*
X0154312Y0048379D01*
X0154312Y0049177D02*
X0169202Y0049177D01*
X0169446Y0049976D02*
X0154312Y0049976D01*
X0154312Y0050775D02*
X0169837Y0050775D01*
X0170430Y0051573D02*
X0154312Y0051573D01*
X0154312Y0052372D02*
X0171229Y0052372D01*
X0172027Y0053170D02*
X0154312Y0053170D01*
X0154312Y0053969D02*
X0172826Y0053969D01*
X0173471Y0053969D02*
X0174603Y0053969D01*
X0174270Y0053170D02*
X0175401Y0053170D01*
X0175068Y0052372D02*
X0176200Y0052372D01*
X0175867Y0051573D02*
X0176998Y0051573D01*
X0177205Y0051366D02*
X0173714Y0054857D01*
X0176512Y0057655D01*
X0177192Y0058149D01*
X0177940Y0058530D01*
X0178739Y0058790D01*
X0179569Y0058921D01*
X0180409Y0058921D01*
X0181239Y0058790D01*
X0182038Y0058530D01*
X0182786Y0058149D01*
X0183466Y0057655D01*
X0183480Y0057641D01*
X0177205Y0051366D01*
X0177412Y0051573D02*
X0178544Y0051573D01*
X0178211Y0052372D02*
X0179342Y0052372D01*
X0179009Y0053170D02*
X0180141Y0053170D01*
X0179808Y0053969D02*
X0180939Y0053969D01*
X0180606Y0054767D02*
X0181738Y0054767D01*
X0181405Y0055566D02*
X0182536Y0055566D01*
X0182203Y0056364D02*
X0183335Y0056364D01*
X0183002Y0057163D02*
X0216374Y0057163D01*
X0216729Y0057961D02*
X0183045Y0057961D01*
X0181332Y0058760D02*
X0217084Y0058760D01*
X0217439Y0059558D02*
X0159755Y0059558D01*
X0161159Y0060357D02*
X0217794Y0060357D01*
X0218149Y0061155D02*
X0161957Y0061155D01*
X0162756Y0061954D02*
X0218475Y0061954D01*
X0218716Y0062752D02*
X0163554Y0062752D01*
X0164353Y0063551D02*
X0218957Y0063551D01*
X0219199Y0064349D02*
X0165151Y0064349D01*
X0165950Y0065148D02*
X0182239Y0065148D01*
X0182203Y0065166D02*
X0182951Y0064785D01*
X0183750Y0064525D01*
X0184580Y0064394D01*
X0185420Y0064394D01*
X0186250Y0064525D01*
X0187049Y0064785D01*
X0187797Y0065166D01*
X0188477Y0065660D01*
X0188491Y0065674D01*
X0182216Y0071949D01*
X0178725Y0068458D01*
X0181523Y0065660D01*
X0182203Y0065166D01*
X0181237Y0065946D02*
X0166748Y0065946D01*
X0167547Y0066745D02*
X0180438Y0066745D01*
X0179640Y0067543D02*
X0168154Y0067543D01*
X0168485Y0068342D02*
X0178841Y0068342D01*
X0178160Y0069024D02*
X0181651Y0072515D01*
X0175376Y0078789D01*
X0175362Y0078775D01*
X0174868Y0078096D01*
X0174486Y0077347D01*
X0174227Y0076548D01*
X0174095Y0075718D01*
X0174095Y0074878D01*
X0174227Y0074049D01*
X0174486Y0073250D01*
X0174868Y0072501D01*
X0175362Y0071822D01*
X0178160Y0069024D01*
X0178276Y0069140D02*
X0179408Y0069140D01*
X0179075Y0069939D02*
X0180206Y0069939D01*
X0179873Y0070737D02*
X0181005Y0070737D01*
X0180672Y0071536D02*
X0181803Y0071536D01*
X0182216Y0071949D02*
X0181651Y0072515D01*
X0182216Y0073080D01*
X0175941Y0079355D01*
X0175956Y0079369D01*
X0176635Y0079863D01*
X0177384Y0080244D01*
X0178183Y0080504D01*
X0179012Y0080635D01*
X0179852Y0080635D01*
X0180682Y0080504D01*
X0181481Y0080244D01*
X0182230Y0079863D01*
X0182909Y0079369D01*
X0185707Y0076571D01*
X0182216Y0073080D01*
X0182782Y0072515D01*
X0186273Y0076006D01*
X0189071Y0073208D01*
X0189565Y0072528D01*
X0189946Y0071779D01*
X0190206Y0070980D01*
X0190337Y0070151D01*
X0190337Y0069311D01*
X0190206Y0068481D01*
X0189946Y0067682D01*
X0189565Y0066933D01*
X0189071Y0066254D01*
X0189057Y0066240D01*
X0182782Y0072515D01*
X0182216Y0071949D01*
X0181831Y0072334D02*
X0181470Y0072334D01*
X0181032Y0073133D02*
X0182164Y0073133D01*
X0182269Y0073133D02*
X0183400Y0073133D01*
X0183067Y0073931D02*
X0184199Y0073931D01*
X0183866Y0074730D02*
X0184997Y0074730D01*
X0184664Y0075528D02*
X0185796Y0075528D01*
X0185463Y0076327D02*
X0222292Y0076327D01*
X0222427Y0077125D02*
X0185153Y0077125D01*
X0184355Y0077924D02*
X0222563Y0077924D01*
X0222699Y0078722D02*
X0183556Y0078722D01*
X0182701Y0079521D02*
X0222835Y0079521D01*
X0222971Y0080319D02*
X0181250Y0080319D01*
X0177614Y0080319D02*
X0154312Y0080319D01*
X0154312Y0079521D02*
X0176164Y0079521D01*
X0176574Y0078722D02*
X0175443Y0078722D01*
X0175323Y0078722D02*
X0154312Y0078722D01*
X0154312Y0077924D02*
X0174780Y0077924D01*
X0174414Y0077125D02*
X0154312Y0077125D01*
X0154312Y0076327D02*
X0161468Y0076327D01*
X0159609Y0075528D02*
X0154312Y0075528D01*
X0154312Y0074730D02*
X0158811Y0074730D01*
X0158012Y0073931D02*
X0154312Y0073931D01*
X0154312Y0073133D02*
X0157214Y0073133D01*
X0156415Y0072334D02*
X0154312Y0072334D01*
X0154312Y0071536D02*
X0155617Y0071536D01*
X0154818Y0070737D02*
X0154312Y0070737D01*
X0147962Y0070737D02*
X0049702Y0070737D01*
X0049883Y0069939D02*
X0147962Y0069939D01*
X0147962Y0069140D02*
X0050064Y0069140D01*
X0050245Y0068342D02*
X0147962Y0068342D01*
X0147962Y0067543D02*
X0050445Y0067543D01*
X0050734Y0066745D02*
X0147962Y0066745D01*
X0147962Y0065946D02*
X0112898Y0065946D01*
X0112925Y0065942D02*
X0112167Y0066062D01*
X0112167Y0061520D01*
X0116709Y0061520D01*
X0116589Y0062278D01*
X0116348Y0063018D01*
X0115995Y0063711D01*
X0115538Y0064341D01*
X0114987Y0064891D01*
X0114358Y0065348D01*
X0113665Y0065702D01*
X0112925Y0065942D01*
X0112167Y0065946D02*
X0111367Y0065946D01*
X0111367Y0066062D02*
X0110609Y0065942D01*
X0109869Y0065702D01*
X0109176Y0065348D01*
X0108547Y0064891D01*
X0107996Y0064341D01*
X0107539Y0063711D01*
X0107186Y0063018D01*
X0106945Y0062278D01*
X0106825Y0061520D01*
X0111367Y0061520D01*
X0111367Y0060720D01*
X0112167Y0060720D01*
X0112167Y0056179D01*
X0112925Y0056299D01*
X0113665Y0056539D01*
X0114358Y0056893D01*
X0114987Y0057350D01*
X0115538Y0057900D01*
X0115995Y0058530D01*
X0116348Y0059223D01*
X0116589Y0059963D01*
X0116709Y0060720D01*
X0112167Y0060720D01*
X0112167Y0061520D01*
X0111367Y0061520D01*
X0111367Y0066062D01*
X0110636Y0065946D02*
X0094851Y0065946D01*
X0095208Y0065798D02*
X0093180Y0066639D01*
X0090984Y0066639D01*
X0088956Y0065798D01*
X0087404Y0064246D01*
X0086564Y0062218D01*
X0086564Y0060023D01*
X0087404Y0057995D01*
X0088956Y0056442D01*
X0090984Y0055602D01*
X0093180Y0055602D01*
X0095208Y0056442D01*
X0096760Y0057995D01*
X0097600Y0060023D01*
X0097600Y0062218D01*
X0096760Y0064246D01*
X0095208Y0065798D01*
X0095858Y0065148D02*
X0108900Y0065148D01*
X0108005Y0064349D02*
X0096657Y0064349D01*
X0097048Y0063551D02*
X0107457Y0063551D01*
X0107099Y0062752D02*
X0097379Y0062752D01*
X0097600Y0061954D02*
X0106894Y0061954D01*
X0106825Y0060720D02*
X0106945Y0059963D01*
X0107186Y0059223D01*
X0107539Y0058530D01*
X0107996Y0057900D01*
X0108547Y0057350D01*
X0109176Y0056893D01*
X0109869Y0056539D01*
X0110609Y0056299D01*
X0111367Y0056179D01*
X0111367Y0060720D01*
X0106825Y0060720D01*
X0106883Y0060357D02*
X0097600Y0060357D01*
X0097600Y0061155D02*
X0111367Y0061155D01*
X0111367Y0060357D02*
X0112167Y0060357D01*
X0112167Y0061155D02*
X0147962Y0061155D01*
X0147962Y0060357D02*
X0116651Y0060357D01*
X0116457Y0059558D02*
X0147962Y0059558D01*
X0147962Y0058760D02*
X0116112Y0058760D01*
X0115582Y0057961D02*
X0147962Y0057961D01*
X0147962Y0057163D02*
X0114730Y0057163D01*
X0113125Y0056364D02*
X0147962Y0056364D01*
X0147962Y0055566D02*
X0055043Y0055566D01*
X0054635Y0056364D02*
X0089145Y0056364D01*
X0088236Y0057163D02*
X0054226Y0057163D01*
X0053919Y0057961D02*
X0087437Y0057961D01*
X0087087Y0058760D02*
X0053630Y0058760D01*
X0053340Y0059558D02*
X0086756Y0059558D01*
X0086564Y0060357D02*
X0053051Y0060357D01*
X0052761Y0061155D02*
X0086564Y0061155D01*
X0086564Y0061954D02*
X0052472Y0061954D01*
X0052182Y0062752D02*
X0086785Y0062752D01*
X0087116Y0063551D02*
X0051893Y0063551D01*
X0051603Y0064349D02*
X0087507Y0064349D01*
X0088305Y0065148D02*
X0051313Y0065148D01*
X0051024Y0065946D02*
X0089313Y0065946D01*
X0097408Y0059558D02*
X0107077Y0059558D01*
X0107422Y0058760D02*
X0097077Y0058760D01*
X0096726Y0057961D02*
X0107952Y0057961D01*
X0108804Y0057163D02*
X0095928Y0057163D01*
X0095019Y0056364D02*
X0110409Y0056364D01*
X0111367Y0056364D02*
X0112167Y0056364D01*
X0112167Y0057163D02*
X0111367Y0057163D01*
X0111367Y0057961D02*
X0112167Y0057961D01*
X0112167Y0058760D02*
X0111367Y0058760D01*
X0111367Y0059558D02*
X0112167Y0059558D01*
X0112167Y0061954D02*
X0111367Y0061954D01*
X0111367Y0062752D02*
X0112167Y0062752D01*
X0112167Y0063551D02*
X0111367Y0063551D01*
X0111367Y0064349D02*
X0112167Y0064349D01*
X0112167Y0065148D02*
X0111367Y0065148D01*
X0114634Y0065148D02*
X0147962Y0065148D01*
X0147962Y0064349D02*
X0115529Y0064349D01*
X0116077Y0063551D02*
X0147962Y0063551D01*
X0147962Y0062752D02*
X0116435Y0062752D01*
X0116640Y0061954D02*
X0147962Y0061954D01*
X0154312Y0059558D02*
X0155125Y0059558D01*
X0154312Y0058760D02*
X0178647Y0058760D01*
X0176934Y0057961D02*
X0154312Y0057961D01*
X0154312Y0057163D02*
X0176020Y0057163D01*
X0175221Y0056364D02*
X0154312Y0056364D01*
X0154312Y0055566D02*
X0174423Y0055566D01*
X0173804Y0054767D02*
X0154312Y0054767D01*
X0147962Y0054767D02*
X0055452Y0054767D01*
X0055860Y0053969D02*
X0147962Y0053969D01*
X0147962Y0053170D02*
X0056269Y0053170D01*
X0056677Y0052372D02*
X0147962Y0052372D01*
X0154312Y0042789D02*
X0173307Y0042789D01*
X0176614Y0050775D02*
X0176665Y0050775D01*
X0177745Y0050775D02*
X0177797Y0050775D01*
X0182332Y0048379D02*
X0211948Y0048379D01*
X0212430Y0049177D02*
X0183130Y0049177D01*
X0183929Y0049976D02*
X0212913Y0049976D01*
X0213395Y0050775D02*
X0184545Y0050775D01*
X0184947Y0051573D02*
X0213878Y0051573D01*
X0214242Y0052372D02*
X0185201Y0052372D01*
X0185326Y0053170D02*
X0214598Y0053170D01*
X0214953Y0053969D02*
X0185326Y0053969D01*
X0185205Y0054767D02*
X0215308Y0054767D01*
X0215663Y0055566D02*
X0184957Y0055566D01*
X0184563Y0056364D02*
X0216018Y0056364D01*
X0219440Y0065148D02*
X0187761Y0065148D01*
X0188219Y0065946D02*
X0219681Y0065946D01*
X0219923Y0066745D02*
X0189428Y0066745D01*
X0188552Y0066745D02*
X0187420Y0066745D01*
X0187753Y0067543D02*
X0186622Y0067543D01*
X0186955Y0068342D02*
X0185823Y0068342D01*
X0186156Y0069140D02*
X0185025Y0069140D01*
X0185358Y0069939D02*
X0184226Y0069939D01*
X0184559Y0070737D02*
X0183428Y0070737D01*
X0183761Y0071536D02*
X0182629Y0071536D01*
X0182602Y0072334D02*
X0182962Y0072334D01*
X0181365Y0073931D02*
X0180234Y0073931D01*
X0180567Y0074730D02*
X0179435Y0074730D01*
X0179768Y0075528D02*
X0178637Y0075528D01*
X0178970Y0076327D02*
X0177838Y0076327D01*
X0178171Y0077125D02*
X0177040Y0077125D01*
X0177373Y0077924D02*
X0176241Y0077924D01*
X0174192Y0076327D02*
X0164547Y0076327D01*
X0166405Y0075528D02*
X0174095Y0075528D01*
X0174119Y0074730D02*
X0167204Y0074730D01*
X0168003Y0073931D02*
X0174265Y0073931D01*
X0174546Y0073133D02*
X0168343Y0073133D01*
X0168674Y0072334D02*
X0174989Y0072334D01*
X0175647Y0071536D02*
X0168919Y0071536D01*
X0168919Y0070737D02*
X0176446Y0070737D01*
X0177244Y0069939D02*
X0168919Y0069939D01*
X0168816Y0069140D02*
X0178043Y0069140D01*
X0186750Y0075528D02*
X0222156Y0075528D01*
X0222020Y0074730D02*
X0187549Y0074730D01*
X0188347Y0073931D02*
X0221884Y0073931D01*
X0221748Y0073133D02*
X0189125Y0073133D01*
X0189663Y0072334D02*
X0221612Y0072334D01*
X0221371Y0071536D02*
X0190025Y0071536D01*
X0190244Y0070737D02*
X0221129Y0070737D01*
X0220888Y0069939D02*
X0190337Y0069939D01*
X0190310Y0069140D02*
X0220647Y0069140D01*
X0220405Y0068342D02*
X0190161Y0068342D01*
X0189875Y0067543D02*
X0220164Y0067543D01*
X0223107Y0081118D02*
X0154312Y0081118D01*
X0154312Y0081916D02*
X0223242Y0081916D01*
X0223378Y0082715D02*
X0154312Y0082715D01*
X0154312Y0083513D02*
X0223489Y0083513D01*
X0223548Y0084312D02*
X0154312Y0084312D01*
X0154312Y0085110D02*
X0210629Y0085110D01*
X0209442Y0085602D02*
X0212483Y0084342D01*
X0215775Y0084342D01*
X0218816Y0085602D01*
X0221144Y0087930D01*
X0222403Y0090971D01*
X0222403Y0094262D01*
X0221144Y0097303D01*
X0218816Y0099631D01*
X0215775Y0100891D01*
X0212483Y0100891D01*
X0209442Y0099631D01*
X0207115Y0097303D01*
X0205855Y0094262D01*
X0205855Y0090971D01*
X0207115Y0087930D01*
X0209442Y0085602D01*
X0209135Y0085909D02*
X0154312Y0085909D01*
X0154312Y0086708D02*
X0208337Y0086708D01*
X0207538Y0087506D02*
X0154312Y0087506D01*
X0154312Y0088305D02*
X0206960Y0088305D01*
X0206629Y0089103D02*
X0154312Y0089103D01*
X0154312Y0089902D02*
X0206298Y0089902D01*
X0205967Y0090700D02*
X0154312Y0090700D01*
X0154312Y0091499D02*
X0205855Y0091499D01*
X0205855Y0092297D02*
X0154312Y0092297D01*
X0154312Y0093096D02*
X0205855Y0093096D01*
X0205855Y0093894D02*
X0154312Y0093894D01*
X0154312Y0094693D02*
X0206033Y0094693D01*
X0206364Y0095491D02*
X0154312Y0095491D01*
X0154312Y0096290D02*
X0206695Y0096290D01*
X0207026Y0097088D02*
X0162363Y0097088D01*
X0162946Y0097330D02*
X0161747Y0096833D01*
X0160448Y0096833D01*
X0159249Y0097330D01*
X0158331Y0098248D01*
X0157834Y0099448D01*
X0157834Y0100746D01*
X0158331Y0101946D01*
X0159249Y0102864D01*
X0160448Y0103361D01*
X0161003Y0103361D01*
X0164313Y0106671D01*
X0164313Y0135533D01*
X0163921Y0135925D01*
X0163424Y0137125D01*
X0163424Y0138423D01*
X0163921Y0139623D01*
X0164839Y0140541D01*
X0166039Y0141038D01*
X0167337Y0141038D01*
X0168537Y0140541D01*
X0169455Y0139623D01*
X0169952Y0138423D01*
X0169952Y0137125D01*
X0169455Y0135925D01*
X0169063Y0135533D01*
X0169063Y0104704D01*
X0167672Y0103313D01*
X0164361Y0100002D01*
X0164361Y0099448D01*
X0163865Y0098248D01*
X0162946Y0097330D01*
X0163503Y0097887D02*
X0207698Y0097887D01*
X0208497Y0098685D02*
X0164046Y0098685D01*
X0164361Y0099484D02*
X0209295Y0099484D01*
X0211015Y0100282D02*
X0164642Y0100282D01*
X0165440Y0101081D02*
X0223538Y0101081D01*
X0223478Y0101879D02*
X0166239Y0101879D01*
X0167037Y0102678D02*
X0223348Y0102678D01*
X0223214Y0103476D02*
X0167836Y0103476D01*
X0168634Y0104275D02*
X0223079Y0104275D01*
X0222944Y0105073D02*
X0169063Y0105073D01*
X0169063Y0105872D02*
X0222809Y0105872D01*
X0222675Y0106670D02*
X0169063Y0106670D01*
X0169063Y0107469D02*
X0222540Y0107469D01*
X0222405Y0108267D02*
X0169063Y0108267D01*
X0169063Y0109066D02*
X0222271Y0109066D01*
X0222136Y0109864D02*
X0169063Y0109864D01*
X0169063Y0110663D02*
X0222001Y0110663D01*
X0221866Y0111461D02*
X0169063Y0111461D01*
X0169063Y0112260D02*
X0221732Y0112260D01*
X0221553Y0113058D02*
X0169063Y0113058D01*
X0169063Y0113857D02*
X0221314Y0113857D01*
X0221075Y0114655D02*
X0169063Y0114655D01*
X0169063Y0115454D02*
X0220836Y0115454D01*
X0220597Y0116252D02*
X0169063Y0116252D01*
X0169063Y0117051D02*
X0220358Y0117051D01*
X0220119Y0117849D02*
X0169063Y0117849D01*
X0169063Y0118648D02*
X0219880Y0118648D01*
X0219641Y0119446D02*
X0169063Y0119446D01*
X0169063Y0120245D02*
X0219402Y0120245D01*
X0219163Y0121044D02*
X0169063Y0121044D01*
X0169063Y0121842D02*
X0218924Y0121842D01*
X0218685Y0122641D02*
X0169063Y0122641D01*
X0169063Y0123439D02*
X0218414Y0123439D01*
X0218062Y0124238D02*
X0169063Y0124238D01*
X0169063Y0125036D02*
X0217711Y0125036D01*
X0217360Y0125835D02*
X0169063Y0125835D01*
X0169063Y0126633D02*
X0217008Y0126633D01*
X0216657Y0127432D02*
X0169063Y0127432D01*
X0169063Y0128230D02*
X0216306Y0128230D01*
X0215955Y0129029D02*
X0169063Y0129029D01*
X0169063Y0129827D02*
X0215603Y0129827D01*
X0215252Y0130626D02*
X0169063Y0130626D01*
X0169063Y0131424D02*
X0214901Y0131424D01*
X0214549Y0132223D02*
X0169063Y0132223D01*
X0169063Y0133021D02*
X0214198Y0133021D01*
X0213754Y0133820D02*
X0169063Y0133820D01*
X0169063Y0134618D02*
X0213277Y0134618D01*
X0212800Y0135417D02*
X0169063Y0135417D01*
X0169575Y0136215D02*
X0212324Y0136215D01*
X0211847Y0137014D02*
X0169906Y0137014D01*
X0169952Y0137812D02*
X0211371Y0137812D01*
X0210894Y0138611D02*
X0169874Y0138611D01*
X0169544Y0139409D02*
X0210418Y0139409D01*
X0209941Y0140208D02*
X0168870Y0140208D01*
X0167413Y0141006D02*
X0209464Y0141006D01*
X0208988Y0141805D02*
X0154312Y0141805D01*
X0154312Y0142603D02*
X0208511Y0142603D01*
X0207893Y0143402D02*
X0154312Y0143402D01*
X0154312Y0144200D02*
X0207271Y0144200D01*
X0206649Y0144999D02*
X0154076Y0144999D01*
X0153627Y0145797D02*
X0206027Y0145797D01*
X0205405Y0146596D02*
X0152829Y0146596D01*
X0152030Y0147394D02*
X0204783Y0147394D01*
X0204161Y0148193D02*
X0151232Y0148193D01*
X0150433Y0148991D02*
X0203539Y0148991D01*
X0202917Y0149790D02*
X0149635Y0149790D01*
X0148606Y0150588D02*
X0202295Y0150588D01*
X0201645Y0151387D02*
X0140164Y0151387D01*
X0139365Y0152185D02*
X0200847Y0152185D01*
X0200048Y0152984D02*
X0138567Y0152984D01*
X0137894Y0153782D02*
X0199250Y0153782D01*
X0198451Y0154581D02*
X0136894Y0154581D01*
X0133884Y0154581D02*
X0122610Y0154581D01*
X0122610Y0155379D02*
X0197653Y0155379D01*
X0196854Y0156178D02*
X0122610Y0156178D01*
X0122610Y0156977D02*
X0196056Y0156977D01*
X0195257Y0157775D02*
X0122610Y0157775D01*
X0122610Y0158574D02*
X0194459Y0158574D01*
X0193555Y0159372D02*
X0122610Y0159372D01*
X0122610Y0160171D02*
X0192530Y0160171D01*
X0191504Y0160969D02*
X0122610Y0160969D01*
X0122610Y0161768D02*
X0190479Y0161768D01*
X0189454Y0162566D02*
X0122610Y0162566D01*
X0122610Y0163365D02*
X0188429Y0163365D01*
X0187404Y0164163D02*
X0122343Y0164163D01*
X0122610Y0153782D02*
X0132884Y0153782D01*
X0132400Y0152984D02*
X0122610Y0152984D01*
X0122610Y0152185D02*
X0132125Y0152185D01*
X0132125Y0151387D02*
X0122610Y0151387D01*
X0122610Y0150588D02*
X0132305Y0150588D01*
X0132655Y0149790D02*
X0122610Y0149790D01*
X0122610Y0148991D02*
X0133454Y0148991D01*
X0134378Y0148193D02*
X0122610Y0148193D01*
X0122610Y0147394D02*
X0135176Y0147394D01*
X0135975Y0146596D02*
X0122610Y0146596D01*
X0122610Y0145797D02*
X0136773Y0145797D01*
X0137635Y0144999D02*
X0122610Y0144999D01*
X0122610Y0144200D02*
X0146244Y0144200D01*
X0147043Y0143402D02*
X0122610Y0143402D01*
X0122610Y0142603D02*
X0147842Y0142603D01*
X0147962Y0141805D02*
X0122610Y0141805D01*
X0122610Y0141006D02*
X0147962Y0141006D01*
X0147962Y0140208D02*
X0122610Y0140208D01*
X0122610Y0139409D02*
X0147962Y0139409D01*
X0147962Y0138611D02*
X0122610Y0138611D01*
X0122610Y0137812D02*
X0147962Y0137812D01*
X0147962Y0137014D02*
X0122610Y0137014D01*
X0122610Y0136215D02*
X0147962Y0136215D01*
X0147962Y0135417D02*
X0122610Y0135417D01*
X0122610Y0134618D02*
X0147962Y0134618D01*
X0147962Y0133820D02*
X0122610Y0133820D01*
X0122610Y0133021D02*
X0147962Y0133021D01*
X0147962Y0132223D02*
X0122610Y0132223D01*
X0122610Y0131424D02*
X0147962Y0131424D01*
X0147962Y0130626D02*
X0122610Y0130626D01*
X0122610Y0129827D02*
X0147962Y0129827D01*
X0147962Y0129029D02*
X0122610Y0129029D01*
X0122610Y0128230D02*
X0147962Y0128230D01*
X0147962Y0127432D02*
X0122610Y0127432D01*
X0122610Y0126633D02*
X0147962Y0126633D01*
X0147962Y0125835D02*
X0122610Y0125835D01*
X0122610Y0125036D02*
X0147962Y0125036D01*
X0147962Y0124238D02*
X0122610Y0124238D01*
X0122610Y0123439D02*
X0147962Y0123439D01*
X0147962Y0122641D02*
X0122610Y0122641D01*
X0122610Y0121842D02*
X0147962Y0121842D01*
X0147962Y0121044D02*
X0122610Y0121044D01*
X0122610Y0120245D02*
X0147962Y0120245D01*
X0147962Y0119446D02*
X0143726Y0119446D01*
X0144507Y0118648D02*
X0147962Y0118648D01*
X0147962Y0117849D02*
X0144838Y0117849D01*
X0144991Y0117051D02*
X0147962Y0117051D01*
X0147962Y0116252D02*
X0144991Y0116252D01*
X0144691Y0115454D02*
X0147962Y0115454D01*
X0147962Y0114655D02*
X0144170Y0114655D01*
X0143081Y0113857D02*
X0147962Y0113857D01*
X0147962Y0113058D02*
X0049293Y0113058D01*
X0049066Y0112260D02*
X0147962Y0112260D01*
X0147962Y0111461D02*
X0048842Y0111461D01*
X0048720Y0110663D02*
X0147962Y0110663D01*
X0147962Y0109864D02*
X0048597Y0109864D01*
X0048475Y0109066D02*
X0147962Y0109066D01*
X0147962Y0108267D02*
X0048352Y0108267D01*
X0048230Y0107469D02*
X0147962Y0107469D01*
X0147962Y0106670D02*
X0048107Y0106670D01*
X0047985Y0105872D02*
X0147962Y0105872D01*
X0147962Y0105073D02*
X0047862Y0105073D01*
X0047740Y0104275D02*
X0147962Y0104275D01*
X0147962Y0103476D02*
X0047617Y0103476D01*
X0047495Y0102678D02*
X0147962Y0102678D01*
X0147962Y0101879D02*
X0047372Y0101879D01*
X0047250Y0101081D02*
X0147962Y0101081D01*
X0147962Y0100282D02*
X0059763Y0100282D01*
X0058295Y0100891D02*
X0061336Y0099631D01*
X0063663Y0097303D01*
X0064923Y0094262D01*
X0064923Y0090971D01*
X0063663Y0087930D01*
X0061336Y0085602D01*
X0058295Y0084342D01*
X0055003Y0084342D01*
X0051962Y0085602D01*
X0049635Y0087930D01*
X0048375Y0090971D01*
X0048375Y0094262D01*
X0049635Y0097303D01*
X0051962Y0099631D01*
X0055003Y0100891D01*
X0058295Y0100891D01*
X0061483Y0099484D02*
X0147962Y0099484D01*
X0147962Y0098685D02*
X0062281Y0098685D01*
X0063080Y0097887D02*
X0147962Y0097887D01*
X0147962Y0097088D02*
X0063752Y0097088D01*
X0064083Y0096290D02*
X0147962Y0096290D01*
X0147962Y0095491D02*
X0064414Y0095491D01*
X0064745Y0094693D02*
X0147962Y0094693D01*
X0147962Y0093894D02*
X0064923Y0093894D01*
X0064923Y0093096D02*
X0147962Y0093096D01*
X0147962Y0092297D02*
X0064923Y0092297D01*
X0064923Y0091499D02*
X0147962Y0091499D01*
X0147962Y0090700D02*
X0064811Y0090700D01*
X0064480Y0089902D02*
X0147962Y0089902D01*
X0147962Y0089103D02*
X0064149Y0089103D01*
X0063819Y0088305D02*
X0147962Y0088305D01*
X0147962Y0087506D02*
X0063240Y0087506D01*
X0062441Y0086708D02*
X0147962Y0086708D01*
X0147962Y0085909D02*
X0061643Y0085909D01*
X0060149Y0085110D02*
X0147962Y0085110D01*
X0147962Y0084312D02*
X0047376Y0084312D01*
X0047454Y0083513D02*
X0147962Y0083513D01*
X0147962Y0082715D02*
X0047533Y0082715D01*
X0047611Y0081916D02*
X0147962Y0081916D01*
X0147962Y0081118D02*
X0047689Y0081118D01*
X0047768Y0080319D02*
X0147962Y0080319D01*
X0147962Y0079521D02*
X0047846Y0079521D01*
X0047924Y0078722D02*
X0147962Y0078722D01*
X0147962Y0077924D02*
X0048073Y0077924D01*
X0048254Y0077125D02*
X0147962Y0077125D01*
X0147962Y0076327D02*
X0048435Y0076327D01*
X0048616Y0075528D02*
X0147962Y0075528D01*
X0147962Y0074730D02*
X0048797Y0074730D01*
X0048978Y0073931D02*
X0147962Y0073931D01*
X0147962Y0073133D02*
X0049159Y0073133D01*
X0049340Y0072334D02*
X0147962Y0072334D01*
X0147962Y0071536D02*
X0049521Y0071536D01*
X0047297Y0085110D02*
X0053149Y0085110D01*
X0051655Y0085909D02*
X0047219Y0085909D01*
X0047141Y0086708D02*
X0050857Y0086708D01*
X0050058Y0087506D02*
X0047062Y0087506D01*
X0046984Y0088305D02*
X0049479Y0088305D01*
X0049148Y0089103D02*
X0046906Y0089103D01*
X0046879Y0089902D02*
X0048818Y0089902D01*
X0048487Y0090700D02*
X0046901Y0090700D01*
X0046922Y0091499D02*
X0048375Y0091499D01*
X0048375Y0092297D02*
X0046944Y0092297D01*
X0046966Y0093096D02*
X0048375Y0093096D01*
X0048375Y0093894D02*
X0046988Y0093894D01*
X0047009Y0094693D02*
X0048553Y0094693D01*
X0048884Y0095491D02*
X0047031Y0095491D01*
X0047053Y0096290D02*
X0049215Y0096290D01*
X0049545Y0097088D02*
X0047074Y0097088D01*
X0047096Y0097887D02*
X0050218Y0097887D01*
X0051016Y0098685D02*
X0047118Y0098685D01*
X0047139Y0099484D02*
X0051815Y0099484D01*
X0053535Y0100282D02*
X0047161Y0100282D01*
X0049520Y0113857D02*
X0140374Y0113857D01*
X0154312Y0113857D02*
X0164313Y0113857D01*
X0164313Y0114655D02*
X0154312Y0114655D01*
X0154312Y0115454D02*
X0164313Y0115454D01*
X0164313Y0116252D02*
X0154312Y0116252D01*
X0154312Y0117051D02*
X0164313Y0117051D01*
X0164313Y0117849D02*
X0154312Y0117849D01*
X0154312Y0118648D02*
X0164313Y0118648D01*
X0164313Y0119446D02*
X0154312Y0119446D01*
X0154312Y0120245D02*
X0164313Y0120245D01*
X0164313Y0121044D02*
X0154312Y0121044D01*
X0154312Y0121842D02*
X0164313Y0121842D01*
X0164313Y0122641D02*
X0154312Y0122641D01*
X0154312Y0123439D02*
X0164313Y0123439D01*
X0164313Y0124238D02*
X0154312Y0124238D01*
X0154312Y0125036D02*
X0164313Y0125036D01*
X0164313Y0125835D02*
X0154312Y0125835D01*
X0154312Y0126633D02*
X0164313Y0126633D01*
X0164313Y0127432D02*
X0154312Y0127432D01*
X0154312Y0128230D02*
X0164313Y0128230D01*
X0164313Y0129029D02*
X0154312Y0129029D01*
X0154312Y0129827D02*
X0164313Y0129827D01*
X0164313Y0130626D02*
X0154312Y0130626D01*
X0154312Y0131424D02*
X0164313Y0131424D01*
X0164313Y0132223D02*
X0154312Y0132223D01*
X0154312Y0133021D02*
X0164313Y0133021D01*
X0164313Y0133820D02*
X0154312Y0133820D01*
X0154312Y0134618D02*
X0164313Y0134618D01*
X0164313Y0135417D02*
X0154312Y0135417D01*
X0154312Y0136215D02*
X0163801Y0136215D01*
X0163470Y0137014D02*
X0154312Y0137014D01*
X0154312Y0137812D02*
X0163424Y0137812D01*
X0163502Y0138611D02*
X0154312Y0138611D01*
X0154312Y0139409D02*
X0163833Y0139409D01*
X0164506Y0140208D02*
X0154312Y0140208D01*
X0154312Y0141006D02*
X0165963Y0141006D01*
X0166688Y0137774D02*
X0166688Y0105687D01*
X0161098Y0100097D01*
X0159833Y0097088D02*
X0154312Y0097088D01*
X0154312Y0097887D02*
X0158692Y0097887D01*
X0158150Y0098685D02*
X0154312Y0098685D01*
X0154312Y0099484D02*
X0157834Y0099484D01*
X0157834Y0100282D02*
X0154312Y0100282D01*
X0154312Y0101081D02*
X0157973Y0101081D01*
X0158303Y0101879D02*
X0154312Y0101879D01*
X0154312Y0102678D02*
X0159063Y0102678D01*
X0161119Y0103476D02*
X0154312Y0103476D01*
X0154312Y0104275D02*
X0161917Y0104275D01*
X0162716Y0105073D02*
X0154312Y0105073D01*
X0154312Y0105872D02*
X0163514Y0105872D01*
X0164313Y0106670D02*
X0154312Y0106670D01*
X0154312Y0107469D02*
X0164313Y0107469D01*
X0164313Y0108267D02*
X0154312Y0108267D01*
X0154312Y0109066D02*
X0164313Y0109066D01*
X0164313Y0109864D02*
X0154312Y0109864D01*
X0154312Y0110663D02*
X0164313Y0110663D01*
X0164313Y0111461D02*
X0154312Y0111461D01*
X0154312Y0112260D02*
X0164313Y0112260D01*
X0164313Y0113058D02*
X0154312Y0113058D01*
X0186379Y0164962D02*
X0084356Y0164962D01*
X0085500Y0165760D02*
X0185340Y0165760D01*
X0184002Y0166559D02*
X0086821Y0166559D01*
X0088143Y0167357D02*
X0182664Y0167357D01*
X0181326Y0168156D02*
X0089464Y0168156D01*
X0090786Y0168954D02*
X0179988Y0168954D01*
X0178650Y0169753D02*
X0092107Y0169753D01*
X0093429Y0170551D02*
X0177313Y0170551D01*
X0175966Y0171350D02*
X0094874Y0171350D01*
X0096669Y0172148D02*
X0174151Y0172148D01*
X0172336Y0172947D02*
X0098464Y0172947D01*
X0100259Y0173745D02*
X0170521Y0173745D01*
X0168706Y0174544D02*
X0102055Y0174544D01*
X0103850Y0175342D02*
X0166891Y0175342D01*
X0164651Y0176141D02*
X0106178Y0176141D01*
X0108820Y0176939D02*
X0161983Y0176939D01*
X0159314Y0177738D02*
X0111462Y0177738D01*
X0114103Y0178536D02*
X0156646Y0178536D01*
X0152805Y0179335D02*
X0118017Y0179335D01*
X0122711Y0180133D02*
X0148073Y0180133D01*
X0141621Y0180932D02*
X0129168Y0180932D01*
X0132893Y0181730D02*
X0137885Y0181730D01*
X0107830Y0240254D02*
X0070428Y0277656D01*
X0070428Y0338679D01*
X0088145Y0356396D01*
X0159011Y0356396D01*
X0166885Y0364270D01*
X0166885Y0380707D01*
X0159011Y0371455D02*
X0159011Y0364270D01*
X0155074Y0360333D01*
X0086176Y0360333D01*
X0066491Y0340648D01*
X0066491Y0275687D01*
X0101924Y0240254D01*
X0107830Y0271750D02*
X0101924Y0277656D01*
X0084208Y0277656D01*
X0074365Y0287498D01*
X0074365Y0336711D01*
X0090113Y0352459D01*
X0127515Y0352459D01*
X0135389Y0364270D02*
X0135389Y0380707D01*
X0151137Y0380707D02*
X0151137Y0364270D01*
X0188539Y0318994D02*
X0188539Y0259939D01*
X0170822Y0242223D01*
X0166885Y0242223D01*
X0264506Y0275609D02*
X0261583Y0285723D01*
X0260077Y0294913D01*
X0263962Y0298799D01*
X0264560Y0298201D01*
X0267602Y0296941D01*
X0270893Y0296941D01*
X0273934Y0298201D01*
X0276262Y0300528D01*
X0277521Y0303569D01*
X0277521Y0306861D01*
X0276346Y0309699D01*
X0276592Y0309699D01*
X0337040Y0370146D01*
X0337040Y0366645D01*
X0337136Y0366289D01*
X0337320Y0365969D01*
X0337581Y0365709D01*
X0337900Y0365525D01*
X0338256Y0365429D01*
X0339713Y0365429D01*
X0339713Y0371055D01*
X0340513Y0371055D01*
X0340513Y0365429D01*
X0341971Y0365429D01*
X0342327Y0365525D01*
X0342646Y0365709D01*
X0342907Y0365969D01*
X0343091Y0366289D01*
X0343187Y0366645D01*
X0343187Y0371055D01*
X0340513Y0371055D01*
X0340513Y0371855D01*
X0343187Y0371855D01*
X0343187Y0376265D01*
X0343091Y0376621D01*
X0342907Y0376941D01*
X0342646Y0377201D01*
X0342327Y0377386D01*
X0341971Y0377481D01*
X0340539Y0377481D01*
X0340232Y0377788D01*
X0333039Y0384980D01*
X0333039Y0392415D01*
X0337345Y0392972D01*
X0337345Y0385592D01*
X0337814Y0385124D01*
X0344339Y0385124D01*
X0344339Y0375263D01*
X0344413Y0375190D01*
X0344413Y0366696D01*
X0341625Y0363908D01*
X0337080Y0363908D01*
X0335766Y0363364D01*
X0334760Y0362358D01*
X0322163Y0349761D01*
X0297162Y0324760D01*
X0296617Y0323446D01*
X0296617Y0322024D01*
X0297162Y0320710D01*
X0298167Y0319704D01*
X0299481Y0319160D01*
X0299843Y0319160D01*
X0315488Y0303514D01*
X0315488Y0274879D01*
X0314999Y0273699D01*
X0314999Y0272400D01*
X0315496Y0271201D01*
X0316414Y0270283D01*
X0316643Y0270188D01*
X0308890Y0270188D01*
X0308498Y0270580D01*
X0307298Y0271077D01*
X0306000Y0271077D01*
X0304800Y0270580D01*
X0303882Y0269662D01*
X0303385Y0268463D01*
X0303385Y0267164D01*
X0303882Y0265965D01*
X0304800Y0265046D01*
X0306000Y0264550D01*
X0307298Y0264550D01*
X0308498Y0265046D01*
X0308890Y0265439D01*
X0321191Y0265439D01*
X0301409Y0245656D01*
X0301409Y0246730D01*
X0300912Y0247930D01*
X0300520Y0248322D01*
X0300520Y0255136D01*
X0287157Y0268499D01*
X0287157Y0269053D01*
X0286660Y0270253D01*
X0285742Y0271171D01*
X0284542Y0271668D01*
X0283244Y0271668D01*
X0282044Y0271171D01*
X0281126Y0270253D01*
X0280629Y0269053D01*
X0280629Y0267755D01*
X0281126Y0266555D01*
X0282044Y0265637D01*
X0283244Y0265140D01*
X0283798Y0265140D01*
X0293807Y0255132D01*
X0292989Y0254793D01*
X0292071Y0253875D01*
X0291574Y0252675D01*
X0291574Y0251377D01*
X0292071Y0250177D01*
X0292463Y0249785D01*
X0292463Y0239931D01*
X0299953Y0232441D01*
X0303232Y0232441D01*
X0303540Y0232133D01*
X0304740Y0231636D01*
X0306038Y0231636D01*
X0307238Y0232133D01*
X0308156Y0233051D01*
X0308653Y0234251D01*
X0308653Y0235549D01*
X0308156Y0236749D01*
X0307238Y0237667D01*
X0306038Y0238164D01*
X0305097Y0238164D01*
X0304770Y0238953D01*
X0304612Y0239111D01*
X0325511Y0260010D01*
X0325511Y0259928D01*
X0326008Y0258729D01*
X0326926Y0257811D01*
X0328126Y0257314D01*
X0328501Y0257314D01*
X0328861Y0257165D01*
X0336512Y0257165D01*
X0337693Y0256676D01*
X0338991Y0256676D01*
X0340191Y0257172D01*
X0341109Y0258091D01*
X0341606Y0259290D01*
X0341606Y0260589D01*
X0341109Y0261788D01*
X0340191Y0262706D01*
X0338991Y0263203D01*
X0337693Y0263203D01*
X0336512Y0262714D01*
X0331254Y0262714D01*
X0330624Y0263344D01*
X0329424Y0263841D01*
X0329342Y0263841D01*
X0358814Y0293313D01*
X0360205Y0294704D01*
X0360205Y0314140D01*
X0361099Y0313770D01*
X0381455Y0293414D01*
X0382475Y0292991D01*
X0392181Y0292991D01*
X0393362Y0292502D01*
X0394660Y0292502D01*
X0395860Y0292999D01*
X0396778Y0293917D01*
X0397275Y0295117D01*
X0397275Y0296415D01*
X0396778Y0297615D01*
X0395860Y0298533D01*
X0394660Y0299030D01*
X0393362Y0299030D01*
X0392181Y0298541D01*
X0384176Y0298541D01*
X0365023Y0317694D01*
X0364534Y0318875D01*
X0363616Y0319793D01*
X0362416Y0320290D01*
X0361118Y0320290D01*
X0359918Y0319793D01*
X0359859Y0319733D01*
X0358814Y0320779D01*
X0342685Y0336907D01*
X0342685Y0344273D01*
X0343077Y0344665D01*
X0343312Y0345233D01*
X0343920Y0344625D01*
X0343920Y0341160D01*
X0368460Y0316620D01*
X0394248Y0316620D01*
X0400272Y0310596D01*
X0410904Y0310596D01*
X0411296Y0310204D01*
X0412496Y0309707D01*
X0413794Y0309707D01*
X0414994Y0310204D01*
X0415912Y0311122D01*
X0416409Y0312322D01*
X0416409Y0313620D01*
X0415912Y0314820D01*
X0414994Y0315738D01*
X0413794Y0316235D01*
X0412496Y0316235D01*
X0411296Y0315738D01*
X0410904Y0315346D01*
X0402239Y0315346D01*
X0397606Y0319978D01*
X0397429Y0320156D01*
X0399050Y0321777D01*
X0400441Y0323168D01*
X0400441Y0326515D01*
X0400655Y0326729D01*
X0406967Y0326729D01*
X0407359Y0326337D01*
X0408559Y0325840D01*
X0409857Y0325840D01*
X0411057Y0326337D01*
X0411975Y0327255D01*
X0412300Y0328041D01*
X0412318Y0328034D01*
X0416295Y0328034D01*
X0416402Y0327776D01*
X0417320Y0326857D01*
X0418519Y0326361D01*
X0419818Y0326361D01*
X0421017Y0326857D01*
X0421935Y0327776D01*
X0422432Y0328975D01*
X0422432Y0330274D01*
X0421935Y0331473D01*
X0421017Y0332391D01*
X0419818Y0332888D01*
X0419409Y0332888D01*
X0418696Y0333183D01*
X0413897Y0333183D01*
X0412832Y0334248D01*
X0411885Y0334640D01*
X0397201Y0334640D01*
X0397421Y0334731D01*
X0401294Y0338605D01*
X0401668Y0338605D01*
X0402868Y0339102D01*
X0403786Y0340020D01*
X0404283Y0341219D01*
X0404283Y0342518D01*
X0403786Y0343717D01*
X0402868Y0344635D01*
X0401668Y0345132D01*
X0400370Y0345132D01*
X0399170Y0344635D01*
X0398252Y0343717D01*
X0397755Y0342518D01*
X0397755Y0342065D01*
X0394994Y0339304D01*
X0379813Y0339304D01*
X0379521Y0339596D01*
X0378322Y0340093D01*
X0377023Y0340093D01*
X0375824Y0339596D01*
X0374906Y0338678D01*
X0374409Y0337478D01*
X0374409Y0336180D01*
X0374906Y0334980D01*
X0375824Y0334062D01*
X0377023Y0333565D01*
X0378322Y0333565D01*
X0379521Y0334062D01*
X0379813Y0334354D01*
X0391155Y0334354D01*
X0390899Y0334248D01*
X0390175Y0333524D01*
X0387000Y0330349D01*
X0368897Y0330349D01*
X0356783Y0342463D01*
X0356783Y0359700D01*
X0361257Y0364174D01*
X0361981Y0364898D01*
X0362205Y0365439D01*
X0368004Y0365439D01*
X0368269Y0365704D01*
X0369118Y0364854D01*
X0374101Y0364854D01*
X0375258Y0366011D01*
X0375258Y0371043D01*
X0388342Y0357958D01*
X0408027Y0357958D01*
X0415590Y0350396D01*
X0415590Y0349841D01*
X0416087Y0348642D01*
X0417005Y0347724D01*
X0418204Y0347227D01*
X0419503Y0347227D01*
X0420702Y0347724D01*
X0421621Y0348642D01*
X0422117Y0349841D01*
X0422117Y0351140D01*
X0421621Y0352339D01*
X0420702Y0353257D01*
X0419503Y0353754D01*
X0418948Y0353754D01*
X0411386Y0361317D01*
X0409995Y0362708D01*
X0390310Y0362708D01*
X0388163Y0364854D01*
X0389849Y0364854D01*
X0391006Y0366011D01*
X0391006Y0376899D01*
X0390132Y0377772D01*
X0390132Y0378877D01*
X0390621Y0380058D01*
X0390621Y0381356D01*
X0390132Y0382537D01*
X0390132Y0382924D01*
X0395819Y0379766D01*
X0404885Y0373100D01*
X0413034Y0365338D01*
X0420132Y0356605D01*
X0426065Y0347043D01*
X0430739Y0336806D01*
X0434076Y0326058D01*
X0436024Y0314975D01*
X0436551Y0303733D01*
X0435649Y0292516D01*
X0433331Y0281503D01*
X0429636Y0270874D01*
X0424623Y0260799D01*
X0418372Y0251440D01*
X0410986Y0242950D01*
X0402583Y0235465D01*
X0393298Y0229105D01*
X0383282Y0223974D01*
X0372697Y0220155D01*
X0369647Y0219373D01*
X0369647Y0222175D01*
X0368491Y0223331D01*
X0327484Y0223331D01*
X0326328Y0222175D01*
X0326328Y0219368D01*
X0323628Y0220054D01*
X0313696Y0223546D01*
X0304249Y0228191D01*
X0295419Y0233924D01*
X0287332Y0240665D01*
X0280102Y0248317D01*
X0273831Y0256773D01*
X0268608Y0265913D01*
X0264506Y0275609D01*
X0264406Y0275955D02*
X0268841Y0275955D01*
X0268841Y0276753D02*
X0264175Y0276753D01*
X0263944Y0277552D02*
X0268841Y0277552D01*
X0268841Y0278350D02*
X0263713Y0278350D01*
X0263483Y0279149D02*
X0268841Y0279149D01*
X0268841Y0279947D02*
X0263252Y0279947D01*
X0263021Y0280746D02*
X0268841Y0280746D01*
X0268841Y0281544D02*
X0262790Y0281544D01*
X0262559Y0282343D02*
X0268841Y0282343D01*
X0268841Y0283141D02*
X0262329Y0283141D01*
X0262098Y0283940D02*
X0268841Y0283940D01*
X0268841Y0284738D02*
X0261867Y0284738D01*
X0261636Y0285537D02*
X0268841Y0285537D01*
X0268841Y0286335D02*
X0261482Y0286335D01*
X0261351Y0287134D02*
X0268841Y0287134D01*
X0268841Y0287695D02*
X0268841Y0273991D01*
X0268449Y0273599D01*
X0267952Y0272400D01*
X0267952Y0271101D01*
X0268449Y0269902D01*
X0269367Y0268983D01*
X0270567Y0268487D01*
X0271865Y0268487D01*
X0273065Y0268983D01*
X0273983Y0269902D01*
X0274480Y0271101D01*
X0274480Y0272400D01*
X0273983Y0273599D01*
X0273591Y0273991D01*
X0273591Y0285727D01*
X0297255Y0309392D01*
X0297810Y0309392D01*
X0299009Y0309889D01*
X0299928Y0310807D01*
X0300424Y0312007D01*
X0300424Y0313305D01*
X0299928Y0314505D01*
X0299009Y0315423D01*
X0297810Y0315920D01*
X0296511Y0315920D01*
X0295312Y0315423D01*
X0294394Y0314505D01*
X0293897Y0313305D01*
X0293897Y0312751D01*
X0270232Y0289086D01*
X0268841Y0287695D01*
X0269079Y0287932D02*
X0261221Y0287932D01*
X0261090Y0288731D02*
X0269877Y0288731D01*
X0270676Y0289529D02*
X0260959Y0289529D01*
X0260828Y0290328D02*
X0271474Y0290328D01*
X0272273Y0291126D02*
X0260697Y0291126D01*
X0260566Y0291925D02*
X0273071Y0291925D01*
X0273870Y0292723D02*
X0260436Y0292723D01*
X0260305Y0293522D02*
X0274668Y0293522D01*
X0275467Y0294320D02*
X0260174Y0294320D01*
X0260283Y0295119D02*
X0276265Y0295119D01*
X0277064Y0295917D02*
X0261081Y0295917D01*
X0261880Y0296716D02*
X0277862Y0296716D01*
X0278661Y0297515D02*
X0272278Y0297515D01*
X0274047Y0298313D02*
X0279459Y0298313D01*
X0280258Y0299112D02*
X0274845Y0299112D01*
X0275644Y0299910D02*
X0281056Y0299910D01*
X0281855Y0300709D02*
X0276336Y0300709D01*
X0276667Y0301507D02*
X0282653Y0301507D01*
X0283452Y0302306D02*
X0276998Y0302306D01*
X0277329Y0303104D02*
X0284250Y0303104D01*
X0285049Y0303903D02*
X0277521Y0303903D01*
X0277521Y0304701D02*
X0285847Y0304701D01*
X0286646Y0305500D02*
X0277521Y0305500D01*
X0277521Y0306298D02*
X0287444Y0306298D01*
X0288243Y0307097D02*
X0277424Y0307097D01*
X0277093Y0307895D02*
X0289042Y0307895D01*
X0289840Y0308694D02*
X0276762Y0308694D01*
X0276431Y0309492D02*
X0290639Y0309492D01*
X0291437Y0310291D02*
X0277185Y0310291D01*
X0277983Y0311089D02*
X0292236Y0311089D01*
X0293034Y0311888D02*
X0278782Y0311888D01*
X0279580Y0312686D02*
X0293833Y0312686D01*
X0293971Y0313485D02*
X0280379Y0313485D01*
X0281177Y0314283D02*
X0294302Y0314283D01*
X0294971Y0315082D02*
X0281976Y0315082D01*
X0282774Y0315880D02*
X0296416Y0315880D01*
X0297905Y0315880D02*
X0303122Y0315880D01*
X0302324Y0316679D02*
X0283573Y0316679D01*
X0284371Y0317477D02*
X0301525Y0317477D01*
X0300727Y0318276D02*
X0285170Y0318276D01*
X0285968Y0319074D02*
X0299928Y0319074D01*
X0297998Y0319873D02*
X0286767Y0319873D01*
X0287565Y0320671D02*
X0297200Y0320671D01*
X0296847Y0321470D02*
X0288364Y0321470D01*
X0289162Y0322268D02*
X0296617Y0322268D01*
X0296617Y0323067D02*
X0289961Y0323067D01*
X0290759Y0323865D02*
X0296791Y0323865D01*
X0297122Y0324664D02*
X0291558Y0324664D01*
X0292356Y0325462D02*
X0297864Y0325462D01*
X0298663Y0326261D02*
X0293155Y0326261D01*
X0293953Y0327059D02*
X0299461Y0327059D01*
X0300260Y0327858D02*
X0294752Y0327858D01*
X0295550Y0328656D02*
X0301059Y0328656D01*
X0301857Y0329455D02*
X0296349Y0329455D01*
X0297147Y0330253D02*
X0302656Y0330253D01*
X0303454Y0331052D02*
X0297946Y0331052D01*
X0298744Y0331850D02*
X0304253Y0331850D01*
X0305051Y0332649D02*
X0299543Y0332649D01*
X0300341Y0333448D02*
X0305850Y0333448D01*
X0306648Y0334246D02*
X0301140Y0334246D01*
X0301938Y0335045D02*
X0307447Y0335045D01*
X0308245Y0335843D02*
X0302737Y0335843D01*
X0303535Y0336642D02*
X0309044Y0336642D01*
X0309842Y0337440D02*
X0304334Y0337440D01*
X0305132Y0338239D02*
X0310641Y0338239D01*
X0311439Y0339037D02*
X0305931Y0339037D01*
X0306729Y0339836D02*
X0312238Y0339836D01*
X0313036Y0340634D02*
X0307528Y0340634D01*
X0308326Y0341433D02*
X0313835Y0341433D01*
X0314633Y0342231D02*
X0309125Y0342231D01*
X0309923Y0343030D02*
X0315432Y0343030D01*
X0316230Y0343828D02*
X0310722Y0343828D01*
X0311521Y0344627D02*
X0317029Y0344627D01*
X0317827Y0345425D02*
X0312319Y0345425D01*
X0313118Y0346224D02*
X0318626Y0346224D01*
X0319424Y0347022D02*
X0313916Y0347022D01*
X0314715Y0347821D02*
X0320223Y0347821D01*
X0321021Y0348619D02*
X0315513Y0348619D01*
X0316312Y0349418D02*
X0321820Y0349418D01*
X0322618Y0350216D02*
X0317110Y0350216D01*
X0317909Y0351015D02*
X0323417Y0351015D01*
X0324215Y0351813D02*
X0318707Y0351813D01*
X0319506Y0352612D02*
X0325014Y0352612D01*
X0325812Y0353410D02*
X0320304Y0353410D01*
X0321103Y0354209D02*
X0326611Y0354209D01*
X0327409Y0355007D02*
X0321901Y0355007D01*
X0322700Y0355806D02*
X0328208Y0355806D01*
X0329006Y0356604D02*
X0323498Y0356604D01*
X0324297Y0357403D02*
X0329805Y0357403D01*
X0330603Y0358201D02*
X0325095Y0358201D01*
X0325894Y0359000D02*
X0331402Y0359000D01*
X0332200Y0359798D02*
X0326692Y0359798D01*
X0327491Y0360597D02*
X0332999Y0360597D01*
X0333797Y0361395D02*
X0328289Y0361395D01*
X0329088Y0362194D02*
X0334596Y0362194D01*
X0335395Y0362992D02*
X0329886Y0362992D01*
X0330685Y0363791D02*
X0336797Y0363791D01*
X0337195Y0366186D02*
X0333080Y0366186D01*
X0332282Y0365388D02*
X0343105Y0365388D01*
X0343032Y0366186D02*
X0343904Y0366186D01*
X0344413Y0366985D02*
X0343187Y0366985D01*
X0343187Y0367784D02*
X0344413Y0367784D01*
X0344413Y0368582D02*
X0343187Y0368582D01*
X0343187Y0369381D02*
X0344413Y0369381D01*
X0344413Y0370179D02*
X0343187Y0370179D01*
X0343187Y0370978D02*
X0344413Y0370978D01*
X0344413Y0371776D02*
X0340513Y0371776D01*
X0340513Y0370978D02*
X0339713Y0370978D01*
X0339713Y0370179D02*
X0340513Y0370179D01*
X0340513Y0369381D02*
X0339713Y0369381D01*
X0339713Y0368582D02*
X0340513Y0368582D01*
X0340513Y0367784D02*
X0339713Y0367784D01*
X0339713Y0366985D02*
X0340513Y0366985D01*
X0340513Y0366186D02*
X0339713Y0366186D01*
X0337040Y0366985D02*
X0333879Y0366985D01*
X0334677Y0367784D02*
X0337040Y0367784D01*
X0337040Y0368582D02*
X0335476Y0368582D01*
X0336274Y0369381D02*
X0337040Y0369381D01*
X0342306Y0364589D02*
X0331483Y0364589D01*
X0335629Y0353116D02*
X0335629Y0352361D01*
X0336126Y0351161D01*
X0337044Y0350243D01*
X0338244Y0349746D01*
X0338798Y0349746D01*
X0339029Y0349516D01*
X0338462Y0349281D01*
X0337543Y0348363D01*
X0337047Y0347163D01*
X0337047Y0345865D01*
X0337543Y0344665D01*
X0337936Y0344273D01*
X0337936Y0342258D01*
X0337023Y0342258D01*
X0335824Y0341761D01*
X0334906Y0340843D01*
X0334409Y0339644D01*
X0334409Y0338345D01*
X0334906Y0337146D01*
X0335298Y0336754D01*
X0335298Y0334664D01*
X0336689Y0333273D01*
X0353487Y0316475D01*
X0353487Y0302195D01*
X0352574Y0302573D01*
X0351275Y0302573D01*
X0350076Y0302076D01*
X0349158Y0301158D01*
X0348661Y0299959D01*
X0348661Y0298660D01*
X0349158Y0297461D01*
X0349550Y0297069D01*
X0349550Y0296722D01*
X0323016Y0270188D01*
X0319884Y0270188D01*
X0320112Y0270283D01*
X0321030Y0271201D01*
X0321527Y0272400D01*
X0321527Y0273699D01*
X0321038Y0274879D01*
X0321038Y0305216D01*
X0320615Y0306236D01*
X0304682Y0322169D01*
X0327219Y0344706D01*
X0335629Y0353116D01*
X0335629Y0352612D02*
X0335125Y0352612D01*
X0335856Y0351813D02*
X0334326Y0351813D01*
X0333528Y0351015D02*
X0336273Y0351015D01*
X0337109Y0350216D02*
X0332729Y0350216D01*
X0331931Y0349418D02*
X0338792Y0349418D01*
X0337800Y0348619D02*
X0331132Y0348619D01*
X0330334Y0347821D02*
X0337319Y0347821D01*
X0337047Y0347022D02*
X0329535Y0347022D01*
X0328737Y0346224D02*
X0337047Y0346224D01*
X0337229Y0345425D02*
X0327938Y0345425D01*
X0327140Y0344627D02*
X0337582Y0344627D01*
X0337936Y0343828D02*
X0326341Y0343828D01*
X0325543Y0343030D02*
X0337936Y0343030D01*
X0336958Y0342231D02*
X0324744Y0342231D01*
X0323946Y0341433D02*
X0335495Y0341433D01*
X0334819Y0340634D02*
X0323147Y0340634D01*
X0322349Y0339836D02*
X0334488Y0339836D01*
X0334409Y0339037D02*
X0321550Y0339037D01*
X0320752Y0338239D02*
X0334453Y0338239D01*
X0334784Y0337440D02*
X0319953Y0337440D01*
X0319155Y0336642D02*
X0335298Y0336642D01*
X0335298Y0335843D02*
X0318356Y0335843D01*
X0317558Y0335045D02*
X0335298Y0335045D01*
X0335716Y0334246D02*
X0316759Y0334246D01*
X0315961Y0333448D02*
X0336515Y0333448D01*
X0336689Y0333273D02*
X0336689Y0333273D01*
X0337313Y0332649D02*
X0315162Y0332649D01*
X0314364Y0331850D02*
X0338112Y0331850D01*
X0338910Y0331052D02*
X0313565Y0331052D01*
X0312767Y0330253D02*
X0339709Y0330253D01*
X0340507Y0329455D02*
X0311968Y0329455D01*
X0311170Y0328656D02*
X0341306Y0328656D01*
X0342104Y0327858D02*
X0310371Y0327858D01*
X0309573Y0327059D02*
X0342903Y0327059D01*
X0343701Y0326261D02*
X0308774Y0326261D01*
X0307976Y0325462D02*
X0344500Y0325462D01*
X0345298Y0324664D02*
X0307177Y0324664D01*
X0306378Y0323865D02*
X0346097Y0323865D01*
X0346895Y0323067D02*
X0305580Y0323067D01*
X0304781Y0322268D02*
X0347694Y0322268D01*
X0348492Y0321470D02*
X0305381Y0321470D01*
X0306180Y0320671D02*
X0349291Y0320671D01*
X0350089Y0319873D02*
X0306978Y0319873D01*
X0307777Y0319074D02*
X0350888Y0319074D01*
X0351686Y0318276D02*
X0308575Y0318276D01*
X0309374Y0317477D02*
X0352485Y0317477D01*
X0353283Y0316679D02*
X0310172Y0316679D01*
X0310971Y0315880D02*
X0353487Y0315880D01*
X0353487Y0315082D02*
X0311769Y0315082D01*
X0312568Y0314283D02*
X0353487Y0314283D01*
X0353487Y0313485D02*
X0313366Y0313485D01*
X0314165Y0312686D02*
X0353487Y0312686D01*
X0353487Y0311888D02*
X0314963Y0311888D01*
X0315762Y0311089D02*
X0353487Y0311089D01*
X0353487Y0310291D02*
X0316560Y0310291D01*
X0317359Y0309492D02*
X0353487Y0309492D01*
X0353487Y0308694D02*
X0318157Y0308694D01*
X0318956Y0307895D02*
X0353487Y0307895D01*
X0353487Y0307097D02*
X0319754Y0307097D01*
X0320553Y0306298D02*
X0353487Y0306298D01*
X0353487Y0305500D02*
X0320920Y0305500D01*
X0321038Y0304701D02*
X0353487Y0304701D01*
X0353487Y0303903D02*
X0321038Y0303903D01*
X0321038Y0303104D02*
X0353487Y0303104D01*
X0353487Y0302306D02*
X0353220Y0302306D01*
X0350629Y0302306D02*
X0321038Y0302306D01*
X0321038Y0301507D02*
X0349506Y0301507D01*
X0348971Y0300709D02*
X0321038Y0300709D01*
X0321038Y0299910D02*
X0348661Y0299910D01*
X0348661Y0299112D02*
X0321038Y0299112D01*
X0321038Y0298313D02*
X0348805Y0298313D01*
X0349135Y0297515D02*
X0321038Y0297515D01*
X0321038Y0296716D02*
X0349544Y0296716D01*
X0348745Y0295917D02*
X0321038Y0295917D01*
X0321038Y0295119D02*
X0347947Y0295119D01*
X0347148Y0294320D02*
X0321038Y0294320D01*
X0321038Y0293522D02*
X0346350Y0293522D01*
X0345551Y0292723D02*
X0321038Y0292723D01*
X0321038Y0291925D02*
X0344753Y0291925D01*
X0343954Y0291126D02*
X0321038Y0291126D01*
X0321038Y0290328D02*
X0343156Y0290328D01*
X0342357Y0289529D02*
X0321038Y0289529D01*
X0321038Y0288731D02*
X0341559Y0288731D01*
X0340760Y0287932D02*
X0321038Y0287932D01*
X0321038Y0287134D02*
X0339962Y0287134D01*
X0339163Y0286335D02*
X0321038Y0286335D01*
X0321038Y0285537D02*
X0338365Y0285537D01*
X0337566Y0284738D02*
X0321038Y0284738D01*
X0321038Y0283940D02*
X0336768Y0283940D01*
X0335969Y0283141D02*
X0321038Y0283141D01*
X0321038Y0282343D02*
X0335171Y0282343D01*
X0334372Y0281544D02*
X0321038Y0281544D01*
X0321038Y0280746D02*
X0333574Y0280746D01*
X0332775Y0279947D02*
X0321038Y0279947D01*
X0321038Y0279149D02*
X0331977Y0279149D01*
X0331178Y0278350D02*
X0321038Y0278350D01*
X0321038Y0277552D02*
X0330380Y0277552D01*
X0329581Y0276753D02*
X0321038Y0276753D01*
X0321038Y0275955D02*
X0328783Y0275955D01*
X0327984Y0275156D02*
X0321038Y0275156D01*
X0321254Y0274358D02*
X0327186Y0274358D01*
X0326387Y0273559D02*
X0321527Y0273559D01*
X0321527Y0272761D02*
X0325589Y0272761D01*
X0324790Y0271962D02*
X0321345Y0271962D01*
X0320993Y0271164D02*
X0323991Y0271164D01*
X0323193Y0270365D02*
X0320194Y0270365D01*
X0316332Y0270365D02*
X0308713Y0270365D01*
X0306649Y0267813D02*
X0324000Y0267813D01*
X0351924Y0295738D01*
X0351924Y0299309D01*
X0355861Y0296750D02*
X0355861Y0317459D01*
X0337673Y0335648D01*
X0337673Y0338994D01*
X0340310Y0335924D02*
X0340310Y0346514D01*
X0343039Y0344627D02*
X0343918Y0344627D01*
X0343920Y0343828D02*
X0342685Y0343828D01*
X0342685Y0343030D02*
X0343920Y0343030D01*
X0343920Y0342231D02*
X0342685Y0342231D01*
X0342685Y0341433D02*
X0343920Y0341433D01*
X0344446Y0340634D02*
X0342685Y0340634D01*
X0342685Y0339836D02*
X0345245Y0339836D01*
X0346043Y0339037D02*
X0342685Y0339037D01*
X0342685Y0338239D02*
X0346842Y0338239D01*
X0347640Y0337440D02*
X0342685Y0337440D01*
X0342951Y0336642D02*
X0348439Y0336642D01*
X0349237Y0335843D02*
X0343749Y0335843D01*
X0344548Y0335045D02*
X0350036Y0335045D01*
X0350834Y0334246D02*
X0345346Y0334246D01*
X0346145Y0333448D02*
X0351633Y0333448D01*
X0352431Y0332649D02*
X0346943Y0332649D01*
X0347742Y0331850D02*
X0353230Y0331850D01*
X0354028Y0331052D02*
X0348540Y0331052D01*
X0349339Y0330253D02*
X0354827Y0330253D01*
X0355625Y0329455D02*
X0350137Y0329455D01*
X0350936Y0328656D02*
X0356424Y0328656D01*
X0357222Y0327858D02*
X0351734Y0327858D01*
X0352533Y0327059D02*
X0358021Y0327059D01*
X0358819Y0326261D02*
X0353331Y0326261D01*
X0354130Y0325462D02*
X0359618Y0325462D01*
X0360416Y0324664D02*
X0354928Y0324664D01*
X0355727Y0323865D02*
X0361215Y0323865D01*
X0362013Y0323067D02*
X0356525Y0323067D01*
X0357324Y0322268D02*
X0362812Y0322268D01*
X0363610Y0321470D02*
X0358123Y0321470D01*
X0358921Y0320671D02*
X0364409Y0320671D01*
X0365207Y0319873D02*
X0363423Y0319873D01*
X0364334Y0319074D02*
X0366006Y0319074D01*
X0366804Y0318276D02*
X0364782Y0318276D01*
X0365240Y0317477D02*
X0367603Y0317477D01*
X0368401Y0316679D02*
X0366038Y0316679D01*
X0366837Y0315880D02*
X0394987Y0315880D01*
X0395786Y0315082D02*
X0367635Y0315082D01*
X0368434Y0314283D02*
X0396584Y0314283D01*
X0397383Y0313485D02*
X0369232Y0313485D01*
X0370031Y0312686D02*
X0398181Y0312686D01*
X0398980Y0311888D02*
X0370829Y0311888D01*
X0371628Y0311089D02*
X0399778Y0311089D01*
X0401255Y0312971D02*
X0395232Y0318994D01*
X0369444Y0318994D01*
X0346295Y0342144D01*
X0346295Y0345609D01*
X0338893Y0353010D01*
X0350035Y0341947D02*
X0370389Y0321593D01*
X0395507Y0321593D01*
X0398066Y0324152D01*
X0398066Y0327498D01*
X0399672Y0329104D01*
X0409208Y0329104D01*
X0412225Y0327858D02*
X0416368Y0327858D01*
X0417118Y0327059D02*
X0411779Y0327059D01*
X0410873Y0326261D02*
X0434013Y0326261D01*
X0434181Y0325462D02*
X0400441Y0325462D01*
X0400441Y0324664D02*
X0434321Y0324664D01*
X0434462Y0323865D02*
X0400441Y0323865D01*
X0400340Y0323067D02*
X0434602Y0323067D01*
X0434742Y0322268D02*
X0399541Y0322268D01*
X0398743Y0321470D02*
X0434883Y0321470D01*
X0435023Y0320671D02*
X0397944Y0320671D01*
X0397712Y0319873D02*
X0435164Y0319873D01*
X0435304Y0319074D02*
X0398510Y0319074D01*
X0399309Y0318276D02*
X0435444Y0318276D01*
X0435585Y0317477D02*
X0400107Y0317477D01*
X0400906Y0316679D02*
X0435725Y0316679D01*
X0435865Y0315880D02*
X0414650Y0315880D01*
X0415650Y0315082D02*
X0436006Y0315082D01*
X0436057Y0314283D02*
X0416134Y0314283D01*
X0416409Y0313485D02*
X0425072Y0313485D01*
X0425082Y0313489D02*
X0422041Y0312229D01*
X0419713Y0309902D01*
X0418454Y0306861D01*
X0418454Y0303569D01*
X0419713Y0300528D01*
X0422041Y0298201D01*
X0425082Y0296941D01*
X0428373Y0296941D01*
X0431414Y0298201D01*
X0433742Y0300528D01*
X0435002Y0303569D01*
X0435002Y0306861D01*
X0433742Y0309902D01*
X0431414Y0312229D01*
X0428373Y0313489D01*
X0425082Y0313489D01*
X0423144Y0312686D02*
X0416409Y0312686D01*
X0416229Y0311888D02*
X0421699Y0311888D01*
X0420901Y0311089D02*
X0415879Y0311089D01*
X0415080Y0310291D02*
X0420102Y0310291D01*
X0419544Y0309492D02*
X0373225Y0309492D01*
X0374023Y0308694D02*
X0419213Y0308694D01*
X0418882Y0307895D02*
X0374822Y0307895D01*
X0375620Y0307097D02*
X0418551Y0307097D01*
X0418454Y0306298D02*
X0376419Y0306298D01*
X0377217Y0305500D02*
X0418454Y0305500D01*
X0418454Y0304701D02*
X0378016Y0304701D01*
X0378814Y0303903D02*
X0418454Y0303903D01*
X0418646Y0303104D02*
X0379613Y0303104D01*
X0380412Y0302306D02*
X0418977Y0302306D01*
X0419308Y0301507D02*
X0381210Y0301507D01*
X0382009Y0300709D02*
X0419638Y0300709D01*
X0420331Y0299910D02*
X0382807Y0299910D01*
X0383606Y0299112D02*
X0421130Y0299112D01*
X0421928Y0298313D02*
X0396080Y0298313D01*
X0396820Y0297515D02*
X0423697Y0297515D01*
X0429758Y0297515D02*
X0436051Y0297515D01*
X0436115Y0298313D02*
X0431527Y0298313D01*
X0432325Y0299112D02*
X0436179Y0299112D01*
X0436244Y0299910D02*
X0433124Y0299910D01*
X0433817Y0300709D02*
X0436308Y0300709D01*
X0436372Y0301507D02*
X0434148Y0301507D01*
X0434478Y0302306D02*
X0436436Y0302306D01*
X0436501Y0303104D02*
X0434809Y0303104D01*
X0435002Y0303903D02*
X0436543Y0303903D01*
X0436506Y0304701D02*
X0435002Y0304701D01*
X0435002Y0305500D02*
X0436469Y0305500D01*
X0436431Y0306298D02*
X0435002Y0306298D01*
X0434904Y0307097D02*
X0436394Y0307097D01*
X0436356Y0307895D02*
X0434573Y0307895D01*
X0434242Y0308694D02*
X0436319Y0308694D01*
X0436281Y0309492D02*
X0433912Y0309492D01*
X0433353Y0310291D02*
X0436244Y0310291D01*
X0436207Y0311089D02*
X0432555Y0311089D01*
X0431756Y0311888D02*
X0436169Y0311888D01*
X0436132Y0312686D02*
X0430311Y0312686D01*
X0428384Y0313485D02*
X0436094Y0313485D01*
X0433766Y0327059D02*
X0421219Y0327059D01*
X0421970Y0327858D02*
X0433518Y0327858D01*
X0433270Y0328656D02*
X0422300Y0328656D01*
X0422432Y0329455D02*
X0433022Y0329455D01*
X0432774Y0330253D02*
X0422432Y0330253D01*
X0422110Y0331052D02*
X0432526Y0331052D01*
X0432278Y0331850D02*
X0421558Y0331850D01*
X0420395Y0332649D02*
X0432030Y0332649D01*
X0431782Y0333448D02*
X0413632Y0333448D01*
X0412834Y0334246D02*
X0431534Y0334246D01*
X0431286Y0335045D02*
X0397734Y0335045D01*
X0398533Y0335843D02*
X0431038Y0335843D01*
X0430790Y0336642D02*
X0399331Y0336642D01*
X0400130Y0337440D02*
X0430449Y0337440D01*
X0430085Y0338239D02*
X0400928Y0338239D01*
X0402712Y0339037D02*
X0429720Y0339037D01*
X0429356Y0339836D02*
X0403602Y0339836D01*
X0404040Y0340634D02*
X0428991Y0340634D01*
X0428627Y0341433D02*
X0404283Y0341433D01*
X0404283Y0342231D02*
X0428262Y0342231D01*
X0427898Y0343030D02*
X0404071Y0343030D01*
X0403675Y0343828D02*
X0427533Y0343828D01*
X0427168Y0344627D02*
X0402876Y0344627D01*
X0399162Y0344627D02*
X0356783Y0344627D01*
X0356783Y0345425D02*
X0426804Y0345425D01*
X0426439Y0346224D02*
X0356783Y0346224D01*
X0356783Y0347022D02*
X0426075Y0347022D01*
X0425583Y0347821D02*
X0420799Y0347821D01*
X0421598Y0348619D02*
X0425087Y0348619D01*
X0424592Y0349418D02*
X0421942Y0349418D01*
X0422117Y0350216D02*
X0424096Y0350216D01*
X0423601Y0351015D02*
X0422117Y0351015D01*
X0421838Y0351813D02*
X0423105Y0351813D01*
X0422610Y0352612D02*
X0421348Y0352612D01*
X0422114Y0353410D02*
X0420333Y0353410D01*
X0421619Y0354209D02*
X0418494Y0354209D01*
X0417695Y0355007D02*
X0421123Y0355007D01*
X0420628Y0355806D02*
X0416897Y0355806D01*
X0416098Y0356604D02*
X0420132Y0356604D01*
X0419483Y0357403D02*
X0415300Y0357403D01*
X0414501Y0358201D02*
X0418834Y0358201D01*
X0418185Y0359000D02*
X0413703Y0359000D01*
X0412904Y0359798D02*
X0417536Y0359798D01*
X0416887Y0360597D02*
X0412106Y0360597D01*
X0411307Y0361395D02*
X0416238Y0361395D01*
X0415589Y0362194D02*
X0410509Y0362194D01*
X0409011Y0360333D02*
X0389326Y0360333D01*
X0375547Y0374113D01*
X0375547Y0380018D01*
X0375323Y0370978D02*
X0375258Y0370978D01*
X0375258Y0370179D02*
X0376122Y0370179D01*
X0376920Y0369381D02*
X0375258Y0369381D01*
X0375258Y0368582D02*
X0377719Y0368582D01*
X0378517Y0367784D02*
X0375258Y0367784D01*
X0375258Y0366985D02*
X0379316Y0366985D01*
X0380114Y0366186D02*
X0375258Y0366186D01*
X0374634Y0365388D02*
X0380913Y0365388D01*
X0381711Y0364589D02*
X0361673Y0364589D01*
X0362184Y0365388D02*
X0368585Y0365388D01*
X0360874Y0363791D02*
X0382510Y0363791D01*
X0383308Y0362992D02*
X0360076Y0362992D01*
X0359277Y0362194D02*
X0384107Y0362194D01*
X0384905Y0361395D02*
X0358479Y0361395D01*
X0357680Y0360597D02*
X0385704Y0360597D01*
X0386502Y0359798D02*
X0356882Y0359798D01*
X0356783Y0359000D02*
X0387301Y0359000D01*
X0388099Y0358201D02*
X0356783Y0358201D01*
X0356783Y0357403D02*
X0408583Y0357403D01*
X0409381Y0356604D02*
X0356783Y0356604D01*
X0356783Y0355806D02*
X0410180Y0355806D01*
X0410978Y0355007D02*
X0356783Y0355007D01*
X0356783Y0354209D02*
X0411777Y0354209D01*
X0412575Y0353410D02*
X0356783Y0353410D01*
X0356783Y0352612D02*
X0413374Y0352612D01*
X0414172Y0351813D02*
X0356783Y0351813D01*
X0356783Y0351015D02*
X0414971Y0351015D01*
X0415590Y0350216D02*
X0356783Y0350216D01*
X0356783Y0349418D02*
X0415765Y0349418D01*
X0416109Y0348619D02*
X0356783Y0348619D01*
X0356783Y0347821D02*
X0416908Y0347821D01*
X0418854Y0350491D02*
X0409011Y0360333D01*
X0412981Y0365388D02*
X0390382Y0365388D01*
X0391006Y0366186D02*
X0412143Y0366186D01*
X0411304Y0366985D02*
X0391006Y0366985D01*
X0391006Y0367784D02*
X0410466Y0367784D01*
X0409628Y0368582D02*
X0391006Y0368582D01*
X0391006Y0369381D02*
X0408790Y0369381D01*
X0407952Y0370179D02*
X0391006Y0370179D01*
X0391006Y0370978D02*
X0407113Y0370978D01*
X0406275Y0371776D02*
X0391006Y0371776D01*
X0391006Y0372575D02*
X0405437Y0372575D01*
X0404514Y0373373D02*
X0391006Y0373373D01*
X0391006Y0374172D02*
X0403428Y0374172D01*
X0402342Y0374970D02*
X0391006Y0374970D01*
X0391006Y0375769D02*
X0401256Y0375769D01*
X0400170Y0376567D02*
X0391006Y0376567D01*
X0390539Y0377366D02*
X0399084Y0377366D01*
X0397998Y0378164D02*
X0390132Y0378164D01*
X0390168Y0378963D02*
X0396912Y0378963D01*
X0395826Y0379761D02*
X0390498Y0379761D01*
X0390621Y0380560D02*
X0394390Y0380560D01*
X0392952Y0381358D02*
X0390621Y0381358D01*
X0390290Y0382157D02*
X0391514Y0382157D01*
X0388428Y0364589D02*
X0413642Y0364589D01*
X0414291Y0363791D02*
X0389227Y0363791D01*
X0390025Y0362992D02*
X0414940Y0362992D01*
X0398363Y0343828D02*
X0356783Y0343828D01*
X0356783Y0343030D02*
X0397967Y0343030D01*
X0397755Y0342231D02*
X0357014Y0342231D01*
X0357813Y0341433D02*
X0397123Y0341433D01*
X0396324Y0340634D02*
X0358611Y0340634D01*
X0359410Y0339836D02*
X0376402Y0339836D01*
X0375265Y0339037D02*
X0360208Y0339037D01*
X0361007Y0338239D02*
X0374724Y0338239D01*
X0374409Y0337440D02*
X0361805Y0337440D01*
X0362604Y0336642D02*
X0374409Y0336642D01*
X0374548Y0335843D02*
X0363402Y0335843D01*
X0364201Y0335045D02*
X0374879Y0335045D01*
X0375640Y0334246D02*
X0364999Y0334246D01*
X0365798Y0333448D02*
X0390098Y0333448D01*
X0390897Y0334246D02*
X0379705Y0334246D01*
X0378943Y0339836D02*
X0395526Y0339836D01*
X0389300Y0332649D02*
X0366596Y0332649D01*
X0367395Y0331850D02*
X0388501Y0331850D01*
X0387703Y0331052D02*
X0368193Y0331052D01*
X0360111Y0319873D02*
X0359720Y0319873D01*
X0357830Y0318404D02*
X0357830Y0295687D01*
X0302003Y0239861D01*
X0302003Y0237105D01*
X0303036Y0234900D02*
X0302951Y0234816D01*
X0300937Y0234816D01*
X0294838Y0240915D01*
X0294838Y0252026D01*
X0291574Y0251999D02*
X0277372Y0251999D01*
X0277964Y0251201D02*
X0291647Y0251201D01*
X0291978Y0250402D02*
X0278556Y0250402D01*
X0279148Y0249604D02*
X0292463Y0249604D01*
X0292463Y0248805D02*
X0279740Y0248805D01*
X0280396Y0248007D02*
X0292463Y0248007D01*
X0292463Y0247208D02*
X0281150Y0247208D01*
X0281904Y0246410D02*
X0292463Y0246410D01*
X0292463Y0245611D02*
X0282659Y0245611D01*
X0283413Y0244813D02*
X0292463Y0244813D01*
X0292463Y0244014D02*
X0284168Y0244014D01*
X0284922Y0243216D02*
X0292463Y0243216D01*
X0292463Y0242417D02*
X0285677Y0242417D01*
X0286431Y0241619D02*
X0292463Y0241619D01*
X0292463Y0240820D02*
X0287186Y0240820D01*
X0288104Y0240022D02*
X0292463Y0240022D01*
X0293171Y0239223D02*
X0289062Y0239223D01*
X0290020Y0238425D02*
X0293970Y0238425D01*
X0294768Y0237626D02*
X0290978Y0237626D01*
X0291936Y0236828D02*
X0295567Y0236828D01*
X0296365Y0236029D02*
X0292894Y0236029D01*
X0293852Y0235231D02*
X0297164Y0235231D01*
X0297962Y0234432D02*
X0294810Y0234432D01*
X0295867Y0233634D02*
X0298761Y0233634D01*
X0299559Y0232835D02*
X0297097Y0232835D01*
X0298327Y0232037D02*
X0303773Y0232037D01*
X0303036Y0234900D02*
X0305389Y0234900D01*
X0308397Y0233634D02*
X0324402Y0233634D01*
X0324485Y0233550D02*
X0325314Y0233207D01*
X0325314Y0232440D01*
X0325811Y0231240D01*
X0326729Y0230322D01*
X0327929Y0229825D01*
X0329227Y0229825D01*
X0330427Y0230322D01*
X0331345Y0231240D01*
X0331399Y0231370D01*
X0332134Y0232105D01*
X0342790Y0242761D01*
X0344724Y0242761D01*
X0344724Y0242361D01*
X0345221Y0241161D01*
X0346139Y0240243D01*
X0347338Y0239746D01*
X0348637Y0239746D01*
X0349836Y0240243D01*
X0350754Y0241161D01*
X0351251Y0242361D01*
X0351251Y0243164D01*
X0351805Y0243393D01*
X0352723Y0244311D01*
X0353200Y0245463D01*
X0355272Y0243391D01*
X0366294Y0243391D01*
X0367685Y0244782D01*
X0370625Y0247722D01*
X0371337Y0247722D01*
X0371729Y0247330D01*
X0372929Y0246833D01*
X0374227Y0246833D01*
X0375427Y0247330D01*
X0376345Y0248248D01*
X0376842Y0249448D01*
X0376842Y0250746D01*
X0376345Y0251946D01*
X0375427Y0252864D01*
X0374227Y0253361D01*
X0372929Y0253361D01*
X0371729Y0252864D01*
X0371337Y0252472D01*
X0368657Y0252472D01*
X0364327Y0248141D01*
X0357239Y0248141D01*
X0350900Y0254479D01*
X0326331Y0254479D01*
X0325939Y0254872D01*
X0324739Y0255368D01*
X0323441Y0255368D01*
X0322241Y0254872D01*
X0321323Y0253953D01*
X0320826Y0252754D01*
X0320826Y0251455D01*
X0321323Y0250256D01*
X0322241Y0249338D01*
X0323441Y0248841D01*
X0324739Y0248841D01*
X0325939Y0249338D01*
X0326331Y0249730D01*
X0340325Y0249730D01*
X0336593Y0245998D01*
X0336581Y0245998D01*
X0335190Y0244606D01*
X0329276Y0238692D01*
X0328575Y0238692D01*
X0328183Y0239084D01*
X0326983Y0239581D01*
X0325685Y0239581D01*
X0324485Y0239084D01*
X0323567Y0238166D01*
X0323070Y0236966D01*
X0323070Y0235668D01*
X0323567Y0234469D01*
X0324485Y0233550D01*
X0325314Y0232835D02*
X0307940Y0232835D01*
X0307005Y0232037D02*
X0325481Y0232037D01*
X0325813Y0231238D02*
X0299556Y0231238D01*
X0300786Y0230440D02*
X0326612Y0230440D01*
X0328578Y0233089D02*
X0329759Y0233089D01*
X0341806Y0245136D01*
X0345861Y0245136D01*
X0347987Y0243010D01*
X0346674Y0240022D02*
X0340050Y0240022D01*
X0339252Y0239223D02*
X0406802Y0239223D01*
X0405906Y0238425D02*
X0338453Y0238425D01*
X0337655Y0237626D02*
X0405009Y0237626D01*
X0404113Y0236828D02*
X0336856Y0236828D01*
X0336058Y0236029D02*
X0403216Y0236029D01*
X0402241Y0235231D02*
X0335259Y0235231D01*
X0334461Y0234432D02*
X0401075Y0234432D01*
X0399910Y0233634D02*
X0333662Y0233634D01*
X0332864Y0232835D02*
X0398744Y0232835D01*
X0397578Y0232037D02*
X0332065Y0232037D01*
X0331343Y0231238D02*
X0396412Y0231238D01*
X0395246Y0230440D02*
X0330544Y0230440D01*
X0330260Y0236317D02*
X0326334Y0236317D01*
X0323343Y0237626D02*
X0307279Y0237626D01*
X0308077Y0236828D02*
X0323070Y0236828D01*
X0323070Y0236029D02*
X0308454Y0236029D01*
X0308653Y0235231D02*
X0323251Y0235231D01*
X0323603Y0234432D02*
X0308653Y0234432D01*
X0304989Y0238425D02*
X0323826Y0238425D01*
X0324821Y0239223D02*
X0304724Y0239223D01*
X0305523Y0240022D02*
X0330605Y0240022D01*
X0329807Y0239223D02*
X0327847Y0239223D01*
X0330260Y0236317D02*
X0337565Y0243623D01*
X0337576Y0243623D01*
X0342082Y0248128D01*
X0347987Y0248128D01*
X0349956Y0246160D01*
X0352931Y0244813D02*
X0353850Y0244813D01*
X0354649Y0244014D02*
X0352426Y0244014D01*
X0351377Y0243216D02*
X0411217Y0243216D01*
X0411912Y0244014D02*
X0366917Y0244014D01*
X0367715Y0244813D02*
X0412607Y0244813D01*
X0413301Y0245611D02*
X0368514Y0245611D01*
X0369312Y0246410D02*
X0413996Y0246410D01*
X0414691Y0247208D02*
X0375133Y0247208D01*
X0376104Y0248007D02*
X0415385Y0248007D01*
X0416080Y0248805D02*
X0376576Y0248805D01*
X0376842Y0249604D02*
X0416775Y0249604D01*
X0417469Y0250402D02*
X0376842Y0250402D01*
X0376653Y0251201D02*
X0418164Y0251201D01*
X0418746Y0251999D02*
X0376291Y0251999D01*
X0375493Y0252798D02*
X0419279Y0252798D01*
X0419812Y0253596D02*
X0363040Y0253596D01*
X0362972Y0253762D02*
X0362580Y0254348D01*
X0362081Y0254847D01*
X0361495Y0255239D01*
X0360843Y0255509D01*
X0360151Y0255646D01*
X0359989Y0255646D01*
X0359989Y0252256D01*
X0359608Y0252256D01*
X0359608Y0255646D01*
X0359446Y0255646D01*
X0358754Y0255509D01*
X0358102Y0255239D01*
X0357516Y0254847D01*
X0357017Y0254348D01*
X0356625Y0253762D01*
X0356355Y0253110D01*
X0356217Y0252418D01*
X0356217Y0252256D01*
X0359608Y0252256D01*
X0359608Y0251875D01*
X0356217Y0251875D01*
X0356217Y0251713D01*
X0356355Y0251021D01*
X0356625Y0250369D01*
X0357017Y0249782D01*
X0357516Y0249284D01*
X0358102Y0248892D01*
X0358754Y0248622D01*
X0359446Y0248484D01*
X0359608Y0248484D01*
X0359608Y0251875D01*
X0359989Y0251875D01*
X0359989Y0252256D01*
X0363380Y0252256D01*
X0363380Y0252418D01*
X0363242Y0253110D01*
X0362972Y0253762D01*
X0362533Y0254395D02*
X0420346Y0254395D01*
X0420879Y0255193D02*
X0361563Y0255193D01*
X0361128Y0255992D02*
X0421412Y0255992D01*
X0421946Y0256790D02*
X0362527Y0256790D01*
X0362153Y0256416D02*
X0363322Y0257585D01*
X0363954Y0259113D01*
X0363954Y0260766D01*
X0363322Y0262293D01*
X0362153Y0263463D01*
X0360625Y0264095D01*
X0358972Y0264095D01*
X0357444Y0263463D01*
X0356275Y0262293D01*
X0355643Y0260766D01*
X0355643Y0259113D01*
X0356275Y0257585D01*
X0357444Y0256416D01*
X0358972Y0255783D01*
X0360625Y0255783D01*
X0362153Y0256416D01*
X0363323Y0257589D02*
X0422479Y0257589D01*
X0423012Y0258387D02*
X0363654Y0258387D01*
X0363954Y0259186D02*
X0423546Y0259186D01*
X0424079Y0259984D02*
X0363954Y0259984D01*
X0363947Y0260783D02*
X0424612Y0260783D01*
X0425012Y0261581D02*
X0363617Y0261581D01*
X0363235Y0262380D02*
X0425409Y0262380D01*
X0425807Y0263179D02*
X0362437Y0263179D01*
X0360911Y0263977D02*
X0426204Y0263977D01*
X0426601Y0264776D02*
X0330277Y0264776D01*
X0331075Y0265574D02*
X0426999Y0265574D01*
X0427396Y0266373D02*
X0331874Y0266373D01*
X0332672Y0267171D02*
X0427793Y0267171D01*
X0428191Y0267970D02*
X0333471Y0267970D01*
X0334269Y0268768D02*
X0428588Y0268768D01*
X0428985Y0269567D02*
X0335068Y0269567D01*
X0335866Y0270365D02*
X0429383Y0270365D01*
X0429737Y0271164D02*
X0336665Y0271164D01*
X0337463Y0271962D02*
X0430014Y0271962D01*
X0430292Y0272761D02*
X0338262Y0272761D01*
X0339060Y0273559D02*
X0430569Y0273559D01*
X0430847Y0274358D02*
X0339859Y0274358D01*
X0340657Y0275156D02*
X0431124Y0275156D01*
X0431402Y0275955D02*
X0341456Y0275955D01*
X0342254Y0276753D02*
X0431680Y0276753D01*
X0431957Y0277552D02*
X0343053Y0277552D01*
X0343851Y0278350D02*
X0432235Y0278350D01*
X0432512Y0279149D02*
X0344650Y0279149D01*
X0345448Y0279947D02*
X0432790Y0279947D01*
X0433068Y0280746D02*
X0346247Y0280746D01*
X0347045Y0281544D02*
X0433340Y0281544D01*
X0433508Y0282343D02*
X0347844Y0282343D01*
X0348642Y0283141D02*
X0433676Y0283141D01*
X0433844Y0283940D02*
X0349441Y0283940D01*
X0350239Y0284738D02*
X0434012Y0284738D01*
X0434180Y0285537D02*
X0351038Y0285537D01*
X0351836Y0286335D02*
X0434348Y0286335D01*
X0434516Y0287134D02*
X0352635Y0287134D01*
X0353433Y0287932D02*
X0434684Y0287932D01*
X0434852Y0288731D02*
X0354232Y0288731D01*
X0355030Y0289529D02*
X0435020Y0289529D01*
X0435188Y0290328D02*
X0355829Y0290328D01*
X0356628Y0291126D02*
X0435356Y0291126D01*
X0435524Y0291925D02*
X0357426Y0291925D01*
X0358225Y0292723D02*
X0392828Y0292723D01*
X0395194Y0292723D02*
X0435665Y0292723D01*
X0435730Y0293522D02*
X0396383Y0293522D01*
X0396945Y0294320D02*
X0435794Y0294320D01*
X0435858Y0295119D02*
X0397275Y0295119D01*
X0397275Y0295917D02*
X0435922Y0295917D01*
X0435987Y0296716D02*
X0397150Y0296716D01*
X0381347Y0293522D02*
X0359023Y0293522D01*
X0359822Y0294320D02*
X0380548Y0294320D01*
X0379750Y0295119D02*
X0360205Y0295119D01*
X0360205Y0295917D02*
X0378951Y0295917D01*
X0378153Y0296716D02*
X0360205Y0296716D01*
X0360205Y0297515D02*
X0377354Y0297515D01*
X0376556Y0298313D02*
X0360205Y0298313D01*
X0360205Y0299112D02*
X0375757Y0299112D01*
X0374959Y0299910D02*
X0360205Y0299910D01*
X0360205Y0300709D02*
X0374160Y0300709D01*
X0373362Y0301507D02*
X0360205Y0301507D01*
X0360205Y0302306D02*
X0372563Y0302306D01*
X0371765Y0303104D02*
X0360205Y0303104D01*
X0360205Y0303903D02*
X0370966Y0303903D01*
X0370168Y0304701D02*
X0360205Y0304701D01*
X0360205Y0305500D02*
X0369369Y0305500D01*
X0368571Y0306298D02*
X0360205Y0306298D01*
X0360205Y0307097D02*
X0367772Y0307097D01*
X0366974Y0307895D02*
X0360205Y0307895D01*
X0360205Y0308694D02*
X0366175Y0308694D01*
X0365377Y0309492D02*
X0360205Y0309492D01*
X0360205Y0310291D02*
X0364578Y0310291D01*
X0363780Y0311089D02*
X0360205Y0311089D01*
X0360205Y0311888D02*
X0362981Y0311888D01*
X0362183Y0312686D02*
X0360205Y0312686D01*
X0360205Y0313485D02*
X0361384Y0313485D01*
X0357830Y0318404D02*
X0340310Y0335924D01*
X0311906Y0307097D02*
X0294960Y0307097D01*
X0295758Y0307895D02*
X0311107Y0307895D01*
X0310309Y0308694D02*
X0296557Y0308694D01*
X0298052Y0309492D02*
X0309510Y0309492D01*
X0308712Y0310291D02*
X0299411Y0310291D01*
X0300044Y0311089D02*
X0307913Y0311089D01*
X0307115Y0311888D02*
X0300375Y0311888D01*
X0300424Y0312686D02*
X0306316Y0312686D01*
X0305518Y0313485D02*
X0300350Y0313485D01*
X0300019Y0314283D02*
X0304719Y0314283D01*
X0303921Y0315082D02*
X0299350Y0315082D01*
X0297161Y0312656D02*
X0271216Y0286711D01*
X0271216Y0271750D01*
X0272545Y0268768D02*
X0280629Y0268768D01*
X0280629Y0267970D02*
X0267738Y0267970D01*
X0267400Y0268768D02*
X0269887Y0268768D01*
X0268784Y0269567D02*
X0267062Y0269567D01*
X0266724Y0270365D02*
X0268257Y0270365D01*
X0267952Y0271164D02*
X0266386Y0271164D01*
X0266049Y0271962D02*
X0267952Y0271962D01*
X0268102Y0272761D02*
X0265711Y0272761D01*
X0265373Y0273559D02*
X0268432Y0273559D01*
X0268841Y0274358D02*
X0265035Y0274358D01*
X0264697Y0275156D02*
X0268841Y0275156D01*
X0273591Y0275156D02*
X0315488Y0275156D01*
X0315488Y0275955D02*
X0273591Y0275955D01*
X0273591Y0276753D02*
X0315488Y0276753D01*
X0315488Y0277552D02*
X0273591Y0277552D01*
X0273591Y0278350D02*
X0315488Y0278350D01*
X0315488Y0279149D02*
X0273591Y0279149D01*
X0273591Y0279947D02*
X0315488Y0279947D01*
X0315488Y0280746D02*
X0273591Y0280746D01*
X0273591Y0281544D02*
X0315488Y0281544D01*
X0315488Y0282343D02*
X0273591Y0282343D01*
X0273591Y0283141D02*
X0315488Y0283141D01*
X0315488Y0283940D02*
X0273591Y0283940D01*
X0273591Y0284738D02*
X0315488Y0284738D01*
X0315488Y0285537D02*
X0273591Y0285537D01*
X0274199Y0286335D02*
X0315488Y0286335D01*
X0315488Y0287134D02*
X0274997Y0287134D01*
X0275796Y0287932D02*
X0315488Y0287932D01*
X0315488Y0288731D02*
X0276594Y0288731D01*
X0277393Y0289529D02*
X0315488Y0289529D01*
X0315488Y0290328D02*
X0278191Y0290328D01*
X0278990Y0291126D02*
X0315488Y0291126D01*
X0315488Y0291925D02*
X0279788Y0291925D01*
X0280587Y0292723D02*
X0315488Y0292723D01*
X0315488Y0293522D02*
X0281385Y0293522D01*
X0282184Y0294320D02*
X0315488Y0294320D01*
X0315488Y0295119D02*
X0282982Y0295119D01*
X0283781Y0295917D02*
X0315488Y0295917D01*
X0315488Y0296716D02*
X0284579Y0296716D01*
X0285378Y0297515D02*
X0315488Y0297515D01*
X0315488Y0298313D02*
X0286176Y0298313D01*
X0286975Y0299112D02*
X0315488Y0299112D01*
X0315488Y0299910D02*
X0287773Y0299910D01*
X0288572Y0300709D02*
X0315488Y0300709D01*
X0315488Y0301507D02*
X0289370Y0301507D01*
X0290169Y0302306D02*
X0315488Y0302306D01*
X0315488Y0303104D02*
X0290967Y0303104D01*
X0291766Y0303903D02*
X0315100Y0303903D01*
X0314302Y0304701D02*
X0292564Y0304701D01*
X0293363Y0305500D02*
X0313503Y0305500D01*
X0312705Y0306298D02*
X0294161Y0306298D01*
X0266217Y0297515D02*
X0262678Y0297515D01*
X0263477Y0298313D02*
X0264448Y0298313D01*
X0273591Y0274358D02*
X0315272Y0274358D01*
X0314999Y0273559D02*
X0273999Y0273559D01*
X0274330Y0272761D02*
X0314999Y0272761D01*
X0315181Y0271962D02*
X0274480Y0271962D01*
X0274480Y0271164D02*
X0282037Y0271164D01*
X0281239Y0270365D02*
X0274175Y0270365D01*
X0273648Y0269567D02*
X0280842Y0269567D01*
X0280871Y0267171D02*
X0268076Y0267171D01*
X0268414Y0266373D02*
X0281309Y0266373D01*
X0282196Y0265574D02*
X0268802Y0265574D01*
X0269258Y0264776D02*
X0284163Y0264776D01*
X0284961Y0263977D02*
X0269714Y0263977D01*
X0270171Y0263179D02*
X0285760Y0263179D01*
X0286558Y0262380D02*
X0270627Y0262380D01*
X0271083Y0261581D02*
X0287357Y0261581D01*
X0288155Y0260783D02*
X0271540Y0260783D01*
X0271996Y0259984D02*
X0288954Y0259984D01*
X0289752Y0259186D02*
X0272452Y0259186D01*
X0272909Y0258387D02*
X0290551Y0258387D01*
X0291349Y0257589D02*
X0273365Y0257589D01*
X0273821Y0256790D02*
X0292148Y0256790D01*
X0292946Y0255992D02*
X0274411Y0255992D01*
X0275003Y0255193D02*
X0293745Y0255193D01*
X0292591Y0254395D02*
X0275595Y0254395D01*
X0276187Y0253596D02*
X0291956Y0253596D01*
X0291625Y0252798D02*
X0276779Y0252798D01*
X0283893Y0268404D02*
X0298145Y0254152D01*
X0298145Y0246081D01*
X0301211Y0247208D02*
X0302961Y0247208D01*
X0302162Y0246410D02*
X0301409Y0246410D01*
X0300835Y0248007D02*
X0303759Y0248007D01*
X0304558Y0248805D02*
X0300520Y0248805D01*
X0300520Y0249604D02*
X0305356Y0249604D01*
X0306155Y0250402D02*
X0300520Y0250402D01*
X0300520Y0251201D02*
X0306954Y0251201D01*
X0307752Y0251999D02*
X0300520Y0251999D01*
X0300520Y0252798D02*
X0308551Y0252798D01*
X0309349Y0253596D02*
X0300520Y0253596D01*
X0300520Y0254395D02*
X0310148Y0254395D01*
X0310946Y0255193D02*
X0300462Y0255193D01*
X0299663Y0255992D02*
X0311745Y0255992D01*
X0312543Y0256790D02*
X0298865Y0256790D01*
X0298066Y0257589D02*
X0313342Y0257589D01*
X0314140Y0258387D02*
X0297268Y0258387D01*
X0296469Y0259186D02*
X0314939Y0259186D01*
X0315737Y0259984D02*
X0295671Y0259984D01*
X0294872Y0260783D02*
X0316536Y0260783D01*
X0317334Y0261581D02*
X0294074Y0261581D01*
X0293275Y0262380D02*
X0318133Y0262380D01*
X0318931Y0263179D02*
X0292477Y0263179D01*
X0291678Y0263977D02*
X0319730Y0263977D01*
X0320528Y0264776D02*
X0307844Y0264776D01*
X0305454Y0264776D02*
X0290880Y0264776D01*
X0290081Y0265574D02*
X0304273Y0265574D01*
X0303713Y0266373D02*
X0289283Y0266373D01*
X0288484Y0267171D02*
X0303385Y0267171D01*
X0303385Y0267970D02*
X0287686Y0267970D01*
X0287157Y0268768D02*
X0303512Y0268768D01*
X0303842Y0269567D02*
X0286944Y0269567D01*
X0286547Y0270365D02*
X0304585Y0270365D01*
X0315533Y0271164D02*
X0285749Y0271164D01*
X0311112Y0245611D02*
X0336195Y0245611D01*
X0335397Y0244813D02*
X0310314Y0244813D01*
X0309515Y0244014D02*
X0334598Y0244014D01*
X0333800Y0243216D02*
X0308717Y0243216D01*
X0307918Y0242417D02*
X0333001Y0242417D01*
X0332202Y0241619D02*
X0307120Y0241619D01*
X0306321Y0240820D02*
X0331404Y0240820D01*
X0337005Y0246410D02*
X0311911Y0246410D01*
X0312709Y0247208D02*
X0337803Y0247208D01*
X0338602Y0248007D02*
X0313508Y0248007D01*
X0314306Y0248805D02*
X0339401Y0248805D01*
X0340199Y0249604D02*
X0326205Y0249604D01*
X0324090Y0252105D02*
X0349917Y0252105D01*
X0356255Y0245766D01*
X0365310Y0245766D01*
X0369641Y0250097D01*
X0373578Y0250097D01*
X0372023Y0247208D02*
X0370111Y0247208D01*
X0366588Y0250402D02*
X0362986Y0250402D01*
X0362972Y0250369D02*
X0363242Y0251021D01*
X0363380Y0251713D01*
X0363380Y0251875D01*
X0359989Y0251875D01*
X0359989Y0248484D01*
X0360151Y0248484D01*
X0360843Y0248622D01*
X0361495Y0248892D01*
X0362081Y0249284D01*
X0362580Y0249782D01*
X0362972Y0250369D01*
X0363278Y0251201D02*
X0367387Y0251201D01*
X0368185Y0251999D02*
X0359989Y0251999D01*
X0359608Y0251999D02*
X0353380Y0251999D01*
X0352582Y0252798D02*
X0356293Y0252798D01*
X0356557Y0253596D02*
X0351783Y0253596D01*
X0350985Y0254395D02*
X0357064Y0254395D01*
X0358034Y0255193D02*
X0325162Y0255193D01*
X0323018Y0255193D02*
X0320695Y0255193D01*
X0321493Y0255992D02*
X0358468Y0255992D01*
X0359608Y0255193D02*
X0359989Y0255193D01*
X0359989Y0254395D02*
X0359608Y0254395D01*
X0359608Y0253596D02*
X0359989Y0253596D01*
X0359989Y0252798D02*
X0359608Y0252798D01*
X0359608Y0251201D02*
X0359989Y0251201D01*
X0359989Y0250402D02*
X0359608Y0250402D01*
X0359608Y0249604D02*
X0359989Y0249604D01*
X0359989Y0248805D02*
X0359608Y0248805D01*
X0358311Y0248805D02*
X0356574Y0248805D01*
X0357196Y0249604D02*
X0355776Y0249604D01*
X0354977Y0250402D02*
X0356611Y0250402D01*
X0356319Y0251201D02*
X0354179Y0251201D01*
X0357070Y0256790D02*
X0339268Y0256790D01*
X0340607Y0257589D02*
X0356274Y0257589D01*
X0355943Y0258387D02*
X0341232Y0258387D01*
X0341562Y0259186D02*
X0355643Y0259186D01*
X0355643Y0259984D02*
X0341606Y0259984D01*
X0341525Y0260783D02*
X0355650Y0260783D01*
X0355980Y0261581D02*
X0341194Y0261581D01*
X0340517Y0262380D02*
X0356362Y0262380D01*
X0357160Y0263179D02*
X0339050Y0263179D01*
X0337633Y0263179D02*
X0330789Y0263179D01*
X0329478Y0263977D02*
X0358686Y0263977D01*
X0363304Y0252798D02*
X0371663Y0252798D01*
X0365790Y0249604D02*
X0362401Y0249604D01*
X0361286Y0248805D02*
X0364991Y0248805D01*
X0351251Y0242417D02*
X0410388Y0242417D01*
X0409492Y0241619D02*
X0350944Y0241619D01*
X0350413Y0240820D02*
X0408595Y0240820D01*
X0407699Y0240022D02*
X0349301Y0240022D01*
X0345562Y0240820D02*
X0340849Y0240820D01*
X0341647Y0241619D02*
X0345031Y0241619D01*
X0344724Y0242417D02*
X0342446Y0242417D01*
X0337415Y0256790D02*
X0322292Y0256790D01*
X0323090Y0257589D02*
X0327461Y0257589D01*
X0326349Y0258387D02*
X0323889Y0258387D01*
X0324687Y0259186D02*
X0325819Y0259186D01*
X0325511Y0259984D02*
X0325486Y0259984D01*
X0321764Y0254395D02*
X0319896Y0254395D01*
X0319097Y0253596D02*
X0321175Y0253596D01*
X0320844Y0252798D02*
X0318299Y0252798D01*
X0317500Y0251999D02*
X0320826Y0251999D01*
X0320932Y0251201D02*
X0316702Y0251201D01*
X0315903Y0250402D02*
X0321262Y0250402D01*
X0321975Y0249604D02*
X0315105Y0249604D01*
X0299050Y0239939D02*
X0355861Y0296750D01*
X0372426Y0310291D02*
X0411209Y0310291D01*
X0413145Y0312971D02*
X0401255Y0312971D01*
X0401704Y0315880D02*
X0411640Y0315880D01*
X0407543Y0326261D02*
X0400441Y0326261D01*
X0394641Y0324782D02*
X0387043Y0324782D01*
X0344413Y0372575D02*
X0343187Y0372575D01*
X0343187Y0373373D02*
X0344413Y0373373D01*
X0344413Y0374172D02*
X0343187Y0374172D01*
X0343187Y0374970D02*
X0344413Y0374970D01*
X0344339Y0375769D02*
X0343187Y0375769D01*
X0343106Y0376567D02*
X0344339Y0376567D01*
X0344339Y0377366D02*
X0342362Y0377366D01*
X0344339Y0378164D02*
X0339856Y0378164D01*
X0339057Y0378963D02*
X0344339Y0378963D01*
X0344339Y0379761D02*
X0338259Y0379761D01*
X0337460Y0380560D02*
X0344339Y0380560D01*
X0344339Y0381358D02*
X0336662Y0381358D01*
X0335863Y0382157D02*
X0344339Y0382157D01*
X0344339Y0382955D02*
X0335065Y0382955D01*
X0334266Y0383754D02*
X0344339Y0383754D01*
X0344339Y0384552D02*
X0333468Y0384552D01*
X0333039Y0385351D02*
X0337586Y0385351D01*
X0337345Y0386149D02*
X0333039Y0386149D01*
X0333039Y0386948D02*
X0337345Y0386948D01*
X0337345Y0387746D02*
X0333039Y0387746D01*
X0333039Y0388545D02*
X0337345Y0388545D01*
X0337345Y0389343D02*
X0333039Y0389343D01*
X0333039Y0390142D02*
X0337345Y0390142D01*
X0337345Y0390940D02*
X0333039Y0390940D01*
X0333039Y0391739D02*
X0337345Y0391739D01*
X0337345Y0392537D02*
X0333988Y0392537D01*
X0302016Y0229641D02*
X0394080Y0229641D01*
X0392785Y0228843D02*
X0303246Y0228843D01*
X0304548Y0228044D02*
X0391227Y0228044D01*
X0389668Y0227246D02*
X0306172Y0227246D01*
X0307796Y0226447D02*
X0388109Y0226447D01*
X0386550Y0225648D02*
X0309420Y0225648D01*
X0311044Y0224850D02*
X0384992Y0224850D01*
X0383433Y0224051D02*
X0312668Y0224051D01*
X0313696Y0223546D02*
X0313696Y0223546D01*
X0314529Y0223253D02*
X0327406Y0223253D01*
X0326607Y0222454D02*
X0316800Y0222454D01*
X0319072Y0221656D02*
X0326328Y0221656D01*
X0326328Y0220857D02*
X0321343Y0220857D01*
X0323614Y0220059D02*
X0326328Y0220059D01*
X0368569Y0223253D02*
X0381283Y0223253D01*
X0379070Y0222454D02*
X0369368Y0222454D01*
X0369647Y0221656D02*
X0376857Y0221656D01*
X0374644Y0220857D02*
X0369647Y0220857D01*
X0369647Y0220059D02*
X0372322Y0220059D01*
X0224923Y0094693D02*
X0222225Y0094693D01*
X0222403Y0093894D02*
X0225140Y0093894D01*
X0225140Y0093096D02*
X0222403Y0093096D01*
X0222403Y0092297D02*
X0225140Y0092297D01*
X0225140Y0091499D02*
X0222403Y0091499D01*
X0222291Y0090700D02*
X0225140Y0090700D01*
X0224265Y0089902D02*
X0221960Y0089902D01*
X0221630Y0089103D02*
X0223880Y0089103D01*
X0223847Y0088305D02*
X0221299Y0088305D01*
X0220720Y0087506D02*
X0223788Y0087506D01*
X0223728Y0086708D02*
X0219921Y0086708D01*
X0219123Y0085909D02*
X0223668Y0085909D01*
X0223608Y0085110D02*
X0217629Y0085110D01*
X0221894Y0095491D02*
X0224091Y0095491D01*
X0223880Y0096290D02*
X0221563Y0096290D01*
X0221233Y0097088D02*
X0223836Y0097088D01*
X0223776Y0097887D02*
X0220560Y0097887D01*
X0219762Y0098685D02*
X0223717Y0098685D01*
X0223657Y0099484D02*
X0218963Y0099484D01*
X0217244Y0100282D02*
X0223598Y0100282D01*
X0204902Y0037998D02*
X0065685Y0037998D01*
X0066390Y0037200D02*
X0204272Y0037200D01*
X0203641Y0036401D02*
X0067094Y0036401D01*
X0067799Y0035603D02*
X0158388Y0035603D01*
X0158724Y0035742D02*
X0157557Y0035258D01*
X0156664Y0034365D01*
X0140183Y0017884D01*
X0139968Y0017795D01*
X0139050Y0016877D01*
X0138553Y0015678D01*
X0138553Y0014379D01*
X0139050Y0013180D01*
X0139968Y0012261D01*
X0141167Y0011765D01*
X0142466Y0011765D01*
X0143665Y0012261D01*
X0144584Y0013180D01*
X0144673Y0013394D01*
X0160581Y0029303D01*
X0160624Y0029303D01*
X0161823Y0029800D01*
X0162741Y0030718D01*
X0163238Y0031918D01*
X0163238Y0033216D01*
X0162741Y0034416D01*
X0161823Y0035334D01*
X0160624Y0035831D01*
X0159325Y0035831D01*
X0159110Y0035742D01*
X0158724Y0035742D01*
X0157103Y0034804D02*
X0068503Y0034804D01*
X0069207Y0034006D02*
X0156304Y0034006D01*
X0155506Y0033207D02*
X0069912Y0033207D01*
X0070616Y0032409D02*
X0154707Y0032409D01*
X0153909Y0031610D02*
X0071321Y0031610D01*
X0072025Y0030812D02*
X0153110Y0030812D01*
X0152312Y0030013D02*
X0072730Y0030013D01*
X0073627Y0029215D02*
X0151513Y0029215D01*
X0150715Y0028416D02*
X0074532Y0028416D01*
X0075438Y0027618D02*
X0149916Y0027618D01*
X0149118Y0026819D02*
X0076343Y0026819D01*
X0077248Y0026021D02*
X0148319Y0026021D01*
X0147521Y0025222D02*
X0078153Y0025222D01*
X0079058Y0024424D02*
X0146722Y0024424D01*
X0145924Y0023625D02*
X0079963Y0023625D01*
X0080868Y0022827D02*
X0145125Y0022827D01*
X0144327Y0022028D02*
X0081986Y0022028D01*
X0083159Y0021230D02*
X0143528Y0021230D01*
X0142730Y0020431D02*
X0084331Y0020431D01*
X0085504Y0019633D02*
X0141931Y0019633D01*
X0141133Y0018834D02*
X0086676Y0018834D01*
X0087849Y0018036D02*
X0140334Y0018036D01*
X0139410Y0017237D02*
X0089021Y0017237D01*
X0090194Y0016439D02*
X0138868Y0016439D01*
X0138553Y0015640D02*
X0091752Y0015640D01*
X0093313Y0014841D02*
X0138553Y0014841D01*
X0138692Y0014043D02*
X0094874Y0014043D01*
X0096435Y0013244D02*
X0139023Y0013244D01*
X0139783Y0012446D02*
X0097996Y0012446D01*
X0099556Y0011647D02*
X0170888Y0011647D01*
X0172765Y0012446D02*
X0143850Y0012446D01*
X0144610Y0013244D02*
X0174642Y0013244D01*
X0176133Y0014043D02*
X0145321Y0014043D01*
X0146120Y0014841D02*
X0177505Y0014841D01*
X0178876Y0015640D02*
X0146918Y0015640D01*
X0147717Y0016439D02*
X0180248Y0016439D01*
X0181619Y0017237D02*
X0148515Y0017237D01*
X0149314Y0018036D02*
X0182991Y0018036D01*
X0184362Y0018834D02*
X0150112Y0018834D01*
X0150911Y0019633D02*
X0185476Y0019633D01*
X0186522Y0020431D02*
X0151709Y0020431D01*
X0152508Y0021230D02*
X0187567Y0021230D01*
X0188613Y0022028D02*
X0153306Y0022028D01*
X0154105Y0022827D02*
X0189658Y0022827D01*
X0190704Y0023625D02*
X0154903Y0023625D01*
X0155702Y0024424D02*
X0191749Y0024424D01*
X0192795Y0025222D02*
X0156500Y0025222D01*
X0157299Y0026021D02*
X0193752Y0026021D01*
X0193444Y0025717D02*
X0193444Y0025717D01*
X0194563Y0026819D02*
X0158097Y0026819D01*
X0158896Y0027618D02*
X0195375Y0027618D01*
X0196187Y0028416D02*
X0159694Y0028416D01*
X0160493Y0029215D02*
X0196998Y0029215D01*
X0197810Y0030013D02*
X0162037Y0030013D01*
X0162780Y0030812D02*
X0198622Y0030812D01*
X0199433Y0031610D02*
X0163111Y0031610D01*
X0163238Y0032409D02*
X0200245Y0032409D01*
X0201057Y0033207D02*
X0163238Y0033207D01*
X0162911Y0034006D02*
X0201749Y0034006D01*
X0202379Y0034804D02*
X0162353Y0034804D01*
X0161174Y0035603D02*
X0203010Y0035603D01*
X0169011Y0010849D02*
X0101555Y0010849D01*
X0103757Y0010050D02*
X0167133Y0010050D01*
X0165256Y0009252D02*
X0105959Y0009252D01*
X0108162Y0008453D02*
X0162625Y0008453D01*
X0159818Y0007655D02*
X0110364Y0007655D01*
X0113833Y0006856D02*
X0157012Y0006856D01*
X0154158Y0006058D02*
X0117356Y0006058D01*
X0120880Y0005259D02*
X0148952Y0005259D01*
X0143746Y0004461D02*
X0128535Y0004461D01*
X0082435Y0114655D02*
X0049747Y0114655D01*
X0049975Y0115454D02*
X0073736Y0115454D01*
X0073365Y0116252D02*
X0050202Y0116252D01*
X0050429Y0117051D02*
X0073365Y0117051D01*
X0073365Y0117849D02*
X0050656Y0117849D01*
X0050883Y0118648D02*
X0073365Y0118648D01*
X0073365Y0119446D02*
X0051111Y0119446D01*
X0051338Y0120245D02*
X0073365Y0120245D01*
X0073365Y0121044D02*
X0051565Y0121044D01*
X0051792Y0121842D02*
X0073365Y0121842D01*
X0073365Y0122641D02*
X0052091Y0122641D01*
X0052431Y0123439D02*
X0073365Y0123439D01*
X0073365Y0124238D02*
X0052770Y0124238D01*
X0053110Y0125036D02*
X0073365Y0125036D01*
X0073365Y0125835D02*
X0053450Y0125835D01*
X0053790Y0126633D02*
X0073365Y0126633D01*
X0073365Y0127432D02*
X0054129Y0127432D01*
X0054469Y0128230D02*
X0073365Y0128230D01*
X0073365Y0129029D02*
X0054809Y0129029D01*
X0055148Y0129827D02*
X0073365Y0129827D01*
X0073365Y0130626D02*
X0055488Y0130626D01*
X0055828Y0131424D02*
X0073365Y0131424D01*
X0073365Y0132223D02*
X0056167Y0132223D01*
X0056618Y0133021D02*
X0073365Y0133021D01*
X0073365Y0133820D02*
X0057083Y0133820D01*
X0057548Y0134618D02*
X0073365Y0134618D01*
X0073365Y0135417D02*
X0058013Y0135417D01*
X0058478Y0136215D02*
X0073365Y0136215D01*
X0073365Y0137014D02*
X0058942Y0137014D01*
X0059407Y0137812D02*
X0073365Y0137812D01*
X0073365Y0138611D02*
X0059872Y0138611D01*
X0060337Y0139409D02*
X0073365Y0139409D01*
X0073365Y0140208D02*
X0060802Y0140208D01*
X0061267Y0141006D02*
X0073365Y0141006D01*
X0073365Y0141805D02*
X0061732Y0141805D01*
X0062328Y0142603D02*
X0073365Y0142603D01*
X0073365Y0143402D02*
X0062938Y0143402D01*
X0063548Y0144200D02*
X0073365Y0144200D01*
X0073365Y0144999D02*
X0064158Y0144999D01*
X0064768Y0145797D02*
X0073365Y0145797D01*
X0073365Y0146596D02*
X0065378Y0146596D01*
X0065988Y0147394D02*
X0073365Y0147394D01*
X0073365Y0148193D02*
X0066597Y0148193D01*
X0067207Y0148991D02*
X0073365Y0148991D01*
X0073365Y0149790D02*
X0067817Y0149790D01*
X0068427Y0150588D02*
X0073365Y0150588D01*
X0073365Y0151387D02*
X0069194Y0151387D01*
X0069980Y0152185D02*
X0073365Y0152185D01*
X0073365Y0152984D02*
X0070766Y0152984D01*
X0071551Y0153782D02*
X0073365Y0153782D01*
X0073365Y0154581D02*
X0072337Y0154581D01*
X0073122Y0155379D02*
X0073365Y0155379D01*
D17*
X0101924Y0167420D03*
X0105861Y0171357D03*
X0107830Y0167420D03*
X0111767Y0171357D03*
X0113736Y0167420D03*
X0117673Y0171357D03*
X0119641Y0167420D03*
X0123578Y0171357D03*
X0133421Y0171357D03*
X0133421Y0167420D03*
X0129484Y0155609D03*
X0125547Y0155609D03*
X0127515Y0151672D03*
X0125547Y0147735D03*
X0131452Y0147735D03*
X0135389Y0151672D03*
X0133421Y0139861D03*
X0133421Y0135924D03*
X0135389Y0128050D03*
X0131452Y0122144D03*
X0139326Y0122144D03*
X0141728Y0116829D03*
X0139326Y0112302D03*
X0135389Y0108365D03*
X0131452Y0112302D03*
X0131452Y0100491D03*
X0127515Y0096554D03*
X0123578Y0100491D03*
X0117673Y0092616D03*
X0121610Y0088679D03*
X0125547Y0084742D03*
X0129484Y0080805D03*
X0133421Y0076868D03*
X0137358Y0072931D03*
X0125547Y0061120D03*
X0119641Y0067026D03*
X0113736Y0072931D03*
X0107830Y0078837D03*
X0101924Y0072931D03*
X0096019Y0078837D03*
X0090113Y0072931D03*
X0084208Y0078837D03*
X0090113Y0084742D03*
X0084208Y0090648D03*
X0090113Y0096554D03*
X0096019Y0090648D03*
X0101924Y0084742D03*
X0113736Y0096554D03*
X0105861Y0108365D03*
X0084484Y0117223D03*
X0068460Y0110333D03*
X0064523Y0116239D03*
X0064523Y0122144D03*
X0052712Y0116239D03*
X0052712Y0110333D03*
X0056649Y0106396D03*
X0050743Y0104428D03*
X0074365Y0098522D03*
X0080271Y0098522D03*
X0078302Y0084742D03*
X0074365Y0078837D03*
X0078302Y0072931D03*
X0066491Y0061120D03*
X0060586Y0055215D03*
X0066491Y0049309D03*
X0072397Y0055215D03*
X0078302Y0049309D03*
X0072397Y0043404D03*
X0078302Y0037498D03*
X0084208Y0031593D03*
X0090113Y0025687D03*
X0096019Y0031593D03*
X0101924Y0037498D03*
X0107830Y0043404D03*
X0113736Y0037498D03*
X0119641Y0043404D03*
X0113736Y0049309D03*
X0107830Y0055215D03*
X0101924Y0049309D03*
X0096019Y0043404D03*
X0090113Y0037498D03*
X0084208Y0043404D03*
X0090113Y0049309D03*
X0084208Y0055215D03*
X0096019Y0055215D03*
X0101924Y0061120D03*
X0107830Y0067026D03*
X0119641Y0055215D03*
X0125547Y0049309D03*
X0131452Y0055215D03*
X0143263Y0039467D03*
X0151137Y0041435D03*
X0159974Y0032567D03*
X0147200Y0031593D03*
X0143263Y0027656D03*
X0131452Y0027656D03*
X0127515Y0023719D03*
X0123578Y0019782D03*
X0141817Y0015028D03*
X0157043Y0015845D03*
X0176728Y0037498D03*
X0180665Y0033561D03*
X0184602Y0029624D03*
X0190507Y0035530D03*
X0186570Y0039467D03*
X0182633Y0043404D03*
X0188539Y0049309D03*
X0192476Y0045372D03*
X0196413Y0041435D03*
X0202318Y0057183D03*
X0198381Y0061120D03*
X0194444Y0065057D03*
X0198381Y0068994D03*
X0202318Y0065057D03*
X0206255Y0061120D03*
X0210192Y0065057D03*
X0206255Y0068994D03*
X0202318Y0072931D03*
X0206255Y0076868D03*
X0210192Y0072931D03*
X0214129Y0068994D03*
X0214129Y0076868D03*
X0196413Y0092616D03*
X0202318Y0100491D03*
X0206255Y0104428D03*
X0210192Y0106396D03*
X0198381Y0116239D03*
X0194444Y0120176D03*
X0198381Y0124113D03*
X0194444Y0128050D03*
X0198381Y0131987D03*
X0194444Y0135924D03*
X0192476Y0141829D03*
X0186570Y0141829D03*
X0178696Y0139861D03*
X0174759Y0143798D03*
X0174759Y0135924D03*
X0170822Y0131987D03*
X0172791Y0126081D03*
X0170822Y0120176D03*
X0176728Y0104428D03*
X0170822Y0098522D03*
X0174759Y0092616D03*
X0186570Y0102459D03*
X0186570Y0112302D03*
X0194444Y0112302D03*
X0166688Y0137774D03*
X0141295Y0130018D03*
X0141295Y0106396D03*
X0133421Y0094585D03*
X0129484Y0090648D03*
X0135389Y0088679D03*
X0157043Y0076868D03*
X0162948Y0080805D03*
X0172791Y0067026D03*
X0176728Y0063089D03*
X0172791Y0059152D03*
X0168854Y0063089D03*
X0164917Y0059152D03*
X0168854Y0055215D03*
X0164917Y0051278D03*
X0160980Y0055215D03*
X0161098Y0100097D03*
X0107830Y0031593D03*
X0101924Y0025687D03*
X0060586Y0067026D03*
X0054680Y0061120D03*
X0054680Y0072931D03*
X0060586Y0078837D03*
X0096019Y0236317D03*
X0101924Y0240254D03*
X0107830Y0240254D03*
X0107830Y0271750D03*
X0101924Y0291435D03*
X0086176Y0293404D03*
X0077673Y0307183D03*
X0094050Y0334742D03*
X0094050Y0348522D03*
X0127515Y0352459D03*
X0135389Y0364270D03*
X0143263Y0364270D03*
X0151137Y0364270D03*
X0143263Y0352459D03*
X0157043Y0346554D03*
X0127515Y0371455D03*
X0188539Y0318994D03*
X0174759Y0299309D03*
X0168854Y0283561D03*
X0166885Y0242223D03*
X0166885Y0234349D03*
X0263342Y0283561D03*
X0265310Y0287498D03*
X0263342Y0291435D03*
X0267279Y0291435D03*
X0271216Y0291435D03*
X0273184Y0295372D03*
X0269247Y0295372D03*
X0265310Y0295372D03*
X0277121Y0299309D03*
X0279090Y0303246D03*
X0279090Y0309152D03*
X0297161Y0312656D03*
X0302712Y0313089D03*
X0302712Y0309152D03*
X0306649Y0309152D03*
X0306649Y0305215D03*
X0310586Y0305215D03*
X0316491Y0313089D03*
X0320428Y0309152D03*
X0324365Y0305215D03*
X0324365Y0299309D03*
X0328302Y0295372D03*
X0324365Y0291435D03*
X0328302Y0287498D03*
X0332239Y0283561D03*
X0336176Y0287498D03*
X0332239Y0291435D03*
X0336176Y0297341D03*
X0340113Y0293404D03*
X0342082Y0299309D03*
X0346019Y0303246D03*
X0349956Y0307183D03*
X0346019Y0311120D03*
X0342082Y0307183D03*
X0338145Y0303246D03*
X0351924Y0299309D03*
X0361767Y0301672D03*
X0365704Y0305609D03*
X0361767Y0317026D03*
X0349956Y0315057D03*
X0328302Y0334742D03*
X0324365Y0330805D03*
X0320428Y0326868D03*
X0316491Y0322931D03*
X0312554Y0318994D03*
X0308617Y0322931D03*
X0312554Y0326868D03*
X0316491Y0330805D03*
X0320428Y0334742D03*
X0324365Y0338679D03*
X0324188Y0346731D03*
X0320428Y0350491D03*
X0324365Y0354428D03*
X0328520Y0358147D03*
X0338893Y0353010D03*
X0336176Y0348522D03*
X0336176Y0344585D03*
X0332239Y0346554D03*
X0340310Y0346514D03*
X0337673Y0338994D03*
X0350035Y0341947D03*
X0364523Y0360097D03*
X0365625Y0363522D03*
X0361531Y0363128D03*
X0355861Y0371455D03*
X0355861Y0380707D03*
X0351924Y0383955D03*
X0336098Y0385176D03*
X0375547Y0380018D03*
X0387358Y0380707D03*
X0387358Y0371455D03*
X0382082Y0362577D03*
X0377515Y0362695D03*
X0395783Y0352813D03*
X0401137Y0350884D03*
X0401137Y0346947D03*
X0401019Y0341868D03*
X0401137Y0336711D03*
X0407043Y0336711D03*
X0414050Y0334388D03*
X0419169Y0329624D03*
X0424759Y0329231D03*
X0428696Y0326868D03*
X0428696Y0332774D03*
X0428696Y0320963D03*
X0413145Y0312971D03*
X0396098Y0310963D03*
X0387358Y0311120D03*
X0379484Y0311514D03*
X0383421Y0303640D03*
X0387358Y0301672D03*
X0391295Y0299703D03*
X0394011Y0295766D03*
X0403106Y0293798D03*
X0403106Y0289861D03*
X0399169Y0285530D03*
X0403106Y0281593D03*
X0407043Y0277656D03*
X0410980Y0273719D03*
X0414917Y0269782D03*
X0410980Y0265845D03*
X0407043Y0269782D03*
X0403106Y0273719D03*
X0399169Y0277656D03*
X0395232Y0281593D03*
X0391295Y0277656D03*
X0395232Y0273719D03*
X0399169Y0269782D03*
X0403106Y0265845D03*
X0407043Y0261908D03*
X0403106Y0257971D03*
X0399169Y0261908D03*
X0395232Y0265845D03*
X0391295Y0269782D03*
X0387358Y0273719D03*
X0383421Y0269782D03*
X0387358Y0265845D03*
X0391295Y0261908D03*
X0395232Y0257971D03*
X0399169Y0254034D03*
X0395232Y0250097D03*
X0391295Y0254034D03*
X0387358Y0257971D03*
X0383421Y0261908D03*
X0379484Y0265845D03*
X0375547Y0261908D03*
X0379484Y0257971D03*
X0383421Y0254034D03*
X0387358Y0250097D03*
X0391295Y0246160D03*
X0373578Y0250097D03*
X0367673Y0234349D03*
X0349956Y0246160D03*
X0347987Y0243010D03*
X0338342Y0259939D03*
X0328775Y0260577D03*
X0324090Y0252105D03*
X0312554Y0259939D03*
X0306649Y0267813D03*
X0310586Y0271750D03*
X0312554Y0277656D03*
X0310586Y0281593D03*
X0306649Y0285530D03*
X0302712Y0281593D03*
X0318263Y0273050D03*
X0340113Y0269782D03*
X0349956Y0270176D03*
X0355861Y0268207D03*
X0359798Y0266239D03*
X0357830Y0278050D03*
X0361767Y0281987D03*
X0365704Y0285924D03*
X0369641Y0289861D03*
X0373578Y0293798D03*
X0387043Y0324782D03*
X0394641Y0324782D03*
X0409208Y0329104D03*
X0418854Y0350491D03*
X0377673Y0336829D03*
X0414917Y0295766D03*
X0414917Y0291829D03*
X0416885Y0287498D03*
X0412948Y0283561D03*
X0420822Y0283561D03*
X0424759Y0279624D03*
X0428696Y0275687D03*
X0428696Y0283561D03*
X0424759Y0287498D03*
X0420822Y0291435D03*
X0428696Y0291435D03*
X0432633Y0287498D03*
X0389326Y0228443D03*
X0328578Y0233089D03*
X0326334Y0236317D03*
X0314523Y0230805D03*
X0316491Y0226868D03*
X0320428Y0222931D03*
X0310586Y0228837D03*
X0306649Y0228837D03*
X0305389Y0234900D03*
X0302003Y0237105D03*
X0299050Y0239939D03*
X0298145Y0246081D03*
X0294838Y0252026D03*
X0290940Y0249113D03*
X0287318Y0253050D03*
X0277121Y0254034D03*
X0271216Y0265845D03*
X0271216Y0271750D03*
X0265310Y0277656D03*
X0283893Y0268404D03*
X0312554Y0299309D03*
X0300192Y0322735D03*
X0296806Y0326868D03*
X0292869Y0322931D03*
X0300743Y0330805D03*
X0304680Y0334742D03*
X0308617Y0338679D03*
X0312554Y0342616D03*
X0316491Y0346554D03*
X0194444Y0342616D03*
D18*
X0174759Y0352459D02*
X0174759Y0371455D01*
X0174759Y0352459D02*
X0168854Y0346554D01*
X0157043Y0346554D01*
X0127515Y0371455D02*
X0115015Y0371455D01*
X0094050Y0348522D02*
X0094050Y0334742D01*
X0092847Y0307183D02*
X0077673Y0307183D01*
X0092847Y0307183D02*
X0099855Y0300176D01*
X0107350Y0300176D01*
X0300192Y0322735D02*
X0324188Y0346731D01*
X0337791Y0360333D01*
X0343106Y0360333D01*
X0348027Y0365254D01*
X0347987Y0365294D02*
X0347987Y0380707D01*
X0334208Y0299309D02*
X0324365Y0299309D01*
X0334208Y0299309D02*
X0336176Y0297341D01*
X0312554Y0299309D02*
X0312554Y0277656D01*
X0119641Y0061120D02*
X0111767Y0061120D01*
X0119641Y0061120D02*
X0145232Y0035530D01*
X0153106Y0035530D01*
X0168376Y0050800D01*
X0177205Y0050800D01*
X0174759Y0048354D01*
X0174759Y0033561D01*
X0157043Y0015845D01*
D19*
X0141817Y0015028D02*
X0159355Y0032567D01*
X0159974Y0032567D01*
X0151137Y0041435D02*
X0151137Y0143798D01*
X0147200Y0147735D01*
X0139326Y0147735D01*
X0135389Y0151672D01*
X0127515Y0151672D02*
X0127515Y0135924D01*
X0135389Y0128050D01*
X0105861Y0108365D02*
X0105861Y0102459D01*
X0099956Y0096554D01*
X0090113Y0096554D01*
X0170822Y0098522D02*
X0176728Y0104428D01*
X0186570Y0102459D02*
X0196413Y0092616D01*
X0174759Y0299309D02*
X0174759Y0322931D01*
X0194444Y0342616D01*
X0107389Y0300215D02*
X0107350Y0300176D01*
X0328520Y0358147D02*
X0332239Y0361866D01*
X0332239Y0367420D01*
X0336275Y0371455D01*
X0340113Y0371455D01*
X0347987Y0365294D02*
X0348027Y0365254D01*
D20*
X0355861Y0371455D02*
X0355861Y0380707D01*
X0351924Y0383955D02*
X0357830Y0389861D01*
X0371494Y0389861D01*
X0383450Y0386556D01*
X0387358Y0382648D01*
X0387358Y0380707D01*
X0387358Y0371455D01*
X0381531Y0363128D02*
X0382082Y0362577D01*
X0391846Y0352813D01*
X0395783Y0352813D01*
X0414050Y0334546D01*
X0414050Y0334388D01*
X0395940Y0311120D02*
X0387358Y0311120D01*
X0395940Y0311120D02*
X0396098Y0310963D01*
X0394011Y0295766D02*
X0383027Y0295766D01*
X0361767Y0317026D01*
X0318263Y0304664D02*
X0300192Y0322735D01*
X0318263Y0304664D02*
X0318263Y0273050D01*
X0328775Y0260577D02*
X0329413Y0259939D01*
X0338342Y0259939D01*
X0340113Y0269782D02*
X0342082Y0269782D01*
X0359798Y0252065D01*
X0367673Y0234349D02*
X0373578Y0228443D01*
X0389326Y0228443D01*
X0367673Y0234349D02*
X0360192Y0226868D01*
X0316491Y0226868D01*
X0170822Y0285530D02*
X0168854Y0283561D01*
X0170822Y0285530D02*
X0170822Y0332774D01*
X0162948Y0340648D01*
X0147200Y0340648D01*
X0143263Y0344585D01*
X0143263Y0352459D01*
X0143263Y0364270D02*
X0143263Y0371455D01*
X0099956Y0293404D02*
X0086176Y0293404D01*
X0099956Y0293404D02*
X0101924Y0291435D01*
X0096019Y0236317D02*
X0164917Y0236317D01*
X0166885Y0234349D01*
X0141334Y0117223D02*
X0123578Y0117223D01*
X0084484Y0117223D01*
X0141334Y0117223D02*
X0141728Y0116829D01*
X0361531Y0363128D02*
X0381531Y0363128D01*
D21*
X0401019Y0341868D02*
X0401019Y0341829D01*
X0396019Y0336829D01*
X0377673Y0336829D01*
D22*
X0367830Y0327774D02*
X0354208Y0341396D01*
X0354208Y0360766D01*
X0359798Y0366357D01*
X0359798Y0379861D01*
X0360645Y0380707D01*
X0363736Y0380707D01*
X0392358Y0332065D02*
X0411373Y0332065D01*
X0412830Y0330609D01*
X0418184Y0330609D01*
X0419169Y0329624D01*
X0392358Y0332065D02*
X0388066Y0327774D01*
X0367830Y0327774D01*
M02*
