%
M48
M72
T01C0.01378
T02C0.03307
T03C0.03937
T04C0.12598
%
T01
X72000Y46264
T02
X60411Y66012
X65133Y71668
X66933Y78813
X65455Y86031
X60992Y91894
X54426Y95239
X47060Y95404
X40352Y92357
X35630Y86701
X35307Y72337
X39770Y66475
X46336Y63130
X53702Y62965
T03
X20213Y15500
X20213Y25500
X30213Y25500
X30213Y15500
X40213Y15500
X40213Y25500
X50213Y25500
X50213Y15500
X60213Y15500
X60213Y25500
X70213Y25500
X70213Y15500
X80213Y15500
X80213Y25500
T04
X87614Y41760
X87614Y116563
X12811Y116563
X12811Y41760
M30
